<?xml version="1.0" encoding="utf-8" standalone="no"?>
<!DOCTYPE svg PUBLIC "-//W3C//DTD SVG 1.1//EN"
  "http://www.w3.org/Graphics/SVG/1.1/DTD/svg11.dtd">
<svg xmlns:xlink="http://www.w3.org/1999/xlink" width="555.277343pt" height="283.102pt" viewBox="0 0 555.277343 283.102" xmlns="http://www.w3.org/2000/svg" version="1.1">
 <metadata>
  <rdf:RDF xmlns:dc="http://purl.org/dc/elements/1.1/" xmlns:cc="http://creativecommons.org/ns#" xmlns:rdf="http://www.w3.org/1999/02/22-rdf-syntax-ns#">
   <cc:Work>
    <dc:type rdf:resource="http://purl.org/dc/dcmitype/StillImage"/>
    <dc:date>2023-04-22T22:49:52.640415</dc:date>
    <dc:format>image/svg+xml</dc:format>
    <dc:creator>
     <cc:Agent>
      <dc:title>Matplotlib v3.7.1, https://matplotlib.org/</dc:title>
     </cc:Agent>
    </dc:creator>
   </cc:Work>
  </rdf:RDF>
 </metadata>
 <defs>
  <style type="text/css">*{stroke-linejoin: round; stroke-linecap: butt}</style>
 </defs>
 <g id="figure_1">
  <g id="patch_1">
   <path d="M 0 283.102 
L 555.277343 283.102 
L 555.277343 0 
L 0 0 
z
" style="fill: #ffffff"/>
  </g>
  <g id="axes_1">
   <g id="line2d_1">
    <path d="M 44.7156 42.73 
L 44.7156 58.03 
L 52.3656 58.03 
L 52.3656 88.63 
L 37.0656 88.63 
L 37.0656 58.03 
L 44.7156 58.03 
M 44.7156 88.63 
L 44.7156 103.93 
" clip-path="url(#p300548f2d8)" style="fill: none; stroke: #000000; stroke-width: 2; stroke-linecap: round"/>
   </g>
   <g id="line2d_2">
    <path d="M 44.7156 103.93 
L 44.7156 116.17 
L 37.0656 116.17 
L 52.3656 116.17 
M 39.3606 119.842 
L 50.0706 119.842 
M 43.1856 123.514 
L 46.2456 123.514 
" clip-path="url(#p300548f2d8)" style="fill: none; stroke: #000000; stroke-width: 2; stroke-linecap: round"/>
   </g>
   <g id="line2d_3">
    <path d="M 44.7156 42.73 
L 75.3156 42.73 
L 105.9156 42.73 
" clip-path="url(#p300548f2d8)" style="fill: none; stroke: #000000; stroke-width: 2; stroke-linecap: round"/>
   </g>
   <g id="line2d_4">
    <path d="M 105.9156 42.73 
L 105.9156 73.33 
L 113.5656 73.33 
L 113.5656 103.93 
L 98.2656 103.93 
L 98.2656 73.33 
L 105.9156 73.33 
M 105.9156 103.93 
L 105.9156 134.53 
" clip-path="url(#p300548f2d8)" style="fill: none; stroke: #000000; stroke-width: 2; stroke-linecap: round"/>
   </g>
   <g id="line2d_5">
    <path d="M 105.9156 134.53 
M 108.9756 141.874 
L 113.5656 155.95 
M 118.1556 165.13 
" clip-path="url(#p300548f2d8)" style="fill: none; stroke: #000000; stroke-width: 2; stroke-linecap: round"/>
   </g>
   <g id="line2d_6">
    <path d="M 105.9156 42.73 
L 121.2156 42.73 
L 121.2156 35.08 
L 151.8156 35.08 
L 151.8156 50.38 
L 121.2156 50.38 
L 121.2156 42.73 
M 151.8156 42.73 
L 167.1156 42.73 
" clip-path="url(#p300548f2d8)" style="fill: none; stroke: #000000; stroke-width: 2; stroke-linecap: round"/>
   </g>
   <g id="line2d_7">
    <path d="M 167.1156 42.73 
L 167.1156 73.33 
L 174.7656 73.33 
L 174.7656 103.93 
L 159.4656 103.93 
L 159.4656 73.33 
L 167.1156 73.33 
M 167.1156 103.93 
L 167.1156 134.53 
" clip-path="url(#p300548f2d8)" style="fill: none; stroke: #000000; stroke-width: 2; stroke-linecap: round"/>
   </g>
   <g id="line2d_8">
    <path d="M 167.1156 134.53 
M 170.1756 141.874 
L 174.7656 155.95 
M 179.3556 165.13 
" clip-path="url(#p300548f2d8)" style="fill: none; stroke: #000000; stroke-width: 2; stroke-linecap: round"/>
   </g>
   <g id="line2d_9">
    <path d="M 167.1156 42.73 
L 182.4156 42.73 
L 182.4156 35.08 
L 213.0156 35.08 
L 213.0156 50.38 
L 182.4156 50.38 
L 182.4156 42.73 
M 213.0156 42.73 
L 228.3156 42.73 
" clip-path="url(#p300548f2d8)" style="fill: none; stroke: #000000; stroke-width: 2; stroke-linecap: round"/>
   </g>
   <g id="line2d_10">
    <path d="M 228.3156 42.73 
L 228.3156 73.33 
L 235.9656 73.33 
L 235.9656 103.93 
L 220.6656 103.93 
L 220.6656 73.33 
L 228.3156 73.33 
M 228.3156 103.93 
L 228.3156 134.53 
" clip-path="url(#p300548f2d8)" style="fill: none; stroke: #000000; stroke-width: 2; stroke-linecap: round"/>
   </g>
   <g id="line2d_11">
    <path d="M 228.3156 134.53 
M 231.3756 141.874 
L 235.9656 155.95 
M 240.5556 165.13 
" clip-path="url(#p300548f2d8)" style="fill: none; stroke: #000000; stroke-width: 2; stroke-linecap: round"/>
   </g>
   <g id="line2d_12">
    <path d="M 228.3156 42.73 
L 243.6156 42.73 
L 243.6156 35.08 
L 274.2156 35.08 
L 274.2156 50.38 
L 243.6156 50.38 
L 243.6156 42.73 
M 274.2156 42.73 
L 289.5156 42.73 
" clip-path="url(#p300548f2d8)" style="fill: none; stroke: #000000; stroke-width: 2; stroke-linecap: round"/>
   </g>
   <g id="line2d_13">
    <path d="M 289.5156 42.73 
L 289.5156 73.33 
L 297.1656 73.33 
L 297.1656 103.93 
L 281.8656 103.93 
L 281.8656 73.33 
L 289.5156 73.33 
M 289.5156 103.93 
L 289.5156 134.53 
" clip-path="url(#p300548f2d8)" style="fill: none; stroke: #000000; stroke-width: 2; stroke-linecap: round"/>
   </g>
   <g id="line2d_14">
    <path d="M 289.5156 134.53 
M 292.5756 141.874 
L 297.1656 155.95 
M 301.7556 165.13 
" clip-path="url(#p300548f2d8)" style="fill: none; stroke: #000000; stroke-width: 2; stroke-linecap: round"/>
   </g>
   <g id="line2d_15">
    <path d="M 118.1556 161.458 
L 118.1556 176.758 
L 118.1556 192.058 
" clip-path="url(#p300548f2d8)" style="fill: none; stroke: #000000; stroke-width: 2; stroke-linecap: round"/>
   </g>
   <g id="line2d_16">
    <path d="M 179.3556 161.458 
L 179.3556 176.758 
L 179.3556 192.058 
" clip-path="url(#p300548f2d8)" style="fill: none; stroke: #000000; stroke-width: 2; stroke-linecap: round"/>
   </g>
   <g id="line2d_17">
    <path d="M 179.3556 192.058 
L 148.7556 192.058 
L 118.1556 192.058 
" clip-path="url(#p300548f2d8)" style="fill: none; stroke: #000000; stroke-width: 2; stroke-linecap: round"/>
   </g>
   <g id="line2d_18">
    <path d="M 240.5556 161.458 
L 240.5556 176.758 
L 240.5556 192.058 
" clip-path="url(#p300548f2d8)" style="fill: none; stroke: #000000; stroke-width: 2; stroke-linecap: round"/>
   </g>
   <g id="line2d_19">
    <path d="M 240.5556 192.058 
L 179.3556 192.058 
L 118.1556 192.058 
" clip-path="url(#p300548f2d8)" style="fill: none; stroke: #000000; stroke-width: 2; stroke-linecap: round"/>
   </g>
   <g id="line2d_20">
    <path d="M 301.7556 161.458 
L 301.7556 176.758 
L 301.7556 192.058 
" clip-path="url(#p300548f2d8)" style="fill: none; stroke: #000000; stroke-width: 2; stroke-linecap: round"/>
   </g>
   <g id="line2d_21">
    <path d="M 301.7556 192.058 
L 209.9556 192.058 
L 118.1556 192.058 
" clip-path="url(#p300548f2d8)" style="fill: none; stroke: #000000; stroke-width: 2; stroke-linecap: round"/>
   </g>
   <g id="line2d_22">
    <path d="M 118.1556 192.058 
L 87.5556 192.058 
L 56.9556 192.058 
" clip-path="url(#p300548f2d8)" style="fill: none; stroke: #000000; stroke-width: 2; stroke-linecap: round"/>
   </g>
   <g id="line2d_23">
    <path d="M 56.9556 192.058 
L 56.9556 207.358 
L 72.2556 222.658 
L 56.9556 237.958 
L 41.6556 222.658 
L 56.9556 207.358 
M 56.9556 237.958 
L 56.9556 253.258 
" clip-path="url(#p300548f2d8)" style="fill: none; stroke: #000000; stroke-width: 2; stroke-linecap: round"/>
   </g>
   <g id="line2d_24">
    <path d="M 53.8956 215.008 
L 60.0156 215.008 
" clip-path="url(#p300548f2d8)" style="fill: none; stroke: #000000; stroke-width: 2; stroke-linecap: round"/>
   </g>
   <g id="line2d_25">
    <path d="M 56.9556 227.248 
L 56.9556 233.368 
" clip-path="url(#p300548f2d8)" style="fill: none; stroke: #000000; stroke-width: 2; stroke-linecap: round"/>
   </g>
   <g id="line2d_26">
    <path d="M 53.8956 230.308 
L 60.0156 230.308 
" clip-path="url(#p300548f2d8)" style="fill: none; stroke: #000000; stroke-width: 2; stroke-linecap: round"/>
   </g>
   <g id="line2d_27">
    <path d="M 44.7156 244.078 
L 44.7156 192.058 
" clip-path="url(#p300548f2d8)" style="fill: none; stroke: #000000; stroke-width: 2; stroke-linecap: round"/>
   </g>
   <g id="patch_2">
    <path d="M 47.7756 244.078 
L 44.7156 253.258 
L 41.6556 244.078 
z
" clip-path="url(#p300548f2d8)"/>
   </g>
   <g id="line2d_28">
    <path d="M 56.9556 253.258 
L 56.9556 265.498 
L 49.3056 265.498 
L 64.6056 265.498 
M 51.6006 269.17 
L 62.3106 269.17 
M 55.4256 272.842 
L 58.4856 272.842 
" clip-path="url(#p300548f2d8)" style="fill: none; stroke: #000000; stroke-width: 2; stroke-linecap: round"/>
   </g>
   <g id="line2d_29">
    <path d="M 93.6756 161.458 
L 93.6756 192.058 
L 93.6756 222.658 
" clip-path="url(#p300548f2d8)" style="fill: none; stroke: #000000; stroke-width: 2; stroke-linecap: round"/>
   </g>
   <g id="line2d_30">
    <path d="M 154.8756 161.458 
L 154.8756 192.058 
L 154.8756 222.658 
" clip-path="url(#p300548f2d8)" style="fill: none; stroke: #000000; stroke-width: 2; stroke-linecap: round"/>
   </g>
   <g id="line2d_31">
    <path d="M 154.8756 222.658 
L 124.2756 222.658 
L 93.6756 222.658 
" clip-path="url(#p300548f2d8)" style="fill: none; stroke: #000000; stroke-width: 2; stroke-linecap: round"/>
   </g>
   <g id="line2d_32">
    <path d="M 216.0756 161.458 
L 216.0756 192.058 
L 216.0756 222.658 
" clip-path="url(#p300548f2d8)" style="fill: none; stroke: #000000; stroke-width: 2; stroke-linecap: round"/>
   </g>
   <g id="line2d_33">
    <path d="M 216.0756 222.658 
L 154.8756 222.658 
L 93.6756 222.658 
" clip-path="url(#p300548f2d8)" style="fill: none; stroke: #000000; stroke-width: 2; stroke-linecap: round"/>
   </g>
   <g id="line2d_34">
    <path d="M 277.2756 161.458 
L 277.2756 192.058 
L 277.2756 222.658 
" clip-path="url(#p300548f2d8)" style="fill: none; stroke: #000000; stroke-width: 2; stroke-linecap: round"/>
   </g>
   <g id="line2d_35">
    <path d="M 277.2756 222.658 
L 185.4756 222.658 
L 93.6756 222.658 
" clip-path="url(#p300548f2d8)" style="fill: none; stroke: #000000; stroke-width: 2; stroke-linecap: round"/>
   </g>
   <g id="line2d_36">
    <path d="M 93.6756 222.658 
L 93.6756 234.898 
L 86.0256 234.898 
L 101.3256 234.898 
M 88.3206 238.57 
L 99.0306 238.57 
M 92.1456 242.242 
L 95.2056 242.242 
" clip-path="url(#p300548f2d8)" style="fill: none; stroke: #000000; stroke-width: 2; stroke-linecap: round"/>
   </g>
   <g id="line2d_37">
    <path d="M 289.5156 42.73 
L 320.1156 42.73 
L 350.7156 42.73 
" clip-path="url(#p300548f2d8)" style="fill: none; stroke: #000000; stroke-width: 2; stroke-linecap: round"/>
   </g>
   <g id="line2d_38">
    <path d="M 350.7156 42.73 
L 350.7156 73.33 
L 358.3656 73.33 
L 358.3656 103.93 
L 343.0656 103.93 
L 343.0656 73.33 
L 350.7156 73.33 
M 350.7156 103.93 
L 350.7156 134.53 
" clip-path="url(#p300548f2d8)" style="fill: none; stroke: #000000; stroke-width: 2; stroke-linecap: round"/>
   </g>
   <g id="line2d_39">
    <path d="M 350.7156 134.53 
L 350.7156 146.77 
L 343.0656 146.77 
L 358.3656 146.77 
M 345.3606 150.442 
L 356.0706 150.442 
M 349.1856 154.114 
L 352.2456 154.114 
" clip-path="url(#p300548f2d8)" style="fill: none; stroke: #000000; stroke-width: 2; stroke-linecap: round"/>
   </g>
   <g id="line2d_40">
    <path d="M 350.7156 42.73 
L 373.6656 42.73 
L 396.6156 42.73 
" clip-path="url(#p300548f2d8)" style="fill: none; stroke: #000000; stroke-width: 2; stroke-linecap: round"/>
   </g>
   <g id="line2d_41">
    <path d="M 396.6156 61.855 
L 396.6156 100.105 
L 462.866543 61.855 
L 396.6156 23.605 
L 396.6156 61.855 
M 462.866543 61.855 
" clip-path="url(#p300548f2d8)" style="fill: none; stroke: #000000; stroke-width: 2; stroke-linecap: round"/>
   </g>
   <g id="line2d_42">
    <path d="M 401.836968 80.98 
L 407.956968 80.98 
" clip-path="url(#p300548f2d8)" style="fill: none; stroke: #000000; stroke-width: 2; stroke-linecap: round"/>
   </g>
   <g id="line2d_43">
    <path d="M 401.836968 42.73 
L 407.956968 42.73 
" clip-path="url(#p300548f2d8)" style="fill: none; stroke: #000000; stroke-width: 2; stroke-linecap: round"/>
   </g>
   <g id="line2d_44">
    <path d="M 404.896968 39.67 
L 404.896968 45.79 
" clip-path="url(#p300548f2d8)" style="fill: none; stroke: #000000; stroke-width: 2; stroke-linecap: round"/>
   </g>
   <g id="line2d_45">
    <path d="M 462.866543 61.855 
L 478.166543 61.855 
L 493.466543 61.855 
" clip-path="url(#p300548f2d8)" style="fill: none; stroke: #000000; stroke-width: 2; stroke-linecap: round"/>
   </g>
   <g id="line2d_46">
    <path d="M 493.466543 61.855 
L 493.466543 84.805 
L 501.116543 84.805 
L 501.116543 115.405 
L 485.816543 115.405 
L 485.816543 84.805 
L 493.466543 84.805 
M 493.466543 115.405 
L 493.466543 138.355 
" clip-path="url(#p300548f2d8)" style="fill: none; stroke: #000000; stroke-width: 2; stroke-linecap: round"/>
   </g>
   <g id="line2d_47">
    <path d="M 493.466543 138.355 
L 432.266543 138.355 
L 371.066543 138.355 
" clip-path="url(#p300548f2d8)" style="fill: none; stroke: #000000; stroke-width: 2; stroke-linecap: round"/>
   </g>
   <g id="line2d_48">
    <path d="M 371.066543 138.355 
L 371.066543 80.98 
L 396.6156 80.98 
" clip-path="url(#p300548f2d8)" style="fill: none; stroke: #000000; stroke-width: 2; stroke-linecap: round"/>
   </g>
   <g id="line2d_49">
    <path d="M 493.466543 138.355 
L 493.466543 161.305 
L 501.116543 161.305 
L 501.116543 191.905 
L 485.816543 191.905 
L 485.816543 161.305 
L 493.466543 161.305 
M 493.466543 191.905 
L 493.466543 214.855 
" clip-path="url(#p300548f2d8)" style="fill: none; stroke: #000000; stroke-width: 2; stroke-linecap: round"/>
   </g>
   <g id="line2d_50">
    <path d="M 493.466543 214.855 
L 493.466543 227.095 
L 485.816543 227.095 
L 501.116543 227.095 
M 488.111543 230.767 
L 498.821543 230.767 
M 491.936543 234.439 
L 494.996543 234.439 
" clip-path="url(#p300548f2d8)" style="fill: none; stroke: #000000; stroke-width: 2; stroke-linecap: round"/>
   </g>
   <g id="line2d_51">
    <path d="M 493.466543 61.855 
L 508.766543 61.855 
L 524.066543 61.855 
" clip-path="url(#p300548f2d8)" style="fill: none; stroke: #000000; stroke-width: 2; stroke-linecap: round"/>
   </g>
   <g id="line2d_52">
    <path d="M 524.066543 153.655 
L 524.066543 165.895 
L 516.416543 165.895 
L 531.716543 165.895 
M 518.711543 169.567 
L 529.421543 169.567 
M 522.536543 173.239 
L 525.596543 173.239 
" clip-path="url(#p300548f2d8)" style="fill: none; stroke: #000000; stroke-width: 2; stroke-linecap: round"/>
   </g>
   <g id="text_1">
    <g clip-path="url(#p300548f2d8)">
     <!-- $2R$ -->
     <g transform="translate(17.2556 76.779219) scale(0.125 -0.125)">
      <defs>
       <path id="DejaVuSans-32" d="M 1228 531 
L 3431 531 
L 3431 0 
L 469 0 
L 469 531 
Q 828 903 1448 1529 
Q 2069 2156 2228 2338 
Q 2531 2678 2651 2914 
Q 2772 3150 2772 3378 
Q 2772 3750 2511 3984 
Q 2250 4219 1831 4219 
Q 1534 4219 1204 4116 
Q 875 4013 500 3803 
L 500 4441 
Q 881 4594 1212 4672 
Q 1544 4750 1819 4750 
Q 2544 4750 2975 4387 
Q 3406 4025 3406 3419 
Q 3406 3131 3298 2873 
Q 3191 2616 2906 2266 
Q 2828 2175 2409 1742 
Q 1991 1309 1228 531 
z
" transform="scale(0.015625)"/>
       <path id="DejaVuSans-Oblique-52" d="M 1613 4147 
L 1294 2491 
L 2106 2491 
Q 2584 2491 2879 2755 
Q 3175 3019 3175 3444 
Q 3175 3784 2976 3965 
Q 2778 4147 2406 4147 
L 1613 4147 
z
M 2772 2241 
Q 2972 2194 3105 2009 
Q 3238 1825 3413 1275 
L 3809 0 
L 3144 0 
L 2778 1197 
Q 2638 1659 2453 1815 
Q 2269 1972 1888 1972 
L 1191 1972 
L 806 0 
L 172 0 
L 1081 4666 
L 2503 4666 
Q 3150 4666 3495 4373 
Q 3841 4081 3841 3531 
Q 3841 3044 3547 2687 
Q 3253 2331 2772 2241 
z
" transform="scale(0.015625)"/>
      </defs>
      <use xlink:href="#DejaVuSans-32" transform="translate(0 0.78125)"/>
      <use xlink:href="#DejaVuSans-Oblique-52" transform="translate(63.623047 0.78125)"/>
     </g>
    </g>
   </g>
   <g id="patch_3">
    <path d="M 105.9156 45.025 
C 106.524241 45.025 107.108036 44.783184 107.53841 44.35281 
C 107.968784 43.922436 108.2106 43.338641 108.2106 42.73 
C 108.2106 42.121359 107.968784 41.537564 107.53841 41.10719 
C 107.108036 40.676816 106.524241 40.435 105.9156 40.435 
C 105.306959 40.435 104.723164 40.676816 104.29279 41.10719 
C 103.862416 41.537564 103.6206 42.121359 103.6206 42.73 
C 103.6206 43.338641 103.862416 43.922436 104.29279 44.35281 
C 104.723164 44.783184 105.306959 45.025 105.9156 45.025 
z
" clip-path="url(#p300548f2d8)" style="stroke: #000000; stroke-width: 2; stroke-linejoin: miter"/>
   </g>
   <g id="text_2">
    <g clip-path="url(#p300548f2d8)">
     <!-- $2R$ -->
     <g transform="translate(78.4556 92.079219) scale(0.125 -0.125)">
      <use xlink:href="#DejaVuSans-32" transform="translate(0 0.78125)"/>
      <use xlink:href="#DejaVuSans-Oblique-52" transform="translate(63.623047 0.78125)"/>
     </g>
    </g>
   </g>
   <g id="patch_4">
    <path d="M 105.9156 141.874 
C 106.889426 141.874 107.823497 141.487095 108.512096 140.798496 
C 109.200695 140.109897 109.5876 139.175826 109.5876 138.202 
C 109.5876 137.228174 109.200695 136.294103 108.512096 135.605504 
C 107.823497 134.916905 106.889426 134.53 105.9156 134.53 
C 104.941774 134.53 104.007703 134.916905 103.319104 135.605504 
C 102.630505 136.294103 102.2436 137.228174 102.2436 138.202 
C 102.2436 139.175826 102.630505 140.109897 103.319104 140.798496 
C 104.007703 141.487095 104.941774 141.874 105.9156 141.874 
z
" clip-path="url(#p300548f2d8)" style="fill: #ffffff; stroke: #000000; stroke-width: 2; stroke-linejoin: miter"/>
   </g>
   <g id="patch_5">
    <path d="M 93.6756 165.13 
C 94.649426 165.13 95.583497 164.743095 96.272096 164.054496 
C 96.960695 163.365897 97.3476 162.431826 97.3476 161.458 
C 97.3476 160.484174 96.960695 159.550103 96.272096 158.861504 
C 95.583497 158.172905 94.649426 157.786 93.6756 157.786 
C 92.701774 157.786 91.767703 158.172905 91.079104 158.861504 
C 90.390505 159.550103 90.0036 160.484174 90.0036 161.458 
C 90.0036 162.431826 90.390505 163.365897 91.079104 164.054496 
C 91.767703 164.743095 92.701774 165.13 93.6756 165.13 
z
" clip-path="url(#p300548f2d8)" style="fill: #ffffff; stroke: #000000; stroke-width: 2; stroke-linejoin: miter"/>
   </g>
   <g id="patch_6">
    <path d="M 118.1556 165.13 
C 119.129426 165.13 120.063497 164.743095 120.752096 164.054496 
C 121.440695 163.365897 121.8276 162.431826 121.8276 161.458 
C 121.8276 160.484174 121.440695 159.550103 120.752096 158.861504 
C 120.063497 158.172905 119.129426 157.786 118.1556 157.786 
C 117.181774 157.786 116.247703 158.172905 115.559104 158.861504 
C 114.870505 159.550103 114.4836 160.484174 114.4836 161.458 
C 114.4836 162.431826 114.870505 163.365897 115.559104 164.054496 
C 116.247703 164.743095 117.181774 165.13 118.1556 165.13 
z
" clip-path="url(#p300548f2d8)" style="fill: #ffffff; stroke: #000000; stroke-width: 2; stroke-linejoin: miter"/>
   </g>
   <g id="text_3">
    <g clip-path="url(#p300548f2d8)">
     <!-- $Z_0$ -->
     <g transform="translate(72.4436 153.279219) scale(0.125 -0.125)">
      <defs>
       <path id="DejaVuSans-Oblique-5a" d="M 838 4666 
L 4500 4666 
L 4409 4184 
L 794 531 
L 3769 531 
L 3669 0 
L -141 0 
L -50 481 
L 3566 4134 
L 738 4134 
L 838 4666 
z
" transform="scale(0.015625)"/>
       <path id="DejaVuSans-30" d="M 2034 4250 
Q 1547 4250 1301 3770 
Q 1056 3291 1056 2328 
Q 1056 1369 1301 889 
Q 1547 409 2034 409 
Q 2525 409 2770 889 
Q 3016 1369 3016 2328 
Q 3016 3291 2770 3770 
Q 2525 4250 2034 4250 
z
M 2034 4750 
Q 2819 4750 3233 4129 
Q 3647 3509 3647 2328 
Q 3647 1150 3233 529 
Q 2819 -91 2034 -91 
Q 1250 -91 836 529 
Q 422 1150 422 2328 
Q 422 3509 836 4129 
Q 1250 4750 2034 4750 
z
" transform="scale(0.015625)"/>
      </defs>
      <use xlink:href="#DejaVuSans-Oblique-5a" transform="translate(0 0.09375)"/>
      <use xlink:href="#DejaVuSans-30" transform="translate(68.505859 -16.3125) scale(0.7)"/>
     </g>
    </g>
   </g>
   <g id="patch_7">
    <path d="M 167.1156 45.025 
C 167.724241 45.025 168.308036 44.783184 168.73841 44.35281 
C 169.168784 43.922436 169.4106 43.338641 169.4106 42.73 
C 169.4106 42.121359 169.168784 41.537564 168.73841 41.10719 
C 168.308036 40.676816 167.724241 40.435 167.1156 40.435 
C 166.506959 40.435 165.923164 40.676816 165.49279 41.10719 
C 165.062416 41.537564 164.8206 42.121359 164.8206 42.73 
C 164.8206 43.338641 165.062416 43.922436 165.49279 44.35281 
C 165.923164 44.783184 166.506959 45.025 167.1156 45.025 
z
" clip-path="url(#p300548f2d8)" style="stroke: #000000; stroke-width: 2; stroke-linejoin: miter"/>
   </g>
   <g id="text_4">
    <g clip-path="url(#p300548f2d8)">
     <!-- R -->
     <g transform="translate(133.320327 29.420391) scale(0.125 -0.125)">
      <defs>
       <path id="DejaVuSans-52" d="M 2841 2188 
Q 3044 2119 3236 1894 
Q 3428 1669 3622 1275 
L 4263 0 
L 3584 0 
L 2988 1197 
Q 2756 1666 2539 1819 
Q 2322 1972 1947 1972 
L 1259 1972 
L 1259 0 
L 628 0 
L 628 4666 
L 2053 4666 
Q 2853 4666 3247 4331 
Q 3641 3997 3641 3322 
Q 3641 2881 3436 2590 
Q 3231 2300 2841 2188 
z
M 1259 4147 
L 1259 2491 
L 2053 2491 
Q 2509 2491 2742 2702 
Q 2975 2913 2975 3322 
Q 2975 3731 2742 3939 
Q 2509 4147 2053 4147 
L 1259 4147 
z
" transform="scale(0.015625)"/>
      </defs>
      <use xlink:href="#DejaVuSans-52"/>
     </g>
    </g>
   </g>
   <g id="text_5">
    <g clip-path="url(#p300548f2d8)">
     <!-- $2R$ -->
     <g transform="translate(139.6556 92.079219) scale(0.125 -0.125)">
      <use xlink:href="#DejaVuSans-32" transform="translate(0 0.78125)"/>
      <use xlink:href="#DejaVuSans-Oblique-52" transform="translate(63.623047 0.78125)"/>
     </g>
    </g>
   </g>
   <g id="patch_8">
    <path d="M 167.1156 141.874 
C 168.089426 141.874 169.023497 141.487095 169.712096 140.798496 
C 170.400695 140.109897 170.7876 139.175826 170.7876 138.202 
C 170.7876 137.228174 170.400695 136.294103 169.712096 135.605504 
C 169.023497 134.916905 168.089426 134.53 167.1156 134.53 
C 166.141774 134.53 165.207703 134.916905 164.519104 135.605504 
C 163.830505 136.294103 163.4436 137.228174 163.4436 138.202 
C 163.4436 139.175826 163.830505 140.109897 164.519104 140.798496 
C 165.207703 141.487095 166.141774 141.874 167.1156 141.874 
z
" clip-path="url(#p300548f2d8)" style="fill: #ffffff; stroke: #000000; stroke-width: 2; stroke-linejoin: miter"/>
   </g>
   <g id="patch_9">
    <path d="M 154.8756 165.13 
C 155.849426 165.13 156.783497 164.743095 157.472096 164.054496 
C 158.160695 163.365897 158.5476 162.431826 158.5476 161.458 
C 158.5476 160.484174 158.160695 159.550103 157.472096 158.861504 
C 156.783497 158.172905 155.849426 157.786 154.8756 157.786 
C 153.901774 157.786 152.967703 158.172905 152.279104 158.861504 
C 151.590505 159.550103 151.2036 160.484174 151.2036 161.458 
C 151.2036 162.431826 151.590505 163.365897 152.279104 164.054496 
C 152.967703 164.743095 153.901774 165.13 154.8756 165.13 
z
" clip-path="url(#p300548f2d8)" style="fill: #ffffff; stroke: #000000; stroke-width: 2; stroke-linejoin: miter"/>
   </g>
   <g id="patch_10">
    <path d="M 179.3556 165.13 
C 180.329426 165.13 181.263497 164.743095 181.952096 164.054496 
C 182.640695 163.365897 183.0276 162.431826 183.0276 161.458 
C 183.0276 160.484174 182.640695 159.550103 181.952096 158.861504 
C 181.263497 158.172905 180.329426 157.786 179.3556 157.786 
C 178.381774 157.786 177.447703 158.172905 176.759104 158.861504 
C 176.070505 159.550103 175.6836 160.484174 175.6836 161.458 
C 175.6836 162.431826 176.070505 163.365897 176.759104 164.054496 
C 177.447703 164.743095 178.381774 165.13 179.3556 165.13 
z
" clip-path="url(#p300548f2d8)" style="fill: #ffffff; stroke: #000000; stroke-width: 2; stroke-linejoin: miter"/>
   </g>
   <g id="text_6">
    <g clip-path="url(#p300548f2d8)">
     <!-- $Z_1$ -->
     <g transform="translate(133.6436 153.279219) scale(0.125 -0.125)">
      <defs>
       <path id="DejaVuSans-31" d="M 794 531 
L 1825 531 
L 1825 4091 
L 703 3866 
L 703 4441 
L 1819 4666 
L 2450 4666 
L 2450 531 
L 3481 531 
L 3481 0 
L 794 0 
L 794 531 
z
" transform="scale(0.015625)"/>
      </defs>
      <use xlink:href="#DejaVuSans-Oblique-5a" transform="translate(0 0.09375)"/>
      <use xlink:href="#DejaVuSans-31" transform="translate(68.505859 -16.3125) scale(0.7)"/>
     </g>
    </g>
   </g>
   <g id="patch_11">
    <path d="M 228.3156 45.025 
C 228.924241 45.025 229.508036 44.783184 229.93841 44.35281 
C 230.368784 43.922436 230.6106 43.338641 230.6106 42.73 
C 230.6106 42.121359 230.368784 41.537564 229.93841 41.10719 
C 229.508036 40.676816 228.924241 40.435 228.3156 40.435 
C 227.706959 40.435 227.123164 40.676816 226.69279 41.10719 
C 226.262416 41.537564 226.0206 42.121359 226.0206 42.73 
C 226.0206 43.338641 226.262416 43.922436 226.69279 44.35281 
C 227.123164 44.783184 227.706959 45.025 228.3156 45.025 
z
" clip-path="url(#p300548f2d8)" style="stroke: #000000; stroke-width: 2; stroke-linejoin: miter"/>
   </g>
   <g id="text_7">
    <g clip-path="url(#p300548f2d8)">
     <!-- R -->
     <g transform="translate(194.520327 29.420391) scale(0.125 -0.125)">
      <use xlink:href="#DejaVuSans-52"/>
     </g>
    </g>
   </g>
   <g id="text_8">
    <g clip-path="url(#p300548f2d8)">
     <!-- $2R$ -->
     <g transform="translate(200.8556 92.079219) scale(0.125 -0.125)">
      <use xlink:href="#DejaVuSans-32" transform="translate(0 0.78125)"/>
      <use xlink:href="#DejaVuSans-Oblique-52" transform="translate(63.623047 0.78125)"/>
     </g>
    </g>
   </g>
   <g id="patch_12">
    <path d="M 228.3156 141.874 
C 229.289426 141.874 230.223497 141.487095 230.912096 140.798496 
C 231.600695 140.109897 231.9876 139.175826 231.9876 138.202 
C 231.9876 137.228174 231.600695 136.294103 230.912096 135.605504 
C 230.223497 134.916905 229.289426 134.53 228.3156 134.53 
C 227.341774 134.53 226.407703 134.916905 225.719104 135.605504 
C 225.030505 136.294103 224.6436 137.228174 224.6436 138.202 
C 224.6436 139.175826 225.030505 140.109897 225.719104 140.798496 
C 226.407703 141.487095 227.341774 141.874 228.3156 141.874 
z
" clip-path="url(#p300548f2d8)" style="fill: #ffffff; stroke: #000000; stroke-width: 2; stroke-linejoin: miter"/>
   </g>
   <g id="patch_13">
    <path d="M 216.0756 165.13 
C 217.049426 165.13 217.983497 164.743095 218.672096 164.054496 
C 219.360695 163.365897 219.7476 162.431826 219.7476 161.458 
C 219.7476 160.484174 219.360695 159.550103 218.672096 158.861504 
C 217.983497 158.172905 217.049426 157.786 216.0756 157.786 
C 215.101774 157.786 214.167703 158.172905 213.479104 158.861504 
C 212.790505 159.550103 212.4036 160.484174 212.4036 161.458 
C 212.4036 162.431826 212.790505 163.365897 213.479104 164.054496 
C 214.167703 164.743095 215.101774 165.13 216.0756 165.13 
z
" clip-path="url(#p300548f2d8)" style="fill: #ffffff; stroke: #000000; stroke-width: 2; stroke-linejoin: miter"/>
   </g>
   <g id="patch_14">
    <path d="M 240.5556 165.13 
C 241.529426 165.13 242.463497 164.743095 243.152096 164.054496 
C 243.840695 163.365897 244.2276 162.431826 244.2276 161.458 
C 244.2276 160.484174 243.840695 159.550103 243.152096 158.861504 
C 242.463497 158.172905 241.529426 157.786 240.5556 157.786 
C 239.581774 157.786 238.647703 158.172905 237.959104 158.861504 
C 237.270505 159.550103 236.8836 160.484174 236.8836 161.458 
C 236.8836 162.431826 237.270505 163.365897 237.959104 164.054496 
C 238.647703 164.743095 239.581774 165.13 240.5556 165.13 
z
" clip-path="url(#p300548f2d8)" style="fill: #ffffff; stroke: #000000; stroke-width: 2; stroke-linejoin: miter"/>
   </g>
   <g id="text_9">
    <g clip-path="url(#p300548f2d8)">
     <!-- $Z_2$ -->
     <g transform="translate(194.8436 153.279219) scale(0.125 -0.125)">
      <use xlink:href="#DejaVuSans-Oblique-5a" transform="translate(0 0.09375)"/>
      <use xlink:href="#DejaVuSans-32" transform="translate(68.505859 -16.3125) scale(0.7)"/>
     </g>
    </g>
   </g>
   <g id="patch_15">
    <path d="M 289.5156 45.025 
C 290.124241 45.025 290.708036 44.783184 291.13841 44.35281 
C 291.568784 43.922436 291.8106 43.338641 291.8106 42.73 
C 291.8106 42.121359 291.568784 41.537564 291.13841 41.10719 
C 290.708036 40.676816 290.124241 40.435 289.5156 40.435 
C 288.906959 40.435 288.323164 40.676816 287.89279 41.10719 
C 287.462416 41.537564 287.2206 42.121359 287.2206 42.73 
C 287.2206 43.338641 287.462416 43.922436 287.89279 44.35281 
C 288.323164 44.783184 288.906959 45.025 289.5156 45.025 
z
" clip-path="url(#p300548f2d8)" style="stroke: #000000; stroke-width: 2; stroke-linejoin: miter"/>
   </g>
   <g id="text_10">
    <g clip-path="url(#p300548f2d8)">
     <!-- R -->
     <g transform="translate(255.720327 29.420391) scale(0.125 -0.125)">
      <use xlink:href="#DejaVuSans-52"/>
     </g>
    </g>
   </g>
   <g id="text_11">
    <g clip-path="url(#p300548f2d8)">
     <!-- $2R$ -->
     <g transform="translate(262.0556 92.079219) scale(0.125 -0.125)">
      <use xlink:href="#DejaVuSans-32" transform="translate(0 0.78125)"/>
      <use xlink:href="#DejaVuSans-Oblique-52" transform="translate(63.623047 0.78125)"/>
     </g>
    </g>
   </g>
   <g id="patch_16">
    <path d="M 289.5156 141.874 
C 290.489426 141.874 291.423497 141.487095 292.112096 140.798496 
C 292.800695 140.109897 293.1876 139.175826 293.1876 138.202 
C 293.1876 137.228174 292.800695 136.294103 292.112096 135.605504 
C 291.423497 134.916905 290.489426 134.53 289.5156 134.53 
C 288.541774 134.53 287.607703 134.916905 286.919104 135.605504 
C 286.230505 136.294103 285.8436 137.228174 285.8436 138.202 
C 285.8436 139.175826 286.230505 140.109897 286.919104 140.798496 
C 287.607703 141.487095 288.541774 141.874 289.5156 141.874 
z
" clip-path="url(#p300548f2d8)" style="fill: #ffffff; stroke: #000000; stroke-width: 2; stroke-linejoin: miter"/>
   </g>
   <g id="patch_17">
    <path d="M 277.2756 165.13 
C 278.249426 165.13 279.183497 164.743095 279.872096 164.054496 
C 280.560695 163.365897 280.9476 162.431826 280.9476 161.458 
C 280.9476 160.484174 280.560695 159.550103 279.872096 158.861504 
C 279.183497 158.172905 278.249426 157.786 277.2756 157.786 
C 276.301774 157.786 275.367703 158.172905 274.679104 158.861504 
C 273.990505 159.550103 273.6036 160.484174 273.6036 161.458 
C 273.6036 162.431826 273.990505 163.365897 274.679104 164.054496 
C 275.367703 164.743095 276.301774 165.13 277.2756 165.13 
z
" clip-path="url(#p300548f2d8)" style="fill: #ffffff; stroke: #000000; stroke-width: 2; stroke-linejoin: miter"/>
   </g>
   <g id="patch_18">
    <path d="M 301.7556 165.13 
C 302.729426 165.13 303.663497 164.743095 304.352096 164.054496 
C 305.040695 163.365897 305.4276 162.431826 305.4276 161.458 
C 305.4276 160.484174 305.040695 159.550103 304.352096 158.861504 
C 303.663497 158.172905 302.729426 157.786 301.7556 157.786 
C 300.781774 157.786 299.847703 158.172905 299.159104 158.861504 
C 298.470505 159.550103 298.0836 160.484174 298.0836 161.458 
C 298.0836 162.431826 298.470505 163.365897 299.159104 164.054496 
C 299.847703 164.743095 300.781774 165.13 301.7556 165.13 
z
" clip-path="url(#p300548f2d8)" style="fill: #ffffff; stroke: #000000; stroke-width: 2; stroke-linejoin: miter"/>
   </g>
   <g id="text_12">
    <g clip-path="url(#p300548f2d8)">
     <!-- $Z_3$ -->
     <g transform="translate(256.0436 153.279219) scale(0.125 -0.125)">
      <defs>
       <path id="DejaVuSans-33" d="M 2597 2516 
Q 3050 2419 3304 2112 
Q 3559 1806 3559 1356 
Q 3559 666 3084 287 
Q 2609 -91 1734 -91 
Q 1441 -91 1130 -33 
Q 819 25 488 141 
L 488 750 
Q 750 597 1062 519 
Q 1375 441 1716 441 
Q 2309 441 2620 675 
Q 2931 909 2931 1356 
Q 2931 1769 2642 2001 
Q 2353 2234 1838 2234 
L 1294 2234 
L 1294 2753 
L 1863 2753 
Q 2328 2753 2575 2939 
Q 2822 3125 2822 3475 
Q 2822 3834 2567 4026 
Q 2313 4219 1838 4219 
Q 1578 4219 1281 4162 
Q 984 4106 628 3988 
L 628 4550 
Q 988 4650 1302 4700 
Q 1616 4750 1894 4750 
Q 2613 4750 3031 4423 
Q 3450 4097 3450 3541 
Q 3450 3153 3228 2886 
Q 3006 2619 2597 2516 
z
" transform="scale(0.015625)"/>
      </defs>
      <use xlink:href="#DejaVuSans-Oblique-5a" transform="translate(0 0.09375)"/>
      <use xlink:href="#DejaVuSans-33" transform="translate(68.505859 -16.3125) scale(0.7)"/>
     </g>
    </g>
   </g>
   <g id="patch_19">
    <path d="M 118.1556 194.353 
C 118.764241 194.353 119.348036 194.111184 119.77841 193.68081 
C 120.208784 193.250436 120.4506 192.666641 120.4506 192.058 
C 120.4506 191.449359 120.208784 190.865564 119.77841 190.43519 
C 119.348036 190.004816 118.764241 189.763 118.1556 189.763 
C 117.546959 189.763 116.963164 190.004816 116.53279 190.43519 
C 116.102416 190.865564 115.8606 191.449359 115.8606 192.058 
C 115.8606 192.666641 116.102416 193.250436 116.53279 193.68081 
C 116.963164 194.111184 117.546959 194.353 118.1556 194.353 
z
" clip-path="url(#p300548f2d8)" style="stroke: #000000; stroke-width: 2; stroke-linejoin: miter"/>
   </g>
   <g id="patch_20">
    <path d="M 179.3556 194.353 
C 179.964241 194.353 180.548036 194.111184 180.97841 193.68081 
C 181.408784 193.250436 181.6506 192.666641 181.6506 192.058 
C 181.6506 191.449359 181.408784 190.865564 180.97841 190.43519 
C 180.548036 190.004816 179.964241 189.763 179.3556 189.763 
C 178.746959 189.763 178.163164 190.004816 177.73279 190.43519 
C 177.302416 190.865564 177.0606 191.449359 177.0606 192.058 
C 177.0606 192.666641 177.302416 193.250436 177.73279 193.68081 
C 178.163164 194.111184 178.746959 194.353 179.3556 194.353 
z
" clip-path="url(#p300548f2d8)" style="stroke: #000000; stroke-width: 2; stroke-linejoin: miter"/>
   </g>
   <g id="patch_21">
    <path d="M 240.5556 194.353 
C 241.164241 194.353 241.748036 194.111184 242.17841 193.68081 
C 242.608784 193.250436 242.8506 192.666641 242.8506 192.058 
C 242.8506 191.449359 242.608784 190.865564 242.17841 190.43519 
C 241.748036 190.004816 241.164241 189.763 240.5556 189.763 
C 239.946959 189.763 239.363164 190.004816 238.93279 190.43519 
C 238.502416 190.865564 238.2606 191.449359 238.2606 192.058 
C 238.2606 192.666641 238.502416 193.250436 238.93279 193.68081 
C 239.363164 194.111184 239.946959 194.353 240.5556 194.353 
z
" clip-path="url(#p300548f2d8)" style="stroke: #000000; stroke-width: 2; stroke-linejoin: miter"/>
   </g>
   <g id="patch_22">
    <path d="M 301.7556 194.353 
C 302.364241 194.353 302.948036 194.111184 303.37841 193.68081 
C 303.808784 193.250436 304.0506 192.666641 304.0506 192.058 
C 304.0506 191.449359 303.808784 190.865564 303.37841 190.43519 
C 302.948036 190.004816 302.364241 189.763 301.7556 189.763 
C 301.146959 189.763 300.563164 190.004816 300.13279 190.43519 
C 299.702416 190.865564 299.4606 191.449359 299.4606 192.058 
C 299.4606 192.666641 299.702416 193.250436 300.13279 193.68081 
C 300.563164 194.111184 301.146959 194.353 301.7556 194.353 
z
" clip-path="url(#p300548f2d8)" style="stroke: #000000; stroke-width: 2; stroke-linejoin: miter"/>
   </g>
   <g id="text_13">
    <g clip-path="url(#p300548f2d8)">
     <!-- $U_{ref}$ -->
     <g transform="translate(20.0306 226.107219) scale(0.125 -0.125)">
      <defs>
       <path id="DejaVuSans-Oblique-55" d="M 991 4666 
L 1625 4666 
L 1075 1831 
Q 1041 1641 1027 1517 
Q 1013 1394 1013 1300 
Q 1013 869 1253 645 
Q 1494 422 1959 422 
Q 2563 422 2898 753 
Q 3234 1084 3378 1831 
L 3928 4666 
L 4563 4666 
L 4000 1753 
Q 3816 809 3300 359 
Q 2784 -91 1888 -91 
Q 1188 -91 780 261 
Q 372 613 372 1216 
Q 372 1325 387 1461 
Q 403 1597 434 1753 
L 991 4666 
z
" transform="scale(0.015625)"/>
       <path id="DejaVuSans-Oblique-72" d="M 2853 2969 
Q 2766 3016 2653 3041 
Q 2541 3066 2413 3066 
Q 1953 3066 1609 2717 
Q 1266 2369 1153 1784 
L 800 0 
L 225 0 
L 909 3500 
L 1484 3500 
L 1375 2956 
Q 1603 3259 1920 3421 
Q 2238 3584 2597 3584 
Q 2691 3584 2781 3573 
Q 2872 3563 2963 3538 
L 2853 2969 
z
" transform="scale(0.015625)"/>
       <path id="DejaVuSans-Oblique-65" d="M 3078 2063 
Q 3088 2113 3092 2166 
Q 3097 2219 3097 2272 
Q 3097 2653 2873 2875 
Q 2650 3097 2266 3097 
Q 1838 3097 1509 2826 
Q 1181 2556 1013 2059 
L 3078 2063 
z
M 3578 1613 
L 903 1613 
Q 884 1494 878 1425 
Q 872 1356 872 1306 
Q 872 872 1139 634 
Q 1406 397 1894 397 
Q 2269 397 2603 481 
Q 2938 566 3225 728 
L 3116 159 
Q 2806 34 2476 -28 
Q 2147 -91 1806 -91 
Q 1078 -91 686 257 
Q 294 606 294 1247 
Q 294 1794 489 2264 
Q 684 2734 1063 3103 
Q 1306 3334 1642 3459 
Q 1978 3584 2356 3584 
Q 2950 3584 3301 3228 
Q 3653 2872 3653 2272 
Q 3653 2128 3634 1964 
Q 3616 1800 3578 1613 
z
" transform="scale(0.015625)"/>
       <path id="DejaVuSans-Oblique-66" d="M 3059 4863 
L 2969 4384 
L 2419 4384 
Q 2106 4384 1964 4261 
Q 1822 4138 1753 3809 
L 1691 3500 
L 2638 3500 
L 2553 3053 
L 1606 3053 
L 1013 0 
L 434 0 
L 1031 3053 
L 481 3053 
L 563 3500 
L 1113 3500 
L 1159 3744 
Q 1278 4363 1576 4613 
Q 1875 4863 2516 4863 
L 3059 4863 
z
" transform="scale(0.015625)"/>
      </defs>
      <use xlink:href="#DejaVuSans-Oblique-55" transform="translate(0 0.09375)"/>
      <use xlink:href="#DejaVuSans-Oblique-72" transform="translate(73.193359 -16.3125) scale(0.7)"/>
      <use xlink:href="#DejaVuSans-Oblique-65" transform="translate(101.972656 -16.3125) scale(0.7)"/>
      <use xlink:href="#DejaVuSans-Oblique-66" transform="translate(145.039062 -16.3125) scale(0.7)"/>
     </g>
    </g>
   </g>
   <g id="patch_23">
    <path d="M 93.6756 224.953 
C 94.284241 224.953 94.868036 224.711184 95.29841 224.28081 
C 95.728784 223.850436 95.9706 223.266641 95.9706 222.658 
C 95.9706 222.049359 95.728784 221.465564 95.29841 221.03519 
C 94.868036 220.604816 94.284241 220.363 93.6756 220.363 
C 93.066959 220.363 92.483164 220.604816 92.05279 221.03519 
C 91.622416 221.465564 91.3806 222.049359 91.3806 222.658 
C 91.3806 223.266641 91.622416 223.850436 92.05279 224.28081 
C 92.483164 224.711184 93.066959 224.953 93.6756 224.953 
z
" clip-path="url(#p300548f2d8)" style="stroke: #000000; stroke-width: 2; stroke-linejoin: miter"/>
   </g>
   <g id="patch_24">
    <path d="M 154.8756 224.953 
C 155.484241 224.953 156.068036 224.711184 156.49841 224.28081 
C 156.928784 223.850436 157.1706 223.266641 157.1706 222.658 
C 157.1706 222.049359 156.928784 221.465564 156.49841 221.03519 
C 156.068036 220.604816 155.484241 220.363 154.8756 220.363 
C 154.266959 220.363 153.683164 220.604816 153.25279 221.03519 
C 152.822416 221.465564 152.5806 222.049359 152.5806 222.658 
C 152.5806 223.266641 152.822416 223.850436 153.25279 224.28081 
C 153.683164 224.711184 154.266959 224.953 154.8756 224.953 
z
" clip-path="url(#p300548f2d8)" style="stroke: #000000; stroke-width: 2; stroke-linejoin: miter"/>
   </g>
   <g id="patch_25">
    <path d="M 216.0756 224.953 
C 216.684241 224.953 217.268036 224.711184 217.69841 224.28081 
C 218.128784 223.850436 218.3706 223.266641 218.3706 222.658 
C 218.3706 222.049359 218.128784 221.465564 217.69841 221.03519 
C 217.268036 220.604816 216.684241 220.363 216.0756 220.363 
C 215.466959 220.363 214.883164 220.604816 214.45279 221.03519 
C 214.022416 221.465564 213.7806 222.049359 213.7806 222.658 
C 213.7806 223.266641 214.022416 223.850436 214.45279 224.28081 
C 214.883164 224.711184 215.466959 224.953 216.0756 224.953 
z
" clip-path="url(#p300548f2d8)" style="stroke: #000000; stroke-width: 2; stroke-linejoin: miter"/>
   </g>
   <g id="patch_26">
    <path d="M 277.2756 224.953 
C 277.884241 224.953 278.468036 224.711184 278.89841 224.28081 
C 279.328784 223.850436 279.5706 223.266641 279.5706 222.658 
C 279.5706 222.049359 279.328784 221.465564 278.89841 221.03519 
C 278.468036 220.604816 277.884241 220.363 277.2756 220.363 
C 276.666959 220.363 276.083164 220.604816 275.65279 221.03519 
C 275.222416 221.465564 274.9806 222.049359 274.9806 222.658 
C 274.9806 223.266641 275.222416 223.850436 275.65279 224.28081 
C 276.083164 224.711184 276.666959 224.953 277.2756 224.953 
z
" clip-path="url(#p300548f2d8)" style="stroke: #000000; stroke-width: 2; stroke-linejoin: miter"/>
   </g>
   <g id="patch_27">
    <path d="M 350.7156 45.025 
C 351.324241 45.025 351.908036 44.783184 352.33841 44.35281 
C 352.768784 43.922436 353.0106 43.338641 353.0106 42.73 
C 353.0106 42.121359 352.768784 41.537564 352.33841 41.10719 
C 351.908036 40.676816 351.324241 40.435 350.7156 40.435 
C 350.106959 40.435 349.523164 40.676816 349.09279 41.10719 
C 348.662416 41.537564 348.4206 42.121359 348.4206 42.73 
C 348.4206 43.338641 348.662416 43.922436 349.09279 44.35281 
C 349.523164 44.783184 350.106959 45.025 350.7156 45.025 
z
" clip-path="url(#p300548f2d8)" style="stroke: #000000; stroke-width: 2; stroke-linejoin: miter"/>
   </g>
   <g id="text_14">
    <g clip-path="url(#p300548f2d8)">
     <!-- $2R$ -->
     <g transform="translate(323.2556 92.079219) scale(0.125 -0.125)">
      <use xlink:href="#DejaVuSans-32" transform="translate(0 0.78125)"/>
      <use xlink:href="#DejaVuSans-Oblique-52" transform="translate(63.623047 0.78125)"/>
     </g>
    </g>
   </g>
   <g id="patch_28">
    <path d="M 493.466543 64.15 
C 494.075185 64.15 494.658979 63.908184 495.089353 63.47781 
C 495.519728 63.047436 495.761543 62.463641 495.761543 61.855 
C 495.761543 61.246359 495.519728 60.662564 495.089353 60.23219 
C 494.658979 59.801816 494.075185 59.56 493.466543 59.56 
C 492.857902 59.56 492.274108 59.801816 491.843733 60.23219 
C 491.413359 60.662564 491.171543 61.246359 491.171543 61.855 
C 491.171543 62.463641 491.413359 63.047436 491.843733 63.47781 
C 492.274108 63.908184 492.857902 64.15 493.466543 64.15 
z
" clip-path="url(#p300548f2d8)" style="stroke: #000000; stroke-width: 2; stroke-linejoin: miter"/>
   </g>
   <g id="patch_29">
    <path d="M 493.466543 140.65 
C 494.075185 140.65 494.658979 140.408184 495.089353 139.97781 
C 495.519728 139.547436 495.761543 138.963641 495.761543 138.355 
C 495.761543 137.746359 495.519728 137.162564 495.089353 136.73219 
C 494.658979 136.301816 494.075185 136.06 493.466543 136.06 
C 492.857902 136.06 492.274108 136.301816 491.843733 136.73219 
C 491.413359 137.162564 491.171543 137.746359 491.171543 138.355 
C 491.171543 138.963641 491.413359 139.547436 491.843733 139.97781 
C 492.274108 140.408184 492.857902 140.65 493.466543 140.65 
z
" clip-path="url(#p300548f2d8)" style="stroke: #000000; stroke-width: 2; stroke-linejoin: miter"/>
   </g>
   <g id="text_15">
    <g clip-path="url(#p300548f2d8)">
     <!-- $R_2$ -->
     <g transform="translate(468.131543 104.701719) scale(0.125 -0.125)">
      <use xlink:href="#DejaVuSans-Oblique-52" transform="translate(0 0.09375)"/>
      <use xlink:href="#DejaVuSans-32" transform="translate(69.482422 -16.3125) scale(0.7)"/>
     </g>
    </g>
   </g>
   <g id="text_16">
    <g clip-path="url(#p300548f2d8)">
     <!-- $R_1$ -->
     <g transform="translate(468.131543 180.054219) scale(0.125 -0.125)">
      <use xlink:href="#DejaVuSans-Oblique-52" transform="translate(0 0.09375)"/>
      <use xlink:href="#DejaVuSans-31" transform="translate(69.482422 -16.3125) scale(0.7)"/>
     </g>
    </g>
   </g>
   <g id="patch_30">
    <path d="M 524.066543 155.95 
C 524.675185 155.95 525.258979 155.708184 525.689353 155.27781 
C 526.119728 154.847436 526.361543 154.263641 526.361543 153.655 
C 526.361543 153.046359 526.119728 152.462564 525.689353 152.03219 
C 525.258979 151.601816 524.675185 151.36 524.066543 151.36 
C 523.457902 151.36 522.874108 151.601816 522.443733 152.03219 
C 522.013359 152.462564 521.771543 153.046359 521.771543 153.655 
C 521.771543 154.263641 522.013359 154.847436 522.443733 155.27781 
C 522.874108 155.708184 523.457902 155.95 524.066543 155.95 
z
" clip-path="url(#p300548f2d8)" style="fill: #ffffff; stroke: #000000; stroke-width: 2; stroke-linejoin: miter"/>
   </g>
   <g id="patch_31">
    <path d="M 524.066543 64.15 
C 524.675185 64.15 525.258979 63.908184 525.689353 63.47781 
C 526.119728 63.047436 526.361543 62.463641 526.361543 61.855 
C 526.361543 61.246359 526.119728 60.662564 525.689353 60.23219 
C 525.258979 59.801816 524.675185 59.56 524.066543 59.56 
C 523.457902 59.56 522.874108 59.801816 522.443733 60.23219 
C 522.013359 60.662564 521.771543 61.246359 521.771543 61.855 
C 521.771543 62.463641 522.013359 63.047436 522.443733 63.47781 
C 522.874108 63.908184 523.457902 64.15 524.066543 64.15 
z
" clip-path="url(#p300548f2d8)" style="fill: #ffffff; stroke: #000000; stroke-width: 2; stroke-linejoin: miter"/>
   </g>
   <g id="text_17">
    <g clip-path="url(#p300548f2d8)">
     <!-- + -->
     <g transform="translate(518.829239 87.106719) scale(0.125 -0.125)">
      <defs>
       <path id="DejaVuSans-2b" d="M 2944 4013 
L 2944 2272 
L 4684 2272 
L 4684 1741 
L 2944 1741 
L 2944 0 
L 2419 0 
L 2419 1741 
L 678 1741 
L 678 2272 
L 2419 2272 
L 2419 4013 
L 2944 4013 
z
" transform="scale(0.015625)"/>
      </defs>
      <use xlink:href="#DejaVuSans-2b"/>
     </g>
    </g>
   </g>
   <g id="text_18">
    <g clip-path="url(#p300548f2d8)">
     <!-- $U_a$ -->
     <g transform="translate(516.629043 111.204219) scale(0.125 -0.125)">
      <defs>
       <path id="DejaVuSans-Oblique-61" d="M 3438 1997 
L 3047 0 
L 2472 0 
L 2578 531 
Q 2325 219 2001 64 
Q 1678 -91 1281 -91 
Q 834 -91 548 182 
Q 263 456 263 884 
Q 263 1497 752 1853 
Q 1241 2209 2100 2209 
L 2900 2209 
L 2931 2363 
Q 2938 2388 2941 2417 
Q 2944 2447 2944 2509 
Q 2944 2788 2717 2942 
Q 2491 3097 2081 3097 
Q 1800 3097 1504 3025 
Q 1209 2953 897 2809 
L 997 3341 
Q 1322 3463 1633 3523 
Q 1944 3584 2234 3584 
Q 2853 3584 3176 3315 
Q 3500 3047 3500 2534 
Q 3500 2431 3484 2292 
Q 3469 2153 3438 1997 
z
M 2816 1759 
L 2241 1759 
Q 1534 1759 1195 1570 
Q 856 1381 856 984 
Q 856 709 1029 553 
Q 1203 397 1509 397 
Q 1978 397 2328 733 
Q 2678 1069 2791 1631 
L 2816 1759 
z
" transform="scale(0.015625)"/>
      </defs>
      <use xlink:href="#DejaVuSans-Oblique-55" transform="translate(0 0.09375)"/>
      <use xlink:href="#DejaVuSans-Oblique-61" transform="translate(73.193359 -16.3125) scale(0.7)"/>
     </g>
    </g>
   </g>
   <g id="text_19">
    <g clip-path="url(#p300548f2d8)">
     <!-- - -->
     <g transform="translate(521.811661 135.301719) scale(0.125 -0.125)">
      <defs>
       <path id="DejaVuSans-2d" d="M 313 2009 
L 1997 2009 
L 1997 1497 
L 313 1497 
L 313 2009 
z
" transform="scale(0.015625)"/>
      </defs>
      <use xlink:href="#DejaVuSans-2d"/>
     </g>
    </g>
   </g>
  </g>
 </g>
 <defs>
  <clipPath id="p300548f2d8">
   <rect x="7.2" y="7.2" width="540.877343" height="268.702"/>
  </clipPath>
 </defs>
</svg>