<?xml version="1.0" encoding="utf-8" standalone="no"?>
<!DOCTYPE svg PUBLIC "-//W3C//DTD SVG 1.1//EN"
  "http://www.w3.org/Graphics/SVG/1.1/DTD/svg11.dtd">
<svg xmlns:xlink="http://www.w3.org/1999/xlink" width="300.51pt" height="135.27pt" viewBox="0 0 300.51 135.27" xmlns="http://www.w3.org/2000/svg" version="1.1">
 <metadata>
  <rdf:RDF xmlns:dc="http://purl.org/dc/elements/1.1/" xmlns:cc="http://creativecommons.org/ns#" xmlns:rdf="http://www.w3.org/1999/02/22-rdf-syntax-ns#">
   <cc:Work>
    <dc:type rdf:resource="http://purl.org/dc/dcmitype/StillImage"/>
    <dc:date>2023-04-22T22:33:00.223987</dc:date>
    <dc:format>image/svg+xml</dc:format>
    <dc:creator>
     <cc:Agent>
      <dc:title>Matplotlib v3.7.1, https://matplotlib.org/</dc:title>
     </cc:Agent>
    </dc:creator>
   </cc:Work>
  </rdf:RDF>
 </metadata>
 <defs>
  <style type="text/css">*{stroke-linejoin: round; stroke-linecap: butt}</style>
 </defs>
 <g id="figure_1">
  <g id="patch_1">
   <path d="M 0 135.27 
L 300.51 135.27 
L 300.51 0 
L 0 0 
z
" style="fill: #ffffff"/>
  </g>
  <g id="axes_1">
   <g id="patch_2">
    <path d="M 53.1 10.26 
L 63.81 17.91 
L 53.1 25.56 
L 53.1 10.26 
z
" clip-path="url(#p47eefaa61c)" style="fill: none; stroke: #000000; stroke-width: 2; stroke-linecap: round"/>
   </g>
   <g id="patch_3">
    <path d="M 68.4 113.382 
C 69.373826 113.382 70.307897 112.995095 70.996496 112.306496 
C 71.685095 111.617897 72.072 110.683826 72.072 109.71 
C 72.072 108.736174 71.685095 107.802103 70.996496 107.113504 
C 70.307897 106.424905 69.373826 106.038 68.4 106.038 
C 67.426174 106.038 66.492103 106.424905 65.803504 107.113504 
C 65.114905 107.802103 64.728 108.736174 64.728 109.71 
C 64.728 110.683826 65.114905 111.617897 65.803504 112.306496 
C 66.492103 112.995095 67.426174 113.382 68.4 113.382 
L 68.4 113.382 
z
" clip-path="url(#p47eefaa61c)" style="fill: none; stroke: #000000; stroke-width: 2; stroke-linejoin: miter"/>
   </g>
   <g id="patch_4">
    <path d="M 160.2 113.382 
C 161.173826 113.382 162.107897 112.995095 162.796496 112.306496 
C 163.485095 111.617897 163.872 110.683826 163.872 109.71 
C 163.872 108.736174 163.485095 107.802103 162.796496 107.113504 
C 162.107897 106.424905 161.173826 106.038 160.2 106.038 
C 159.226174 106.038 158.292103 106.424905 157.603504 107.113504 
C 156.914905 107.802103 156.528 108.736174 156.528 109.71 
C 156.528 110.683826 156.914905 111.617897 157.603504 112.306496 
C 158.292103 112.995095 159.226174 113.382 160.2 113.382 
L 160.2 113.382 
z
" clip-path="url(#p47eefaa61c)" style="fill: none; stroke: #000000; stroke-width: 2; stroke-linejoin: miter"/>
   </g>
   <g id="patch_5">
    <path d="M 144.9 10.26 
L 155.61 17.91 
L 144.9 25.56 
L 144.9 10.26 
z
" clip-path="url(#p47eefaa61c)" style="fill: none; stroke: #000000; stroke-width: 2; stroke-linecap: round"/>
   </g>
   <g id="patch_6">
    <path d="M 236.7 10.26 
L 247.41 17.91 
L 236.7 25.56 
L 236.7 10.26 
z
" clip-path="url(#p47eefaa61c)" style="fill: none; stroke: #000000; stroke-width: 2; stroke-linecap: round"/>
   </g>
   <g id="line2d_1">
    <path d="M 12.555 17.91 
L 53.1 17.91 
M 63.81 10.26 
L 63.81 25.56 
M 63.81 17.91 
L 104.355 17.91 
" clip-path="url(#p47eefaa61c)" style="fill: none; stroke: #000000; stroke-width: 2; stroke-linecap: round"/>
   </g>
   <g id="line2d_2">
    <path d="M 104.355 17.91 
L 104.355 61.056 
M 112.005 61.056 
L 96.705 61.056 
M 112.005 66.564 
L 96.705 66.564 
M 104.355 66.564 
L 104.355 109.71 
" clip-path="url(#p47eefaa61c)" style="fill: none; stroke: #000000; stroke-width: 2; stroke-linecap: round"/>
   </g>
   <g id="line2d_3">
    <path d="M 104.355 109.71 
L 72.072 109.71 
M 44.838 109.71 
L 12.555 109.71 
" clip-path="url(#p47eefaa61c)" style="fill: none; stroke: #000000; stroke-width: 2; stroke-linecap: round"/>
   </g>
   <g id="line2d_4">
    <path d="M 44.838 125.01 
L 44.838 94.41 
L 64.728 109.71 
L 44.838 125.01 
" clip-path="url(#p47eefaa61c)" style="fill: none; stroke: #000000; stroke-width: 2; stroke-linecap: round"/>
   </g>
   <g id="line2d_5">
    <path d="M 104.355 109.71 
L 136.638 109.71 
M 163.872 109.71 
L 196.155 109.71 
" clip-path="url(#p47eefaa61c)" style="fill: none; stroke: #000000; stroke-width: 2; stroke-linecap: round"/>
   </g>
   <g id="line2d_6">
    <path d="M 136.638 94.41 
L 156.528 109.71 
L 136.638 125.01 
L 136.638 94.41 
" clip-path="url(#p47eefaa61c)" style="fill: none; stroke: #000000; stroke-width: 2; stroke-linecap: round"/>
   </g>
   <g id="line2d_7">
    <path d="M 196.155 109.71 
L 196.155 66.564 
M 188.505 66.564 
L 203.805 66.564 
M 188.505 61.056 
L 203.805 61.056 
M 196.155 61.056 
L 196.155 17.91 
" clip-path="url(#p47eefaa61c)" style="fill: none; stroke: #000000; stroke-width: 2; stroke-linecap: round"/>
   </g>
   <g id="line2d_8">
    <path d="M 104.355 17.91 
L 144.9 17.91 
M 155.61 10.26 
L 155.61 25.56 
M 155.61 17.91 
L 196.155 17.91 
" clip-path="url(#p47eefaa61c)" style="fill: none; stroke: #000000; stroke-width: 2; stroke-linecap: round"/>
   </g>
   <g id="line2d_9">
    <path d="M 196.155 17.91 
L 236.7 17.91 
M 247.41 10.26 
L 247.41 25.56 
M 247.41 17.91 
L 287.955 17.91 
" clip-path="url(#p47eefaa61c)" style="fill: none; stroke: #000000; stroke-width: 2; stroke-linecap: round"/>
   </g>
   <g id="patch_7">
    <path d="M 104.355 20.205 
C 104.963641 20.205 105.547436 19.963184 105.97781 19.53281 
C 106.408184 19.102436 106.65 18.518641 106.65 17.91 
C 106.65 17.301359 106.408184 16.717564 105.97781 16.28719 
C 105.547436 15.856816 104.963641 15.615 104.355 15.615 
C 103.746359 15.615 103.162564 15.856816 102.73219 16.28719 
C 102.301816 16.717564 102.06 17.301359 102.06 17.91 
C 102.06 18.518641 102.301816 19.102436 102.73219 19.53281 
C 103.162564 19.963184 103.746359 20.205 104.355 20.205 
z
" clip-path="url(#p47eefaa61c)" style="stroke: #000000; stroke-width: 2; stroke-linejoin: miter"/>
   </g>
   <g id="patch_8">
    <path d="M 12.555 20.205 
C 13.163641 20.205 13.747436 19.963184 14.17781 19.53281 
C 14.608184 19.102436 14.85 18.518641 14.85 17.91 
C 14.85 17.301359 14.608184 16.717564 14.17781 16.28719 
C 13.747436 15.856816 13.163641 15.615 12.555 15.615 
C 11.946359 15.615 11.362564 15.856816 10.93219 16.28719 
C 10.501816 16.717564 10.26 17.301359 10.26 17.91 
C 10.26 18.518641 10.501816 19.102436 10.93219 19.53281 
C 11.362564 19.963184 11.946359 20.205 12.555 20.205 
z
" clip-path="url(#p47eefaa61c)" style="fill: #ffffff; stroke: #000000; stroke-width: 2; stroke-linejoin: miter"/>
   </g>
   <g id="patch_9">
    <path d="M 104.355 112.005 
C 104.963641 112.005 105.547436 111.763184 105.97781 111.33281 
C 106.408184 110.902436 106.65 110.318641 106.65 109.71 
C 106.65 109.101359 106.408184 108.517564 105.97781 108.08719 
C 105.547436 107.656816 104.963641 107.415 104.355 107.415 
C 103.746359 107.415 103.162564 107.656816 102.73219 108.08719 
C 102.301816 108.517564 102.06 109.101359 102.06 109.71 
C 102.06 110.318641 102.301816 110.902436 102.73219 111.33281 
C 103.162564 111.763184 103.746359 112.005 104.355 112.005 
z
" clip-path="url(#p47eefaa61c)" style="stroke: #000000; stroke-width: 2; stroke-linejoin: miter"/>
   </g>
   <g id="patch_10">
    <path d="M 12.555 112.005 
C 13.163641 112.005 13.747436 111.763184 14.17781 111.33281 
C 14.608184 110.902436 14.85 110.318641 14.85 109.71 
C 14.85 109.101359 14.608184 108.517564 14.17781 108.08719 
C 13.747436 107.656816 13.163641 107.415 12.555 107.415 
C 11.946359 107.415 11.362564 107.656816 10.93219 108.08719 
C 10.501816 108.517564 10.26 109.101359 10.26 109.71 
C 10.26 110.318641 10.501816 110.902436 10.93219 111.33281 
C 11.362564 111.763184 11.946359 112.005 12.555 112.005 
z
" clip-path="url(#p47eefaa61c)" style="fill: #ffffff; stroke: #000000; stroke-width: 2; stroke-linejoin: miter"/>
   </g>
   <g id="patch_11">
    <path d="M 196.155 20.205 
C 196.763641 20.205 197.347436 19.963184 197.77781 19.53281 
C 198.208184 19.102436 198.45 18.518641 198.45 17.91 
C 198.45 17.301359 198.208184 16.717564 197.77781 16.28719 
C 197.347436 15.856816 196.763641 15.615 196.155 15.615 
C 195.546359 15.615 194.962564 15.856816 194.53219 16.28719 
C 194.101816 16.717564 193.86 17.301359 193.86 17.91 
C 193.86 18.518641 194.101816 19.102436 194.53219 19.53281 
C 194.962564 19.963184 195.546359 20.205 196.155 20.205 
z
" clip-path="url(#p47eefaa61c)" style="stroke: #000000; stroke-width: 2; stroke-linejoin: miter"/>
   </g>
   <g id="patch_12">
    <path d="M 287.955 20.205 
C 288.563641 20.205 289.147436 19.963184 289.57781 19.53281 
C 290.008184 19.102436 290.25 18.518641 290.25 17.91 
C 290.25 17.301359 290.008184 16.717564 289.57781 16.28719 
C 289.147436 15.856816 288.563641 15.615 287.955 15.615 
C 287.346359 15.615 286.762564 15.856816 286.33219 16.28719 
C 285.901816 16.717564 285.66 17.301359 285.66 17.91 
C 285.66 18.518641 285.901816 19.102436 286.33219 19.53281 
C 286.762564 19.963184 287.346359 20.205 287.955 20.205 
z
" clip-path="url(#p47eefaa61c)" style="fill: #ffffff; stroke: #000000; stroke-width: 2; stroke-linejoin: miter"/>
   </g>
  </g>
 </g>
 <defs>
  <clipPath id="p47eefaa61c">
   <rect x="7.2" y="7.2" width="286.11" height="120.87"/>
  </clipPath>
 </defs>
</svg>