<?xml version="1.0" encoding="utf-8" standalone="no"?>
<!DOCTYPE svg PUBLIC "-//W3C//DTD SVG 1.1//EN"
  "http://www.w3.org/Graphics/SVG/1.1/DTD/svg11.dtd">
<svg xmlns:xlink="http://www.w3.org/1999/xlink" width="152.865pt" height="145.215pt" viewBox="0 0 152.865 145.215" xmlns="http://www.w3.org/2000/svg" version="1.1">
 <metadata>
  <rdf:RDF xmlns:dc="http://purl.org/dc/elements/1.1/" xmlns:cc="http://creativecommons.org/ns#" xmlns:rdf="http://www.w3.org/1999/02/22-rdf-syntax-ns#">
   <cc:Work>
    <dc:type rdf:resource="http://purl.org/dc/dcmitype/StillImage"/>
    <dc:date>2023-04-21T23:36:44.999775</dc:date>
    <dc:format>image/svg+xml</dc:format>
    <dc:creator>
     <cc:Agent>
      <dc:title>Matplotlib v3.7.1, https://matplotlib.org/</dc:title>
     </cc:Agent>
    </dc:creator>
   </cc:Work>
  </rdf:RDF>
 </metadata>
 <defs>
  <style type="text/css">*{stroke-linejoin: round; stroke-linecap: butt}</style>
 </defs>
 <g id="figure_1">
  <g id="patch_1">
   <path d="M 0 145.215 
L 152.865 145.215 
L 152.865 0 
L 0 0 
z
" style="fill: #ffffff"/>
  </g>
  <g id="axes_1">
   <g id="patch_2">
    <path d="M 104.355 56.16 
C 108.412607 56.16 112.304572 54.547895 115.173734 51.678734 
C 118.042895 48.809572 119.655 44.917607 119.655 40.86 
C 119.655 36.802393 118.042895 32.910428 115.173734 30.041266 
C 112.304572 27.172105 108.412607 25.56 104.355 25.56 
C 100.297393 25.56 96.405428 27.172105 93.536266 30.041266 
C 90.667105 32.910428 89.055 36.802393 89.055 40.86 
C 89.055 44.917607 90.667105 48.809572 93.536266 51.678734 
C 96.405428 54.547895 100.297393 56.16 104.355 56.16 
L 104.355 56.16 
z
" clip-path="url(#pd340fb0626)" style="fill: none; stroke: #000000; stroke-width: 2; stroke-linejoin: miter"/>
   </g>
   <g id="line2d_1">
    <path d="M 12.555 40.86 
L 43.155 40.86 
L 73.755 40.86 
" clip-path="url(#pd340fb0626)" style="fill: none; stroke: #000000; stroke-width: 2; stroke-linecap: round"/>
   </g>
   <g id="line2d_2">
    <path d="M 73.755 40.86 
L 134.955 40.86 
" clip-path="url(#pd340fb0626)" style="fill: none; stroke: #000000; stroke-width: 2; stroke-linecap: round"/>
   </g>
   <g id="line2d_3">
    <path d="M 104.355 10.26 
L 104.355 71.46 
" clip-path="url(#pd340fb0626)" style="fill: none; stroke: #000000; stroke-width: 2; stroke-linecap: round"/>
   </g>
   <g id="line2d_4">
    <path d="M 73.755 40.86 
L 73.755 10.26 
L 104.355 10.26 
" clip-path="url(#pd340fb0626)" style="fill: none; stroke: #000000; stroke-width: 2; stroke-linecap: round"/>
   </g>
   <g id="line2d_5">
    <path d="M 134.955 40.86 
L 134.955 71.46 
L 142.605 71.46 
L 142.605 102.06 
L 127.305 102.06 
L 127.305 71.46 
L 134.955 71.46 
M 134.955 102.06 
L 134.955 132.66 
" clip-path="url(#pd340fb0626)" style="fill: none; stroke: #000000; stroke-width: 2; stroke-linecap: round"/>
   </g>
   <g id="line2d_6">
    <path d="M 134.955 132.66 
L 119.655 132.66 
L 104.355 132.66 
" clip-path="url(#pd340fb0626)" style="fill: none; stroke: #000000; stroke-width: 2; stroke-linecap: round"/>
   </g>
   <g id="line2d_7">
    <path d="M 104.355 132.66 
L 104.355 102.06 
L 104.355 71.46 
" clip-path="url(#pd340fb0626)" style="fill: none; stroke: #000000; stroke-width: 2; stroke-linecap: round"/>
   </g>
   <g id="line2d_8">
    <path d="M 104.355 132.66 
L 58.455 132.66 
L 12.555 132.66 
" clip-path="url(#pd340fb0626)" style="fill: none; stroke: #000000; stroke-width: 2; stroke-linecap: round"/>
   </g>
   <g id="patch_3">
    <path d="M 104.355 134.955 
C 104.963641 134.955 105.547436 134.713184 105.97781 134.28281 
C 106.408184 133.852436 106.65 133.268641 106.65 132.66 
C 106.65 132.051359 106.408184 131.467564 105.97781 131.03719 
C 105.547436 130.606816 104.963641 130.365 104.355 130.365 
C 103.746359 130.365 103.162564 130.606816 102.73219 131.03719 
C 102.301816 131.467564 102.06 132.051359 102.06 132.66 
C 102.06 133.268641 102.301816 133.852436 102.73219 134.28281 
C 103.162564 134.713184 103.746359 134.955 104.355 134.955 
z
" clip-path="url(#pd340fb0626)" style="stroke: #000000; stroke-width: 2; stroke-linejoin: miter"/>
   </g>
   <g id="patch_4">
    <path d="M 12.555 134.955 
C 13.163641 134.955 13.747436 134.713184 14.17781 134.28281 
C 14.608184 133.852436 14.85 133.268641 14.85 132.66 
C 14.85 132.051359 14.608184 131.467564 14.17781 131.03719 
C 13.747436 130.606816 13.163641 130.365 12.555 130.365 
C 11.946359 130.365 11.362564 130.606816 10.93219 131.03719 
C 10.501816 131.467564 10.26 132.051359 10.26 132.66 
C 10.26 133.268641 10.501816 133.852436 10.93219 134.28281 
C 11.362564 134.713184 11.946359 134.955 12.555 134.955 
z
" clip-path="url(#pd340fb0626)" style="fill: #ffffff; stroke: #000000; stroke-width: 2; stroke-linejoin: miter"/>
   </g>
   <g id="patch_5">
    <path d="M 12.555 43.155 
C 13.163641 43.155 13.747436 42.913184 14.17781 42.48281 
C 14.608184 42.052436 14.85 41.468641 14.85 40.86 
C 14.85 40.251359 14.608184 39.667564 14.17781 39.23719 
C 13.747436 38.806816 13.163641 38.565 12.555 38.565 
C 11.946359 38.565 11.362564 38.806816 10.93219 39.23719 
C 10.501816 39.667564 10.26 40.251359 10.26 40.86 
C 10.26 41.468641 10.501816 42.052436 10.93219 42.48281 
C 11.362564 42.913184 11.946359 43.155 12.555 43.155 
z
" clip-path="url(#pd340fb0626)" style="fill: #ffffff; stroke: #000000; stroke-width: 2; stroke-linejoin: miter"/>
   </g>
  </g>
 </g>
 <defs>
  <clipPath id="pd340fb0626">
   <rect x="7.2" y="7.2" width="138.465" height="130.815"/>
  </clipPath>
 </defs>
</svg>