<?xml version="1.0" encoding="utf-8" standalone="no"?>
<!DOCTYPE svg PUBLIC "-//W3C//DTD SVG 1.1//EN"
  "http://www.w3.org/Graphics/SVG/1.1/DTD/svg11.dtd">
<svg xmlns:xlink="http://www.w3.org/1999/xlink" width="327.5298pt" height="225.999pt" viewBox="0 0 327.5298 225.999" xmlns="http://www.w3.org/2000/svg" version="1.1">
 <metadata>
  <rdf:RDF xmlns:dc="http://purl.org/dc/elements/1.1/" xmlns:cc="http://creativecommons.org/ns#" xmlns:rdf="http://www.w3.org/1999/02/22-rdf-syntax-ns#">
   <cc:Work>
    <dc:type rdf:resource="http://purl.org/dc/dcmitype/StillImage"/>
    <dc:date>2023-04-21T23:36:45.427626</dc:date>
    <dc:format>image/svg+xml</dc:format>
    <dc:creator>
     <cc:Agent>
      <dc:title>Matplotlib v3.7.1, https://matplotlib.org/</dc:title>
     </cc:Agent>
    </dc:creator>
   </cc:Work>
  </rdf:RDF>
 </metadata>
 <defs>
  <style type="text/css">*{stroke-linejoin: round; stroke-linecap: butt}</style>
 </defs>
 <g id="figure_1">
  <g id="patch_1">
   <path d="M 0 225.999 
L 327.5298 225.999 
L 327.5298 0 
L 0 0 
z
" style="fill: #ffffff"/>
  </g>
  <g id="axes_1">
   <g id="line2d_1">
    <path d="M 34.2198 12.555 
L 80.1198 12.555 
L 126.0198 12.555 
" clip-path="url(#pf071561c68)" style="fill: none; stroke: #000000; stroke-width: 2; stroke-linecap: round"/>
   </g>
   <g id="line2d_2">
    <path d="M 126.0198 12.555 
L 126.0198 43.155 
L 133.6698 43.155 
L 133.6698 73.755 
L 118.3698 73.755 
L 118.3698 43.155 
L 126.0198 43.155 
M 126.0198 73.755 
L 126.0198 104.355 
" clip-path="url(#pf071561c68)" style="fill: none; stroke: #000000; stroke-width: 2; stroke-linecap: round"/>
   </g>
   <g id="line2d_3">
    <path d="M 126.0198 104.355 
L 137.4948 104.355 
L 148.9698 104.355 
" clip-path="url(#pf071561c68)" style="fill: none; stroke: #000000; stroke-width: 2; stroke-linecap: round"/>
   </g>
   <g id="line2d_4">
    <path d="M 126.0198 104.355 
L 126.0198 134.955 
L 133.6698 134.955 
L 133.6698 165.555 
L 118.3698 165.555 
L 118.3698 134.955 
L 126.0198 134.955 
M 126.0198 165.555 
L 126.0198 196.155 
" clip-path="url(#pf071561c68)" style="fill: none; stroke: #000000; stroke-width: 2; stroke-linecap: round"/>
   </g>
   <g id="line2d_5">
    <path d="M 126.0198 196.155 
L 80.1198 196.155 
L 34.2198 196.155 
" clip-path="url(#pf071561c68)" style="fill: none; stroke: #000000; stroke-width: 2; stroke-linecap: round"/>
   </g>
   <g id="line2d_6">
    <path d="M 34.2198 196.155 
L 34.2198 208.395 
L 26.5698 208.395 
L 41.8698 208.395 
M 28.8648 212.067 
L 39.5748 212.067 
M 32.6898 215.739 
L 35.7498 215.739 
" clip-path="url(#pf071561c68)" style="fill: none; stroke: #000000; stroke-width: 2; stroke-linecap: round"/>
   </g>
   <g id="line2d_7">
    <path d="M 126.0198 12.555 
L 217.8198 12.555 
L 309.6198 12.555 
" clip-path="url(#pf071561c68)" style="fill: none; stroke: #000000; stroke-width: 2; stroke-linecap: round"/>
   </g>
   <g id="line2d_8">
    <path d="M 309.6198 12.555 
L 309.6198 43.155 
L 317.2698 43.155 
L 317.2698 73.755 
L 301.9698 73.755 
L 301.9698 43.155 
L 309.6198 43.155 
M 309.6198 73.755 
L 309.6198 104.355 
" clip-path="url(#pf071561c68)" style="fill: none; stroke: #000000; stroke-width: 2; stroke-linecap: round"/>
   </g>
   <g id="line2d_9">
    <path d="M 309.6198 104.355 
L 309.6198 134.955 
L 317.2698 134.955 
L 317.2698 165.555 
L 301.9698 165.555 
L 301.9698 134.955 
L 309.6198 134.955 
M 309.6198 165.555 
L 309.6198 196.155 
" clip-path="url(#pf071561c68)" style="fill: none; stroke: #000000; stroke-width: 2; stroke-linecap: round"/>
   </g>
   <g id="line2d_10">
    <path d="M 309.6198 196.155 
L 217.8198 196.155 
L 126.0198 196.155 
" clip-path="url(#pf071561c68)" style="fill: none; stroke: #000000; stroke-width: 2; stroke-linecap: round"/>
   </g>
   <g id="line2d_11">
    <path d="M 309.6198 104.355 
L 298.1448 104.355 
L 286.6698 104.355 
" clip-path="url(#pf071561c68)" style="fill: none; stroke: #000000; stroke-width: 2; stroke-linecap: round"/>
   </g>
   <g id="line2d_12">
    <path d="M 148.9698 96.705 
L 217.8198 96.705 
L 279.0198 96.705 
" clip-path="url(#pf071561c68)" style="fill: none; stroke: #000000; stroke-width: 2; stroke-linecap: round"/>
   </g>
   <g id="patch_2">
    <path d="M 279.0198 94.41 
L 286.6698 96.705 
L 279.0198 99 
z
" clip-path="url(#pf071561c68)"/>
   </g>
   <g id="line2d_13">
    <path d="M 34.2198 24.795 
L 34.2198 104.355 
L 34.2198 176.265 
" clip-path="url(#pf071561c68)" style="fill: none; stroke: #000000; stroke-width: 2; stroke-linecap: round"/>
   </g>
   <g id="patch_3">
    <path d="M 36.5148 176.265 
L 34.2198 183.915 
L 31.9248 176.265 
z
" clip-path="url(#pf071561c68)"/>
   </g>
   <g id="text_1">
    <g clip-path="url(#pf071561c68)">
     <!-- R1 = R -->
     <g transform="translate(71.565659 61.904219) scale(0.125 -0.125)">
      <defs>
       <path id="DejaVuSans-52" d="M 2841 2188 
Q 3044 2119 3236 1894 
Q 3428 1669 3622 1275 
L 4263 0 
L 3584 0 
L 2988 1197 
Q 2756 1666 2539 1819 
Q 2322 1972 1947 1972 
L 1259 1972 
L 1259 0 
L 628 0 
L 628 4666 
L 2053 4666 
Q 2853 4666 3247 4331 
Q 3641 3997 3641 3322 
Q 3641 2881 3436 2590 
Q 3231 2300 2841 2188 
z
M 1259 4147 
L 1259 2491 
L 2053 2491 
Q 2509 2491 2742 2702 
Q 2975 2913 2975 3322 
Q 2975 3731 2742 3939 
Q 2509 4147 2053 4147 
L 1259 4147 
z
" transform="scale(0.015625)"/>
       <path id="DejaVuSans-31" d="M 794 531 
L 1825 531 
L 1825 4091 
L 703 3866 
L 703 4441 
L 1819 4666 
L 2450 4666 
L 2450 531 
L 3481 531 
L 3481 0 
L 794 0 
L 794 531 
z
" transform="scale(0.015625)"/>
       <path id="DejaVuSans-20" transform="scale(0.015625)"/>
       <path id="DejaVuSans-3d" d="M 678 2906 
L 4684 2906 
L 4684 2381 
L 678 2381 
L 678 2906 
z
M 678 1631 
L 4684 1631 
L 4684 1100 
L 678 1100 
L 678 1631 
z
" transform="scale(0.015625)"/>
      </defs>
      <use xlink:href="#DejaVuSans-52"/>
      <use xlink:href="#DejaVuSans-31" x="69.482422"/>
      <use xlink:href="#DejaVuSans-20" x="133.105469"/>
      <use xlink:href="#DejaVuSans-3d" x="164.892578"/>
      <use xlink:href="#DejaVuSans-20" x="248.681641"/>
      <use xlink:href="#DejaVuSans-52" x="280.46875"/>
     </g>
    </g>
   </g>
   <g id="text_2">
    <g clip-path="url(#pf071561c68)">
     <!-- R2 = R + ΔR -->
     <g transform="translate(35.909409 153.704219) scale(0.125 -0.125)">
      <defs>
       <path id="DejaVuSans-32" d="M 1228 531 
L 3431 531 
L 3431 0 
L 469 0 
L 469 531 
Q 828 903 1448 1529 
Q 2069 2156 2228 2338 
Q 2531 2678 2651 2914 
Q 2772 3150 2772 3378 
Q 2772 3750 2511 3984 
Q 2250 4219 1831 4219 
Q 1534 4219 1204 4116 
Q 875 4013 500 3803 
L 500 4441 
Q 881 4594 1212 4672 
Q 1544 4750 1819 4750 
Q 2544 4750 2975 4387 
Q 3406 4025 3406 3419 
Q 3406 3131 3298 2873 
Q 3191 2616 2906 2266 
Q 2828 2175 2409 1742 
Q 1991 1309 1228 531 
z
" transform="scale(0.015625)"/>
       <path id="DejaVuSans-2b" d="M 2944 4013 
L 2944 2272 
L 4684 2272 
L 4684 1741 
L 2944 1741 
L 2944 0 
L 2419 0 
L 2419 1741 
L 678 1741 
L 678 2272 
L 2419 2272 
L 2419 4013 
L 2944 4013 
z
" transform="scale(0.015625)"/>
       <path id="DejaVuSans-394" d="M 2188 4044 
L 906 525 
L 3472 525 
L 2188 4044 
z
M 50 0 
L 1831 4666 
L 2547 4666 
L 4325 0 
L 50 0 
z
" transform="scale(0.015625)"/>
      </defs>
      <use xlink:href="#DejaVuSans-52"/>
      <use xlink:href="#DejaVuSans-32" x="69.482422"/>
      <use xlink:href="#DejaVuSans-20" x="133.105469"/>
      <use xlink:href="#DejaVuSans-3d" x="164.892578"/>
      <use xlink:href="#DejaVuSans-20" x="248.681641"/>
      <use xlink:href="#DejaVuSans-52" x="280.46875"/>
      <use xlink:href="#DejaVuSans-20" x="349.951172"/>
      <use xlink:href="#DejaVuSans-2b" x="381.738281"/>
      <use xlink:href="#DejaVuSans-20" x="465.527344"/>
      <use xlink:href="#DejaVuSans-394" x="497.314453"/>
      <use xlink:href="#DejaVuSans-52" x="565.722656"/>
     </g>
    </g>
   </g>
   <g id="text_3">
    <g clip-path="url(#pf071561c68)">
     <!-- R3 = R + ΔR -->
     <g transform="translate(219.509409 61.904219) scale(0.125 -0.125)">
      <defs>
       <path id="DejaVuSans-33" d="M 2597 2516 
Q 3050 2419 3304 2112 
Q 3559 1806 3559 1356 
Q 3559 666 3084 287 
Q 2609 -91 1734 -91 
Q 1441 -91 1130 -33 
Q 819 25 488 141 
L 488 750 
Q 750 597 1062 519 
Q 1375 441 1716 441 
Q 2309 441 2620 675 
Q 2931 909 2931 1356 
Q 2931 1769 2642 2001 
Q 2353 2234 1838 2234 
L 1294 2234 
L 1294 2753 
L 1863 2753 
Q 2328 2753 2575 2939 
Q 2822 3125 2822 3475 
Q 2822 3834 2567 4026 
Q 2313 4219 1838 4219 
Q 1578 4219 1281 4162 
Q 984 4106 628 3988 
L 628 4550 
Q 988 4650 1302 4700 
Q 1616 4750 1894 4750 
Q 2613 4750 3031 4423 
Q 3450 4097 3450 3541 
Q 3450 3153 3228 2886 
Q 3006 2619 2597 2516 
z
" transform="scale(0.015625)"/>
      </defs>
      <use xlink:href="#DejaVuSans-52"/>
      <use xlink:href="#DejaVuSans-33" x="69.482422"/>
      <use xlink:href="#DejaVuSans-20" x="133.105469"/>
      <use xlink:href="#DejaVuSans-3d" x="164.892578"/>
      <use xlink:href="#DejaVuSans-20" x="248.681641"/>
      <use xlink:href="#DejaVuSans-52" x="280.46875"/>
      <use xlink:href="#DejaVuSans-20" x="349.951172"/>
      <use xlink:href="#DejaVuSans-2b" x="381.738281"/>
      <use xlink:href="#DejaVuSans-20" x="465.527344"/>
      <use xlink:href="#DejaVuSans-394" x="497.314453"/>
      <use xlink:href="#DejaVuSans-52" x="565.722656"/>
     </g>
    </g>
   </g>
   <g id="text_4">
    <g clip-path="url(#pf071561c68)">
     <!-- R4 = R -->
     <g transform="translate(255.165659 153.704219) scale(0.125 -0.125)">
      <defs>
       <path id="DejaVuSans-34" d="M 2419 4116 
L 825 1625 
L 2419 1625 
L 2419 4116 
z
M 2253 4666 
L 3047 4666 
L 3047 1625 
L 3713 1625 
L 3713 1100 
L 3047 1100 
L 3047 0 
L 2419 0 
L 2419 1100 
L 313 1100 
L 313 1709 
L 2253 4666 
z
" transform="scale(0.015625)"/>
      </defs>
      <use xlink:href="#DejaVuSans-52"/>
      <use xlink:href="#DejaVuSans-34" x="69.482422"/>
      <use xlink:href="#DejaVuSans-20" x="133.105469"/>
      <use xlink:href="#DejaVuSans-3d" x="164.892578"/>
      <use xlink:href="#DejaVuSans-20" x="248.681641"/>
      <use xlink:href="#DejaVuSans-52" x="280.46875"/>
     </g>
    </g>
   </g>
   <g id="text_5">
    <g clip-path="url(#pf071561c68)">
     <!-- UB -->
     <g transform="translate(208.957495 91.045391) scale(0.125 -0.125)">
      <defs>
       <path id="DejaVuSans-55" d="M 556 4666 
L 1191 4666 
L 1191 1831 
Q 1191 1081 1462 751 
Q 1734 422 2344 422 
Q 2950 422 3222 751 
Q 3494 1081 3494 1831 
L 3494 4666 
L 4128 4666 
L 4128 1753 
Q 4128 841 3676 375 
Q 3225 -91 2344 -91 
Q 1459 -91 1007 375 
Q 556 841 556 1753 
L 556 4666 
z
" transform="scale(0.015625)"/>
       <path id="DejaVuSans-42" d="M 1259 2228 
L 1259 519 
L 2272 519 
Q 2781 519 3026 730 
Q 3272 941 3272 1375 
Q 3272 1813 3026 2020 
Q 2781 2228 2272 2228 
L 1259 2228 
z
M 1259 4147 
L 1259 2741 
L 2194 2741 
Q 2656 2741 2882 2914 
Q 3109 3088 3109 3444 
Q 3109 3797 2882 3972 
Q 2656 4147 2194 4147 
L 1259 4147 
z
M 628 4666 
L 2241 4666 
Q 2963 4666 3353 4366 
Q 3744 4066 3744 3513 
Q 3744 3084 3544 2831 
Q 3344 2578 2956 2516 
Q 3422 2416 3680 2098 
Q 3938 1781 3938 1306 
Q 3938 681 3513 340 
Q 3088 0 2303 0 
L 628 0 
L 628 4666 
z
" transform="scale(0.015625)"/>
      </defs>
      <use xlink:href="#DejaVuSans-55"/>
      <use xlink:href="#DejaVuSans-42" x="73.193359"/>
     </g>
    </g>
   </g>
   <g id="text_6">
    <g clip-path="url(#pf071561c68)">
     <!-- U0 -->
     <g transform="translate(14.058237 107.804219) scale(0.125 -0.125)">
      <defs>
       <path id="DejaVuSans-30" d="M 2034 4250 
Q 1547 4250 1301 3770 
Q 1056 3291 1056 2328 
Q 1056 1369 1301 889 
Q 1547 409 2034 409 
Q 2525 409 2770 889 
Q 3016 1369 3016 2328 
Q 3016 3291 2770 3770 
Q 2525 4250 2034 4250 
z
M 2034 4750 
Q 2819 4750 3233 4129 
Q 3647 3509 3647 2328 
Q 3647 1150 3233 529 
Q 2819 -91 2034 -91 
Q 1250 -91 836 529 
Q 422 1150 422 2328 
Q 422 3509 836 4129 
Q 1250 4750 2034 4750 
z
" transform="scale(0.015625)"/>
      </defs>
      <use xlink:href="#DejaVuSans-55"/>
      <use xlink:href="#DejaVuSans-30" x="73.193359"/>
     </g>
    </g>
   </g>
   <g id="patch_4">
    <path d="M 34.2198 14.85 
C 34.828441 14.85 35.412236 14.608184 35.84261 14.17781 
C 36.272984 13.747436 36.5148 13.163641 36.5148 12.555 
C 36.5148 11.946359 36.272984 11.362564 35.84261 10.93219 
C 35.412236 10.501816 34.828441 10.26 34.2198 10.26 
C 33.611159 10.26 33.027364 10.501816 32.59699 10.93219 
C 32.166616 11.362564 31.9248 11.946359 31.9248 12.555 
C 31.9248 13.163641 32.166616 13.747436 32.59699 14.17781 
C 33.027364 14.608184 33.611159 14.85 34.2198 14.85 
z
" clip-path="url(#pf071561c68)" style="fill: #ffffff; stroke: #000000; stroke-width: 2; stroke-linejoin: miter"/>
   </g>
   <g id="patch_5">
    <path d="M 126.0198 106.65 
C 126.628441 106.65 127.212236 106.408184 127.64261 105.97781 
C 128.072984 105.547436 128.3148 104.963641 128.3148 104.355 
C 128.3148 103.746359 128.072984 103.162564 127.64261 102.73219 
C 127.212236 102.301816 126.628441 102.06 126.0198 102.06 
C 125.411159 102.06 124.827364 102.301816 124.39699 102.73219 
C 123.966616 103.162564 123.7248 103.746359 123.7248 104.355 
C 123.7248 104.963641 123.966616 105.547436 124.39699 105.97781 
C 124.827364 106.408184 125.411159 106.65 126.0198 106.65 
z
" clip-path="url(#pf071561c68)" style="stroke: #000000; stroke-width: 2; stroke-linejoin: miter"/>
   </g>
   <g id="patch_6">
    <path d="M 148.9698 106.65 
C 149.578441 106.65 150.162236 106.408184 150.59261 105.97781 
C 151.022984 105.547436 151.2648 104.963641 151.2648 104.355 
C 151.2648 103.746359 151.022984 103.162564 150.59261 102.73219 
C 150.162236 102.301816 149.578441 102.06 148.9698 102.06 
C 148.361159 102.06 147.777364 102.301816 147.34699 102.73219 
C 146.916616 103.162564 146.6748 103.746359 146.6748 104.355 
C 146.6748 104.963641 146.916616 105.547436 147.34699 105.97781 
C 147.777364 106.408184 148.361159 106.65 148.9698 106.65 
z
" clip-path="url(#pf071561c68)" style="stroke: #000000; stroke-width: 2; stroke-linejoin: miter"/>
   </g>
   <g id="patch_7">
    <path d="M 126.0198 198.45 
C 126.628441 198.45 127.212236 198.208184 127.64261 197.77781 
C 128.072984 197.347436 128.3148 196.763641 128.3148 196.155 
C 128.3148 195.546359 128.072984 194.962564 127.64261 194.53219 
C 127.212236 194.101816 126.628441 193.86 126.0198 193.86 
C 125.411159 193.86 124.827364 194.101816 124.39699 194.53219 
C 123.966616 194.962564 123.7248 195.546359 123.7248 196.155 
C 123.7248 196.763641 123.966616 197.347436 124.39699 197.77781 
C 124.827364 198.208184 125.411159 198.45 126.0198 198.45 
z
" clip-path="url(#pf071561c68)" style="stroke: #000000; stroke-width: 2; stroke-linejoin: miter"/>
   </g>
   <g id="patch_8">
    <path d="M 34.2198 198.45 
C 34.828441 198.45 35.412236 198.208184 35.84261 197.77781 
C 36.272984 197.347436 36.5148 196.763641 36.5148 196.155 
C 36.5148 195.546359 36.272984 194.962564 35.84261 194.53219 
C 35.412236 194.101816 34.828441 193.86 34.2198 193.86 
C 33.611159 193.86 33.027364 194.101816 32.59699 194.53219 
C 32.166616 194.962564 31.9248 195.546359 31.9248 196.155 
C 31.9248 196.763641 32.166616 197.347436 32.59699 197.77781 
C 33.027364 198.208184 33.611159 198.45 34.2198 198.45 
z
" clip-path="url(#pf071561c68)" style="fill: #ffffff; stroke: #000000; stroke-width: 2; stroke-linejoin: miter"/>
   </g>
   <g id="patch_9">
    <path d="M 309.6198 106.65 
C 310.228441 106.65 310.812236 106.408184 311.24261 105.97781 
C 311.672984 105.547436 311.9148 104.963641 311.9148 104.355 
C 311.9148 103.746359 311.672984 103.162564 311.24261 102.73219 
C 310.812236 102.301816 310.228441 102.06 309.6198 102.06 
C 309.011159 102.06 308.427364 102.301816 307.99699 102.73219 
C 307.566616 103.162564 307.3248 103.746359 307.3248 104.355 
C 307.3248 104.963641 307.566616 105.547436 307.99699 105.97781 
C 308.427364 106.408184 309.011159 106.65 309.6198 106.65 
z
" clip-path="url(#pf071561c68)" style="stroke: #000000; stroke-width: 2; stroke-linejoin: miter"/>
   </g>
   <g id="patch_10">
    <path d="M 286.6698 106.65 
C 287.278441 106.65 287.862236 106.408184 288.29261 105.97781 
C 288.722984 105.547436 288.9648 104.963641 288.9648 104.355 
C 288.9648 103.746359 288.722984 103.162564 288.29261 102.73219 
C 287.862236 102.301816 287.278441 102.06 286.6698 102.06 
C 286.061159 102.06 285.477364 102.301816 285.04699 102.73219 
C 284.616616 103.162564 284.3748 103.746359 284.3748 104.355 
C 284.3748 104.963641 284.616616 105.547436 285.04699 105.97781 
C 285.477364 106.408184 286.061159 106.65 286.6698 106.65 
z
" clip-path="url(#pf071561c68)" style="stroke: #000000; stroke-width: 2; stroke-linejoin: miter"/>
   </g>
  </g>
 </g>
 <defs>
  <clipPath id="pf071561c68">
   <rect x="7.2" y="7.2" width="313.1298" height="211.599"/>
  </clipPath>
 </defs>
</svg>