<?xml version="1.0" encoding="utf-8" standalone="no"?>
<!DOCTYPE svg PUBLIC "-//W3C//DTD SVG 1.1//EN"
  "http://www.w3.org/Graphics/SVG/1.1/DTD/svg11.dtd">
<svg xmlns:xlink="http://www.w3.org/1999/xlink" width="364.884143pt" height="152.899pt" viewBox="0 0 364.884143 152.899" xmlns="http://www.w3.org/2000/svg" version="1.1">
 <metadata>
  <rdf:RDF xmlns:dc="http://purl.org/dc/elements/1.1/" xmlns:cc="http://creativecommons.org/ns#" xmlns:rdf="http://www.w3.org/1999/02/22-rdf-syntax-ns#">
   <cc:Work>
    <dc:type rdf:resource="http://purl.org/dc/dcmitype/StillImage"/>
    <dc:date>2023-04-21T23:36:49.389907</dc:date>
    <dc:format>image/svg+xml</dc:format>
    <dc:creator>
     <cc:Agent>
      <dc:title>Matplotlib v3.7.1, https://matplotlib.org/</dc:title>
     </cc:Agent>
    </dc:creator>
   </cc:Work>
  </rdf:RDF>
 </metadata>
 <defs>
  <style type="text/css">*{stroke-linejoin: round; stroke-linecap: butt}</style>
 </defs>
 <g id="figure_1">
  <g id="patch_1">
   <path d="M 0 152.899 
L 364.884143 152.899 
L 364.884143 0 
L 0 0 
z
" style="fill: #ffffff"/>
  </g>
  <g id="axes_1">
   <g id="line2d_1">
    <path d="M 39.1566 84.805 
L 69.7566 84.805 
L 69.7566 77.155 
L 100.3566 77.155 
L 100.3566 92.455 
L 69.7566 92.455 
L 69.7566 84.805 
M 100.3566 84.805 
L 130.9566 84.805 
" clip-path="url(#pef3d033e3c)" style="fill: none; stroke: #000000; stroke-width: 2; stroke-linecap: round"/>
   </g>
   <g id="line2d_2">
    <path d="M 130.9566 84.805 
L 146.2566 84.805 
L 161.5566 84.805 
" clip-path="url(#pef3d033e3c)" style="fill: none; stroke: #000000; stroke-width: 2; stroke-linecap: round"/>
   </g>
   <g id="line2d_3">
    <path d="M 161.5566 103.93 
L 161.5566 65.68 
L 227.807543 103.93 
L 161.5566 142.18 
L 161.5566 103.93 
M 227.807543 103.93 
" clip-path="url(#pef3d033e3c)" style="fill: none; stroke: #000000; stroke-width: 2; stroke-linecap: round"/>
   </g>
   <g id="line2d_4">
    <path d="M 166.777968 84.805 
L 172.897968 84.805 
" clip-path="url(#pef3d033e3c)" style="fill: none; stroke: #000000; stroke-width: 2; stroke-linecap: round"/>
   </g>
   <g id="line2d_5">
    <path d="M 166.777968 123.055 
L 172.897968 123.055 
" clip-path="url(#pef3d033e3c)" style="fill: none; stroke: #000000; stroke-width: 2; stroke-linecap: round"/>
   </g>
   <g id="line2d_6">
    <path d="M 169.837968 126.115 
L 169.837968 119.995 
" clip-path="url(#pef3d033e3c)" style="fill: none; stroke: #000000; stroke-width: 2; stroke-linecap: round"/>
   </g>
   <g id="line2d_7">
    <path d="M 227.807543 103.93 
L 243.107543 103.93 
L 258.407543 103.93 
" clip-path="url(#pef3d033e3c)" style="fill: none; stroke: #000000; stroke-width: 2; stroke-linecap: round"/>
   </g>
   <g id="line2d_8">
    <path d="M 258.407543 103.93 
L 258.407543 73.33 
L 258.407543 42.73 
" clip-path="url(#pef3d033e3c)" style="fill: none; stroke: #000000; stroke-width: 2; stroke-linecap: round"/>
   </g>
   <g id="line2d_9">
    <path d="M 258.407543 42.73 
L 215.261543 42.73 
M 215.261543 50.38 
L 215.261543 35.08 
M 209.753543 50.38 
L 209.753543 35.08 
M 209.753543 42.73 
L 166.607543 42.73 
" clip-path="url(#pef3d033e3c)" style="fill: none; stroke: #000000; stroke-width: 2; stroke-linecap: round"/>
   </g>
   <g id="line2d_10">
    <path d="M 166.607543 42.73 
L 130.9566 42.73 
L 130.9566 84.805 
" clip-path="url(#pef3d033e3c)" style="fill: none; stroke: #000000; stroke-width: 2; stroke-linecap: round"/>
   </g>
   <g id="line2d_11">
    <path d="M 258.407543 103.93 
L 289.007543 103.93 
L 319.607543 103.93 
" clip-path="url(#pef3d033e3c)" style="fill: none; stroke: #000000; stroke-width: 2; stroke-linecap: round"/>
   </g>
   <g id="line2d_12">
    <path d="M 161.5566 123.055 
L 146.2566 123.055 
L 130.9566 123.055 
" clip-path="url(#pef3d033e3c)" style="fill: none; stroke: #000000; stroke-width: 2; stroke-linecap: round"/>
   </g>
   <g id="line2d_13">
    <path d="M 130.9566 123.055 
L 130.9566 135.295 
L 123.3066 135.295 
L 138.6066 135.295 
M 125.6016 138.967 
L 136.3116 138.967 
M 129.4266 142.639 
L 132.4866 142.639 
" clip-path="url(#pef3d033e3c)" style="fill: none; stroke: #000000; stroke-width: 2; stroke-linecap: round"/>
   </g>
   <g id="patch_2">
    <path d="M 130.9566 87.1 
C 131.565241 87.1 132.149036 86.858184 132.57941 86.42781 
C 133.009784 85.997436 133.2516 85.413641 133.2516 84.805 
C 133.2516 84.196359 133.009784 83.612564 132.57941 83.18219 
C 132.149036 82.751816 131.565241 82.51 130.9566 82.51 
C 130.347959 82.51 129.764164 82.751816 129.33379 83.18219 
C 128.903416 83.612564 128.6616 84.196359 128.6616 84.805 
C 128.6616 85.413641 128.903416 85.997436 129.33379 86.42781 
C 129.764164 86.858184 130.347959 87.1 130.9566 87.1 
z
" clip-path="url(#pef3d033e3c)" style="stroke: #000000; stroke-width: 2; stroke-linejoin: miter"/>
   </g>
   <g id="patch_3">
    <path d="M 39.1566 87.1 
C 39.765241 87.1 40.349036 86.858184 40.77941 86.42781 
C 41.209784 85.997436 41.4516 85.413641 41.4516 84.805 
C 41.4516 84.196359 41.209784 83.612564 40.77941 83.18219 
C 40.349036 82.751816 39.765241 82.51 39.1566 82.51 
C 38.547959 82.51 37.964164 82.751816 37.53379 83.18219 
C 37.103416 83.612564 36.8616 84.196359 36.8616 84.805 
C 36.8616 85.413641 37.103416 85.997436 37.53379 86.42781 
C 37.964164 86.858184 38.547959 87.1 39.1566 87.1 
z
" clip-path="url(#pef3d033e3c)" style="fill: #ffffff; stroke: #000000; stroke-width: 2; stroke-linejoin: miter"/>
   </g>
   <g id="text_1">
    <g clip-path="url(#pef3d033e3c)">
     <!-- R -->
     <g transform="translate(80.713827 71.495391) scale(0.125 -0.125)">
      <defs>
       <path id="DejaVuSans-52" d="M 2841 2188 
Q 3044 2119 3236 1894 
Q 3428 1669 3622 1275 
L 4263 0 
L 3584 0 
L 2988 1197 
Q 2756 1666 2539 1819 
Q 2322 1972 1947 1972 
L 1259 1972 
L 1259 0 
L 628 0 
L 628 4666 
L 2053 4666 
Q 2853 4666 3247 4331 
Q 3641 3997 3641 3322 
Q 3641 2881 3436 2590 
Q 3231 2300 2841 2188 
z
M 1259 4147 
L 1259 2491 
L 2053 2491 
Q 2509 2491 2742 2702 
Q 2975 2913 2975 3322 
Q 2975 3731 2742 3939 
Q 2509 4147 2053 4147 
L 1259 4147 
z
" transform="scale(0.015625)"/>
      </defs>
      <use xlink:href="#DejaVuSans-52"/>
     </g>
    </g>
   </g>
   <g id="text_2">
    <g clip-path="url(#pef3d033e3c)">
     <!-- $U_e$ -->
     <g transform="translate(18.9266 88.254219) scale(0.125 -0.125)">
      <defs>
       <path id="DejaVuSans-Oblique-55" d="M 991 4666 
L 1625 4666 
L 1075 1831 
Q 1041 1641 1027 1517 
Q 1013 1394 1013 1300 
Q 1013 869 1253 645 
Q 1494 422 1959 422 
Q 2563 422 2898 753 
Q 3234 1084 3378 1831 
L 3928 4666 
L 4563 4666 
L 4000 1753 
Q 3816 809 3300 359 
Q 2784 -91 1888 -91 
Q 1188 -91 780 261 
Q 372 613 372 1216 
Q 372 1325 387 1461 
Q 403 1597 434 1753 
L 991 4666 
z
" transform="scale(0.015625)"/>
       <path id="DejaVuSans-Oblique-65" d="M 3078 2063 
Q 3088 2113 3092 2166 
Q 3097 2219 3097 2272 
Q 3097 2653 2873 2875 
Q 2650 3097 2266 3097 
Q 1838 3097 1509 2826 
Q 1181 2556 1013 2059 
L 3078 2063 
z
M 3578 1613 
L 903 1613 
Q 884 1494 878 1425 
Q 872 1356 872 1306 
Q 872 872 1139 634 
Q 1406 397 1894 397 
Q 2269 397 2603 481 
Q 2938 566 3225 728 
L 3116 159 
Q 2806 34 2476 -28 
Q 2147 -91 1806 -91 
Q 1078 -91 686 257 
Q 294 606 294 1247 
Q 294 1794 489 2264 
Q 684 2734 1063 3103 
Q 1306 3334 1642 3459 
Q 1978 3584 2356 3584 
Q 2950 3584 3301 3228 
Q 3653 2872 3653 2272 
Q 3653 2128 3634 1964 
Q 3616 1800 3578 1613 
z
" transform="scale(0.015625)"/>
      </defs>
      <use xlink:href="#DejaVuSans-Oblique-55" transform="translate(0 0.09375)"/>
      <use xlink:href="#DejaVuSans-Oblique-65" transform="translate(73.193359 -16.3125) scale(0.7)"/>
     </g>
    </g>
   </g>
   <g id="patch_4">
    <path d="M 258.407543 106.225 
C 259.016185 106.225 259.599979 105.983184 260.030353 105.55281 
C 260.460728 105.122436 260.702543 104.538641 260.702543 103.93 
C 260.702543 103.321359 260.460728 102.737564 260.030353 102.30719 
C 259.599979 101.876816 259.016185 101.635 258.407543 101.635 
C 257.798902 101.635 257.215108 101.876816 256.784733 102.30719 
C 256.354359 102.737564 256.112543 103.321359 256.112543 103.93 
C 256.112543 104.538641 256.354359 105.122436 256.784733 105.55281 
C 257.215108 105.983184 257.798902 106.225 258.407543 106.225 
z
" clip-path="url(#pef3d033e3c)" style="stroke: #000000; stroke-width: 2; stroke-linejoin: miter"/>
   </g>
   <g id="text_3">
    <g clip-path="url(#pef3d033e3c)">
     <!-- C -->
     <g transform="translate(208.143286 29.420391) scale(0.125 -0.125)">
      <defs>
       <path id="DejaVuSans-43" d="M 4122 4306 
L 4122 3641 
Q 3803 3938 3442 4084 
Q 3081 4231 2675 4231 
Q 1875 4231 1450 3742 
Q 1025 3253 1025 2328 
Q 1025 1406 1450 917 
Q 1875 428 2675 428 
Q 3081 428 3442 575 
Q 3803 722 4122 1019 
L 4122 359 
Q 3791 134 3420 21 
Q 3050 -91 2638 -91 
Q 1578 -91 968 557 
Q 359 1206 359 2328 
Q 359 3453 968 4101 
Q 1578 4750 2638 4750 
Q 3056 4750 3426 4639 
Q 3797 4528 4122 4306 
z
" transform="scale(0.015625)"/>
      </defs>
      <use xlink:href="#DejaVuSans-43"/>
     </g>
    </g>
   </g>
   <g id="patch_5">
    <path d="M 319.607543 106.225 
C 320.216185 106.225 320.799979 105.983184 321.230353 105.55281 
C 321.660728 105.122436 321.902543 104.538641 321.902543 103.93 
C 321.902543 103.321359 321.660728 102.737564 321.230353 102.30719 
C 320.799979 101.876816 320.216185 101.635 319.607543 101.635 
C 318.998902 101.635 318.415108 101.876816 317.984733 102.30719 
C 317.554359 102.737564 317.312543 103.321359 317.312543 103.93 
C 317.312543 104.538641 317.554359 105.122436 317.984733 105.55281 
C 318.415108 105.983184 318.998902 106.225 319.607543 106.225 
z
" clip-path="url(#pef3d033e3c)" style="fill: #ffffff; stroke: #000000; stroke-width: 2; stroke-linejoin: miter"/>
   </g>
   <g id="text_4">
    <g clip-path="url(#pef3d033e3c)">
     <!-- $U_a$ -->
     <g transform="translate(324.962543 107.379219) scale(0.125 -0.125)">
      <defs>
       <path id="DejaVuSans-Oblique-61" d="M 3438 1997 
L 3047 0 
L 2472 0 
L 2578 531 
Q 2325 219 2001 64 
Q 1678 -91 1281 -91 
Q 834 -91 548 182 
Q 263 456 263 884 
Q 263 1497 752 1853 
Q 1241 2209 2100 2209 
L 2900 2209 
L 2931 2363 
Q 2938 2388 2941 2417 
Q 2944 2447 2944 2509 
Q 2944 2788 2717 2942 
Q 2491 3097 2081 3097 
Q 1800 3097 1504 3025 
Q 1209 2953 897 2809 
L 997 3341 
Q 1322 3463 1633 3523 
Q 1944 3584 2234 3584 
Q 2853 3584 3176 3315 
Q 3500 3047 3500 2534 
Q 3500 2431 3484 2292 
Q 3469 2153 3438 1997 
z
M 2816 1759 
L 2241 1759 
Q 1534 1759 1195 1570 
Q 856 1381 856 984 
Q 856 709 1029 553 
Q 1203 397 1509 397 
Q 1978 397 2328 733 
Q 2678 1069 2791 1631 
L 2816 1759 
z
" transform="scale(0.015625)"/>
      </defs>
      <use xlink:href="#DejaVuSans-Oblique-55" transform="translate(0 0.09375)"/>
      <use xlink:href="#DejaVuSans-Oblique-61" transform="translate(73.193359 -16.3125) scale(0.7)"/>
     </g>
    </g>
   </g>
  </g>
 </g>
 <defs>
  <clipPath id="pef3d033e3c">
   <rect x="7.2" y="7.2" width="350.484143" height="138.499"/>
  </clipPath>
 </defs>
</svg>