<?xml version="1.0" encoding="utf-8" standalone="no"?>
<!DOCTYPE svg PUBLIC "-//W3C//DTD SVG 1.1//EN"
  "http://www.w3.org/Graphics/SVG/1.1/DTD/svg11.dtd">
<svg xmlns:xlink="http://www.w3.org/1999/xlink" width="293.7576pt" height="130.527pt" viewBox="0 0 293.7576 130.527" xmlns="http://www.w3.org/2000/svg" version="1.1">
 <metadata>
  <rdf:RDF xmlns:dc="http://purl.org/dc/elements/1.1/" xmlns:cc="http://creativecommons.org/ns#" xmlns:rdf="http://www.w3.org/1999/02/22-rdf-syntax-ns#">
   <cc:Work>
    <dc:type rdf:resource="http://purl.org/dc/dcmitype/StillImage"/>
    <dc:date>2023-04-22T22:33:00.683837</dc:date>
    <dc:format>image/svg+xml</dc:format>
    <dc:creator>
     <cc:Agent>
      <dc:title>Matplotlib v3.7.1, https://matplotlib.org/</dc:title>
     </cc:Agent>
    </dc:creator>
   </cc:Work>
  </rdf:RDF>
 </metadata>
 <defs>
  <style type="text/css">*{stroke-linejoin: round; stroke-linecap: butt}</style>
 </defs>
 <g id="figure_1">
  <g id="patch_1">
   <path d="M 0 130.527 
L 293.7576 130.527 
L 293.7576 0 
L 0 0 
z
" style="fill: #ffffff"/>
  </g>
  <g id="axes_1">
   <g id="patch_2">
    <path d="M 206.7018 33.822 
L 195.9918 26.172 
L 206.7018 18.522 
L 206.7018 33.822 
z
" clip-path="url(#p8244be9ccc)" style="fill: none; stroke: #000000; stroke-width: 2; stroke-linecap: round"/>
   </g>
   <g id="patch_3">
    <path d="M 178.3968 66.717 
L 170.7468 77.427 
L 163.0968 66.717 
L 178.3968 66.717 
z
" clip-path="url(#p8244be9ccc)" style="fill: none; stroke: #000000; stroke-width: 2; stroke-linecap: round"/>
   </g>
   <g id="line2d_1">
    <path d="M 25.0908 13.932 
L 40.3908 13.932 
L 55.6908 13.932 
" clip-path="url(#p8244be9ccc)" style="fill: none; stroke: #000000; stroke-width: 2; stroke-linecap: round"/>
   </g>
   <g id="line2d_2">
    <path d="M 52.0188 13.932 
M 61.1988 18.522 
L 75.2748 23.112 
M 82.6188 26.172 
" clip-path="url(#p8244be9ccc)" style="fill: none; stroke: #000000; stroke-width: 2; stroke-linecap: round"/>
   </g>
   <g id="line2d_3">
    <path d="M 78.9468 26.172 
L 122.0928 26.172 
M 122.0928 18.522 
L 122.0928 33.822 
M 127.6008 18.522 
L 127.6008 33.822 
M 127.6008 26.172 
L 170.7468 26.172 
" clip-path="url(#p8244be9ccc)" style="fill: none; stroke: #000000; stroke-width: 2; stroke-linecap: round"/>
   </g>
   <g id="line2d_4">
    <path d="M 170.7468 26.172 
L 195.9918 26.172 
M 195.9918 33.822 
L 195.9918 18.522 
M 206.7018 26.172 
L 231.9468 26.172 
" clip-path="url(#p8244be9ccc)" style="fill: none; stroke: #000000; stroke-width: 2; stroke-linecap: round"/>
   </g>
   <g id="line2d_5">
    <path d="M 231.9468 26.172 
L 247.2468 26.172 
L 262.5468 26.172 
" clip-path="url(#p8244be9ccc)" style="fill: none; stroke: #000000; stroke-width: 2; stroke-linecap: round"/>
   </g>
   <g id="line2d_6">
    <path d="M 231.9468 26.172 
L 231.9468 69.318 
M 239.5968 69.318 
L 224.2968 69.318 
M 239.5968 74.826 
L 224.2968 74.826 
M 231.9468 74.826 
L 231.9468 117.972 
" clip-path="url(#p8244be9ccc)" style="fill: none; stroke: #000000; stroke-width: 2; stroke-linecap: round"/>
   </g>
   <g id="line2d_7">
    <path d="M 170.7468 26.172 
L 170.7468 66.717 
M 178.3968 77.427 
L 163.0968 77.427 
M 170.7468 77.427 
L 170.7468 117.972 
" clip-path="url(#p8244be9ccc)" style="fill: none; stroke: #000000; stroke-width: 2; stroke-linecap: round"/>
   </g>
   <g id="line2d_8">
    <path d="M 170.7468 117.972 
L 231.9468 117.972 
" clip-path="url(#p8244be9ccc)" style="fill: none; stroke: #000000; stroke-width: 2; stroke-linecap: round"/>
   </g>
   <g id="line2d_9">
    <path d="M 231.9468 117.972 
L 247.2468 117.972 
L 262.5468 117.972 
" clip-path="url(#p8244be9ccc)" style="fill: none; stroke: #000000; stroke-width: 2; stroke-linecap: round"/>
   </g>
   <g id="line2d_10">
    <path d="M 170.7468 117.972 
L 113.2188 117.972 
L 55.6908 117.972 
" clip-path="url(#p8244be9ccc)" style="fill: none; stroke: #000000; stroke-width: 2; stroke-linecap: round"/>
   </g>
   <g id="line2d_11">
    <path d="M 55.6908 117.972 
L 55.6908 78.192 
L 55.6908 38.412 
" clip-path="url(#p8244be9ccc)" style="fill: none; stroke: #000000; stroke-width: 2; stroke-linecap: round"/>
   </g>
   <g id="line2d_12">
    <path d="M 55.6908 117.972 
L 40.3908 117.972 
L 25.0908 117.972 
" clip-path="url(#p8244be9ccc)" style="fill: none; stroke: #000000; stroke-width: 2; stroke-linecap: round"/>
   </g>
   <g id="patch_4">
    <path d="M 25.0908 16.227 
C 25.699441 16.227 26.283236 15.985184 26.71361 15.55481 
C 27.143984 15.124436 27.3858 14.540641 27.3858 13.932 
C 27.3858 13.323359 27.143984 12.739564 26.71361 12.30919 
C 26.283236 11.878816 25.699441 11.637 25.0908 11.637 
C 24.482159 11.637 23.898364 11.878816 23.46799 12.30919 
C 23.037616 12.739564 22.7958 13.323359 22.7958 13.932 
C 22.7958 14.540641 23.037616 15.124436 23.46799 15.55481 
C 23.898364 15.985184 24.482159 16.227 25.0908 16.227 
z
" clip-path="url(#p8244be9ccc)" style="fill: #ffffff; stroke: #000000; stroke-width: 2; stroke-linejoin: miter"/>
   </g>
   <g id="patch_5">
    <path d="M 78.9468 29.844 
C 79.920626 29.844 80.854697 29.457095 81.543296 28.768496 
C 82.231895 28.079897 82.6188 27.145826 82.6188 26.172 
C 82.6188 25.198174 82.231895 24.264103 81.543296 23.575504 
C 80.854697 22.886905 79.920626 22.5 78.9468 22.5 
C 77.972974 22.5 77.038903 22.886905 76.350304 23.575504 
C 75.661705 24.264103 75.2748 25.198174 75.2748 26.172 
C 75.2748 27.145826 75.661705 28.079897 76.350304 28.768496 
C 77.038903 29.457095 77.972974 29.844 78.9468 29.844 
z
" clip-path="url(#p8244be9ccc)" style="fill: #ffffff; stroke: #000000; stroke-width: 2; stroke-linejoin: miter"/>
   </g>
   <g id="patch_6">
    <path d="M 55.6908 42.084 
C 56.664626 42.084 57.598697 41.697095 58.287296 41.008496 
C 58.975895 40.319897 59.3628 39.385826 59.3628 38.412 
C 59.3628 37.438174 58.975895 36.504103 58.287296 35.815504 
C 57.598697 35.126905 56.664626 34.74 55.6908 34.74 
C 54.716974 34.74 53.782903 35.126905 53.094304 35.815504 
C 52.405705 36.504103 52.0188 37.438174 52.0188 38.412 
C 52.0188 39.385826 52.405705 40.319897 53.094304 41.008496 
C 53.782903 41.697095 54.716974 42.084 55.6908 42.084 
z
" clip-path="url(#p8244be9ccc)" style="fill: #ffffff; stroke: #000000; stroke-width: 2; stroke-linejoin: miter"/>
   </g>
   <g id="patch_7">
    <path d="M 55.6908 17.604 
C 56.664626 17.604 57.598697 17.217095 58.287296 16.528496 
C 58.975895 15.839897 59.3628 14.905826 59.3628 13.932 
C 59.3628 12.958174 58.975895 12.024103 58.287296 11.335504 
C 57.598697 10.646905 56.664626 10.26 55.6908 10.26 
C 54.716974 10.26 53.782903 10.646905 53.094304 11.335504 
C 52.405705 12.024103 52.0188 12.958174 52.0188 13.932 
C 52.0188 14.905826 52.405705 15.839897 53.094304 16.528496 
C 53.782903 17.217095 54.716974 17.604 55.6908 17.604 
z
" clip-path="url(#p8244be9ccc)" style="fill: #ffffff; stroke: #000000; stroke-width: 2; stroke-linejoin: miter"/>
   </g>
   <g id="patch_8">
    <path d="M 170.7468 28.467 
C 171.355441 28.467 171.939236 28.225184 172.36961 27.79481 
C 172.799984 27.364436 173.0418 26.780641 173.0418 26.172 
C 173.0418 25.563359 172.799984 24.979564 172.36961 24.54919 
C 171.939236 24.118816 171.355441 23.877 170.7468 23.877 
C 170.138159 23.877 169.554364 24.118816 169.12399 24.54919 
C 168.693616 24.979564 168.4518 25.563359 168.4518 26.172 
C 168.4518 26.780641 168.693616 27.364436 169.12399 27.79481 
C 169.554364 28.225184 170.138159 28.467 170.7468 28.467 
z
" clip-path="url(#p8244be9ccc)" style="stroke: #000000; stroke-width: 2; stroke-linejoin: miter"/>
   </g>
   <g id="patch_9">
    <path d="M 262.5468 28.467 
C 263.155441 28.467 263.739236 28.225184 264.16961 27.79481 
C 264.599984 27.364436 264.8418 26.780641 264.8418 26.172 
C 264.8418 25.563359 264.599984 24.979564 264.16961 24.54919 
C 263.739236 24.118816 263.155441 23.877 262.5468 23.877 
C 261.938159 23.877 261.354364 24.118816 260.92399 24.54919 
C 260.493616 24.979564 260.2518 25.563359 260.2518 26.172 
C 260.2518 26.780641 260.493616 27.364436 260.92399 27.79481 
C 261.354364 28.225184 261.938159 28.467 262.5468 28.467 
z
" clip-path="url(#p8244be9ccc)" style="fill: #ffffff; stroke: #000000; stroke-width: 2; stroke-linejoin: miter"/>
   </g>
   <g id="patch_10">
    <path d="M 170.7468 120.267 
C 171.355441 120.267 171.939236 120.025184 172.36961 119.59481 
C 172.799984 119.164436 173.0418 118.580641 173.0418 117.972 
C 173.0418 117.363359 172.799984 116.779564 172.36961 116.34919 
C 171.939236 115.918816 171.355441 115.677 170.7468 115.677 
C 170.138159 115.677 169.554364 115.918816 169.12399 116.34919 
C 168.693616 116.779564 168.4518 117.363359 168.4518 117.972 
C 168.4518 118.580641 168.693616 119.164436 169.12399 119.59481 
C 169.554364 120.025184 170.138159 120.267 170.7468 120.267 
z
" clip-path="url(#p8244be9ccc)" style="stroke: #000000; stroke-width: 2; stroke-linejoin: miter"/>
   </g>
   <g id="patch_11">
    <path d="M 231.9468 120.267 
C 232.555441 120.267 233.139236 120.025184 233.56961 119.59481 
C 233.999984 119.164436 234.2418 118.580641 234.2418 117.972 
C 234.2418 117.363359 233.999984 116.779564 233.56961 116.34919 
C 233.139236 115.918816 232.555441 115.677 231.9468 115.677 
C 231.338159 115.677 230.754364 115.918816 230.32399 116.34919 
C 229.893616 116.779564 229.6518 117.363359 229.6518 117.972 
C 229.6518 118.580641 229.893616 119.164436 230.32399 119.59481 
C 230.754364 120.025184 231.338159 120.267 231.9468 120.267 
z
" clip-path="url(#p8244be9ccc)" style="stroke: #000000; stroke-width: 2; stroke-linejoin: miter"/>
   </g>
   <g id="patch_12">
    <path d="M 262.5468 120.267 
C 263.155441 120.267 263.739236 120.025184 264.16961 119.59481 
C 264.599984 119.164436 264.8418 118.580641 264.8418 117.972 
C 264.8418 117.363359 264.599984 116.779564 264.16961 116.34919 
C 263.739236 115.918816 263.155441 115.677 262.5468 115.677 
C 261.938159 115.677 261.354364 115.918816 260.92399 116.34919 
C 260.493616 116.779564 260.2518 117.363359 260.2518 117.972 
C 260.2518 118.580641 260.493616 119.164436 260.92399 119.59481 
C 261.354364 120.025184 261.938159 120.267 262.5468 120.267 
z
" clip-path="url(#p8244be9ccc)" style="fill: #ffffff; stroke: #000000; stroke-width: 2; stroke-linejoin: miter"/>
   </g>
   <g id="text_1">
    <g clip-path="url(#p8244be9ccc)">
     <!-- - -->
     <g transform="translate(260.291917 98.471219) scale(0.125 -0.125)">
      <defs>
       <path id="DejaVuSans-2d" d="M 313 2009 
L 1997 2009 
L 1997 1497 
L 313 1497 
L 313 2009 
z
" transform="scale(0.015625)"/>
      </defs>
      <use xlink:href="#DejaVuSans-2d"/>
     </g>
    </g>
   </g>
   <g id="text_2">
    <g clip-path="url(#p8244be9ccc)">
     <!-- $U_a$ -->
     <g transform="translate(255.1093 75.521219) scale(0.125 -0.125)">
      <defs>
       <path id="DejaVuSans-Oblique-55" d="M 991 4666 
L 1625 4666 
L 1075 1831 
Q 1041 1641 1027 1517 
Q 1013 1394 1013 1300 
Q 1013 869 1253 645 
Q 1494 422 1959 422 
Q 2563 422 2898 753 
Q 3234 1084 3378 1831 
L 3928 4666 
L 4563 4666 
L 4000 1753 
Q 3816 809 3300 359 
Q 2784 -91 1888 -91 
Q 1188 -91 780 261 
Q 372 613 372 1216 
Q 372 1325 387 1461 
Q 403 1597 434 1753 
L 991 4666 
z
" transform="scale(0.015625)"/>
       <path id="DejaVuSans-Oblique-61" d="M 3438 1997 
L 3047 0 
L 2472 0 
L 2578 531 
Q 2325 219 2001 64 
Q 1678 -91 1281 -91 
Q 834 -91 548 182 
Q 263 456 263 884 
Q 263 1497 752 1853 
Q 1241 2209 2100 2209 
L 2900 2209 
L 2931 2363 
Q 2938 2388 2941 2417 
Q 2944 2447 2944 2509 
Q 2944 2788 2717 2942 
Q 2491 3097 2081 3097 
Q 1800 3097 1504 3025 
Q 1209 2953 897 2809 
L 997 3341 
Q 1322 3463 1633 3523 
Q 1944 3584 2234 3584 
Q 2853 3584 3176 3315 
Q 3500 3047 3500 2534 
Q 3500 2431 3484 2292 
Q 3469 2153 3438 1997 
z
M 2816 1759 
L 2241 1759 
Q 1534 1759 1195 1570 
Q 856 1381 856 984 
Q 856 709 1029 553 
Q 1203 397 1509 397 
Q 1978 397 2328 733 
Q 2678 1069 2791 1631 
L 2816 1759 
z
" transform="scale(0.015625)"/>
      </defs>
      <use xlink:href="#DejaVuSans-Oblique-55" transform="translate(0 0.09375)"/>
      <use xlink:href="#DejaVuSans-Oblique-61" transform="translate(73.193359 -16.3125) scale(0.7)"/>
     </g>
    </g>
   </g>
   <g id="text_3">
    <g clip-path="url(#p8244be9ccc)">
     <!-- + -->
     <g transform="translate(257.309495 52.571219) scale(0.125 -0.125)">
      <defs>
       <path id="DejaVuSans-2b" d="M 2944 4013 
L 2944 2272 
L 4684 2272 
L 4684 1741 
L 2944 1741 
L 2944 0 
L 2419 0 
L 2419 1741 
L 678 1741 
L 678 2272 
L 2419 2272 
L 2419 4013 
L 2944 4013 
z
" transform="scale(0.015625)"/>
      </defs>
      <use xlink:href="#DejaVuSans-2b"/>
     </g>
    </g>
   </g>
   <g id="patch_13">
    <path d="M 55.6908 120.267 
C 56.299441 120.267 56.883236 120.025184 57.31361 119.59481 
C 57.743984 119.164436 57.9858 118.580641 57.9858 117.972 
C 57.9858 117.363359 57.743984 116.779564 57.31361 116.34919 
C 56.883236 115.918816 56.299441 115.677 55.6908 115.677 
C 55.082159 115.677 54.498364 115.918816 54.06799 116.34919 
C 53.637616 116.779564 53.3958 117.363359 53.3958 117.972 
C 53.3958 118.580641 53.637616 119.164436 54.06799 119.59481 
C 54.498364 120.025184 55.082159 120.267 55.6908 120.267 
z
" clip-path="url(#p8244be9ccc)" style="stroke: #000000; stroke-width: 2; stroke-linejoin: miter"/>
   </g>
   <g id="patch_14">
    <path d="M 25.0908 120.267 
C 25.699441 120.267 26.283236 120.025184 26.71361 119.59481 
C 27.143984 119.164436 27.3858 118.580641 27.3858 117.972 
C 27.3858 117.363359 27.143984 116.779564 26.71361 116.34919 
C 26.283236 115.918816 25.699441 115.677 25.0908 115.677 
C 24.482159 115.677 23.898364 115.918816 23.46799 116.34919 
C 23.037616 116.779564 22.7958 117.363359 22.7958 117.972 
C 22.7958 118.580641 23.037616 119.164436 23.46799 119.59481 
C 23.898364 120.025184 24.482159 120.267 25.0908 120.267 
z
" clip-path="url(#p8244be9ccc)" style="fill: #ffffff; stroke: #000000; stroke-width: 2; stroke-linejoin: miter"/>
   </g>
   <g id="text_4">
    <g clip-path="url(#p8244be9ccc)">
     <!-- - -->
     <g transform="translate(22.835917 95.411219) scale(0.125 -0.125)">
      <use xlink:href="#DejaVuSans-2d"/>
     </g>
    </g>
   </g>
   <g id="text_5">
    <g clip-path="url(#p8244be9ccc)">
     <!-- $U_e$ -->
     <g transform="translate(17.6533 69.401219) scale(0.125 -0.125)">
      <defs>
       <path id="DejaVuSans-Oblique-65" d="M 3078 2063 
Q 3088 2113 3092 2166 
Q 3097 2219 3097 2272 
Q 3097 2653 2873 2875 
Q 2650 3097 2266 3097 
Q 1838 3097 1509 2826 
Q 1181 2556 1013 2059 
L 3078 2063 
z
M 3578 1613 
L 903 1613 
Q 884 1494 878 1425 
Q 872 1356 872 1306 
Q 872 872 1139 634 
Q 1406 397 1894 397 
Q 2269 397 2603 481 
Q 2938 566 3225 728 
L 3116 159 
Q 2806 34 2476 -28 
Q 2147 -91 1806 -91 
Q 1078 -91 686 257 
Q 294 606 294 1247 
Q 294 1794 489 2264 
Q 684 2734 1063 3103 
Q 1306 3334 1642 3459 
Q 1978 3584 2356 3584 
Q 2950 3584 3301 3228 
Q 3653 2872 3653 2272 
Q 3653 2128 3634 1964 
Q 3616 1800 3578 1613 
z
" transform="scale(0.015625)"/>
      </defs>
      <use xlink:href="#DejaVuSans-Oblique-55" transform="translate(0 0.09375)"/>
      <use xlink:href="#DejaVuSans-Oblique-65" transform="translate(73.193359 -16.3125) scale(0.7)"/>
     </g>
    </g>
   </g>
   <g id="text_6">
    <g clip-path="url(#p8244be9ccc)">
     <!-- + -->
     <g transform="translate(19.853495 43.391219) scale(0.125 -0.125)">
      <use xlink:href="#DejaVuSans-2b"/>
     </g>
    </g>
   </g>
  </g>
 </g>
 <defs>
  <clipPath id="p8244be9ccc">
   <rect x="7.2" y="7.2" width="279.3576" height="116.127"/>
  </clipPath>
 </defs>
</svg>