<?xml version="1.0" encoding="utf-8" standalone="no"?>
<!DOCTYPE svg PUBLIC "-//W3C//DTD SVG 1.1//EN"
  "http://www.w3.org/Graphics/SVG/1.1/DTD/svg11.dtd">
<svg xmlns:xlink="http://www.w3.org/1999/xlink" width="303.9678pt" height="147.085pt" viewBox="0 0 303.9678 147.085" xmlns="http://www.w3.org/2000/svg" version="1.1">
 <metadata>
  <rdf:RDF xmlns:dc="http://purl.org/dc/elements/1.1/" xmlns:cc="http://creativecommons.org/ns#" xmlns:rdf="http://www.w3.org/1999/02/22-rdf-syntax-ns#">
   <cc:Work>
    <dc:type rdf:resource="http://purl.org/dc/dcmitype/StillImage"/>
    <dc:date>2023-04-22T21:48:00.417081</dc:date>
    <dc:format>image/svg+xml</dc:format>
    <dc:creator>
     <cc:Agent>
      <dc:title>Matplotlib v3.7.1, https://matplotlib.org/</dc:title>
     </cc:Agent>
    </dc:creator>
   </cc:Work>
  </rdf:RDF>
 </metadata>
 <defs>
  <style type="text/css">*{stroke-linejoin: round; stroke-linecap: butt}</style>
 </defs>
 <g id="figure_1">
  <g id="patch_1">
   <path d="M 0 147.085 
L 303.9678 147.085 
L 303.9678 0 
L 0 0 
z
" style="fill: #ffffff"/>
  </g>
  <g id="axes_1">
   <g id="patch_2">
    <path d="M 216.912 50.38 
L 206.202 42.73 
L 216.912 35.08 
L 216.912 50.38 
z
" clip-path="url(#pc15eed2e1e)" style="fill: none; stroke: #000000; stroke-width: 2; stroke-linecap: round"/>
   </g>
   <g id="patch_3">
    <path d="M 188.607 83.275 
L 180.957 93.985 
L 173.307 83.275 
L 188.607 83.275 
z
" clip-path="url(#pc15eed2e1e)" style="fill: none; stroke: #000000; stroke-width: 2; stroke-linecap: round"/>
   </g>
   <g id="line2d_1">
    <path d="M 35.301 30.49 
L 50.601 30.49 
L 65.901 30.49 
" clip-path="url(#pc15eed2e1e)" style="fill: none; stroke: #000000; stroke-width: 2; stroke-linecap: round"/>
   </g>
   <g id="line2d_2">
    <path d="M 62.229 54.97 
M 71.409 50.38 
L 85.485 45.79 
M 92.829 42.73 
" clip-path="url(#pc15eed2e1e)" style="fill: none; stroke: #000000; stroke-width: 2; stroke-linecap: round"/>
   </g>
   <g id="line2d_3">
    <path d="M 89.157 42.73 
L 132.303 42.73 
M 132.303 35.08 
L 132.303 50.38 
M 137.811 35.08 
L 137.811 50.38 
M 137.811 42.73 
L 180.957 42.73 
" clip-path="url(#pc15eed2e1e)" style="fill: none; stroke: #000000; stroke-width: 2; stroke-linecap: round"/>
   </g>
   <g id="line2d_4">
    <path d="M 180.957 42.73 
L 206.202 42.73 
M 206.202 50.38 
L 206.202 35.08 
M 216.912 42.73 
L 242.157 42.73 
" clip-path="url(#pc15eed2e1e)" style="fill: none; stroke: #000000; stroke-width: 2; stroke-linecap: round"/>
   </g>
   <g id="line2d_5">
    <path d="M 242.157 42.73 
L 257.457 42.73 
L 272.757 42.73 
" clip-path="url(#pc15eed2e1e)" style="fill: none; stroke: #000000; stroke-width: 2; stroke-linecap: round"/>
   </g>
   <g id="line2d_6">
    <path d="M 242.157 42.73 
L 242.157 85.876 
M 249.807 85.876 
L 234.507 85.876 
M 249.807 91.384 
L 234.507 91.384 
M 242.157 91.384 
L 242.157 134.53 
" clip-path="url(#pc15eed2e1e)" style="fill: none; stroke: #000000; stroke-width: 2; stroke-linecap: round"/>
   </g>
   <g id="line2d_7">
    <path d="M 180.957 42.73 
L 180.957 83.275 
M 188.607 93.985 
L 173.307 93.985 
M 180.957 93.985 
L 180.957 134.53 
" clip-path="url(#pc15eed2e1e)" style="fill: none; stroke: #000000; stroke-width: 2; stroke-linecap: round"/>
   </g>
   <g id="line2d_8">
    <path d="M 180.957 134.53 
L 242.157 134.53 
" clip-path="url(#pc15eed2e1e)" style="fill: none; stroke: #000000; stroke-width: 2; stroke-linecap: round"/>
   </g>
   <g id="line2d_9">
    <path d="M 242.157 134.53 
L 257.457 134.53 
L 272.757 134.53 
" clip-path="url(#pc15eed2e1e)" style="fill: none; stroke: #000000; stroke-width: 2; stroke-linecap: round"/>
   </g>
   <g id="line2d_10">
    <path d="M 180.957 134.53 
L 123.429 134.53 
L 65.901 134.53 
" clip-path="url(#pc15eed2e1e)" style="fill: none; stroke: #000000; stroke-width: 2; stroke-linecap: round"/>
   </g>
   <g id="line2d_11">
    <path d="M 65.901 134.53 
L 65.901 94.75 
L 65.901 54.97 
" clip-path="url(#pc15eed2e1e)" style="fill: none; stroke: #000000; stroke-width: 2; stroke-linecap: round"/>
   </g>
   <g id="line2d_12">
    <path d="M 65.901 134.53 
L 50.601 134.53 
L 35.301 134.53 
" clip-path="url(#pc15eed2e1e)" style="fill: none; stroke: #000000; stroke-width: 2; stroke-linecap: round"/>
   </g>
   <g id="patch_4">
    <path d="M 35.301 32.785 
C 35.909641 32.785 36.493436 32.543184 36.92381 32.11281 
C 37.354184 31.682436 37.596 31.098641 37.596 30.49 
C 37.596 29.881359 37.354184 29.297564 36.92381 28.86719 
C 36.493436 28.436816 35.909641 28.195 35.301 28.195 
C 34.692359 28.195 34.108564 28.436816 33.67819 28.86719 
C 33.247816 29.297564 33.006 29.881359 33.006 30.49 
C 33.006 31.098641 33.247816 31.682436 33.67819 32.11281 
C 34.108564 32.543184 34.692359 32.785 35.301 32.785 
z
" clip-path="url(#pc15eed2e1e)" style="stroke: #000000; stroke-width: 2; stroke-linejoin: miter"/>
   </g>
   <g id="text_1">
    <g clip-path="url(#pc15eed2e1e)">
     <!-- $+5$ -->
     <g transform="translate(11.446 33.939219) scale(0.125 -0.125)">
      <defs>
       <path id="DejaVuSans-2b" d="M 2944 4013 
L 2944 2272 
L 4684 2272 
L 4684 1741 
L 2944 1741 
L 2944 0 
L 2419 0 
L 2419 1741 
L 678 1741 
L 678 2272 
L 2419 2272 
L 2419 4013 
L 2944 4013 
z
" transform="scale(0.015625)"/>
       <path id="DejaVuSans-35" d="M 691 4666 
L 3169 4666 
L 3169 4134 
L 1269 4134 
L 1269 2991 
Q 1406 3038 1543 3061 
Q 1681 3084 1819 3084 
Q 2600 3084 3056 2656 
Q 3513 2228 3513 1497 
Q 3513 744 3044 326 
Q 2575 -91 1722 -91 
Q 1428 -91 1123 -41 
Q 819 9 494 109 
L 494 744 
Q 775 591 1075 516 
Q 1375 441 1709 441 
Q 2250 441 2565 725 
Q 2881 1009 2881 1497 
Q 2881 1984 2565 2268 
Q 2250 2553 1709 2553 
Q 1456 2553 1204 2497 
Q 953 2441 691 2322 
L 691 4666 
z
" transform="scale(0.015625)"/>
      </defs>
      <use xlink:href="#DejaVuSans-2b" transform="translate(0 0.09375)"/>
      <use xlink:href="#DejaVuSans-35" transform="translate(83.789062 0.09375)"/>
     </g>
    </g>
   </g>
   <g id="patch_5">
    <path d="M 89.157 46.402 
C 90.130826 46.402 91.064897 46.015095 91.753496 45.326496 
C 92.442095 44.637897 92.829 43.703826 92.829 42.73 
C 92.829 41.756174 92.442095 40.822103 91.753496 40.133504 
C 91.064897 39.444905 90.130826 39.058 89.157 39.058 
C 88.183174 39.058 87.249103 39.444905 86.560504 40.133504 
C 85.871905 40.822103 85.485 41.756174 85.485 42.73 
C 85.485 43.703826 85.871905 44.637897 86.560504 45.326496 
C 87.249103 46.015095 88.183174 46.402 89.157 46.402 
z
" clip-path="url(#pc15eed2e1e)" style="fill: #ffffff; stroke: #000000; stroke-width: 2; stroke-linejoin: miter"/>
   </g>
   <g id="patch_6">
    <path d="M 65.901 34.162 
C 66.874826 34.162 67.808897 33.775095 68.497496 33.086496 
C 69.186095 32.397897 69.573 31.463826 69.573 30.49 
C 69.573 29.516174 69.186095 28.582103 68.497496 27.893504 
C 67.808897 27.204905 66.874826 26.818 65.901 26.818 
C 64.927174 26.818 63.993103 27.204905 63.304504 27.893504 
C 62.615905 28.582103 62.229 29.516174 62.229 30.49 
C 62.229 31.463826 62.615905 32.397897 63.304504 33.086496 
C 63.993103 33.775095 64.927174 34.162 65.901 34.162 
z
" clip-path="url(#pc15eed2e1e)" style="fill: #ffffff; stroke: #000000; stroke-width: 2; stroke-linejoin: miter"/>
   </g>
   <g id="patch_7">
    <path d="M 65.901 58.642 
C 66.874826 58.642 67.808897 58.255095 68.497496 57.566496 
C 69.186095 56.877897 69.573 55.943826 69.573 54.97 
C 69.573 53.996174 69.186095 53.062103 68.497496 52.373504 
C 67.808897 51.684905 66.874826 51.298 65.901 51.298 
C 64.927174 51.298 63.993103 51.684905 63.304504 52.373504 
C 62.615905 53.062103 62.229 53.996174 62.229 54.97 
C 62.229 55.943826 62.615905 56.877897 63.304504 57.566496 
C 63.993103 58.255095 64.927174 58.642 65.901 58.642 
z
" clip-path="url(#pc15eed2e1e)" style="fill: #ffffff; stroke: #000000; stroke-width: 2; stroke-linejoin: miter"/>
   </g>
   <g id="patch_8">
    <path d="M 180.957 45.025 
C 181.565641 45.025 182.149436 44.783184 182.57981 44.35281 
C 183.010184 43.922436 183.252 43.338641 183.252 42.73 
C 183.252 42.121359 183.010184 41.537564 182.57981 41.10719 
C 182.149436 40.676816 181.565641 40.435 180.957 40.435 
C 180.348359 40.435 179.764564 40.676816 179.33419 41.10719 
C 178.903816 41.537564 178.662 42.121359 178.662 42.73 
C 178.662 43.338641 178.903816 43.922436 179.33419 44.35281 
C 179.764564 44.783184 180.348359 45.025 180.957 45.025 
z
" clip-path="url(#pc15eed2e1e)" style="stroke: #000000; stroke-width: 2; stroke-linejoin: miter"/>
   </g>
   <g id="text_2">
    <g clip-path="url(#pc15eed2e1e)">
     <!-- + -->
     <g transform="translate(107.443445 29.420391) scale(0.125 -0.125)">
      <use xlink:href="#DejaVuSans-2b"/>
     </g>
    </g>
   </g>
   <g id="text_3">
    <g clip-path="url(#pc15eed2e1e)">
     <!-- $5V$ -->
     <g transform="translate(127.892 29.420391) scale(0.125 -0.125)">
      <defs>
       <path id="DejaVuSans-Oblique-56" d="M 1319 0 
L 500 4666 
L 1119 4666 
L 1797 653 
L 4063 4666 
L 4750 4666 
L 2053 0 
L 1319 0 
z
" transform="scale(0.015625)"/>
      </defs>
      <use xlink:href="#DejaVuSans-35" transform="translate(0 0.09375)"/>
      <use xlink:href="#DejaVuSans-Oblique-56" transform="translate(63.623047 0.09375)"/>
     </g>
    </g>
   </g>
   <g id="text_4">
    <g clip-path="url(#pc15eed2e1e)">
     <!-- - -->
     <g transform="translate(157.473367 29.420391) scale(0.125 -0.125)">
      <defs>
       <path id="DejaVuSans-2d" d="M 313 2009 
L 1997 2009 
L 1997 1497 
L 313 1497 
L 313 2009 
z
" transform="scale(0.015625)"/>
      </defs>
      <use xlink:href="#DejaVuSans-2d"/>
     </g>
    </g>
   </g>
   <g id="patch_9">
    <path d="M 272.757 45.025 
C 273.365641 45.025 273.949436 44.783184 274.37981 44.35281 
C 274.810184 43.922436 275.052 43.338641 275.052 42.73 
C 275.052 42.121359 274.810184 41.537564 274.37981 41.10719 
C 273.949436 40.676816 273.365641 40.435 272.757 40.435 
C 272.148359 40.435 271.564564 40.676816 271.13419 41.10719 
C 270.703816 41.537564 270.462 42.121359 270.462 42.73 
C 270.462 43.338641 270.703816 43.922436 271.13419 44.35281 
C 271.564564 44.783184 272.148359 45.025 272.757 45.025 
z
" clip-path="url(#pc15eed2e1e)" style="fill: #ffffff; stroke: #000000; stroke-width: 2; stroke-linejoin: miter"/>
   </g>
   <g id="text_5">
    <g clip-path="url(#pc15eed2e1e)">
     <!-- - -->
     <g transform="translate(226.937234 69.129219) scale(0.125 -0.125)">
      <use xlink:href="#DejaVuSans-2d"/>
     </g>
    </g>
   </g>
   <g id="text_6">
    <g clip-path="url(#pc15eed2e1e)">
     <!-- $5V$ -->
     <g transform="translate(214.822 92.079219) scale(0.125 -0.125)">
      <use xlink:href="#DejaVuSans-35" transform="translate(0 0.09375)"/>
      <use xlink:href="#DejaVuSans-Oblique-56" transform="translate(63.623047 0.09375)"/>
     </g>
    </g>
   </g>
   <g id="text_7">
    <g clip-path="url(#pc15eed2e1e)">
     <!-- + -->
     <g transform="translate(220.972391 115.029219) scale(0.125 -0.125)">
      <use xlink:href="#DejaVuSans-2b"/>
     </g>
    </g>
   </g>
   <g id="patch_10">
    <path d="M 180.957 136.825 
C 181.565641 136.825 182.149436 136.583184 182.57981 136.15281 
C 183.010184 135.722436 183.252 135.138641 183.252 134.53 
C 183.252 133.921359 183.010184 133.337564 182.57981 132.90719 
C 182.149436 132.476816 181.565641 132.235 180.957 132.235 
C 180.348359 132.235 179.764564 132.476816 179.33419 132.90719 
C 178.903816 133.337564 178.662 133.921359 178.662 134.53 
C 178.662 135.138641 178.903816 135.722436 179.33419 136.15281 
C 179.764564 136.583184 180.348359 136.825 180.957 136.825 
z
" clip-path="url(#pc15eed2e1e)" style="stroke: #000000; stroke-width: 2; stroke-linejoin: miter"/>
   </g>
   <g id="patch_11">
    <path d="M 242.157 136.825 
C 242.765641 136.825 243.349436 136.583184 243.77981 136.15281 
C 244.210184 135.722436 244.452 135.138641 244.452 134.53 
C 244.452 133.921359 244.210184 133.337564 243.77981 132.90719 
C 243.349436 132.476816 242.765641 132.235 242.157 132.235 
C 241.548359 132.235 240.964564 132.476816 240.53419 132.90719 
C 240.103816 133.337564 239.862 133.921359 239.862 134.53 
C 239.862 135.138641 240.103816 135.722436 240.53419 136.15281 
C 240.964564 136.583184 241.548359 136.825 242.157 136.825 
z
" clip-path="url(#pc15eed2e1e)" style="stroke: #000000; stroke-width: 2; stroke-linejoin: miter"/>
   </g>
   <g id="patch_12">
    <path d="M 272.757 136.825 
C 273.365641 136.825 273.949436 136.583184 274.37981 136.15281 
C 274.810184 135.722436 275.052 135.138641 275.052 134.53 
C 275.052 133.921359 274.810184 133.337564 274.37981 132.90719 
C 273.949436 132.476816 273.365641 132.235 272.757 132.235 
C 272.148359 132.235 271.564564 132.476816 271.13419 132.90719 
C 270.703816 133.337564 270.462 133.921359 270.462 134.53 
C 270.462 135.138641 270.703816 135.722436 271.13419 136.15281 
C 271.564564 136.583184 272.148359 136.825 272.757 136.825 
z
" clip-path="url(#pc15eed2e1e)" style="fill: #ffffff; stroke: #000000; stroke-width: 2; stroke-linejoin: miter"/>
   </g>
   <g id="text_8">
    <g clip-path="url(#pc15eed2e1e)">
     <!-- - -->
     <g transform="translate(270.502117 115.029219) scale(0.125 -0.125)">
      <use xlink:href="#DejaVuSans-2d"/>
     </g>
    </g>
   </g>
   <g id="text_9">
    <g clip-path="url(#pc15eed2e1e)">
     <!-- $U_a$ -->
     <g transform="translate(265.3195 92.079219) scale(0.125 -0.125)">
      <defs>
       <path id="DejaVuSans-Oblique-55" d="M 991 4666 
L 1625 4666 
L 1075 1831 
Q 1041 1641 1027 1517 
Q 1013 1394 1013 1300 
Q 1013 869 1253 645 
Q 1494 422 1959 422 
Q 2563 422 2898 753 
Q 3234 1084 3378 1831 
L 3928 4666 
L 4563 4666 
L 4000 1753 
Q 3816 809 3300 359 
Q 2784 -91 1888 -91 
Q 1188 -91 780 261 
Q 372 613 372 1216 
Q 372 1325 387 1461 
Q 403 1597 434 1753 
L 991 4666 
z
" transform="scale(0.015625)"/>
       <path id="DejaVuSans-Oblique-61" d="M 3438 1997 
L 3047 0 
L 2472 0 
L 2578 531 
Q 2325 219 2001 64 
Q 1678 -91 1281 -91 
Q 834 -91 548 182 
Q 263 456 263 884 
Q 263 1497 752 1853 
Q 1241 2209 2100 2209 
L 2900 2209 
L 2931 2363 
Q 2938 2388 2941 2417 
Q 2944 2447 2944 2509 
Q 2944 2788 2717 2942 
Q 2491 3097 2081 3097 
Q 1800 3097 1504 3025 
Q 1209 2953 897 2809 
L 997 3341 
Q 1322 3463 1633 3523 
Q 1944 3584 2234 3584 
Q 2853 3584 3176 3315 
Q 3500 3047 3500 2534 
Q 3500 2431 3484 2292 
Q 3469 2153 3438 1997 
z
M 2816 1759 
L 2241 1759 
Q 1534 1759 1195 1570 
Q 856 1381 856 984 
Q 856 709 1029 553 
Q 1203 397 1509 397 
Q 1978 397 2328 733 
Q 2678 1069 2791 1631 
L 2816 1759 
z
" transform="scale(0.015625)"/>
      </defs>
      <use xlink:href="#DejaVuSans-Oblique-55" transform="translate(0 0.09375)"/>
      <use xlink:href="#DejaVuSans-Oblique-61" transform="translate(73.193359 -16.3125) scale(0.7)"/>
     </g>
    </g>
   </g>
   <g id="text_10">
    <g clip-path="url(#pc15eed2e1e)">
     <!-- + -->
     <g transform="translate(267.519695 69.129219) scale(0.125 -0.125)">
      <use xlink:href="#DejaVuSans-2b"/>
     </g>
    </g>
   </g>
   <g id="patch_13">
    <path d="M 65.901 136.825 
C 66.509641 136.825 67.093436 136.583184 67.52381 136.15281 
C 67.954184 135.722436 68.196 135.138641 68.196 134.53 
C 68.196 133.921359 67.954184 133.337564 67.52381 132.90719 
C 67.093436 132.476816 66.509641 132.235 65.901 132.235 
C 65.292359 132.235 64.708564 132.476816 64.27819 132.90719 
C 63.847816 133.337564 63.606 133.921359 63.606 134.53 
C 63.606 135.138641 63.847816 135.722436 64.27819 136.15281 
C 64.708564 136.583184 65.292359 136.825 65.901 136.825 
z
" clip-path="url(#pc15eed2e1e)" style="stroke: #000000; stroke-width: 2; stroke-linejoin: miter"/>
   </g>
   <g id="patch_14">
    <path d="M 35.301 136.825 
C 35.909641 136.825 36.493436 136.583184 36.92381 136.15281 
C 37.354184 135.722436 37.596 135.138641 37.596 134.53 
C 37.596 133.921359 37.354184 133.337564 36.92381 132.90719 
C 36.493436 132.476816 35.909641 132.235 35.301 132.235 
C 34.692359 132.235 34.108564 132.476816 33.67819 132.90719 
C 33.247816 133.337564 33.006 133.921359 33.006 134.53 
C 33.006 135.138641 33.247816 135.722436 33.67819 136.15281 
C 34.108564 136.583184 34.692359 136.825 35.301 136.825 
z
" clip-path="url(#pc15eed2e1e)" style="fill: #ffffff; stroke: #000000; stroke-width: 2; stroke-linejoin: miter"/>
   </g>
   <g id="text_11">
    <g clip-path="url(#pc15eed2e1e)">
     <!-- - -->
     <g transform="translate(33.046117 111.969219) scale(0.125 -0.125)">
      <use xlink:href="#DejaVuSans-2d"/>
     </g>
    </g>
   </g>
   <g id="text_12">
    <g clip-path="url(#pc15eed2e1e)">
     <!-- $U_e$ -->
     <g transform="translate(27.8635 85.959219) scale(0.125 -0.125)">
      <defs>
       <path id="DejaVuSans-Oblique-65" d="M 3078 2063 
Q 3088 2113 3092 2166 
Q 3097 2219 3097 2272 
Q 3097 2653 2873 2875 
Q 2650 3097 2266 3097 
Q 1838 3097 1509 2826 
Q 1181 2556 1013 2059 
L 3078 2063 
z
M 3578 1613 
L 903 1613 
Q 884 1494 878 1425 
Q 872 1356 872 1306 
Q 872 872 1139 634 
Q 1406 397 1894 397 
Q 2269 397 2603 481 
Q 2938 566 3225 728 
L 3116 159 
Q 2806 34 2476 -28 
Q 2147 -91 1806 -91 
Q 1078 -91 686 257 
Q 294 606 294 1247 
Q 294 1794 489 2264 
Q 684 2734 1063 3103 
Q 1306 3334 1642 3459 
Q 1978 3584 2356 3584 
Q 2950 3584 3301 3228 
Q 3653 2872 3653 2272 
Q 3653 2128 3634 1964 
Q 3616 1800 3578 1613 
z
" transform="scale(0.015625)"/>
      </defs>
      <use xlink:href="#DejaVuSans-Oblique-55" transform="translate(0 0.09375)"/>
      <use xlink:href="#DejaVuSans-Oblique-65" transform="translate(73.193359 -16.3125) scale(0.7)"/>
     </g>
    </g>
   </g>
   <g id="text_13">
    <g clip-path="url(#pc15eed2e1e)">
     <!-- + -->
     <g transform="translate(30.063695 59.949219) scale(0.125 -0.125)">
      <use xlink:href="#DejaVuSans-2b"/>
     </g>
    </g>
   </g>
  </g>
 </g>
 <defs>
  <clipPath id="pc15eed2e1e">
   <rect x="7.2" y="7.2" width="289.5678" height="132.685"/>
  </clipPath>
 </defs>
</svg>