<?xml version="1.0" encoding="utf-8" standalone="no"?>
<!DOCTYPE svg PUBLIC "-//W3C//DTD SVG 1.1//EN"
  "http://www.w3.org/Graphics/SVG/1.1/DTD/svg11.dtd">
<svg xmlns:xlink="http://www.w3.org/1999/xlink" width="645.335087pt" height="214.099pt" viewBox="0 0 645.335087 214.099" xmlns="http://www.w3.org/2000/svg" version="1.1">
 <metadata>
  <rdf:RDF xmlns:dc="http://purl.org/dc/elements/1.1/" xmlns:cc="http://creativecommons.org/ns#" xmlns:rdf="http://www.w3.org/1999/02/22-rdf-syntax-ns#">
   <cc:Work>
    <dc:type rdf:resource="http://purl.org/dc/dcmitype/StillImage"/>
    <dc:date>2023-05-07T20:38:53.988891</dc:date>
    <dc:format>image/svg+xml</dc:format>
    <dc:creator>
     <cc:Agent>
      <dc:title>Matplotlib v3.7.1, https://matplotlib.org/</dc:title>
     </cc:Agent>
    </dc:creator>
   </cc:Work>
  </rdf:RDF>
 </metadata>
 <defs>
  <style type="text/css">*{stroke-linejoin: round; stroke-linecap: butt}</style>
 </defs>
 <g id="figure_1">
  <g id="patch_1">
   <path d="M 0 214.099 
L 645.335087 214.099 
L 645.335087 0 
L 0 0 
z
" style="fill: #ffffff"/>
  </g>
  <g id="axes_1">
   <g id="line2d_1">
    <path d="M 39.1566 126.88 
L 69.7566 126.88 
L 69.7566 119.23 
L 100.3566 119.23 
L 100.3566 134.53 
L 69.7566 134.53 
L 69.7566 126.88 
M 100.3566 126.88 
L 130.9566 126.88 
" clip-path="url(#pfcc38ba959)" style="fill: none; stroke: #000000; stroke-width: 2; stroke-linecap: round"/>
   </g>
   <g id="line2d_2">
    <path d="M 130.9566 126.88 
L 146.2566 126.88 
L 161.5566 126.88 
" clip-path="url(#pfcc38ba959)" style="fill: none; stroke: #000000; stroke-width: 2; stroke-linecap: round"/>
   </g>
   <g id="line2d_3">
    <path d="M 161.5566 146.005 
L 161.5566 107.755 
L 227.807543 146.005 
L 161.5566 184.255 
L 161.5566 146.005 
M 227.807543 146.005 
" clip-path="url(#pfcc38ba959)" style="fill: none; stroke: #000000; stroke-width: 2; stroke-linecap: round"/>
   </g>
   <g id="line2d_4">
    <path d="M 166.777968 126.88 
L 172.897968 126.88 
" clip-path="url(#pfcc38ba959)" style="fill: none; stroke: #000000; stroke-width: 2; stroke-linecap: round"/>
   </g>
   <g id="line2d_5">
    <path d="M 166.777968 165.13 
L 172.897968 165.13 
" clip-path="url(#pfcc38ba959)" style="fill: none; stroke: #000000; stroke-width: 2; stroke-linecap: round"/>
   </g>
   <g id="line2d_6">
    <path d="M 169.837968 168.19 
L 169.837968 162.07 
" clip-path="url(#pfcc38ba959)" style="fill: none; stroke: #000000; stroke-width: 2; stroke-linecap: round"/>
   </g>
   <g id="line2d_7">
    <path d="M 227.807543 146.005 
L 243.107543 146.005 
L 258.407543 146.005 
" clip-path="url(#pfcc38ba959)" style="fill: none; stroke: #000000; stroke-width: 2; stroke-linecap: round"/>
   </g>
   <g id="line2d_8">
    <path d="M 258.407543 146.005 
L 258.407543 115.405 
L 258.407543 84.805 
" clip-path="url(#pfcc38ba959)" style="fill: none; stroke: #000000; stroke-width: 2; stroke-linecap: round"/>
   </g>
   <g id="line2d_9">
    <path d="M 258.407543 84.805 
L 215.261543 84.805 
M 215.261543 92.455 
L 215.261543 77.155 
M 209.753543 92.455 
L 209.753543 77.155 
M 209.753543 84.805 
L 166.607543 84.805 
" clip-path="url(#pfcc38ba959)" style="fill: none; stroke: #000000; stroke-width: 2; stroke-linecap: round"/>
   </g>
   <g id="line2d_10">
    <path d="M 166.607543 84.805 
L 130.9566 84.805 
L 130.9566 126.88 
" clip-path="url(#pfcc38ba959)" style="fill: none; stroke: #000000; stroke-width: 2; stroke-linecap: round"/>
   </g>
   <g id="line2d_11">
    <path d="M 258.407543 146.005 
L 289.007543 146.005 
L 319.607543 146.005 
" clip-path="url(#pfcc38ba959)" style="fill: none; stroke: #000000; stroke-width: 2; stroke-linecap: round"/>
   </g>
   <g id="line2d_12">
    <path d="M 161.5566 165.13 
L 146.2566 165.13 
L 130.9566 165.13 
" clip-path="url(#pfcc38ba959)" style="fill: none; stroke: #000000; stroke-width: 2; stroke-linecap: round"/>
   </g>
   <g id="line2d_13">
    <path d="M 130.9566 165.13 
L 130.9566 177.37 
L 123.3066 177.37 
L 138.6066 177.37 
M 125.6016 181.042 
L 136.3116 181.042 
M 129.4266 184.714 
L 132.4866 184.714 
" clip-path="url(#pfcc38ba959)" style="fill: none; stroke: #000000; stroke-width: 2; stroke-linecap: round"/>
   </g>
   <g id="line2d_14">
    <path d="M 319.607543 146.005 
L 350.207543 146.005 
L 350.207543 138.355 
L 380.807543 138.355 
L 380.807543 153.655 
L 350.207543 153.655 
L 350.207543 146.005 
M 380.807543 146.005 
L 411.407543 146.005 
" clip-path="url(#pfcc38ba959)" style="fill: none; stroke: #000000; stroke-width: 2; stroke-linecap: round"/>
   </g>
   <g id="line2d_15">
    <path d="M 411.407543 146.005 
L 426.707543 146.005 
L 442.007543 146.005 
" clip-path="url(#pfcc38ba959)" style="fill: none; stroke: #000000; stroke-width: 2; stroke-linecap: round"/>
   </g>
   <g id="line2d_16">
    <path d="M 442.007543 165.13 
L 442.007543 126.88 
L 508.258487 165.13 
L 442.007543 203.38 
L 442.007543 165.13 
M 508.258487 165.13 
" clip-path="url(#pfcc38ba959)" style="fill: none; stroke: #000000; stroke-width: 2; stroke-linecap: round"/>
   </g>
   <g id="line2d_17">
    <path d="M 447.228911 146.005 
L 453.348911 146.005 
" clip-path="url(#pfcc38ba959)" style="fill: none; stroke: #000000; stroke-width: 2; stroke-linecap: round"/>
   </g>
   <g id="line2d_18">
    <path d="M 447.228911 184.255 
L 453.348911 184.255 
" clip-path="url(#pfcc38ba959)" style="fill: none; stroke: #000000; stroke-width: 2; stroke-linecap: round"/>
   </g>
   <g id="line2d_19">
    <path d="M 450.288911 187.315 
L 450.288911 181.195 
" clip-path="url(#pfcc38ba959)" style="fill: none; stroke: #000000; stroke-width: 2; stroke-linecap: round"/>
   </g>
   <g id="line2d_20">
    <path d="M 508.258487 165.13 
L 523.558487 165.13 
L 538.858487 165.13 
" clip-path="url(#pfcc38ba959)" style="fill: none; stroke: #000000; stroke-width: 2; stroke-linecap: round"/>
   </g>
   <g id="line2d_21">
    <path d="M 538.858487 165.13 
L 538.858487 134.53 
L 538.858487 103.93 
" clip-path="url(#pfcc38ba959)" style="fill: none; stroke: #000000; stroke-width: 2; stroke-linecap: round"/>
   </g>
   <g id="line2d_22">
    <path d="M 538.858487 103.93 
L 495.712487 103.93 
M 495.712487 111.58 
L 495.712487 96.28 
M 490.204487 111.58 
L 490.204487 96.28 
M 490.204487 103.93 
L 447.058487 103.93 
" clip-path="url(#pfcc38ba959)" style="fill: none; stroke: #000000; stroke-width: 2; stroke-linecap: round"/>
   </g>
   <g id="line2d_23">
    <path d="M 447.058487 103.93 
L 411.407543 103.93 
L 411.407543 146.005 
" clip-path="url(#pfcc38ba959)" style="fill: none; stroke: #000000; stroke-width: 2; stroke-linecap: round"/>
   </g>
   <g id="line2d_24">
    <path d="M 538.858487 103.93 
L 538.858487 73.33 
L 538.858487 42.73 
" clip-path="url(#pfcc38ba959)" style="fill: none; stroke: #000000; stroke-width: 2; stroke-linecap: round"/>
   </g>
   <g id="line2d_25">
    <path d="M 538.858487 42.73 
L 508.258487 42.73 
L 508.258487 50.38 
L 477.658487 50.38 
L 477.658487 35.08 
L 508.258487 35.08 
L 508.258487 42.73 
M 477.658487 42.73 
L 447.058487 42.73 
" clip-path="url(#pfcc38ba959)" style="fill: none; stroke: #000000; stroke-width: 2; stroke-linecap: round"/>
   </g>
   <g id="line2d_26">
    <path d="M 447.058487 42.73 
L 411.407543 42.73 
L 411.407543 146.005 
" clip-path="url(#pfcc38ba959)" style="fill: none; stroke: #000000; stroke-width: 2; stroke-linecap: round"/>
   </g>
   <g id="line2d_27">
    <path d="M 538.858487 165.13 
L 569.458487 165.13 
L 600.058487 165.13 
" clip-path="url(#pfcc38ba959)" style="fill: none; stroke: #000000; stroke-width: 2; stroke-linecap: round"/>
   </g>
   <g id="line2d_28">
    <path d="M 442.007543 184.255 
L 426.707543 184.255 
L 411.407543 184.255 
" clip-path="url(#pfcc38ba959)" style="fill: none; stroke: #000000; stroke-width: 2; stroke-linecap: round"/>
   </g>
   <g id="line2d_29">
    <path d="M 411.407543 184.255 
L 411.407543 196.495 
L 403.757543 196.495 
L 419.057543 196.495 
M 406.052543 200.167 
L 416.762543 200.167 
M 409.877543 203.839 
L 412.937543 203.839 
" clip-path="url(#pfcc38ba959)" style="fill: none; stroke: #000000; stroke-width: 2; stroke-linecap: round"/>
   </g>
   <g id="patch_2">
    <path d="M 130.9566 129.175 
C 131.565241 129.175 132.149036 128.933184 132.57941 128.50281 
C 133.009784 128.072436 133.2516 127.488641 133.2516 126.88 
C 133.2516 126.271359 133.009784 125.687564 132.57941 125.25719 
C 132.149036 124.826816 131.565241 124.585 130.9566 124.585 
C 130.347959 124.585 129.764164 124.826816 129.33379 125.25719 
C 128.903416 125.687564 128.6616 126.271359 128.6616 126.88 
C 128.6616 127.488641 128.903416 128.072436 129.33379 128.50281 
C 129.764164 128.933184 130.347959 129.175 130.9566 129.175 
z
" clip-path="url(#pfcc38ba959)" style="stroke: #000000; stroke-width: 2; stroke-linejoin: miter"/>
   </g>
   <g id="patch_3">
    <path d="M 39.1566 129.175 
C 39.765241 129.175 40.349036 128.933184 40.77941 128.50281 
C 41.209784 128.072436 41.4516 127.488641 41.4516 126.88 
C 41.4516 126.271359 41.209784 125.687564 40.77941 125.25719 
C 40.349036 124.826816 39.765241 124.585 39.1566 124.585 
C 38.547959 124.585 37.964164 124.826816 37.53379 125.25719 
C 37.103416 125.687564 36.8616 126.271359 36.8616 126.88 
C 36.8616 127.488641 37.103416 128.072436 37.53379 128.50281 
C 37.964164 128.933184 38.547959 129.175 39.1566 129.175 
z
" clip-path="url(#pfcc38ba959)" style="fill: #ffffff; stroke: #000000; stroke-width: 2; stroke-linejoin: miter"/>
   </g>
   <g id="text_1">
    <g clip-path="url(#pfcc38ba959)">
     <!-- $R_1$ -->
     <g transform="translate(77.7441 113.570391) scale(0.125 -0.125)">
      <defs>
       <path id="DejaVuSans-Oblique-52" d="M 1613 4147 
L 1294 2491 
L 2106 2491 
Q 2584 2491 2879 2755 
Q 3175 3019 3175 3444 
Q 3175 3784 2976 3965 
Q 2778 4147 2406 4147 
L 1613 4147 
z
M 2772 2241 
Q 2972 2194 3105 2009 
Q 3238 1825 3413 1275 
L 3809 0 
L 3144 0 
L 2778 1197 
Q 2638 1659 2453 1815 
Q 2269 1972 1888 1972 
L 1191 1972 
L 806 0 
L 172 0 
L 1081 4666 
L 2503 4666 
Q 3150 4666 3495 4373 
Q 3841 4081 3841 3531 
Q 3841 3044 3547 2687 
Q 3253 2331 2772 2241 
z
" transform="scale(0.015625)"/>
       <path id="DejaVuSans-31" d="M 794 531 
L 1825 531 
L 1825 4091 
L 703 3866 
L 703 4441 
L 1819 4666 
L 2450 4666 
L 2450 531 
L 3481 531 
L 3481 0 
L 794 0 
L 794 531 
z
" transform="scale(0.015625)"/>
      </defs>
      <use xlink:href="#DejaVuSans-Oblique-52" transform="translate(0 0.09375)"/>
      <use xlink:href="#DejaVuSans-31" transform="translate(69.482422 -16.3125) scale(0.7)"/>
     </g>
    </g>
   </g>
   <g id="text_2">
    <g clip-path="url(#pfcc38ba959)">
     <!-- $U_e$ -->
     <g transform="translate(18.9266 130.329219) scale(0.125 -0.125)">
      <defs>
       <path id="DejaVuSans-Oblique-55" d="M 991 4666 
L 1625 4666 
L 1075 1831 
Q 1041 1641 1027 1517 
Q 1013 1394 1013 1300 
Q 1013 869 1253 645 
Q 1494 422 1959 422 
Q 2563 422 2898 753 
Q 3234 1084 3378 1831 
L 3928 4666 
L 4563 4666 
L 4000 1753 
Q 3816 809 3300 359 
Q 2784 -91 1888 -91 
Q 1188 -91 780 261 
Q 372 613 372 1216 
Q 372 1325 387 1461 
Q 403 1597 434 1753 
L 991 4666 
z
" transform="scale(0.015625)"/>
       <path id="DejaVuSans-Oblique-65" d="M 3078 2063 
Q 3088 2113 3092 2166 
Q 3097 2219 3097 2272 
Q 3097 2653 2873 2875 
Q 2650 3097 2266 3097 
Q 1838 3097 1509 2826 
Q 1181 2556 1013 2059 
L 3078 2063 
z
M 3578 1613 
L 903 1613 
Q 884 1494 878 1425 
Q 872 1356 872 1306 
Q 872 872 1139 634 
Q 1406 397 1894 397 
Q 2269 397 2603 481 
Q 2938 566 3225 728 
L 3116 159 
Q 2806 34 2476 -28 
Q 2147 -91 1806 -91 
Q 1078 -91 686 257 
Q 294 606 294 1247 
Q 294 1794 489 2264 
Q 684 2734 1063 3103 
Q 1306 3334 1642 3459 
Q 1978 3584 2356 3584 
Q 2950 3584 3301 3228 
Q 3653 2872 3653 2272 
Q 3653 2128 3634 1964 
Q 3616 1800 3578 1613 
z
" transform="scale(0.015625)"/>
      </defs>
      <use xlink:href="#DejaVuSans-Oblique-55" transform="translate(0 0.09375)"/>
      <use xlink:href="#DejaVuSans-Oblique-65" transform="translate(73.193359 -16.3125) scale(0.7)"/>
     </g>
    </g>
   </g>
   <g id="patch_4">
    <path d="M 258.407543 148.3 
C 259.016185 148.3 259.599979 148.058184 260.030353 147.62781 
C 260.460728 147.197436 260.702543 146.613641 260.702543 146.005 
C 260.702543 145.396359 260.460728 144.812564 260.030353 144.38219 
C 259.599979 143.951816 259.016185 143.71 258.407543 143.71 
C 257.798902 143.71 257.215108 143.951816 256.784733 144.38219 
C 256.354359 144.812564 256.112543 145.396359 256.112543 146.005 
C 256.112543 146.613641 256.354359 147.197436 256.784733 147.62781 
C 257.215108 148.058184 257.798902 148.3 258.407543 148.3 
z
" clip-path="url(#pfcc38ba959)" style="stroke: #000000; stroke-width: 2; stroke-linejoin: miter"/>
   </g>
   <g id="text_3">
    <g clip-path="url(#pfcc38ba959)">
     <!-- $C$ -->
     <g transform="translate(208.132543 71.495391) scale(0.125 -0.125)">
      <defs>
       <path id="DejaVuSans-Oblique-43" d="M 4447 4306 
L 4319 3641 
Q 4019 3944 3683 4091 
Q 3347 4238 2956 4238 
Q 2422 4238 2017 3981 
Q 1613 3725 1319 3200 
Q 1131 2863 1032 2486 
Q 934 2109 934 1728 
Q 934 1091 1264 756 
Q 1594 422 2222 422 
Q 2656 422 3056 561 
Q 3456 700 3834 978 
L 3688 231 
Q 3316 72 2936 -9 
Q 2556 -91 2175 -91 
Q 1278 -91 773 396 
Q 269 884 269 1753 
Q 269 2309 461 2846 
Q 653 3384 1013 3828 
Q 1394 4300 1883 4525 
Q 2372 4750 3022 4750 
Q 3422 4750 3780 4639 
Q 4138 4528 4447 4306 
z
" transform="scale(0.015625)"/>
      </defs>
      <use xlink:href="#DejaVuSans-Oblique-43" transform="translate(0 0.78125)"/>
     </g>
    </g>
   </g>
   <g id="patch_5">
    <path d="M 319.607543 148.3 
C 320.216185 148.3 320.799979 148.058184 321.230353 147.62781 
C 321.660728 147.197436 321.902543 146.613641 321.902543 146.005 
C 321.902543 145.396359 321.660728 144.812564 321.230353 144.38219 
C 320.799979 143.951816 320.216185 143.71 319.607543 143.71 
C 318.998902 143.71 318.415108 143.951816 317.984733 144.38219 
C 317.554359 144.812564 317.312543 145.396359 317.312543 146.005 
C 317.312543 146.613641 317.554359 147.197436 317.984733 147.62781 
C 318.415108 148.058184 318.998902 148.3 319.607543 148.3 
z
" clip-path="url(#pfcc38ba959)" style="fill: #ffffff; stroke: #000000; stroke-width: 2; stroke-linejoin: miter"/>
   </g>
   <g id="patch_6">
    <path d="M 411.407543 148.3 
C 412.016185 148.3 412.599979 148.058184 413.030353 147.62781 
C 413.460728 147.197436 413.702543 146.613641 413.702543 146.005 
C 413.702543 145.396359 413.460728 144.812564 413.030353 144.38219 
C 412.599979 143.951816 412.016185 143.71 411.407543 143.71 
C 410.798902 143.71 410.215108 143.951816 409.784733 144.38219 
C 409.354359 144.812564 409.112543 145.396359 409.112543 146.005 
C 409.112543 146.613641 409.354359 147.197436 409.784733 147.62781 
C 410.215108 148.058184 410.798902 148.3 411.407543 148.3 
z
" clip-path="url(#pfcc38ba959)" style="stroke: #000000; stroke-width: 2; stroke-linejoin: miter"/>
   </g>
   <g id="patch_7">
    <path d="M 319.607543 148.3 
C 320.216185 148.3 320.799979 148.058184 321.230353 147.62781 
C 321.660728 147.197436 321.902543 146.613641 321.902543 146.005 
C 321.902543 145.396359 321.660728 144.812564 321.230353 144.38219 
C 320.799979 143.951816 320.216185 143.71 319.607543 143.71 
C 318.998902 143.71 318.415108 143.951816 317.984733 144.38219 
C 317.554359 144.812564 317.312543 145.396359 317.312543 146.005 
C 317.312543 146.613641 317.554359 147.197436 317.984733 147.62781 
C 318.415108 148.058184 318.998902 148.3 319.607543 148.3 
z
" clip-path="url(#pfcc38ba959)" style="fill: #ffffff; stroke: #000000; stroke-width: 2; stroke-linejoin: miter"/>
   </g>
   <g id="text_4">
    <g clip-path="url(#pfcc38ba959)">
     <!-- $R_2$ -->
     <g transform="translate(358.195043 132.695391) scale(0.125 -0.125)">
      <defs>
       <path id="DejaVuSans-32" d="M 1228 531 
L 3431 531 
L 3431 0 
L 469 0 
L 469 531 
Q 828 903 1448 1529 
Q 2069 2156 2228 2338 
Q 2531 2678 2651 2914 
Q 2772 3150 2772 3378 
Q 2772 3750 2511 3984 
Q 2250 4219 1831 4219 
Q 1534 4219 1204 4116 
Q 875 4013 500 3803 
L 500 4441 
Q 881 4594 1212 4672 
Q 1544 4750 1819 4750 
Q 2544 4750 2975 4387 
Q 3406 4025 3406 3419 
Q 3406 3131 3298 2873 
Q 3191 2616 2906 2266 
Q 2828 2175 2409 1742 
Q 1991 1309 1228 531 
z
" transform="scale(0.015625)"/>
      </defs>
      <use xlink:href="#DejaVuSans-Oblique-52" transform="translate(0 0.09375)"/>
      <use xlink:href="#DejaVuSans-32" transform="translate(69.482422 -16.3125) scale(0.7)"/>
     </g>
    </g>
   </g>
   <g id="patch_8">
    <path d="M 538.858487 167.425 
C 539.467128 167.425 540.050923 167.183184 540.481297 166.75281 
C 540.911671 166.322436 541.153487 165.738641 541.153487 165.13 
C 541.153487 164.521359 540.911671 163.937564 540.481297 163.50719 
C 540.050923 163.076816 539.467128 162.835 538.858487 162.835 
C 538.249846 162.835 537.666051 163.076816 537.235677 163.50719 
C 536.805302 163.937564 536.563487 164.521359 536.563487 165.13 
C 536.563487 165.738641 536.805302 166.322436 537.235677 166.75281 
C 537.666051 167.183184 538.249846 167.425 538.858487 167.425 
z
" clip-path="url(#pfcc38ba959)" style="stroke: #000000; stroke-width: 2; stroke-linejoin: miter"/>
   </g>
   <g id="text_5">
    <g clip-path="url(#pfcc38ba959)">
     <!-- $C$ -->
     <g transform="translate(488.583487 90.620391) scale(0.125 -0.125)">
      <use xlink:href="#DejaVuSans-Oblique-43" transform="translate(0 0.78125)"/>
     </g>
    </g>
   </g>
   <g id="text_6">
    <g clip-path="url(#pfcc38ba959)">
     <!-- $R_3$ -->
     <g transform="translate(485.645987 29.420391) scale(0.125 -0.125)">
      <defs>
       <path id="DejaVuSans-33" d="M 2597 2516 
Q 3050 2419 3304 2112 
Q 3559 1806 3559 1356 
Q 3559 666 3084 287 
Q 2609 -91 1734 -91 
Q 1441 -91 1130 -33 
Q 819 25 488 141 
L 488 750 
Q 750 597 1062 519 
Q 1375 441 1716 441 
Q 2309 441 2620 675 
Q 2931 909 2931 1356 
Q 2931 1769 2642 2001 
Q 2353 2234 1838 2234 
L 1294 2234 
L 1294 2753 
L 1863 2753 
Q 2328 2753 2575 2939 
Q 2822 3125 2822 3475 
Q 2822 3834 2567 4026 
Q 2313 4219 1838 4219 
Q 1578 4219 1281 4162 
Q 984 4106 628 3988 
L 628 4550 
Q 988 4650 1302 4700 
Q 1616 4750 1894 4750 
Q 2613 4750 3031 4423 
Q 3450 4097 3450 3541 
Q 3450 3153 3228 2886 
Q 3006 2619 2597 2516 
z
" transform="scale(0.015625)"/>
      </defs>
      <use xlink:href="#DejaVuSans-Oblique-52" transform="translate(0 0.09375)"/>
      <use xlink:href="#DejaVuSans-33" transform="translate(69.482422 -16.3125) scale(0.7)"/>
     </g>
    </g>
   </g>
   <g id="patch_9">
    <path d="M 600.058487 167.425 
C 600.667128 167.425 601.250923 167.183184 601.681297 166.75281 
C 602.111671 166.322436 602.353487 165.738641 602.353487 165.13 
C 602.353487 164.521359 602.111671 163.937564 601.681297 163.50719 
C 601.250923 163.076816 600.667128 162.835 600.058487 162.835 
C 599.449846 162.835 598.866051 163.076816 598.435677 163.50719 
C 598.005302 163.937564 597.763487 164.521359 597.763487 165.13 
C 597.763487 165.738641 598.005302 166.322436 598.435677 166.75281 
C 598.866051 167.183184 599.449846 167.425 600.058487 167.425 
z
" clip-path="url(#pfcc38ba959)" style="fill: #ffffff; stroke: #000000; stroke-width: 2; stroke-linejoin: miter"/>
   </g>
   <g id="text_7">
    <g clip-path="url(#pfcc38ba959)">
     <!-- $U_a$ -->
     <g transform="translate(605.413487 168.579219) scale(0.125 -0.125)">
      <defs>
       <path id="DejaVuSans-Oblique-61" d="M 3438 1997 
L 3047 0 
L 2472 0 
L 2578 531 
Q 2325 219 2001 64 
Q 1678 -91 1281 -91 
Q 834 -91 548 182 
Q 263 456 263 884 
Q 263 1497 752 1853 
Q 1241 2209 2100 2209 
L 2900 2209 
L 2931 2363 
Q 2938 2388 2941 2417 
Q 2944 2447 2944 2509 
Q 2944 2788 2717 2942 
Q 2491 3097 2081 3097 
Q 1800 3097 1504 3025 
Q 1209 2953 897 2809 
L 997 3341 
Q 1322 3463 1633 3523 
Q 1944 3584 2234 3584 
Q 2853 3584 3176 3315 
Q 3500 3047 3500 2534 
Q 3500 2431 3484 2292 
Q 3469 2153 3438 1997 
z
M 2816 1759 
L 2241 1759 
Q 1534 1759 1195 1570 
Q 856 1381 856 984 
Q 856 709 1029 553 
Q 1203 397 1509 397 
Q 1978 397 2328 733 
Q 2678 1069 2791 1631 
L 2816 1759 
z
" transform="scale(0.015625)"/>
      </defs>
      <use xlink:href="#DejaVuSans-Oblique-55" transform="translate(0 0.09375)"/>
      <use xlink:href="#DejaVuSans-Oblique-61" transform="translate(73.193359 -16.3125) scale(0.7)"/>
     </g>
    </g>
   </g>
  </g>
 </g>
 <defs>
  <clipPath id="pfcc38ba959">
   <rect x="7.2" y="7.2" width="630.935087" height="199.699"/>
  </clipPath>
 </defs>
</svg>