<?xml version="1.0" encoding="utf-8" standalone="no"?>
<!DOCTYPE svg PUBLIC "-//W3C//DTD SVG 1.1//EN"
  "http://www.w3.org/Graphics/SVG/1.1/DTD/svg11.dtd">
<svg xmlns:xlink="http://www.w3.org/1999/xlink" width="379.91pt" height="163.639656pt" viewBox="0 0 379.91 163.639656" xmlns="http://www.w3.org/2000/svg" version="1.1">
 <metadata>
  <rdf:RDF xmlns:dc="http://purl.org/dc/elements/1.1/" xmlns:cc="http://creativecommons.org/ns#" xmlns:rdf="http://www.w3.org/1999/02/22-rdf-syntax-ns#">
   <cc:Work>
    <dc:type rdf:resource="http://purl.org/dc/dcmitype/StillImage"/>
    <dc:date>2023-10-20T19:44:08.890781</dc:date>
    <dc:format>image/svg+xml</dc:format>
    <dc:creator>
     <cc:Agent>
      <dc:title>Matplotlib v3.8.0, https://matplotlib.org/</dc:title>
     </cc:Agent>
    </dc:creator>
   </cc:Work>
  </rdf:RDF>
 </metadata>
 <defs>
  <style type="text/css">*{stroke-linejoin: round; stroke-linecap: butt}</style>
 </defs>
 <g id="figure_1">
  <g id="patch_1">
   <path d="M 0 163.639656 
L 379.91 163.639656 
L 379.91 0 
L 0 0 
z
" style="fill: #ffffff"/>
  </g>
  <g id="axes_1">
   <g id="patch_2">
    <path d="M 74.225 12.997656 
L 86.825 21.997656 
L 74.225 30.997656 
L 74.225 12.997656 
z
" clip-path="url(#p6cfef45da8)" style="fill: none; stroke: #000000; stroke-width: 2; stroke-linecap: round"/>
   </g>
   <g id="patch_3">
    <path d="M 92.225 134.317656 
C 93.370677 134.317656 94.469585 133.862474 95.279701 133.052358 
C 96.089818 132.242241 96.545 131.143334 96.545 129.997656 
C 96.545 128.851979 96.089818 127.753071 95.279701 126.942955 
C 94.469585 126.132839 93.370677 125.677656 92.225 125.677656 
C 91.079323 125.677656 89.980415 126.132839 89.170299 126.942955 
C 88.360182 127.753071 87.905 128.851979 87.905 129.997656 
C 87.905 131.143334 88.360182 132.242241 89.170299 133.052358 
C 89.980415 133.862474 91.079323 134.317656 92.225 134.317656 
L 92.225 134.317656 
z
" clip-path="url(#p6cfef45da8)" style="fill: none; stroke: #000000; stroke-width: 2; stroke-linejoin: miter"/>
   </g>
   <g id="patch_4">
    <path d="M 200.225 134.317656 
C 201.370677 134.317656 202.469585 133.862474 203.279701 133.052358 
C 204.089818 132.242241 204.545 131.143334 204.545 129.997656 
C 204.545 128.851979 204.089818 127.753071 203.279701 126.942955 
C 202.469585 126.132839 201.370677 125.677656 200.225 125.677656 
C 199.079323 125.677656 197.980415 126.132839 197.170299 126.942955 
C 196.360182 127.753071 195.905 128.851979 195.905 129.997656 
C 195.905 131.143334 196.360182 132.242241 197.170299 133.052358 
C 197.980415 133.862474 199.079323 134.317656 200.225 134.317656 
L 200.225 134.317656 
z
" clip-path="url(#p6cfef45da8)" style="fill: none; stroke: #000000; stroke-width: 2; stroke-linejoin: miter"/>
   </g>
   <g id="patch_5">
    <path d="M 182.225 12.997656 
L 194.825 21.997656 
L 182.225 30.997656 
L 182.225 12.997656 
z
" clip-path="url(#p6cfef45da8)" style="fill: none; stroke: #000000; stroke-width: 2; stroke-linecap: round"/>
   </g>
   <g id="patch_6">
    <path d="M 290.225 12.997656 
L 302.825 21.997656 
L 290.225 30.997656 
L 290.225 12.997656 
z
" clip-path="url(#p6cfef45da8)" style="fill: none; stroke: #000000; stroke-width: 2; stroke-linecap: round"/>
   </g>
   <g id="line2d_1">
    <path d="M 26.525 21.997656 
L 74.225 21.997656 
M 86.825 12.997656 
L 86.825 30.997656 
M 86.825 21.997656 
L 134.525 21.997656 
" clip-path="url(#p6cfef45da8)" style="fill: none; stroke: #000000; stroke-width: 2; stroke-linecap: round"/>
   </g>
   <g id="line2d_2">
    <path d="M 134.525 21.997656 
L 134.525 72.757656 
M 143.525 72.757656 
L 125.525 72.757656 
M 143.525 79.237656 
L 125.525 79.237656 
M 134.525 79.237656 
L 134.525 129.997656 
" clip-path="url(#p6cfef45da8)" style="fill: none; stroke: #000000; stroke-width: 2; stroke-linecap: round"/>
   </g>
   <g id="line2d_3">
    <path d="M 134.525 129.997656 
L 96.545 129.997656 
M 64.505 129.997656 
L 26.525 129.997656 
" clip-path="url(#p6cfef45da8)" style="fill: none; stroke: #000000; stroke-width: 2; stroke-linecap: round"/>
   </g>
   <g id="line2d_4">
    <path d="M 64.505 147.997656 
L 64.505 111.997656 
L 87.905 129.997656 
L 64.505 147.997656 
" clip-path="url(#p6cfef45da8)" style="fill: none; stroke: #000000; stroke-width: 2; stroke-linecap: round"/>
   </g>
   <g id="line2d_5">
    <path d="M 134.525 129.997656 
L 172.505 129.997656 
M 204.545 129.997656 
L 242.525 129.997656 
" clip-path="url(#p6cfef45da8)" style="fill: none; stroke: #000000; stroke-width: 2; stroke-linecap: round"/>
   </g>
   <g id="line2d_6">
    <path d="M 172.505 111.997656 
L 195.905 129.997656 
L 172.505 147.997656 
L 172.505 111.997656 
" clip-path="url(#p6cfef45da8)" style="fill: none; stroke: #000000; stroke-width: 2; stroke-linecap: round"/>
   </g>
   <g id="line2d_7">
    <path d="M 242.525 129.997656 
L 242.525 79.237656 
M 233.525 79.237656 
L 251.525 79.237656 
M 233.525 72.757656 
L 251.525 72.757656 
M 242.525 72.757656 
L 242.525 21.997656 
" clip-path="url(#p6cfef45da8)" style="fill: none; stroke: #000000; stroke-width: 2; stroke-linecap: round"/>
   </g>
   <g id="line2d_8">
    <path d="M 134.525 21.997656 
L 182.225 21.997656 
M 194.825 12.997656 
L 194.825 30.997656 
M 194.825 21.997656 
L 242.525 21.997656 
" clip-path="url(#p6cfef45da8)" style="fill: none; stroke: #000000; stroke-width: 2; stroke-linecap: round"/>
   </g>
   <g id="line2d_9">
    <path d="M 242.525 21.997656 
L 290.225 21.997656 
M 302.825 12.997656 
L 302.825 30.997656 
M 302.825 21.997656 
L 350.525 21.997656 
" clip-path="url(#p6cfef45da8)" style="fill: none; stroke: #000000; stroke-width: 2; stroke-linecap: round"/>
   </g>
   <g id="line2d_10">
    <path d="M 350.525 21.997656 
L 350.525 72.757656 
M 359.525 72.757656 
L 341.525 72.757656 
M 359.525 79.237656 
L 341.525 79.237656 
M 350.525 79.237656 
L 350.525 129.997656 
" clip-path="url(#p6cfef45da8)" style="fill: none; stroke: #000000; stroke-width: 2; stroke-linecap: round"/>
   </g>
   <g id="line2d_11">
    <path d="M 350.525 129.997656 
L 350.525 144.397656 
L 341.525 144.397656 
L 359.525 144.397656 
M 344.225 148.717656 
L 356.825 148.717656 
M 348.725 153.037656 
L 352.325 153.037656 
" clip-path="url(#p6cfef45da8)" style="fill: none; stroke: #000000; stroke-width: 2; stroke-linecap: round"/>
   </g>
   <g id="patch_7">
    <path d="M 134.525 24.697656 
C 135.241048 24.697656 135.927866 24.413167 136.434188 23.906845 
C 136.940511 23.400522 137.225 22.713705 137.225 21.997656 
C 137.225 21.281608 136.940511 20.594791 136.434188 20.088468 
C 135.927866 19.582145 135.241048 19.297656 134.525 19.297656 
C 133.808952 19.297656 133.122134 19.582145 132.615812 20.088468 
C 132.109489 20.594791 131.825 21.281608 131.825 21.997656 
C 131.825 22.713705 132.109489 23.400522 132.615812 23.906845 
C 133.122134 24.413167 133.808952 24.697656 134.525 24.697656 
z
" clip-path="url(#p6cfef45da8)" style="stroke: #000000; stroke-width: 2; stroke-linejoin: miter"/>
   </g>
   <g id="patch_8">
    <path d="M 26.525 24.697656 
C 27.241048 24.697656 27.927866 24.413167 28.434188 23.906845 
C 28.940511 23.400522 29.225 22.713705 29.225 21.997656 
C 29.225 21.281608 28.940511 20.594791 28.434188 20.088468 
C 27.927866 19.582145 27.241048 19.297656 26.525 19.297656 
C 25.808952 19.297656 25.122134 19.582145 24.615812 20.088468 
C 24.109489 20.594791 23.825 21.281608 23.825 21.997656 
C 23.825 22.713705 24.109489 23.400522 24.615812 23.906845 
C 25.122134 24.413167 25.808952 24.697656 26.525 24.697656 
z
" clip-path="url(#p6cfef45da8)" style="fill: #ffffff; stroke: #000000; stroke-width: 2; stroke-linejoin: miter"/>
   </g>
   <g id="text_1">
    <!-- $5V$ -->
    <g transform="translate(3.6 25.446875) scale(0.125 -0.125)">
     <defs>
      <path id="DejaVuSans-35" d="M 691 4666 
L 3169 4666 
L 3169 4134 
L 1269 4134 
L 1269 2991 
Q 1406 3038 1543 3061 
Q 1681 3084 1819 3084 
Q 2600 3084 3056 2656 
Q 3513 2228 3513 1497 
Q 3513 744 3044 326 
Q 2575 -91 1722 -91 
Q 1428 -91 1123 -41 
Q 819 9 494 109 
L 494 744 
Q 775 591 1075 516 
Q 1375 441 1709 441 
Q 2250 441 2565 725 
Q 2881 1009 2881 1497 
Q 2881 1984 2565 2268 
Q 2250 2553 1709 2553 
Q 1456 2553 1204 2497 
Q 953 2441 691 2322 
L 691 4666 
z
" transform="scale(0.015625)"/>
      <path id="DejaVuSans-Oblique-56" d="M 1319 0 
L 500 4666 
L 1119 4666 
L 1797 653 
L 4063 4666 
L 4750 4666 
L 2053 0 
L 1319 0 
z
" transform="scale(0.015625)"/>
     </defs>
     <use xlink:href="#DejaVuSans-35" transform="translate(0 0.09375)"/>
     <use xlink:href="#DejaVuSans-Oblique-56" transform="translate(63.623047 0.09375)"/>
    </g>
   </g>
   <g id="patch_9">
    <path d="M 134.525 132.697656 
C 135.241048 132.697656 135.927866 132.413167 136.434188 131.906845 
C 136.940511 131.400522 137.225 130.713705 137.225 129.997656 
C 137.225 129.281608 136.940511 128.594791 136.434188 128.088468 
C 135.927866 127.582145 135.241048 127.297656 134.525 127.297656 
C 133.808952 127.297656 133.122134 127.582145 132.615812 128.088468 
C 132.109489 128.594791 131.825 129.281608 131.825 129.997656 
C 131.825 130.713705 132.109489 131.400522 132.615812 131.906845 
C 133.122134 132.413167 133.808952 132.697656 134.525 132.697656 
z
" clip-path="url(#p6cfef45da8)" style="stroke: #000000; stroke-width: 2; stroke-linejoin: miter"/>
   </g>
   <g id="text_2">
    <!-- + -->
    <g transform="translate(111.450391 53.121875) scale(0.125 -0.125)">
     <defs>
      <path id="DejaVuSans-2b" d="M 2944 4013 
L 2944 2272 
L 4684 2272 
L 4684 1741 
L 2944 1741 
L 2944 0 
L 2419 0 
L 2419 1741 
L 678 1741 
L 678 2272 
L 2419 2272 
L 2419 4013 
L 2944 4013 
z
" transform="scale(0.015625)"/>
     </defs>
     <use xlink:href="#DejaVuSans-2b"/>
    </g>
   </g>
   <g id="text_3">
    <!-- $5V$ -->
    <g transform="translate(105.3 80.796875) scale(0.125 -0.125)">
     <use xlink:href="#DejaVuSans-35" transform="translate(0 0.09375)"/>
     <use xlink:href="#DejaVuSans-Oblique-56" transform="translate(63.623047 0.09375)"/>
    </g>
   </g>
   <g id="text_4">
    <!-- - -->
    <g transform="translate(117.415234 108.471875) scale(0.125 -0.125)">
     <defs>
      <path id="DejaVuSans-2d" d="M 313 2009 
L 1997 2009 
L 1997 1497 
L 313 1497 
L 313 2009 
z
" transform="scale(0.015625)"/>
     </defs>
     <use xlink:href="#DejaVuSans-2d"/>
    </g>
   </g>
   <g id="text_5">
    <!-- $\uparrow 5V$ -->
    <g transform="translate(118.5875 145.795703) scale(0.125 -0.125)">
     <defs>
      <path id="DejaVuSans-2191" d="M 2541 4688 
L 2822 4688 
L 4047 3456 
L 3672 3081 
L 2947 3813 
L 2947 0 
L 2416 0 
L 2416 3813 
L 1684 3081 
L 1309 3456 
L 2541 4688 
z
" transform="scale(0.015625)"/>
     </defs>
     <use xlink:href="#DejaVuSans-2191" transform="translate(19.482422 0.75)"/>
     <use xlink:href="#DejaVuSans-35" transform="translate(122.753906 0.75)"/>
     <use xlink:href="#DejaVuSans-Oblique-56" transform="translate(186.376953 0.75)"/>
    </g>
   </g>
   <g id="text_6">
    <!-- $\uparrow 10V$ -->
    <g transform="translate(114.5875 15.798047) scale(0.125 -0.125)">
     <defs>
      <path id="DejaVuSans-31" d="M 794 531 
L 1825 531 
L 1825 4091 
L 703 3866 
L 703 4441 
L 1819 4666 
L 2450 4666 
L 2450 531 
L 3481 531 
L 3481 0 
L 794 0 
L 794 531 
z
" transform="scale(0.015625)"/>
      <path id="DejaVuSans-30" d="M 2034 4250 
Q 1547 4250 1301 3770 
Q 1056 3291 1056 2328 
Q 1056 1369 1301 889 
Q 1547 409 2034 409 
Q 2525 409 2770 889 
Q 3016 1369 3016 2328 
Q 3016 3291 2770 3770 
Q 2525 4250 2034 4250 
z
M 2034 4750 
Q 2819 4750 3233 4129 
Q 3647 3509 3647 2328 
Q 3647 1150 3233 529 
Q 2819 -91 2034 -91 
Q 1250 -91 836 529 
Q 422 1150 422 2328 
Q 422 3509 836 4129 
Q 1250 4750 2034 4750 
z
" transform="scale(0.015625)"/>
     </defs>
     <use xlink:href="#DejaVuSans-2191" transform="translate(19.482422 0.78125)"/>
     <use xlink:href="#DejaVuSans-31" transform="translate(122.753906 0.78125)"/>
     <use xlink:href="#DejaVuSans-30" transform="translate(186.376953 0.78125)"/>
     <use xlink:href="#DejaVuSans-Oblique-56" transform="translate(250 0.78125)"/>
    </g>
   </g>
   <g id="patch_10">
    <path d="M 26.525 132.697656 
C 27.241048 132.697656 27.927866 132.413167 28.434188 131.906845 
C 28.940511 131.400522 29.225 130.713705 29.225 129.997656 
C 29.225 129.281608 28.940511 128.594791 28.434188 128.088468 
C 27.927866 127.582145 27.241048 127.297656 26.525 127.297656 
C 25.808952 127.297656 25.122134 127.582145 24.615812 128.088468 
C 24.109489 128.594791 23.825 129.281608 23.825 129.997656 
C 23.825 130.713705 24.109489 131.400522 24.615812 131.906845 
C 25.122134 132.413167 25.808952 132.697656 26.525 132.697656 
z
" clip-path="url(#p6cfef45da8)" style="fill: #ffffff; stroke: #000000; stroke-width: 2; stroke-linejoin: miter"/>
   </g>
   <g id="text_7">
    <!-- $0V$ -->
    <g transform="translate(3.6 133.446875) scale(0.125 -0.125)">
     <use xlink:href="#DejaVuSans-30" transform="translate(0 0.78125)"/>
     <use xlink:href="#DejaVuSans-Oblique-56" transform="translate(63.623047 0.78125)"/>
    </g>
   </g>
   <g id="text_8">
    <!-- $0V$ -->
    <g transform="translate(246.125 133.446875) scale(0.125 -0.125)">
     <use xlink:href="#DejaVuSans-30" transform="translate(0 0.78125)"/>
     <use xlink:href="#DejaVuSans-Oblique-56" transform="translate(63.623047 0.78125)"/>
    </g>
   </g>
   <g id="patch_11">
    <path d="M 242.525 24.697656 
C 243.241048 24.697656 243.927866 24.413167 244.434188 23.906845 
C 244.940511 23.400522 245.225 22.713705 245.225 21.997656 
C 245.225 21.281608 244.940511 20.594791 244.434188 20.088468 
C 243.927866 19.582145 243.241048 19.297656 242.525 19.297656 
C 241.808952 19.297656 241.122134 19.582145 240.615812 20.088468 
C 240.109489 20.594791 239.825 21.281608 239.825 21.997656 
C 239.825 22.713705 240.109489 23.400522 240.615812 23.906845 
C 241.122134 24.413167 241.808952 24.697656 242.525 24.697656 
z
" clip-path="url(#p6cfef45da8)" style="stroke: #000000; stroke-width: 2; stroke-linejoin: miter"/>
   </g>
   <g id="text_9">
    <!-- - -->
    <g transform="translate(225.415234 105.771875) scale(0.125 -0.125)">
     <use xlink:href="#DejaVuSans-2d"/>
    </g>
   </g>
   <g id="text_10">
    <!-- $10V$ -->
    <g transform="translate(205.425 78.096875) scale(0.125 -0.125)">
     <use xlink:href="#DejaVuSans-31" transform="translate(0 0.78125)"/>
     <use xlink:href="#DejaVuSans-30" transform="translate(63.623047 0.78125)"/>
     <use xlink:href="#DejaVuSans-Oblique-56" transform="translate(127.246094 0.78125)"/>
    </g>
   </g>
   <g id="text_11">
    <!-- + -->
    <g transform="translate(219.450391 50.421875) scale(0.125 -0.125)">
     <use xlink:href="#DejaVuSans-2b"/>
    </g>
   </g>
   <g id="text_12">
    <!-- $10V$ -->
    <g transform="translate(230.275 13.098047) scale(0.125 -0.125)">
     <use xlink:href="#DejaVuSans-31" transform="translate(0 0.78125)"/>
     <use xlink:href="#DejaVuSans-30" transform="translate(63.623047 0.78125)"/>
     <use xlink:href="#DejaVuSans-Oblique-56" transform="translate(127.246094 0.78125)"/>
    </g>
   </g>
   <g id="patch_12">
    <path d="M 350.525 24.697656 
C 351.241048 24.697656 351.927866 24.413167 352.434188 23.906845 
C 352.940511 23.400522 353.225 22.713705 353.225 21.997656 
C 353.225 21.281608 352.940511 20.594791 352.434188 20.088468 
C 351.927866 19.582145 351.241048 19.297656 350.525 19.297656 
C 349.808952 19.297656 349.122134 19.582145 348.615812 20.088468 
C 348.109489 20.594791 347.825 21.281608 347.825 21.997656 
C 347.825 22.713705 348.109489 23.400522 348.615812 23.906845 
C 349.122134 24.413167 349.808952 24.697656 350.525 24.697656 
z
" clip-path="url(#p6cfef45da8)" style="fill: #ffffff; stroke: #000000; stroke-width: 2; stroke-linejoin: miter"/>
   </g>
   <g id="text_13">
    <!-- + -->
    <g transform="translate(327.450391 52.446875) scale(0.125 -0.125)">
     <use xlink:href="#DejaVuSans-2b"/>
    </g>
   </g>
   <g id="text_14">
    <!-- $10V$ -->
    <g transform="translate(313.425 79.446875) scale(0.125 -0.125)">
     <use xlink:href="#DejaVuSans-31" transform="translate(0 0.78125)"/>
     <use xlink:href="#DejaVuSans-30" transform="translate(63.623047 0.78125)"/>
     <use xlink:href="#DejaVuSans-Oblique-56" transform="translate(127.246094 0.78125)"/>
    </g>
   </g>
   <g id="text_15">
    <!-- - -->
    <g transform="translate(333.415234 106.446875) scale(0.125 -0.125)">
     <use xlink:href="#DejaVuSans-2d"/>
    </g>
   </g>
  </g>
 </g>
 <defs>
  <clipPath id="p6cfef45da8">
   <rect x="7.04" y="5.995656" width="369.27" height="154.044"/>
  </clipPath>
 </defs>
</svg>