<?xml version="1.0" encoding="utf-8" standalone="no"?>
<!DOCTYPE svg PUBLIC "-//W3C//DTD SVG 1.1//EN"
  "http://www.w3.org/Graphics/SVG/1.1/DTD/svg11.dtd">
<svg xmlns:xlink="http://www.w3.org/1999/xlink" width="250.74pt" height="129.564pt" viewBox="0 0 250.74 129.564" xmlns="http://www.w3.org/2000/svg" version="1.1">
 <metadata>
  <rdf:RDF xmlns:dc="http://purl.org/dc/elements/1.1/" xmlns:cc="http://creativecommons.org/ns#" xmlns:rdf="http://www.w3.org/1999/02/22-rdf-syntax-ns#">
   <cc:Work>
    <dc:type rdf:resource="http://purl.org/dc/dcmitype/StillImage"/>
    <dc:date>2023-10-20T19:44:06.617163</dc:date>
    <dc:format>image/svg+xml</dc:format>
    <dc:creator>
     <cc:Agent>
      <dc:title>Matplotlib v3.8.0, https://matplotlib.org/</dc:title>
     </cc:Agent>
    </dc:creator>
   </cc:Work>
  </rdf:RDF>
 </metadata>
 <defs>
  <style type="text/css">*{stroke-linejoin: round; stroke-linecap: butt}</style>
 </defs>
 <g id="figure_1">
  <g id="patch_1">
   <path d="M 0 129.564 
L 250.74 129.564 
L 250.74 0 
L 0 0 
z
" style="fill: #ffffff"/>
  </g>
  <g id="axes_1">
   <g id="line2d_1">
    <path d="M 17.37 25.362 
L 53.37 25.362 
M 62.01 21.762 
L 82.17 9.162 
M 89.37 25.362 
L 125.37 25.362 
" clip-path="url(#pd5996ae09f)" style="fill: none; stroke: #000000; stroke-width: 2; stroke-linecap: round"/>
   </g>
   <g id="line2d_2">
    <path d="M 125.37 25.362 
L 143.37 25.362 
L 143.37 16.362 
L 179.37 16.362 
L 179.37 34.362 
L 143.37 34.362 
L 143.37 25.362 
M 179.37 25.362 
L 197.37 25.362 
" clip-path="url(#pd5996ae09f)" style="fill: none; stroke: #000000; stroke-width: 2; stroke-linecap: round"/>
   </g>
   <g id="line2d_3">
    <path d="M 197.37 25.362 
L 197.37 58.122 
M 206.37 58.122 
L 188.37 58.122 
M 206.37 64.602 
L 188.37 64.602 
M 197.37 64.602 
L 197.37 97.362 
" clip-path="url(#pd5996ae09f)" style="fill: none; stroke: #000000; stroke-width: 2; stroke-linecap: round"/>
   </g>
   <g id="line2d_4">
    <path d="M 197.37 97.362 
L 197.37 111.762 
L 188.37 111.762 
L 206.37 111.762 
M 191.07 116.082 
L 203.67 116.082 
M 195.57 120.402 
L 199.17 120.402 
" clip-path="url(#pd5996ae09f)" style="fill: none; stroke: #000000; stroke-width: 2; stroke-linecap: round"/>
   </g>
   <g id="line2d_5">
    <path d="M 197.37 25.362 
L 215.37 25.362 
L 233.37 25.362 
" clip-path="url(#pd5996ae09f)" style="fill: none; stroke: #000000; stroke-width: 2; stroke-linecap: round"/>
   </g>
   <g id="patch_2">
    <path d="M 57.69 29.682 
C 58.835677 29.682 59.934585 29.226818 60.744701 28.416701 
C 61.554818 27.606585 62.01 26.507677 62.01 25.362 
C 62.01 24.216323 61.554818 23.117415 60.744701 22.307299 
C 59.934585 21.497182 58.835677 21.042 57.69 21.042 
C 56.544323 21.042 55.445415 21.497182 54.635299 22.307299 
C 53.825182 23.117415 53.37 24.216323 53.37 25.362 
C 53.37 26.507677 53.825182 27.606585 54.635299 28.416701 
C 55.445415 29.226818 56.544323 29.682 57.69 29.682 
z
" clip-path="url(#pd5996ae09f)" style="fill: #ffffff; stroke: #000000; stroke-width: 2; stroke-linejoin: miter"/>
   </g>
   <g id="patch_3">
    <path d="M 85.05 29.682 
C 86.195677 29.682 87.294585 29.226818 88.104701 28.416701 
C 88.914818 27.606585 89.37 26.507677 89.37 25.362 
C 89.37 24.216323 88.914818 23.117415 88.104701 22.307299 
C 87.294585 21.497182 86.195677 21.042 85.05 21.042 
C 83.904323 21.042 82.805415 21.497182 81.995299 22.307299 
C 81.185182 23.117415 80.73 24.216323 80.73 25.362 
C 80.73 26.507677 81.185182 27.606585 81.995299 28.416701 
C 82.805415 29.226818 83.904323 29.682 85.05 29.682 
z
" clip-path="url(#pd5996ae09f)" style="fill: #ffffff; stroke: #000000; stroke-width: 2; stroke-linejoin: miter"/>
   </g>
   <g id="patch_4">
    <path d="M 17.37 28.062 
C 18.086048 28.062 18.772866 27.777511 19.279188 27.271188 
C 19.785511 26.764866 20.07 26.078048 20.07 25.362 
C 20.07 24.645952 19.785511 23.959134 19.279188 23.452812 
C 18.772866 22.946489 18.086048 22.662 17.37 22.662 
C 16.653952 22.662 15.967134 22.946489 15.460812 23.452812 
C 14.954489 23.959134 14.67 24.645952 14.67 25.362 
C 14.67 26.078048 14.954489 26.764866 15.460812 27.271188 
C 15.967134 27.777511 16.653952 28.062 17.37 28.062 
z
" clip-path="url(#pd5996ae09f)" style="fill: #ffffff; stroke: #000000; stroke-width: 2; stroke-linejoin: miter"/>
   </g>
   <g id="patch_5">
    <path d="M 197.37 28.062 
C 198.086048 28.062 198.772866 27.777511 199.279188 27.271188 
C 199.785511 26.764866 200.07 26.078048 200.07 25.362 
C 200.07 24.645952 199.785511 23.959134 199.279188 23.452812 
C 198.772866 22.946489 198.086048 22.662 197.37 22.662 
C 196.653952 22.662 195.967134 22.946489 195.460812 23.452812 
C 194.954489 23.959134 194.67 24.645952 194.67 25.362 
C 194.67 26.078048 194.954489 26.764866 195.460812 27.271188 
C 195.967134 27.777511 196.653952 28.062 197.37 28.062 
z
" clip-path="url(#pd5996ae09f)" style="stroke: #000000; stroke-width: 2; stroke-linejoin: miter"/>
   </g>
   <g id="patch_6">
    <path d="M 233.37 28.062 
C 234.086048 28.062 234.772866 27.777511 235.279188 27.271188 
C 235.785511 26.764866 236.07 26.078048 236.07 25.362 
C 236.07 24.645952 235.785511 23.959134 235.279188 23.452812 
C 234.772866 22.946489 234.086048 22.662 233.37 22.662 
C 232.653952 22.662 231.967134 22.946489 231.460812 23.452812 
C 230.954489 23.959134 230.67 24.645952 230.67 25.362 
C 230.67 26.078048 230.954489 26.764866 231.460812 27.271188 
C 231.967134 27.777511 232.653952 28.062 233.37 28.062 
z
" clip-path="url(#pd5996ae09f)" style="fill: #ffffff; stroke: #000000; stroke-width: 2; stroke-linejoin: miter"/>
   </g>
  </g>
 </g>
 <defs>
  <clipPath id="pd5996ae09f">
   <rect x="3.6" y="3.6" width="243.54" height="122.364"/>
  </clipPath>
 </defs>
</svg>