<?xml version="1.0" encoding="utf-8" standalone="no"?>
<!DOCTYPE svg PUBLIC "-//W3C//DTD SVG 1.1//EN"
  "http://www.w3.org/Graphics/SVG/1.1/DTD/svg11.dtd">
<svg xmlns:xlink="http://www.w3.org/1999/xlink" width="371.667143pt" height="244.699pt" viewBox="0 0 371.667143 244.699" xmlns="http://www.w3.org/2000/svg" version="1.1">
 <metadata>
  <rdf:RDF xmlns:dc="http://purl.org/dc/elements/1.1/" xmlns:cc="http://creativecommons.org/ns#" xmlns:rdf="http://www.w3.org/1999/02/22-rdf-syntax-ns#">
   <cc:Work>
    <dc:type rdf:resource="http://purl.org/dc/dcmitype/StillImage"/>
    <dc:date>2023-05-07T16:16:42.038303</dc:date>
    <dc:format>image/svg+xml</dc:format>
    <dc:creator>
     <cc:Agent>
      <dc:title>Matplotlib v3.7.1, https://matplotlib.org/</dc:title>
     </cc:Agent>
    </dc:creator>
   </cc:Work>
  </rdf:RDF>
 </metadata>
 <defs>
  <style type="text/css">*{stroke-linejoin: round; stroke-linecap: butt}</style>
 </defs>
 <g id="figure_1">
  <g id="patch_1">
   <path d="M 0 244.699 
L 371.667143 244.699 
L 371.667143 0 
L 0 0 
z
" style="fill: #ffffff"/>
  </g>
  <g id="axes_1">
   <g id="line2d_1">
    <path d="M 45.9396 84.805 
L 76.5396 84.805 
L 76.5396 77.155 
L 107.1396 77.155 
L 107.1396 92.455 
L 76.5396 92.455 
L 76.5396 84.805 
M 107.1396 84.805 
L 137.7396 84.805 
" clip-path="url(#p34b0a09488)" style="fill: none; stroke: #000000; stroke-width: 2; stroke-linecap: round"/>
   </g>
   <g id="line2d_2">
    <path d="M 137.7396 84.805 
L 153.0396 84.805 
L 168.3396 84.805 
" clip-path="url(#p34b0a09488)" style="fill: none; stroke: #000000; stroke-width: 2; stroke-linecap: round"/>
   </g>
   <g id="line2d_3">
    <path d="M 168.3396 103.93 
L 168.3396 65.68 
L 234.590543 103.93 
L 168.3396 142.18 
L 168.3396 103.93 
M 234.590543 103.93 
" clip-path="url(#p34b0a09488)" style="fill: none; stroke: #000000; stroke-width: 2; stroke-linecap: round"/>
   </g>
   <g id="line2d_4">
    <path d="M 173.560968 84.805 
L 179.680968 84.805 
" clip-path="url(#p34b0a09488)" style="fill: none; stroke: #000000; stroke-width: 2; stroke-linecap: round"/>
   </g>
   <g id="line2d_5">
    <path d="M 173.560968 123.055 
L 179.680968 123.055 
" clip-path="url(#p34b0a09488)" style="fill: none; stroke: #000000; stroke-width: 2; stroke-linecap: round"/>
   </g>
   <g id="line2d_6">
    <path d="M 176.620968 126.115 
L 176.620968 119.995 
" clip-path="url(#p34b0a09488)" style="fill: none; stroke: #000000; stroke-width: 2; stroke-linecap: round"/>
   </g>
   <g id="line2d_7">
    <path d="M 234.590543 103.93 
L 249.890543 103.93 
L 265.190543 103.93 
" clip-path="url(#p34b0a09488)" style="fill: none; stroke: #000000; stroke-width: 2; stroke-linecap: round"/>
   </g>
   <g id="line2d_8">
    <path d="M 265.190543 103.93 
L 265.190543 73.33 
L 265.190543 42.73 
" clip-path="url(#p34b0a09488)" style="fill: none; stroke: #000000; stroke-width: 2; stroke-linecap: round"/>
   </g>
   <g id="line2d_9">
    <path d="M 265.190543 42.73 
L 234.590543 42.73 
L 234.590543 50.38 
L 203.990543 50.38 
L 203.990543 35.08 
L 234.590543 35.08 
L 234.590543 42.73 
M 203.990543 42.73 
L 173.390543 42.73 
" clip-path="url(#p34b0a09488)" style="fill: none; stroke: #000000; stroke-width: 2; stroke-linecap: round"/>
   </g>
   <g id="line2d_10">
    <path d="M 173.390543 42.73 
L 137.7396 42.73 
L 137.7396 84.805 
" clip-path="url(#p34b0a09488)" style="fill: none; stroke: #000000; stroke-width: 2; stroke-linecap: round"/>
   </g>
   <g id="line2d_11">
    <path d="M 265.190543 103.93 
L 295.790543 103.93 
L 326.390543 103.93 
" clip-path="url(#p34b0a09488)" style="fill: none; stroke: #000000; stroke-width: 2; stroke-linecap: round"/>
   </g>
   <g id="line2d_12">
    <path d="M 168.3396 123.055 
L 153.0396 123.055 
L 137.7396 123.055 
" clip-path="url(#p34b0a09488)" style="fill: none; stroke: #000000; stroke-width: 2; stroke-linecap: round"/>
   </g>
   <g id="line2d_13">
    <path d="M 137.7396 123.055 
L 137.7396 153.655 
L 145.3896 153.655 
L 145.3896 184.255 
L 130.0896 184.255 
L 130.0896 153.655 
L 137.7396 153.655 
M 137.7396 184.255 
L 137.7396 214.855 
" clip-path="url(#p34b0a09488)" style="fill: none; stroke: #000000; stroke-width: 2; stroke-linecap: round"/>
   </g>
   <g id="line2d_14">
    <path d="M 137.7396 214.855 
L 137.7396 227.095 
L 130.0896 227.095 
L 145.3896 227.095 
M 132.3846 230.767 
L 143.0946 230.767 
M 136.2096 234.439 
L 139.2696 234.439 
" clip-path="url(#p34b0a09488)" style="fill: none; stroke: #000000; stroke-width: 2; stroke-linecap: round"/>
   </g>
   <g id="line2d_15">
    <path d="M 137.7396 123.055 
L 107.1396 123.055 
L 107.1396 130.705 
L 76.5396 130.705 
L 76.5396 115.405 
L 107.1396 115.405 
L 107.1396 123.055 
M 76.5396 123.055 
L 45.9396 123.055 
" clip-path="url(#p34b0a09488)" style="fill: none; stroke: #000000; stroke-width: 2; stroke-linecap: round"/>
   </g>
   <g id="patch_2">
    <path d="M 137.7396 87.1 
C 138.348241 87.1 138.932036 86.858184 139.36241 86.42781 
C 139.792784 85.997436 140.0346 85.413641 140.0346 84.805 
C 140.0346 84.196359 139.792784 83.612564 139.36241 83.18219 
C 138.932036 82.751816 138.348241 82.51 137.7396 82.51 
C 137.130959 82.51 136.547164 82.751816 136.11679 83.18219 
C 135.686416 83.612564 135.4446 84.196359 135.4446 84.805 
C 135.4446 85.413641 135.686416 85.997436 136.11679 86.42781 
C 136.547164 86.858184 137.130959 87.1 137.7396 87.1 
z
" clip-path="url(#p34b0a09488)" style="stroke: #000000; stroke-width: 2; stroke-linejoin: miter"/>
   </g>
   <g id="patch_3">
    <path d="M 45.9396 87.1 
C 46.548241 87.1 47.132036 86.858184 47.56241 86.42781 
C 47.992784 85.997436 48.2346 85.413641 48.2346 84.805 
C 48.2346 84.196359 47.992784 83.612564 47.56241 83.18219 
C 47.132036 82.751816 46.548241 82.51 45.9396 82.51 
C 45.330959 82.51 44.747164 82.751816 44.31679 83.18219 
C 43.886416 83.612564 43.6446 84.196359 43.6446 84.805 
C 43.6446 85.413641 43.886416 85.997436 44.31679 86.42781 
C 44.747164 86.858184 45.330959 87.1 45.9396 87.1 
z
" clip-path="url(#p34b0a09488)" style="fill: #ffffff; stroke: #000000; stroke-width: 2; stroke-linejoin: miter"/>
   </g>
   <g id="text_1">
    <g clip-path="url(#p34b0a09488)">
     <!-- $R$ -->
     <g transform="translate(87.4646 71.495391) scale(0.125 -0.125)">
      <defs>
       <path id="DejaVuSans-Oblique-52" d="M 1613 4147 
L 1294 2491 
L 2106 2491 
Q 2584 2491 2879 2755 
Q 3175 3019 3175 3444 
Q 3175 3784 2976 3965 
Q 2778 4147 2406 4147 
L 1613 4147 
z
M 2772 2241 
Q 2972 2194 3105 2009 
Q 3238 1825 3413 1275 
L 3809 0 
L 3144 0 
L 2778 1197 
Q 2638 1659 2453 1815 
Q 2269 1972 1888 1972 
L 1191 1972 
L 806 0 
L 172 0 
L 1081 4666 
L 2503 4666 
Q 3150 4666 3495 4373 
Q 3841 4081 3841 3531 
Q 3841 3044 3547 2687 
Q 3253 2331 2772 2241 
z
" transform="scale(0.015625)"/>
      </defs>
      <use xlink:href="#DejaVuSans-Oblique-52" transform="translate(0 0.09375)"/>
     </g>
    </g>
   </g>
   <g id="text_2">
    <g clip-path="url(#p34b0a09488)">
     <!-- $U_{e1}$ -->
     <g transform="translate(20.0846 88.254219) scale(0.125 -0.125)">
      <defs>
       <path id="DejaVuSans-Oblique-55" d="M 991 4666 
L 1625 4666 
L 1075 1831 
Q 1041 1641 1027 1517 
Q 1013 1394 1013 1300 
Q 1013 869 1253 645 
Q 1494 422 1959 422 
Q 2563 422 2898 753 
Q 3234 1084 3378 1831 
L 3928 4666 
L 4563 4666 
L 4000 1753 
Q 3816 809 3300 359 
Q 2784 -91 1888 -91 
Q 1188 -91 780 261 
Q 372 613 372 1216 
Q 372 1325 387 1461 
Q 403 1597 434 1753 
L 991 4666 
z
" transform="scale(0.015625)"/>
       <path id="DejaVuSans-Oblique-65" d="M 3078 2063 
Q 3088 2113 3092 2166 
Q 3097 2219 3097 2272 
Q 3097 2653 2873 2875 
Q 2650 3097 2266 3097 
Q 1838 3097 1509 2826 
Q 1181 2556 1013 2059 
L 3078 2063 
z
M 3578 1613 
L 903 1613 
Q 884 1494 878 1425 
Q 872 1356 872 1306 
Q 872 872 1139 634 
Q 1406 397 1894 397 
Q 2269 397 2603 481 
Q 2938 566 3225 728 
L 3116 159 
Q 2806 34 2476 -28 
Q 2147 -91 1806 -91 
Q 1078 -91 686 257 
Q 294 606 294 1247 
Q 294 1794 489 2264 
Q 684 2734 1063 3103 
Q 1306 3334 1642 3459 
Q 1978 3584 2356 3584 
Q 2950 3584 3301 3228 
Q 3653 2872 3653 2272 
Q 3653 2128 3634 1964 
Q 3616 1800 3578 1613 
z
" transform="scale(0.015625)"/>
       <path id="DejaVuSans-31" d="M 794 531 
L 1825 531 
L 1825 4091 
L 703 3866 
L 703 4441 
L 1819 4666 
L 2450 4666 
L 2450 531 
L 3481 531 
L 3481 0 
L 794 0 
L 794 531 
z
" transform="scale(0.015625)"/>
      </defs>
      <use xlink:href="#DejaVuSans-Oblique-55" transform="translate(0 0.09375)"/>
      <use xlink:href="#DejaVuSans-Oblique-65" transform="translate(73.193359 -16.3125) scale(0.7)"/>
      <use xlink:href="#DejaVuSans-31" transform="translate(116.259766 -16.3125) scale(0.7)"/>
     </g>
    </g>
   </g>
   <g id="patch_4">
    <path d="M 265.190543 106.225 
C 265.799185 106.225 266.382979 105.983184 266.813353 105.55281 
C 267.243728 105.122436 267.485543 104.538641 267.485543 103.93 
C 267.485543 103.321359 267.243728 102.737564 266.813353 102.30719 
C 266.382979 101.876816 265.799185 101.635 265.190543 101.635 
C 264.581902 101.635 263.998108 101.876816 263.567733 102.30719 
C 263.137359 102.737564 262.895543 103.321359 262.895543 103.93 
C 262.895543 104.538641 263.137359 105.122436 263.567733 105.55281 
C 263.998108 105.983184 264.581902 106.225 265.190543 106.225 
z
" clip-path="url(#p34b0a09488)" style="stroke: #000000; stroke-width: 2; stroke-linejoin: miter"/>
   </g>
   <g id="text_3">
    <g clip-path="url(#p34b0a09488)">
     <!-- $R$ -->
     <g transform="translate(214.915543 29.420391) scale(0.125 -0.125)">
      <use xlink:href="#DejaVuSans-Oblique-52" transform="translate(0 0.09375)"/>
     </g>
    </g>
   </g>
   <g id="patch_5">
    <path d="M 326.390543 106.225 
C 326.999185 106.225 327.582979 105.983184 328.013353 105.55281 
C 328.443728 105.122436 328.685543 104.538641 328.685543 103.93 
C 328.685543 103.321359 328.443728 102.737564 328.013353 102.30719 
C 327.582979 101.876816 326.999185 101.635 326.390543 101.635 
C 325.781902 101.635 325.198108 101.876816 324.767733 102.30719 
C 324.337359 102.737564 324.095543 103.321359 324.095543 103.93 
C 324.095543 104.538641 324.337359 105.122436 324.767733 105.55281 
C 325.198108 105.983184 325.781902 106.225 326.390543 106.225 
z
" clip-path="url(#p34b0a09488)" style="fill: #ffffff; stroke: #000000; stroke-width: 2; stroke-linejoin: miter"/>
   </g>
   <g id="text_4">
    <g clip-path="url(#p34b0a09488)">
     <!-- $U_a$ -->
     <g transform="translate(331.745543 107.379219) scale(0.125 -0.125)">
      <defs>
       <path id="DejaVuSans-Oblique-61" d="M 3438 1997 
L 3047 0 
L 2472 0 
L 2578 531 
Q 2325 219 2001 64 
Q 1678 -91 1281 -91 
Q 834 -91 548 182 
Q 263 456 263 884 
Q 263 1497 752 1853 
Q 1241 2209 2100 2209 
L 2900 2209 
L 2931 2363 
Q 2938 2388 2941 2417 
Q 2944 2447 2944 2509 
Q 2944 2788 2717 2942 
Q 2491 3097 2081 3097 
Q 1800 3097 1504 3025 
Q 1209 2953 897 2809 
L 997 3341 
Q 1322 3463 1633 3523 
Q 1944 3584 2234 3584 
Q 2853 3584 3176 3315 
Q 3500 3047 3500 2534 
Q 3500 2431 3484 2292 
Q 3469 2153 3438 1997 
z
M 2816 1759 
L 2241 1759 
Q 1534 1759 1195 1570 
Q 856 1381 856 984 
Q 856 709 1029 553 
Q 1203 397 1509 397 
Q 1978 397 2328 733 
Q 2678 1069 2791 1631 
L 2816 1759 
z
" transform="scale(0.015625)"/>
      </defs>
      <use xlink:href="#DejaVuSans-Oblique-55" transform="translate(0 0.09375)"/>
      <use xlink:href="#DejaVuSans-Oblique-61" transform="translate(73.193359 -16.3125) scale(0.7)"/>
     </g>
    </g>
   </g>
   <g id="patch_6">
    <path d="M 137.7396 125.35 
C 138.348241 125.35 138.932036 125.108184 139.36241 124.67781 
C 139.792784 124.247436 140.0346 123.663641 140.0346 123.055 
C 140.0346 122.446359 139.792784 121.862564 139.36241 121.43219 
C 138.932036 121.001816 138.348241 120.76 137.7396 120.76 
C 137.130959 120.76 136.547164 121.001816 136.11679 121.43219 
C 135.686416 121.862564 135.4446 122.446359 135.4446 123.055 
C 135.4446 123.663641 135.686416 124.247436 136.11679 124.67781 
C 136.547164 125.108184 137.130959 125.35 137.7396 125.35 
z
" clip-path="url(#p34b0a09488)" style="stroke: #000000; stroke-width: 2; stroke-linejoin: miter"/>
   </g>
   <g id="text_5">
    <g clip-path="url(#p34b0a09488)">
     <!-- $R$ -->
     <g transform="translate(118.2796 172.404219) scale(0.125 -0.125)">
      <use xlink:href="#DejaVuSans-Oblique-52" transform="translate(0 0.09375)"/>
     </g>
    </g>
   </g>
   <g id="patch_7">
    <path d="M 45.9396 125.35 
C 46.548241 125.35 47.132036 125.108184 47.56241 124.67781 
C 47.992784 124.247436 48.2346 123.663641 48.2346 123.055 
C 48.2346 122.446359 47.992784 121.862564 47.56241 121.43219 
C 47.132036 121.001816 46.548241 120.76 45.9396 120.76 
C 45.330959 120.76 44.747164 121.001816 44.31679 121.43219 
C 43.886416 121.862564 43.6446 122.446359 43.6446 123.055 
C 43.6446 123.663641 43.886416 124.247436 44.31679 124.67781 
C 44.747164 125.108184 45.330959 125.35 45.9396 125.35 
z
" clip-path="url(#p34b0a09488)" style="fill: #ffffff; stroke: #000000; stroke-width: 2; stroke-linejoin: miter"/>
   </g>
   <g id="text_6">
    <g clip-path="url(#p34b0a09488)">
     <!-- $R$ -->
     <g transform="translate(86.3171 109.745391) scale(0.125 -0.125)">
      <use xlink:href="#DejaVuSans-Oblique-52" transform="translate(0 0.09375)"/>
     </g>
    </g>
   </g>
   <g id="text_7">
    <g clip-path="url(#p34b0a09488)">
     <!-- $U_{e2}$ -->
     <g transform="translate(20.0846 126.504219) scale(0.125 -0.125)">
      <defs>
       <path id="DejaVuSans-32" d="M 1228 531 
L 3431 531 
L 3431 0 
L 469 0 
L 469 531 
Q 828 903 1448 1529 
Q 2069 2156 2228 2338 
Q 2531 2678 2651 2914 
Q 2772 3150 2772 3378 
Q 2772 3750 2511 3984 
Q 2250 4219 1831 4219 
Q 1534 4219 1204 4116 
Q 875 4013 500 3803 
L 500 4441 
Q 881 4594 1212 4672 
Q 1544 4750 1819 4750 
Q 2544 4750 2975 4387 
Q 3406 4025 3406 3419 
Q 3406 3131 3298 2873 
Q 3191 2616 2906 2266 
Q 2828 2175 2409 1742 
Q 1991 1309 1228 531 
z
" transform="scale(0.015625)"/>
      </defs>
      <use xlink:href="#DejaVuSans-Oblique-55" transform="translate(0 0.09375)"/>
      <use xlink:href="#DejaVuSans-Oblique-65" transform="translate(73.193359 -16.3125) scale(0.7)"/>
      <use xlink:href="#DejaVuSans-32" transform="translate(116.259766 -16.3125) scale(0.7)"/>
     </g>
    </g>
   </g>
  </g>
 </g>
 <defs>
  <clipPath id="p34b0a09488">
   <rect x="7.2" y="7.2" width="357.267143" height="230.299"/>
  </clipPath>
 </defs>
</svg>