<?xml version="1.0" encoding="utf-8" standalone="no"?>
<!DOCTYPE svg PUBLIC "-//W3C//DTD SVG 1.1//EN"
  "http://www.w3.org/Graphics/SVG/1.1/DTD/svg11.dtd">
<svg xmlns:xlink="http://www.w3.org/1999/xlink" width="647.336515pt" height="329.742pt" viewBox="0 0 647.336515 329.742" xmlns="http://www.w3.org/2000/svg" version="1.1">
 <metadata>
  <rdf:RDF xmlns:dc="http://purl.org/dc/elements/1.1/" xmlns:cc="http://creativecommons.org/ns#" xmlns:rdf="http://www.w3.org/1999/02/22-rdf-syntax-ns#">
   <cc:Work>
    <dc:type rdf:resource="http://purl.org/dc/dcmitype/StillImage"/>
    <dc:date>2023-06-04T22:58:21.619673</dc:date>
    <dc:format>image/svg+xml</dc:format>
    <dc:creator>
     <cc:Agent>
      <dc:title>Matplotlib v3.7.1, https://matplotlib.org/</dc:title>
     </cc:Agent>
    </dc:creator>
   </cc:Work>
  </rdf:RDF>
 </metadata>
 <defs>
  <style type="text/css">*{stroke-linejoin: round; stroke-linecap: butt}</style>
 </defs>
 <g id="figure_1">
  <g id="patch_1">
   <path d="M -0 329.742 
L 647.336515 329.742 
L 647.336515 -0 
L -0 -0 
z
" style="fill: #ffffff"/>
  </g>
  <g id="axes_1">
   <g id="line2d_1">
    <path d="M 41.697114 40.761 
L 41.697114 58.761 
L 50.697114 58.761 
L 50.697114 94.761 
L 32.697114 94.761 
L 32.697114 58.761 
L 41.697114 58.761 
M 41.697114 94.761 
L 41.697114 112.761 
" clip-path="url(#pa2a6edb00b)" style="fill: none; stroke: #000000; stroke-width: 2; stroke-linecap: round"/>
   </g>
   <g id="line2d_2">
    <path d="M 41.697114 112.761 
L 41.697114 127.161 
L 32.697114 127.161 
L 50.697114 127.161 
M 35.397114 131.481 
L 47.997114 131.481 
M 39.897114 135.801 
L 43.497114 135.801 
" clip-path="url(#pa2a6edb00b)" style="fill: none; stroke: #000000; stroke-width: 2; stroke-linecap: round"/>
   </g>
   <g id="line2d_3">
    <path d="M 41.697114 40.761 
L 77.697114 40.761 
L 113.697114 40.761 
" clip-path="url(#pa2a6edb00b)" style="fill: none; stroke: #000000; stroke-width: 2; stroke-linecap: round"/>
   </g>
   <g id="line2d_4">
    <path d="M 113.697114 40.761 
L 113.697114 76.761 
L 122.697114 76.761 
L 122.697114 112.761 
L 104.697114 112.761 
L 104.697114 76.761 
L 113.697114 76.761 
M 113.697114 112.761 
L 113.697114 148.761 
" clip-path="url(#pa2a6edb00b)" style="fill: none; stroke: #000000; stroke-width: 2; stroke-linecap: round"/>
   </g>
   <g id="line2d_5">
    <path d="M 113.697114 148.761 
M 117.297114 157.401 
L 122.697114 173.961 
M 128.097114 184.761 
" clip-path="url(#pa2a6edb00b)" style="fill: none; stroke: #000000; stroke-width: 2; stroke-linecap: round"/>
   </g>
   <g id="line2d_6">
    <path d="M 113.697114 40.761 
L 131.697114 40.761 
L 131.697114 31.761 
L 167.697114 31.761 
L 167.697114 49.761 
L 131.697114 49.761 
L 131.697114 40.761 
M 167.697114 40.761 
L 185.697114 40.761 
" clip-path="url(#pa2a6edb00b)" style="fill: none; stroke: #000000; stroke-width: 2; stroke-linecap: round"/>
   </g>
   <g id="line2d_7">
    <path d="M 185.697114 40.761 
L 185.697114 76.761 
L 194.697114 76.761 
L 194.697114 112.761 
L 176.697114 112.761 
L 176.697114 76.761 
L 185.697114 76.761 
M 185.697114 112.761 
L 185.697114 148.761 
" clip-path="url(#pa2a6edb00b)" style="fill: none; stroke: #000000; stroke-width: 2; stroke-linecap: round"/>
   </g>
   <g id="line2d_8">
    <path d="M 185.697114 148.761 
M 189.297114 157.401 
L 194.697114 173.961 
M 200.097114 184.761 
" clip-path="url(#pa2a6edb00b)" style="fill: none; stroke: #000000; stroke-width: 2; stroke-linecap: round"/>
   </g>
   <g id="line2d_9">
    <path d="M 185.697114 40.761 
L 203.697114 40.761 
L 203.697114 31.761 
L 239.697114 31.761 
L 239.697114 49.761 
L 203.697114 49.761 
L 203.697114 40.761 
M 239.697114 40.761 
L 257.697114 40.761 
" clip-path="url(#pa2a6edb00b)" style="fill: none; stroke: #000000; stroke-width: 2; stroke-linecap: round"/>
   </g>
   <g id="line2d_10">
    <path d="M 257.697114 40.761 
L 257.697114 76.761 
L 266.697114 76.761 
L 266.697114 112.761 
L 248.697114 112.761 
L 248.697114 76.761 
L 257.697114 76.761 
M 257.697114 112.761 
L 257.697114 148.761 
" clip-path="url(#pa2a6edb00b)" style="fill: none; stroke: #000000; stroke-width: 2; stroke-linecap: round"/>
   </g>
   <g id="line2d_11">
    <path d="M 257.697114 148.761 
M 261.297114 157.401 
L 266.697114 173.961 
M 272.097114 184.761 
" clip-path="url(#pa2a6edb00b)" style="fill: none; stroke: #000000; stroke-width: 2; stroke-linecap: round"/>
   </g>
   <g id="line2d_12">
    <path d="M 257.697114 40.761 
L 275.697114 40.761 
L 275.697114 31.761 
L 311.697114 31.761 
L 311.697114 49.761 
L 275.697114 49.761 
L 275.697114 40.761 
M 311.697114 40.761 
L 329.697114 40.761 
" clip-path="url(#pa2a6edb00b)" style="fill: none; stroke: #000000; stroke-width: 2; stroke-linecap: round"/>
   </g>
   <g id="line2d_13">
    <path d="M 329.697114 40.761 
L 329.697114 76.761 
L 338.697114 76.761 
L 338.697114 112.761 
L 320.697114 112.761 
L 320.697114 76.761 
L 329.697114 76.761 
M 329.697114 112.761 
L 329.697114 148.761 
" clip-path="url(#pa2a6edb00b)" style="fill: none; stroke: #000000; stroke-width: 2; stroke-linecap: round"/>
   </g>
   <g id="line2d_14">
    <path d="M 329.697114 148.761 
M 333.297114 157.401 
L 338.697114 173.961 
M 344.097114 184.761 
" clip-path="url(#pa2a6edb00b)" style="fill: none; stroke: #000000; stroke-width: 2; stroke-linecap: round"/>
   </g>
   <g id="line2d_15">
    <path d="M 128.097114 180.441 
L 128.097114 198.441 
L 128.097114 216.441 
" clip-path="url(#pa2a6edb00b)" style="fill: none; stroke: #000000; stroke-width: 2; stroke-linecap: round"/>
   </g>
   <g id="line2d_16">
    <path d="M 200.097114 180.441 
L 200.097114 198.441 
L 200.097114 216.441 
" clip-path="url(#pa2a6edb00b)" style="fill: none; stroke: #000000; stroke-width: 2; stroke-linecap: round"/>
   </g>
   <g id="line2d_17">
    <path d="M 200.097114 216.441 
L 164.097114 216.441 
L 128.097114 216.441 
" clip-path="url(#pa2a6edb00b)" style="fill: none; stroke: #000000; stroke-width: 2; stroke-linecap: round"/>
   </g>
   <g id="line2d_18">
    <path d="M 272.097114 180.441 
L 272.097114 198.441 
L 272.097114 216.441 
" clip-path="url(#pa2a6edb00b)" style="fill: none; stroke: #000000; stroke-width: 2; stroke-linecap: round"/>
   </g>
   <g id="line2d_19">
    <path d="M 272.097114 216.441 
L 200.097114 216.441 
L 128.097114 216.441 
" clip-path="url(#pa2a6edb00b)" style="fill: none; stroke: #000000; stroke-width: 2; stroke-linecap: round"/>
   </g>
   <g id="line2d_20">
    <path d="M 344.097114 180.441 
L 344.097114 198.441 
L 344.097114 216.441 
" clip-path="url(#pa2a6edb00b)" style="fill: none; stroke: #000000; stroke-width: 2; stroke-linecap: round"/>
   </g>
   <g id="line2d_21">
    <path d="M 344.097114 216.441 
L 236.097114 216.441 
L 128.097114 216.441 
" clip-path="url(#pa2a6edb00b)" style="fill: none; stroke: #000000; stroke-width: 2; stroke-linecap: round"/>
   </g>
   <g id="line2d_22">
    <path d="M 128.097114 216.441 
L 92.097114 216.441 
L 56.097114 216.441 
" clip-path="url(#pa2a6edb00b)" style="fill: none; stroke: #000000; stroke-width: 2; stroke-linecap: round"/>
   </g>
   <g id="line2d_23">
    <path d="M 56.097114 216.441 
L 56.097114 234.441 
L 74.097114 252.441 
L 56.097114 270.441 
L 38.097114 252.441 
L 56.097114 234.441 
M 56.097114 270.441 
L 56.097114 288.441 
" clip-path="url(#pa2a6edb00b)" style="fill: none; stroke: #000000; stroke-width: 2; stroke-linecap: round"/>
   </g>
   <g id="line2d_24">
    <path d="M 52.497114 243.441 
L 59.697114 243.441 
" clip-path="url(#pa2a6edb00b)" style="fill: none; stroke: #000000; stroke-width: 2; stroke-linecap: round"/>
   </g>
   <g id="line2d_25">
    <path d="M 56.097114 257.841 
L 56.097114 265.041 
" clip-path="url(#pa2a6edb00b)" style="fill: none; stroke: #000000; stroke-width: 2; stroke-linecap: round"/>
   </g>
   <g id="line2d_26">
    <path d="M 52.497114 261.441 
L 59.697114 261.441 
" clip-path="url(#pa2a6edb00b)" style="fill: none; stroke: #000000; stroke-width: 2; stroke-linecap: round"/>
   </g>
   <g id="line2d_27">
    <path d="M 70.497114 227.241 
L 70.497114 288.441 
" clip-path="url(#pa2a6edb00b)" style="fill: none; stroke: #000000; stroke-width: 2; stroke-linecap: round"/>
   </g>
   <g id="patch_2">
    <path d="M 66.897114 227.241 
L 70.497114 216.441 
L 74.097114 227.241 
z
" clip-path="url(#pa2a6edb00b)"/>
   </g>
   <g id="line2d_28">
    <path d="M 56.097114 288.441 
L 56.097114 302.841 
L 47.097114 302.841 
L 65.097114 302.841 
M 49.797114 307.161 
L 62.397114 307.161 
M 54.297114 311.481 
L 57.897114 311.481 
" clip-path="url(#pa2a6edb00b)" style="fill: none; stroke: #000000; stroke-width: 2; stroke-linecap: round"/>
   </g>
   <g id="line2d_29">
    <path d="M 99.297114 180.441 
L 99.297114 216.441 
L 99.297114 252.441 
" clip-path="url(#pa2a6edb00b)" style="fill: none; stroke: #000000; stroke-width: 2; stroke-linecap: round"/>
   </g>
   <g id="line2d_30">
    <path d="M 171.297114 180.441 
L 171.297114 216.441 
L 171.297114 252.441 
" clip-path="url(#pa2a6edb00b)" style="fill: none; stroke: #000000; stroke-width: 2; stroke-linecap: round"/>
   </g>
   <g id="line2d_31">
    <path d="M 171.297114 252.441 
L 135.297114 252.441 
L 99.297114 252.441 
" clip-path="url(#pa2a6edb00b)" style="fill: none; stroke: #000000; stroke-width: 2; stroke-linecap: round"/>
   </g>
   <g id="line2d_32">
    <path d="M 243.297114 180.441 
L 243.297114 216.441 
L 243.297114 252.441 
" clip-path="url(#pa2a6edb00b)" style="fill: none; stroke: #000000; stroke-width: 2; stroke-linecap: round"/>
   </g>
   <g id="line2d_33">
    <path d="M 243.297114 252.441 
L 171.297114 252.441 
L 99.297114 252.441 
" clip-path="url(#pa2a6edb00b)" style="fill: none; stroke: #000000; stroke-width: 2; stroke-linecap: round"/>
   </g>
   <g id="line2d_34">
    <path d="M 315.297114 180.441 
L 315.297114 216.441 
L 315.297114 252.441 
" clip-path="url(#pa2a6edb00b)" style="fill: none; stroke: #000000; stroke-width: 2; stroke-linecap: round"/>
   </g>
   <g id="line2d_35">
    <path d="M 315.297114 252.441 
L 207.297114 252.441 
L 99.297114 252.441 
" clip-path="url(#pa2a6edb00b)" style="fill: none; stroke: #000000; stroke-width: 2; stroke-linecap: round"/>
   </g>
   <g id="line2d_36">
    <path d="M 99.297114 252.441 
L 99.297114 266.841 
L 90.297114 266.841 
L 108.297114 266.841 
M 92.997114 271.161 
L 105.597114 271.161 
M 97.497114 275.481 
L 101.097114 275.481 
" clip-path="url(#pa2a6edb00b)" style="fill: none; stroke: #000000; stroke-width: 2; stroke-linecap: round"/>
   </g>
   <g id="line2d_37">
    <path d="M 329.697114 40.761 
L 365.697114 40.761 
L 401.697114 40.761 
" clip-path="url(#pa2a6edb00b)" style="fill: none; stroke: #000000; stroke-width: 2; stroke-linecap: round"/>
   </g>
   <g id="line2d_38">
    <path d="M 401.697114 40.761 
L 401.697114 76.761 
L 410.697114 76.761 
L 410.697114 112.761 
L 392.697114 112.761 
L 392.697114 76.761 
L 401.697114 76.761 
M 401.697114 112.761 
L 401.697114 148.761 
" clip-path="url(#pa2a6edb00b)" style="fill: none; stroke: #000000; stroke-width: 2; stroke-linecap: round"/>
   </g>
   <g id="line2d_39">
    <path d="M 401.697114 148.761 
L 401.697114 163.161 
L 392.697114 163.161 
L 410.697114 163.161 
M 395.397114 167.481 
L 407.997114 167.481 
M 399.897114 171.801 
L 403.497114 171.801 
" clip-path="url(#pa2a6edb00b)" style="fill: none; stroke: #000000; stroke-width: 2; stroke-linecap: round"/>
   </g>
   <g id="line2d_40">
    <path d="M 401.697114 40.761 
L 428.697114 40.761 
L 455.697114 40.761 
" clip-path="url(#pa2a6edb00b)" style="fill: none; stroke: #000000; stroke-width: 2; stroke-linecap: round"/>
   </g>
   <g id="line2d_41">
    <path d="M 455.697114 63.261 
L 455.697114 108.261 
L 533.639401 63.261 
L 455.697114 18.261 
L 455.697114 63.261 
M 533.639401 63.261 
" clip-path="url(#pa2a6edb00b)" style="fill: none; stroke: #000000; stroke-width: 2; stroke-linecap: round"/>
   </g>
   <g id="line2d_42">
    <path d="M 461.8399 85.761 
L 469.0399 85.761 
" clip-path="url(#pa2a6edb00b)" style="fill: none; stroke: #000000; stroke-width: 2; stroke-linecap: round"/>
   </g>
   <g id="line2d_43">
    <path d="M 461.8399 40.761 
L 469.0399 40.761 
" clip-path="url(#pa2a6edb00b)" style="fill: none; stroke: #000000; stroke-width: 2; stroke-linecap: round"/>
   </g>
   <g id="line2d_44">
    <path d="M 465.4399 37.161 
L 465.4399 44.361 
" clip-path="url(#pa2a6edb00b)" style="fill: none; stroke: #000000; stroke-width: 2; stroke-linecap: round"/>
   </g>
   <g id="line2d_45">
    <path d="M 533.639401 63.261 
L 551.639401 63.261 
L 569.639401 63.261 
" clip-path="url(#pa2a6edb00b)" style="fill: none; stroke: #000000; stroke-width: 2; stroke-linecap: round"/>
   </g>
   <g id="line2d_46">
    <path d="M 569.639401 63.261 
L 569.639401 90.261 
L 578.639401 90.261 
L 578.639401 126.261 
L 560.639401 126.261 
L 560.639401 90.261 
L 569.639401 90.261 
M 569.639401 126.261 
L 569.639401 153.261 
" clip-path="url(#pa2a6edb00b)" style="fill: none; stroke: #000000; stroke-width: 2; stroke-linecap: round"/>
   </g>
   <g id="line2d_47">
    <path d="M 569.639401 153.261 
L 497.639401 153.261 
L 425.639401 153.261 
" clip-path="url(#pa2a6edb00b)" style="fill: none; stroke: #000000; stroke-width: 2; stroke-linecap: round"/>
   </g>
   <g id="line2d_48">
    <path d="M 425.639401 153.261 
L 425.639401 85.761 
L 455.697114 85.761 
" clip-path="url(#pa2a6edb00b)" style="fill: none; stroke: #000000; stroke-width: 2; stroke-linecap: round"/>
   </g>
   <g id="line2d_49">
    <path d="M 569.639401 153.261 
L 569.639401 180.261 
L 578.639401 180.261 
L 578.639401 216.261 
L 560.639401 216.261 
L 560.639401 180.261 
L 569.639401 180.261 
M 569.639401 216.261 
L 569.639401 243.261 
" clip-path="url(#pa2a6edb00b)" style="fill: none; stroke: #000000; stroke-width: 2; stroke-linecap: round"/>
   </g>
   <g id="line2d_50">
    <path d="M 569.639401 243.261 
L 569.639401 257.661 
L 560.639401 257.661 
L 578.639401 257.661 
M 563.339401 261.981 
L 575.939401 261.981 
M 567.839401 266.301 
L 571.439401 266.301 
" clip-path="url(#pa2a6edb00b)" style="fill: none; stroke: #000000; stroke-width: 2; stroke-linecap: round"/>
   </g>
   <g id="line2d_51">
    <path d="M 569.639401 63.261 
L 587.639401 63.261 
L 605.639401 63.261 
" clip-path="url(#pa2a6edb00b)" style="fill: none; stroke: #000000; stroke-width: 2; stroke-linecap: round"/>
   </g>
   <g id="line2d_52">
    <path d="M 605.639401 171.261 
L 605.639401 185.661 
L 596.639401 185.661 
L 614.639401 185.661 
M 599.339401 189.981 
L 611.939401 189.981 
M 603.839401 194.301 
L 607.439401 194.301 
" clip-path="url(#pa2a6edb00b)" style="fill: none; stroke: #000000; stroke-width: 2; stroke-linecap: round"/>
   </g>
   <g id="text_1">
    <!-- $2R$ -->
    <g transform="translate(12.347114 80.210219) scale(0.125 -0.125)">
     <defs>
      <path id="DejaVuSans-32" d="M 1228 531 
L 3431 531 
L 3431 0 
L 469 0 
L 469 531 
Q 828 903 1448 1529 
Q 2069 2156 2228 2338 
Q 2531 2678 2651 2914 
Q 2772 3150 2772 3378 
Q 2772 3750 2511 3984 
Q 2250 4219 1831 4219 
Q 1534 4219 1204 4116 
Q 875 4013 500 3803 
L 500 4441 
Q 881 4594 1212 4672 
Q 1544 4750 1819 4750 
Q 2544 4750 2975 4387 
Q 3406 4025 3406 3419 
Q 3406 3131 3298 2873 
Q 3191 2616 2906 2266 
Q 2828 2175 2409 1742 
Q 1991 1309 1228 531 
z
" transform="scale(0.015625)"/>
      <path id="DejaVuSans-Oblique-52" d="M 1613 4147 
L 1294 2491 
L 2106 2491 
Q 2584 2491 2879 2755 
Q 3175 3019 3175 3444 
Q 3175 3784 2976 3965 
Q 2778 4147 2406 4147 
L 1613 4147 
z
M 2772 2241 
Q 2972 2194 3105 2009 
Q 3238 1825 3413 1275 
L 3809 0 
L 3144 0 
L 2778 1197 
Q 2638 1659 2453 1815 
Q 2269 1972 1888 1972 
L 1191 1972 
L 806 0 
L 172 0 
L 1081 4666 
L 2503 4666 
Q 3150 4666 3495 4373 
Q 3841 4081 3841 3531 
Q 3841 3044 3547 2687 
Q 3253 2331 2772 2241 
z
" transform="scale(0.015625)"/>
     </defs>
     <use xlink:href="#DejaVuSans-32" transform="translate(0 0.78125)"/>
     <use xlink:href="#DejaVuSans-Oblique-52" transform="translate(63.623047 0.78125)"/>
    </g>
   </g>
   <g id="patch_3">
    <path d="M 113.697114 43.461 
C 114.413163 43.461 115.09998 43.176511 115.606303 42.670188 
C 116.112625 42.163866 116.397114 41.477048 116.397114 40.761 
C 116.397114 40.044952 116.112625 39.358134 115.606303 38.851812 
C 115.09998 38.345489 114.413163 38.061 113.697114 38.061 
C 112.981066 38.061 112.294249 38.345489 111.787926 38.851812 
C 111.281603 39.358134 110.997114 40.044952 110.997114 40.761 
C 110.997114 41.477048 111.281603 42.163866 111.787926 42.670188 
C 112.294249 43.176511 112.981066 43.461 113.697114 43.461 
z
" clip-path="url(#pa2a6edb00b)" style="stroke: #000000; stroke-width: 2; stroke-linejoin: miter"/>
   </g>
   <g id="text_2">
    <!-- $2R$ -->
    <g transform="translate(84.347114 98.210219) scale(0.125 -0.125)">
     <use xlink:href="#DejaVuSans-32" transform="translate(0 0.78125)"/>
     <use xlink:href="#DejaVuSans-Oblique-52" transform="translate(63.623047 0.78125)"/>
    </g>
   </g>
   <g id="patch_4">
    <path d="M 113.697114 157.401 
C 114.842792 157.401 115.941699 156.945818 116.751816 156.135701 
C 117.561932 155.325585 118.017114 154.226677 118.017114 153.081 
C 118.017114 151.935323 117.561932 150.836415 116.751816 150.026299 
C 115.941699 149.216182 114.842792 148.761 113.697114 148.761 
C 112.551437 148.761 111.452529 149.216182 110.642413 150.026299 
C 109.832297 150.836415 109.377114 151.935323 109.377114 153.081 
C 109.377114 154.226677 109.832297 155.325585 110.642413 156.135701 
C 111.452529 156.945818 112.551437 157.401 113.697114 157.401 
z
" clip-path="url(#pa2a6edb00b)" style="fill: #ffffff; stroke: #000000; stroke-width: 2; stroke-linejoin: miter"/>
   </g>
   <g id="patch_5">
    <path d="M 99.297114 184.761 
C 100.442792 184.761 101.541699 184.305818 102.351816 183.495701 
C 103.161932 182.685585 103.617114 181.586677 103.617114 180.441 
C 103.617114 179.295323 103.161932 178.196415 102.351816 177.386299 
C 101.541699 176.576182 100.442792 176.121 99.297114 176.121 
C 98.151437 176.121 97.052529 176.576182 96.242413 177.386299 
C 95.432297 178.196415 94.977114 179.295323 94.977114 180.441 
C 94.977114 181.586677 95.432297 182.685585 96.242413 183.495701 
C 97.052529 184.305818 98.151437 184.761 99.297114 184.761 
z
" clip-path="url(#pa2a6edb00b)" style="fill: #ffffff; stroke: #000000; stroke-width: 2; stroke-linejoin: miter"/>
   </g>
   <g id="patch_6">
    <path d="M 128.097114 184.761 
C 129.242792 184.761 130.341699 184.305818 131.151816 183.495701 
C 131.961932 182.685585 132.417114 181.586677 132.417114 180.441 
C 132.417114 179.295323 131.961932 178.196415 131.151816 177.386299 
C 130.341699 176.576182 129.242792 176.121 128.097114 176.121 
C 126.951437 176.121 125.852529 176.576182 125.042413 177.386299 
C 124.232297 178.196415 123.777114 179.295323 123.777114 180.441 
C 123.777114 181.586677 124.232297 182.685585 125.042413 183.495701 
C 125.852529 184.305818 126.951437 184.761 128.097114 184.761 
z
" clip-path="url(#pa2a6edb00b)" style="fill: #ffffff; stroke: #000000; stroke-width: 2; stroke-linejoin: miter"/>
   </g>
   <g id="text_3">
    <!-- $Z_0$ -->
    <g transform="translate(76.877114 170.210219) scale(0.125 -0.125)">
     <defs>
      <path id="DejaVuSans-Oblique-5a" d="M 838 4666 
L 4500 4666 
L 4409 4184 
L 794 531 
L 3769 531 
L 3669 0 
L -141 0 
L -50 481 
L 3566 4134 
L 738 4134 
L 838 4666 
z
" transform="scale(0.015625)"/>
      <path id="DejaVuSans-30" d="M 2034 4250 
Q 1547 4250 1301 3770 
Q 1056 3291 1056 2328 
Q 1056 1369 1301 889 
Q 1547 409 2034 409 
Q 2525 409 2770 889 
Q 3016 1369 3016 2328 
Q 3016 3291 2770 3770 
Q 2525 4250 2034 4250 
z
M 2034 4750 
Q 2819 4750 3233 4129 
Q 3647 3509 3647 2328 
Q 3647 1150 3233 529 
Q 2819 -91 2034 -91 
Q 1250 -91 836 529 
Q 422 1150 422 2328 
Q 422 3509 836 4129 
Q 1250 4750 2034 4750 
z
" transform="scale(0.015625)"/>
     </defs>
     <use xlink:href="#DejaVuSans-Oblique-5a" transform="translate(0 0.09375)"/>
     <use xlink:href="#DejaVuSans-30" transform="translate(68.505859 -16.3125) scale(0.7)"/>
    </g>
   </g>
   <g id="patch_7">
    <path d="M 185.697114 43.461 
C 186.413163 43.461 187.09998 43.176511 187.606303 42.670188 
C 188.112625 42.163866 188.397114 41.477048 188.397114 40.761 
C 188.397114 40.044952 188.112625 39.358134 187.606303 38.851812 
C 187.09998 38.345489 186.413163 38.061 185.697114 38.061 
C 184.981066 38.061 184.294249 38.345489 183.787926 38.851812 
C 183.281603 39.358134 182.997114 40.044952 182.997114 40.761 
C 182.997114 41.477048 183.281603 42.163866 183.787926 42.670188 
C 184.294249 43.176511 184.981066 43.461 185.697114 43.461 
z
" clip-path="url(#pa2a6edb00b)" style="stroke: #000000; stroke-width: 2; stroke-linejoin: miter"/>
   </g>
   <g id="text_4">
    <!-- R -->
    <g transform="translate(146.704341 25.561391) scale(0.125 -0.125)">
     <defs>
      <path id="DejaVuSans-52" d="M 2841 2188 
Q 3044 2119 3236 1894 
Q 3428 1669 3622 1275 
L 4263 0 
L 3584 0 
L 2988 1197 
Q 2756 1666 2539 1819 
Q 2322 1972 1947 1972 
L 1259 1972 
L 1259 0 
L 628 0 
L 628 4666 
L 2053 4666 
Q 2853 4666 3247 4331 
Q 3641 3997 3641 3322 
Q 3641 2881 3436 2590 
Q 3231 2300 2841 2188 
z
M 1259 4147 
L 1259 2491 
L 2053 2491 
Q 2509 2491 2742 2702 
Q 2975 2913 2975 3322 
Q 2975 3731 2742 3939 
Q 2509 4147 2053 4147 
L 1259 4147 
z
" transform="scale(0.015625)"/>
     </defs>
     <use xlink:href="#DejaVuSans-52"/>
    </g>
   </g>
   <g id="text_5">
    <!-- $2R$ -->
    <g transform="translate(156.347114 98.210219) scale(0.125 -0.125)">
     <use xlink:href="#DejaVuSans-32" transform="translate(0 0.78125)"/>
     <use xlink:href="#DejaVuSans-Oblique-52" transform="translate(63.623047 0.78125)"/>
    </g>
   </g>
   <g id="patch_8">
    <path d="M 185.697114 157.401 
C 186.842792 157.401 187.941699 156.945818 188.751816 156.135701 
C 189.561932 155.325585 190.017114 154.226677 190.017114 153.081 
C 190.017114 151.935323 189.561932 150.836415 188.751816 150.026299 
C 187.941699 149.216182 186.842792 148.761 185.697114 148.761 
C 184.551437 148.761 183.452529 149.216182 182.642413 150.026299 
C 181.832297 150.836415 181.377114 151.935323 181.377114 153.081 
C 181.377114 154.226677 181.832297 155.325585 182.642413 156.135701 
C 183.452529 156.945818 184.551437 157.401 185.697114 157.401 
z
" clip-path="url(#pa2a6edb00b)" style="fill: #ffffff; stroke: #000000; stroke-width: 2; stroke-linejoin: miter"/>
   </g>
   <g id="patch_9">
    <path d="M 171.297114 184.761 
C 172.442792 184.761 173.541699 184.305818 174.351816 183.495701 
C 175.161932 182.685585 175.617114 181.586677 175.617114 180.441 
C 175.617114 179.295323 175.161932 178.196415 174.351816 177.386299 
C 173.541699 176.576182 172.442792 176.121 171.297114 176.121 
C 170.151437 176.121 169.052529 176.576182 168.242413 177.386299 
C 167.432297 178.196415 166.977114 179.295323 166.977114 180.441 
C 166.977114 181.586677 167.432297 182.685585 168.242413 183.495701 
C 169.052529 184.305818 170.151437 184.761 171.297114 184.761 
z
" clip-path="url(#pa2a6edb00b)" style="fill: #ffffff; stroke: #000000; stroke-width: 2; stroke-linejoin: miter"/>
   </g>
   <g id="patch_10">
    <path d="M 200.097114 184.761 
C 201.242792 184.761 202.341699 184.305818 203.151816 183.495701 
C 203.961932 182.685585 204.417114 181.586677 204.417114 180.441 
C 204.417114 179.295323 203.961932 178.196415 203.151816 177.386299 
C 202.341699 176.576182 201.242792 176.121 200.097114 176.121 
C 198.951437 176.121 197.852529 176.576182 197.042413 177.386299 
C 196.232297 178.196415 195.777114 179.295323 195.777114 180.441 
C 195.777114 181.586677 196.232297 182.685585 197.042413 183.495701 
C 197.852529 184.305818 198.951437 184.761 200.097114 184.761 
z
" clip-path="url(#pa2a6edb00b)" style="fill: #ffffff; stroke: #000000; stroke-width: 2; stroke-linejoin: miter"/>
   </g>
   <g id="text_6">
    <!-- $Z_1$ -->
    <g transform="translate(148.877114 170.210219) scale(0.125 -0.125)">
     <defs>
      <path id="DejaVuSans-31" d="M 794 531 
L 1825 531 
L 1825 4091 
L 703 3866 
L 703 4441 
L 1819 4666 
L 2450 4666 
L 2450 531 
L 3481 531 
L 3481 0 
L 794 0 
L 794 531 
z
" transform="scale(0.015625)"/>
     </defs>
     <use xlink:href="#DejaVuSans-Oblique-5a" transform="translate(0 0.09375)"/>
     <use xlink:href="#DejaVuSans-31" transform="translate(68.505859 -16.3125) scale(0.7)"/>
    </g>
   </g>
   <g id="patch_11">
    <path d="M 257.697114 43.461 
C 258.413163 43.461 259.09998 43.176511 259.606303 42.670188 
C 260.112625 42.163866 260.397114 41.477048 260.397114 40.761 
C 260.397114 40.044952 260.112625 39.358134 259.606303 38.851812 
C 259.09998 38.345489 258.413163 38.061 257.697114 38.061 
C 256.981066 38.061 256.294249 38.345489 255.787926 38.851812 
C 255.281603 39.358134 254.997114 40.044952 254.997114 40.761 
C 254.997114 41.477048 255.281603 42.163866 255.787926 42.670188 
C 256.294249 43.176511 256.981066 43.461 257.697114 43.461 
z
" clip-path="url(#pa2a6edb00b)" style="stroke: #000000; stroke-width: 2; stroke-linejoin: miter"/>
   </g>
   <g id="text_7">
    <!-- R -->
    <g transform="translate(218.704341 25.561391) scale(0.125 -0.125)">
     <use xlink:href="#DejaVuSans-52"/>
    </g>
   </g>
   <g id="text_8">
    <!-- $2R$ -->
    <g transform="translate(228.347114 98.210219) scale(0.125 -0.125)">
     <use xlink:href="#DejaVuSans-32" transform="translate(0 0.78125)"/>
     <use xlink:href="#DejaVuSans-Oblique-52" transform="translate(63.623047 0.78125)"/>
    </g>
   </g>
   <g id="patch_12">
    <path d="M 257.697114 157.401 
C 258.842792 157.401 259.941699 156.945818 260.751816 156.135701 
C 261.561932 155.325585 262.017114 154.226677 262.017114 153.081 
C 262.017114 151.935323 261.561932 150.836415 260.751816 150.026299 
C 259.941699 149.216182 258.842792 148.761 257.697114 148.761 
C 256.551437 148.761 255.452529 149.216182 254.642413 150.026299 
C 253.832297 150.836415 253.377114 151.935323 253.377114 153.081 
C 253.377114 154.226677 253.832297 155.325585 254.642413 156.135701 
C 255.452529 156.945818 256.551437 157.401 257.697114 157.401 
z
" clip-path="url(#pa2a6edb00b)" style="fill: #ffffff; stroke: #000000; stroke-width: 2; stroke-linejoin: miter"/>
   </g>
   <g id="patch_13">
    <path d="M 243.297114 184.761 
C 244.442792 184.761 245.541699 184.305818 246.351816 183.495701 
C 247.161932 182.685585 247.617114 181.586677 247.617114 180.441 
C 247.617114 179.295323 247.161932 178.196415 246.351816 177.386299 
C 245.541699 176.576182 244.442792 176.121 243.297114 176.121 
C 242.151437 176.121 241.052529 176.576182 240.242413 177.386299 
C 239.432297 178.196415 238.977114 179.295323 238.977114 180.441 
C 238.977114 181.586677 239.432297 182.685585 240.242413 183.495701 
C 241.052529 184.305818 242.151437 184.761 243.297114 184.761 
z
" clip-path="url(#pa2a6edb00b)" style="fill: #ffffff; stroke: #000000; stroke-width: 2; stroke-linejoin: miter"/>
   </g>
   <g id="patch_14">
    <path d="M 272.097114 184.761 
C 273.242792 184.761 274.341699 184.305818 275.151816 183.495701 
C 275.961932 182.685585 276.417114 181.586677 276.417114 180.441 
C 276.417114 179.295323 275.961932 178.196415 275.151816 177.386299 
C 274.341699 176.576182 273.242792 176.121 272.097114 176.121 
C 270.951437 176.121 269.852529 176.576182 269.042413 177.386299 
C 268.232297 178.196415 267.777114 179.295323 267.777114 180.441 
C 267.777114 181.586677 268.232297 182.685585 269.042413 183.495701 
C 269.852529 184.305818 270.951437 184.761 272.097114 184.761 
z
" clip-path="url(#pa2a6edb00b)" style="fill: #ffffff; stroke: #000000; stroke-width: 2; stroke-linejoin: miter"/>
   </g>
   <g id="text_9">
    <!-- $Z_2$ -->
    <g transform="translate(220.877114 170.210219) scale(0.125 -0.125)">
     <use xlink:href="#DejaVuSans-Oblique-5a" transform="translate(0 0.09375)"/>
     <use xlink:href="#DejaVuSans-32" transform="translate(68.505859 -16.3125) scale(0.7)"/>
    </g>
   </g>
   <g id="patch_15">
    <path d="M 329.697114 43.461 
C 330.413163 43.461 331.09998 43.176511 331.606303 42.670188 
C 332.112625 42.163866 332.397114 41.477048 332.397114 40.761 
C 332.397114 40.044952 332.112625 39.358134 331.606303 38.851812 
C 331.09998 38.345489 330.413163 38.061 329.697114 38.061 
C 328.981066 38.061 328.294249 38.345489 327.787926 38.851812 
C 327.281603 39.358134 326.997114 40.044952 326.997114 40.761 
C 326.997114 41.477048 327.281603 42.163866 327.787926 42.670188 
C 328.294249 43.176511 328.981066 43.461 329.697114 43.461 
z
" clip-path="url(#pa2a6edb00b)" style="stroke: #000000; stroke-width: 2; stroke-linejoin: miter"/>
   </g>
   <g id="text_10">
    <!-- R -->
    <g transform="translate(290.704341 25.561391) scale(0.125 -0.125)">
     <use xlink:href="#DejaVuSans-52"/>
    </g>
   </g>
   <g id="text_11">
    <!-- $2R$ -->
    <g transform="translate(300.347114 98.210219) scale(0.125 -0.125)">
     <use xlink:href="#DejaVuSans-32" transform="translate(0 0.78125)"/>
     <use xlink:href="#DejaVuSans-Oblique-52" transform="translate(63.623047 0.78125)"/>
    </g>
   </g>
   <g id="patch_16">
    <path d="M 329.697114 157.401 
C 330.842792 157.401 331.941699 156.945818 332.751816 156.135701 
C 333.561932 155.325585 334.017114 154.226677 334.017114 153.081 
C 334.017114 151.935323 333.561932 150.836415 332.751816 150.026299 
C 331.941699 149.216182 330.842792 148.761 329.697114 148.761 
C 328.551437 148.761 327.452529 149.216182 326.642413 150.026299 
C 325.832297 150.836415 325.377114 151.935323 325.377114 153.081 
C 325.377114 154.226677 325.832297 155.325585 326.642413 156.135701 
C 327.452529 156.945818 328.551437 157.401 329.697114 157.401 
z
" clip-path="url(#pa2a6edb00b)" style="fill: #ffffff; stroke: #000000; stroke-width: 2; stroke-linejoin: miter"/>
   </g>
   <g id="patch_17">
    <path d="M 315.297114 184.761 
C 316.442792 184.761 317.541699 184.305818 318.351816 183.495701 
C 319.161932 182.685585 319.617114 181.586677 319.617114 180.441 
C 319.617114 179.295323 319.161932 178.196415 318.351816 177.386299 
C 317.541699 176.576182 316.442792 176.121 315.297114 176.121 
C 314.151437 176.121 313.052529 176.576182 312.242413 177.386299 
C 311.432297 178.196415 310.977114 179.295323 310.977114 180.441 
C 310.977114 181.586677 311.432297 182.685585 312.242413 183.495701 
C 313.052529 184.305818 314.151437 184.761 315.297114 184.761 
z
" clip-path="url(#pa2a6edb00b)" style="fill: #ffffff; stroke: #000000; stroke-width: 2; stroke-linejoin: miter"/>
   </g>
   <g id="patch_18">
    <path d="M 344.097114 184.761 
C 345.242792 184.761 346.341699 184.305818 347.151816 183.495701 
C 347.961932 182.685585 348.417114 181.586677 348.417114 180.441 
C 348.417114 179.295323 347.961932 178.196415 347.151816 177.386299 
C 346.341699 176.576182 345.242792 176.121 344.097114 176.121 
C 342.951437 176.121 341.852529 176.576182 341.042413 177.386299 
C 340.232297 178.196415 339.777114 179.295323 339.777114 180.441 
C 339.777114 181.586677 340.232297 182.685585 341.042413 183.495701 
C 341.852529 184.305818 342.951437 184.761 344.097114 184.761 
z
" clip-path="url(#pa2a6edb00b)" style="fill: #ffffff; stroke: #000000; stroke-width: 2; stroke-linejoin: miter"/>
   </g>
   <g id="text_12">
    <!-- $Z_3$ -->
    <g transform="translate(292.877114 170.210219) scale(0.125 -0.125)">
     <defs>
      <path id="DejaVuSans-33" d="M 2597 2516 
Q 3050 2419 3304 2112 
Q 3559 1806 3559 1356 
Q 3559 666 3084 287 
Q 2609 -91 1734 -91 
Q 1441 -91 1130 -33 
Q 819 25 488 141 
L 488 750 
Q 750 597 1062 519 
Q 1375 441 1716 441 
Q 2309 441 2620 675 
Q 2931 909 2931 1356 
Q 2931 1769 2642 2001 
Q 2353 2234 1838 2234 
L 1294 2234 
L 1294 2753 
L 1863 2753 
Q 2328 2753 2575 2939 
Q 2822 3125 2822 3475 
Q 2822 3834 2567 4026 
Q 2313 4219 1838 4219 
Q 1578 4219 1281 4162 
Q 984 4106 628 3988 
L 628 4550 
Q 988 4650 1302 4700 
Q 1616 4750 1894 4750 
Q 2613 4750 3031 4423 
Q 3450 4097 3450 3541 
Q 3450 3153 3228 2886 
Q 3006 2619 2597 2516 
z
" transform="scale(0.015625)"/>
     </defs>
     <use xlink:href="#DejaVuSans-Oblique-5a" transform="translate(0 0.09375)"/>
     <use xlink:href="#DejaVuSans-33" transform="translate(68.505859 -16.3125) scale(0.7)"/>
    </g>
   </g>
   <g id="patch_19">
    <path d="M 128.097114 219.141 
C 128.813163 219.141 129.49998 218.856511 130.006303 218.350188 
C 130.512625 217.843866 130.797114 217.157048 130.797114 216.441 
C 130.797114 215.724952 130.512625 215.038134 130.006303 214.531812 
C 129.49998 214.025489 128.813163 213.741 128.097114 213.741 
C 127.381066 213.741 126.694249 214.025489 126.187926 214.531812 
C 125.681603 215.038134 125.397114 215.724952 125.397114 216.441 
C 125.397114 217.157048 125.681603 217.843866 126.187926 218.350188 
C 126.694249 218.856511 127.381066 219.141 128.097114 219.141 
z
" clip-path="url(#pa2a6edb00b)" style="stroke: #000000; stroke-width: 2; stroke-linejoin: miter"/>
   </g>
   <g id="patch_20">
    <path d="M 200.097114 219.141 
C 200.813163 219.141 201.49998 218.856511 202.006303 218.350188 
C 202.512625 217.843866 202.797114 217.157048 202.797114 216.441 
C 202.797114 215.724952 202.512625 215.038134 202.006303 214.531812 
C 201.49998 214.025489 200.813163 213.741 200.097114 213.741 
C 199.381066 213.741 198.694249 214.025489 198.187926 214.531812 
C 197.681603 215.038134 197.397114 215.724952 197.397114 216.441 
C 197.397114 217.157048 197.681603 217.843866 198.187926 218.350188 
C 198.694249 218.856511 199.381066 219.141 200.097114 219.141 
z
" clip-path="url(#pa2a6edb00b)" style="stroke: #000000; stroke-width: 2; stroke-linejoin: miter"/>
   </g>
   <g id="patch_21">
    <path d="M 272.097114 219.141 
C 272.813163 219.141 273.49998 218.856511 274.006303 218.350188 
C 274.512625 217.843866 274.797114 217.157048 274.797114 216.441 
C 274.797114 215.724952 274.512625 215.038134 274.006303 214.531812 
C 273.49998 214.025489 272.813163 213.741 272.097114 213.741 
C 271.381066 213.741 270.694249 214.025489 270.187926 214.531812 
C 269.681603 215.038134 269.397114 215.724952 269.397114 216.441 
C 269.397114 217.157048 269.681603 217.843866 270.187926 218.350188 
C 270.694249 218.856511 271.381066 219.141 272.097114 219.141 
z
" clip-path="url(#pa2a6edb00b)" style="stroke: #000000; stroke-width: 2; stroke-linejoin: miter"/>
   </g>
   <g id="patch_22">
    <path d="M 344.097114 219.141 
C 344.813163 219.141 345.49998 218.856511 346.006303 218.350188 
C 346.512625 217.843866 346.797114 217.157048 346.797114 216.441 
C 346.797114 215.724952 346.512625 215.038134 346.006303 214.531812 
C 345.49998 214.025489 344.813163 213.741 344.097114 213.741 
C 343.381066 213.741 342.694249 214.025489 342.187926 214.531812 
C 341.681603 215.038134 341.397114 215.724952 341.397114 216.441 
C 341.397114 217.157048 341.681603 217.843866 342.187926 218.350188 
C 342.694249 218.856511 343.381066 219.141 344.097114 219.141 
z
" clip-path="url(#pa2a6edb00b)" style="stroke: #000000; stroke-width: 2; stroke-linejoin: miter"/>
   </g>
   <g id="text_13">
    <!-- $U_{ref}$ -->
    <g transform="translate(74.097114 255.890219) scale(0.125 -0.125)">
     <defs>
      <path id="DejaVuSans-Oblique-55" d="M 991 4666 
L 1625 4666 
L 1075 1831 
Q 1041 1641 1027 1517 
Q 1013 1394 1013 1300 
Q 1013 869 1253 645 
Q 1494 422 1959 422 
Q 2563 422 2898 753 
Q 3234 1084 3378 1831 
L 3928 4666 
L 4563 4666 
L 4000 1753 
Q 3816 809 3300 359 
Q 2784 -91 1888 -91 
Q 1188 -91 780 261 
Q 372 613 372 1216 
Q 372 1325 387 1461 
Q 403 1597 434 1753 
L 991 4666 
z
" transform="scale(0.015625)"/>
      <path id="DejaVuSans-Oblique-72" d="M 2853 2969 
Q 2766 3016 2653 3041 
Q 2541 3066 2413 3066 
Q 1953 3066 1609 2717 
Q 1266 2369 1153 1784 
L 800 0 
L 225 0 
L 909 3500 
L 1484 3500 
L 1375 2956 
Q 1603 3259 1920 3421 
Q 2238 3584 2597 3584 
Q 2691 3584 2781 3573 
Q 2872 3563 2963 3538 
L 2853 2969 
z
" transform="scale(0.015625)"/>
      <path id="DejaVuSans-Oblique-65" d="M 3078 2063 
Q 3088 2113 3092 2166 
Q 3097 2219 3097 2272 
Q 3097 2653 2873 2875 
Q 2650 3097 2266 3097 
Q 1838 3097 1509 2826 
Q 1181 2556 1013 2059 
L 3078 2063 
z
M 3578 1613 
L 903 1613 
Q 884 1494 878 1425 
Q 872 1356 872 1306 
Q 872 872 1139 634 
Q 1406 397 1894 397 
Q 2269 397 2603 481 
Q 2938 566 3225 728 
L 3116 159 
Q 2806 34 2476 -28 
Q 2147 -91 1806 -91 
Q 1078 -91 686 257 
Q 294 606 294 1247 
Q 294 1794 489 2264 
Q 684 2734 1063 3103 
Q 1306 3334 1642 3459 
Q 1978 3584 2356 3584 
Q 2950 3584 3301 3228 
Q 3653 2872 3653 2272 
Q 3653 2128 3634 1964 
Q 3616 1800 3578 1613 
z
" transform="scale(0.015625)"/>
      <path id="DejaVuSans-Oblique-66" d="M 3059 4863 
L 2969 4384 
L 2419 4384 
Q 2106 4384 1964 4261 
Q 1822 4138 1753 3809 
L 1691 3500 
L 2638 3500 
L 2553 3053 
L 1606 3053 
L 1013 0 
L 434 0 
L 1031 3053 
L 481 3053 
L 563 3500 
L 1113 3500 
L 1159 3744 
Q 1278 4363 1576 4613 
Q 1875 4863 2516 4863 
L 3059 4863 
z
" transform="scale(0.015625)"/>
     </defs>
     <use xlink:href="#DejaVuSans-Oblique-55" transform="translate(0 0.09375)"/>
     <use xlink:href="#DejaVuSans-Oblique-72" transform="translate(73.193359 -16.3125) scale(0.7)"/>
     <use xlink:href="#DejaVuSans-Oblique-65" transform="translate(101.972656 -16.3125) scale(0.7)"/>
     <use xlink:href="#DejaVuSans-Oblique-66" transform="translate(145.039062 -16.3125) scale(0.7)"/>
    </g>
   </g>
   <g id="patch_23">
    <path d="M 99.297114 255.141 
C 100.013163 255.141 100.69998 254.856511 101.206303 254.350188 
C 101.712625 253.843866 101.997114 253.157048 101.997114 252.441 
C 101.997114 251.724952 101.712625 251.038134 101.206303 250.531812 
C 100.69998 250.025489 100.013163 249.741 99.297114 249.741 
C 98.581066 249.741 97.894249 250.025489 97.387926 250.531812 
C 96.881603 251.038134 96.597114 251.724952 96.597114 252.441 
C 96.597114 253.157048 96.881603 253.843866 97.387926 254.350188 
C 97.894249 254.856511 98.581066 255.141 99.297114 255.141 
z
" clip-path="url(#pa2a6edb00b)" style="stroke: #000000; stroke-width: 2; stroke-linejoin: miter"/>
   </g>
   <g id="patch_24">
    <path d="M 171.297114 255.141 
C 172.013163 255.141 172.69998 254.856511 173.206303 254.350188 
C 173.712625 253.843866 173.997114 253.157048 173.997114 252.441 
C 173.997114 251.724952 173.712625 251.038134 173.206303 250.531812 
C 172.69998 250.025489 172.013163 249.741 171.297114 249.741 
C 170.581066 249.741 169.894249 250.025489 169.387926 250.531812 
C 168.881603 251.038134 168.597114 251.724952 168.597114 252.441 
C 168.597114 253.157048 168.881603 253.843866 169.387926 254.350188 
C 169.894249 254.856511 170.581066 255.141 171.297114 255.141 
z
" clip-path="url(#pa2a6edb00b)" style="stroke: #000000; stroke-width: 2; stroke-linejoin: miter"/>
   </g>
   <g id="patch_25">
    <path d="M 243.297114 255.141 
C 244.013163 255.141 244.69998 254.856511 245.206303 254.350188 
C 245.712625 253.843866 245.997114 253.157048 245.997114 252.441 
C 245.997114 251.724952 245.712625 251.038134 245.206303 250.531812 
C 244.69998 250.025489 244.013163 249.741 243.297114 249.741 
C 242.581066 249.741 241.894249 250.025489 241.387926 250.531812 
C 240.881603 251.038134 240.597114 251.724952 240.597114 252.441 
C 240.597114 253.157048 240.881603 253.843866 241.387926 254.350188 
C 241.894249 254.856511 242.581066 255.141 243.297114 255.141 
z
" clip-path="url(#pa2a6edb00b)" style="stroke: #000000; stroke-width: 2; stroke-linejoin: miter"/>
   </g>
   <g id="patch_26">
    <path d="M 315.297114 255.141 
C 316.013163 255.141 316.69998 254.856511 317.206303 254.350188 
C 317.712625 253.843866 317.997114 253.157048 317.997114 252.441 
C 317.997114 251.724952 317.712625 251.038134 317.206303 250.531812 
C 316.69998 250.025489 316.013163 249.741 315.297114 249.741 
C 314.581066 249.741 313.894249 250.025489 313.387926 250.531812 
C 312.881603 251.038134 312.597114 251.724952 312.597114 252.441 
C 312.597114 253.157048 312.881603 253.843866 313.387926 254.350188 
C 313.894249 254.856511 314.581066 255.141 315.297114 255.141 
z
" clip-path="url(#pa2a6edb00b)" style="stroke: #000000; stroke-width: 2; stroke-linejoin: miter"/>
   </g>
   <g id="patch_27">
    <path d="M 401.697114 43.461 
C 402.413163 43.461 403.09998 43.176511 403.606303 42.670188 
C 404.112625 42.163866 404.397114 41.477048 404.397114 40.761 
C 404.397114 40.044952 404.112625 39.358134 403.606303 38.851812 
C 403.09998 38.345489 402.413163 38.061 401.697114 38.061 
C 400.981066 38.061 400.294249 38.345489 399.787926 38.851812 
C 399.281603 39.358134 398.997114 40.044952 398.997114 40.761 
C 398.997114 41.477048 399.281603 42.163866 399.787926 42.670188 
C 400.294249 43.176511 400.981066 43.461 401.697114 43.461 
z
" clip-path="url(#pa2a6edb00b)" style="stroke: #000000; stroke-width: 2; stroke-linejoin: miter"/>
   </g>
   <g id="text_14">
    <!-- $2R$ -->
    <g transform="translate(372.347114 98.210219) scale(0.125 -0.125)">
     <use xlink:href="#DejaVuSans-32" transform="translate(0 0.78125)"/>
     <use xlink:href="#DejaVuSans-Oblique-52" transform="translate(63.623047 0.78125)"/>
    </g>
   </g>
   <g id="patch_28">
    <path d="M 569.639401 65.961 
C 570.355449 65.961 571.042266 65.676511 571.548589 65.170188 
C 572.054912 64.663866 572.339401 63.977048 572.339401 63.261 
C 572.339401 62.544952 572.054912 61.858134 571.548589 61.351812 
C 571.042266 60.845489 570.355449 60.561 569.639401 60.561 
C 568.923352 60.561 568.236535 60.845489 567.730212 61.351812 
C 567.22389 61.858134 566.939401 62.544952 566.939401 63.261 
C 566.939401 63.977048 567.22389 64.663866 567.730212 65.170188 
C 568.236535 65.676511 568.923352 65.961 569.639401 65.961 
z
" clip-path="url(#pa2a6edb00b)" style="stroke: #000000; stroke-width: 2; stroke-linejoin: miter"/>
   </g>
   <g id="patch_29">
    <path d="M 569.639401 155.961 
C 570.355449 155.961 571.042266 155.676511 571.548589 155.170188 
C 572.054912 154.663866 572.339401 153.977048 572.339401 153.261 
C 572.339401 152.544952 572.054912 151.858134 571.548589 151.351812 
C 571.042266 150.845489 570.355449 150.561 569.639401 150.561 
C 568.923352 150.561 568.236535 150.845489 567.730212 151.351812 
C 567.22389 151.858134 566.939401 152.544952 566.939401 153.261 
C 566.939401 153.977048 567.22389 154.663866 567.730212 155.170188 
C 568.236535 155.676511 568.923352 155.961 569.639401 155.961 
z
" clip-path="url(#pa2a6edb00b)" style="stroke: #000000; stroke-width: 2; stroke-linejoin: miter"/>
   </g>
   <g id="text_15">
    <!-- $R_2$ -->
    <g transform="translate(542.414401 113.060219) scale(0.125 -0.125)">
     <use xlink:href="#DejaVuSans-Oblique-52" transform="translate(0 0.09375)"/>
     <use xlink:href="#DejaVuSans-32" transform="translate(69.482422 -16.3125) scale(0.7)"/>
    </g>
   </g>
   <g id="text_16">
    <!-- $R_1$ -->
    <g transform="translate(542.414401 201.710219) scale(0.125 -0.125)">
     <use xlink:href="#DejaVuSans-Oblique-52" transform="translate(0 0.09375)"/>
     <use xlink:href="#DejaVuSans-31" transform="translate(69.482422 -16.3125) scale(0.7)"/>
    </g>
   </g>
   <g id="patch_30">
    <path d="M 605.639401 173.961 
C 606.355449 173.961 607.042266 173.676511 607.548589 173.170188 
C 608.054912 172.663866 608.339401 171.977048 608.339401 171.261 
C 608.339401 170.544952 608.054912 169.858134 607.548589 169.351812 
C 607.042266 168.845489 606.355449 168.561 605.639401 168.561 
C 604.923352 168.561 604.236535 168.845489 603.730212 169.351812 
C 603.22389 169.858134 602.939401 170.544952 602.939401 171.261 
C 602.939401 171.977048 603.22389 172.663866 603.730212 173.170188 
C 604.236535 173.676511 604.923352 173.961 605.639401 173.961 
z
" clip-path="url(#pa2a6edb00b)" style="fill: #ffffff; stroke: #000000; stroke-width: 2; stroke-linejoin: miter"/>
   </g>
   <g id="patch_31">
    <path d="M 605.639401 65.961 
C 606.355449 65.961 607.042266 65.676511 607.548589 65.170188 
C 608.054912 64.663866 608.339401 63.977048 608.339401 63.261 
C 608.339401 62.544952 608.054912 61.858134 607.548589 61.351812 
C 607.042266 60.845489 606.355449 60.561 605.639401 60.561 
C 604.923352 60.561 604.236535 60.845489 603.730212 61.351812 
C 603.22389 61.858134 602.939401 62.544952 602.939401 63.261 
C 602.939401 63.977048 603.22389 64.663866 603.730212 65.170188 
C 604.236535 65.676511 604.923352 65.961 605.639401 65.961 
z
" clip-path="url(#pa2a6edb00b)" style="fill: #ffffff; stroke: #000000; stroke-width: 2; stroke-linejoin: miter"/>
   </g>
   <g id="text_17">
    <!-- + -->
    <g transform="translate(600.402096 92.360219) scale(0.125 -0.125)">
     <defs>
      <path id="DejaVuSans-2b" d="M 2944 4013 
L 2944 2272 
L 4684 2272 
L 4684 1741 
L 2944 1741 
L 2944 0 
L 2419 0 
L 2419 1741 
L 678 1741 
L 678 2272 
L 2419 2272 
L 2419 4013 
L 2944 4013 
z
" transform="scale(0.015625)"/>
     </defs>
     <use xlink:href="#DejaVuSans-2b"/>
    </g>
   </g>
   <g id="text_18">
    <!-- $U_a$ -->
    <g transform="translate(598.201901 120.710219) scale(0.125 -0.125)">
     <defs>
      <path id="DejaVuSans-Oblique-61" d="M 3438 1997 
L 3047 0 
L 2472 0 
L 2578 531 
Q 2325 219 2001 64 
Q 1678 -91 1281 -91 
Q 834 -91 548 182 
Q 263 456 263 884 
Q 263 1497 752 1853 
Q 1241 2209 2100 2209 
L 2900 2209 
L 2931 2363 
Q 2938 2388 2941 2417 
Q 2944 2447 2944 2509 
Q 2944 2788 2717 2942 
Q 2491 3097 2081 3097 
Q 1800 3097 1504 3025 
Q 1209 2953 897 2809 
L 997 3341 
Q 1322 3463 1633 3523 
Q 1944 3584 2234 3584 
Q 2853 3584 3176 3315 
Q 3500 3047 3500 2534 
Q 3500 2431 3484 2292 
Q 3469 2153 3438 1997 
z
M 2816 1759 
L 2241 1759 
Q 1534 1759 1195 1570 
Q 856 1381 856 984 
Q 856 709 1029 553 
Q 1203 397 1509 397 
Q 1978 397 2328 733 
Q 2678 1069 2791 1631 
L 2816 1759 
z
" transform="scale(0.015625)"/>
     </defs>
     <use xlink:href="#DejaVuSans-Oblique-55" transform="translate(0 0.09375)"/>
     <use xlink:href="#DejaVuSans-Oblique-61" transform="translate(73.193359 -16.3125) scale(0.7)"/>
    </g>
   </g>
   <g id="text_19">
    <!-- - -->
    <g transform="translate(603.384518 149.060219) scale(0.125 -0.125)">
     <defs>
      <path id="DejaVuSans-2d" d="M 313 2009 
L 1997 2009 
L 1997 1497 
L 313 1497 
L 313 2009 
z
" transform="scale(0.015625)"/>
     </defs>
     <use xlink:href="#DejaVuSans-2d"/>
    </g>
   </g>
  </g>
 </g>
 <defs>
  <clipPath id="pa2a6edb00b">
   <rect x="3.6" y="3.6" width="640.136515" height="322.542"/>
  </clipPath>
 </defs>
</svg>