<?xml version="1.0" encoding="utf-8" standalone="no"?>
<!DOCTYPE svg PUBLIC "-//W3C//DTD SVG 1.1//EN"
  "http://www.w3.org/Graphics/SVG/1.1/DTD/svg11.dtd">
<svg xmlns:xlink="http://www.w3.org/1999/xlink" width="178.47pt" height="168.57pt" viewBox="0 0 178.47 168.57" xmlns="http://www.w3.org/2000/svg" version="1.1">
 <metadata>
  <rdf:RDF xmlns:dc="http://purl.org/dc/elements/1.1/" xmlns:cc="http://creativecommons.org/ns#" xmlns:rdf="http://www.w3.org/1999/02/22-rdf-syntax-ns#">
   <cc:Work>
    <dc:type rdf:resource="http://purl.org/dc/dcmitype/StillImage"/>
    <dc:date>2023-10-20T19:44:05.034284</dc:date>
    <dc:format>image/svg+xml</dc:format>
    <dc:creator>
     <cc:Agent>
      <dc:title>Matplotlib v3.8.0, https://matplotlib.org/</dc:title>
     </cc:Agent>
    </dc:creator>
   </cc:Work>
  </rdf:RDF>
 </metadata>
 <defs>
  <style type="text/css">*{stroke-linejoin: round; stroke-linecap: butt}</style>
 </defs>
 <g id="figure_1">
  <g id="patch_1">
   <path d="M 0 168.57 
L 178.47 168.57 
L 178.47 0 
L 0 0 
z
" style="fill: #ffffff"/>
  </g>
  <g id="axes_1">
   <g id="patch_2">
    <path d="M 122.085 64.935 
C 126.858656 64.935 131.437438 63.038406 134.812922 59.662922 
C 138.188406 56.287438 140.085 51.708656 140.085 46.935 
C 140.085 42.161344 138.188406 37.582562 134.812922 34.207078 
C 131.437438 30.831594 126.858656 28.935 122.085 28.935 
C 117.311344 28.935 112.732562 30.831594 109.357078 34.207078 
C 105.981594 37.582562 104.085 42.161344 104.085 46.935 
C 104.085 51.708656 105.981594 56.287438 109.357078 59.662922 
C 112.732562 63.038406 117.311344 64.935 122.085 64.935 
L 122.085 64.935 
z
" clip-path="url(#pcbbca64c68)" style="fill: none; stroke: #000000; stroke-width: 2; stroke-linejoin: miter"/>
   </g>
   <g id="line2d_1">
    <path d="M 14.085 46.935 
L 50.085 46.935 
L 86.085 46.935 
" clip-path="url(#pcbbca64c68)" style="fill: none; stroke: #000000; stroke-width: 2; stroke-linecap: round"/>
   </g>
   <g id="line2d_2">
    <path d="M 86.085 46.935 
L 158.085 46.935 
" clip-path="url(#pcbbca64c68)" style="fill: none; stroke: #000000; stroke-width: 2; stroke-linecap: round"/>
   </g>
   <g id="line2d_3">
    <path d="M 122.085 10.935 
L 122.085 82.935 
" clip-path="url(#pcbbca64c68)" style="fill: none; stroke: #000000; stroke-width: 2; stroke-linecap: round"/>
   </g>
   <g id="line2d_4">
    <path d="M 86.085 46.935 
L 86.085 10.935 
L 122.085 10.935 
" clip-path="url(#pcbbca64c68)" style="fill: none; stroke: #000000; stroke-width: 2; stroke-linecap: round"/>
   </g>
   <g id="line2d_5">
    <path d="M 158.085 46.935 
L 158.085 82.935 
L 167.085 82.935 
L 167.085 118.935 
L 149.085 118.935 
L 149.085 82.935 
L 158.085 82.935 
M 158.085 118.935 
L 158.085 154.935 
" clip-path="url(#pcbbca64c68)" style="fill: none; stroke: #000000; stroke-width: 2; stroke-linecap: round"/>
   </g>
   <g id="line2d_6">
    <path d="M 158.085 154.935 
L 140.085 154.935 
L 122.085 154.935 
" clip-path="url(#pcbbca64c68)" style="fill: none; stroke: #000000; stroke-width: 2; stroke-linecap: round"/>
   </g>
   <g id="line2d_7">
    <path d="M 122.085 154.935 
L 122.085 118.935 
L 122.085 82.935 
" clip-path="url(#pcbbca64c68)" style="fill: none; stroke: #000000; stroke-width: 2; stroke-linecap: round"/>
   </g>
   <g id="line2d_8">
    <path d="M 122.085 154.935 
L 68.085 154.935 
L 14.085 154.935 
" clip-path="url(#pcbbca64c68)" style="fill: none; stroke: #000000; stroke-width: 2; stroke-linecap: round"/>
   </g>
   <g id="patch_3">
    <path d="M 122.085 157.635 
C 122.801048 157.635 123.487866 157.350511 123.994188 156.844188 
C 124.500511 156.337866 124.785 155.651048 124.785 154.935 
C 124.785 154.218952 124.500511 153.532134 123.994188 153.025812 
C 123.487866 152.519489 122.801048 152.235 122.085 152.235 
C 121.368952 152.235 120.682134 152.519489 120.175812 153.025812 
C 119.669489 153.532134 119.385 154.218952 119.385 154.935 
C 119.385 155.651048 119.669489 156.337866 120.175812 156.844188 
C 120.682134 157.350511 121.368952 157.635 122.085 157.635 
z
" clip-path="url(#pcbbca64c68)" style="stroke: #000000; stroke-width: 2; stroke-linejoin: miter"/>
   </g>
   <g id="patch_4">
    <path d="M 14.085 157.635 
C 14.801048 157.635 15.487866 157.350511 15.994188 156.844188 
C 16.500511 156.337866 16.785 155.651048 16.785 154.935 
C 16.785 154.218952 16.500511 153.532134 15.994188 153.025812 
C 15.487866 152.519489 14.801048 152.235 14.085 152.235 
C 13.368952 152.235 12.682134 152.519489 12.175812 153.025812 
C 11.669489 153.532134 11.385 154.218952 11.385 154.935 
C 11.385 155.651048 11.669489 156.337866 12.175812 156.844188 
C 12.682134 157.350511 13.368952 157.635 14.085 157.635 
z
" clip-path="url(#pcbbca64c68)" style="fill: #ffffff; stroke: #000000; stroke-width: 2; stroke-linejoin: miter"/>
   </g>
   <g id="patch_5">
    <path d="M 14.085 49.635 
C 14.801048 49.635 15.487866 49.350511 15.994188 48.844188 
C 16.500511 48.337866 16.785 47.651048 16.785 46.935 
C 16.785 46.218952 16.500511 45.532134 15.994188 45.025812 
C 15.487866 44.519489 14.801048 44.235 14.085 44.235 
C 13.368952 44.235 12.682134 44.519489 12.175812 45.025812 
C 11.669489 45.532134 11.385 46.218952 11.385 46.935 
C 11.385 47.651048 11.669489 48.337866 12.175812 48.844188 
C 12.682134 49.350511 13.368952 49.635 14.085 49.635 
z
" clip-path="url(#pcbbca64c68)" style="fill: #ffffff; stroke: #000000; stroke-width: 2; stroke-linejoin: miter"/>
   </g>
  </g>
 </g>
 <defs>
  <clipPath id="pcbbca64c68">
   <rect x="3.6" y="3.6" width="171.27" height="161.37"/>
  </clipPath>
 </defs>
</svg>