<?xml version="1.0" encoding="utf-8" standalone="no"?>
<!DOCTYPE svg PUBLIC "-//W3C//DTD SVG 1.1//EN"
  "http://www.w3.org/Graphics/SVG/1.1/DTD/svg11.dtd">
<svg xmlns:xlink="http://www.w3.org/1999/xlink" width="257.67pt" height="148.77pt" viewBox="0 0 257.67 148.77" xmlns="http://www.w3.org/2000/svg" version="1.1">
 <metadata>
  <rdf:RDF xmlns:dc="http://purl.org/dc/elements/1.1/" xmlns:cc="http://creativecommons.org/ns#" xmlns:rdf="http://www.w3.org/1999/02/22-rdf-syntax-ns#">
   <cc:Work>
    <dc:type rdf:resource="http://purl.org/dc/dcmitype/StillImage"/>
    <dc:date>2023-06-04T22:58:18.418632</dc:date>
    <dc:format>image/svg+xml</dc:format>
    <dc:creator>
     <cc:Agent>
      <dc:title>Matplotlib v3.7.1, https://matplotlib.org/</dc:title>
     </cc:Agent>
    </dc:creator>
   </cc:Work>
  </rdf:RDF>
 </metadata>
 <defs>
  <style type="text/css">*{stroke-linejoin: round; stroke-linecap: butt}</style>
 </defs>
 <g id="figure_1">
  <g id="patch_1">
   <path d="M 0 148.77 
L 257.67 148.77 
L 257.67 0 
L 0 0 
z
" style="fill: #ffffff"/>
  </g>
  <g id="axes_1">
   <g id="patch_2">
    <path d="M 71.685 46.035 
C 76.458656 46.035 81.037438 44.138406 84.412922 40.762922 
C 87.788406 37.387438 89.685 32.808656 89.685 28.035 
C 89.685 23.261344 87.788406 18.682562 84.412922 15.307078 
C 81.037438 11.931594 76.458656 10.035 71.685 10.035 
C 66.911344 10.035 62.332562 11.931594 58.957078 15.307078 
C 55.581594 18.682562 53.685 23.261344 53.685 28.035 
C 53.685 32.808656 55.581594 37.387438 58.957078 40.762922 
C 62.332562 44.138406 66.911344 46.035 71.685 46.035 
L 71.685 46.035 
z
" clip-path="url(#p20679cd298)" style="fill: none; stroke: #000000; stroke-width: 2; stroke-linejoin: miter"/>
   </g>
   <g id="patch_3">
    <path d="M 125.685 100.035 
C 130.458656 100.035 135.037438 98.138406 138.412922 94.762922 
C 141.788406 91.387438 143.685 86.808656 143.685 82.035 
C 143.685 77.261344 141.788406 72.682562 138.412922 69.307078 
C 135.037438 65.931594 130.458656 64.035 125.685 64.035 
C 120.911344 64.035 116.332562 65.931594 112.957078 69.307078 
C 109.581594 72.682562 107.685 77.261344 107.685 82.035 
C 107.685 86.808656 109.581594 91.387438 112.957078 94.762922 
C 116.332562 98.138406 120.911344 100.035 125.685 100.035 
L 125.685 100.035 
z
" clip-path="url(#p20679cd298)" style="fill: none; stroke: #000000; stroke-width: 2; stroke-linejoin: miter"/>
   </g>
   <g id="line2d_1">
    <path d="M 17.685 28.035 
L 53.685 28.035 
L 53.685 28.035 
M 89.685 28.035 
L 89.685 28.035 
L 125.685 28.035 
" clip-path="url(#p20679cd298)" style="fill: none; stroke: #000000; stroke-width: 2; stroke-linecap: round"/>
   </g>
   <g id="line2d_2">
    <path d="M 125.685 28.035 
L 179.685 28.035 
L 233.685 28.035 
" clip-path="url(#p20679cd298)" style="fill: none; stroke: #000000; stroke-width: 2; stroke-linecap: round"/>
   </g>
   <g id="line2d_3">
    <path d="M 233.685 28.035 
L 233.685 64.035 
L 242.685 64.035 
L 242.685 100.035 
L 224.685 100.035 
L 224.685 64.035 
L 233.685 64.035 
M 233.685 100.035 
L 233.685 136.035 
" clip-path="url(#p20679cd298)" style="fill: none; stroke: #000000; stroke-width: 2; stroke-linecap: round"/>
   </g>
   <g id="line2d_4">
    <path d="M 233.685 136.035 
L 179.685 136.035 
L 125.685 136.035 
" clip-path="url(#p20679cd298)" style="fill: none; stroke: #000000; stroke-width: 2; stroke-linecap: round"/>
   </g>
   <g id="line2d_5">
    <path d="M 125.685 136.035 
L 125.685 100.035 
L 125.685 100.035 
M 125.685 64.035 
L 125.685 64.035 
L 125.685 28.035 
" clip-path="url(#p20679cd298)" style="fill: none; stroke: #000000; stroke-width: 2; stroke-linecap: round"/>
   </g>
   <g id="line2d_6">
    <path d="M 125.685 136.035 
L 71.685 136.035 
L 17.685 136.035 
" clip-path="url(#p20679cd298)" style="fill: none; stroke: #000000; stroke-width: 2; stroke-linecap: round"/>
   </g>
   <g id="text_1">
    <!-- A -->
    <g transform="translate(67.409609 31.484219) scale(0.125 -0.125)">
     <defs>
      <path id="DejaVuSans-41" d="M 2188 4044 
L 1331 1722 
L 3047 1722 
L 2188 4044 
z
M 1831 4666 
L 2547 4666 
L 4325 0 
L 3669 0 
L 3244 1197 
L 1141 1197 
L 716 0 
L 50 0 
L 1831 4666 
z
" transform="scale(0.015625)"/>
     </defs>
     <use xlink:href="#DejaVuSans-41"/>
    </g>
   </g>
   <g id="patch_4">
    <path d="M 125.685 30.735 
C 126.401048 30.735 127.087866 30.450511 127.594188 29.944188 
C 128.100511 29.437866 128.385 28.751048 128.385 28.035 
C 128.385 27.318952 128.100511 26.632134 127.594188 26.125812 
C 127.087866 25.619489 126.401048 25.335 125.685 25.335 
C 124.968952 25.335 124.282134 25.619489 123.775812 26.125812 
C 123.269489 26.632134 122.985 27.318952 122.985 28.035 
C 122.985 28.751048 123.269489 29.437866 123.775812 29.944188 
C 124.282134 30.450511 124.968952 30.735 125.685 30.735 
z
" clip-path="url(#p20679cd298)" style="stroke: #000000; stroke-width: 2; stroke-linejoin: miter"/>
   </g>
   <g id="patch_5">
    <path d="M 17.685 30.735 
C 18.401048 30.735 19.087866 30.450511 19.594188 29.944188 
C 20.100511 29.437866 20.385 28.751048 20.385 28.035 
C 20.385 27.318952 20.100511 26.632134 19.594188 26.125812 
C 19.087866 25.619489 18.401048 25.335 17.685 25.335 
C 16.968952 25.335 16.282134 25.619489 15.775812 26.125812 
C 15.269489 26.632134 14.985 27.318952 14.985 28.035 
C 14.985 28.751048 15.269489 29.437866 15.775812 29.944188 
C 16.282134 30.450511 16.968952 30.735 17.685 30.735 
z
" clip-path="url(#p20679cd298)" style="fill: #ffffff; stroke: #000000; stroke-width: 2; stroke-linejoin: miter"/>
   </g>
   <g id="text_2">
    <!-- $R$ -->
    <g transform="translate(212.335 85.484219) scale(0.125 -0.125)">
     <defs>
      <path id="DejaVuSans-Oblique-52" d="M 1613 4147 
L 1294 2491 
L 2106 2491 
Q 2584 2491 2879 2755 
Q 3175 3019 3175 3444 
Q 3175 3784 2976 3965 
Q 2778 4147 2406 4147 
L 1613 4147 
z
M 2772 2241 
Q 2972 2194 3105 2009 
Q 3238 1825 3413 1275 
L 3809 0 
L 3144 0 
L 2778 1197 
Q 2638 1659 2453 1815 
Q 2269 1972 1888 1972 
L 1191 1972 
L 806 0 
L 172 0 
L 1081 4666 
L 2503 4666 
Q 3150 4666 3495 4373 
Q 3841 4081 3841 3531 
Q 3841 3044 3547 2687 
Q 3253 2331 2772 2241 
z
" transform="scale(0.015625)"/>
     </defs>
     <use xlink:href="#DejaVuSans-Oblique-52" transform="translate(0 0.09375)"/>
    </g>
   </g>
   <g id="patch_6">
    <path d="M 125.685 138.735 
C 126.401048 138.735 127.087866 138.450511 127.594188 137.944188 
C 128.100511 137.437866 128.385 136.751048 128.385 136.035 
C 128.385 135.318952 128.100511 134.632134 127.594188 134.125812 
C 127.087866 133.619489 126.401048 133.335 125.685 133.335 
C 124.968952 133.335 124.282134 133.619489 123.775812 134.125812 
C 123.269489 134.632134 122.985 135.318952 122.985 136.035 
C 122.985 136.751048 123.269489 137.437866 123.775812 137.944188 
C 124.282134 138.450511 124.968952 138.735 125.685 138.735 
z
" clip-path="url(#p20679cd298)" style="stroke: #000000; stroke-width: 2; stroke-linejoin: miter"/>
   </g>
   <g id="text_3">
    <!-- V -->
    <g transform="translate(121.409609 85.484219) scale(0.125 -0.125)">
     <defs>
      <path id="DejaVuSans-56" d="M 1831 0 
L 50 4666 
L 709 4666 
L 2188 738 
L 3669 4666 
L 4325 4666 
L 2547 0 
L 1831 0 
z
" transform="scale(0.015625)"/>
     </defs>
     <use xlink:href="#DejaVuSans-56"/>
    </g>
   </g>
   <g id="text_4">
    <!-- $U$ -->
    <g transform="translate(94.835 85.484219) scale(0.125 -0.125)">
     <defs>
      <path id="DejaVuSans-Oblique-55" d="M 991 4666 
L 1625 4666 
L 1075 1831 
Q 1041 1641 1027 1517 
Q 1013 1394 1013 1300 
Q 1013 869 1253 645 
Q 1494 422 1959 422 
Q 2563 422 2898 753 
Q 3234 1084 3378 1831 
L 3928 4666 
L 4563 4666 
L 4000 1753 
Q 3816 809 3300 359 
Q 2784 -91 1888 -91 
Q 1188 -91 780 261 
Q 372 613 372 1216 
Q 372 1325 387 1461 
Q 403 1597 434 1753 
L 991 4666 
z
" transform="scale(0.015625)"/>
     </defs>
     <use xlink:href="#DejaVuSans-Oblique-55" transform="translate(0 0.09375)"/>
    </g>
   </g>
   <g id="patch_7">
    <path d="M 17.685 138.735 
C 18.401048 138.735 19.087866 138.450511 19.594188 137.944188 
C 20.100511 137.437866 20.385 136.751048 20.385 136.035 
C 20.385 135.318952 20.100511 134.632134 19.594188 134.125812 
C 19.087866 133.619489 18.401048 133.335 17.685 133.335 
C 16.968952 133.335 16.282134 133.619489 15.775812 134.125812 
C 15.269489 134.632134 14.985 135.318952 14.985 136.035 
C 14.985 136.751048 15.269489 137.437866 15.775812 137.944188 
C 16.282134 138.450511 16.968952 138.735 17.685 138.735 
z
" clip-path="url(#p20679cd298)" style="fill: #ffffff; stroke: #000000; stroke-width: 2; stroke-linejoin: miter"/>
   </g>
   <g id="line2d_7">
    <path d="M 86.085 28.035 
L 86.085 28.035 
" clip-path="url(#p20679cd298)" style="fill: none; stroke: #000000; stroke-width: 2; stroke-linecap: round"/>
   </g>
   <g id="patch_8">
    <path d="M 86.085 22.635 
L 96.885 28.035 
L 86.085 33.435 
z
" clip-path="url(#p20679cd298)"/>
   </g>
   <g id="text_5">
    <!-- $I$ -->
    <g transform="translate(89.61 14.635391) scale(0.125 -0.125)">
     <defs>
      <path id="DejaVuSans-Oblique-49" d="M 1081 4666 
L 1716 4666 
L 806 0 
L 172 0 
L 1081 4666 
z
" transform="scale(0.015625)"/>
     </defs>
     <use xlink:href="#DejaVuSans-Oblique-49" transform="translate(0 0.09375)"/>
    </g>
   </g>
  </g>
 </g>
 <defs>
  <clipPath id="p20679cd298">
   <rect x="3.6" y="3.6" width="250.47" height="141.57"/>
  </clipPath>
 </defs>
</svg>