<?xml version="1.0" encoding="utf-8" standalone="no"?>
<!DOCTYPE svg PUBLIC "-//W3C//DTD SVG 1.1//EN"
  "http://www.w3.org/Graphics/SVG/1.1/DTD/svg11.dtd">
<svg xmlns:xlink="http://www.w3.org/1999/xlink" width="379.492286pt" height="155.764656pt" viewBox="0 0 379.492286 155.764656" xmlns="http://www.w3.org/2000/svg" version="1.1">
 <metadata>
  <rdf:RDF xmlns:dc="http://purl.org/dc/elements/1.1/" xmlns:cc="http://creativecommons.org/ns#" xmlns:rdf="http://www.w3.org/1999/02/22-rdf-syntax-ns#">
   <cc:Work>
    <dc:type rdf:resource="http://purl.org/dc/dcmitype/StillImage"/>
    <dc:date>2023-06-04T22:58:26.850167</dc:date>
    <dc:format>image/svg+xml</dc:format>
    <dc:creator>
     <cc:Agent>
      <dc:title>Matplotlib v3.7.1, https://matplotlib.org/</dc:title>
     </cc:Agent>
    </dc:creator>
   </cc:Work>
  </rdf:RDF>
 </metadata>
 <defs>
  <style type="text/css">*{stroke-linejoin: round; stroke-linecap: butt}</style>
 </defs>
 <g id="figure_1">
  <g id="patch_1">
   <path d="M 0 155.764656 
L 379.492286 155.764656 
L 379.492286 0 
L 0 0 
z
" style="fill: #ffffff"/>
  </g>
  <g id="axes_1">
   <g id="line2d_1">
    <path d="M 24.775 77.797656 
L 75.535 77.797656 
M 75.535 68.797656 
L 75.535 86.797656 
M 82.015 68.797656 
L 82.015 86.797656 
M 82.015 77.797656 
L 132.775 77.797656 
" clip-path="url(#p7edb2749f4)" style="fill: none; stroke: #000000; stroke-width: 2; stroke-linecap: round"/>
   </g>
   <g id="line2d_2">
    <path d="M 132.775 77.797656 
L 150.775 77.797656 
L 168.775 77.797656 
" clip-path="url(#p7edb2749f4)" style="fill: none; stroke: #000000; stroke-width: 2; stroke-linecap: round"/>
   </g>
   <g id="line2d_3">
    <path d="M 168.775 100.297656 
L 168.775 55.297656 
L 246.717286 100.297656 
L 168.775 145.297656 
L 168.775 100.297656 
M 246.717286 100.297656 
" clip-path="url(#p7edb2749f4)" style="fill: none; stroke: #000000; stroke-width: 2; stroke-linecap: round"/>
   </g>
   <g id="line2d_4">
    <path d="M 174.917786 77.797656 
L 182.117786 77.797656 
" clip-path="url(#p7edb2749f4)" style="fill: none; stroke: #000000; stroke-width: 2; stroke-linecap: round"/>
   </g>
   <g id="line2d_5">
    <path d="M 174.917786 122.797656 
L 182.117786 122.797656 
" clip-path="url(#p7edb2749f4)" style="fill: none; stroke: #000000; stroke-width: 2; stroke-linecap: round"/>
   </g>
   <g id="line2d_6">
    <path d="M 178.517786 126.397656 
L 178.517786 119.197656 
" clip-path="url(#p7edb2749f4)" style="fill: none; stroke: #000000; stroke-width: 2; stroke-linecap: round"/>
   </g>
   <g id="line2d_7">
    <path d="M 246.717286 100.297656 
L 264.717286 100.297656 
L 282.717286 100.297656 
" clip-path="url(#p7edb2749f4)" style="fill: none; stroke: #000000; stroke-width: 2; stroke-linecap: round"/>
   </g>
   <g id="line2d_8">
    <path d="M 282.717286 100.297656 
L 282.717286 64.297656 
L 282.717286 28.297656 
" clip-path="url(#p7edb2749f4)" style="fill: none; stroke: #000000; stroke-width: 2; stroke-linecap: round"/>
   </g>
   <g id="line2d_9">
    <path d="M 282.717286 28.297656 
L 246.717286 28.297656 
L 246.717286 37.297656 
L 210.717286 37.297656 
L 210.717286 19.297656 
L 246.717286 19.297656 
L 246.717286 28.297656 
M 210.717286 28.297656 
L 174.717286 28.297656 
" clip-path="url(#p7edb2749f4)" style="fill: none; stroke: #000000; stroke-width: 2; stroke-linecap: round"/>
   </g>
   <g id="line2d_10">
    <path d="M 174.717286 28.297656 
L 132.775 28.297656 
L 132.775 77.797656 
" clip-path="url(#p7edb2749f4)" style="fill: none; stroke: #000000; stroke-width: 2; stroke-linecap: round"/>
   </g>
   <g id="line2d_11">
    <path d="M 282.717286 100.297656 
L 318.717286 100.297656 
L 354.717286 100.297656 
" clip-path="url(#p7edb2749f4)" style="fill: none; stroke: #000000; stroke-width: 2; stroke-linecap: round"/>
   </g>
   <g id="line2d_12">
    <path d="M 168.775 122.797656 
L 150.775 122.797656 
L 132.775 122.797656 
" clip-path="url(#p7edb2749f4)" style="fill: none; stroke: #000000; stroke-width: 2; stroke-linecap: round"/>
   </g>
   <g id="line2d_13">
    <path d="M 132.775 122.797656 
L 132.775 137.197656 
L 123.775 137.197656 
L 141.775 137.197656 
M 126.475 141.517656 
L 139.075 141.517656 
M 130.975 145.837656 
L 134.575 145.837656 
" clip-path="url(#p7edb2749f4)" style="fill: none; stroke: #000000; stroke-width: 2; stroke-linecap: round"/>
   </g>
   <g id="patch_2">
    <path d="M 132.775 80.497656 
C 133.491048 80.497656 134.177866 80.213167 134.684188 79.706845 
C 135.190511 79.200522 135.475 78.513705 135.475 77.797656 
C 135.475 77.081608 135.190511 76.394791 134.684188 75.888468 
C 134.177866 75.382145 133.491048 75.097656 132.775 75.097656 
C 132.058952 75.097656 131.372134 75.382145 130.865812 75.888468 
C 130.359489 76.394791 130.075 77.081608 130.075 77.797656 
C 130.075 78.513705 130.359489 79.200522 130.865812 79.706845 
C 131.372134 80.213167 132.058952 80.497656 132.775 80.497656 
z
" clip-path="url(#p7edb2749f4)" style="stroke: #000000; stroke-width: 2; stroke-linejoin: miter"/>
   </g>
   <g id="patch_3">
    <path d="M 24.775 80.497656 
C 25.491048 80.497656 26.177866 80.213167 26.684188 79.706845 
C 27.190511 79.200522 27.475 78.513705 27.475 77.797656 
C 27.475 77.081608 27.190511 76.394791 26.684188 75.888468 
C 26.177866 75.382145 25.491048 75.097656 24.775 75.097656 
C 24.058952 75.097656 23.372134 75.382145 22.865812 75.888468 
C 22.359489 76.394791 22.075 77.081608 22.075 77.797656 
C 22.075 78.513705 22.359489 79.200522 22.865812 79.706845 
C 23.372134 80.213167 24.058952 80.497656 24.775 80.497656 
z
" clip-path="url(#p7edb2749f4)" style="fill: #ffffff; stroke: #000000; stroke-width: 2; stroke-linejoin: miter"/>
   </g>
   <g id="text_1">
    <!-- $C$ -->
    <g transform="translate(74.4 62.598047) scale(0.125 -0.125)">
     <defs>
      <path id="DejaVuSans-Oblique-43" d="M 4447 4306 
L 4319 3641 
Q 4019 3944 3683 4091 
Q 3347 4238 2956 4238 
Q 2422 4238 2017 3981 
Q 1613 3725 1319 3200 
Q 1131 2863 1032 2486 
Q 934 2109 934 1728 
Q 934 1091 1264 756 
Q 1594 422 2222 422 
Q 2656 422 3056 561 
Q 3456 700 3834 978 
L 3688 231 
Q 3316 72 2936 -9 
Q 2556 -91 2175 -91 
Q 1278 -91 773 396 
Q 269 884 269 1753 
Q 269 2309 461 2846 
Q 653 3384 1013 3828 
Q 1394 4300 1883 4525 
Q 2372 4750 3022 4750 
Q 3422 4750 3780 4639 
Q 4138 4528 4447 4306 
z
" transform="scale(0.015625)"/>
     </defs>
     <use xlink:href="#DejaVuSans-Oblique-43" transform="translate(0 0.78125)"/>
    </g>
   </g>
   <g id="text_2">
    <!-- $U_e$ -->
    <g transform="translate(3.6 81.246875) scale(0.125 -0.125)">
     <defs>
      <path id="DejaVuSans-Oblique-55" d="M 991 4666 
L 1625 4666 
L 1075 1831 
Q 1041 1641 1027 1517 
Q 1013 1394 1013 1300 
Q 1013 869 1253 645 
Q 1494 422 1959 422 
Q 2563 422 2898 753 
Q 3234 1084 3378 1831 
L 3928 4666 
L 4563 4666 
L 4000 1753 
Q 3816 809 3300 359 
Q 2784 -91 1888 -91 
Q 1188 -91 780 261 
Q 372 613 372 1216 
Q 372 1325 387 1461 
Q 403 1597 434 1753 
L 991 4666 
z
" transform="scale(0.015625)"/>
      <path id="DejaVuSans-Oblique-65" d="M 3078 2063 
Q 3088 2113 3092 2166 
Q 3097 2219 3097 2272 
Q 3097 2653 2873 2875 
Q 2650 3097 2266 3097 
Q 1838 3097 1509 2826 
Q 1181 2556 1013 2059 
L 3078 2063 
z
M 3578 1613 
L 903 1613 
Q 884 1494 878 1425 
Q 872 1356 872 1306 
Q 872 872 1139 634 
Q 1406 397 1894 397 
Q 2269 397 2603 481 
Q 2938 566 3225 728 
L 3116 159 
Q 2806 34 2476 -28 
Q 2147 -91 1806 -91 
Q 1078 -91 686 257 
Q 294 606 294 1247 
Q 294 1794 489 2264 
Q 684 2734 1063 3103 
Q 1306 3334 1642 3459 
Q 1978 3584 2356 3584 
Q 2950 3584 3301 3228 
Q 3653 2872 3653 2272 
Q 3653 2128 3634 1964 
Q 3616 1800 3578 1613 
z
" transform="scale(0.015625)"/>
     </defs>
     <use xlink:href="#DejaVuSans-Oblique-55" transform="translate(0 0.09375)"/>
     <use xlink:href="#DejaVuSans-Oblique-65" transform="translate(73.193359 -16.3125) scale(0.7)"/>
    </g>
   </g>
   <g id="patch_4">
    <path d="M 282.717286 102.997656 
C 283.433335 102.997656 284.120152 102.713167 284.626475 102.206845 
C 285.132797 101.700522 285.417286 101.013705 285.417286 100.297656 
C 285.417286 99.581608 285.132797 98.894791 284.626475 98.388468 
C 284.120152 97.882145 283.433335 97.597656 282.717286 97.597656 
C 282.001238 97.597656 281.314421 97.882145 280.808098 98.388468 
C 280.301775 98.894791 280.017286 99.581608 280.017286 100.297656 
C 280.017286 101.013705 280.301775 101.700522 280.808098 102.206845 
C 281.314421 102.713167 282.001238 102.997656 282.717286 102.997656 
z
" clip-path="url(#p7edb2749f4)" style="stroke: #000000; stroke-width: 2; stroke-linejoin: miter"/>
   </g>
   <g id="text_3">
    <!-- $R_2$ -->
    <g transform="translate(221.404786 13.098047) scale(0.125 -0.125)">
     <defs>
      <path id="DejaVuSans-Oblique-52" d="M 1613 4147 
L 1294 2491 
L 2106 2491 
Q 2584 2491 2879 2755 
Q 3175 3019 3175 3444 
Q 3175 3784 2976 3965 
Q 2778 4147 2406 4147 
L 1613 4147 
z
M 2772 2241 
Q 2972 2194 3105 2009 
Q 3238 1825 3413 1275 
L 3809 0 
L 3144 0 
L 2778 1197 
Q 2638 1659 2453 1815 
Q 2269 1972 1888 1972 
L 1191 1972 
L 806 0 
L 172 0 
L 1081 4666 
L 2503 4666 
Q 3150 4666 3495 4373 
Q 3841 4081 3841 3531 
Q 3841 3044 3547 2687 
Q 3253 2331 2772 2241 
z
" transform="scale(0.015625)"/>
      <path id="DejaVuSans-32" d="M 1228 531 
L 3431 531 
L 3431 0 
L 469 0 
L 469 531 
Q 828 903 1448 1529 
Q 2069 2156 2228 2338 
Q 2531 2678 2651 2914 
Q 2772 3150 2772 3378 
Q 2772 3750 2511 3984 
Q 2250 4219 1831 4219 
Q 1534 4219 1204 4116 
Q 875 4013 500 3803 
L 500 4441 
Q 881 4594 1212 4672 
Q 1544 4750 1819 4750 
Q 2544 4750 2975 4387 
Q 3406 4025 3406 3419 
Q 3406 3131 3298 2873 
Q 3191 2616 2906 2266 
Q 2828 2175 2409 1742 
Q 1991 1309 1228 531 
z
" transform="scale(0.015625)"/>
     </defs>
     <use xlink:href="#DejaVuSans-Oblique-52" transform="translate(0 0.09375)"/>
     <use xlink:href="#DejaVuSans-32" transform="translate(69.482422 -16.3125) scale(0.7)"/>
    </g>
   </g>
   <g id="patch_5">
    <path d="M 354.717286 102.997656 
C 355.433335 102.997656 356.120152 102.713167 356.626475 102.206845 
C 357.132797 101.700522 357.417286 101.013705 357.417286 100.297656 
C 357.417286 99.581608 357.132797 98.894791 356.626475 98.388468 
C 356.120152 97.882145 355.433335 97.597656 354.717286 97.597656 
C 354.001238 97.597656 353.314421 97.882145 352.808098 98.388468 
C 352.301775 98.894791 352.017286 99.581608 352.017286 100.297656 
C 352.017286 101.013705 352.301775 101.700522 352.808098 102.206845 
C 353.314421 102.713167 354.001238 102.997656 354.717286 102.997656 
z
" clip-path="url(#p7edb2749f4)" style="fill: #ffffff; stroke: #000000; stroke-width: 2; stroke-linejoin: miter"/>
   </g>
   <g id="text_4">
    <!-- $U_a$ -->
    <g transform="translate(361.017286 103.746875) scale(0.125 -0.125)">
     <defs>
      <path id="DejaVuSans-Oblique-61" d="M 3438 1997 
L 3047 0 
L 2472 0 
L 2578 531 
Q 2325 219 2001 64 
Q 1678 -91 1281 -91 
Q 834 -91 548 182 
Q 263 456 263 884 
Q 263 1497 752 1853 
Q 1241 2209 2100 2209 
L 2900 2209 
L 2931 2363 
Q 2938 2388 2941 2417 
Q 2944 2447 2944 2509 
Q 2944 2788 2717 2942 
Q 2491 3097 2081 3097 
Q 1800 3097 1504 3025 
Q 1209 2953 897 2809 
L 997 3341 
Q 1322 3463 1633 3523 
Q 1944 3584 2234 3584 
Q 2853 3584 3176 3315 
Q 3500 3047 3500 2534 
Q 3500 2431 3484 2292 
Q 3469 2153 3438 1997 
z
M 2816 1759 
L 2241 1759 
Q 1534 1759 1195 1570 
Q 856 1381 856 984 
Q 856 709 1029 553 
Q 1203 397 1509 397 
Q 1978 397 2328 733 
Q 2678 1069 2791 1631 
L 2816 1759 
z
" transform="scale(0.015625)"/>
     </defs>
     <use xlink:href="#DejaVuSans-Oblique-55" transform="translate(0 0.09375)"/>
     <use xlink:href="#DejaVuSans-Oblique-61" transform="translate(73.193359 -16.3125) scale(0.7)"/>
    </g>
   </g>
  </g>
 </g>
 <defs>
  <clipPath id="p7edb2749f4">
   <rect x="5.307886" y="12.970656" width="368.876515" height="139.194"/>
  </clipPath>
 </defs>
</svg>