<?xml version="1.0" encoding="utf-8" standalone="no"?>
<!DOCTYPE svg PUBLIC "-//W3C//DTD SVG 1.1//EN"
  "http://www.w3.org/Graphics/SVG/1.1/DTD/svg11.dtd">
<svg xmlns:xlink="http://www.w3.org/1999/xlink" width="328.298pt" height="149.562pt" viewBox="0 0 328.298 149.562" xmlns="http://www.w3.org/2000/svg" version="1.1">
 <metadata>
  <rdf:RDF xmlns:dc="http://purl.org/dc/elements/1.1/" xmlns:cc="http://creativecommons.org/ns#" xmlns:rdf="http://www.w3.org/1999/02/22-rdf-syntax-ns#">
   <cc:Work>
    <dc:type rdf:resource="http://purl.org/dc/dcmitype/StillImage"/>
    <dc:date>2023-10-20T19:44:09.478701</dc:date>
    <dc:format>image/svg+xml</dc:format>
    <dc:creator>
     <cc:Agent>
      <dc:title>Matplotlib v3.8.0, https://matplotlib.org/</dc:title>
     </cc:Agent>
    </dc:creator>
   </cc:Work>
  </rdf:RDF>
 </metadata>
 <defs>
  <style type="text/css">*{stroke-linejoin: round; stroke-linecap: butt}</style>
 </defs>
 <g id="figure_1">
  <g id="patch_1">
   <path d="M 0 149.562 
L 328.298 149.562 
L 328.298 0 
L 0 0 
z
" style="fill: #ffffff"/>
  </g>
  <g id="axes_1">
   <g id="patch_2">
    <path d="M 242.06 37.791 
L 229.46 28.791 
L 242.06 19.791 
L 242.06 37.791 
z
" clip-path="url(#pba86b29bfa)" style="fill: none; stroke: #000000; stroke-width: 2; stroke-linecap: round"/>
   </g>
   <g id="patch_3">
    <path d="M 208.76 76.491 
L 199.76 89.091 
L 190.76 76.491 
L 208.76 76.491 
z
" clip-path="url(#pba86b29bfa)" style="fill: none; stroke: #000000; stroke-width: 2; stroke-linecap: round"/>
   </g>
   <g id="line2d_1">
    <path d="M 28.4 14.391 
L 46.4 14.391 
L 64.4 14.391 
" clip-path="url(#pba86b29bfa)" style="fill: none; stroke: #000000; stroke-width: 2; stroke-linecap: round"/>
   </g>
   <g id="line2d_2">
    <path d="M 60.08 43.191 
M 70.88 37.791 
L 87.44 32.391 
M 96.08 28.791 
" clip-path="url(#pba86b29bfa)" style="fill: none; stroke: #000000; stroke-width: 2; stroke-linecap: round"/>
   </g>
   <g id="line2d_3">
    <path d="M 91.76 28.791 
L 142.52 28.791 
M 142.52 19.791 
L 142.52 37.791 
M 149 19.791 
L 149 37.791 
M 149 28.791 
L 199.76 28.791 
" clip-path="url(#pba86b29bfa)" style="fill: none; stroke: #000000; stroke-width: 2; stroke-linecap: round"/>
   </g>
   <g id="line2d_4">
    <path d="M 199.76 28.791 
L 229.46 28.791 
M 229.46 37.791 
L 229.46 19.791 
M 242.06 28.791 
L 271.76 28.791 
" clip-path="url(#pba86b29bfa)" style="fill: none; stroke: #000000; stroke-width: 2; stroke-linecap: round"/>
   </g>
   <g id="line2d_5">
    <path d="M 271.76 28.791 
L 289.76 28.791 
L 307.76 28.791 
" clip-path="url(#pba86b29bfa)" style="fill: none; stroke: #000000; stroke-width: 2; stroke-linecap: round"/>
   </g>
   <g id="line2d_6">
    <path d="M 271.76 28.791 
L 271.76 79.551 
M 280.76 79.551 
L 262.76 79.551 
M 280.76 86.031 
L 262.76 86.031 
M 271.76 86.031 
L 271.76 136.791 
" clip-path="url(#pba86b29bfa)" style="fill: none; stroke: #000000; stroke-width: 2; stroke-linecap: round"/>
   </g>
   <g id="line2d_7">
    <path d="M 199.76 28.791 
L 199.76 76.491 
M 208.76 89.091 
L 190.76 89.091 
M 199.76 89.091 
L 199.76 136.791 
" clip-path="url(#pba86b29bfa)" style="fill: none; stroke: #000000; stroke-width: 2; stroke-linecap: round"/>
   </g>
   <g id="line2d_8">
    <path d="M 199.76 136.791 
L 271.76 136.791 
" clip-path="url(#pba86b29bfa)" style="fill: none; stroke: #000000; stroke-width: 2; stroke-linecap: round"/>
   </g>
   <g id="line2d_9">
    <path d="M 271.76 136.791 
L 289.76 136.791 
L 307.76 136.791 
" clip-path="url(#pba86b29bfa)" style="fill: none; stroke: #000000; stroke-width: 2; stroke-linecap: round"/>
   </g>
   <g id="line2d_10">
    <path d="M 199.76 136.791 
L 132.08 136.791 
L 64.4 136.791 
" clip-path="url(#pba86b29bfa)" style="fill: none; stroke: #000000; stroke-width: 2; stroke-linecap: round"/>
   </g>
   <g id="line2d_11">
    <path d="M 64.4 136.791 
L 64.4 89.991 
L 64.4 43.191 
" clip-path="url(#pba86b29bfa)" style="fill: none; stroke: #000000; stroke-width: 2; stroke-linecap: round"/>
   </g>
   <g id="line2d_12">
    <path d="M 64.4 136.791 
L 46.4 136.791 
L 28.4 136.791 
" clip-path="url(#pba86b29bfa)" style="fill: none; stroke: #000000; stroke-width: 2; stroke-linecap: round"/>
   </g>
   <g id="patch_4">
    <path d="M 28.4 17.091 
C 29.116048 17.091 29.802866 16.806511 30.309188 16.300188 
C 30.815511 15.793866 31.1 15.107048 31.1 14.391 
C 31.1 13.674952 30.815511 12.988134 30.309188 12.481812 
C 29.802866 11.975489 29.116048 11.691 28.4 11.691 
C 27.683952 11.691 26.997134 11.975489 26.490812 12.481812 
C 25.984489 12.988134 25.7 13.674952 25.7 14.391 
C 25.7 15.107048 25.984489 15.793866 26.490812 16.300188 
C 26.997134 16.806511 27.683952 17.091 28.4 17.091 
z
" clip-path="url(#pba86b29bfa)" style="stroke: #000000; stroke-width: 2; stroke-linejoin: miter"/>
   </g>
   <g id="text_1">
    <!-- $+5$ -->
    <g transform="translate(3.6 17.840219) scale(0.125 -0.125)">
     <defs>
      <path id="DejaVuSans-2b" d="M 2944 4013 
L 2944 2272 
L 4684 2272 
L 4684 1741 
L 2944 1741 
L 2944 0 
L 2419 0 
L 2419 1741 
L 678 1741 
L 678 2272 
L 2419 2272 
L 2419 4013 
L 2944 4013 
z
" transform="scale(0.015625)"/>
      <path id="DejaVuSans-35" d="M 691 4666 
L 3169 4666 
L 3169 4134 
L 1269 4134 
L 1269 2991 
Q 1406 3038 1543 3061 
Q 1681 3084 1819 3084 
Q 2600 3084 3056 2656 
Q 3513 2228 3513 1497 
Q 3513 744 3044 326 
Q 2575 -91 1722 -91 
Q 1428 -91 1123 -41 
Q 819 9 494 109 
L 494 744 
Q 775 591 1075 516 
Q 1375 441 1709 441 
Q 2250 441 2565 725 
Q 2881 1009 2881 1497 
Q 2881 1984 2565 2268 
Q 2250 2553 1709 2553 
Q 1456 2553 1204 2497 
Q 953 2441 691 2322 
L 691 4666 
z
" transform="scale(0.015625)"/>
     </defs>
     <use xlink:href="#DejaVuSans-2b" transform="translate(0 0.09375)"/>
     <use xlink:href="#DejaVuSans-35" transform="translate(83.789062 0.09375)"/>
    </g>
   </g>
   <g id="patch_5">
    <path d="M 91.76 33.111 
C 92.905677 33.111 94.004585 32.655818 94.814701 31.845701 
C 95.624818 31.035585 96.08 29.936677 96.08 28.791 
C 96.08 27.645323 95.624818 26.546415 94.814701 25.736299 
C 94.004585 24.926182 92.905677 24.471 91.76 24.471 
C 90.614323 24.471 89.515415 24.926182 88.705299 25.736299 
C 87.895182 26.546415 87.44 27.645323 87.44 28.791 
C 87.44 29.936677 87.895182 31.035585 88.705299 31.845701 
C 89.515415 32.655818 90.614323 33.111 91.76 33.111 
z
" clip-path="url(#pba86b29bfa)" style="fill: #ffffff; stroke: #000000; stroke-width: 2; stroke-linejoin: miter"/>
   </g>
   <g id="patch_6">
    <path d="M 64.4 18.711 
C 65.545677 18.711 66.644585 18.255818 67.454701 17.445701 
C 68.264818 16.635585 68.72 15.536677 68.72 14.391 
C 68.72 13.245323 68.264818 12.146415 67.454701 11.336299 
C 66.644585 10.526182 65.545677 10.071 64.4 10.071 
C 63.254323 10.071 62.155415 10.526182 61.345299 11.336299 
C 60.535182 12.146415 60.08 13.245323 60.08 14.391 
C 60.08 15.536677 60.535182 16.635585 61.345299 17.445701 
C 62.155415 18.255818 63.254323 18.711 64.4 18.711 
z
" clip-path="url(#pba86b29bfa)" style="fill: #ffffff; stroke: #000000; stroke-width: 2; stroke-linejoin: miter"/>
   </g>
   <g id="patch_7">
    <path d="M 64.4 47.511 
C 65.545677 47.511 66.644585 47.055818 67.454701 46.245701 
C 68.264818 45.435585 68.72 44.336677 68.72 43.191 
C 68.72 42.045323 68.264818 40.946415 67.454701 40.136299 
C 66.644585 39.326182 65.545677 38.871 64.4 38.871 
C 63.254323 38.871 62.155415 39.326182 61.345299 40.136299 
C 60.535182 40.946415 60.08 42.045323 60.08 43.191 
C 60.08 44.336677 60.535182 45.435585 61.345299 46.245701 
C 62.155415 47.055818 63.254323 47.511 64.4 47.511 
z
" clip-path="url(#pba86b29bfa)" style="fill: #ffffff; stroke: #000000; stroke-width: 2; stroke-linejoin: miter"/>
   </g>
   <g id="patch_8">
    <path d="M 199.76 31.491 
C 200.476048 31.491 201.162866 31.206511 201.669188 30.700188 
C 202.175511 30.193866 202.46 29.507048 202.46 28.791 
C 202.46 28.074952 202.175511 27.388134 201.669188 26.881812 
C 201.162866 26.375489 200.476048 26.091 199.76 26.091 
C 199.043952 26.091 198.357134 26.375489 197.850812 26.881812 
C 197.344489 27.388134 197.06 28.074952 197.06 28.791 
C 197.06 29.507048 197.344489 30.193866 197.850812 30.700188 
C 198.357134 31.206511 199.043952 31.491 199.76 31.491 
z
" clip-path="url(#pba86b29bfa)" style="stroke: #000000; stroke-width: 2; stroke-linejoin: miter"/>
   </g>
   <g id="text_2">
    <!-- + -->
    <g transform="translate(114.197695 13.591391) scale(0.125 -0.125)">
     <use xlink:href="#DejaVuSans-2b"/>
    </g>
   </g>
   <g id="text_3">
    <!-- $5V$ -->
    <g transform="translate(138.7975 13.591391) scale(0.125 -0.125)">
     <defs>
      <path id="DejaVuSans-Oblique-56" d="M 1319 0 
L 500 4666 
L 1119 4666 
L 1797 653 
L 4063 4666 
L 4750 4666 
L 2053 0 
L 1319 0 
z
" transform="scale(0.015625)"/>
     </defs>
     <use xlink:href="#DejaVuSans-35" transform="translate(0 0.09375)"/>
     <use xlink:href="#DejaVuSans-Oblique-56" transform="translate(63.623047 0.09375)"/>
    </g>
   </g>
   <g id="text_4">
    <!-- - -->
    <g transform="translate(172.530117 13.591391) scale(0.125 -0.125)">
     <defs>
      <path id="DejaVuSans-2d" d="M 313 2009 
L 1997 2009 
L 1997 1497 
L 313 1497 
L 313 2009 
z
" transform="scale(0.015625)"/>
     </defs>
     <use xlink:href="#DejaVuSans-2d"/>
    </g>
   </g>
   <g id="patch_9">
    <path d="M 307.76 31.491 
C 308.476048 31.491 309.162866 31.206511 309.669188 30.700188 
C 310.175511 30.193866 310.46 29.507048 310.46 28.791 
C 310.46 28.074952 310.175511 27.388134 309.669188 26.881812 
C 309.162866 26.375489 308.476048 26.091 307.76 26.091 
C 307.043952 26.091 306.357134 26.375489 305.850812 26.881812 
C 305.344489 27.388134 305.06 28.074952 305.06 28.791 
C 305.06 29.507048 305.344489 30.193866 305.850812 30.700188 
C 306.357134 31.206511 307.043952 31.491 307.76 31.491 
z
" clip-path="url(#pba86b29bfa)" style="fill: #ffffff; stroke: #000000; stroke-width: 2; stroke-linejoin: miter"/>
   </g>
   <g id="text_5">
    <!-- - -->
    <g transform="translate(254.650234 59.240219) scale(0.125 -0.125)">
     <use xlink:href="#DejaVuSans-2d"/>
    </g>
   </g>
   <g id="text_6">
    <!-- $5V$ -->
    <g transform="translate(242.535 86.240219) scale(0.125 -0.125)">
     <use xlink:href="#DejaVuSans-35" transform="translate(0 0.09375)"/>
     <use xlink:href="#DejaVuSans-Oblique-56" transform="translate(63.623047 0.09375)"/>
    </g>
   </g>
   <g id="text_7">
    <!-- + -->
    <g transform="translate(248.685391 113.240219) scale(0.125 -0.125)">
     <use xlink:href="#DejaVuSans-2b"/>
    </g>
   </g>
   <g id="patch_10">
    <path d="M 199.76 139.491 
C 200.476048 139.491 201.162866 139.206511 201.669188 138.700188 
C 202.175511 138.193866 202.46 137.507048 202.46 136.791 
C 202.46 136.074952 202.175511 135.388134 201.669188 134.881812 
C 201.162866 134.375489 200.476048 134.091 199.76 134.091 
C 199.043952 134.091 198.357134 134.375489 197.850812 134.881812 
C 197.344489 135.388134 197.06 136.074952 197.06 136.791 
C 197.06 137.507048 197.344489 138.193866 197.850812 138.700188 
C 198.357134 139.206511 199.043952 139.491 199.76 139.491 
z
" clip-path="url(#pba86b29bfa)" style="stroke: #000000; stroke-width: 2; stroke-linejoin: miter"/>
   </g>
   <g id="patch_11">
    <path d="M 271.76 139.491 
C 272.476048 139.491 273.162866 139.206511 273.669188 138.700188 
C 274.175511 138.193866 274.46 137.507048 274.46 136.791 
C 274.46 136.074952 274.175511 135.388134 273.669188 134.881812 
C 273.162866 134.375489 272.476048 134.091 271.76 134.091 
C 271.043952 134.091 270.357134 134.375489 269.850812 134.881812 
C 269.344489 135.388134 269.06 136.074952 269.06 136.791 
C 269.06 137.507048 269.344489 138.193866 269.850812 138.700188 
C 270.357134 139.206511 271.043952 139.491 271.76 139.491 
z
" clip-path="url(#pba86b29bfa)" style="stroke: #000000; stroke-width: 2; stroke-linejoin: miter"/>
   </g>
   <g id="patch_12">
    <path d="M 307.76 139.491 
C 308.476048 139.491 309.162866 139.206511 309.669188 138.700188 
C 310.175511 138.193866 310.46 137.507048 310.46 136.791 
C 310.46 136.074952 310.175511 135.388134 309.669188 134.881812 
C 309.162866 134.375489 308.476048 134.091 307.76 134.091 
C 307.043952 134.091 306.357134 134.375489 305.850812 134.881812 
C 305.344489 135.388134 305.06 136.074952 305.06 136.791 
C 305.06 137.507048 305.344489 138.193866 305.850812 138.700188 
C 306.357134 139.206511 307.043952 139.491 307.76 139.491 
z
" clip-path="url(#pba86b29bfa)" style="fill: #ffffff; stroke: #000000; stroke-width: 2; stroke-linejoin: miter"/>
   </g>
   <g id="text_8">
    <!-- - -->
    <g transform="translate(305.505117 113.240219) scale(0.125 -0.125)">
     <use xlink:href="#DejaVuSans-2d"/>
    </g>
   </g>
   <g id="text_9">
    <!-- $U_a$ -->
    <g transform="translate(300.3225 86.240219) scale(0.125 -0.125)">
     <defs>
      <path id="DejaVuSans-Oblique-55" d="M 991 4666 
L 1625 4666 
L 1075 1831 
Q 1041 1641 1027 1517 
Q 1013 1394 1013 1300 
Q 1013 869 1253 645 
Q 1494 422 1959 422 
Q 2563 422 2898 753 
Q 3234 1084 3378 1831 
L 3928 4666 
L 4563 4666 
L 4000 1753 
Q 3816 809 3300 359 
Q 2784 -91 1888 -91 
Q 1188 -91 780 261 
Q 372 613 372 1216 
Q 372 1325 387 1461 
Q 403 1597 434 1753 
L 991 4666 
z
" transform="scale(0.015625)"/>
      <path id="DejaVuSans-Oblique-61" d="M 3438 1997 
L 3047 0 
L 2472 0 
L 2578 531 
Q 2325 219 2001 64 
Q 1678 -91 1281 -91 
Q 834 -91 548 182 
Q 263 456 263 884 
Q 263 1497 752 1853 
Q 1241 2209 2100 2209 
L 2900 2209 
L 2931 2363 
Q 2938 2388 2941 2417 
Q 2944 2447 2944 2509 
Q 2944 2788 2717 2942 
Q 2491 3097 2081 3097 
Q 1800 3097 1504 3025 
Q 1209 2953 897 2809 
L 997 3341 
Q 1322 3463 1633 3523 
Q 1944 3584 2234 3584 
Q 2853 3584 3176 3315 
Q 3500 3047 3500 2534 
Q 3500 2431 3484 2292 
Q 3469 2153 3438 1997 
z
M 2816 1759 
L 2241 1759 
Q 1534 1759 1195 1570 
Q 856 1381 856 984 
Q 856 709 1029 553 
Q 1203 397 1509 397 
Q 1978 397 2328 733 
Q 2678 1069 2791 1631 
L 2816 1759 
z
" transform="scale(0.015625)"/>
     </defs>
     <use xlink:href="#DejaVuSans-Oblique-55" transform="translate(0 0.09375)"/>
     <use xlink:href="#DejaVuSans-Oblique-61" transform="translate(73.193359 -16.3125) scale(0.7)"/>
    </g>
   </g>
   <g id="text_10">
    <!-- + -->
    <g transform="translate(302.522695 59.240219) scale(0.125 -0.125)">
     <use xlink:href="#DejaVuSans-2b"/>
    </g>
   </g>
   <g id="patch_13">
    <path d="M 64.4 139.491 
C 65.116048 139.491 65.802866 139.206511 66.309188 138.700188 
C 66.815511 138.193866 67.1 137.507048 67.1 136.791 
C 67.1 136.074952 66.815511 135.388134 66.309188 134.881812 
C 65.802866 134.375489 65.116048 134.091 64.4 134.091 
C 63.683952 134.091 62.997134 134.375489 62.490812 134.881812 
C 61.984489 135.388134 61.7 136.074952 61.7 136.791 
C 61.7 137.507048 61.984489 138.193866 62.490812 138.700188 
C 62.997134 139.206511 63.683952 139.491 64.4 139.491 
z
" clip-path="url(#pba86b29bfa)" style="stroke: #000000; stroke-width: 2; stroke-linejoin: miter"/>
   </g>
   <g id="patch_14">
    <path d="M 28.4 139.491 
C 29.116048 139.491 29.802866 139.206511 30.309188 138.700188 
C 30.815511 138.193866 31.1 137.507048 31.1 136.791 
C 31.1 136.074952 30.815511 135.388134 30.309188 134.881812 
C 29.802866 134.375489 29.116048 134.091 28.4 134.091 
C 27.683952 134.091 26.997134 134.375489 26.490812 134.881812 
C 25.984489 135.388134 25.7 136.074952 25.7 136.791 
C 25.7 137.507048 25.984489 138.193866 26.490812 138.700188 
C 26.997134 139.206511 27.683952 139.491 28.4 139.491 
z
" clip-path="url(#pba86b29bfa)" style="fill: #ffffff; stroke: #000000; stroke-width: 2; stroke-linejoin: miter"/>
   </g>
   <g id="text_11">
    <!-- - -->
    <g transform="translate(26.145117 109.640219) scale(0.125 -0.125)">
     <use xlink:href="#DejaVuSans-2d"/>
    </g>
   </g>
   <g id="text_12">
    <!-- $U_e$ -->
    <g transform="translate(20.9625 79.040219) scale(0.125 -0.125)">
     <defs>
      <path id="DejaVuSans-Oblique-65" d="M 3078 2063 
Q 3088 2113 3092 2166 
Q 3097 2219 3097 2272 
Q 3097 2653 2873 2875 
Q 2650 3097 2266 3097 
Q 1838 3097 1509 2826 
Q 1181 2556 1013 2059 
L 3078 2063 
z
M 3578 1613 
L 903 1613 
Q 884 1494 878 1425 
Q 872 1356 872 1306 
Q 872 872 1139 634 
Q 1406 397 1894 397 
Q 2269 397 2603 481 
Q 2938 566 3225 728 
L 3116 159 
Q 2806 34 2476 -28 
Q 2147 -91 1806 -91 
Q 1078 -91 686 257 
Q 294 606 294 1247 
Q 294 1794 489 2264 
Q 684 2734 1063 3103 
Q 1306 3334 1642 3459 
Q 1978 3584 2356 3584 
Q 2950 3584 3301 3228 
Q 3653 2872 3653 2272 
Q 3653 2128 3634 1964 
Q 3616 1800 3578 1613 
z
" transform="scale(0.015625)"/>
     </defs>
     <use xlink:href="#DejaVuSans-Oblique-55" transform="translate(0 0.09375)"/>
     <use xlink:href="#DejaVuSans-Oblique-65" transform="translate(73.193359 -16.3125) scale(0.7)"/>
    </g>
   </g>
   <g id="text_13">
    <!-- + -->
    <g transform="translate(23.162695 48.440219) scale(0.125 -0.125)">
     <use xlink:href="#DejaVuSans-2b"/>
    </g>
   </g>
  </g>
 </g>
 <defs>
  <clipPath id="pba86b29bfa">
   <rect x="11.462" y="3.6" width="313.236" height="142.362"/>
  </clipPath>
 </defs>
</svg>