<?xml version="1.0" encoding="utf-8" standalone="no"?>
<!DOCTYPE svg PUBLIC "-//W3C//DTD SVG 1.1//EN"
  "http://www.w3.org/Graphics/SVG/1.1/DTD/svg11.dtd">
<svg xmlns:xlink="http://www.w3.org/1999/xlink" width="300.51pt" height="81.72pt" viewBox="0 0 300.51 81.72" xmlns="http://www.w3.org/2000/svg" version="1.1">
 <metadata>
  <rdf:RDF xmlns:dc="http://purl.org/dc/elements/1.1/" xmlns:cc="http://creativecommons.org/ns#" xmlns:rdf="http://www.w3.org/1999/02/22-rdf-syntax-ns#">
   <cc:Work>
    <dc:type rdf:resource="http://purl.org/dc/dcmitype/StillImage"/>
    <dc:date>2023-05-01T23:11:06.830305</dc:date>
    <dc:format>image/svg+xml</dc:format>
    <dc:creator>
     <cc:Agent>
      <dc:title>Matplotlib v3.7.1, https://matplotlib.org/</dc:title>
     </cc:Agent>
    </dc:creator>
   </cc:Work>
  </rdf:RDF>
 </metadata>
 <defs>
  <style type="text/css">*{stroke-linejoin: round; stroke-linecap: butt}</style>
 </defs>
 <g id="figure_1">
  <g id="patch_1">
   <path d="M 0 81.72 
L 300.51 81.72 
L 300.51 0 
L 0 0 
z
" style="fill: #ffffff"/>
  </g>
  <g id="axes_1">
   <g id="line2d_1">
    <path d="M 27.855 71.46 
L 134.955 71.46 
L 134.955 10.26 
L 27.855 10.26 
L 27.855 71.46 
" clip-path="url(#p8aaee9d287)" style="fill: none; stroke: #000000; stroke-width: 2; stroke-linecap: round"/>
   </g>
   <g id="line2d_2">
    <path d="M 27.855 40.86 
L 12.555 40.86 
" clip-path="url(#p8aaee9d287)" style="fill: none; stroke: #000000; stroke-width: 2; stroke-linecap: round"/>
   </g>
   <g id="line2d_3">
    <path d="M 134.955 40.86 
L 150.255 40.86 
" clip-path="url(#p8aaee9d287)" style="fill: none; stroke: #000000; stroke-width: 2; stroke-linecap: round"/>
   </g>
   <g id="line2d_4">
    <path d="M 165.555 71.46 
L 272.655 71.46 
L 272.655 10.26 
L 165.555 10.26 
L 165.555 71.46 
" clip-path="url(#p8aaee9d287)" style="fill: none; stroke: #000000; stroke-width: 2; stroke-linecap: round"/>
   </g>
   <g id="line2d_5">
    <path d="M 165.555 40.86 
L 150.255 40.86 
" clip-path="url(#p8aaee9d287)" style="fill: none; stroke: #000000; stroke-width: 2; stroke-linecap: round"/>
   </g>
   <g id="line2d_6">
    <path d="M 272.655 40.86 
L 287.955 40.86 
" clip-path="url(#p8aaee9d287)" style="fill: none; stroke: #000000; stroke-width: 2; stroke-linecap: round"/>
   </g>
   <g id="text_1">
    <g clip-path="url(#p8aaee9d287)">
     <!-- I-Element -->
     <g transform="translate(51.430391 41.249219) scale(0.125 -0.125)">
      <defs>
       <path id="DejaVuSans-49" d="M 628 4666 
L 1259 4666 
L 1259 0 
L 628 0 
L 628 4666 
z
" transform="scale(0.015625)"/>
       <path id="DejaVuSans-2d" d="M 313 2009 
L 1997 2009 
L 1997 1497 
L 313 1497 
L 313 2009 
z
" transform="scale(0.015625)"/>
       <path id="DejaVuSans-45" d="M 628 4666 
L 3578 4666 
L 3578 4134 
L 1259 4134 
L 1259 2753 
L 3481 2753 
L 3481 2222 
L 1259 2222 
L 1259 531 
L 3634 531 
L 3634 0 
L 628 0 
L 628 4666 
z
" transform="scale(0.015625)"/>
       <path id="DejaVuSans-6c" d="M 603 4863 
L 1178 4863 
L 1178 0 
L 603 0 
L 603 4863 
z
" transform="scale(0.015625)"/>
       <path id="DejaVuSans-65" d="M 3597 1894 
L 3597 1613 
L 953 1613 
Q 991 1019 1311 708 
Q 1631 397 2203 397 
Q 2534 397 2845 478 
Q 3156 559 3463 722 
L 3463 178 
Q 3153 47 2828 -22 
Q 2503 -91 2169 -91 
Q 1331 -91 842 396 
Q 353 884 353 1716 
Q 353 2575 817 3079 
Q 1281 3584 2069 3584 
Q 2775 3584 3186 3129 
Q 3597 2675 3597 1894 
z
M 3022 2063 
Q 3016 2534 2758 2815 
Q 2500 3097 2075 3097 
Q 1594 3097 1305 2825 
Q 1016 2553 972 2059 
L 3022 2063 
z
" transform="scale(0.015625)"/>
       <path id="DejaVuSans-6d" d="M 3328 2828 
Q 3544 3216 3844 3400 
Q 4144 3584 4550 3584 
Q 5097 3584 5394 3201 
Q 5691 2819 5691 2113 
L 5691 0 
L 5113 0 
L 5113 2094 
Q 5113 2597 4934 2840 
Q 4756 3084 4391 3084 
Q 3944 3084 3684 2787 
Q 3425 2491 3425 1978 
L 3425 0 
L 2847 0 
L 2847 2094 
Q 2847 2600 2669 2842 
Q 2491 3084 2119 3084 
Q 1678 3084 1418 2786 
Q 1159 2488 1159 1978 
L 1159 0 
L 581 0 
L 581 3500 
L 1159 3500 
L 1159 2956 
Q 1356 3278 1631 3431 
Q 1906 3584 2284 3584 
Q 2666 3584 2933 3390 
Q 3200 3197 3328 2828 
z
" transform="scale(0.015625)"/>
       <path id="DejaVuSans-6e" d="M 3513 2113 
L 3513 0 
L 2938 0 
L 2938 2094 
Q 2938 2591 2744 2837 
Q 2550 3084 2163 3084 
Q 1697 3084 1428 2787 
Q 1159 2491 1159 1978 
L 1159 0 
L 581 0 
L 581 3500 
L 1159 3500 
L 1159 2956 
Q 1366 3272 1645 3428 
Q 1925 3584 2291 3584 
Q 2894 3584 3203 3211 
Q 3513 2838 3513 2113 
z
" transform="scale(0.015625)"/>
       <path id="DejaVuSans-74" d="M 1172 4494 
L 1172 3500 
L 2356 3500 
L 2356 3053 
L 1172 3053 
L 1172 1153 
Q 1172 725 1289 603 
Q 1406 481 1766 481 
L 2356 481 
L 2356 0 
L 1766 0 
Q 1100 0 847 248 
Q 594 497 594 1153 
L 594 3053 
L 172 3053 
L 172 3500 
L 594 3500 
L 594 4494 
L 1172 4494 
z
" transform="scale(0.015625)"/>
      </defs>
      <use xlink:href="#DejaVuSans-49"/>
      <use xlink:href="#DejaVuSans-2d" x="29.492188"/>
      <use xlink:href="#DejaVuSans-45" x="65.576172"/>
      <use xlink:href="#DejaVuSans-6c" x="128.759766"/>
      <use xlink:href="#DejaVuSans-65" x="156.542969"/>
      <use xlink:href="#DejaVuSans-6d" x="218.066406"/>
      <use xlink:href="#DejaVuSans-65" x="315.478516"/>
      <use xlink:href="#DejaVuSans-6e" x="377.001953"/>
      <use xlink:href="#DejaVuSans-74" x="440.380859"/>
     </g>
    </g>
   </g>
   <g id="text_2">
    <g clip-path="url(#p8aaee9d287)">
     <!-- PT1-Element -->
     <g transform="translate(179.411641 41.249219) scale(0.125 -0.125)">
      <defs>
       <path id="DejaVuSans-50" d="M 1259 4147 
L 1259 2394 
L 2053 2394 
Q 2494 2394 2734 2622 
Q 2975 2850 2975 3272 
Q 2975 3691 2734 3919 
Q 2494 4147 2053 4147 
L 1259 4147 
z
M 628 4666 
L 2053 4666 
Q 2838 4666 3239 4311 
Q 3641 3956 3641 3272 
Q 3641 2581 3239 2228 
Q 2838 1875 2053 1875 
L 1259 1875 
L 1259 0 
L 628 0 
L 628 4666 
z
" transform="scale(0.015625)"/>
       <path id="DejaVuSans-54" d="M -19 4666 
L 3928 4666 
L 3928 4134 
L 2272 4134 
L 2272 0 
L 1638 0 
L 1638 4134 
L -19 4134 
L -19 4666 
z
" transform="scale(0.015625)"/>
       <path id="DejaVuSans-31" d="M 794 531 
L 1825 531 
L 1825 4091 
L 703 3866 
L 703 4441 
L 1819 4666 
L 2450 4666 
L 2450 531 
L 3481 531 
L 3481 0 
L 794 0 
L 794 531 
z
" transform="scale(0.015625)"/>
      </defs>
      <use xlink:href="#DejaVuSans-50"/>
      <use xlink:href="#DejaVuSans-54" x="60.302734"/>
      <use xlink:href="#DejaVuSans-31" x="121.386719"/>
      <use xlink:href="#DejaVuSans-2d" x="185.009766"/>
      <use xlink:href="#DejaVuSans-45" x="221.09375"/>
      <use xlink:href="#DejaVuSans-6c" x="284.277344"/>
      <use xlink:href="#DejaVuSans-65" x="312.060547"/>
      <use xlink:href="#DejaVuSans-6d" x="373.583984"/>
      <use xlink:href="#DejaVuSans-65" x="470.996094"/>
      <use xlink:href="#DejaVuSans-6e" x="532.519531"/>
      <use xlink:href="#DejaVuSans-74" x="595.898438"/>
     </g>
    </g>
   </g>
   <g id="patch_2">
    <path d="M 12.555 43.155 
C 13.163641 43.155 13.747436 42.913184 14.17781 42.48281 
C 14.608184 42.052436 14.85 41.468641 14.85 40.86 
C 14.85 40.251359 14.608184 39.667564 14.17781 39.23719 
C 13.747436 38.806816 13.163641 38.565 12.555 38.565 
C 11.946359 38.565 11.362564 38.806816 10.93219 39.23719 
C 10.501816 39.667564 10.26 40.251359 10.26 40.86 
C 10.26 41.468641 10.501816 42.052436 10.93219 42.48281 
C 11.362564 42.913184 11.946359 43.155 12.555 43.155 
z
" clip-path="url(#p8aaee9d287)" style="fill: #ffffff; stroke: #000000; stroke-width: 2; stroke-linejoin: miter"/>
   </g>
   <g id="patch_3">
    <path d="M 287.955 43.155 
C 288.563641 43.155 289.147436 42.913184 289.57781 42.48281 
C 290.008184 42.052436 290.25 41.468641 290.25 40.86 
C 290.25 40.251359 290.008184 39.667564 289.57781 39.23719 
C 289.147436 38.806816 288.563641 38.565 287.955 38.565 
C 287.346359 38.565 286.762564 38.806816 286.33219 39.23719 
C 285.901816 39.667564 285.66 40.251359 285.66 40.86 
C 285.66 41.468641 285.901816 42.052436 286.33219 42.48281 
C 286.762564 42.913184 287.346359 43.155 287.955 43.155 
z
" clip-path="url(#p8aaee9d287)" style="fill: #ffffff; stroke: #000000; stroke-width: 2; stroke-linejoin: miter"/>
   </g>
  </g>
 </g>
 <defs>
  <clipPath id="p8aaee9d287">
   <rect x="7.2" y="7.2" width="286.11" height="67.32"/>
  </clipPath>
 </defs>
</svg>