<?xml version="1.0" encoding="utf-8" standalone="no"?>
<!DOCTYPE svg PUBLIC "-//W3C//DTD SVG 1.1//EN"
  "http://www.w3.org/Graphics/SVG/1.1/DTD/svg11.dtd">
<svg xmlns:xlink="http://www.w3.org/1999/xlink" width="369.54pt" height="155.7pt" viewBox="0 0 369.54 155.7" xmlns="http://www.w3.org/2000/svg" version="1.1">
 <metadata>
  <rdf:RDF xmlns:dc="http://purl.org/dc/elements/1.1/" xmlns:cc="http://creativecommons.org/ns#" xmlns:rdf="http://www.w3.org/1999/02/22-rdf-syntax-ns#">
   <cc:Work>
    <dc:type rdf:resource="http://purl.org/dc/dcmitype/StillImage"/>
    <dc:date>2023-06-14T16:51:36.082515</dc:date>
    <dc:format>image/svg+xml</dc:format>
    <dc:creator>
     <cc:Agent>
      <dc:title>Matplotlib v3.7.1, https://matplotlib.org/</dc:title>
     </cc:Agent>
    </dc:creator>
   </cc:Work>
  </rdf:RDF>
 </metadata>
 <defs>
  <style type="text/css">*{stroke-linejoin: round; stroke-linecap: butt}</style>
 </defs>
 <g id="figure_1">
  <g id="patch_1">
   <path d="M -0 155.7 
L 369.54 155.7 
L 369.54 0 
L -0 0 
z
" style="fill: #ffffff"/>
  </g>
  <g id="axes_1">
   <g id="patch_2">
    <path d="M 70.47 10.35 
L 83.07 19.35 
L 70.47 28.35 
L 70.47 10.35 
z
" clip-path="url(#p2352cf628a)" style="fill: none; stroke: #000000; stroke-width: 2; stroke-linecap: round"/>
   </g>
   <g id="patch_3">
    <path d="M 88.47 131.67 
C 89.615677 131.67 90.714585 131.214818 91.524701 130.404701 
C 92.334818 129.594585 92.79 128.495677 92.79 127.35 
C 92.79 126.204323 92.334818 125.105415 91.524701 124.295299 
C 90.714585 123.485182 89.615677 123.03 88.47 123.03 
C 87.324323 123.03 86.225415 123.485182 85.415299 124.295299 
C 84.605182 125.105415 84.15 126.204323 84.15 127.35 
C 84.15 128.495677 84.605182 129.594585 85.415299 130.404701 
C 86.225415 131.214818 87.324323 131.67 88.47 131.67 
L 88.47 131.67 
z
" clip-path="url(#p2352cf628a)" style="fill: none; stroke: #000000; stroke-width: 2; stroke-linejoin: miter"/>
   </g>
   <g id="patch_4">
    <path d="M 196.47 131.67 
C 197.615677 131.67 198.714585 131.214818 199.524701 130.404701 
C 200.334818 129.594585 200.79 128.495677 200.79 127.35 
C 200.79 126.204323 200.334818 125.105415 199.524701 124.295299 
C 198.714585 123.485182 197.615677 123.03 196.47 123.03 
C 195.324323 123.03 194.225415 123.485182 193.415299 124.295299 
C 192.605182 125.105415 192.15 126.204323 192.15 127.35 
C 192.15 128.495677 192.605182 129.594585 193.415299 130.404701 
C 194.225415 131.214818 195.324323 131.67 196.47 131.67 
L 196.47 131.67 
z
" clip-path="url(#p2352cf628a)" style="fill: none; stroke: #000000; stroke-width: 2; stroke-linejoin: miter"/>
   </g>
   <g id="patch_5">
    <path d="M 178.47 10.35 
L 191.07 19.35 
L 178.47 28.35 
L 178.47 10.35 
z
" clip-path="url(#p2352cf628a)" style="fill: none; stroke: #000000; stroke-width: 2; stroke-linecap: round"/>
   </g>
   <g id="patch_6">
    <path d="M 286.47 10.35 
L 299.07 19.35 
L 286.47 28.35 
L 286.47 10.35 
z
" clip-path="url(#p2352cf628a)" style="fill: none; stroke: #000000; stroke-width: 2; stroke-linecap: round"/>
   </g>
   <g id="line2d_1">
    <path d="M 22.77 19.35 
L 70.47 19.35 
M 83.07 10.35 
L 83.07 28.35 
M 83.07 19.35 
L 130.77 19.35 
" clip-path="url(#p2352cf628a)" style="fill: none; stroke: #000000; stroke-width: 2; stroke-linecap: round"/>
   </g>
   <g id="line2d_2">
    <path d="M 130.77 19.35 
L 130.77 70.11 
M 139.77 70.11 
L 121.77 70.11 
M 139.77 76.59 
L 121.77 76.59 
M 130.77 76.59 
L 130.77 127.35 
" clip-path="url(#p2352cf628a)" style="fill: none; stroke: #000000; stroke-width: 2; stroke-linecap: round"/>
   </g>
   <g id="line2d_3">
    <path d="M 130.77 127.35 
L 92.79 127.35 
M 60.75 127.35 
L 22.77 127.35 
" clip-path="url(#p2352cf628a)" style="fill: none; stroke: #000000; stroke-width: 2; stroke-linecap: round"/>
   </g>
   <g id="line2d_4">
    <path d="M 60.75 145.35 
L 60.75 109.35 
L 84.15 127.35 
L 60.75 145.35 
" clip-path="url(#p2352cf628a)" style="fill: none; stroke: #000000; stroke-width: 2; stroke-linecap: round"/>
   </g>
   <g id="line2d_5">
    <path d="M 130.77 127.35 
L 168.75 127.35 
M 200.79 127.35 
L 238.77 127.35 
" clip-path="url(#p2352cf628a)" style="fill: none; stroke: #000000; stroke-width: 2; stroke-linecap: round"/>
   </g>
   <g id="line2d_6">
    <path d="M 168.75 109.35 
L 192.15 127.35 
L 168.75 145.35 
L 168.75 109.35 
" clip-path="url(#p2352cf628a)" style="fill: none; stroke: #000000; stroke-width: 2; stroke-linecap: round"/>
   </g>
   <g id="line2d_7">
    <path d="M 238.77 127.35 
L 238.77 76.59 
M 229.77 76.59 
L 247.77 76.59 
M 229.77 70.11 
L 247.77 70.11 
M 238.77 70.11 
L 238.77 19.35 
" clip-path="url(#p2352cf628a)" style="fill: none; stroke: #000000; stroke-width: 2; stroke-linecap: round"/>
   </g>
   <g id="line2d_8">
    <path d="M 130.77 19.35 
L 178.47 19.35 
M 191.07 10.35 
L 191.07 28.35 
M 191.07 19.35 
L 238.77 19.35 
" clip-path="url(#p2352cf628a)" style="fill: none; stroke: #000000; stroke-width: 2; stroke-linecap: round"/>
   </g>
   <g id="line2d_9">
    <path d="M 238.77 19.35 
L 286.47 19.35 
M 299.07 10.35 
L 299.07 28.35 
M 299.07 19.35 
L 346.77 19.35 
" clip-path="url(#p2352cf628a)" style="fill: none; stroke: #000000; stroke-width: 2; stroke-linecap: round"/>
   </g>
   <g id="patch_7">
    <path d="M 130.77 22.05 
C 131.486048 22.05 132.172866 21.765511 132.679188 21.259188 
C 133.185511 20.752866 133.47 20.066048 133.47 19.35 
C 133.47 18.633952 133.185511 17.947134 132.679188 17.440812 
C 132.172866 16.934489 131.486048 16.65 130.77 16.65 
C 130.053952 16.65 129.367134 16.934489 128.860812 17.440812 
C 128.354489 17.947134 128.07 18.633952 128.07 19.35 
C 128.07 20.066048 128.354489 20.752866 128.860812 21.259188 
C 129.367134 21.765511 130.053952 22.05 130.77 22.05 
z
" clip-path="url(#p2352cf628a)" style="stroke: #000000; stroke-width: 2; stroke-linejoin: miter"/>
   </g>
   <g id="patch_8">
    <path d="M 22.77 22.05 
C 23.486048 22.05 24.172866 21.765511 24.679188 21.259188 
C 25.185511 20.752866 25.47 20.066048 25.47 19.35 
C 25.47 18.633952 25.185511 17.947134 24.679188 17.440812 
C 24.172866 16.934489 23.486048 16.65 22.77 16.65 
C 22.053952 16.65 21.367134 16.934489 20.860812 17.440812 
C 20.354489 17.947134 20.07 18.633952 20.07 19.35 
C 20.07 20.066048 20.354489 20.752866 20.860812 21.259188 
C 21.367134 21.765511 22.053952 22.05 22.77 22.05 
z
" clip-path="url(#p2352cf628a)" style="fill: #ffffff; stroke: #000000; stroke-width: 2; stroke-linejoin: miter"/>
   </g>
   <g id="patch_9">
    <path d="M 130.77 130.05 
C 131.486048 130.05 132.172866 129.765511 132.679188 129.259188 
C 133.185511 128.752866 133.47 128.066048 133.47 127.35 
C 133.47 126.633952 133.185511 125.947134 132.679188 125.440812 
C 132.172866 124.934489 131.486048 124.65 130.77 124.65 
C 130.053952 124.65 129.367134 124.934489 128.860812 125.440812 
C 128.354489 125.947134 128.07 126.633952 128.07 127.35 
C 128.07 128.066048 128.354489 128.752866 128.860812 129.259188 
C 129.367134 129.765511 130.053952 130.05 130.77 130.05 
z
" clip-path="url(#p2352cf628a)" style="stroke: #000000; stroke-width: 2; stroke-linejoin: miter"/>
   </g>
   <g id="patch_10">
    <path d="M 22.77 130.05 
C 23.486048 130.05 24.172866 129.765511 24.679188 129.259188 
C 25.185511 128.752866 25.47 128.066048 25.47 127.35 
C 25.47 126.633952 25.185511 125.947134 24.679188 125.440812 
C 24.172866 124.934489 23.486048 124.65 22.77 124.65 
C 22.053952 124.65 21.367134 124.934489 20.860812 125.440812 
C 20.354489 125.947134 20.07 126.633952 20.07 127.35 
C 20.07 128.066048 20.354489 128.752866 20.860812 129.259188 
C 21.367134 129.765511 22.053952 130.05 22.77 130.05 
z
" clip-path="url(#p2352cf628a)" style="fill: #ffffff; stroke: #000000; stroke-width: 2; stroke-linejoin: miter"/>
   </g>
   <g id="patch_11">
    <path d="M 238.77 22.05 
C 239.486048 22.05 240.172866 21.765511 240.679188 21.259188 
C 241.185511 20.752866 241.47 20.066048 241.47 19.35 
C 241.47 18.633952 241.185511 17.947134 240.679188 17.440812 
C 240.172866 16.934489 239.486048 16.65 238.77 16.65 
C 238.053952 16.65 237.367134 16.934489 236.860812 17.440812 
C 236.354489 17.947134 236.07 18.633952 236.07 19.35 
C 236.07 20.066048 236.354489 20.752866 236.860812 21.259188 
C 237.367134 21.765511 238.053952 22.05 238.77 22.05 
z
" clip-path="url(#p2352cf628a)" style="stroke: #000000; stroke-width: 2; stroke-linejoin: miter"/>
   </g>
   <g id="patch_12">
    <path d="M 346.77 22.05 
C 347.486048 22.05 348.172866 21.765511 348.679188 21.259188 
C 349.185511 20.752866 349.47 20.066048 349.47 19.35 
C 349.47 18.633952 349.185511 17.947134 348.679188 17.440812 
C 348.172866 16.934489 347.486048 16.65 346.77 16.65 
C 346.053952 16.65 345.367134 16.934489 344.860812 17.440812 
C 344.354489 17.947134 344.07 18.633952 344.07 19.35 
C 344.07 20.066048 344.354489 20.752866 344.860812 21.259188 
C 345.367134 21.765511 346.053952 22.05 346.77 22.05 
z
" clip-path="url(#p2352cf628a)" style="fill: #ffffff; stroke: #000000; stroke-width: 2; stroke-linejoin: miter"/>
   </g>
  </g>
 </g>
 <defs>
  <clipPath id="p2352cf628a">
   <rect x="3.6" y="3.6" width="362.34" height="148.5"/>
  </clipPath>
 </defs>
</svg>