<?xml version="1.0" encoding="utf-8" standalone="no"?>
<!DOCTYPE svg PUBLIC "-//W3C//DTD SVG 1.1//EN"
  "http://www.w3.org/Graphics/SVG/1.1/DTD/svg11.dtd">
<svg xmlns:xlink="http://www.w3.org/1999/xlink" width="864.870469pt" height="44.82pt" viewBox="0 0 864.870469 44.82" xmlns="http://www.w3.org/2000/svg" version="1.1">
 <metadata>
  <rdf:RDF xmlns:dc="http://purl.org/dc/elements/1.1/" xmlns:cc="http://creativecommons.org/ns#" xmlns:rdf="http://www.w3.org/1999/02/22-rdf-syntax-ns#">
   <cc:Work>
    <dc:type rdf:resource="http://purl.org/dc/dcmitype/StillImage"/>
    <dc:date>2023-06-04T22:58:23.627052</dc:date>
    <dc:format>image/svg+xml</dc:format>
    <dc:creator>
     <cc:Agent>
      <dc:title>Matplotlib v3.7.1, https://matplotlib.org/</dc:title>
     </cc:Agent>
    </dc:creator>
   </cc:Work>
  </rdf:RDF>
 </metadata>
 <defs>
  <style type="text/css">*{stroke-linejoin: round; stroke-linecap: butt}</style>
 </defs>
 <g id="figure_1">
  <g id="patch_1">
   <path d="M 0 44.82 
L 864.870469 44.82 
L 864.870469 0 
L 0 0 
z
" style="fill: #ffffff"/>
  </g>
  <g id="axes_1">
   <g id="line2d_1">
    <path d="M 67.470469 5.31 
L 67.470469 39.51 
" clip-path="url(#p1e84e06a8a)" style="fill: none; stroke-dasharray: 1,1.65; stroke-dashoffset: 0; stroke: #dddddd"/>
   </g>
   <g id="line2d_2">
    <path d="M 103.470469 5.31 
L 103.470469 39.51 
" clip-path="url(#p1e84e06a8a)" style="fill: none; stroke-dasharray: 1,1.65; stroke-dashoffset: 0; stroke: #dddddd"/>
   </g>
   <g id="line2d_3">
    <path d="M 139.470469 5.31 
L 139.470469 39.51 
" clip-path="url(#p1e84e06a8a)" style="fill: none; stroke-dasharray: 1,1.65; stroke-dashoffset: 0; stroke: #dddddd"/>
   </g>
   <g id="line2d_4">
    <path d="M 175.470469 5.31 
L 175.470469 39.51 
" clip-path="url(#p1e84e06a8a)" style="fill: none; stroke-dasharray: 1,1.65; stroke-dashoffset: 0; stroke: #dddddd"/>
   </g>
   <g id="line2d_5">
    <path d="M 211.470469 5.31 
L 211.470469 39.51 
" clip-path="url(#p1e84e06a8a)" style="fill: none; stroke-dasharray: 1,1.65; stroke-dashoffset: 0; stroke: #dddddd"/>
   </g>
   <g id="line2d_6">
    <path d="M 247.470469 5.31 
L 247.470469 39.51 
" clip-path="url(#p1e84e06a8a)" style="fill: none; stroke-dasharray: 1,1.65; stroke-dashoffset: 0; stroke: #dddddd"/>
   </g>
   <g id="line2d_7">
    <path d="M 283.470469 5.31 
L 283.470469 39.51 
" clip-path="url(#p1e84e06a8a)" style="fill: none; stroke-dasharray: 1,1.65; stroke-dashoffset: 0; stroke: #dddddd"/>
   </g>
   <g id="line2d_8">
    <path d="M 319.470469 5.31 
L 319.470469 39.51 
" clip-path="url(#p1e84e06a8a)" style="fill: none; stroke-dasharray: 1,1.65; stroke-dashoffset: 0; stroke: #dddddd"/>
   </g>
   <g id="line2d_9">
    <path d="M 355.470469 5.31 
L 355.470469 39.51 
" clip-path="url(#p1e84e06a8a)" style="fill: none; stroke-dasharray: 1,1.65; stroke-dashoffset: 0; stroke: #dddddd"/>
   </g>
   <g id="line2d_10">
    <path d="M 391.470469 5.31 
L 391.470469 39.51 
" clip-path="url(#p1e84e06a8a)" style="fill: none; stroke-dasharray: 1,1.65; stroke-dashoffset: 0; stroke: #dddddd"/>
   </g>
   <g id="line2d_11">
    <path d="M 427.470469 5.31 
L 427.470469 39.51 
" clip-path="url(#p1e84e06a8a)" style="fill: none; stroke-dasharray: 1,1.65; stroke-dashoffset: 0; stroke: #dddddd"/>
   </g>
   <g id="line2d_12">
    <path d="M 463.470469 5.31 
L 463.470469 39.51 
" clip-path="url(#p1e84e06a8a)" style="fill: none; stroke-dasharray: 1,1.65; stroke-dashoffset: 0; stroke: #dddddd"/>
   </g>
   <g id="line2d_13">
    <path d="M 499.470469 5.31 
L 499.470469 39.51 
" clip-path="url(#p1e84e06a8a)" style="fill: none; stroke-dasharray: 1,1.65; stroke-dashoffset: 0; stroke: #dddddd"/>
   </g>
   <g id="line2d_14">
    <path d="M 535.470469 5.31 
L 535.470469 39.51 
" clip-path="url(#p1e84e06a8a)" style="fill: none; stroke-dasharray: 1,1.65; stroke-dashoffset: 0; stroke: #dddddd"/>
   </g>
   <g id="line2d_15">
    <path d="M 571.470469 5.31 
L 571.470469 39.51 
" clip-path="url(#p1e84e06a8a)" style="fill: none; stroke-dasharray: 1,1.65; stroke-dashoffset: 0; stroke: #dddddd"/>
   </g>
   <g id="line2d_16">
    <path d="M 607.470469 5.31 
L 607.470469 39.51 
" clip-path="url(#p1e84e06a8a)" style="fill: none; stroke-dasharray: 1,1.65; stroke-dashoffset: 0; stroke: #dddddd"/>
   </g>
   <g id="line2d_17">
    <path d="M 643.470469 5.31 
L 643.470469 39.51 
" clip-path="url(#p1e84e06a8a)" style="fill: none; stroke-dasharray: 1,1.65; stroke-dashoffset: 0; stroke: #dddddd"/>
   </g>
   <g id="line2d_18">
    <path d="M 679.470469 5.31 
L 679.470469 39.51 
" clip-path="url(#p1e84e06a8a)" style="fill: none; stroke-dasharray: 1,1.65; stroke-dashoffset: 0; stroke: #dddddd"/>
   </g>
   <g id="line2d_19">
    <path d="M 715.470469 5.31 
L 715.470469 39.51 
" clip-path="url(#p1e84e06a8a)" style="fill: none; stroke-dasharray: 1,1.65; stroke-dashoffset: 0; stroke: #dddddd"/>
   </g>
   <g id="line2d_20">
    <path d="M 751.470469 5.31 
L 751.470469 39.51 
" clip-path="url(#p1e84e06a8a)" style="fill: none; stroke-dasharray: 1,1.65; stroke-dashoffset: 0; stroke: #dddddd"/>
   </g>
   <g id="line2d_21">
    <path d="M 787.470469 5.31 
L 787.470469 39.51 
" clip-path="url(#p1e84e06a8a)" style="fill: none; stroke-dasharray: 1,1.65; stroke-dashoffset: 0; stroke: #dddddd"/>
   </g>
   <g id="line2d_22">
    <path d="M 823.470469 5.31 
L 823.470469 39.51 
" clip-path="url(#p1e84e06a8a)" style="fill: none; stroke-dasharray: 1,1.65; stroke-dashoffset: 0; stroke: #dddddd"/>
   </g>
   <g id="patch_2">
    <path d="M 67.470469 28.71 
L 103.470469 28.71 
L 106.170469 19.71 
L 103.470469 10.71 
L 67.470469 10.71 
" clip-path="url(#pbbcd77bca4)" style="fill: #abd9ff; stroke: #000000; stroke-linecap: round"/>
   </g>
   <g id="patch_3">
    <path d="M 108.870469 10.71 
L 106.170469 19.71 
L 108.870469 28.71 
L 211.470469 28.71 
L 214.170469 19.71 
L 211.470469 10.71 
z
" clip-path="url(#pbbcd77bca4)" style="fill: #feffc2; stroke: #000000; stroke-linecap: round"/>
   </g>
   <g id="patch_4">
    <path d="M 216.870469 10.71 
L 214.170469 19.71 
L 216.870469 28.71 
L 247.470469 28.71 
L 250.170469 19.71 
L 247.470469 10.71 
z
" clip-path="url(#pbbcd77bca4)" style="fill: #ffe2ba; stroke: #000000; stroke-linecap: round"/>
   </g>
   <g id="patch_5">
    <path d="M 252.870469 10.71 
L 250.170469 19.71 
L 252.870469 28.71 
L 283.470469 28.71 
L 286.170469 19.71 
L 283.470469 10.71 
z
" clip-path="url(#pbbcd77bca4)" style="fill: #bdfbff; stroke: #000000; stroke-linecap: round"/>
   </g>
   <g id="patch_6">
    <path d="M 288.870469 10.71 
L 286.170469 19.71 
L 288.870469 28.71 
L 391.470469 28.71 
L 394.170469 19.71 
L 391.470469 10.71 
z
" clip-path="url(#pbbcd77bca4)" style="fill: #bdffcb; stroke: #000000; stroke-linecap: round"/>
   </g>
   <g id="patch_7">
    <path d="M 396.870469 10.71 
L 394.170469 19.71 
L 396.870469 28.71 
L 427.470469 28.71 
L 430.170469 19.71 
L 427.470469 10.71 
z
" clip-path="url(#pbbcd77bca4)" style="fill: #bdfbff; stroke: #000000; stroke-linecap: round"/>
   </g>
   <g id="patch_8">
    <path d="M 432.870469 10.71 
L 430.170469 19.71 
L 432.870469 28.71 
L 463.470469 28.71 
L 466.170469 19.71 
L 463.470469 10.71 
z
" clip-path="url(#pbbcd77bca4)" style="fill: #f7b7bd; stroke: #000000; stroke-linecap: round"/>
   </g>
   <g id="patch_9">
    <path d="M 468.870469 10.71 
L 466.170469 19.71 
L 468.870469 28.71 
L 571.470469 28.71 
L 574.170469 19.71 
L 571.470469 10.71 
z
" clip-path="url(#pbbcd77bca4)" style="fill: #feffc2; stroke: #000000; stroke-linecap: round"/>
   </g>
   <g id="patch_10">
    <path d="M 576.870469 10.71 
L 574.170469 19.71 
L 576.870469 28.71 
L 607.470469 28.71 
L 610.170469 19.71 
L 607.470469 10.71 
z
" clip-path="url(#pbbcd77bca4)" style="fill: #ffe2ba; stroke: #000000; stroke-linecap: round"/>
   </g>
   <g id="patch_11">
    <path d="M 612.870469 10.71 
L 610.170469 19.71 
L 612.870469 28.71 
L 643.470469 28.71 
L 646.170469 19.71 
L 643.470469 10.71 
z
" clip-path="url(#pbbcd77bca4)" style="fill: #bdfbff; stroke: #000000; stroke-linecap: round"/>
   </g>
   <g id="patch_12">
    <path d="M 648.870469 10.71 
L 646.170469 19.71 
L 648.870469 28.71 
L 751.470469 28.71 
L 754.170469 19.71 
L 751.470469 10.71 
z
" clip-path="url(#pbbcd77bca4)" style="fill: #bdffcb; stroke: #000000; stroke-linecap: round"/>
   </g>
   <g id="patch_13">
    <path d="M 756.870469 10.71 
L 754.170469 19.71 
L 756.870469 28.71 
L 787.470469 28.71 
L 790.170469 19.71 
L 787.470469 10.71 
z
" clip-path="url(#pbbcd77bca4)" style="fill: #bdfbff; stroke: #000000; stroke-linecap: round"/>
   </g>
   <g id="patch_14">
    <path d="M 823.470469 10.71 
L 792.870469 10.71 
L 790.170469 19.71 
L 792.870469 28.71 
L 823.470469 28.71 
" clip-path="url(#pbbcd77bca4)" style="fill: #e3a5fa; stroke: #000000; stroke-linecap: round"/>
   </g>
   <g id="text_1">
    <!-- Sample RS -->
    <g style="fill: #0000ff" transform="translate(3.6 26.526328) scale(0.105 -0.105)">
     <defs>
      <path id="DejaVuSans-53" d="M 3425 4513 
L 3425 3897 
Q 3066 4069 2747 4153 
Q 2428 4238 2131 4238 
Q 1616 4238 1336 4038 
Q 1056 3838 1056 3469 
Q 1056 3159 1242 3001 
Q 1428 2844 1947 2747 
L 2328 2669 
Q 3034 2534 3370 2195 
Q 3706 1856 3706 1288 
Q 3706 609 3251 259 
Q 2797 -91 1919 -91 
Q 1588 -91 1214 -16 
Q 841 59 441 206 
L 441 856 
Q 825 641 1194 531 
Q 1563 422 1919 422 
Q 2459 422 2753 634 
Q 3047 847 3047 1241 
Q 3047 1584 2836 1778 
Q 2625 1972 2144 2069 
L 1759 2144 
Q 1053 2284 737 2584 
Q 422 2884 422 3419 
Q 422 4038 858 4394 
Q 1294 4750 2059 4750 
Q 2388 4750 2728 4690 
Q 3069 4631 3425 4513 
z
" transform="scale(0.015625)"/>
      <path id="DejaVuSans-61" d="M 2194 1759 
Q 1497 1759 1228 1600 
Q 959 1441 959 1056 
Q 959 750 1161 570 
Q 1363 391 1709 391 
Q 2188 391 2477 730 
Q 2766 1069 2766 1631 
L 2766 1759 
L 2194 1759 
z
M 3341 1997 
L 3341 0 
L 2766 0 
L 2766 531 
Q 2569 213 2275 61 
Q 1981 -91 1556 -91 
Q 1019 -91 701 211 
Q 384 513 384 1019 
Q 384 1609 779 1909 
Q 1175 2209 1959 2209 
L 2766 2209 
L 2766 2266 
Q 2766 2663 2505 2880 
Q 2244 3097 1772 3097 
Q 1472 3097 1187 3025 
Q 903 2953 641 2809 
L 641 3341 
Q 956 3463 1253 3523 
Q 1550 3584 1831 3584 
Q 2591 3584 2966 3190 
Q 3341 2797 3341 1997 
z
" transform="scale(0.015625)"/>
      <path id="DejaVuSans-6d" d="M 3328 2828 
Q 3544 3216 3844 3400 
Q 4144 3584 4550 3584 
Q 5097 3584 5394 3201 
Q 5691 2819 5691 2113 
L 5691 0 
L 5113 0 
L 5113 2094 
Q 5113 2597 4934 2840 
Q 4756 3084 4391 3084 
Q 3944 3084 3684 2787 
Q 3425 2491 3425 1978 
L 3425 0 
L 2847 0 
L 2847 2094 
Q 2847 2600 2669 2842 
Q 2491 3084 2119 3084 
Q 1678 3084 1418 2786 
Q 1159 2488 1159 1978 
L 1159 0 
L 581 0 
L 581 3500 
L 1159 3500 
L 1159 2956 
Q 1356 3278 1631 3431 
Q 1906 3584 2284 3584 
Q 2666 3584 2933 3390 
Q 3200 3197 3328 2828 
z
" transform="scale(0.015625)"/>
      <path id="DejaVuSans-70" d="M 1159 525 
L 1159 -1331 
L 581 -1331 
L 581 3500 
L 1159 3500 
L 1159 2969 
Q 1341 3281 1617 3432 
Q 1894 3584 2278 3584 
Q 2916 3584 3314 3078 
Q 3713 2572 3713 1747 
Q 3713 922 3314 415 
Q 2916 -91 2278 -91 
Q 1894 -91 1617 61 
Q 1341 213 1159 525 
z
M 3116 1747 
Q 3116 2381 2855 2742 
Q 2594 3103 2138 3103 
Q 1681 3103 1420 2742 
Q 1159 2381 1159 1747 
Q 1159 1113 1420 752 
Q 1681 391 2138 391 
Q 2594 391 2855 752 
Q 3116 1113 3116 1747 
z
" transform="scale(0.015625)"/>
      <path id="DejaVuSans-6c" d="M 603 4863 
L 1178 4863 
L 1178 0 
L 603 0 
L 603 4863 
z
" transform="scale(0.015625)"/>
      <path id="DejaVuSans-65" d="M 3597 1894 
L 3597 1613 
L 953 1613 
Q 991 1019 1311 708 
Q 1631 397 2203 397 
Q 2534 397 2845 478 
Q 3156 559 3463 722 
L 3463 178 
Q 3153 47 2828 -22 
Q 2503 -91 2169 -91 
Q 1331 -91 842 396 
Q 353 884 353 1716 
Q 353 2575 817 3079 
Q 1281 3584 2069 3584 
Q 2775 3584 3186 3129 
Q 3597 2675 3597 1894 
z
M 3022 2063 
Q 3016 2534 2758 2815 
Q 2500 3097 2075 3097 
Q 1594 3097 1305 2825 
Q 1016 2553 972 2059 
L 3022 2063 
z
" transform="scale(0.015625)"/>
      <path id="DejaVuSans-20" transform="scale(0.015625)"/>
      <path id="DejaVuSans-52" d="M 2841 2188 
Q 3044 2119 3236 1894 
Q 3428 1669 3622 1275 
L 4263 0 
L 3584 0 
L 2988 1197 
Q 2756 1666 2539 1819 
Q 2322 1972 1947 1972 
L 1259 1972 
L 1259 0 
L 628 0 
L 628 4666 
L 2053 4666 
Q 2853 4666 3247 4331 
Q 3641 3997 3641 3322 
Q 3641 2881 3436 2590 
Q 3231 2300 2841 2188 
z
M 1259 4147 
L 1259 2491 
L 2053 2491 
Q 2509 2491 2742 2702 
Q 2975 2913 2975 3322 
Q 2975 3731 2742 3939 
Q 2509 4147 2053 4147 
L 1259 4147 
z
" transform="scale(0.015625)"/>
     </defs>
     <use xlink:href="#DejaVuSans-53"/>
     <use xlink:href="#DejaVuSans-61" x="63.476562"/>
     <use xlink:href="#DejaVuSans-6d" x="124.755859"/>
     <use xlink:href="#DejaVuSans-70" x="222.167969"/>
     <use xlink:href="#DejaVuSans-6c" x="285.644531"/>
     <use xlink:href="#DejaVuSans-65" x="313.427734"/>
     <use xlink:href="#DejaVuSans-20" x="374.951172"/>
     <use xlink:href="#DejaVuSans-52" x="406.738281"/>
     <use xlink:href="#DejaVuSans-53" x="476.220703"/>
    </g>
   </g>
   <g id="text_2">
    <!-- S -->
    <g transform="translate(85.154961 22.331406) scale(0.095 -0.095)">
     <use xlink:href="#DejaVuSans-53"/>
    </g>
   </g>
   <g id="text_3">
    <!-- Slave Adresse -->
    <g transform="translate(126.858867 22.331406) scale(0.095 -0.095)">
     <defs>
      <path id="DejaVuSans-76" d="M 191 3500 
L 800 3500 
L 1894 563 
L 2988 3500 
L 3597 3500 
L 2284 0 
L 1503 0 
L 191 3500 
z
" transform="scale(0.015625)"/>
      <path id="DejaVuSans-41" d="M 2188 4044 
L 1331 1722 
L 3047 1722 
L 2188 4044 
z
M 1831 4666 
L 2547 4666 
L 4325 0 
L 3669 0 
L 3244 1197 
L 1141 1197 
L 716 0 
L 50 0 
L 1831 4666 
z
" transform="scale(0.015625)"/>
      <path id="DejaVuSans-64" d="M 2906 2969 
L 2906 4863 
L 3481 4863 
L 3481 0 
L 2906 0 
L 2906 525 
Q 2725 213 2448 61 
Q 2172 -91 1784 -91 
Q 1150 -91 751 415 
Q 353 922 353 1747 
Q 353 2572 751 3078 
Q 1150 3584 1784 3584 
Q 2172 3584 2448 3432 
Q 2725 3281 2906 2969 
z
M 947 1747 
Q 947 1113 1208 752 
Q 1469 391 1925 391 
Q 2381 391 2643 752 
Q 2906 1113 2906 1747 
Q 2906 2381 2643 2742 
Q 2381 3103 1925 3103 
Q 1469 3103 1208 2742 
Q 947 2381 947 1747 
z
" transform="scale(0.015625)"/>
      <path id="DejaVuSans-72" d="M 2631 2963 
Q 2534 3019 2420 3045 
Q 2306 3072 2169 3072 
Q 1681 3072 1420 2755 
Q 1159 2438 1159 1844 
L 1159 0 
L 581 0 
L 581 3500 
L 1159 3500 
L 1159 2956 
Q 1341 3275 1631 3429 
Q 1922 3584 2338 3584 
Q 2397 3584 2469 3576 
Q 2541 3569 2628 3553 
L 2631 2963 
z
" transform="scale(0.015625)"/>
      <path id="DejaVuSans-73" d="M 2834 3397 
L 2834 2853 
Q 2591 2978 2328 3040 
Q 2066 3103 1784 3103 
Q 1356 3103 1142 2972 
Q 928 2841 928 2578 
Q 928 2378 1081 2264 
Q 1234 2150 1697 2047 
L 1894 2003 
Q 2506 1872 2764 1633 
Q 3022 1394 3022 966 
Q 3022 478 2636 193 
Q 2250 -91 1575 -91 
Q 1294 -91 989 -36 
Q 684 19 347 128 
L 347 722 
Q 666 556 975 473 
Q 1284 391 1588 391 
Q 1994 391 2212 530 
Q 2431 669 2431 922 
Q 2431 1156 2273 1281 
Q 2116 1406 1581 1522 
L 1381 1569 
Q 847 1681 609 1914 
Q 372 2147 372 2553 
Q 372 3047 722 3315 
Q 1072 3584 1716 3584 
Q 2034 3584 2315 3537 
Q 2597 3491 2834 3397 
z
" transform="scale(0.015625)"/>
     </defs>
     <use xlink:href="#DejaVuSans-53"/>
     <use xlink:href="#DejaVuSans-6c" x="63.476562"/>
     <use xlink:href="#DejaVuSans-61" x="91.259766"/>
     <use xlink:href="#DejaVuSans-76" x="152.539062"/>
     <use xlink:href="#DejaVuSans-65" x="211.71875"/>
     <use xlink:href="#DejaVuSans-20" x="273.242188"/>
     <use xlink:href="#DejaVuSans-41" x="305.029297"/>
     <use xlink:href="#DejaVuSans-64" x="371.6875"/>
     <use xlink:href="#DejaVuSans-72" x="435.164062"/>
     <use xlink:href="#DejaVuSans-65" x="474.027344"/>
     <use xlink:href="#DejaVuSans-73" x="535.550781"/>
     <use xlink:href="#DejaVuSans-73" x="587.650391"/>
     <use xlink:href="#DejaVuSans-65" x="639.75"/>
    </g>
   </g>
   <g id="text_4">
    <!-- $R/\overline{W}$ -->
    <g transform="translate(222.527969 22.864297) scale(0.095 -0.095)">
     <defs>
      <path id="DejaVuSans-Oblique-52" d="M 1613 4147 
L 1294 2491 
L 2106 2491 
Q 2584 2491 2879 2755 
Q 3175 3019 3175 3444 
Q 3175 3784 2976 3965 
Q 2778 4147 2406 4147 
L 1613 4147 
z
M 2772 2241 
Q 2972 2194 3105 2009 
Q 3238 1825 3413 1275 
L 3809 0 
L 3144 0 
L 2778 1197 
Q 2638 1659 2453 1815 
Q 2269 1972 1888 1972 
L 1191 1972 
L 806 0 
L 172 0 
L 1081 4666 
L 2503 4666 
Q 3150 4666 3495 4373 
Q 3841 4081 3841 3531 
Q 3841 3044 3547 2687 
Q 3253 2331 2772 2241 
z
" transform="scale(0.015625)"/>
      <path id="DejaVuSans-2f" d="M 1625 4666 
L 2156 4666 
L 531 -594 
L 0 -594 
L 1625 4666 
z
" transform="scale(0.015625)"/>
      <path id="DejaVuSans-Oblique-57" d="M 616 4666 
L 1228 4666 
L 1453 697 
L 3213 4666 
L 3916 4666 
L 4147 697 
L 5888 4666 
L 6528 4666 
L 4453 0 
L 3659 0 
L 3444 3891 
L 1697 0 
L 903 0 
L 616 4666 
z
" transform="scale(0.015625)"/>
     </defs>
     <use xlink:href="#DejaVuSans-Oblique-52" transform="translate(0 0.34375)"/>
     <use xlink:href="#DejaVuSans-2f" transform="translate(69.482422 0.34375)"/>
     <use xlink:href="#DejaVuSans-Oblique-57" transform="translate(103.173828 0.84375)"/>
     <path d="M 103.173828 85.5 
L 103.173828 91.75 
L 202.050781 91.75 
L 202.050781 85.5 
L 103.173828 85.5 
z
"/>
    </g>
   </g>
   <g id="text_5">
    <!-- A -->
    <g transform="translate(264.921172 22.331406) scale(0.095 -0.095)">
     <use xlink:href="#DejaVuSans-41"/>
    </g>
   </g>
   <g id="text_6">
    <!-- Daten -->
    <g transform="translate(325.806914 22.331406) scale(0.095 -0.095)">
     <defs>
      <path id="DejaVuSans-44" d="M 1259 4147 
L 1259 519 
L 2022 519 
Q 2988 519 3436 956 
Q 3884 1394 3884 2338 
Q 3884 3275 3436 3711 
Q 2988 4147 2022 4147 
L 1259 4147 
z
M 628 4666 
L 1925 4666 
Q 3281 4666 3915 4102 
Q 4550 3538 4550 2338 
Q 4550 1131 3912 565 
Q 3275 0 1925 0 
L 628 0 
L 628 4666 
z
" transform="scale(0.015625)"/>
      <path id="DejaVuSans-74" d="M 1172 4494 
L 1172 3500 
L 2356 3500 
L 2356 3053 
L 1172 3053 
L 1172 1153 
Q 1172 725 1289 603 
Q 1406 481 1766 481 
L 2356 481 
L 2356 0 
L 1766 0 
Q 1100 0 847 248 
Q 594 497 594 1153 
L 594 3053 
L 172 3053 
L 172 3500 
L 594 3500 
L 594 4494 
L 1172 4494 
z
" transform="scale(0.015625)"/>
      <path id="DejaVuSans-6e" d="M 3513 2113 
L 3513 0 
L 2938 0 
L 2938 2094 
Q 2938 2591 2744 2837 
Q 2550 3084 2163 3084 
Q 1697 3084 1428 2787 
Q 1159 2491 1159 1978 
L 1159 0 
L 581 0 
L 581 3500 
L 1159 3500 
L 1159 2956 
Q 1366 3272 1645 3428 
Q 1925 3584 2291 3584 
Q 2894 3584 3203 3211 
Q 3513 2838 3513 2113 
z
" transform="scale(0.015625)"/>
     </defs>
     <use xlink:href="#DejaVuSans-44"/>
     <use xlink:href="#DejaVuSans-61" x="77.001953"/>
     <use xlink:href="#DejaVuSans-74" x="138.28125"/>
     <use xlink:href="#DejaVuSans-65" x="177.490234"/>
     <use xlink:href="#DejaVuSans-6e" x="239.013672"/>
    </g>
   </g>
   <g id="text_7">
    <!-- $A/\overline{A}$ -->
    <g transform="translate(404.047969 22.864297) scale(0.095 -0.095)">
     <defs>
      <path id="DejaVuSans-Oblique-41" d="M 2356 4666 
L 3072 4666 
L 3938 0 
L 3278 0 
L 3084 1197 
L 984 1197 
L 325 0 
L -341 0 
L 2356 4666 
z
M 2584 4044 
L 1275 1722 
L 2988 1722 
L 2584 4044 
z
" transform="scale(0.015625)"/>
     </defs>
     <use xlink:href="#DejaVuSans-Oblique-41" transform="translate(0 0.34375)"/>
     <use xlink:href="#DejaVuSans-2f" transform="translate(68.408203 0.34375)"/>
     <use xlink:href="#DejaVuSans-Oblique-41" transform="translate(102.099609 0.84375)"/>
     <path d="M 102.099609 85.5 
L 102.099609 91.75 
L 170.507812 91.75 
L 170.507812 85.5 
L 102.099609 85.5 
z
"/>
    </g>
   </g>
   <g id="text_8">
    <!-- RS -->
    <g transform="translate(441.854453 22.331406) scale(0.095 -0.095)">
     <use xlink:href="#DejaVuSans-52"/>
     <use xlink:href="#DejaVuSans-53" x="69.482422"/>
    </g>
   </g>
   <g id="text_9">
    <!-- Slave Adresse -->
    <g transform="translate(486.858867 22.331406) scale(0.095 -0.095)">
     <use xlink:href="#DejaVuSans-53"/>
     <use xlink:href="#DejaVuSans-6c" x="63.476562"/>
     <use xlink:href="#DejaVuSans-61" x="91.259766"/>
     <use xlink:href="#DejaVuSans-76" x="152.539062"/>
     <use xlink:href="#DejaVuSans-65" x="211.71875"/>
     <use xlink:href="#DejaVuSans-20" x="273.242188"/>
     <use xlink:href="#DejaVuSans-41" x="305.029297"/>
     <use xlink:href="#DejaVuSans-64" x="371.6875"/>
     <use xlink:href="#DejaVuSans-72" x="435.164062"/>
     <use xlink:href="#DejaVuSans-65" x="474.027344"/>
     <use xlink:href="#DejaVuSans-73" x="535.550781"/>
     <use xlink:href="#DejaVuSans-73" x="587.650391"/>
     <use xlink:href="#DejaVuSans-65" x="639.75"/>
    </g>
   </g>
   <g id="text_10">
    <!-- $R/\overline{W}$ -->
    <g transform="translate(582.527969 22.864297) scale(0.095 -0.095)">
     <use xlink:href="#DejaVuSans-Oblique-52" transform="translate(0 0.34375)"/>
     <use xlink:href="#DejaVuSans-2f" transform="translate(69.482422 0.34375)"/>
     <use xlink:href="#DejaVuSans-Oblique-57" transform="translate(103.173828 0.84375)"/>
     <path d="M 103.173828 85.5 
L 103.173828 91.75 
L 202.050781 91.75 
L 202.050781 85.5 
L 103.173828 85.5 
z
"/>
    </g>
   </g>
   <g id="text_11">
    <!-- A -->
    <g transform="translate(624.921172 22.331406) scale(0.095 -0.095)">
     <use xlink:href="#DejaVuSans-41"/>
    </g>
   </g>
   <g id="text_12">
    <!-- Daten -->
    <g transform="translate(685.806914 22.331406) scale(0.095 -0.095)">
     <use xlink:href="#DejaVuSans-44"/>
     <use xlink:href="#DejaVuSans-61" x="77.001953"/>
     <use xlink:href="#DejaVuSans-74" x="138.28125"/>
     <use xlink:href="#DejaVuSans-65" x="177.490234"/>
     <use xlink:href="#DejaVuSans-6e" x="239.013672"/>
    </g>
   </g>
   <g id="text_13">
    <!-- $\overline{A}$ -->
    <g transform="translate(768.892969 22.389297) scale(0.095 -0.095)">
     <use xlink:href="#DejaVuSans-Oblique-41" transform="translate(0 0.84375)"/>
     <path d="M 0 85.5 
L 0 91.75 
L 68.408203 91.75 
L 68.408203 85.5 
L 0 85.5 
z
"/>
    </g>
   </g>
   <g id="text_14">
    <!-- P -->
    <g transform="translate(805.306367 22.331406) scale(0.095 -0.095)">
     <defs>
      <path id="DejaVuSans-50" d="M 1259 4147 
L 1259 2394 
L 2053 2394 
Q 2494 2394 2734 2622 
Q 2975 2850 2975 3272 
Q 2975 3691 2734 3919 
Q 2494 4147 2053 4147 
L 1259 4147 
z
M 628 4666 
L 2053 4666 
Q 2838 4666 3239 4311 
Q 3641 3956 3641 3272 
Q 3641 2581 3239 2228 
Q 2838 1875 2053 1875 
L 1259 1875 
L 1259 0 
L 628 0 
L 628 4666 
z
" transform="scale(0.015625)"/>
     </defs>
     <use xlink:href="#DejaVuSans-50"/>
    </g>
   </g>
  </g>
 </g>
 <defs>
  <clipPath id="p1e84e06a8a">
   <rect x="29.670469" y="3.6" width="831.6" height="37.62"/>
  </clipPath>
  <clipPath id="pbbcd77bca4">
   <rect x="67.470469" y="8.91" width="756" height="48.6"/>
  </clipPath>
 </defs>
</svg>