<?xml version="1.0" encoding="utf-8" standalone="no"?>
<!DOCTYPE svg PUBLIC "-//W3C//DTD SVG 1.1//EN"
  "http://www.w3.org/Graphics/SVG/1.1/DTD/svg11.dtd">
<svg xmlns:xlink="http://www.w3.org/1999/xlink" width="383.4pt" height="273.114pt" viewBox="0 0 383.4 273.114" xmlns="http://www.w3.org/2000/svg" version="1.1">
 <metadata>
  <rdf:RDF xmlns:dc="http://purl.org/dc/elements/1.1/" xmlns:cc="http://creativecommons.org/ns#" xmlns:rdf="http://www.w3.org/1999/02/22-rdf-syntax-ns#">
   <cc:Work>
    <dc:type rdf:resource="http://purl.org/dc/dcmitype/StillImage"/>
    <dc:date>2023-06-04T22:58:18.849850</dc:date>
    <dc:format>image/svg+xml</dc:format>
    <dc:creator>
     <cc:Agent>
      <dc:title>Matplotlib v3.7.1, https://matplotlib.org/</dc:title>
     </cc:Agent>
    </dc:creator>
   </cc:Work>
  </rdf:RDF>
 </metadata>
 <defs>
  <style type="text/css">*{stroke-linejoin: round; stroke-linecap: butt}</style>
 </defs>
 <g id="figure_1">
  <g id="patch_1">
   <path d="M 0 273.114 
L 383.4 273.114 
L 383.4 0 
L 0 0 
z
" style="fill: #ffffff"/>
  </g>
  <g id="axes_1">
   <g id="line2d_1">
    <path d="M 29.7 18.387 
L 83.7 18.387 
L 137.7 18.387 
" clip-path="url(#p7cf3e6b117)" style="fill: none; stroke: #000000; stroke-width: 2; stroke-linecap: round"/>
   </g>
   <g id="line2d_2">
    <path d="M 137.7 18.387 
L 137.7 54.387 
L 146.7 54.387 
L 146.7 90.387 
L 128.7 90.387 
L 128.7 54.387 
L 137.7 54.387 
M 137.7 90.387 
L 137.7 126.387 
" clip-path="url(#p7cf3e6b117)" style="fill: none; stroke: #000000; stroke-width: 2; stroke-linecap: round"/>
   </g>
   <g id="line2d_3">
    <path d="M 137.7 126.387 
L 151.2 126.387 
L 164.7 126.387 
" clip-path="url(#p7cf3e6b117)" style="fill: none; stroke: #000000; stroke-width: 2; stroke-linecap: round"/>
   </g>
   <g id="line2d_4">
    <path d="M 137.7 126.387 
L 137.7 162.387 
L 146.7 162.387 
L 146.7 198.387 
L 128.7 198.387 
L 128.7 162.387 
L 137.7 162.387 
M 137.7 198.387 
L 137.7 234.387 
" clip-path="url(#p7cf3e6b117)" style="fill: none; stroke: #000000; stroke-width: 2; stroke-linecap: round"/>
   </g>
   <g id="line2d_5">
    <path d="M 137.7 234.387 
L 83.7 234.387 
L 29.7 234.387 
" clip-path="url(#p7cf3e6b117)" style="fill: none; stroke: #000000; stroke-width: 2; stroke-linecap: round"/>
   </g>
   <g id="line2d_6">
    <path d="M 29.7 234.387 
L 29.7 248.787 
L 20.7 248.787 
L 38.7 248.787 
M 23.4 253.107 
L 36 253.107 
M 27.9 257.427 
L 31.5 257.427 
" clip-path="url(#p7cf3e6b117)" style="fill: none; stroke: #000000; stroke-width: 2; stroke-linecap: round"/>
   </g>
   <g id="line2d_7">
    <path d="M 137.7 18.387 
L 245.7 18.387 
L 353.7 18.387 
" clip-path="url(#p7cf3e6b117)" style="fill: none; stroke: #000000; stroke-width: 2; stroke-linecap: round"/>
   </g>
   <g id="line2d_8">
    <path d="M 353.7 18.387 
L 353.7 54.387 
L 362.7 54.387 
L 362.7 90.387 
L 344.7 90.387 
L 344.7 54.387 
L 353.7 54.387 
M 353.7 90.387 
L 353.7 126.387 
" clip-path="url(#p7cf3e6b117)" style="fill: none; stroke: #000000; stroke-width: 2; stroke-linecap: round"/>
   </g>
   <g id="line2d_9">
    <path d="M 353.7 126.387 
L 353.7 162.387 
L 362.7 162.387 
L 362.7 198.387 
L 344.7 198.387 
L 344.7 162.387 
L 353.7 162.387 
M 353.7 198.387 
L 353.7 234.387 
" clip-path="url(#p7cf3e6b117)" style="fill: none; stroke: #000000; stroke-width: 2; stroke-linecap: round"/>
   </g>
   <g id="line2d_10">
    <path d="M 353.7 234.387 
L 245.7 234.387 
L 137.7 234.387 
" clip-path="url(#p7cf3e6b117)" style="fill: none; stroke: #000000; stroke-width: 2; stroke-linecap: round"/>
   </g>
   <g id="line2d_11">
    <path d="M 353.7 126.387 
L 340.2 126.387 
L 326.7 126.387 
" clip-path="url(#p7cf3e6b117)" style="fill: none; stroke: #000000; stroke-width: 2; stroke-linecap: round"/>
   </g>
   <g id="line2d_12">
    <path d="M 164.7 117.387 
L 245.7 117.387 
L 317.7 117.387 
" clip-path="url(#p7cf3e6b117)" style="fill: none; stroke: #000000; stroke-width: 2; stroke-linecap: round"/>
   </g>
   <g id="patch_2">
    <path d="M 317.7 114.687 
L 326.7 117.387 
L 317.7 120.087 
z
" clip-path="url(#p7cf3e6b117)"/>
   </g>
   <g id="line2d_13">
    <path d="M 29.7 32.787 
L 29.7 126.387 
L 29.7 210.987 
" clip-path="url(#p7cf3e6b117)" style="fill: none; stroke: #000000; stroke-width: 2; stroke-linecap: round"/>
   </g>
   <g id="patch_3">
    <path d="M 32.4 210.987 
L 29.7 219.987 
L 27 210.987 
z
" clip-path="url(#p7cf3e6b117)"/>
   </g>
   <g id="text_1">
    <!-- R1 = R -->
    <g transform="translate(81.355859 75.836219) scale(0.125 -0.125)">
     <defs>
      <path id="DejaVuSans-52" d="M 2841 2188 
Q 3044 2119 3236 1894 
Q 3428 1669 3622 1275 
L 4263 0 
L 3584 0 
L 2988 1197 
Q 2756 1666 2539 1819 
Q 2322 1972 1947 1972 
L 1259 1972 
L 1259 0 
L 628 0 
L 628 4666 
L 2053 4666 
Q 2853 4666 3247 4331 
Q 3641 3997 3641 3322 
Q 3641 2881 3436 2590 
Q 3231 2300 2841 2188 
z
M 1259 4147 
L 1259 2491 
L 2053 2491 
Q 2509 2491 2742 2702 
Q 2975 2913 2975 3322 
Q 2975 3731 2742 3939 
Q 2509 4147 2053 4147 
L 1259 4147 
z
" transform="scale(0.015625)"/>
      <path id="DejaVuSans-31" d="M 794 531 
L 1825 531 
L 1825 4091 
L 703 3866 
L 703 4441 
L 1819 4666 
L 2450 4666 
L 2450 531 
L 3481 531 
L 3481 0 
L 794 0 
L 794 531 
z
" transform="scale(0.015625)"/>
      <path id="DejaVuSans-20" transform="scale(0.015625)"/>
      <path id="DejaVuSans-3d" d="M 678 2906 
L 4684 2906 
L 4684 2381 
L 678 2381 
L 678 2906 
z
M 678 1631 
L 4684 1631 
L 4684 1100 
L 678 1100 
L 678 1631 
z
" transform="scale(0.015625)"/>
     </defs>
     <use xlink:href="#DejaVuSans-52"/>
     <use xlink:href="#DejaVuSans-31" x="69.482422"/>
     <use xlink:href="#DejaVuSans-20" x="133.105469"/>
     <use xlink:href="#DejaVuSans-3d" x="164.892578"/>
     <use xlink:href="#DejaVuSans-20" x="248.681641"/>
     <use xlink:href="#DejaVuSans-52" x="280.46875"/>
    </g>
   </g>
   <g id="text_2">
    <!-- R2 = R + ΔR -->
    <g transform="translate(45.699609 183.836219) scale(0.125 -0.125)">
     <defs>
      <path id="DejaVuSans-32" d="M 1228 531 
L 3431 531 
L 3431 0 
L 469 0 
L 469 531 
Q 828 903 1448 1529 
Q 2069 2156 2228 2338 
Q 2531 2678 2651 2914 
Q 2772 3150 2772 3378 
Q 2772 3750 2511 3984 
Q 2250 4219 1831 4219 
Q 1534 4219 1204 4116 
Q 875 4013 500 3803 
L 500 4441 
Q 881 4594 1212 4672 
Q 1544 4750 1819 4750 
Q 2544 4750 2975 4387 
Q 3406 4025 3406 3419 
Q 3406 3131 3298 2873 
Q 3191 2616 2906 2266 
Q 2828 2175 2409 1742 
Q 1991 1309 1228 531 
z
" transform="scale(0.015625)"/>
      <path id="DejaVuSans-2b" d="M 2944 4013 
L 2944 2272 
L 4684 2272 
L 4684 1741 
L 2944 1741 
L 2944 0 
L 2419 0 
L 2419 1741 
L 678 1741 
L 678 2272 
L 2419 2272 
L 2419 4013 
L 2944 4013 
z
" transform="scale(0.015625)"/>
      <path id="DejaVuSans-394" d="M 2188 4044 
L 906 525 
L 3472 525 
L 2188 4044 
z
M 50 0 
L 1831 4666 
L 2547 4666 
L 4325 0 
L 50 0 
z
" transform="scale(0.015625)"/>
     </defs>
     <use xlink:href="#DejaVuSans-52"/>
     <use xlink:href="#DejaVuSans-32" x="69.482422"/>
     <use xlink:href="#DejaVuSans-20" x="133.105469"/>
     <use xlink:href="#DejaVuSans-3d" x="164.892578"/>
     <use xlink:href="#DejaVuSans-20" x="248.681641"/>
     <use xlink:href="#DejaVuSans-52" x="280.46875"/>
     <use xlink:href="#DejaVuSans-20" x="349.951172"/>
     <use xlink:href="#DejaVuSans-2b" x="381.738281"/>
     <use xlink:href="#DejaVuSans-20" x="465.527344"/>
     <use xlink:href="#DejaVuSans-394" x="497.314453"/>
     <use xlink:href="#DejaVuSans-52" x="565.722656"/>
    </g>
   </g>
   <g id="text_3">
    <!-- R3 = R + ΔR -->
    <g transform="translate(261.699609 75.836219) scale(0.125 -0.125)">
     <defs>
      <path id="DejaVuSans-33" d="M 2597 2516 
Q 3050 2419 3304 2112 
Q 3559 1806 3559 1356 
Q 3559 666 3084 287 
Q 2609 -91 1734 -91 
Q 1441 -91 1130 -33 
Q 819 25 488 141 
L 488 750 
Q 750 597 1062 519 
Q 1375 441 1716 441 
Q 2309 441 2620 675 
Q 2931 909 2931 1356 
Q 2931 1769 2642 2001 
Q 2353 2234 1838 2234 
L 1294 2234 
L 1294 2753 
L 1863 2753 
Q 2328 2753 2575 2939 
Q 2822 3125 2822 3475 
Q 2822 3834 2567 4026 
Q 2313 4219 1838 4219 
Q 1578 4219 1281 4162 
Q 984 4106 628 3988 
L 628 4550 
Q 988 4650 1302 4700 
Q 1616 4750 1894 4750 
Q 2613 4750 3031 4423 
Q 3450 4097 3450 3541 
Q 3450 3153 3228 2886 
Q 3006 2619 2597 2516 
z
" transform="scale(0.015625)"/>
     </defs>
     <use xlink:href="#DejaVuSans-52"/>
     <use xlink:href="#DejaVuSans-33" x="69.482422"/>
     <use xlink:href="#DejaVuSans-20" x="133.105469"/>
     <use xlink:href="#DejaVuSans-3d" x="164.892578"/>
     <use xlink:href="#DejaVuSans-20" x="248.681641"/>
     <use xlink:href="#DejaVuSans-52" x="280.46875"/>
     <use xlink:href="#DejaVuSans-20" x="349.951172"/>
     <use xlink:href="#DejaVuSans-2b" x="381.738281"/>
     <use xlink:href="#DejaVuSans-20" x="465.527344"/>
     <use xlink:href="#DejaVuSans-394" x="497.314453"/>
     <use xlink:href="#DejaVuSans-52" x="565.722656"/>
    </g>
   </g>
   <g id="text_4">
    <!-- R4 = R -->
    <g transform="translate(297.355859 183.836219) scale(0.125 -0.125)">
     <defs>
      <path id="DejaVuSans-34" d="M 2419 4116 
L 825 1625 
L 2419 1625 
L 2419 4116 
z
M 2253 4666 
L 3047 4666 
L 3047 1625 
L 3713 1625 
L 3713 1100 
L 3047 1100 
L 3047 0 
L 2419 0 
L 2419 1100 
L 313 1100 
L 313 1709 
L 2253 4666 
z
" transform="scale(0.015625)"/>
     </defs>
     <use xlink:href="#DejaVuSans-52"/>
     <use xlink:href="#DejaVuSans-34" x="69.482422"/>
     <use xlink:href="#DejaVuSans-20" x="133.105469"/>
     <use xlink:href="#DejaVuSans-3d" x="164.892578"/>
     <use xlink:href="#DejaVuSans-20" x="248.681641"/>
     <use xlink:href="#DejaVuSans-52" x="280.46875"/>
    </g>
   </g>
   <g id="text_5">
    <!-- UB -->
    <g transform="translate(236.837695 111.187391) scale(0.125 -0.125)">
     <defs>
      <path id="DejaVuSans-55" d="M 556 4666 
L 1191 4666 
L 1191 1831 
Q 1191 1081 1462 751 
Q 1734 422 2344 422 
Q 2950 422 3222 751 
Q 3494 1081 3494 1831 
L 3494 4666 
L 4128 4666 
L 4128 1753 
Q 4128 841 3676 375 
Q 3225 -91 2344 -91 
Q 1459 -91 1007 375 
Q 556 841 556 1753 
L 556 4666 
z
" transform="scale(0.015625)"/>
      <path id="DejaVuSans-42" d="M 1259 2228 
L 1259 519 
L 2272 519 
Q 2781 519 3026 730 
Q 3272 941 3272 1375 
Q 3272 1813 3026 2020 
Q 2781 2228 2272 2228 
L 1259 2228 
z
M 1259 4147 
L 1259 2741 
L 2194 2741 
Q 2656 2741 2882 2914 
Q 3109 3088 3109 3444 
Q 3109 3797 2882 3972 
Q 2656 4147 2194 4147 
L 1259 4147 
z
M 628 4666 
L 2241 4666 
Q 2963 4666 3353 4366 
Q 3744 4066 3744 3513 
Q 3744 3084 3544 2831 
Q 3344 2578 2956 2516 
Q 3422 2416 3680 2098 
Q 3938 1781 3938 1306 
Q 3938 681 3513 340 
Q 3088 0 2303 0 
L 628 0 
L 628 4666 
z
" transform="scale(0.015625)"/>
     </defs>
     <use xlink:href="#DejaVuSans-55"/>
     <use xlink:href="#DejaVuSans-42" x="73.193359"/>
    </g>
   </g>
   <g id="text_6">
    <!-- U0 -->
    <g transform="translate(8.998438 129.836219) scale(0.125 -0.125)">
     <defs>
      <path id="DejaVuSans-30" d="M 2034 4250 
Q 1547 4250 1301 3770 
Q 1056 3291 1056 2328 
Q 1056 1369 1301 889 
Q 1547 409 2034 409 
Q 2525 409 2770 889 
Q 3016 1369 3016 2328 
Q 3016 3291 2770 3770 
Q 2525 4250 2034 4250 
z
M 2034 4750 
Q 2819 4750 3233 4129 
Q 3647 3509 3647 2328 
Q 3647 1150 3233 529 
Q 2819 -91 2034 -91 
Q 1250 -91 836 529 
Q 422 1150 422 2328 
Q 422 3509 836 4129 
Q 1250 4750 2034 4750 
z
" transform="scale(0.015625)"/>
     </defs>
     <use xlink:href="#DejaVuSans-55"/>
     <use xlink:href="#DejaVuSans-30" x="73.193359"/>
    </g>
   </g>
   <g id="patch_4">
    <path d="M 29.7 21.087 
C 30.416048 21.087 31.102866 20.802511 31.609188 20.296188 
C 32.115511 19.789866 32.4 19.103048 32.4 18.387 
C 32.4 17.670952 32.115511 16.984134 31.609188 16.477812 
C 31.102866 15.971489 30.416048 15.687 29.7 15.687 
C 28.983952 15.687 28.297134 15.971489 27.790812 16.477812 
C 27.284489 16.984134 27 17.670952 27 18.387 
C 27 19.103048 27.284489 19.789866 27.790812 20.296188 
C 28.297134 20.802511 28.983952 21.087 29.7 21.087 
z
" clip-path="url(#p7cf3e6b117)" style="fill: #ffffff; stroke: #000000; stroke-width: 2; stroke-linejoin: miter"/>
   </g>
   <g id="patch_5">
    <path d="M 137.7 129.087 
C 138.416048 129.087 139.102866 128.802511 139.609188 128.296188 
C 140.115511 127.789866 140.4 127.103048 140.4 126.387 
C 140.4 125.670952 140.115511 124.984134 139.609188 124.477812 
C 139.102866 123.971489 138.416048 123.687 137.7 123.687 
C 136.983952 123.687 136.297134 123.971489 135.790812 124.477812 
C 135.284489 124.984134 135 125.670952 135 126.387 
C 135 127.103048 135.284489 127.789866 135.790812 128.296188 
C 136.297134 128.802511 136.983952 129.087 137.7 129.087 
z
" clip-path="url(#p7cf3e6b117)" style="stroke: #000000; stroke-width: 2; stroke-linejoin: miter"/>
   </g>
   <g id="patch_6">
    <path d="M 164.7 129.087 
C 165.416048 129.087 166.102866 128.802511 166.609188 128.296188 
C 167.115511 127.789866 167.4 127.103048 167.4 126.387 
C 167.4 125.670952 167.115511 124.984134 166.609188 124.477812 
C 166.102866 123.971489 165.416048 123.687 164.7 123.687 
C 163.983952 123.687 163.297134 123.971489 162.790812 124.477812 
C 162.284489 124.984134 162 125.670952 162 126.387 
C 162 127.103048 162.284489 127.789866 162.790812 128.296188 
C 163.297134 128.802511 163.983952 129.087 164.7 129.087 
z
" clip-path="url(#p7cf3e6b117)" style="stroke: #000000; stroke-width: 2; stroke-linejoin: miter"/>
   </g>
   <g id="patch_7">
    <path d="M 137.7 237.087 
C 138.416048 237.087 139.102866 236.802511 139.609188 236.296188 
C 140.115511 235.789866 140.4 235.103048 140.4 234.387 
C 140.4 233.670952 140.115511 232.984134 139.609188 232.477812 
C 139.102866 231.971489 138.416048 231.687 137.7 231.687 
C 136.983952 231.687 136.297134 231.971489 135.790812 232.477812 
C 135.284489 232.984134 135 233.670952 135 234.387 
C 135 235.103048 135.284489 235.789866 135.790812 236.296188 
C 136.297134 236.802511 136.983952 237.087 137.7 237.087 
z
" clip-path="url(#p7cf3e6b117)" style="stroke: #000000; stroke-width: 2; stroke-linejoin: miter"/>
   </g>
   <g id="patch_8">
    <path d="M 29.7 237.087 
C 30.416048 237.087 31.102866 236.802511 31.609188 236.296188 
C 32.115511 235.789866 32.4 235.103048 32.4 234.387 
C 32.4 233.670952 32.115511 232.984134 31.609188 232.477812 
C 31.102866 231.971489 30.416048 231.687 29.7 231.687 
C 28.983952 231.687 28.297134 231.971489 27.790812 232.477812 
C 27.284489 232.984134 27 233.670952 27 234.387 
C 27 235.103048 27.284489 235.789866 27.790812 236.296188 
C 28.297134 236.802511 28.983952 237.087 29.7 237.087 
z
" clip-path="url(#p7cf3e6b117)" style="fill: #ffffff; stroke: #000000; stroke-width: 2; stroke-linejoin: miter"/>
   </g>
   <g id="patch_9">
    <path d="M 353.7 129.087 
C 354.416048 129.087 355.102866 128.802511 355.609188 128.296188 
C 356.115511 127.789866 356.4 127.103048 356.4 126.387 
C 356.4 125.670952 356.115511 124.984134 355.609188 124.477812 
C 355.102866 123.971489 354.416048 123.687 353.7 123.687 
C 352.983952 123.687 352.297134 123.971489 351.790812 124.477812 
C 351.284489 124.984134 351 125.670952 351 126.387 
C 351 127.103048 351.284489 127.789866 351.790812 128.296188 
C 352.297134 128.802511 352.983952 129.087 353.7 129.087 
z
" clip-path="url(#p7cf3e6b117)" style="stroke: #000000; stroke-width: 2; stroke-linejoin: miter"/>
   </g>
   <g id="patch_10">
    <path d="M 326.7 129.087 
C 327.416048 129.087 328.102866 128.802511 328.609188 128.296188 
C 329.115511 127.789866 329.4 127.103048 329.4 126.387 
C 329.4 125.670952 329.115511 124.984134 328.609188 124.477812 
C 328.102866 123.971489 327.416048 123.687 326.7 123.687 
C 325.983952 123.687 325.297134 123.971489 324.790812 124.477812 
C 324.284489 124.984134 324 125.670952 324 126.387 
C 324 127.103048 324.284489 127.789866 324.790812 128.296188 
C 325.297134 128.802511 325.983952 129.087 326.7 129.087 
z
" clip-path="url(#p7cf3e6b117)" style="stroke: #000000; stroke-width: 2; stroke-linejoin: miter"/>
   </g>
  </g>
 </g>
 <defs>
  <clipPath id="p7cf3e6b117">
   <rect x="3.6" y="3.6" width="376.2" height="265.914"/>
  </clipPath>
 </defs>
</svg>