<?xml version="1.0" encoding="utf-8" standalone="no"?>
<!DOCTYPE svg PUBLIC "-//W3C//DTD SVG 1.1//EN"
  "http://www.w3.org/Graphics/SVG/1.1/DTD/svg11.dtd">
<svg xmlns:xlink="http://www.w3.org/1999/xlink" width="369.54pt" height="86.4pt" viewBox="0 0 369.54 86.4" xmlns="http://www.w3.org/2000/svg" version="1.1">
 <metadata>
  <rdf:RDF xmlns:dc="http://purl.org/dc/elements/1.1/" xmlns:cc="http://creativecommons.org/ns#" xmlns:rdf="http://www.w3.org/1999/02/22-rdf-syntax-ns#">
   <cc:Work>
    <dc:type rdf:resource="http://purl.org/dc/dcmitype/StillImage"/>
    <dc:date>2023-10-20T19:44:13.413384</dc:date>
    <dc:format>image/svg+xml</dc:format>
    <dc:creator>
     <cc:Agent>
      <dc:title>Matplotlib v3.8.0, https://matplotlib.org/</dc:title>
     </cc:Agent>
    </dc:creator>
   </cc:Work>
  </rdf:RDF>
 </metadata>
 <defs>
  <style type="text/css">*{stroke-linejoin: round; stroke-linecap: butt}</style>
 </defs>
 <g id="figure_1">
  <g id="patch_1">
   <path d="M -0 86.4 
L 369.54 86.4 
L 369.54 -0 
L -0 -0 
z
" style="fill: #ffffff"/>
  </g>
  <g id="axes_1">
   <g id="line2d_1">
    <path d="M 40.77 79.2 
L 166.77 79.2 
L 166.77 7.2 
L 40.77 7.2 
L 40.77 79.2 
" clip-path="url(#p4989d2cd5b)" style="fill: none; stroke: #000000; stroke-width: 2; stroke-linecap: round"/>
   </g>
   <g id="line2d_2">
    <path d="M 40.77 43.2 
L 22.77 43.2 
" clip-path="url(#p4989d2cd5b)" style="fill: none; stroke: #000000; stroke-width: 2; stroke-linecap: round"/>
   </g>
   <g id="line2d_3">
    <path d="M 166.77 43.2 
L 184.77 43.2 
" clip-path="url(#p4989d2cd5b)" style="fill: none; stroke: #000000; stroke-width: 2; stroke-linecap: round"/>
   </g>
   <g id="line2d_4">
    <path d="M 202.77 79.2 
L 328.77 79.2 
L 328.77 7.2 
L 202.77 7.2 
L 202.77 79.2 
" clip-path="url(#p4989d2cd5b)" style="fill: none; stroke: #000000; stroke-width: 2; stroke-linecap: round"/>
   </g>
   <g id="line2d_5">
    <path d="M 202.77 43.2 
L 184.77 43.2 
" clip-path="url(#p4989d2cd5b)" style="fill: none; stroke: #000000; stroke-width: 2; stroke-linecap: round"/>
   </g>
   <g id="line2d_6">
    <path d="M 328.77 43.2 
L 346.77 43.2 
" clip-path="url(#p4989d2cd5b)" style="fill: none; stroke: #000000; stroke-width: 2; stroke-linecap: round"/>
   </g>
   <g id="text_1">
    <!-- I-Element -->
    <g transform="translate(73.795391 43.049219) scale(0.125 -0.125)">
     <defs>
      <path id="DejaVuSans-49" d="M 628 4666 
L 1259 4666 
L 1259 0 
L 628 0 
L 628 4666 
z
" transform="scale(0.015625)"/>
      <path id="DejaVuSans-2d" d="M 313 2009 
L 1997 2009 
L 1997 1497 
L 313 1497 
L 313 2009 
z
" transform="scale(0.015625)"/>
      <path id="DejaVuSans-45" d="M 628 4666 
L 3578 4666 
L 3578 4134 
L 1259 4134 
L 1259 2753 
L 3481 2753 
L 3481 2222 
L 1259 2222 
L 1259 531 
L 3634 531 
L 3634 0 
L 628 0 
L 628 4666 
z
" transform="scale(0.015625)"/>
      <path id="DejaVuSans-6c" d="M 603 4863 
L 1178 4863 
L 1178 0 
L 603 0 
L 603 4863 
z
" transform="scale(0.015625)"/>
      <path id="DejaVuSans-65" d="M 3597 1894 
L 3597 1613 
L 953 1613 
Q 991 1019 1311 708 
Q 1631 397 2203 397 
Q 2534 397 2845 478 
Q 3156 559 3463 722 
L 3463 178 
Q 3153 47 2828 -22 
Q 2503 -91 2169 -91 
Q 1331 -91 842 396 
Q 353 884 353 1716 
Q 353 2575 817 3079 
Q 1281 3584 2069 3584 
Q 2775 3584 3186 3129 
Q 3597 2675 3597 1894 
z
M 3022 2063 
Q 3016 2534 2758 2815 
Q 2500 3097 2075 3097 
Q 1594 3097 1305 2825 
Q 1016 2553 972 2059 
L 3022 2063 
z
" transform="scale(0.015625)"/>
      <path id="DejaVuSans-6d" d="M 3328 2828 
Q 3544 3216 3844 3400 
Q 4144 3584 4550 3584 
Q 5097 3584 5394 3201 
Q 5691 2819 5691 2113 
L 5691 0 
L 5113 0 
L 5113 2094 
Q 5113 2597 4934 2840 
Q 4756 3084 4391 3084 
Q 3944 3084 3684 2787 
Q 3425 2491 3425 1978 
L 3425 0 
L 2847 0 
L 2847 2094 
Q 2847 2600 2669 2842 
Q 2491 3084 2119 3084 
Q 1678 3084 1418 2786 
Q 1159 2488 1159 1978 
L 1159 0 
L 581 0 
L 581 3500 
L 1159 3500 
L 1159 2956 
Q 1356 3278 1631 3431 
Q 1906 3584 2284 3584 
Q 2666 3584 2933 3390 
Q 3200 3197 3328 2828 
z
" transform="scale(0.015625)"/>
      <path id="DejaVuSans-6e" d="M 3513 2113 
L 3513 0 
L 2938 0 
L 2938 2094 
Q 2938 2591 2744 2837 
Q 2550 3084 2163 3084 
Q 1697 3084 1428 2787 
Q 1159 2491 1159 1978 
L 1159 0 
L 581 0 
L 581 3500 
L 1159 3500 
L 1159 2956 
Q 1366 3272 1645 3428 
Q 1925 3584 2291 3584 
Q 2894 3584 3203 3211 
Q 3513 2838 3513 2113 
z
" transform="scale(0.015625)"/>
      <path id="DejaVuSans-74" d="M 1172 4494 
L 1172 3500 
L 2356 3500 
L 2356 3053 
L 1172 3053 
L 1172 1153 
Q 1172 725 1289 603 
Q 1406 481 1766 481 
L 2356 481 
L 2356 0 
L 1766 0 
Q 1100 0 847 248 
Q 594 497 594 1153 
L 594 3053 
L 172 3053 
L 172 3500 
L 594 3500 
L 594 4494 
L 1172 4494 
z
" transform="scale(0.015625)"/>
     </defs>
     <use xlink:href="#DejaVuSans-49"/>
     <use xlink:href="#DejaVuSans-2d" x="29.492188"/>
     <use xlink:href="#DejaVuSans-45" x="65.576172"/>
     <use xlink:href="#DejaVuSans-6c" x="128.759766"/>
     <use xlink:href="#DejaVuSans-65" x="156.542969"/>
     <use xlink:href="#DejaVuSans-6d" x="218.066406"/>
     <use xlink:href="#DejaVuSans-65" x="315.478516"/>
     <use xlink:href="#DejaVuSans-6e" x="377.001953"/>
     <use xlink:href="#DejaVuSans-74" x="440.380859"/>
    </g>
   </g>
   <g id="text_2">
    <!-- PT1-Element -->
    <g transform="translate(226.076641 43.049219) scale(0.125 -0.125)">
     <defs>
      <path id="DejaVuSans-50" d="M 1259 4147 
L 1259 2394 
L 2053 2394 
Q 2494 2394 2734 2622 
Q 2975 2850 2975 3272 
Q 2975 3691 2734 3919 
Q 2494 4147 2053 4147 
L 1259 4147 
z
M 628 4666 
L 2053 4666 
Q 2838 4666 3239 4311 
Q 3641 3956 3641 3272 
Q 3641 2581 3239 2228 
Q 2838 1875 2053 1875 
L 1259 1875 
L 1259 0 
L 628 0 
L 628 4666 
z
" transform="scale(0.015625)"/>
      <path id="DejaVuSans-54" d="M -19 4666 
L 3928 4666 
L 3928 4134 
L 2272 4134 
L 2272 0 
L 1638 0 
L 1638 4134 
L -19 4134 
L -19 4666 
z
" transform="scale(0.015625)"/>
      <path id="DejaVuSans-31" d="M 794 531 
L 1825 531 
L 1825 4091 
L 703 3866 
L 703 4441 
L 1819 4666 
L 2450 4666 
L 2450 531 
L 3481 531 
L 3481 0 
L 794 0 
L 794 531 
z
" transform="scale(0.015625)"/>
     </defs>
     <use xlink:href="#DejaVuSans-50"/>
     <use xlink:href="#DejaVuSans-54" x="60.302734"/>
     <use xlink:href="#DejaVuSans-31" x="121.386719"/>
     <use xlink:href="#DejaVuSans-2d" x="185.009766"/>
     <use xlink:href="#DejaVuSans-45" x="221.09375"/>
     <use xlink:href="#DejaVuSans-6c" x="284.277344"/>
     <use xlink:href="#DejaVuSans-65" x="312.060547"/>
     <use xlink:href="#DejaVuSans-6d" x="373.583984"/>
     <use xlink:href="#DejaVuSans-65" x="470.996094"/>
     <use xlink:href="#DejaVuSans-6e" x="532.519531"/>
     <use xlink:href="#DejaVuSans-74" x="595.898438"/>
    </g>
   </g>
   <g id="patch_2">
    <path d="M 22.77 45.9 
C 23.486048 45.9 24.172866 45.615511 24.679188 45.109188 
C 25.185511 44.602866 25.47 43.916048 25.47 43.2 
C 25.47 42.483952 25.185511 41.797134 24.679188 41.290812 
C 24.172866 40.784489 23.486048 40.5 22.77 40.5 
C 22.053952 40.5 21.367134 40.784489 20.860812 41.290812 
C 20.354489 41.797134 20.07 42.483952 20.07 43.2 
C 20.07 43.916048 20.354489 44.602866 20.860812 45.109188 
C 21.367134 45.615511 22.053952 45.9 22.77 45.9 
z
" clip-path="url(#p4989d2cd5b)" style="fill: #ffffff; stroke: #000000; stroke-width: 2; stroke-linejoin: miter"/>
   </g>
   <g id="patch_3">
    <path d="M 346.77 45.9 
C 347.486048 45.9 348.172866 45.615511 348.679188 45.109188 
C 349.185511 44.602866 349.47 43.916048 349.47 43.2 
C 349.47 42.483952 349.185511 41.797134 348.679188 41.290812 
C 348.172866 40.784489 347.486048 40.5 346.77 40.5 
C 346.053952 40.5 345.367134 40.784489 344.860812 41.290812 
C 344.354489 41.797134 344.07 42.483952 344.07 43.2 
C 344.07 43.916048 344.354489 44.602866 344.860812 45.109188 
C 345.367134 45.615511 346.053952 45.9 346.77 45.9 
z
" clip-path="url(#p4989d2cd5b)" style="fill: #ffffff; stroke: #000000; stroke-width: 2; stroke-linejoin: miter"/>
   </g>
  </g>
 </g>
 <defs>
  <clipPath id="p4989d2cd5b">
   <rect x="3.6" y="3.6" width="362.34" height="79.2"/>
  </clipPath>
 </defs>
</svg>