<?xml version="1.0" encoding="utf-8" standalone="no"?>
<!DOCTYPE svg PUBLIC "-//W3C//DTD SVG 1.1//EN"
  "http://www.w3.org/Graphics/SVG/1.1/DTD/svg11.dtd">
<svg xmlns:xlink="http://www.w3.org/1999/xlink" width="274.960943pt" height="183.499pt" viewBox="0 0 274.960943 183.499" xmlns="http://www.w3.org/2000/svg" version="1.1">
 <metadata>
  <rdf:RDF xmlns:dc="http://purl.org/dc/elements/1.1/" xmlns:cc="http://creativecommons.org/ns#" xmlns:rdf="http://www.w3.org/1999/02/22-rdf-syntax-ns#">
   <cc:Work>
    <dc:type rdf:resource="http://purl.org/dc/dcmitype/StillImage"/>
    <dc:date>2023-05-07T20:38:50.353033</dc:date>
    <dc:format>image/svg+xml</dc:format>
    <dc:creator>
     <cc:Agent>
      <dc:title>Matplotlib v3.7.1, https://matplotlib.org/</dc:title>
     </cc:Agent>
    </dc:creator>
   </cc:Work>
  </rdf:RDF>
 </metadata>
 <defs>
  <style type="text/css">*{stroke-linejoin: round; stroke-linecap: butt}</style>
 </defs>
 <g id="figure_1">
  <g id="patch_1">
   <path d="M 0 183.499 
L 274.960943 183.499 
L 274.960943 0 
L 0 0 
z
" style="fill: #ffffff"/>
  </g>
  <g id="axes_1">
   <g id="line2d_1">
    <path d="M 12.555 115.405 
L 43.155 115.405 
L 43.155 107.755 
L 73.755 107.755 
L 73.755 123.055 
L 43.155 123.055 
L 43.155 115.405 
M 73.755 115.405 
L 104.355 115.405 
" clip-path="url(#p9244b8989d)" style="fill: none; stroke: #000000; stroke-width: 2; stroke-linecap: round"/>
   </g>
   <g id="line2d_2">
    <path d="M 104.355 115.405 
L 119.655 115.405 
L 134.955 115.405 
" clip-path="url(#p9244b8989d)" style="fill: none; stroke: #000000; stroke-width: 2; stroke-linecap: round"/>
   </g>
   <g id="line2d_3">
    <path d="M 134.955 134.53 
L 134.955 96.28 
L 201.205943 134.53 
L 134.955 172.78 
L 134.955 134.53 
M 201.205943 134.53 
" clip-path="url(#p9244b8989d)" style="fill: none; stroke: #000000; stroke-width: 2; stroke-linecap: round"/>
   </g>
   <g id="line2d_4">
    <path d="M 140.176368 115.405 
L 146.296368 115.405 
" clip-path="url(#p9244b8989d)" style="fill: none; stroke: #000000; stroke-width: 2; stroke-linecap: round"/>
   </g>
   <g id="line2d_5">
    <path d="M 140.176368 153.655 
L 146.296368 153.655 
" clip-path="url(#p9244b8989d)" style="fill: none; stroke: #000000; stroke-width: 2; stroke-linecap: round"/>
   </g>
   <g id="line2d_6">
    <path d="M 143.236368 156.715 
L 143.236368 150.595 
" clip-path="url(#p9244b8989d)" style="fill: none; stroke: #000000; stroke-width: 2; stroke-linecap: round"/>
   </g>
   <g id="line2d_7">
    <path d="M 201.205943 134.53 
L 216.505943 134.53 
L 231.805943 134.53 
" clip-path="url(#p9244b8989d)" style="fill: none; stroke: #000000; stroke-width: 2; stroke-linecap: round"/>
   </g>
   <g id="line2d_8">
    <path d="M 231.805943 134.53 
L 247.105943 134.53 
L 262.405943 134.53 
" clip-path="url(#p9244b8989d)" style="fill: none; stroke: #000000; stroke-width: 2; stroke-linecap: round"/>
   </g>
   <g id="line2d_9">
    <path d="M 231.805943 134.53 
L 231.805943 88.63 
L 231.805943 42.73 
" clip-path="url(#p9244b8989d)" style="fill: none; stroke: #000000; stroke-width: 2; stroke-linecap: round"/>
   </g>
   <g id="line2d_10">
    <path d="M 231.805943 42.73 
L 201.205943 42.73 
L 201.205943 50.38 
L 170.605943 50.38 
L 170.605943 35.08 
L 201.205943 35.08 
L 201.205943 42.73 
M 170.605943 42.73 
L 140.005943 42.73 
" clip-path="url(#p9244b8989d)" style="fill: none; stroke: #000000; stroke-width: 2; stroke-linecap: round"/>
   </g>
   <g id="line2d_11">
    <path d="M 140.005943 42.73 
L 104.355 42.73 
L 104.355 115.405 
" clip-path="url(#p9244b8989d)" style="fill: none; stroke: #000000; stroke-width: 2; stroke-linecap: round"/>
   </g>
   <g id="line2d_12">
    <path d="M 134.955 153.655 
L 119.655 153.655 
L 104.355 153.655 
" clip-path="url(#p9244b8989d)" style="fill: none; stroke: #000000; stroke-width: 2; stroke-linecap: round"/>
   </g>
   <g id="line2d_13">
    <path d="M 104.355 153.655 
L 104.355 165.895 
L 96.705 165.895 
L 112.005 165.895 
M 99 169.567 
L 109.71 169.567 
M 102.825 173.239 
L 105.885 173.239 
" clip-path="url(#p9244b8989d)" style="fill: none; stroke: #000000; stroke-width: 2; stroke-linecap: round"/>
   </g>
   <g id="patch_2">
    <path d="M 104.355 117.7 
C 104.963641 117.7 105.547436 117.458184 105.97781 117.02781 
C 106.408184 116.597436 106.65 116.013641 106.65 115.405 
C 106.65 114.796359 106.408184 114.212564 105.97781 113.78219 
C 105.547436 113.351816 104.963641 113.11 104.355 113.11 
C 103.746359 113.11 103.162564 113.351816 102.73219 113.78219 
C 102.301816 114.212564 102.06 114.796359 102.06 115.405 
C 102.06 116.013641 102.301816 116.597436 102.73219 117.02781 
C 103.162564 117.458184 103.746359 117.7 104.355 117.7 
z
" clip-path="url(#p9244b8989d)" style="stroke: #000000; stroke-width: 2; stroke-linejoin: miter"/>
   </g>
   <g id="patch_3">
    <path d="M 12.555 117.7 
C 13.163641 117.7 13.747436 117.458184 14.17781 117.02781 
C 14.608184 116.597436 14.85 116.013641 14.85 115.405 
C 14.85 114.796359 14.608184 114.212564 14.17781 113.78219 
C 13.747436 113.351816 13.163641 113.11 12.555 113.11 
C 11.946359 113.11 11.362564 113.351816 10.93219 113.78219 
C 10.501816 114.212564 10.26 114.796359 10.26 115.405 
C 10.26 116.013641 10.501816 116.597436 10.93219 117.02781 
C 11.362564 117.458184 11.946359 117.7 12.555 117.7 
z
" clip-path="url(#p9244b8989d)" style="fill: #ffffff; stroke: #000000; stroke-width: 2; stroke-linejoin: miter"/>
   </g>
   <g id="text_1">
    <g clip-path="url(#p9244b8989d)">
     <!-- ${Z_1}$ -->
     <g transform="translate(51.205 102.095391) scale(0.125 -0.125)">
      <defs>
       <path id="DejaVuSans-Oblique-5a" d="M 838 4666 
L 4500 4666 
L 4409 4184 
L 794 531 
L 3769 531 
L 3669 0 
L -141 0 
L -50 481 
L 3566 4134 
L 738 4134 
L 838 4666 
z
" transform="scale(0.015625)"/>
       <path id="DejaVuSans-31" d="M 794 531 
L 1825 531 
L 1825 4091 
L 703 3866 
L 703 4441 
L 1819 4666 
L 2450 4666 
L 2450 531 
L 3481 531 
L 3481 0 
L 794 0 
L 794 531 
z
" transform="scale(0.015625)"/>
      </defs>
      <use xlink:href="#DejaVuSans-Oblique-5a" transform="translate(0 0.09375)"/>
      <use xlink:href="#DejaVuSans-31" transform="translate(68.505859 -16.3125) scale(0.7)"/>
     </g>
    </g>
   </g>
   <g id="patch_4">
    <path d="M 231.805943 136.825 
C 232.414585 136.825 232.998379 136.583184 233.428753 136.15281 
C 233.859128 135.722436 234.100943 135.138641 234.100943 134.53 
C 234.100943 133.921359 233.859128 133.337564 233.428753 132.90719 
C 232.998379 132.476816 232.414585 132.235 231.805943 132.235 
C 231.197302 132.235 230.613508 132.476816 230.183133 132.90719 
C 229.752759 133.337564 229.510943 133.921359 229.510943 134.53 
C 229.510943 135.138641 229.752759 135.722436 230.183133 136.15281 
C 230.613508 136.583184 231.197302 136.825 231.805943 136.825 
z
" clip-path="url(#p9244b8989d)" style="stroke: #000000; stroke-width: 2; stroke-linejoin: miter"/>
   </g>
   <g id="patch_5">
    <path d="M 262.405943 136.825 
C 263.014585 136.825 263.598379 136.583184 264.028753 136.15281 
C 264.459128 135.722436 264.700943 135.138641 264.700943 134.53 
C 264.700943 133.921359 264.459128 133.337564 264.028753 132.90719 
C 263.598379 132.476816 263.014585 132.235 262.405943 132.235 
C 261.797302 132.235 261.213508 132.476816 260.783133 132.90719 
C 260.352759 133.337564 260.110943 133.921359 260.110943 134.53 
C 260.110943 135.138641 260.352759 135.722436 260.783133 136.15281 
C 261.213508 136.583184 261.797302 136.825 262.405943 136.825 
z
" clip-path="url(#p9244b8989d)" style="fill: #ffffff; stroke: #000000; stroke-width: 2; stroke-linejoin: miter"/>
   </g>
   <g id="text_2">
    <g clip-path="url(#p9244b8989d)">
     <!-- ${Z_2}$ -->
     <g transform="translate(178.655943 29.420391) scale(0.125 -0.125)">
      <defs>
       <path id="DejaVuSans-32" d="M 1228 531 
L 3431 531 
L 3431 0 
L 469 0 
L 469 531 
Q 828 903 1448 1529 
Q 2069 2156 2228 2338 
Q 2531 2678 2651 2914 
Q 2772 3150 2772 3378 
Q 2772 3750 2511 3984 
Q 2250 4219 1831 4219 
Q 1534 4219 1204 4116 
Q 875 4013 500 3803 
L 500 4441 
Q 881 4594 1212 4672 
Q 1544 4750 1819 4750 
Q 2544 4750 2975 4387 
Q 3406 4025 3406 3419 
Q 3406 3131 3298 2873 
Q 3191 2616 2906 2266 
Q 2828 2175 2409 1742 
Q 1991 1309 1228 531 
z
" transform="scale(0.015625)"/>
      </defs>
      <use xlink:href="#DejaVuSans-Oblique-5a" transform="translate(0 0.09375)"/>
      <use xlink:href="#DejaVuSans-32" transform="translate(68.505859 -16.3125) scale(0.7)"/>
     </g>
    </g>
   </g>
  </g>
 </g>
 <defs>
  <clipPath id="p9244b8989d">
   <rect x="7.2" y="7.2" width="260.560943" height="169.099"/>
  </clipPath>
 </defs>
</svg>