<?xml version="1.0" encoding="utf-8" standalone="no"?>
<!DOCTYPE svg PUBLIC "-//W3C//DTD SVG 1.1//EN"
  "http://www.w3.org/Graphics/SVG/1.1/DTD/svg11.dtd">
<svg xmlns:xlink="http://www.w3.org/1999/xlink" width="329.8248pt" height="160.43pt" viewBox="0 0 329.8248 160.43" xmlns="http://www.w3.org/2000/svg" version="1.1">
 <metadata>
  <rdf:RDF xmlns:dc="http://purl.org/dc/elements/1.1/" xmlns:cc="http://creativecommons.org/ns#" xmlns:rdf="http://www.w3.org/1999/02/22-rdf-syntax-ns#">
   <cc:Work>
    <dc:type rdf:resource="http://purl.org/dc/dcmitype/StillImage"/>
    <dc:date>2023-04-23T19:04:30.021316</dc:date>
    <dc:format>image/svg+xml</dc:format>
    <dc:creator>
     <cc:Agent>
      <dc:title>Matplotlib v3.7.1, https://matplotlib.org/</dc:title>
     </cc:Agent>
    </dc:creator>
   </cc:Work>
  </rdf:RDF>
 </metadata>
 <defs>
  <style type="text/css">*{stroke-linejoin: round; stroke-linecap: butt}</style>
 </defs>
 <g id="figure_1">
  <g id="patch_1">
   <path d="M 0 160.43 
L 329.8248 160.43 
L 329.8248 0 
L 0 0 
z
" style="fill: #ffffff"/>
  </g>
  <g id="axes_1">
   <g id="patch_2">
    <path d="M 77.0598 29.725 
L 87.7698 37.375 
L 77.0598 45.025 
L 77.0598 29.725 
z
" clip-path="url(#p349ee38f58)" style="fill: none; stroke: #000000; stroke-width: 2; stroke-linecap: round"/>
   </g>
   <g id="patch_3">
    <path d="M 92.3598 132.847 
C 93.333626 132.847 94.267697 132.460095 94.956296 131.771496 
C 95.644895 131.082897 96.0318 130.148826 96.0318 129.175 
C 96.0318 128.201174 95.644895 127.267103 94.956296 126.578504 
C 94.267697 125.889905 93.333626 125.503 92.3598 125.503 
C 91.385974 125.503 90.451903 125.889905 89.763304 126.578504 
C 89.074705 127.267103 88.6878 128.201174 88.6878 129.175 
C 88.6878 130.148826 89.074705 131.082897 89.763304 131.771496 
C 90.451903 132.460095 91.385974 132.847 92.3598 132.847 
L 92.3598 132.847 
z
" clip-path="url(#p349ee38f58)" style="fill: none; stroke: #000000; stroke-width: 2; stroke-linejoin: miter"/>
   </g>
   <g id="patch_4">
    <path d="M 184.1598 132.847 
C 185.133626 132.847 186.067697 132.460095 186.756296 131.771496 
C 187.444895 131.082897 187.8318 130.148826 187.8318 129.175 
C 187.8318 128.201174 187.444895 127.267103 186.756296 126.578504 
C 186.067697 125.889905 185.133626 125.503 184.1598 125.503 
C 183.185974 125.503 182.251903 125.889905 181.563304 126.578504 
C 180.874705 127.267103 180.4878 128.201174 180.4878 129.175 
C 180.4878 130.148826 180.874705 131.082897 181.563304 131.771496 
C 182.251903 132.460095 183.185974 132.847 184.1598 132.847 
L 184.1598 132.847 
z
" clip-path="url(#p349ee38f58)" style="fill: none; stroke: #000000; stroke-width: 2; stroke-linejoin: miter"/>
   </g>
   <g id="patch_5">
    <path d="M 168.8598 29.725 
L 179.5698 37.375 
L 168.8598 45.025 
L 168.8598 29.725 
z
" clip-path="url(#p349ee38f58)" style="fill: none; stroke: #000000; stroke-width: 2; stroke-linecap: round"/>
   </g>
   <g id="patch_6">
    <path d="M 260.6598 29.725 
L 271.3698 37.375 
L 260.6598 45.025 
L 260.6598 29.725 
z
" clip-path="url(#p349ee38f58)" style="fill: none; stroke: #000000; stroke-width: 2; stroke-linecap: round"/>
   </g>
   <g id="line2d_1">
    <path d="M 36.5148 37.375 
L 77.0598 37.375 
M 87.7698 29.725 
L 87.7698 45.025 
M 87.7698 37.375 
L 128.3148 37.375 
" clip-path="url(#p349ee38f58)" style="fill: none; stroke: #000000; stroke-width: 2; stroke-linecap: round"/>
   </g>
   <g id="line2d_2">
    <path d="M 128.3148 37.375 
L 128.3148 80.521 
M 135.9648 80.521 
L 120.6648 80.521 
M 135.9648 86.029 
L 120.6648 86.029 
M 128.3148 86.029 
L 128.3148 129.175 
" clip-path="url(#p349ee38f58)" style="fill: none; stroke: #000000; stroke-width: 2; stroke-linecap: round"/>
   </g>
   <g id="line2d_3">
    <path d="M 128.3148 129.175 
L 96.0318 129.175 
M 68.7978 129.175 
L 36.5148 129.175 
" clip-path="url(#p349ee38f58)" style="fill: none; stroke: #000000; stroke-width: 2; stroke-linecap: round"/>
   </g>
   <g id="line2d_4">
    <path d="M 68.7978 144.475 
L 68.7978 113.875 
L 88.6878 129.175 
L 68.7978 144.475 
" clip-path="url(#p349ee38f58)" style="fill: none; stroke: #000000; stroke-width: 2; stroke-linecap: round"/>
   </g>
   <g id="line2d_5">
    <path d="M 128.3148 129.175 
L 160.5978 129.175 
M 187.8318 129.175 
L 220.1148 129.175 
" clip-path="url(#p349ee38f58)" style="fill: none; stroke: #000000; stroke-width: 2; stroke-linecap: round"/>
   </g>
   <g id="line2d_6">
    <path d="M 160.5978 113.875 
L 180.4878 129.175 
L 160.5978 144.475 
L 160.5978 113.875 
" clip-path="url(#p349ee38f58)" style="fill: none; stroke: #000000; stroke-width: 2; stroke-linecap: round"/>
   </g>
   <g id="line2d_7">
    <path d="M 220.1148 129.175 
L 220.1148 86.029 
M 212.4648 86.029 
L 227.7648 86.029 
M 212.4648 80.521 
L 227.7648 80.521 
M 220.1148 80.521 
L 220.1148 37.375 
" clip-path="url(#p349ee38f58)" style="fill: none; stroke: #000000; stroke-width: 2; stroke-linecap: round"/>
   </g>
   <g id="line2d_8">
    <path d="M 128.3148 37.375 
L 168.8598 37.375 
M 179.5698 29.725 
L 179.5698 45.025 
M 179.5698 37.375 
L 220.1148 37.375 
" clip-path="url(#p349ee38f58)" style="fill: none; stroke: #000000; stroke-width: 2; stroke-linecap: round"/>
   </g>
   <g id="line2d_9">
    <path d="M 220.1148 37.375 
L 260.6598 37.375 
M 271.3698 29.725 
L 271.3698 45.025 
M 271.3698 37.375 
L 311.9148 37.375 
" clip-path="url(#p349ee38f58)" style="fill: none; stroke: #000000; stroke-width: 2; stroke-linecap: round"/>
   </g>
   <g id="line2d_10">
    <path d="M 311.9148 37.375 
L 311.9148 80.521 
M 319.5648 80.521 
L 304.2648 80.521 
M 319.5648 86.029 
L 304.2648 86.029 
M 311.9148 86.029 
L 311.9148 129.175 
" clip-path="url(#p349ee38f58)" style="fill: none; stroke: #000000; stroke-width: 2; stroke-linecap: round"/>
   </g>
   <g id="line2d_11">
    <path d="M 311.9148 129.175 
L 311.9148 141.415 
L 304.2648 141.415 
L 319.5648 141.415 
M 306.5598 145.087 
L 317.2698 145.087 
M 310.3848 148.759 
L 313.4448 148.759 
" clip-path="url(#p349ee38f58)" style="fill: none; stroke: #000000; stroke-width: 2; stroke-linecap: round"/>
   </g>
   <g id="patch_7">
    <path d="M 128.3148 39.67 
C 128.923441 39.67 129.507236 39.428184 129.93761 38.99781 
C 130.367984 38.567436 130.6098 37.983641 130.6098 37.375 
C 130.6098 36.766359 130.367984 36.182564 129.93761 35.75219 
C 129.507236 35.321816 128.923441 35.08 128.3148 35.08 
C 127.706159 35.08 127.122364 35.321816 126.69199 35.75219 
C 126.261616 36.182564 126.0198 36.766359 126.0198 37.375 
C 126.0198 37.983641 126.261616 38.567436 126.69199 38.99781 
C 127.122364 39.428184 127.706159 39.67 128.3148 39.67 
z
" clip-path="url(#p349ee38f58)" style="stroke: #000000; stroke-width: 2; stroke-linejoin: miter"/>
   </g>
   <g id="patch_8">
    <path d="M 36.5148 39.67 
C 37.123441 39.67 37.707236 39.428184 38.13761 38.99781 
C 38.567984 38.567436 38.8098 37.983641 38.8098 37.375 
C 38.8098 36.766359 38.567984 36.182564 38.13761 35.75219 
C 37.707236 35.321816 37.123441 35.08 36.5148 35.08 
C 35.906159 35.08 35.322364 35.321816 34.89199 35.75219 
C 34.461616 36.182564 34.2198 36.766359 34.2198 37.375 
C 34.2198 37.983641 34.461616 38.567436 34.89199 38.99781 
C 35.322364 39.428184 35.906159 39.67 36.5148 39.67 
z
" clip-path="url(#p349ee38f58)" style="fill: #ffffff; stroke: #000000; stroke-width: 2; stroke-linejoin: miter"/>
   </g>
   <g id="text_1">
    <g clip-path="url(#p349ee38f58)">
     <!-- $5V$ -->
     <g transform="translate(14.5348 40.824219) scale(0.125 -0.125)">
      <defs>
       <path id="DejaVuSans-35" d="M 691 4666 
L 3169 4666 
L 3169 4134 
L 1269 4134 
L 1269 2991 
Q 1406 3038 1543 3061 
Q 1681 3084 1819 3084 
Q 2600 3084 3056 2656 
Q 3513 2228 3513 1497 
Q 3513 744 3044 326 
Q 2575 -91 1722 -91 
Q 1428 -91 1123 -41 
Q 819 9 494 109 
L 494 744 
Q 775 591 1075 516 
Q 1375 441 1709 441 
Q 2250 441 2565 725 
Q 2881 1009 2881 1497 
Q 2881 1984 2565 2268 
Q 2250 2553 1709 2553 
Q 1456 2553 1204 2497 
Q 953 2441 691 2322 
L 691 4666 
z
" transform="scale(0.015625)"/>
       <path id="DejaVuSans-Oblique-56" d="M 1319 0 
L 500 4666 
L 1119 4666 
L 1797 653 
L 4063 4666 
L 4750 4666 
L 2053 0 
L 1319 0 
z
" transform="scale(0.015625)"/>
      </defs>
      <use xlink:href="#DejaVuSans-35" transform="translate(0 0.09375)"/>
      <use xlink:href="#DejaVuSans-Oblique-56" transform="translate(63.623047 0.09375)"/>
     </g>
    </g>
   </g>
   <g id="patch_9">
    <path d="M 128.3148 131.47 
C 128.923441 131.47 129.507236 131.228184 129.93761 130.79781 
C 130.367984 130.367436 130.6098 129.783641 130.6098 129.175 
C 130.6098 128.566359 130.367984 127.982564 129.93761 127.55219 
C 129.507236 127.121816 128.923441 126.88 128.3148 126.88 
C 127.706159 126.88 127.122364 127.121816 126.69199 127.55219 
C 126.261616 127.982564 126.0198 128.566359 126.0198 129.175 
C 126.0198 129.783641 126.261616 130.367436 126.69199 130.79781 
C 127.122364 131.228184 127.706159 131.47 128.3148 131.47 
z
" clip-path="url(#p349ee38f58)" style="stroke: #000000; stroke-width: 2; stroke-linejoin: miter"/>
   </g>
   <g id="text_2">
    <g clip-path="url(#p349ee38f58)">
     <!-- + -->
     <g transform="translate(107.130191 64.347969) scale(0.125 -0.125)">
      <defs>
       <path id="DejaVuSans-2b" d="M 2944 4013 
L 2944 2272 
L 4684 2272 
L 4684 1741 
L 2944 1741 
L 2944 0 
L 2419 0 
L 2419 1741 
L 678 1741 
L 678 2272 
L 2419 2272 
L 2419 4013 
L 2944 4013 
z
" transform="scale(0.015625)"/>
      </defs>
      <use xlink:href="#DejaVuSans-2b"/>
     </g>
    </g>
   </g>
   <g id="text_3">
    <g clip-path="url(#p349ee38f58)">
     <!-- $5V$ -->
     <g transform="translate(100.9798 87.871719) scale(0.125 -0.125)">
      <use xlink:href="#DejaVuSans-35" transform="translate(0 0.09375)"/>
      <use xlink:href="#DejaVuSans-Oblique-56" transform="translate(63.623047 0.09375)"/>
     </g>
    </g>
   </g>
   <g id="text_4">
    <g clip-path="url(#p349ee38f58)">
     <!-- - -->
     <g transform="translate(113.095034 111.395469) scale(0.125 -0.125)">
      <defs>
       <path id="DejaVuSans-2d" d="M 313 2009 
L 1997 2009 
L 1997 1497 
L 313 1497 
L 313 2009 
z
" transform="scale(0.015625)"/>
      </defs>
      <use xlink:href="#DejaVuSans-2d"/>
     </g>
    </g>
   </g>
   <g id="text_5">
    <g clip-path="url(#p349ee38f58)">
     <!-- $\uparrow 5V$ -->
     <g transform="translate(112.3773 144.028047) scale(0.125 -0.125)">
      <defs>
       <path id="DejaVuSans-2191" d="M 2541 4688 
L 2822 4688 
L 4047 3456 
L 3672 3081 
L 2947 3813 
L 2947 0 
L 2416 0 
L 2416 3813 
L 1684 3081 
L 1309 3456 
L 2541 4688 
z
" transform="scale(0.015625)"/>
      </defs>
      <use xlink:href="#DejaVuSans-2191" transform="translate(19.482422 0.75)"/>
      <use xlink:href="#DejaVuSans-35" transform="translate(122.753906 0.75)"/>
      <use xlink:href="#DejaVuSans-Oblique-56" transform="translate(186.376953 0.75)"/>
     </g>
    </g>
   </g>
   <g id="text_6">
    <g clip-path="url(#p349ee38f58)">
     <!-- $\uparrow 10V$ -->
     <g transform="translate(108.3773 31.715391) scale(0.125 -0.125)">
      <defs>
       <path id="DejaVuSans-31" d="M 794 531 
L 1825 531 
L 1825 4091 
L 703 3866 
L 703 4441 
L 1819 4666 
L 2450 4666 
L 2450 531 
L 3481 531 
L 3481 0 
L 794 0 
L 794 531 
z
" transform="scale(0.015625)"/>
       <path id="DejaVuSans-30" d="M 2034 4250 
Q 1547 4250 1301 3770 
Q 1056 3291 1056 2328 
Q 1056 1369 1301 889 
Q 1547 409 2034 409 
Q 2525 409 2770 889 
Q 3016 1369 3016 2328 
Q 3016 3291 2770 3770 
Q 2525 4250 2034 4250 
z
M 2034 4750 
Q 2819 4750 3233 4129 
Q 3647 3509 3647 2328 
Q 3647 1150 3233 529 
Q 2819 -91 2034 -91 
Q 1250 -91 836 529 
Q 422 1150 422 2328 
Q 422 3509 836 4129 
Q 1250 4750 2034 4750 
z
" transform="scale(0.015625)"/>
      </defs>
      <use xlink:href="#DejaVuSans-2191" transform="translate(19.482422 0.78125)"/>
      <use xlink:href="#DejaVuSans-31" transform="translate(122.753906 0.78125)"/>
      <use xlink:href="#DejaVuSans-30" transform="translate(186.376953 0.78125)"/>
      <use xlink:href="#DejaVuSans-Oblique-56" transform="translate(250 0.78125)"/>
     </g>
    </g>
   </g>
   <g id="patch_10">
    <path d="M 36.5148 131.47 
C 37.123441 131.47 37.707236 131.228184 38.13761 130.79781 
C 38.567984 130.367436 38.8098 129.783641 38.8098 129.175 
C 38.8098 128.566359 38.567984 127.982564 38.13761 127.55219 
C 37.707236 127.121816 37.123441 126.88 36.5148 126.88 
C 35.906159 126.88 35.322364 127.121816 34.89199 127.55219 
C 34.461616 127.982564 34.2198 128.566359 34.2198 129.175 
C 34.2198 129.783641 34.461616 130.367436 34.89199 130.79781 
C 35.322364 131.228184 35.906159 131.47 36.5148 131.47 
z
" clip-path="url(#p349ee38f58)" style="fill: #ffffff; stroke: #000000; stroke-width: 2; stroke-linejoin: miter"/>
   </g>
   <g id="text_7">
    <g clip-path="url(#p349ee38f58)">
     <!-- $0V$ -->
     <g transform="translate(14.5348 132.624219) scale(0.125 -0.125)">
      <use xlink:href="#DejaVuSans-30" transform="translate(0 0.78125)"/>
      <use xlink:href="#DejaVuSans-Oblique-56" transform="translate(63.623047 0.78125)"/>
     </g>
    </g>
   </g>
   <g id="text_8">
    <g clip-path="url(#p349ee38f58)">
     <!-- $0V$ -->
     <g transform="translate(223.1748 132.624219) scale(0.125 -0.125)">
      <use xlink:href="#DejaVuSans-30" transform="translate(0 0.78125)"/>
      <use xlink:href="#DejaVuSans-Oblique-56" transform="translate(63.623047 0.78125)"/>
     </g>
    </g>
   </g>
   <g id="patch_11">
    <path d="M 220.1148 39.67 
C 220.723441 39.67 221.307236 39.428184 221.73761 38.99781 
C 222.167984 38.567436 222.4098 37.983641 222.4098 37.375 
C 222.4098 36.766359 222.167984 36.182564 221.73761 35.75219 
C 221.307236 35.321816 220.723441 35.08 220.1148 35.08 
C 219.506159 35.08 218.922364 35.321816 218.49199 35.75219 
C 218.061616 36.182564 217.8198 36.766359 217.8198 37.375 
C 217.8198 37.983641 218.061616 38.567436 218.49199 38.99781 
C 218.922364 39.428184 219.506159 39.67 220.1148 39.67 
z
" clip-path="url(#p349ee38f58)" style="stroke: #000000; stroke-width: 2; stroke-linejoin: miter"/>
   </g>
   <g id="text_9">
    <g clip-path="url(#p349ee38f58)">
     <!-- - -->
     <g transform="translate(204.895034 109.100469) scale(0.125 -0.125)">
      <use xlink:href="#DejaVuSans-2d"/>
     </g>
    </g>
   </g>
   <g id="text_10">
    <g clip-path="url(#p349ee38f58)">
     <!-- $10V$ -->
     <g transform="translate(184.9048 85.576719) scale(0.125 -0.125)">
      <use xlink:href="#DejaVuSans-31" transform="translate(0 0.78125)"/>
      <use xlink:href="#DejaVuSans-30" transform="translate(63.623047 0.78125)"/>
      <use xlink:href="#DejaVuSans-Oblique-56" transform="translate(127.246094 0.78125)"/>
     </g>
    </g>
   </g>
   <g id="text_11">
    <g clip-path="url(#p349ee38f58)">
     <!-- + -->
     <g transform="translate(198.930191 62.052969) scale(0.125 -0.125)">
      <use xlink:href="#DejaVuSans-2b"/>
     </g>
    </g>
   </g>
   <g id="text_12">
    <g clip-path="url(#p349ee38f58)">
     <!-- $10V$ -->
     <g transform="translate(207.8648 29.420391) scale(0.125 -0.125)">
      <use xlink:href="#DejaVuSans-31" transform="translate(0 0.78125)"/>
      <use xlink:href="#DejaVuSans-30" transform="translate(63.623047 0.78125)"/>
      <use xlink:href="#DejaVuSans-Oblique-56" transform="translate(127.246094 0.78125)"/>
     </g>
    </g>
   </g>
   <g id="patch_12">
    <path d="M 311.9148 39.67 
C 312.523441 39.67 313.107236 39.428184 313.53761 38.99781 
C 313.967984 38.567436 314.2098 37.983641 314.2098 37.375 
C 314.2098 36.766359 313.967984 36.182564 313.53761 35.75219 
C 313.107236 35.321816 312.523441 35.08 311.9148 35.08 
C 311.306159 35.08 310.722364 35.321816 310.29199 35.75219 
C 309.861616 36.182564 309.6198 36.766359 309.6198 37.375 
C 309.6198 37.983641 309.861616 38.567436 310.29199 38.99781 
C 310.722364 39.428184 311.306159 39.67 311.9148 39.67 
z
" clip-path="url(#p349ee38f58)" style="fill: #ffffff; stroke: #000000; stroke-width: 2; stroke-linejoin: miter"/>
   </g>
   <g id="text_13">
    <g clip-path="url(#p349ee38f58)">
     <!-- + -->
     <g transform="translate(290.730191 63.774219) scale(0.125 -0.125)">
      <use xlink:href="#DejaVuSans-2b"/>
     </g>
    </g>
   </g>
   <g id="text_14">
    <g clip-path="url(#p349ee38f58)">
     <!-- $10V$ -->
     <g transform="translate(276.7048 86.724219) scale(0.125 -0.125)">
      <use xlink:href="#DejaVuSans-31" transform="translate(0 0.78125)"/>
      <use xlink:href="#DejaVuSans-30" transform="translate(63.623047 0.78125)"/>
      <use xlink:href="#DejaVuSans-Oblique-56" transform="translate(127.246094 0.78125)"/>
     </g>
    </g>
   </g>
   <g id="text_15">
    <g clip-path="url(#p349ee38f58)">
     <!-- - -->
     <g transform="translate(296.695034 109.674219) scale(0.125 -0.125)">
      <use xlink:href="#DejaVuSans-2d"/>
     </g>
    </g>
   </g>
  </g>
 </g>
 <defs>
  <clipPath id="p349ee38f58">
   <rect x="7.2" y="7.2" width="315.4248" height="146.03"/>
  </clipPath>
 </defs>
</svg>