<?xml version="1.0" encoding="utf-8" standalone="no"?>
<!DOCTYPE svg PUBLIC "-//W3C//DTD SVG 1.1//EN"
  "http://www.w3.org/Graphics/SVG/1.1/DTD/svg11.dtd">
<svg xmlns:xlink="http://www.w3.org/1999/xlink" width="320.436pt" height="149.562pt" viewBox="0 0 320.436 149.562" xmlns="http://www.w3.org/2000/svg" version="1.1">
 <metadata>
  <rdf:RDF xmlns:dc="http://purl.org/dc/elements/1.1/" xmlns:cc="http://creativecommons.org/ns#" xmlns:rdf="http://www.w3.org/1999/02/22-rdf-syntax-ns#">
   <cc:Work>
    <dc:type rdf:resource="http://purl.org/dc/dcmitype/StillImage"/>
    <dc:date>2023-06-04T22:58:22.615439</dc:date>
    <dc:format>image/svg+xml</dc:format>
    <dc:creator>
     <cc:Agent>
      <dc:title>Matplotlib v3.7.1, https://matplotlib.org/</dc:title>
     </cc:Agent>
    </dc:creator>
   </cc:Work>
  </rdf:RDF>
 </metadata>
 <defs>
  <style type="text/css">*{stroke-linejoin: round; stroke-linecap: butt}</style>
 </defs>
 <g id="figure_1">
  <g id="patch_1">
   <path d="M -0 149.562 
L 320.436 149.562 
L 320.436 0 
L -0 0 
z
" style="fill: #ffffff"/>
  </g>
  <g id="axes_1">
   <g id="patch_2">
    <path d="M 234.198 37.791 
L 221.598 28.791 
L 234.198 19.791 
L 234.198 37.791 
z
" clip-path="url(#p6f01175367)" style="fill: none; stroke: #000000; stroke-width: 2; stroke-linecap: round"/>
   </g>
   <g id="patch_3">
    <path d="M 200.898 76.491 
L 191.898 89.091 
L 182.898 76.491 
L 200.898 76.491 
z
" clip-path="url(#p6f01175367)" style="fill: none; stroke: #000000; stroke-width: 2; stroke-linecap: round"/>
   </g>
   <g id="line2d_1">
    <path d="M 20.538 14.391 
L 38.538 14.391 
L 56.538 14.391 
" clip-path="url(#p6f01175367)" style="fill: none; stroke: #000000; stroke-width: 2; stroke-linecap: round"/>
   </g>
   <g id="line2d_2">
    <path d="M 52.218 14.391 
M 63.018 19.791 
L 79.578 25.191 
M 88.218 28.791 
" clip-path="url(#p6f01175367)" style="fill: none; stroke: #000000; stroke-width: 2; stroke-linecap: round"/>
   </g>
   <g id="line2d_3">
    <path d="M 83.898 28.791 
L 134.658 28.791 
M 134.658 19.791 
L 134.658 37.791 
M 141.138 19.791 
L 141.138 37.791 
M 141.138 28.791 
L 191.898 28.791 
" clip-path="url(#p6f01175367)" style="fill: none; stroke: #000000; stroke-width: 2; stroke-linecap: round"/>
   </g>
   <g id="line2d_4">
    <path d="M 191.898 28.791 
L 221.598 28.791 
M 221.598 37.791 
L 221.598 19.791 
M 234.198 28.791 
L 263.898 28.791 
" clip-path="url(#p6f01175367)" style="fill: none; stroke: #000000; stroke-width: 2; stroke-linecap: round"/>
   </g>
   <g id="line2d_5">
    <path d="M 263.898 28.791 
L 281.898 28.791 
L 299.898 28.791 
" clip-path="url(#p6f01175367)" style="fill: none; stroke: #000000; stroke-width: 2; stroke-linecap: round"/>
   </g>
   <g id="line2d_6">
    <path d="M 263.898 28.791 
L 263.898 79.551 
M 272.898 79.551 
L 254.898 79.551 
M 272.898 86.031 
L 254.898 86.031 
M 263.898 86.031 
L 263.898 136.791 
" clip-path="url(#p6f01175367)" style="fill: none; stroke: #000000; stroke-width: 2; stroke-linecap: round"/>
   </g>
   <g id="line2d_7">
    <path d="M 191.898 28.791 
L 191.898 76.491 
M 200.898 89.091 
L 182.898 89.091 
M 191.898 89.091 
L 191.898 136.791 
" clip-path="url(#p6f01175367)" style="fill: none; stroke: #000000; stroke-width: 2; stroke-linecap: round"/>
   </g>
   <g id="line2d_8">
    <path d="M 191.898 136.791 
L 263.898 136.791 
" clip-path="url(#p6f01175367)" style="fill: none; stroke: #000000; stroke-width: 2; stroke-linecap: round"/>
   </g>
   <g id="line2d_9">
    <path d="M 263.898 136.791 
L 281.898 136.791 
L 299.898 136.791 
" clip-path="url(#p6f01175367)" style="fill: none; stroke: #000000; stroke-width: 2; stroke-linecap: round"/>
   </g>
   <g id="line2d_10">
    <path d="M 191.898 136.791 
L 124.218 136.791 
L 56.538 136.791 
" clip-path="url(#p6f01175367)" style="fill: none; stroke: #000000; stroke-width: 2; stroke-linecap: round"/>
   </g>
   <g id="line2d_11">
    <path d="M 56.538 136.791 
L 56.538 89.991 
L 56.538 43.191 
" clip-path="url(#p6f01175367)" style="fill: none; stroke: #000000; stroke-width: 2; stroke-linecap: round"/>
   </g>
   <g id="line2d_12">
    <path d="M 56.538 136.791 
L 38.538 136.791 
L 20.538 136.791 
" clip-path="url(#p6f01175367)" style="fill: none; stroke: #000000; stroke-width: 2; stroke-linecap: round"/>
   </g>
   <g id="patch_4">
    <path d="M 20.538 17.091 
C 21.254048 17.091 21.940866 16.806511 22.447188 16.300188 
C 22.953511 15.793866 23.238 15.107048 23.238 14.391 
C 23.238 13.674952 22.953511 12.988134 22.447188 12.481812 
C 21.940866 11.975489 21.254048 11.691 20.538 11.691 
C 19.821952 11.691 19.135134 11.975489 18.628812 12.481812 
C 18.122489 12.988134 17.838 13.674952 17.838 14.391 
C 17.838 15.107048 18.122489 15.793866 18.628812 16.300188 
C 19.135134 16.806511 19.821952 17.091 20.538 17.091 
z
" clip-path="url(#p6f01175367)" style="fill: #ffffff; stroke: #000000; stroke-width: 2; stroke-linejoin: miter"/>
   </g>
   <g id="patch_5">
    <path d="M 83.898 33.111 
C 85.043677 33.111 86.142585 32.655818 86.952701 31.845701 
C 87.762818 31.035585 88.218 29.936677 88.218 28.791 
C 88.218 27.645323 87.762818 26.546415 86.952701 25.736299 
C 86.142585 24.926182 85.043677 24.471 83.898 24.471 
C 82.752323 24.471 81.653415 24.926182 80.843299 25.736299 
C 80.033182 26.546415 79.578 27.645323 79.578 28.791 
C 79.578 29.936677 80.033182 31.035585 80.843299 31.845701 
C 81.653415 32.655818 82.752323 33.111 83.898 33.111 
z
" clip-path="url(#p6f01175367)" style="fill: #ffffff; stroke: #000000; stroke-width: 2; stroke-linejoin: miter"/>
   </g>
   <g id="patch_6">
    <path d="M 56.538 47.511 
C 57.683677 47.511 58.782585 47.055818 59.592701 46.245701 
C 60.402818 45.435585 60.858 44.336677 60.858 43.191 
C 60.858 42.045323 60.402818 40.946415 59.592701 40.136299 
C 58.782585 39.326182 57.683677 38.871 56.538 38.871 
C 55.392323 38.871 54.293415 39.326182 53.483299 40.136299 
C 52.673182 40.946415 52.218 42.045323 52.218 43.191 
C 52.218 44.336677 52.673182 45.435585 53.483299 46.245701 
C 54.293415 47.055818 55.392323 47.511 56.538 47.511 
z
" clip-path="url(#p6f01175367)" style="fill: #ffffff; stroke: #000000; stroke-width: 2; stroke-linejoin: miter"/>
   </g>
   <g id="patch_7">
    <path d="M 56.538 18.711 
C 57.683677 18.711 58.782585 18.255818 59.592701 17.445701 
C 60.402818 16.635585 60.858 15.536677 60.858 14.391 
C 60.858 13.245323 60.402818 12.146415 59.592701 11.336299 
C 58.782585 10.526182 57.683677 10.071 56.538 10.071 
C 55.392323 10.071 54.293415 10.526182 53.483299 11.336299 
C 52.673182 12.146415 52.218 13.245323 52.218 14.391 
C 52.218 15.536677 52.673182 16.635585 53.483299 17.445701 
C 54.293415 18.255818 55.392323 18.711 56.538 18.711 
z
" clip-path="url(#p6f01175367)" style="fill: #ffffff; stroke: #000000; stroke-width: 2; stroke-linejoin: miter"/>
   </g>
   <g id="patch_8">
    <path d="M 191.898 31.491 
C 192.614048 31.491 193.300866 31.206511 193.807188 30.700188 
C 194.313511 30.193866 194.598 29.507048 194.598 28.791 
C 194.598 28.074952 194.313511 27.388134 193.807188 26.881812 
C 193.300866 26.375489 192.614048 26.091 191.898 26.091 
C 191.181952 26.091 190.495134 26.375489 189.988812 26.881812 
C 189.482489 27.388134 189.198 28.074952 189.198 28.791 
C 189.198 29.507048 189.482489 30.193866 189.988812 30.700188 
C 190.495134 31.206511 191.181952 31.491 191.898 31.491 
z
" clip-path="url(#p6f01175367)" style="stroke: #000000; stroke-width: 2; stroke-linejoin: miter"/>
   </g>
   <g id="patch_9">
    <path d="M 299.898 31.491 
C 300.614048 31.491 301.300866 31.206511 301.807188 30.700188 
C 302.313511 30.193866 302.598 29.507048 302.598 28.791 
C 302.598 28.074952 302.313511 27.388134 301.807188 26.881812 
C 301.300866 26.375489 300.614048 26.091 299.898 26.091 
C 299.181952 26.091 298.495134 26.375489 297.988812 26.881812 
C 297.482489 27.388134 297.198 28.074952 297.198 28.791 
C 297.198 29.507048 297.482489 30.193866 297.988812 30.700188 
C 298.495134 31.206511 299.181952 31.491 299.898 31.491 
z
" clip-path="url(#p6f01175367)" style="fill: #ffffff; stroke: #000000; stroke-width: 2; stroke-linejoin: miter"/>
   </g>
   <g id="patch_10">
    <path d="M 191.898 139.491 
C 192.614048 139.491 193.300866 139.206511 193.807188 138.700188 
C 194.313511 138.193866 194.598 137.507048 194.598 136.791 
C 194.598 136.074952 194.313511 135.388134 193.807188 134.881812 
C 193.300866 134.375489 192.614048 134.091 191.898 134.091 
C 191.181952 134.091 190.495134 134.375489 189.988812 134.881812 
C 189.482489 135.388134 189.198 136.074952 189.198 136.791 
C 189.198 137.507048 189.482489 138.193866 189.988812 138.700188 
C 190.495134 139.206511 191.181952 139.491 191.898 139.491 
z
" clip-path="url(#p6f01175367)" style="stroke: #000000; stroke-width: 2; stroke-linejoin: miter"/>
   </g>
   <g id="patch_11">
    <path d="M 263.898 139.491 
C 264.614048 139.491 265.300866 139.206511 265.807188 138.700188 
C 266.313511 138.193866 266.598 137.507048 266.598 136.791 
C 266.598 136.074952 266.313511 135.388134 265.807188 134.881812 
C 265.300866 134.375489 264.614048 134.091 263.898 134.091 
C 263.181952 134.091 262.495134 134.375489 261.988812 134.881812 
C 261.482489 135.388134 261.198 136.074952 261.198 136.791 
C 261.198 137.507048 261.482489 138.193866 261.988812 138.700188 
C 262.495134 139.206511 263.181952 139.491 263.898 139.491 
z
" clip-path="url(#p6f01175367)" style="stroke: #000000; stroke-width: 2; stroke-linejoin: miter"/>
   </g>
   <g id="patch_12">
    <path d="M 299.898 139.491 
C 300.614048 139.491 301.300866 139.206511 301.807188 138.700188 
C 302.313511 138.193866 302.598 137.507048 302.598 136.791 
C 302.598 136.074952 302.313511 135.388134 301.807188 134.881812 
C 301.300866 134.375489 300.614048 134.091 299.898 134.091 
C 299.181952 134.091 298.495134 134.375489 297.988812 134.881812 
C 297.482489 135.388134 297.198 136.074952 297.198 136.791 
C 297.198 137.507048 297.482489 138.193866 297.988812 138.700188 
C 298.495134 139.206511 299.181952 139.491 299.898 139.491 
z
" clip-path="url(#p6f01175367)" style="fill: #ffffff; stroke: #000000; stroke-width: 2; stroke-linejoin: miter"/>
   </g>
   <g id="text_1">
    <!-- - -->
    <g transform="translate(297.643117 113.240219) scale(0.125 -0.125)">
     <defs>
      <path id="DejaVuSans-2d" d="M 313 2009 
L 1997 2009 
L 1997 1497 
L 313 1497 
L 313 2009 
z
" transform="scale(0.015625)"/>
     </defs>
     <use xlink:href="#DejaVuSans-2d"/>
    </g>
   </g>
   <g id="text_2">
    <!-- $U_a$ -->
    <g transform="translate(292.4605 86.240219) scale(0.125 -0.125)">
     <defs>
      <path id="DejaVuSans-Oblique-55" d="M 991 4666 
L 1625 4666 
L 1075 1831 
Q 1041 1641 1027 1517 
Q 1013 1394 1013 1300 
Q 1013 869 1253 645 
Q 1494 422 1959 422 
Q 2563 422 2898 753 
Q 3234 1084 3378 1831 
L 3928 4666 
L 4563 4666 
L 4000 1753 
Q 3816 809 3300 359 
Q 2784 -91 1888 -91 
Q 1188 -91 780 261 
Q 372 613 372 1216 
Q 372 1325 387 1461 
Q 403 1597 434 1753 
L 991 4666 
z
" transform="scale(0.015625)"/>
      <path id="DejaVuSans-Oblique-61" d="M 3438 1997 
L 3047 0 
L 2472 0 
L 2578 531 
Q 2325 219 2001 64 
Q 1678 -91 1281 -91 
Q 834 -91 548 182 
Q 263 456 263 884 
Q 263 1497 752 1853 
Q 1241 2209 2100 2209 
L 2900 2209 
L 2931 2363 
Q 2938 2388 2941 2417 
Q 2944 2447 2944 2509 
Q 2944 2788 2717 2942 
Q 2491 3097 2081 3097 
Q 1800 3097 1504 3025 
Q 1209 2953 897 2809 
L 997 3341 
Q 1322 3463 1633 3523 
Q 1944 3584 2234 3584 
Q 2853 3584 3176 3315 
Q 3500 3047 3500 2534 
Q 3500 2431 3484 2292 
Q 3469 2153 3438 1997 
z
M 2816 1759 
L 2241 1759 
Q 1534 1759 1195 1570 
Q 856 1381 856 984 
Q 856 709 1029 553 
Q 1203 397 1509 397 
Q 1978 397 2328 733 
Q 2678 1069 2791 1631 
L 2816 1759 
z
" transform="scale(0.015625)"/>
     </defs>
     <use xlink:href="#DejaVuSans-Oblique-55" transform="translate(0 0.09375)"/>
     <use xlink:href="#DejaVuSans-Oblique-61" transform="translate(73.193359 -16.3125) scale(0.7)"/>
    </g>
   </g>
   <g id="text_3">
    <!-- + -->
    <g transform="translate(294.660695 59.240219) scale(0.125 -0.125)">
     <defs>
      <path id="DejaVuSans-2b" d="M 2944 4013 
L 2944 2272 
L 4684 2272 
L 4684 1741 
L 2944 1741 
L 2944 0 
L 2419 0 
L 2419 1741 
L 678 1741 
L 678 2272 
L 2419 2272 
L 2419 4013 
L 2944 4013 
z
" transform="scale(0.015625)"/>
     </defs>
     <use xlink:href="#DejaVuSans-2b"/>
    </g>
   </g>
   <g id="patch_13">
    <path d="M 56.538 139.491 
C 57.254048 139.491 57.940866 139.206511 58.447188 138.700188 
C 58.953511 138.193866 59.238 137.507048 59.238 136.791 
C 59.238 136.074952 58.953511 135.388134 58.447188 134.881812 
C 57.940866 134.375489 57.254048 134.091 56.538 134.091 
C 55.821952 134.091 55.135134 134.375489 54.628812 134.881812 
C 54.122489 135.388134 53.838 136.074952 53.838 136.791 
C 53.838 137.507048 54.122489 138.193866 54.628812 138.700188 
C 55.135134 139.206511 55.821952 139.491 56.538 139.491 
z
" clip-path="url(#p6f01175367)" style="stroke: #000000; stroke-width: 2; stroke-linejoin: miter"/>
   </g>
   <g id="patch_14">
    <path d="M 20.538 139.491 
C 21.254048 139.491 21.940866 139.206511 22.447188 138.700188 
C 22.953511 138.193866 23.238 137.507048 23.238 136.791 
C 23.238 136.074952 22.953511 135.388134 22.447188 134.881812 
C 21.940866 134.375489 21.254048 134.091 20.538 134.091 
C 19.821952 134.091 19.135134 134.375489 18.628812 134.881812 
C 18.122489 135.388134 17.838 136.074952 17.838 136.791 
C 17.838 137.507048 18.122489 138.193866 18.628812 138.700188 
C 19.135134 139.206511 19.821952 139.491 20.538 139.491 
z
" clip-path="url(#p6f01175367)" style="fill: #ffffff; stroke: #000000; stroke-width: 2; stroke-linejoin: miter"/>
   </g>
   <g id="text_4">
    <!-- - -->
    <g transform="translate(18.283117 109.640219) scale(0.125 -0.125)">
     <use xlink:href="#DejaVuSans-2d"/>
    </g>
   </g>
   <g id="text_5">
    <!-- $U_e$ -->
    <g transform="translate(13.1005 79.040219) scale(0.125 -0.125)">
     <defs>
      <path id="DejaVuSans-Oblique-65" d="M 3078 2063 
Q 3088 2113 3092 2166 
Q 3097 2219 3097 2272 
Q 3097 2653 2873 2875 
Q 2650 3097 2266 3097 
Q 1838 3097 1509 2826 
Q 1181 2556 1013 2059 
L 3078 2063 
z
M 3578 1613 
L 903 1613 
Q 884 1494 878 1425 
Q 872 1356 872 1306 
Q 872 872 1139 634 
Q 1406 397 1894 397 
Q 2269 397 2603 481 
Q 2938 566 3225 728 
L 3116 159 
Q 2806 34 2476 -28 
Q 2147 -91 1806 -91 
Q 1078 -91 686 257 
Q 294 606 294 1247 
Q 294 1794 489 2264 
Q 684 2734 1063 3103 
Q 1306 3334 1642 3459 
Q 1978 3584 2356 3584 
Q 2950 3584 3301 3228 
Q 3653 2872 3653 2272 
Q 3653 2128 3634 1964 
Q 3616 1800 3578 1613 
z
" transform="scale(0.015625)"/>
     </defs>
     <use xlink:href="#DejaVuSans-Oblique-55" transform="translate(0 0.09375)"/>
     <use xlink:href="#DejaVuSans-Oblique-65" transform="translate(73.193359 -16.3125) scale(0.7)"/>
    </g>
   </g>
   <g id="text_6">
    <!-- + -->
    <g transform="translate(15.300695 48.440219) scale(0.125 -0.125)">
     <use xlink:href="#DejaVuSans-2b"/>
    </g>
   </g>
  </g>
 </g>
 <defs>
  <clipPath id="p6f01175367">
   <rect x="3.6" y="3.6" width="313.236" height="142.362"/>
  </clipPath>
 </defs>
</svg>