<?xml version="1.0" encoding="utf-8" standalone="no"?>
<!DOCTYPE svg PUBLIC "-//W3C//DTD SVG 1.1//EN"
  "http://www.w3.org/Graphics/SVG/1.1/DTD/svg11.dtd">
<svg xmlns:xlink="http://www.w3.org/1999/xlink" width="481.765943pt" height="330.804pt" viewBox="0 0 481.765943 330.804" xmlns="http://www.w3.org/2000/svg" version="1.1">
 <metadata>
  <rdf:RDF xmlns:dc="http://purl.org/dc/elements/1.1/" xmlns:cc="http://creativecommons.org/ns#" xmlns:rdf="http://www.w3.org/1999/02/22-rdf-syntax-ns#">
   <cc:Work>
    <dc:type rdf:resource="http://purl.org/dc/dcmitype/StillImage"/>
    <dc:date>2023-04-24T15:14:28.066138</dc:date>
    <dc:format>image/svg+xml</dc:format>
    <dc:creator>
     <cc:Agent>
      <dc:title>Matplotlib v3.7.1, https://matplotlib.org/</dc:title>
     </cc:Agent>
    </dc:creator>
   </cc:Work>
  </rdf:RDF>
 </metadata>
 <defs>
  <style type="text/css">*{stroke-linejoin: round; stroke-linecap: butt}</style>
 </defs>
 <g id="figure_1">
  <g id="patch_1">
   <path d="M 0 330.804 
L 481.765943 330.804 
L 481.765943 0 
L 0 0 
z
" style="fill: #ffffff"/>
  </g>
  <g id="axes_1">
   <g id="line2d_1">
    <path d="M 12.555 67.635 
L 58.455 67.635 
L 104.355 67.635 
" clip-path="url(#pbf8d650c05)" style="fill: none; stroke: #000000; stroke-width: 2; stroke-linecap: round"/>
   </g>
   <g id="line2d_2">
    <path d="M 119.655 98.235 
L 180.855 98.235 
L 180.855 37.035 
L 119.655 37.035 
L 119.655 98.235 
" clip-path="url(#pbf8d650c05)" style="fill: none; stroke: #000000; stroke-width: 2; stroke-linecap: round"/>
   </g>
   <g id="line2d_3">
    <path d="M 119.655 67.635 
L 104.355 67.635 
" clip-path="url(#pbf8d650c05)" style="fill: none; stroke: #000000; stroke-width: 2; stroke-linecap: round"/>
   </g>
   <g id="line2d_4">
    <path d="M 180.855 67.635 
L 196.155 67.635 
" clip-path="url(#pbf8d650c05)" style="fill: none; stroke: #000000; stroke-width: 2; stroke-linecap: round"/>
   </g>
   <g id="line2d_5">
    <path d="M 150.255 37.035 
L 150.255 21.735 
" clip-path="url(#pbf8d650c05)" style="fill: none; stroke: #000000; stroke-width: 2; stroke-linecap: round"/>
   </g>
   <g id="line2d_6">
    <path d="M 196.155 67.635 
L 211.455 67.635 
L 226.755 67.635 
" clip-path="url(#pbf8d650c05)" style="fill: none; stroke: #000000; stroke-width: 2; stroke-linecap: round"/>
   </g>
   <g id="line2d_7">
    <path d="M 226.755 86.76 
L 226.755 125.01 
L 293.005943 86.76 
L 226.755 48.51 
L 226.755 86.76 
M 293.005943 86.76 
" clip-path="url(#pbf8d650c05)" style="fill: none; stroke: #000000; stroke-width: 2; stroke-linecap: round"/>
   </g>
   <g id="line2d_8">
    <path d="M 231.976368 105.885 
L 238.096368 105.885 
" clip-path="url(#pbf8d650c05)" style="fill: none; stroke: #000000; stroke-width: 2; stroke-linecap: round"/>
   </g>
   <g id="line2d_9">
    <path d="M 231.976368 67.635 
L 238.096368 67.635 
" clip-path="url(#pbf8d650c05)" style="fill: none; stroke: #000000; stroke-width: 2; stroke-linecap: round"/>
   </g>
   <g id="line2d_10">
    <path d="M 235.036368 64.575 
L 235.036368 70.695 
" clip-path="url(#pbf8d650c05)" style="fill: none; stroke: #000000; stroke-width: 2; stroke-linecap: round"/>
   </g>
   <g id="line2d_11">
    <path d="M 308.305943 117.36 
L 440.905943 117.36 
L 440.905943 56.16 
L 308.305943 56.16 
L 308.305943 117.36 
" clip-path="url(#pbf8d650c05)" style="fill: none; stroke: #000000; stroke-width: 2; stroke-linecap: round"/>
   </g>
   <g id="line2d_12">
    <path d="M 308.305943 86.76 
L 293.005943 86.76 
" clip-path="url(#pbf8d650c05)" style="fill: none; stroke: #000000; stroke-width: 2; stroke-linecap: round"/>
   </g>
   <g id="line2d_13">
    <path d="M 440.905943 86.76 
L 456.205943 86.76 
" clip-path="url(#pbf8d650c05)" style="fill: none; stroke: #000000; stroke-width: 2; stroke-linecap: round"/>
   </g>
   <g id="line2d_14">
    <path d="M 344.005943 56.16 
L 344.005943 40.86 
" clip-path="url(#pbf8d650c05)" style="fill: none; stroke: #000000; stroke-width: 2; stroke-linecap: round"/>
   </g>
   <g id="line2d_15">
    <path d="M 374.605943 56.16 
L 374.605943 40.86 
" clip-path="url(#pbf8d650c05)" style="fill: none; stroke: #000000; stroke-width: 2; stroke-linecap: round"/>
   </g>
   <g id="line2d_16">
    <path d="M 405.205943 56.16 
L 405.205943 40.86 
" clip-path="url(#pbf8d650c05)" style="fill: none; stroke: #000000; stroke-width: 2; stroke-linecap: round"/>
   </g>
   <g id="line2d_17">
    <path d="M 374.605943 117.36 
L 374.605943 132.66 
" clip-path="url(#pbf8d650c05)" style="fill: none; stroke: #000000; stroke-width: 2; stroke-linecap: round"/>
   </g>
   <g id="line2d_18">
    <path d="M 374.605943 132.66 
L 374.605943 147.96 
L 374.605943 163.26 
" clip-path="url(#pbf8d650c05)" style="fill: none; stroke: #000000; stroke-width: 2; stroke-linecap: round"/>
   </g>
   <g id="line2d_19">
    <path d="M 374.605943 163.26 
L 359.305943 163.26 
L 344.005943 163.26 
" clip-path="url(#pbf8d650c05)" style="fill: none; stroke: #000000; stroke-width: 2; stroke-linecap: round"/>
   </g>
   <g id="line2d_20">
    <path d="M 328.705943 132.66 
L 206.305943 132.66 
L 206.305943 193.86 
L 328.705943 193.86 
L 328.705943 132.66 
" clip-path="url(#pbf8d650c05)" style="fill: none; stroke: #000000; stroke-width: 2; stroke-linecap: round"/>
   </g>
   <g id="line2d_21">
    <path d="M 328.705943 163.26 
L 344.005943 163.26 
" clip-path="url(#pbf8d650c05)" style="fill: none; stroke: #000000; stroke-width: 2; stroke-linecap: round"/>
   </g>
   <g id="line2d_22">
    <path d="M 206.305943 163.26 
L 191.005943 163.26 
" clip-path="url(#pbf8d650c05)" style="fill: none; stroke: #000000; stroke-width: 2; stroke-linecap: round"/>
   </g>
   <g id="line2d_23">
    <path d="M 267.505943 193.86 
L 267.505943 209.16 
" clip-path="url(#pbf8d650c05)" style="fill: none; stroke: #000000; stroke-width: 2; stroke-linecap: round"/>
   </g>
   <g id="line2d_24">
    <path d="M 191.005943 163.26 
L 175.705943 163.26 
L 160.405943 163.26 
" clip-path="url(#pbf8d650c05)" style="fill: none; stroke: #000000; stroke-width: 2; stroke-linecap: round"/>
   </g>
   <g id="line2d_25">
    <path d="M 160.405943 193.86 
L 160.405943 206.1 
L 152.755943 206.1 
L 168.055943 206.1 
M 155.050943 209.772 
L 165.760943 209.772 
M 158.875943 213.444 
L 161.935943 213.444 
" clip-path="url(#pbf8d650c05)" style="fill: none; stroke: #000000; stroke-width: 2; stroke-linecap: round"/>
   </g>
   <g id="line2d_26">
    <path d="M 154.285943 166.32 
L 154.285943 178.56 
L 154.285943 183.15 
" clip-path="url(#pbf8d650c05)" style="fill: none; stroke: #000000; stroke-width: 2; stroke-linecap: round"/>
   </g>
   <g id="patch_2">
    <path d="M 156.580943 183.15 
L 154.285943 190.8 
L 151.990943 183.15 
z
" clip-path="url(#pbf8d650c05)"/>
   </g>
   <g id="line2d_27">
    <path d="M 160.405943 163.26 
L 160.405943 105.885 
L 226.755 105.885 
" clip-path="url(#pbf8d650c05)" style="fill: none; stroke: #000000; stroke-width: 2; stroke-linecap: round"/>
   </g>
   <g id="line2d_28">
    <path d="M 374.605943 163.26 
L 420.505943 163.26 
L 458.755943 163.26 
" clip-path="url(#pbf8d650c05)" style="fill: none; stroke: #000000; stroke-width: 2; stroke-linecap: round"/>
   </g>
   <g id="patch_3">
    <path d="M 458.755943 160.965 
L 466.405943 163.26 
L 458.755943 165.555 
z
" clip-path="url(#pbf8d650c05)"/>
   </g>
   <g id="line2d_29">
    <path d="M 344.005943 40.86 
L 344.005943 10.26 
L 150.255 10.26 
L 150.255 21.735 
" clip-path="url(#pbf8d650c05)" style="fill: none; stroke: #000000; stroke-width: 2; stroke-linecap: round"/>
   </g>
   <g id="line2d_30">
    <path d="M 456.205943 86.76 
L 463.855943 86.76 
L 463.855943 86.76 
" clip-path="url(#pbf8d650c05)" style="fill: none; stroke: #000000; stroke-width: 2; stroke-linecap: round"/>
   </g>
   <g id="patch_4">
    <path d="M 463.855943 84.465 
L 471.505943 86.76 
L 463.855943 89.055 
z
" clip-path="url(#pbf8d650c05)"/>
   </g>
   <g id="line2d_31">
    <path d="M 374.605943 33.21 
L 374.605943 33.21 
L 374.605943 25.56 
" clip-path="url(#pbf8d650c05)" style="fill: none; stroke: #000000; stroke-width: 2; stroke-linecap: round"/>
   </g>
   <g id="patch_5">
    <path d="M 376.900943 33.21 
L 374.605943 40.86 
L 372.310943 33.21 
z
" clip-path="url(#pbf8d650c05)"/>
   </g>
   <g id="line2d_32">
    <path d="M 405.205943 33.21 
L 405.205943 33.21 
L 405.205943 25.56 
" clip-path="url(#pbf8d650c05)" style="fill: none; stroke: #000000; stroke-width: 2; stroke-linecap: round"/>
   </g>
   <g id="patch_6">
    <path d="M 407.500943 33.21 
L 405.205943 40.86 
L 402.910943 33.21 
z
" clip-path="url(#pbf8d650c05)"/>
   </g>
   <g id="line2d_33">
    <path d="M 267.505943 209.16 
L 267.505943 239.76 
M 267.505943 270.36 
L 252.205943 255.06 
L 267.505943 239.76 
L 282.805943 255.06 
L 267.505943 270.36 
L 267.505943 300.96 
" clip-path="url(#pbf8d650c05)" style="fill: none; stroke: #000000; stroke-width: 2; stroke-linecap: round"/>
   </g>
   <g id="line2d_34">
    <path d="M 270.565943 262.71 
L 264.445943 262.71 
" clip-path="url(#pbf8d650c05)" style="fill: none; stroke: #000000; stroke-width: 2; stroke-linecap: round"/>
   </g>
   <g id="line2d_35">
    <path d="M 267.505943 244.35 
L 267.505943 250.47 
" clip-path="url(#pbf8d650c05)" style="fill: none; stroke: #000000; stroke-width: 2; stroke-linecap: round"/>
   </g>
   <g id="line2d_36">
    <path d="M 270.565943 247.41 
L 264.445943 247.41 
" clip-path="url(#pbf8d650c05)" style="fill: none; stroke: #000000; stroke-width: 2; stroke-linecap: round"/>
   </g>
   <g id="line2d_37">
    <path d="M 255.265943 276.48 
L 255.265943 224.46 
" clip-path="url(#pbf8d650c05)" style="fill: none; stroke: #000000; stroke-width: 2; stroke-linecap: round"/>
   </g>
   <g id="patch_7">
    <path d="M 258.325943 276.48 
L 255.265943 285.66 
L 252.205943 276.48 
z
" clip-path="url(#pbf8d650c05)"/>
   </g>
   <g id="line2d_38">
    <path d="M 267.505943 300.96 
L 267.505943 313.2 
L 259.855943 313.2 
L 275.155943 313.2 
M 262.150943 316.872 
L 272.860943 316.872 
M 265.975943 320.544 
L 269.035943 320.544 
" clip-path="url(#pbf8d650c05)" style="fill: none; stroke: #000000; stroke-width: 2; stroke-linecap: round"/>
   </g>
   <g id="text_1">
    <g clip-path="url(#pbf8d650c05)">
     <!-- S and H -->
     <g transform="translate(125.855586 68.024219) scale(0.125 -0.125)">
      <defs>
       <path id="DejaVuSans-53" d="M 3425 4513 
L 3425 3897 
Q 3066 4069 2747 4153 
Q 2428 4238 2131 4238 
Q 1616 4238 1336 4038 
Q 1056 3838 1056 3469 
Q 1056 3159 1242 3001 
Q 1428 2844 1947 2747 
L 2328 2669 
Q 3034 2534 3370 2195 
Q 3706 1856 3706 1288 
Q 3706 609 3251 259 
Q 2797 -91 1919 -91 
Q 1588 -91 1214 -16 
Q 841 59 441 206 
L 441 856 
Q 825 641 1194 531 
Q 1563 422 1919 422 
Q 2459 422 2753 634 
Q 3047 847 3047 1241 
Q 3047 1584 2836 1778 
Q 2625 1972 2144 2069 
L 1759 2144 
Q 1053 2284 737 2584 
Q 422 2884 422 3419 
Q 422 4038 858 4394 
Q 1294 4750 2059 4750 
Q 2388 4750 2728 4690 
Q 3069 4631 3425 4513 
z
" transform="scale(0.015625)"/>
       <path id="DejaVuSans-20" transform="scale(0.015625)"/>
       <path id="DejaVuSans-61" d="M 2194 1759 
Q 1497 1759 1228 1600 
Q 959 1441 959 1056 
Q 959 750 1161 570 
Q 1363 391 1709 391 
Q 2188 391 2477 730 
Q 2766 1069 2766 1631 
L 2766 1759 
L 2194 1759 
z
M 3341 1997 
L 3341 0 
L 2766 0 
L 2766 531 
Q 2569 213 2275 61 
Q 1981 -91 1556 -91 
Q 1019 -91 701 211 
Q 384 513 384 1019 
Q 384 1609 779 1909 
Q 1175 2209 1959 2209 
L 2766 2209 
L 2766 2266 
Q 2766 2663 2505 2880 
Q 2244 3097 1772 3097 
Q 1472 3097 1187 3025 
Q 903 2953 641 2809 
L 641 3341 
Q 956 3463 1253 3523 
Q 1550 3584 1831 3584 
Q 2591 3584 2966 3190 
Q 3341 2797 3341 1997 
z
" transform="scale(0.015625)"/>
       <path id="DejaVuSans-6e" d="M 3513 2113 
L 3513 0 
L 2938 0 
L 2938 2094 
Q 2938 2591 2744 2837 
Q 2550 3084 2163 3084 
Q 1697 3084 1428 2787 
Q 1159 2491 1159 1978 
L 1159 0 
L 581 0 
L 581 3500 
L 1159 3500 
L 1159 2956 
Q 1366 3272 1645 3428 
Q 1925 3584 2291 3584 
Q 2894 3584 3203 3211 
Q 3513 2838 3513 2113 
z
" transform="scale(0.015625)"/>
       <path id="DejaVuSans-64" d="M 2906 2969 
L 2906 4863 
L 3481 4863 
L 3481 0 
L 2906 0 
L 2906 525 
Q 2725 213 2448 61 
Q 2172 -91 1784 -91 
Q 1150 -91 751 415 
Q 353 922 353 1747 
Q 353 2572 751 3078 
Q 1150 3584 1784 3584 
Q 2172 3584 2448 3432 
Q 2725 3281 2906 2969 
z
M 947 1747 
Q 947 1113 1208 752 
Q 1469 391 1925 391 
Q 2381 391 2643 752 
Q 2906 1113 2906 1747 
Q 2906 2381 2643 2742 
Q 2381 3103 1925 3103 
Q 1469 3103 1208 2742 
Q 947 2381 947 1747 
z
" transform="scale(0.015625)"/>
       <path id="DejaVuSans-48" d="M 628 4666 
L 1259 4666 
L 1259 2753 
L 3553 2753 
L 3553 4666 
L 4184 4666 
L 4184 0 
L 3553 0 
L 3553 2222 
L 1259 2222 
L 1259 0 
L 628 0 
L 628 4666 
z
" transform="scale(0.015625)"/>
      </defs>
      <use xlink:href="#DejaVuSans-53"/>
      <use xlink:href="#DejaVuSans-20" x="63.476562"/>
      <use xlink:href="#DejaVuSans-61" x="95.263672"/>
      <use xlink:href="#DejaVuSans-6e" x="156.542969"/>
      <use xlink:href="#DejaVuSans-64" x="219.921875"/>
      <use xlink:href="#DejaVuSans-20" x="283.398438"/>
      <use xlink:href="#DejaVuSans-48" x="315.185547"/>
     </g>
    </g>
   </g>
   <g id="text_2">
    <g clip-path="url(#pbf8d650c05)">
     <!-- Finished -->
     <g transform="translate(397.395631 89.381406) scale(0.095 -0.095)">
      <defs>
       <path id="DejaVuSans-46" d="M 628 4666 
L 3309 4666 
L 3309 4134 
L 1259 4134 
L 1259 2759 
L 3109 2759 
L 3109 2228 
L 1259 2228 
L 1259 0 
L 628 0 
L 628 4666 
z
" transform="scale(0.015625)"/>
       <path id="DejaVuSans-69" d="M 603 3500 
L 1178 3500 
L 1178 0 
L 603 0 
L 603 3500 
z
M 603 4863 
L 1178 4863 
L 1178 4134 
L 603 4134 
L 603 4863 
z
" transform="scale(0.015625)"/>
       <path id="DejaVuSans-73" d="M 2834 3397 
L 2834 2853 
Q 2591 2978 2328 3040 
Q 2066 3103 1784 3103 
Q 1356 3103 1142 2972 
Q 928 2841 928 2578 
Q 928 2378 1081 2264 
Q 1234 2150 1697 2047 
L 1894 2003 
Q 2506 1872 2764 1633 
Q 3022 1394 3022 966 
Q 3022 478 2636 193 
Q 2250 -91 1575 -91 
Q 1294 -91 989 -36 
Q 684 19 347 128 
L 347 722 
Q 666 556 975 473 
Q 1284 391 1588 391 
Q 1994 391 2212 530 
Q 2431 669 2431 922 
Q 2431 1156 2273 1281 
Q 2116 1406 1581 1522 
L 1381 1569 
Q 847 1681 609 1914 
Q 372 2147 372 2553 
Q 372 3047 722 3315 
Q 1072 3584 1716 3584 
Q 2034 3584 2315 3537 
Q 2597 3491 2834 3397 
z
" transform="scale(0.015625)"/>
       <path id="DejaVuSans-68" d="M 3513 2113 
L 3513 0 
L 2938 0 
L 2938 2094 
Q 2938 2591 2744 2837 
Q 2550 3084 2163 3084 
Q 1697 3084 1428 2787 
Q 1159 2491 1159 1978 
L 1159 0 
L 581 0 
L 581 4863 
L 1159 4863 
L 1159 2956 
Q 1366 3272 1645 3428 
Q 1925 3584 2291 3584 
Q 2894 3584 3203 3211 
Q 3513 2838 3513 2113 
z
" transform="scale(0.015625)"/>
       <path id="DejaVuSans-65" d="M 3597 1894 
L 3597 1613 
L 953 1613 
Q 991 1019 1311 708 
Q 1631 397 2203 397 
Q 2534 397 2845 478 
Q 3156 559 3463 722 
L 3463 178 
Q 3153 47 2828 -22 
Q 2503 -91 2169 -91 
Q 1331 -91 842 396 
Q 353 884 353 1716 
Q 353 2575 817 3079 
Q 1281 3584 2069 3584 
Q 2775 3584 3186 3129 
Q 3597 2675 3597 1894 
z
M 3022 2063 
Q 3016 2534 2758 2815 
Q 2500 3097 2075 3097 
Q 1594 3097 1305 2825 
Q 1016 2553 972 2059 
L 3022 2063 
z
" transform="scale(0.015625)"/>
      </defs>
      <use xlink:href="#DejaVuSans-46"/>
      <use xlink:href="#DejaVuSans-69" x="50.269531"/>
      <use xlink:href="#DejaVuSans-6e" x="78.052734"/>
      <use xlink:href="#DejaVuSans-69" x="141.431641"/>
      <use xlink:href="#DejaVuSans-73" x="169.214844"/>
      <use xlink:href="#DejaVuSans-68" x="221.314453"/>
      <use xlink:href="#DejaVuSans-65" x="284.693359"/>
      <use xlink:href="#DejaVuSans-64" x="346.216797"/>
     </g>
    </g>
   </g>
   <g id="text_3">
    <g clip-path="url(#pbf8d650c05)">
     <!-- Start -->
     <g transform="translate(363.002584 67.968516) scale(0.095 -0.095)">
      <defs>
       <path id="DejaVuSans-74" d="M 1172 4494 
L 1172 3500 
L 2356 3500 
L 2356 3053 
L 1172 3053 
L 1172 1153 
Q 1172 725 1289 603 
Q 1406 481 1766 481 
L 2356 481 
L 2356 0 
L 1766 0 
Q 1100 0 847 248 
Q 594 497 594 1153 
L 594 3053 
L 172 3053 
L 172 3500 
L 594 3500 
L 594 4494 
L 1172 4494 
z
" transform="scale(0.015625)"/>
       <path id="DejaVuSans-72" d="M 2631 2963 
Q 2534 3019 2420 3045 
Q 2306 3072 2169 3072 
Q 1681 3072 1420 2755 
Q 1159 2438 1159 1844 
L 1159 0 
L 581 0 
L 581 3500 
L 1159 3500 
L 1159 2956 
Q 1341 3275 1631 3429 
Q 1922 3584 2338 3584 
Q 2397 3584 2469 3576 
Q 2541 3569 2628 3553 
L 2631 2963 
z
" transform="scale(0.015625)"/>
      </defs>
      <use xlink:href="#DejaVuSans-53"/>
      <use xlink:href="#DejaVuSans-74" x="63.476562"/>
      <use xlink:href="#DejaVuSans-61" x="102.685547"/>
      <use xlink:href="#DejaVuSans-72" x="163.964844"/>
      <use xlink:href="#DejaVuSans-74" x="205.078125"/>
     </g>
    </g>
   </g>
   <g id="text_4">
    <g clip-path="url(#pbf8d650c05)">
     <!-- Reset -->
     <g transform="translate(391.937115 67.968516) scale(0.095 -0.095)">
      <defs>
       <path id="DejaVuSans-52" d="M 2841 2188 
Q 3044 2119 3236 1894 
Q 3428 1669 3622 1275 
L 4263 0 
L 3584 0 
L 2988 1197 
Q 2756 1666 2539 1819 
Q 2322 1972 1947 1972 
L 1259 1972 
L 1259 0 
L 628 0 
L 628 4666 
L 2053 4666 
Q 2853 4666 3247 4331 
Q 3641 3997 3641 3322 
Q 3641 2881 3436 2590 
Q 3231 2300 2841 2188 
z
M 1259 4147 
L 1259 2491 
L 2053 2491 
Q 2509 2491 2742 2702 
Q 2975 2913 2975 3322 
Q 2975 3731 2742 3939 
Q 2509 4147 2053 4147 
L 1259 4147 
z
" transform="scale(0.015625)"/>
      </defs>
      <use xlink:href="#DejaVuSans-52"/>
      <use xlink:href="#DejaVuSans-65" x="64.982422"/>
      <use xlink:href="#DejaVuSans-73" x="126.505859"/>
      <use xlink:href="#DejaVuSans-65" x="178.605469"/>
      <use xlink:href="#DejaVuSans-74" x="240.128906"/>
     </g>
    </g>
   </g>
   <g id="text_5">
    <g clip-path="url(#pbf8d650c05)">
     <!-- SAR -->
     <g transform="translate(361.902818 87.149219) scale(0.125 -0.125)">
      <defs>
       <path id="DejaVuSans-41" d="M 2188 4044 
L 1331 1722 
L 3047 1722 
L 2188 4044 
z
M 1831 4666 
L 2547 4666 
L 4325 0 
L 3669 0 
L 3244 1197 
L 1141 1197 
L 716 0 
L 50 0 
L 1831 4666 
z
" transform="scale(0.015625)"/>
      </defs>
      <use xlink:href="#DejaVuSans-53"/>
      <use xlink:href="#DejaVuSans-41" x="65.351562"/>
      <use xlink:href="#DejaVuSans-52" x="133.759766"/>
     </g>
    </g>
   </g>
   <g id="text_6">
    <g clip-path="url(#pbf8d650c05)">
     <!-- in -->
     <g transform="translate(324.115943 165.881406) scale(0.095 -0.095)">
      <use xlink:href="#DejaVuSans-69"/>
      <use xlink:href="#DejaVuSans-6e" x="27.783203"/>
     </g>
    </g>
   </g>
   <g id="text_7">
    <g clip-path="url(#pbf8d650c05)">
     <!-- out -->
     <g transform="translate(195.338209 165.881406) scale(0.095 -0.095)">
      <defs>
       <path id="DejaVuSans-6f" d="M 1959 3097 
Q 1497 3097 1228 2736 
Q 959 2375 959 1747 
Q 959 1119 1226 758 
Q 1494 397 1959 397 
Q 2419 397 2687 759 
Q 2956 1122 2956 1747 
Q 2956 2369 2687 2733 
Q 2419 3097 1959 3097 
z
M 1959 3584 
Q 2709 3584 3137 3096 
Q 3566 2609 3566 1747 
Q 3566 888 3137 398 
Q 2709 -91 1959 -91 
Q 1206 -91 779 398 
Q 353 888 353 1747 
Q 353 2609 779 3096 
Q 1206 3584 1959 3584 
z
" transform="scale(0.015625)"/>
       <path id="DejaVuSans-75" d="M 544 1381 
L 544 3500 
L 1119 3500 
L 1119 1403 
Q 1119 906 1312 657 
Q 1506 409 1894 409 
Q 2359 409 2629 706 
Q 2900 1003 2900 1516 
L 2900 3500 
L 3475 3500 
L 3475 0 
L 2900 0 
L 2900 538 
Q 2691 219 2414 64 
Q 2138 -91 1772 -91 
Q 1169 -91 856 284 
Q 544 659 544 1381 
z
M 1991 3584 
L 1991 3584 
z
" transform="scale(0.015625)"/>
      </defs>
      <use xlink:href="#DejaVuSans-6f"/>
      <use xlink:href="#DejaVuSans-75" x="61.181641"/>
      <use xlink:href="#DejaVuSans-74" x="124.560547"/>
     </g>
    </g>
   </g>
   <g id="text_8">
    <g clip-path="url(#pbf8d650c05)">
     <!-- DA-Wandler -->
     <g transform="translate(230.971764 169.769219) scale(0.125 -0.125)">
      <defs>
       <path id="DejaVuSans-44" d="M 1259 4147 
L 1259 519 
L 2022 519 
Q 2988 519 3436 956 
Q 3884 1394 3884 2338 
Q 3884 3275 3436 3711 
Q 2988 4147 2022 4147 
L 1259 4147 
z
M 628 4666 
L 1925 4666 
Q 3281 4666 3915 4102 
Q 4550 3538 4550 2338 
Q 4550 1131 3912 565 
Q 3275 0 1925 0 
L 628 0 
L 628 4666 
z
" transform="scale(0.015625)"/>
       <path id="DejaVuSans-2d" d="M 313 2009 
L 1997 2009 
L 1997 1497 
L 313 1497 
L 313 2009 
z
" transform="scale(0.015625)"/>
       <path id="DejaVuSans-57" d="M 213 4666 
L 850 4666 
L 1831 722 
L 2809 4666 
L 3519 4666 
L 4500 722 
L 5478 4666 
L 6119 4666 
L 4947 0 
L 4153 0 
L 3169 4050 
L 2175 0 
L 1381 0 
L 213 4666 
z
" transform="scale(0.015625)"/>
       <path id="DejaVuSans-6c" d="M 603 4863 
L 1178 4863 
L 1178 0 
L 603 0 
L 603 4863 
z
" transform="scale(0.015625)"/>
      </defs>
      <use xlink:href="#DejaVuSans-44"/>
      <use xlink:href="#DejaVuSans-41" x="75.251953"/>
      <use xlink:href="#DejaVuSans-2d" x="141.410156"/>
      <use xlink:href="#DejaVuSans-57" x="173.494141"/>
      <use xlink:href="#DejaVuSans-61" x="265.996094"/>
      <use xlink:href="#DejaVuSans-6e" x="327.275391"/>
      <use xlink:href="#DejaVuSans-64" x="390.654297"/>
      <use xlink:href="#DejaVuSans-6c" x="454.130859"/>
      <use xlink:href="#DejaVuSans-65" x="481.914062"/>
      <use xlink:href="#DejaVuSans-72" x="543.4375"/>
     </g>
    </g>
   </g>
   <g id="text_9">
    <g clip-path="url(#pbf8d650c05)">
     <!-- $U(Z)$ -->
     <g transform="translate(119.135943 182.009219) scale(0.125 -0.125)">
      <defs>
       <path id="DejaVuSans-Oblique-55" d="M 991 4666 
L 1625 4666 
L 1075 1831 
Q 1041 1641 1027 1517 
Q 1013 1394 1013 1300 
Q 1013 869 1253 645 
Q 1494 422 1959 422 
Q 2563 422 2898 753 
Q 3234 1084 3378 1831 
L 3928 4666 
L 4563 4666 
L 4000 1753 
Q 3816 809 3300 359 
Q 2784 -91 1888 -91 
Q 1188 -91 780 261 
Q 372 613 372 1216 
Q 372 1325 387 1461 
Q 403 1597 434 1753 
L 991 4666 
z
" transform="scale(0.015625)"/>
       <path id="DejaVuSans-28" d="M 1984 4856 
Q 1566 4138 1362 3434 
Q 1159 2731 1159 2009 
Q 1159 1288 1364 580 
Q 1569 -128 1984 -844 
L 1484 -844 
Q 1016 -109 783 600 
Q 550 1309 550 2009 
Q 550 2706 781 3412 
Q 1013 4119 1484 4856 
L 1984 4856 
z
" transform="scale(0.015625)"/>
       <path id="DejaVuSans-Oblique-5a" d="M 838 4666 
L 4500 4666 
L 4409 4184 
L 794 531 
L 3769 531 
L 3669 0 
L -141 0 
L -50 481 
L 3566 4134 
L 738 4134 
L 838 4666 
z
" transform="scale(0.015625)"/>
       <path id="DejaVuSans-29" d="M 513 4856 
L 1013 4856 
Q 1481 4119 1714 3412 
Q 1947 2706 1947 2009 
Q 1947 1309 1714 600 
Q 1481 -109 1013 -844 
L 513 -844 
Q 928 -128 1133 580 
Q 1338 1288 1338 2009 
Q 1338 2731 1133 3434 
Q 928 4138 513 4856 
z
" transform="scale(0.015625)"/>
      </defs>
      <use xlink:href="#DejaVuSans-Oblique-55" transform="translate(0 0.125)"/>
      <use xlink:href="#DejaVuSans-28" transform="translate(73.193359 0.125)"/>
      <use xlink:href="#DejaVuSans-Oblique-5a" transform="translate(112.207031 0.125)"/>
      <use xlink:href="#DejaVuSans-29" transform="translate(180.712891 0.125)"/>
     </g>
    </g>
   </g>
   <g id="text_10">
    <g clip-path="url(#pbf8d650c05)">
     <!-- Z, of n lines -->
     <g transform="translate(383.758873 153.010391) scale(0.125 -0.125)">
      <defs>
       <path id="DejaVuSans-5a" d="M 359 4666 
L 4025 4666 
L 4025 4184 
L 1075 531 
L 4097 531 
L 4097 0 
L 288 0 
L 288 481 
L 3238 4134 
L 359 4134 
L 359 4666 
z
" transform="scale(0.015625)"/>
       <path id="DejaVuSans-2c" d="M 750 794 
L 1409 794 
L 1409 256 
L 897 -744 
L 494 -744 
L 750 256 
L 750 794 
z
" transform="scale(0.015625)"/>
       <path id="DejaVuSans-66" d="M 2375 4863 
L 2375 4384 
L 1825 4384 
Q 1516 4384 1395 4259 
Q 1275 4134 1275 3809 
L 1275 3500 
L 2222 3500 
L 2222 3053 
L 1275 3053 
L 1275 0 
L 697 0 
L 697 3053 
L 147 3053 
L 147 3500 
L 697 3500 
L 697 3744 
Q 697 4328 969 4595 
Q 1241 4863 1831 4863 
L 2375 4863 
z
" transform="scale(0.015625)"/>
      </defs>
      <use xlink:href="#DejaVuSans-5a"/>
      <use xlink:href="#DejaVuSans-2c" x="68.505859"/>
      <use xlink:href="#DejaVuSans-20" x="100.292969"/>
      <use xlink:href="#DejaVuSans-6f" x="132.080078"/>
      <use xlink:href="#DejaVuSans-66" x="193.261719"/>
      <use xlink:href="#DejaVuSans-20" x="228.466797"/>
      <use xlink:href="#DejaVuSans-6e" x="260.253906"/>
      <use xlink:href="#DejaVuSans-20" x="323.632812"/>
      <use xlink:href="#DejaVuSans-6c" x="355.419922"/>
      <use xlink:href="#DejaVuSans-69" x="383.203125"/>
      <use xlink:href="#DejaVuSans-6e" x="410.986328"/>
      <use xlink:href="#DejaVuSans-65" x="474.365234"/>
      <use xlink:href="#DejaVuSans-73" x="535.888672"/>
     </g>
    </g>
   </g>
   <g id="text_11">
    <g clip-path="url(#pbf8d650c05)">
     <!-- $U_{ref}$ -->
     <g transform="translate(230.580943 258.509219) scale(0.125 -0.125)">
      <defs>
       <path id="DejaVuSans-Oblique-72" d="M 2853 2969 
Q 2766 3016 2653 3041 
Q 2541 3066 2413 3066 
Q 1953 3066 1609 2717 
Q 1266 2369 1153 1784 
L 800 0 
L 225 0 
L 909 3500 
L 1484 3500 
L 1375 2956 
Q 1603 3259 1920 3421 
Q 2238 3584 2597 3584 
Q 2691 3584 2781 3573 
Q 2872 3563 2963 3538 
L 2853 2969 
z
" transform="scale(0.015625)"/>
       <path id="DejaVuSans-Oblique-65" d="M 3078 2063 
Q 3088 2113 3092 2166 
Q 3097 2219 3097 2272 
Q 3097 2653 2873 2875 
Q 2650 3097 2266 3097 
Q 1838 3097 1509 2826 
Q 1181 2556 1013 2059 
L 3078 2063 
z
M 3578 1613 
L 903 1613 
Q 884 1494 878 1425 
Q 872 1356 872 1306 
Q 872 872 1139 634 
Q 1406 397 1894 397 
Q 2269 397 2603 481 
Q 2938 566 3225 728 
L 3116 159 
Q 2806 34 2476 -28 
Q 2147 -91 1806 -91 
Q 1078 -91 686 257 
Q 294 606 294 1247 
Q 294 1794 489 2264 
Q 684 2734 1063 3103 
Q 1306 3334 1642 3459 
Q 1978 3584 2356 3584 
Q 2950 3584 3301 3228 
Q 3653 2872 3653 2272 
Q 3653 2128 3634 1964 
Q 3616 1800 3578 1613 
z
" transform="scale(0.015625)"/>
       <path id="DejaVuSans-Oblique-66" d="M 3059 4863 
L 2969 4384 
L 2419 4384 
Q 2106 4384 1964 4261 
Q 1822 4138 1753 3809 
L 1691 3500 
L 2638 3500 
L 2553 3053 
L 1606 3053 
L 1013 0 
L 434 0 
L 1031 3053 
L 481 3053 
L 563 3500 
L 1113 3500 
L 1159 3744 
Q 1278 4363 1576 4613 
Q 1875 4863 2516 4863 
L 3059 4863 
z
" transform="scale(0.015625)"/>
      </defs>
      <use xlink:href="#DejaVuSans-Oblique-55" transform="translate(0 0.09375)"/>
      <use xlink:href="#DejaVuSans-Oblique-72" transform="translate(73.193359 -16.3125) scale(0.7)"/>
      <use xlink:href="#DejaVuSans-Oblique-65" transform="translate(101.972656 -16.3125) scale(0.7)"/>
      <use xlink:href="#DejaVuSans-Oblique-66" transform="translate(145.039062 -16.3125) scale(0.7)"/>
     </g>
    </g>
   </g>
   <g id="patch_8">
    <path d="M 12.555 69.93 
C 13.163641 69.93 13.747436 69.688184 14.17781 69.25781 
C 14.608184 68.827436 14.85 68.243641 14.85 67.635 
C 14.85 67.026359 14.608184 66.442564 14.17781 66.01219 
C 13.747436 65.581816 13.163641 65.34 12.555 65.34 
C 11.946359 65.34 11.362564 65.581816 10.93219 66.01219 
C 10.501816 66.442564 10.26 67.026359 10.26 67.635 
C 10.26 68.243641 10.501816 68.827436 10.93219 69.25781 
C 11.362564 69.688184 11.946359 69.93 12.555 69.93 
z
" clip-path="url(#pbf8d650c05)" style="fill: #ffffff; stroke: #000000; stroke-width: 2; stroke-linejoin: miter"/>
   </g>
   <g id="patch_9">
    <path d="M 374.605943 165.555 
C 375.214585 165.555 375.798379 165.313184 376.228753 164.88281 
C 376.659128 164.452436 376.900943 163.868641 376.900943 163.26 
C 376.900943 162.651359 376.659128 162.067564 376.228753 161.63719 
C 375.798379 161.206816 375.214585 160.965 374.605943 160.965 
C 373.997302 160.965 373.413508 161.206816 372.983133 161.63719 
C 372.552759 162.067564 372.310943 162.651359 372.310943 163.26 
C 372.310943 163.868641 372.552759 164.452436 372.983133 164.88281 
C 373.413508 165.313184 373.997302 165.555 374.605943 165.555 
z
" clip-path="url(#pbf8d650c05)" style="stroke: #000000; stroke-width: 2; stroke-linejoin: miter"/>
   </g>
  </g>
 </g>
 <defs>
  <clipPath id="pbf8d650c05">
   <rect x="7.2" y="7.2" width="467.365943" height="316.404"/>
  </clipPath>
 </defs>
</svg>