<?xml version="1.0" encoding="utf-8" standalone="no"?>
<!DOCTYPE svg PUBLIC "-//W3C//DTD SVG 1.1//EN"
  "http://www.w3.org/Graphics/SVG/1.1/DTD/svg11.dtd">
<svg xmlns:xlink="http://www.w3.org/1999/xlink" width="178.47pt" height="148.77pt" viewBox="0 0 178.47 148.77" xmlns="http://www.w3.org/2000/svg" version="1.1">
 <metadata>
  <rdf:RDF xmlns:dc="http://purl.org/dc/elements/1.1/" xmlns:cc="http://creativecommons.org/ns#" xmlns:rdf="http://www.w3.org/1999/02/22-rdf-syntax-ns#">
   <cc:Work>
    <dc:type rdf:resource="http://purl.org/dc/dcmitype/StillImage"/>
    <dc:date>2023-10-20T19:44:04.948110</dc:date>
    <dc:format>image/svg+xml</dc:format>
    <dc:creator>
     <cc:Agent>
      <dc:title>Matplotlib v3.8.0, https://matplotlib.org/</dc:title>
     </cc:Agent>
    </dc:creator>
   </cc:Work>
  </rdf:RDF>
 </metadata>
 <defs>
  <style type="text/css">*{stroke-linejoin: round; stroke-linecap: butt}</style>
 </defs>
 <g id="figure_1">
  <g id="patch_1">
   <path d="M 0 148.77 
L 178.47 148.77 
L 178.47 0 
L 0 0 
z
" style="fill: #ffffff"/>
  </g>
  <g id="axes_1">
   <g id="patch_2">
    <path d="M 104.085 46.035 
C 108.858656 46.035 113.437438 44.138406 116.812922 40.762922 
C 120.188406 37.387438 122.085 32.808656 122.085 28.035 
C 122.085 23.261344 120.188406 18.682562 116.812922 15.307078 
C 113.437438 11.931594 108.858656 10.035 104.085 10.035 
C 99.311344 10.035 94.732562 11.931594 91.357078 15.307078 
C 87.981594 18.682562 86.085 23.261344 86.085 28.035 
C 86.085 32.808656 87.981594 37.387438 91.357078 40.762922 
C 94.732562 44.138406 99.311344 46.035 104.085 46.035 
L 104.085 46.035 
z
" clip-path="url(#pe2da9e4b5f)" style="fill: none; stroke: #000000; stroke-width: 2; stroke-linejoin: miter"/>
   </g>
   <g id="patch_3">
    <path d="M 50.085 100.035 
C 54.858656 100.035 59.437438 98.138406 62.812922 94.762922 
C 66.188406 91.387438 68.085 86.808656 68.085 82.035 
C 68.085 77.261344 66.188406 72.682562 62.812922 69.307078 
C 59.437438 65.931594 54.858656 64.035 50.085 64.035 
C 45.311344 64.035 40.732562 65.931594 37.357078 69.307078 
C 33.981594 72.682562 32.085 77.261344 32.085 82.035 
C 32.085 86.808656 33.981594 91.387438 37.357078 94.762922 
C 40.732562 98.138406 45.311344 100.035 50.085 100.035 
L 50.085 100.035 
z
" clip-path="url(#pe2da9e4b5f)" style="fill: none; stroke: #000000; stroke-width: 2; stroke-linejoin: miter"/>
   </g>
   <g id="line2d_1">
    <path d="M 14.085 28.035 
L 32.085 28.035 
L 50.085 28.035 
" clip-path="url(#pe2da9e4b5f)" style="fill: none; stroke: #000000; stroke-width: 2; stroke-linecap: round"/>
   </g>
   <g id="line2d_2">
    <path d="M 50.085 28.035 
L 86.085 28.035 
L 86.085 28.035 
M 122.085 28.035 
L 122.085 28.035 
L 158.085 28.035 
" clip-path="url(#pe2da9e4b5f)" style="fill: none; stroke: #000000; stroke-width: 2; stroke-linecap: round"/>
   </g>
   <g id="line2d_3">
    <path d="M 158.085 28.035 
L 158.085 64.035 
L 167.085 64.035 
L 167.085 100.035 
L 149.085 100.035 
L 149.085 64.035 
L 158.085 64.035 
M 158.085 100.035 
L 158.085 136.035 
" clip-path="url(#pe2da9e4b5f)" style="fill: none; stroke: #000000; stroke-width: 2; stroke-linecap: round"/>
   </g>
   <g id="line2d_4">
    <path d="M 158.085 136.035 
L 104.085 136.035 
L 50.085 136.035 
" clip-path="url(#pe2da9e4b5f)" style="fill: none; stroke: #000000; stroke-width: 2; stroke-linecap: round"/>
   </g>
   <g id="line2d_5">
    <path d="M 50.085 136.035 
L 50.085 100.035 
L 50.085 100.035 
M 50.085 64.035 
L 50.085 64.035 
L 50.085 28.035 
" clip-path="url(#pe2da9e4b5f)" style="fill: none; stroke: #000000; stroke-width: 2; stroke-linecap: round"/>
   </g>
   <g id="line2d_6">
    <path d="M 50.085 136.035 
L 32.085 136.035 
L 14.085 136.035 
" clip-path="url(#pe2da9e4b5f)" style="fill: none; stroke: #000000; stroke-width: 2; stroke-linecap: round"/>
   </g>
   <g id="patch_4">
    <path d="M 50.085 30.735 
C 50.801048 30.735 51.487866 30.450511 51.994188 29.944188 
C 52.500511 29.437866 52.785 28.751048 52.785 28.035 
C 52.785 27.318952 52.500511 26.632134 51.994188 26.125812 
C 51.487866 25.619489 50.801048 25.335 50.085 25.335 
C 49.368952 25.335 48.682134 25.619489 48.175812 26.125812 
C 47.669489 26.632134 47.385 27.318952 47.385 28.035 
C 47.385 28.751048 47.669489 29.437866 48.175812 29.944188 
C 48.682134 30.450511 49.368952 30.735 50.085 30.735 
z
" clip-path="url(#pe2da9e4b5f)" style="stroke: #000000; stroke-width: 2; stroke-linejoin: miter"/>
   </g>
   <g id="patch_5">
    <path d="M 14.085 30.735 
C 14.801048 30.735 15.487866 30.450511 15.994188 29.944188 
C 16.500511 29.437866 16.785 28.751048 16.785 28.035 
C 16.785 27.318952 16.500511 26.632134 15.994188 26.125812 
C 15.487866 25.619489 14.801048 25.335 14.085 25.335 
C 13.368952 25.335 12.682134 25.619489 12.175812 26.125812 
C 11.669489 26.632134 11.385 27.318952 11.385 28.035 
C 11.385 28.751048 11.669489 29.437866 12.175812 29.944188 
C 12.682134 30.450511 13.368952 30.735 14.085 30.735 
z
" clip-path="url(#pe2da9e4b5f)" style="fill: #ffffff; stroke: #000000; stroke-width: 2; stroke-linejoin: miter"/>
   </g>
   <g id="text_1">
    <!-- A -->
    <g transform="translate(99.809609 31.484219) scale(0.125 -0.125)">
     <defs>
      <path id="DejaVuSans-41" d="M 2188 4044 
L 1331 1722 
L 3047 1722 
L 2188 4044 
z
M 1831 4666 
L 2547 4666 
L 4325 0 
L 3669 0 
L 3244 1197 
L 1141 1197 
L 716 0 
L 50 0 
L 1831 4666 
z
" transform="scale(0.015625)"/>
     </defs>
     <use xlink:href="#DejaVuSans-41"/>
    </g>
   </g>
   <g id="text_2">
    <!-- $R$ -->
    <g transform="translate(136.735 85.484219) scale(0.125 -0.125)">
     <defs>
      <path id="DejaVuSans-Oblique-52" d="M 1613 4147 
L 1294 2491 
L 2106 2491 
Q 2584 2491 2879 2755 
Q 3175 3019 3175 3444 
Q 3175 3784 2976 3965 
Q 2778 4147 2406 4147 
L 1613 4147 
z
M 2772 2241 
Q 2972 2194 3105 2009 
Q 3238 1825 3413 1275 
L 3809 0 
L 3144 0 
L 2778 1197 
Q 2638 1659 2453 1815 
Q 2269 1972 1888 1972 
L 1191 1972 
L 806 0 
L 172 0 
L 1081 4666 
L 2503 4666 
Q 3150 4666 3495 4373 
Q 3841 4081 3841 3531 
Q 3841 3044 3547 2687 
Q 3253 2331 2772 2241 
z
" transform="scale(0.015625)"/>
     </defs>
     <use xlink:href="#DejaVuSans-Oblique-52" transform="translate(0 0.09375)"/>
    </g>
   </g>
   <g id="patch_6">
    <path d="M 50.085 138.735 
C 50.801048 138.735 51.487866 138.450511 51.994188 137.944188 
C 52.500511 137.437866 52.785 136.751048 52.785 136.035 
C 52.785 135.318952 52.500511 134.632134 51.994188 134.125812 
C 51.487866 133.619489 50.801048 133.335 50.085 133.335 
C 49.368952 133.335 48.682134 133.619489 48.175812 134.125812 
C 47.669489 134.632134 47.385 135.318952 47.385 136.035 
C 47.385 136.751048 47.669489 137.437866 48.175812 137.944188 
C 48.682134 138.450511 49.368952 138.735 50.085 138.735 
z
" clip-path="url(#pe2da9e4b5f)" style="stroke: #000000; stroke-width: 2; stroke-linejoin: miter"/>
   </g>
   <g id="text_3">
    <!-- V -->
    <g transform="translate(45.809609 85.484219) scale(0.125 -0.125)">
     <defs>
      <path id="DejaVuSans-56" d="M 1831 0 
L 50 4666 
L 709 4666 
L 2188 738 
L 3669 4666 
L 4325 4666 
L 2547 0 
L 1831 0 
z
" transform="scale(0.015625)"/>
     </defs>
     <use xlink:href="#DejaVuSans-56"/>
    </g>
   </g>
   <g id="text_4">
    <!-- $U$ -->
    <g transform="translate(19.235 85.484219) scale(0.125 -0.125)">
     <defs>
      <path id="DejaVuSans-Oblique-55" d="M 991 4666 
L 1625 4666 
L 1075 1831 
Q 1041 1641 1027 1517 
Q 1013 1394 1013 1300 
Q 1013 869 1253 645 
Q 1494 422 1959 422 
Q 2563 422 2898 753 
Q 3234 1084 3378 1831 
L 3928 4666 
L 4563 4666 
L 4000 1753 
Q 3816 809 3300 359 
Q 2784 -91 1888 -91 
Q 1188 -91 780 261 
Q 372 613 372 1216 
Q 372 1325 387 1461 
Q 403 1597 434 1753 
L 991 4666 
z
" transform="scale(0.015625)"/>
     </defs>
     <use xlink:href="#DejaVuSans-Oblique-55" transform="translate(0 0.09375)"/>
    </g>
   </g>
   <g id="patch_7">
    <path d="M 14.085 138.735 
C 14.801048 138.735 15.487866 138.450511 15.994188 137.944188 
C 16.500511 137.437866 16.785 136.751048 16.785 136.035 
C 16.785 135.318952 16.500511 134.632134 15.994188 134.125812 
C 15.487866 133.619489 14.801048 133.335 14.085 133.335 
C 13.368952 133.335 12.682134 133.619489 12.175812 134.125812 
C 11.669489 134.632134 11.385 135.318952 11.385 136.035 
C 11.385 136.751048 11.669489 137.437866 12.175812 137.944188 
C 12.682134 138.450511 13.368952 138.735 14.085 138.735 
z
" clip-path="url(#pe2da9e4b5f)" style="fill: #ffffff; stroke: #000000; stroke-width: 2; stroke-linejoin: miter"/>
   </g>
   <g id="line2d_7">
    <path d="M 118.485 28.035 
L 118.485 28.035 
" clip-path="url(#pe2da9e4b5f)" style="fill: none; stroke: #000000; stroke-width: 2; stroke-linecap: round"/>
   </g>
   <g id="patch_8">
    <path d="M 118.485 22.635 
L 129.285 28.035 
L 118.485 33.435 
z
" clip-path="url(#pe2da9e4b5f)"/>
   </g>
   <g id="text_5">
    <!-- $I$ -->
    <g transform="translate(122.01 14.635391) scale(0.125 -0.125)">
     <defs>
      <path id="DejaVuSans-Oblique-49" d="M 1081 4666 
L 1716 4666 
L 806 0 
L 172 0 
L 1081 4666 
z
" transform="scale(0.015625)"/>
     </defs>
     <use xlink:href="#DejaVuSans-Oblique-49" transform="translate(0 0.09375)"/>
    </g>
   </g>
  </g>
 </g>
 <defs>
  <clipPath id="pe2da9e4b5f">
   <rect x="3.6" y="3.6" width="171.27" height="141.57"/>
  </clipPath>
 </defs>
</svg>