<?xml version="1.0" encoding="utf-8" standalone="no"?>
<!DOCTYPE svg PUBLIC "-//W3C//DTD SVG 1.1//EN"
  "http://www.w3.org/Graphics/SVG/1.1/DTD/svg11.dtd">
<svg xmlns:xlink="http://www.w3.org/1999/xlink" width="682.245pt" height="361.285pt" viewBox="0 0 682.245 361.285" xmlns="http://www.w3.org/2000/svg" version="1.1">
 <metadata>
  <rdf:RDF xmlns:dc="http://purl.org/dc/elements/1.1/" xmlns:cc="http://creativecommons.org/ns#" xmlns:rdf="http://www.w3.org/1999/02/22-rdf-syntax-ns#">
   <cc:Work>
    <dc:type rdf:resource="http://purl.org/dc/dcmitype/StillImage"/>
    <dc:date>2023-04-24T15:28:58.036794</dc:date>
    <dc:format>image/svg+xml</dc:format>
    <dc:creator>
     <cc:Agent>
      <dc:title>Matplotlib v3.7.1, https://matplotlib.org/</dc:title>
     </cc:Agent>
    </dc:creator>
   </cc:Work>
  </rdf:RDF>
 </metadata>
 <defs>
  <style type="text/css">*{stroke-linejoin: round; stroke-linecap: butt}</style>
 </defs>
 <g id="figure_1">
  <g id="patch_1">
   <path d="M 0 361.285 
L 682.245 361.285 
L 682.245 -0 
L 0 -0 
z
" style="fill: #ffffff"/>
  </g>
  <g id="axes_1">
   <g id="line2d_1">
    <path d="M 12.555 42.73 
L 58.455 42.73 
L 104.355 42.73 
" clip-path="url(#p86afcc7be6)" style="fill: none; stroke: #000000; stroke-width: 2; stroke-linecap: round"/>
   </g>
   <g id="line2d_2">
    <path d="M 119.655 73.33 
L 242.055 73.33 
L 242.055 12.13 
L 119.655 12.13 
L 119.655 73.33 
" clip-path="url(#p86afcc7be6)" style="fill: none; stroke: #000000; stroke-width: 2; stroke-linecap: round"/>
   </g>
   <g id="line2d_3">
    <path d="M 119.655 42.73 
L 104.355 42.73 
" clip-path="url(#p86afcc7be6)" style="fill: none; stroke: #000000; stroke-width: 2; stroke-linecap: round"/>
   </g>
   <g id="line2d_4">
    <path d="M 242.055 42.73 
L 257.355 42.73 
" clip-path="url(#p86afcc7be6)" style="fill: none; stroke: #000000; stroke-width: 2; stroke-linecap: round"/>
   </g>
   <g id="line2d_5">
    <path d="M 257.355 42.73 
L 349.155 42.73 
L 440.955 42.73 
" clip-path="url(#p86afcc7be6)" style="fill: none; stroke: #000000; stroke-width: 2; stroke-linecap: round"/>
   </g>
   <g id="line2d_6">
    <path d="M 471.555 65.68 
L 472.535274 65.648565 
L 473.511521 65.554387 
L 474.479727 65.397855 
L 475.435915 65.179611 
L 476.376156 64.900553 
L 477.296585 64.561826 
L 478.193421 64.164824 
L 479.062979 63.711176 
L 479.901684 63.202748 
L 480.706091 62.641628 
L 481.472894 62.030123 
L 482.198943 61.370745 
L 482.881253 60.666204 
L 483.517022 59.919394 
L 484.103635 59.133385 
L 484.638684 58.311406 
L 485.119969 57.456836 
L 485.545513 56.573185 
L 485.913567 55.664085 
L 486.222618 54.733272 
L 486.471397 53.78457 
L 486.658881 52.821878 
L 486.7843 51.849152 
L 486.847139 50.870389 
L 486.847139 49.889611 
L 486.7843 48.910848 
L 486.658881 47.938122 
L 486.471397 46.97543 
L 486.222618 46.026728 
L 485.913567 45.095915 
L 485.545513 44.186815 
L 485.119969 43.303164 
L 484.638684 42.448594 
L 484.103635 41.626615 
L 483.517022 40.840606 
L 482.881253 40.093796 
L 482.198943 39.389255 
L 481.472894 38.729877 
L 480.706091 38.118372 
L 479.901684 37.557252 
L 479.062979 37.048824 
L 478.193421 36.595176 
L 477.296585 36.198174 
L 476.376156 35.859447 
L 475.435915 35.580389 
L 474.479727 35.362145 
L 473.511521 35.205613 
L 472.535274 35.111435 
L 471.555 35.08 
L 471.555 35.08 
L 451.665 35.08 
L 451.665 50.38 
L 451.665 65.68 
L 471.555 65.68 
" clip-path="url(#p86afcc7be6)" style="fill: none; stroke: #000000; stroke-width: 2; stroke-linecap: round"/>
   </g>
   <g id="line2d_7">
    <path d="M 440.955 58.03 
L 451.665 58.03 
" clip-path="url(#p86afcc7be6)" style="fill: none; stroke: #000000; stroke-width: 2; stroke-linecap: round"/>
   </g>
   <g id="line2d_8">
    <path d="M 440.955 42.73 
L 451.665 42.73 
" clip-path="url(#p86afcc7be6)" style="fill: none; stroke: #000000; stroke-width: 2; stroke-linecap: round"/>
   </g>
   <g id="line2d_9">
    <path d="M 486.855 50.38 
L 497.565 50.38 
" clip-path="url(#p86afcc7be6)" style="fill: none; stroke: #000000; stroke-width: 2; stroke-linecap: round"/>
   </g>
   <g id="line2d_10">
    <path d="M 512.865 80.98 
L 671.985 80.98 
L 671.985 19.78 
L 512.865 19.78 
L 512.865 80.98 
" clip-path="url(#p86afcc7be6)" style="fill: none; stroke: #000000; stroke-width: 2; stroke-linecap: round"/>
   </g>
   <g id="line2d_11">
    <path d="M 512.865 50.38 
L 497.565 50.38 
" clip-path="url(#p86afcc7be6)" style="fill: none; stroke: #000000; stroke-width: 2; stroke-linecap: round"/>
   </g>
   <g id="line2d_12">
    <path d="M 583.245 80.98 
L 583.245 96.28 
" clip-path="url(#p86afcc7be6)" style="fill: none; stroke: #000000; stroke-width: 2; stroke-linecap: round"/>
   </g>
   <g id="line2d_13">
    <path d="M 601.605 80.98 
L 601.605 96.28 
" clip-path="url(#p86afcc7be6)" style="fill: none; stroke: #000000; stroke-width: 2; stroke-linecap: round"/>
   </g>
   <g id="line2d_14">
    <path d="M 12.555 226.33 
L 58.455 226.33 
L 104.355 226.33 
" clip-path="url(#p86afcc7be6)" style="fill: none; stroke: #000000; stroke-width: 2; stroke-linecap: round"/>
   </g>
   <g id="line2d_15">
    <path d="M 119.655 256.93 
L 188.505 256.93 
L 188.505 195.73 
L 119.655 195.73 
L 119.655 256.93 
" clip-path="url(#p86afcc7be6)" style="fill: none; stroke: #000000; stroke-width: 2; stroke-linecap: round"/>
   </g>
   <g id="line2d_16">
    <path d="M 119.655 226.33 
L 104.355 226.33 
" clip-path="url(#p86afcc7be6)" style="fill: none; stroke: #000000; stroke-width: 2; stroke-linecap: round"/>
   </g>
   <g id="line2d_17">
    <path d="M 188.505 226.33 
L 203.805 226.33 
" clip-path="url(#p86afcc7be6)" style="fill: none; stroke: #000000; stroke-width: 2; stroke-linecap: round"/>
   </g>
   <g id="line2d_18">
    <path d="M 219.105 245.455 
L 280.305 245.455 
L 280.305 184.255 
L 219.105 184.255 
L 219.105 245.455 
" clip-path="url(#p86afcc7be6)" style="fill: none; stroke: #000000; stroke-width: 2; stroke-linecap: round"/>
   </g>
   <g id="line2d_19">
    <path d="M 219.105 220.975 
L 229.815 226.33 
L 219.105 231.685 
" clip-path="url(#p86afcc7be6)" style="fill: none; stroke: #000000; stroke-width: 2; stroke-linecap: round"/>
   </g>
   <g id="line2d_20">
    <path d="M 219.105 226.33 
L 203.805 226.33 
" clip-path="url(#p86afcc7be6)" style="fill: none; stroke: #000000; stroke-width: 2; stroke-linecap: round"/>
   </g>
   <g id="line2d_21">
    <path d="M 219.105 203.38 
L 203.805 203.38 
" clip-path="url(#p86afcc7be6)" style="fill: none; stroke: #000000; stroke-width: 2; stroke-linecap: round"/>
   </g>
   <g id="line2d_22">
    <path d="M 280.305 226.33 
L 295.605 226.33 
" clip-path="url(#p86afcc7be6)" style="fill: none; stroke: #000000; stroke-width: 2; stroke-linecap: round"/>
   </g>
   <g id="line2d_23">
    <path d="M 280.305 203.38 
L 295.605 203.38 
" clip-path="url(#p86afcc7be6)" style="fill: none; stroke: #000000; stroke-width: 2; stroke-linecap: round"/>
   </g>
   <g id="line2d_24">
    <path d="M 249.705 245.455 
L 249.705 260.755 
" clip-path="url(#p86afcc7be6)" style="fill: none; stroke: #000000; stroke-width: 2; stroke-linecap: round"/>
   </g>
   <g id="line2d_25">
    <path d="M 295.605 226.33 
L 326.205 226.33 
L 356.805 226.33 
" clip-path="url(#p86afcc7be6)" style="fill: none; stroke: #000000; stroke-width: 2; stroke-linecap: round"/>
   </g>
   <g id="line2d_26">
    <path d="M 372.105 245.455 
L 433.305 245.455 
L 433.305 184.255 
L 372.105 184.255 
L 372.105 245.455 
" clip-path="url(#p86afcc7be6)" style="fill: none; stroke: #000000; stroke-width: 2; stroke-linecap: round"/>
   </g>
   <g id="line2d_27">
    <path d="M 372.105 220.975 
L 382.815 226.33 
L 372.105 231.685 
" clip-path="url(#p86afcc7be6)" style="fill: none; stroke: #000000; stroke-width: 2; stroke-linecap: round"/>
   </g>
   <g id="line2d_28">
    <path d="M 372.105 226.33 
L 356.805 226.33 
" clip-path="url(#p86afcc7be6)" style="fill: none; stroke: #000000; stroke-width: 2; stroke-linecap: round"/>
   </g>
   <g id="line2d_29">
    <path d="M 372.105 203.38 
L 356.805 203.38 
" clip-path="url(#p86afcc7be6)" style="fill: none; stroke: #000000; stroke-width: 2; stroke-linecap: round"/>
   </g>
   <g id="line2d_30">
    <path d="M 433.305 226.33 
L 448.605 226.33 
" clip-path="url(#p86afcc7be6)" style="fill: none; stroke: #000000; stroke-width: 2; stroke-linecap: round"/>
   </g>
   <g id="line2d_31">
    <path d="M 433.305 203.38 
L 448.605 203.38 
" clip-path="url(#p86afcc7be6)" style="fill: none; stroke: #000000; stroke-width: 2; stroke-linecap: round"/>
   </g>
   <g id="line2d_32">
    <path d="M 402.705 245.455 
L 402.705 260.755 
" clip-path="url(#p86afcc7be6)" style="fill: none; stroke: #000000; stroke-width: 2; stroke-linecap: round"/>
   </g>
   <g id="line2d_33">
    <path d="M 448.605 226.33 
L 448.605 256.93 
L 448.605 287.53 
" clip-path="url(#p86afcc7be6)" style="fill: none; stroke: #000000; stroke-width: 2; stroke-linecap: round"/>
   </g>
   <g id="line2d_34">
    <path d="M 448.605 287.53 
L 203.805 287.53 
L 203.805 203.38 
" clip-path="url(#p86afcc7be6)" style="fill: none; stroke: #000000; stroke-width: 2; stroke-linecap: round"/>
   </g>
   <g id="line2d_35">
    <path d="M 356.805 203.38 
L 349.155 203.38 
L 341.505 203.38 
" clip-path="url(#p86afcc7be6)" style="fill: none; stroke: #000000; stroke-width: 2; stroke-linecap: round"/>
   </g>
   <g id="line2d_36">
    <path d="M 295.605 203.38 
L 295.605 58.03 
L 440.955 58.03 
" clip-path="url(#p86afcc7be6)" style="fill: none; stroke: #000000; stroke-width: 2; stroke-linecap: round"/>
   </g>
   <g id="line2d_37">
    <path d="M 12.555 348.73 
L 43.155 348.73 
L 73.755 348.73 
" clip-path="url(#p86afcc7be6)" style="fill: none; stroke: #000000; stroke-width: 2; stroke-linecap: round"/>
   </g>
   <g id="line2d_38">
    <path d="M 73.755 348.73 
L 249.705 348.73 
L 249.705 260.755 
" clip-path="url(#p86afcc7be6)" style="fill: none; stroke: #000000; stroke-width: 2; stroke-linecap: round"/>
   </g>
   <g id="line2d_39">
    <path d="M 73.755 348.73 
L 402.705 348.73 
L 402.705 260.755 
" clip-path="url(#p86afcc7be6)" style="fill: none; stroke: #000000; stroke-width: 2; stroke-linecap: round"/>
   </g>
   <g id="line2d_40">
    <path d="M 73.755 348.73 
L 583.245 348.73 
L 583.245 96.28 
" clip-path="url(#p86afcc7be6)" style="fill: none; stroke: #000000; stroke-width: 2; stroke-linecap: round"/>
   </g>
   <g id="line2d_41">
    <path d="M 601.605 96.28 
L 601.605 142.18 
L 601.605 180.43 
" clip-path="url(#p86afcc7be6)" style="fill: none; stroke: #000000; stroke-width: 2; stroke-linecap: round"/>
   </g>
   <g id="line2d_42">
    <path d="M 599.31 96.28 
L 603.9 96.28 
" clip-path="url(#p86afcc7be6)" style="fill: none; stroke: #000000; stroke-width: 2; stroke-linecap: round"/>
   </g>
   <g id="patch_2">
    <path d="M 603.9 180.43 
L 601.605 188.08 
L 599.31 180.43 
z
" clip-path="url(#p86afcc7be6)"/>
   </g>
   <g id="patch_3">
    <path d="M 12.555 45.025 
C 13.163641 45.025 13.747436 44.783184 14.17781 44.35281 
C 14.608184 43.922436 14.85 43.338641 14.85 42.73 
C 14.85 42.121359 14.608184 41.537564 14.17781 41.10719 
C 13.747436 40.676816 13.163641 40.435 12.555 40.435 
C 11.946359 40.435 11.362564 40.676816 10.93219 41.10719 
C 10.501816 41.537564 10.26 42.121359 10.26 42.73 
C 10.26 43.338641 10.501816 43.922436 10.93219 44.35281 
C 11.362564 44.783184 11.946359 45.025 12.555 45.025 
z
" clip-path="url(#p86afcc7be6)" style="fill: #ffffff; stroke: #000000; stroke-width: 2; stroke-linejoin: miter"/>
   </g>
   <g id="text_1">
    <g clip-path="url(#p86afcc7be6)">
     <!-- $f_{ref}$ -->
     <g transform="translate(48.87 34.775391) scale(0.125 -0.125)">
      <defs>
       <path id="DejaVuSans-Oblique-66" d="M 3059 4863 
L 2969 4384 
L 2419 4384 
Q 2106 4384 1964 4261 
Q 1822 4138 1753 3809 
L 1691 3500 
L 2638 3500 
L 2553 3053 
L 1606 3053 
L 1013 0 
L 434 0 
L 1031 3053 
L 481 3053 
L 563 3500 
L 1113 3500 
L 1159 3744 
Q 1278 4363 1576 4613 
Q 1875 4863 2516 4863 
L 3059 4863 
z
" transform="scale(0.015625)"/>
       <path id="DejaVuSans-Oblique-72" d="M 2853 2969 
Q 2766 3016 2653 3041 
Q 2541 3066 2413 3066 
Q 1953 3066 1609 2717 
Q 1266 2369 1153 1784 
L 800 0 
L 225 0 
L 909 3500 
L 1484 3500 
L 1375 2956 
Q 1603 3259 1920 3421 
Q 2238 3584 2597 3584 
Q 2691 3584 2781 3573 
Q 2872 3563 2963 3538 
L 2853 2969 
z
" transform="scale(0.015625)"/>
       <path id="DejaVuSans-Oblique-65" d="M 3078 2063 
Q 3088 2113 3092 2166 
Q 3097 2219 3097 2272 
Q 3097 2653 2873 2875 
Q 2650 3097 2266 3097 
Q 1838 3097 1509 2826 
Q 1181 2556 1013 2059 
L 3078 2063 
z
M 3578 1613 
L 903 1613 
Q 884 1494 878 1425 
Q 872 1356 872 1306 
Q 872 872 1139 634 
Q 1406 397 1894 397 
Q 2269 397 2603 481 
Q 2938 566 3225 728 
L 3116 159 
Q 2806 34 2476 -28 
Q 2147 -91 1806 -91 
Q 1078 -91 686 257 
Q 294 606 294 1247 
Q 294 1794 489 2264 
Q 684 2734 1063 3103 
Q 1306 3334 1642 3459 
Q 1978 3584 2356 3584 
Q 2950 3584 3301 3228 
Q 3653 2872 3653 2272 
Q 3653 2128 3634 1964 
Q 3616 1800 3578 1613 
z
" transform="scale(0.015625)"/>
      </defs>
      <use xlink:href="#DejaVuSans-Oblique-66" transform="translate(0 0.015625)"/>
      <use xlink:href="#DejaVuSans-Oblique-72" transform="translate(35.205078 -16.390625) scale(0.7)"/>
      <use xlink:href="#DejaVuSans-Oblique-65" transform="translate(63.984375 -16.390625) scale(0.7)"/>
      <use xlink:href="#DejaVuSans-Oblique-66" transform="translate(107.050781 -16.390625) scale(0.7)"/>
     </g>
    </g>
   </g>
   <g id="text_2">
    <g clip-path="url(#p86afcc7be6)">
     <!-- Vorteiler -->
     <g transform="translate(154.486836 36.120586) scale(0.125 -0.125)">
      <defs>
       <path id="DejaVuSans-56" d="M 1831 0 
L 50 4666 
L 709 4666 
L 2188 738 
L 3669 4666 
L 4325 4666 
L 2547 0 
L 1831 0 
z
" transform="scale(0.015625)"/>
       <path id="DejaVuSans-6f" d="M 1959 3097 
Q 1497 3097 1228 2736 
Q 959 2375 959 1747 
Q 959 1119 1226 758 
Q 1494 397 1959 397 
Q 2419 397 2687 759 
Q 2956 1122 2956 1747 
Q 2956 2369 2687 2733 
Q 2419 3097 1959 3097 
z
M 1959 3584 
Q 2709 3584 3137 3096 
Q 3566 2609 3566 1747 
Q 3566 888 3137 398 
Q 2709 -91 1959 -91 
Q 1206 -91 779 398 
Q 353 888 353 1747 
Q 353 2609 779 3096 
Q 1206 3584 1959 3584 
z
" transform="scale(0.015625)"/>
       <path id="DejaVuSans-72" d="M 2631 2963 
Q 2534 3019 2420 3045 
Q 2306 3072 2169 3072 
Q 1681 3072 1420 2755 
Q 1159 2438 1159 1844 
L 1159 0 
L 581 0 
L 581 3500 
L 1159 3500 
L 1159 2956 
Q 1341 3275 1631 3429 
Q 1922 3584 2338 3584 
Q 2397 3584 2469 3576 
Q 2541 3569 2628 3553 
L 2631 2963 
z
" transform="scale(0.015625)"/>
       <path id="DejaVuSans-74" d="M 1172 4494 
L 1172 3500 
L 2356 3500 
L 2356 3053 
L 1172 3053 
L 1172 1153 
Q 1172 725 1289 603 
Q 1406 481 1766 481 
L 2356 481 
L 2356 0 
L 1766 0 
Q 1100 0 847 248 
Q 594 497 594 1153 
L 594 3053 
L 172 3053 
L 172 3500 
L 594 3500 
L 594 4494 
L 1172 4494 
z
" transform="scale(0.015625)"/>
       <path id="DejaVuSans-65" d="M 3597 1894 
L 3597 1613 
L 953 1613 
Q 991 1019 1311 708 
Q 1631 397 2203 397 
Q 2534 397 2845 478 
Q 3156 559 3463 722 
L 3463 178 
Q 3153 47 2828 -22 
Q 2503 -91 2169 -91 
Q 1331 -91 842 396 
Q 353 884 353 1716 
Q 353 2575 817 3079 
Q 1281 3584 2069 3584 
Q 2775 3584 3186 3129 
Q 3597 2675 3597 1894 
z
M 3022 2063 
Q 3016 2534 2758 2815 
Q 2500 3097 2075 3097 
Q 1594 3097 1305 2825 
Q 1016 2553 972 2059 
L 3022 2063 
z
" transform="scale(0.015625)"/>
       <path id="DejaVuSans-69" d="M 603 3500 
L 1178 3500 
L 1178 0 
L 603 0 
L 603 3500 
z
M 603 4863 
L 1178 4863 
L 1178 4134 
L 603 4134 
L 603 4863 
z
" transform="scale(0.015625)"/>
       <path id="DejaVuSans-6c" d="M 603 4863 
L 1178 4863 
L 1178 0 
L 603 0 
L 603 4863 
z
" transform="scale(0.015625)"/>
      </defs>
      <use xlink:href="#DejaVuSans-56"/>
      <use xlink:href="#DejaVuSans-6f" x="60.658203"/>
      <use xlink:href="#DejaVuSans-72" x="121.839844"/>
      <use xlink:href="#DejaVuSans-74" x="162.953125"/>
      <use xlink:href="#DejaVuSans-65" x="202.162109"/>
      <use xlink:href="#DejaVuSans-69" x="263.685547"/>
      <use xlink:href="#DejaVuSans-6c" x="291.46875"/>
      <use xlink:href="#DejaVuSans-65" x="319.251953"/>
      <use xlink:href="#DejaVuSans-72" x="380.775391"/>
     </g>
    </g>
    <g clip-path="url(#p86afcc7be6)">
     <!-- $N_{ref}$ -->
     <g transform="translate(169.9175 50.117852) scale(0.125 -0.125)">
      <defs>
       <path id="DejaVuSans-Oblique-4e" d="M 1081 4666 
L 1931 4666 
L 3219 666 
L 4000 4666 
L 4616 4666 
L 3706 0 
L 2853 0 
L 1569 4025 
L 788 0 
L 172 0 
L 1081 4666 
z
" transform="scale(0.015625)"/>
      </defs>
      <use xlink:href="#DejaVuSans-Oblique-4e" transform="translate(0 0.09375)"/>
      <use xlink:href="#DejaVuSans-Oblique-72" transform="translate(74.804688 -16.3125) scale(0.7)"/>
      <use xlink:href="#DejaVuSans-Oblique-65" transform="translate(103.583984 -16.3125) scale(0.7)"/>
      <use xlink:href="#DejaVuSans-Oblique-66" transform="translate(146.650391 -16.3125) scale(0.7)"/>
     </g>
    </g>
   </g>
   <g id="text_3">
    <g clip-path="url(#p86afcc7be6)">
     <!-- AND-Gate -->
     <g transform="translate(438.046133 29.420391) scale(0.125 -0.125)">
      <defs>
       <path id="DejaVuSans-41" d="M 2188 4044 
L 1331 1722 
L 3047 1722 
L 2188 4044 
z
M 1831 4666 
L 2547 4666 
L 4325 0 
L 3669 0 
L 3244 1197 
L 1141 1197 
L 716 0 
L 50 0 
L 1831 4666 
z
" transform="scale(0.015625)"/>
       <path id="DejaVuSans-4e" d="M 628 4666 
L 1478 4666 
L 3547 763 
L 3547 4666 
L 4159 4666 
L 4159 0 
L 3309 0 
L 1241 3903 
L 1241 0 
L 628 0 
L 628 4666 
z
" transform="scale(0.015625)"/>
       <path id="DejaVuSans-44" d="M 1259 4147 
L 1259 519 
L 2022 519 
Q 2988 519 3436 956 
Q 3884 1394 3884 2338 
Q 3884 3275 3436 3711 
Q 2988 4147 2022 4147 
L 1259 4147 
z
M 628 4666 
L 1925 4666 
Q 3281 4666 3915 4102 
Q 4550 3538 4550 2338 
Q 4550 1131 3912 565 
Q 3275 0 1925 0 
L 628 0 
L 628 4666 
z
" transform="scale(0.015625)"/>
       <path id="DejaVuSans-2d" d="M 313 2009 
L 1997 2009 
L 1997 1497 
L 313 1497 
L 313 2009 
z
" transform="scale(0.015625)"/>
       <path id="DejaVuSans-47" d="M 3809 666 
L 3809 1919 
L 2778 1919 
L 2778 2438 
L 4434 2438 
L 4434 434 
Q 4069 175 3628 42 
Q 3188 -91 2688 -91 
Q 1594 -91 976 548 
Q 359 1188 359 2328 
Q 359 3472 976 4111 
Q 1594 4750 2688 4750 
Q 3144 4750 3555 4637 
Q 3966 4525 4313 4306 
L 4313 3634 
Q 3963 3931 3569 4081 
Q 3175 4231 2741 4231 
Q 1884 4231 1454 3753 
Q 1025 3275 1025 2328 
Q 1025 1384 1454 906 
Q 1884 428 2741 428 
Q 3075 428 3337 486 
Q 3600 544 3809 666 
z
" transform="scale(0.015625)"/>
       <path id="DejaVuSans-61" d="M 2194 1759 
Q 1497 1759 1228 1600 
Q 959 1441 959 1056 
Q 959 750 1161 570 
Q 1363 391 1709 391 
Q 2188 391 2477 730 
Q 2766 1069 2766 1631 
L 2766 1759 
L 2194 1759 
z
M 3341 1997 
L 3341 0 
L 2766 0 
L 2766 531 
Q 2569 213 2275 61 
Q 1981 -91 1556 -91 
Q 1019 -91 701 211 
Q 384 513 384 1019 
Q 384 1609 779 1909 
Q 1175 2209 1959 2209 
L 2766 2209 
L 2766 2266 
Q 2766 2663 2505 2880 
Q 2244 3097 1772 3097 
Q 1472 3097 1187 3025 
Q 903 2953 641 2809 
L 641 3341 
Q 956 3463 1253 3523 
Q 1550 3584 1831 3584 
Q 2591 3584 2966 3190 
Q 3341 2797 3341 1997 
z
" transform="scale(0.015625)"/>
      </defs>
      <use xlink:href="#DejaVuSans-41"/>
      <use xlink:href="#DejaVuSans-4e" x="68.408203"/>
      <use xlink:href="#DejaVuSans-44" x="143.212891"/>
      <use xlink:href="#DejaVuSans-2d" x="220.214844"/>
      <use xlink:href="#DejaVuSans-47" x="259.923828"/>
      <use xlink:href="#DejaVuSans-61" x="337.414062"/>
      <use xlink:href="#DejaVuSans-74" x="398.693359"/>
      <use xlink:href="#DejaVuSans-65" x="437.902344"/>
     </g>
    </g>
   </g>
   <g id="text_4">
    <g clip-path="url(#p86afcc7be6)">
     <!-- n-Bit Counter -->
     <g transform="translate(550.999219 50.769219) scale(0.125 -0.125)">
      <defs>
       <path id="DejaVuSans-6e" d="M 3513 2113 
L 3513 0 
L 2938 0 
L 2938 2094 
Q 2938 2591 2744 2837 
Q 2550 3084 2163 3084 
Q 1697 3084 1428 2787 
Q 1159 2491 1159 1978 
L 1159 0 
L 581 0 
L 581 3500 
L 1159 3500 
L 1159 2956 
Q 1366 3272 1645 3428 
Q 1925 3584 2291 3584 
Q 2894 3584 3203 3211 
Q 3513 2838 3513 2113 
z
" transform="scale(0.015625)"/>
       <path id="DejaVuSans-42" d="M 1259 2228 
L 1259 519 
L 2272 519 
Q 2781 519 3026 730 
Q 3272 941 3272 1375 
Q 3272 1813 3026 2020 
Q 2781 2228 2272 2228 
L 1259 2228 
z
M 1259 4147 
L 1259 2741 
L 2194 2741 
Q 2656 2741 2882 2914 
Q 3109 3088 3109 3444 
Q 3109 3797 2882 3972 
Q 2656 4147 2194 4147 
L 1259 4147 
z
M 628 4666 
L 2241 4666 
Q 2963 4666 3353 4366 
Q 3744 4066 3744 3513 
Q 3744 3084 3544 2831 
Q 3344 2578 2956 2516 
Q 3422 2416 3680 2098 
Q 3938 1781 3938 1306 
Q 3938 681 3513 340 
Q 3088 0 2303 0 
L 628 0 
L 628 4666 
z
" transform="scale(0.015625)"/>
       <path id="DejaVuSans-20" transform="scale(0.015625)"/>
       <path id="DejaVuSans-43" d="M 4122 4306 
L 4122 3641 
Q 3803 3938 3442 4084 
Q 3081 4231 2675 4231 
Q 1875 4231 1450 3742 
Q 1025 3253 1025 2328 
Q 1025 1406 1450 917 
Q 1875 428 2675 428 
Q 3081 428 3442 575 
Q 3803 722 4122 1019 
L 4122 359 
Q 3791 134 3420 21 
Q 3050 -91 2638 -91 
Q 1578 -91 968 557 
Q 359 1206 359 2328 
Q 359 3453 968 4101 
Q 1578 4750 2638 4750 
Q 3056 4750 3426 4639 
Q 3797 4528 4122 4306 
z
" transform="scale(0.015625)"/>
       <path id="DejaVuSans-75" d="M 544 1381 
L 544 3500 
L 1119 3500 
L 1119 1403 
Q 1119 906 1312 657 
Q 1506 409 1894 409 
Q 2359 409 2629 706 
Q 2900 1003 2900 1516 
L 2900 3500 
L 3475 3500 
L 3475 0 
L 2900 0 
L 2900 538 
Q 2691 219 2414 64 
Q 2138 -91 1772 -91 
Q 1169 -91 856 284 
Q 544 659 544 1381 
z
M 1991 3584 
L 1991 3584 
z
" transform="scale(0.015625)"/>
      </defs>
      <use xlink:href="#DejaVuSans-6e"/>
      <use xlink:href="#DejaVuSans-2d" x="63.378906"/>
      <use xlink:href="#DejaVuSans-42" x="95.837891"/>
      <use xlink:href="#DejaVuSans-69" x="164.441406"/>
      <use xlink:href="#DejaVuSans-74" x="192.224609"/>
      <use xlink:href="#DejaVuSans-20" x="231.433594"/>
      <use xlink:href="#DejaVuSans-43" x="263.220703"/>
      <use xlink:href="#DejaVuSans-6f" x="333.044922"/>
      <use xlink:href="#DejaVuSans-75" x="394.226562"/>
      <use xlink:href="#DejaVuSans-6e" x="457.605469"/>
      <use xlink:href="#DejaVuSans-74" x="520.984375"/>
      <use xlink:href="#DejaVuSans-65" x="560.193359"/>
      <use xlink:href="#DejaVuSans-72" x="621.716797"/>
     </g>
    </g>
   </g>
   <g id="patch_4">
    <path d="M 12.555 228.625 
C 13.163641 228.625 13.747436 228.383184 14.17781 227.95281 
C 14.608184 227.522436 14.85 226.938641 14.85 226.33 
C 14.85 225.721359 14.608184 225.137564 14.17781 224.70719 
C 13.747436 224.276816 13.163641 224.035 12.555 224.035 
C 11.946359 224.035 11.362564 224.276816 10.93219 224.70719 
C 10.501816 225.137564 10.26 225.721359 10.26 226.33 
C 10.26 226.938641 10.501816 227.522436 10.93219 227.95281 
C 11.362564 228.383184 11.946359 228.625 12.555 228.625 
z
" clip-path="url(#p86afcc7be6)" style="fill: #ffffff; stroke: #000000; stroke-width: 2; stroke-linejoin: miter"/>
   </g>
   <g id="text_5">
    <g clip-path="url(#p86afcc7be6)">
     <!-- $f_x$ -->
     <g transform="translate(52.3075 218.375391) scale(0.125 -0.125)">
      <defs>
       <path id="DejaVuSans-Oblique-78" d="M 3841 3500 
L 2234 1784 
L 3219 0 
L 2559 0 
L 1819 1388 
L 531 0 
L -166 0 
L 1556 1844 
L 641 3500 
L 1300 3500 
L 1972 2234 
L 3144 3500 
L 3841 3500 
z
" transform="scale(0.015625)"/>
      </defs>
      <use xlink:href="#DejaVuSans-Oblique-66" transform="translate(0 0.015625)"/>
      <use xlink:href="#DejaVuSans-Oblique-78" transform="translate(35.205078 -16.390625) scale(0.7)"/>
     </g>
    </g>
   </g>
   <g id="text_6">
    <g clip-path="url(#p86afcc7be6)">
     <!-- Schmitt-Trigger -->
     <g transform="translate(106.753828 269.488047) scale(0.125 -0.125)">
      <defs>
       <path id="DejaVuSans-53" d="M 3425 4513 
L 3425 3897 
Q 3066 4069 2747 4153 
Q 2428 4238 2131 4238 
Q 1616 4238 1336 4038 
Q 1056 3838 1056 3469 
Q 1056 3159 1242 3001 
Q 1428 2844 1947 2747 
L 2328 2669 
Q 3034 2534 3370 2195 
Q 3706 1856 3706 1288 
Q 3706 609 3251 259 
Q 2797 -91 1919 -91 
Q 1588 -91 1214 -16 
Q 841 59 441 206 
L 441 856 
Q 825 641 1194 531 
Q 1563 422 1919 422 
Q 2459 422 2753 634 
Q 3047 847 3047 1241 
Q 3047 1584 2836 1778 
Q 2625 1972 2144 2069 
L 1759 2144 
Q 1053 2284 737 2584 
Q 422 2884 422 3419 
Q 422 4038 858 4394 
Q 1294 4750 2059 4750 
Q 2388 4750 2728 4690 
Q 3069 4631 3425 4513 
z
" transform="scale(0.015625)"/>
       <path id="DejaVuSans-63" d="M 3122 3366 
L 3122 2828 
Q 2878 2963 2633 3030 
Q 2388 3097 2138 3097 
Q 1578 3097 1268 2742 
Q 959 2388 959 1747 
Q 959 1106 1268 751 
Q 1578 397 2138 397 
Q 2388 397 2633 464 
Q 2878 531 3122 666 
L 3122 134 
Q 2881 22 2623 -34 
Q 2366 -91 2075 -91 
Q 1284 -91 818 406 
Q 353 903 353 1747 
Q 353 2603 823 3093 
Q 1294 3584 2113 3584 
Q 2378 3584 2631 3529 
Q 2884 3475 3122 3366 
z
" transform="scale(0.015625)"/>
       <path id="DejaVuSans-68" d="M 3513 2113 
L 3513 0 
L 2938 0 
L 2938 2094 
Q 2938 2591 2744 2837 
Q 2550 3084 2163 3084 
Q 1697 3084 1428 2787 
Q 1159 2491 1159 1978 
L 1159 0 
L 581 0 
L 581 4863 
L 1159 4863 
L 1159 2956 
Q 1366 3272 1645 3428 
Q 1925 3584 2291 3584 
Q 2894 3584 3203 3211 
Q 3513 2838 3513 2113 
z
" transform="scale(0.015625)"/>
       <path id="DejaVuSans-6d" d="M 3328 2828 
Q 3544 3216 3844 3400 
Q 4144 3584 4550 3584 
Q 5097 3584 5394 3201 
Q 5691 2819 5691 2113 
L 5691 0 
L 5113 0 
L 5113 2094 
Q 5113 2597 4934 2840 
Q 4756 3084 4391 3084 
Q 3944 3084 3684 2787 
Q 3425 2491 3425 1978 
L 3425 0 
L 2847 0 
L 2847 2094 
Q 2847 2600 2669 2842 
Q 2491 3084 2119 3084 
Q 1678 3084 1418 2786 
Q 1159 2488 1159 1978 
L 1159 0 
L 581 0 
L 581 3500 
L 1159 3500 
L 1159 2956 
Q 1356 3278 1631 3431 
Q 1906 3584 2284 3584 
Q 2666 3584 2933 3390 
Q 3200 3197 3328 2828 
z
" transform="scale(0.015625)"/>
       <path id="DejaVuSans-54" d="M -19 4666 
L 3928 4666 
L 3928 4134 
L 2272 4134 
L 2272 0 
L 1638 0 
L 1638 4134 
L -19 4134 
L -19 4666 
z
" transform="scale(0.015625)"/>
       <path id="DejaVuSans-67" d="M 2906 1791 
Q 2906 2416 2648 2759 
Q 2391 3103 1925 3103 
Q 1463 3103 1205 2759 
Q 947 2416 947 1791 
Q 947 1169 1205 825 
Q 1463 481 1925 481 
Q 2391 481 2648 825 
Q 2906 1169 2906 1791 
z
M 3481 434 
Q 3481 -459 3084 -895 
Q 2688 -1331 1869 -1331 
Q 1566 -1331 1297 -1286 
Q 1028 -1241 775 -1147 
L 775 -588 
Q 1028 -725 1275 -790 
Q 1522 -856 1778 -856 
Q 2344 -856 2625 -561 
Q 2906 -266 2906 331 
L 2906 616 
Q 2728 306 2450 153 
Q 2172 0 1784 0 
Q 1141 0 747 490 
Q 353 981 353 1791 
Q 353 2603 747 3093 
Q 1141 3584 1784 3584 
Q 2172 3584 2450 3431 
Q 2728 3278 2906 2969 
L 2906 3500 
L 3481 3500 
L 3481 434 
z
" transform="scale(0.015625)"/>
      </defs>
      <use xlink:href="#DejaVuSans-53"/>
      <use xlink:href="#DejaVuSans-63" x="63.476562"/>
      <use xlink:href="#DejaVuSans-68" x="118.457031"/>
      <use xlink:href="#DejaVuSans-6d" x="181.835938"/>
      <use xlink:href="#DejaVuSans-69" x="279.248047"/>
      <use xlink:href="#DejaVuSans-74" x="307.03125"/>
      <use xlink:href="#DejaVuSans-74" x="346.240234"/>
      <use xlink:href="#DejaVuSans-2d" x="385.449219"/>
      <use xlink:href="#DejaVuSans-54" x="412.408203"/>
      <use xlink:href="#DejaVuSans-72" x="458.742188"/>
      <use xlink:href="#DejaVuSans-69" x="499.855469"/>
      <use xlink:href="#DejaVuSans-67" x="527.638672"/>
      <use xlink:href="#DejaVuSans-67" x="591.115234"/>
      <use xlink:href="#DejaVuSans-65" x="654.591797"/>
      <use xlink:href="#DejaVuSans-72" x="716.115234"/>
     </g>
    </g>
   </g>
   <g id="text_7">
    <g clip-path="url(#p86afcc7be6)">
     <!-- ⎎ -->
     <g transform="translate(150.329023 226.719219) scale(0.125 -0.125)">
      <defs>
       <path id="DejaVuSans-238e" d="M 319 -1131 
L 319 4513 
L 3519 4513 
L 3519 -1131 
L 319 -1131 
z
M 678 -775 
L 3163 -775 
L 3163 4153 
L 678 4153 
L 678 -775 
z
" transform="scale(0.015625)"/>
      </defs>
      <use xlink:href="#DejaVuSans-238e"/>
     </g>
    </g>
   </g>
   <g id="text_8">
    <g clip-path="url(#p86afcc7be6)">
     <!-- T -->
     <g transform="translate(223.695 206.001406) scale(0.095 -0.095)">
      <use xlink:href="#DejaVuSans-54"/>
     </g>
    </g>
   </g>
   <g id="text_9">
    <g clip-path="url(#p86afcc7be6)">
     <!-- $\overline{Q}$ -->
     <g transform="translate(268.21 229.674297) scale(0.095 -0.095)">
      <defs>
       <path id="DejaVuSans-Oblique-51" d="M 2309 -84 
Q 2275 -88 2237 -89 
Q 2200 -91 2125 -91 
Q 1250 -91 756 411 
Q 263 913 263 1797 
Q 263 2319 452 2844 
Q 641 3369 978 3788 
Q 1369 4269 1858 4509 
Q 2347 4750 2938 4750 
Q 3794 4750 4287 4245 
Q 4781 3741 4781 2869 
Q 4781 1928 4265 1147 
Q 3750 366 2919 44 
L 3553 -825 
L 2847 -825 
L 2309 -84 
z
M 2919 4238 
Q 2400 4238 2003 3986 
Q 1606 3734 1313 3219 
Q 1125 2891 1026 2522 
Q 928 2153 928 1778 
Q 928 1128 1239 775 
Q 1550 422 2119 422 
Q 2631 422 3032 676 
Q 3434 931 3719 1434 
Q 3909 1772 4009 2142 
Q 4109 2513 4109 2881 
Q 4109 3528 3796 3883 
Q 3484 4238 2919 4238 
z
" transform="scale(0.015625)"/>
      </defs>
      <use xlink:href="#DejaVuSans-Oblique-51" transform="translate(0 0.53125)"/>
      <path d="M 0 86.5 
L 0 92.75 
L 78.710938 92.75 
L 78.710938 86.5 
L 0 86.5 
z
"/>
     </g>
    </g>
   </g>
   <g id="text_10">
    <g clip-path="url(#p86afcc7be6)">
     <!-- Q -->
     <g transform="translate(268.236719 206.001406) scale(0.095 -0.095)">
      <defs>
       <path id="DejaVuSans-51" d="M 2522 4238 
Q 1834 4238 1429 3725 
Q 1025 3213 1025 2328 
Q 1025 1447 1429 934 
Q 1834 422 2522 422 
Q 3209 422 3611 934 
Q 4013 1447 4013 2328 
Q 4013 3213 3611 3725 
Q 3209 4238 2522 4238 
z
M 3406 84 
L 4238 -825 
L 3475 -825 
L 2784 -78 
Q 2681 -84 2626 -87 
Q 2572 -91 2522 -91 
Q 1538 -91 948 567 
Q 359 1225 359 2328 
Q 359 3434 948 4092 
Q 1538 4750 2522 4750 
Q 3503 4750 4090 4092 
Q 4678 3434 4678 2328 
Q 4678 1516 4351 937 
Q 4025 359 3406 84 
z
" transform="scale(0.015625)"/>
      </defs>
      <use xlink:href="#DejaVuSans-51"/>
     </g>
    </g>
   </g>
   <g id="text_11">
    <g clip-path="url(#p86afcc7be6)">
     <!-- T -->
     <g transform="translate(376.695 206.001406) scale(0.095 -0.095)">
      <use xlink:href="#DejaVuSans-54"/>
     </g>
    </g>
   </g>
   <g id="text_12">
    <g clip-path="url(#p86afcc7be6)">
     <!-- $\overline{Q}$ -->
     <g transform="translate(421.21 229.674297) scale(0.095 -0.095)">
      <use xlink:href="#DejaVuSans-Oblique-51" transform="translate(0 0.53125)"/>
      <path d="M 0 86.5 
L 0 92.75 
L 78.710938 92.75 
L 78.710938 86.5 
L 0 86.5 
z
"/>
     </g>
    </g>
   </g>
   <g id="text_13">
    <g clip-path="url(#p86afcc7be6)">
     <!-- Q -->
     <g transform="translate(421.236719 206.001406) scale(0.095 -0.095)">
      <use xlink:href="#DejaVuSans-51"/>
     </g>
    </g>
   </g>
   <g id="patch_5">
    <path d="M 341.505 205.675 
C 342.113641 205.675 342.697436 205.433184 343.12781 205.00281 
C 343.558184 204.572436 343.8 203.988641 343.8 203.38 
C 343.8 202.771359 343.558184 202.187564 343.12781 201.75719 
C 342.697436 201.326816 342.113641 201.085 341.505 201.085 
C 340.896359 201.085 340.312564 201.326816 339.88219 201.75719 
C 339.451816 202.187564 339.21 202.771359 339.21 203.38 
C 339.21 203.988641 339.451816 204.572436 339.88219 205.00281 
C 340.312564 205.433184 340.896359 205.675 341.505 205.675 
z
" clip-path="url(#p86afcc7be6)" style="fill: #ffffff; stroke: #000000; stroke-width: 2; stroke-linejoin: miter"/>
   </g>
   <g id="text_14">
    <g clip-path="url(#p86afcc7be6)">
     <!-- 1 -->
     <g transform="translate(344.030938 195.425391) scale(0.125 -0.125)">
      <defs>
       <path id="DejaVuSans-31" d="M 794 531 
L 1825 531 
L 1825 4091 
L 703 3866 
L 703 4441 
L 1819 4666 
L 2450 4666 
L 2450 531 
L 3481 531 
L 3481 0 
L 794 0 
L 794 531 
z
" transform="scale(0.015625)"/>
      </defs>
      <use xlink:href="#DejaVuSans-31"/>
     </g>
    </g>
   </g>
   <g id="patch_6">
    <path d="M 12.555 351.025 
C 13.163641 351.025 13.747436 350.783184 14.17781 350.35281 
C 14.608184 349.922436 14.85 349.338641 14.85 348.73 
C 14.85 348.121359 14.608184 347.537564 14.17781 347.10719 
C 13.747436 346.676816 13.163641 346.435 12.555 346.435 
C 11.946359 346.435 11.362564 346.676816 10.93219 347.10719 
C 10.501816 347.537564 10.26 348.121359 10.26 348.73 
C 10.26 349.338641 10.501816 349.922436 10.93219 350.35281 
C 11.362564 350.783184 11.946359 351.025 12.555 351.025 
z
" clip-path="url(#p86afcc7be6)" style="fill: #ffffff; stroke: #000000; stroke-width: 2; stroke-linejoin: miter"/>
   </g>
   <g id="text_15">
    <g clip-path="url(#p86afcc7be6)">
     <!-- Reset -->
     <g transform="translate(24.548516 340.775391) scale(0.125 -0.125)">
      <defs>
       <path id="DejaVuSans-52" d="M 2841 2188 
Q 3044 2119 3236 1894 
Q 3428 1669 3622 1275 
L 4263 0 
L 3584 0 
L 2988 1197 
Q 2756 1666 2539 1819 
Q 2322 1972 1947 1972 
L 1259 1972 
L 1259 0 
L 628 0 
L 628 4666 
L 2053 4666 
Q 2853 4666 3247 4331 
Q 3641 3997 3641 3322 
Q 3641 2881 3436 2590 
Q 3231 2300 2841 2188 
z
M 1259 4147 
L 1259 2491 
L 2053 2491 
Q 2509 2491 2742 2702 
Q 2975 2913 2975 3322 
Q 2975 3731 2742 3939 
Q 2509 4147 2053 4147 
L 1259 4147 
z
" transform="scale(0.015625)"/>
       <path id="DejaVuSans-73" d="M 2834 3397 
L 2834 2853 
Q 2591 2978 2328 3040 
Q 2066 3103 1784 3103 
Q 1356 3103 1142 2972 
Q 928 2841 928 2578 
Q 928 2378 1081 2264 
Q 1234 2150 1697 2047 
L 1894 2003 
Q 2506 1872 2764 1633 
Q 3022 1394 3022 966 
Q 3022 478 2636 193 
Q 2250 -91 1575 -91 
Q 1294 -91 989 -36 
Q 684 19 347 128 
L 347 722 
Q 666 556 975 473 
Q 1284 391 1588 391 
Q 1994 391 2212 530 
Q 2431 669 2431 922 
Q 2431 1156 2273 1281 
Q 2116 1406 1581 1522 
L 1381 1569 
Q 847 1681 609 1914 
Q 372 2147 372 2553 
Q 372 3047 722 3315 
Q 1072 3584 1716 3584 
Q 2034 3584 2315 3537 
Q 2597 3491 2834 3397 
z
" transform="scale(0.015625)"/>
      </defs>
      <use xlink:href="#DejaVuSans-52"/>
      <use xlink:href="#DejaVuSans-65" x="64.982422"/>
      <use xlink:href="#DejaVuSans-73" x="126.505859"/>
      <use xlink:href="#DejaVuSans-65" x="178.605469"/>
      <use xlink:href="#DejaVuSans-74" x="240.128906"/>
     </g>
    </g>
   </g>
   <g id="text_16">
    <g clip-path="url(#p86afcc7be6)">
     <!-- n -->
     <g transform="translate(609.255 145.629219) scale(0.125 -0.125)">
      <use xlink:href="#DejaVuSans-6e"/>
     </g>
    </g>
   </g>
  </g>
 </g>
 <defs>
  <clipPath id="p86afcc7be6">
   <rect x="7.2" y="7.2" width="667.845" height="346.885"/>
  </clipPath>
 </defs>
</svg>