<?xml version="1.0" encoding="utf-8" standalone="no"?>
<!DOCTYPE svg PUBLIC "-//W3C//DTD SVG 1.1//EN"
  "http://www.w3.org/Graphics/SVG/1.1/DTD/svg11.dtd">
<svg xmlns:xlink="http://www.w3.org/1999/xlink" width="865.569375pt" height="76.5pt" viewBox="0 0 865.569375 76.5" xmlns="http://www.w3.org/2000/svg" version="1.1">
 <metadata>
  <rdf:RDF xmlns:dc="http://purl.org/dc/elements/1.1/" xmlns:cc="http://creativecommons.org/ns#" xmlns:rdf="http://www.w3.org/1999/02/22-rdf-syntax-ns#">
   <cc:Work>
    <dc:type rdf:resource="http://purl.org/dc/dcmitype/StillImage"/>
    <dc:date>2023-06-04T22:58:23.399411</dc:date>
    <dc:format>image/svg+xml</dc:format>
    <dc:creator>
     <cc:Agent>
      <dc:title>Matplotlib v3.7.1, https://matplotlib.org/</dc:title>
     </cc:Agent>
    </dc:creator>
   </cc:Work>
  </rdf:RDF>
 </metadata>
 <defs>
  <style type="text/css">*{stroke-linejoin: round; stroke-linecap: butt}</style>
 </defs>
 <g id="figure_1">
  <g id="patch_1">
   <path d="M 0 76.5 
L 865.569375 76.5 
L 865.569375 0 
L 0 0 
z
" style="fill: #ffffff"/>
  </g>
  <g id="axes_1">
   <g id="line2d_1">
    <path d="M 68.169375 6.75 
L 68.169375 69.75 
" clip-path="url(#p0fe23a994c)" style="fill: none; stroke-dasharray: 1,1.65; stroke-dashoffset: 0; stroke: #dddddd"/>
   </g>
   <g id="line2d_2">
    <path d="M 104.169375 6.75 
L 104.169375 69.75 
" clip-path="url(#p0fe23a994c)" style="fill: none; stroke-dasharray: 1,1.65; stroke-dashoffset: 0; stroke: #dddddd"/>
   </g>
   <g id="line2d_3">
    <path d="M 140.169375 6.75 
L 140.169375 69.75 
" clip-path="url(#p0fe23a994c)" style="fill: none; stroke-dasharray: 1,1.65; stroke-dashoffset: 0; stroke: #dddddd"/>
   </g>
   <g id="line2d_4">
    <path d="M 176.169375 6.75 
L 176.169375 69.75 
" clip-path="url(#p0fe23a994c)" style="fill: none; stroke-dasharray: 1,1.65; stroke-dashoffset: 0; stroke: #dddddd"/>
   </g>
   <g id="line2d_5">
    <path d="M 212.169375 6.75 
L 212.169375 69.75 
" clip-path="url(#p0fe23a994c)" style="fill: none; stroke-dasharray: 1,1.65; stroke-dashoffset: 0; stroke: #dddddd"/>
   </g>
   <g id="line2d_6">
    <path d="M 248.169375 6.75 
L 248.169375 69.75 
" clip-path="url(#p0fe23a994c)" style="fill: none; stroke-dasharray: 1,1.65; stroke-dashoffset: 0; stroke: #dddddd"/>
   </g>
   <g id="line2d_7">
    <path d="M 284.169375 6.75 
L 284.169375 69.75 
" clip-path="url(#p0fe23a994c)" style="fill: none; stroke-dasharray: 1,1.65; stroke-dashoffset: 0; stroke: #dddddd"/>
   </g>
   <g id="line2d_8">
    <path d="M 320.169375 6.75 
L 320.169375 69.75 
" clip-path="url(#p0fe23a994c)" style="fill: none; stroke-dasharray: 1,1.65; stroke-dashoffset: 0; stroke: #dddddd"/>
   </g>
   <g id="line2d_9">
    <path d="M 356.169375 6.75 
L 356.169375 69.75 
" clip-path="url(#p0fe23a994c)" style="fill: none; stroke-dasharray: 1,1.65; stroke-dashoffset: 0; stroke: #dddddd"/>
   </g>
   <g id="line2d_10">
    <path d="M 392.169375 6.75 
L 392.169375 69.75 
" clip-path="url(#p0fe23a994c)" style="fill: none; stroke-dasharray: 1,1.65; stroke-dashoffset: 0; stroke: #dddddd"/>
   </g>
   <g id="line2d_11">
    <path d="M 428.169375 6.75 
L 428.169375 69.75 
" clip-path="url(#p0fe23a994c)" style="fill: none; stroke-dasharray: 1,1.65; stroke-dashoffset: 0; stroke: #dddddd"/>
   </g>
   <g id="line2d_12">
    <path d="M 464.169375 6.75 
L 464.169375 69.75 
" clip-path="url(#p0fe23a994c)" style="fill: none; stroke-dasharray: 1,1.65; stroke-dashoffset: 0; stroke: #dddddd"/>
   </g>
   <g id="line2d_13">
    <path d="M 500.169375 6.75 
L 500.169375 69.75 
" clip-path="url(#p0fe23a994c)" style="fill: none; stroke-dasharray: 1,1.65; stroke-dashoffset: 0; stroke: #dddddd"/>
   </g>
   <g id="line2d_14">
    <path d="M 536.169375 6.75 
L 536.169375 69.75 
" clip-path="url(#p0fe23a994c)" style="fill: none; stroke-dasharray: 1,1.65; stroke-dashoffset: 0; stroke: #dddddd"/>
   </g>
   <g id="line2d_15">
    <path d="M 572.169375 6.75 
L 572.169375 69.75 
" clip-path="url(#p0fe23a994c)" style="fill: none; stroke-dasharray: 1,1.65; stroke-dashoffset: 0; stroke: #dddddd"/>
   </g>
   <g id="line2d_16">
    <path d="M 608.169375 6.75 
L 608.169375 69.75 
" clip-path="url(#p0fe23a994c)" style="fill: none; stroke-dasharray: 1,1.65; stroke-dashoffset: 0; stroke: #dddddd"/>
   </g>
   <g id="line2d_17">
    <path d="M 644.169375 6.75 
L 644.169375 69.75 
" clip-path="url(#p0fe23a994c)" style="fill: none; stroke-dasharray: 1,1.65; stroke-dashoffset: 0; stroke: #dddddd"/>
   </g>
   <g id="line2d_18">
    <path d="M 680.169375 6.75 
L 680.169375 69.75 
" clip-path="url(#p0fe23a994c)" style="fill: none; stroke-dasharray: 1,1.65; stroke-dashoffset: 0; stroke: #dddddd"/>
   </g>
   <g id="line2d_19">
    <path d="M 716.169375 6.75 
L 716.169375 69.75 
" clip-path="url(#p0fe23a994c)" style="fill: none; stroke-dasharray: 1,1.65; stroke-dashoffset: 0; stroke: #dddddd"/>
   </g>
   <g id="line2d_20">
    <path d="M 752.169375 6.75 
L 752.169375 69.75 
" clip-path="url(#p0fe23a994c)" style="fill: none; stroke-dasharray: 1,1.65; stroke-dashoffset: 0; stroke: #dddddd"/>
   </g>
   <g id="line2d_21">
    <path d="M 788.169375 6.75 
L 788.169375 69.75 
" clip-path="url(#p0fe23a994c)" style="fill: none; stroke-dasharray: 1,1.65; stroke-dashoffset: 0; stroke: #dddddd"/>
   </g>
   <g id="line2d_22">
    <path d="M 824.169375 6.75 
L 824.169375 69.75 
" clip-path="url(#p0fe23a994c)" style="fill: none; stroke-dasharray: 1,1.65; stroke-dashoffset: 0; stroke: #dddddd"/>
   </g>
   <g id="patch_2">
    <path d="M 68.169375 30.15 
L 104.169375 30.15 
L 106.869375 21.15 
L 104.169375 12.15 
L 68.169375 12.15 
" clip-path="url(#p0db1af0dfc)" style="fill: #abd9ff; stroke: #000000; stroke-linecap: round"/>
   </g>
   <g id="patch_3">
    <path d="M 109.569375 12.15 
L 106.869375 21.15 
L 109.569375 30.15 
L 356.169375 30.15 
L 358.869375 21.15 
L 356.169375 12.15 
z
" clip-path="url(#p0db1af0dfc)" style="fill: #feffc2; stroke: #000000; stroke-linecap: round"/>
   </g>
   <g id="patch_4">
    <path d="M 361.569375 12.15 
L 358.869375 21.15 
L 361.569375 30.15 
L 392.169375 30.15 
L 394.869375 21.15 
L 392.169375 12.15 
z
" clip-path="url(#p0db1af0dfc)" style="fill: #ffe2ba; stroke: #000000; stroke-linecap: round"/>
   </g>
   <g id="patch_5">
    <path d="M 397.569375 12.15 
L 394.869375 21.15 
L 397.569375 30.15 
L 428.169375 30.15 
L 430.869375 21.15 
L 428.169375 12.15 
z
" clip-path="url(#p0db1af0dfc)" style="fill: #bdfbff; stroke: #000000; stroke-linecap: round"/>
   </g>
   <g id="patch_6">
    <path d="M 433.569375 12.15 
L 430.869375 21.15 
L 433.569375 30.15 
L 572.169375 30.15 
L 574.869375 21.15 
L 572.169375 12.15 
z
" clip-path="url(#p0db1af0dfc)" style="fill: #bdffcb; stroke: #000000; stroke-linecap: round"/>
   </g>
   <g id="patch_7">
    <path d="M 577.569375 12.15 
L 574.869375 21.15 
L 577.569375 30.15 
L 608.169375 30.15 
L 610.869375 21.15 
L 608.169375 12.15 
z
" clip-path="url(#p0db1af0dfc)" style="fill: #bdfbff; stroke: #000000; stroke-linecap: round"/>
   </g>
   <g id="patch_8">
    <path d="M 613.569375 12.15 
L 610.869375 21.15 
L 613.569375 30.15 
L 752.169375 30.15 
L 754.869375 21.15 
L 752.169375 12.15 
z
" clip-path="url(#p0db1af0dfc)" style="fill: #bdffcb; stroke: #000000; stroke-linecap: round"/>
   </g>
   <g id="patch_9">
    <path d="M 757.569375 12.15 
L 754.869375 21.15 
L 757.569375 30.15 
L 788.169375 30.15 
L 790.869375 21.15 
L 788.169375 12.15 
z
" clip-path="url(#p0db1af0dfc)" style="fill: #bdfbff; stroke: #000000; stroke-linecap: round"/>
   </g>
   <g id="patch_10">
    <path d="M 824.169375 12.15 
L 793.569375 12.15 
L 790.869375 21.15 
L 793.569375 30.15 
L 824.169375 30.15 
" clip-path="url(#p0db1af0dfc)" style="fill: #e3a5fa; stroke: #000000; stroke-linecap: round"/>
   </g>
   <g id="patch_11">
    <path d="M 68.169375 58.95 
L 104.169375 58.95 
L 106.869375 49.95 
L 104.169375 40.95 
L 68.169375 40.95 
" clip-path="url(#p0db1af0dfc)" style="fill: #abd9ff; stroke: #000000; stroke-linecap: round"/>
   </g>
   <g id="patch_12">
    <path d="M 109.569375 40.95 
L 106.869375 49.95 
L 109.569375 58.95 
L 356.169375 58.95 
L 358.869375 49.95 
L 356.169375 40.95 
z
" clip-path="url(#p0db1af0dfc)" style="fill: #feffc2; stroke: #000000; stroke-linecap: round"/>
   </g>
   <g id="patch_13">
    <path d="M 361.569375 40.95 
L 358.869375 49.95 
L 361.569375 58.95 
L 392.169375 58.95 
L 394.869375 49.95 
L 392.169375 40.95 
z
" clip-path="url(#p0db1af0dfc)" style="fill: #ffe2ba; stroke: #000000; stroke-linecap: round"/>
   </g>
   <g id="patch_14">
    <path d="M 397.569375 40.95 
L 394.869375 49.95 
L 397.569375 58.95 
L 428.169375 58.95 
L 430.869375 49.95 
L 428.169375 40.95 
z
" clip-path="url(#p0db1af0dfc)" style="fill: #bdfbff; stroke: #000000; stroke-linecap: round"/>
   </g>
   <g id="patch_15">
    <path d="M 433.569375 40.95 
L 430.869375 49.95 
L 433.569375 58.95 
L 572.169375 58.95 
L 574.869375 49.95 
L 572.169375 40.95 
z
" clip-path="url(#p0db1af0dfc)" style="fill: #bdffcb; stroke: #000000; stroke-linecap: round"/>
   </g>
   <g id="patch_16">
    <path d="M 577.569375 40.95 
L 574.869375 49.95 
L 577.569375 58.95 
L 608.169375 58.95 
L 610.869375 49.95 
L 608.169375 40.95 
z
" clip-path="url(#p0db1af0dfc)" style="fill: #bdfbff; stroke: #000000; stroke-linecap: round"/>
   </g>
   <g id="patch_17">
    <path d="M 613.569375 40.95 
L 610.869375 49.95 
L 613.569375 58.95 
L 752.169375 58.95 
L 754.869375 49.95 
L 752.169375 40.95 
z
" clip-path="url(#p0db1af0dfc)" style="fill: #bdffcb; stroke: #000000; stroke-linecap: round"/>
   </g>
   <g id="patch_18">
    <path d="M 757.569375 40.95 
L 754.869375 49.95 
L 757.569375 58.95 
L 788.169375 58.95 
L 790.869375 49.95 
L 788.169375 40.95 
z
" clip-path="url(#p0db1af0dfc)" style="fill: #bdfbff; stroke: #000000; stroke-linecap: round"/>
   </g>
   <g id="patch_19">
    <path d="M 824.169375 40.95 
L 793.569375 40.95 
L 790.869375 49.95 
L 793.569375 58.95 
L 824.169375 58.95 
" clip-path="url(#p0db1af0dfc)" style="fill: #e3a5fa; stroke: #000000; stroke-linecap: round"/>
   </g>
   <g id="text_1">
    <!-- Write: R=0 -->
    <g style="fill: #0000ff" transform="translate(3.6 27.966328) scale(0.105 -0.105)">
     <defs>
      <path id="DejaVuSans-57" d="M 213 4666 
L 850 4666 
L 1831 722 
L 2809 4666 
L 3519 4666 
L 4500 722 
L 5478 4666 
L 6119 4666 
L 4947 0 
L 4153 0 
L 3169 4050 
L 2175 0 
L 1381 0 
L 213 4666 
z
" transform="scale(0.015625)"/>
      <path id="DejaVuSans-72" d="M 2631 2963 
Q 2534 3019 2420 3045 
Q 2306 3072 2169 3072 
Q 1681 3072 1420 2755 
Q 1159 2438 1159 1844 
L 1159 0 
L 581 0 
L 581 3500 
L 1159 3500 
L 1159 2956 
Q 1341 3275 1631 3429 
Q 1922 3584 2338 3584 
Q 2397 3584 2469 3576 
Q 2541 3569 2628 3553 
L 2631 2963 
z
" transform="scale(0.015625)"/>
      <path id="DejaVuSans-69" d="M 603 3500 
L 1178 3500 
L 1178 0 
L 603 0 
L 603 3500 
z
M 603 4863 
L 1178 4863 
L 1178 4134 
L 603 4134 
L 603 4863 
z
" transform="scale(0.015625)"/>
      <path id="DejaVuSans-74" d="M 1172 4494 
L 1172 3500 
L 2356 3500 
L 2356 3053 
L 1172 3053 
L 1172 1153 
Q 1172 725 1289 603 
Q 1406 481 1766 481 
L 2356 481 
L 2356 0 
L 1766 0 
Q 1100 0 847 248 
Q 594 497 594 1153 
L 594 3053 
L 172 3053 
L 172 3500 
L 594 3500 
L 594 4494 
L 1172 4494 
z
" transform="scale(0.015625)"/>
      <path id="DejaVuSans-65" d="M 3597 1894 
L 3597 1613 
L 953 1613 
Q 991 1019 1311 708 
Q 1631 397 2203 397 
Q 2534 397 2845 478 
Q 3156 559 3463 722 
L 3463 178 
Q 3153 47 2828 -22 
Q 2503 -91 2169 -91 
Q 1331 -91 842 396 
Q 353 884 353 1716 
Q 353 2575 817 3079 
Q 1281 3584 2069 3584 
Q 2775 3584 3186 3129 
Q 3597 2675 3597 1894 
z
M 3022 2063 
Q 3016 2534 2758 2815 
Q 2500 3097 2075 3097 
Q 1594 3097 1305 2825 
Q 1016 2553 972 2059 
L 3022 2063 
z
" transform="scale(0.015625)"/>
      <path id="DejaVuSans-3a" d="M 750 794 
L 1409 794 
L 1409 0 
L 750 0 
L 750 794 
z
M 750 3309 
L 1409 3309 
L 1409 2516 
L 750 2516 
L 750 3309 
z
" transform="scale(0.015625)"/>
      <path id="DejaVuSans-20" transform="scale(0.015625)"/>
      <path id="DejaVuSans-52" d="M 2841 2188 
Q 3044 2119 3236 1894 
Q 3428 1669 3622 1275 
L 4263 0 
L 3584 0 
L 2988 1197 
Q 2756 1666 2539 1819 
Q 2322 1972 1947 1972 
L 1259 1972 
L 1259 0 
L 628 0 
L 628 4666 
L 2053 4666 
Q 2853 4666 3247 4331 
Q 3641 3997 3641 3322 
Q 3641 2881 3436 2590 
Q 3231 2300 2841 2188 
z
M 1259 4147 
L 1259 2491 
L 2053 2491 
Q 2509 2491 2742 2702 
Q 2975 2913 2975 3322 
Q 2975 3731 2742 3939 
Q 2509 4147 2053 4147 
L 1259 4147 
z
" transform="scale(0.015625)"/>
      <path id="DejaVuSans-3d" d="M 678 2906 
L 4684 2906 
L 4684 2381 
L 678 2381 
L 678 2906 
z
M 678 1631 
L 4684 1631 
L 4684 1100 
L 678 1100 
L 678 1631 
z
" transform="scale(0.015625)"/>
      <path id="DejaVuSans-30" d="M 2034 4250 
Q 1547 4250 1301 3770 
Q 1056 3291 1056 2328 
Q 1056 1369 1301 889 
Q 1547 409 2034 409 
Q 2525 409 2770 889 
Q 3016 1369 3016 2328 
Q 3016 3291 2770 3770 
Q 2525 4250 2034 4250 
z
M 2034 4750 
Q 2819 4750 3233 4129 
Q 3647 3509 3647 2328 
Q 3647 1150 3233 529 
Q 2819 -91 2034 -91 
Q 1250 -91 836 529 
Q 422 1150 422 2328 
Q 422 3509 836 4129 
Q 1250 4750 2034 4750 
z
" transform="scale(0.015625)"/>
     </defs>
     <use xlink:href="#DejaVuSans-57"/>
     <use xlink:href="#DejaVuSans-72" x="94.376953"/>
     <use xlink:href="#DejaVuSans-69" x="135.490234"/>
     <use xlink:href="#DejaVuSans-74" x="163.273438"/>
     <use xlink:href="#DejaVuSans-65" x="202.482422"/>
     <use xlink:href="#DejaVuSans-3a" x="264.005859"/>
     <use xlink:href="#DejaVuSans-20" x="297.697266"/>
     <use xlink:href="#DejaVuSans-52" x="329.484375"/>
     <use xlink:href="#DejaVuSans-3d" x="398.966797"/>
     <use xlink:href="#DejaVuSans-30" x="482.755859"/>
    </g>
   </g>
   <g id="text_2">
    <!-- S -->
    <g transform="translate(85.853867 23.771406) scale(0.095 -0.095)">
     <defs>
      <path id="DejaVuSans-53" d="M 3425 4513 
L 3425 3897 
Q 3066 4069 2747 4153 
Q 2428 4238 2131 4238 
Q 1616 4238 1336 4038 
Q 1056 3838 1056 3469 
Q 1056 3159 1242 3001 
Q 1428 2844 1947 2747 
L 2328 2669 
Q 3034 2534 3370 2195 
Q 3706 1856 3706 1288 
Q 3706 609 3251 259 
Q 2797 -91 1919 -91 
Q 1588 -91 1214 -16 
Q 841 59 441 206 
L 441 856 
Q 825 641 1194 531 
Q 1563 422 1919 422 
Q 2459 422 2753 634 
Q 3047 847 3047 1241 
Q 3047 1584 2836 1778 
Q 2625 1972 2144 2069 
L 1759 2144 
Q 1053 2284 737 2584 
Q 422 2884 422 3419 
Q 422 4038 858 4394 
Q 1294 4750 2059 4750 
Q 2388 4750 2728 4690 
Q 3069 4631 3425 4513 
z
" transform="scale(0.015625)"/>
     </defs>
     <use xlink:href="#DejaVuSans-53"/>
    </g>
   </g>
   <g id="text_3">
    <!-- Slave Adresse -->
    <g transform="translate(199.557773 23.771406) scale(0.095 -0.095)">
     <defs>
      <path id="DejaVuSans-6c" d="M 603 4863 
L 1178 4863 
L 1178 0 
L 603 0 
L 603 4863 
z
" transform="scale(0.015625)"/>
      <path id="DejaVuSans-61" d="M 2194 1759 
Q 1497 1759 1228 1600 
Q 959 1441 959 1056 
Q 959 750 1161 570 
Q 1363 391 1709 391 
Q 2188 391 2477 730 
Q 2766 1069 2766 1631 
L 2766 1759 
L 2194 1759 
z
M 3341 1997 
L 3341 0 
L 2766 0 
L 2766 531 
Q 2569 213 2275 61 
Q 1981 -91 1556 -91 
Q 1019 -91 701 211 
Q 384 513 384 1019 
Q 384 1609 779 1909 
Q 1175 2209 1959 2209 
L 2766 2209 
L 2766 2266 
Q 2766 2663 2505 2880 
Q 2244 3097 1772 3097 
Q 1472 3097 1187 3025 
Q 903 2953 641 2809 
L 641 3341 
Q 956 3463 1253 3523 
Q 1550 3584 1831 3584 
Q 2591 3584 2966 3190 
Q 3341 2797 3341 1997 
z
" transform="scale(0.015625)"/>
      <path id="DejaVuSans-76" d="M 191 3500 
L 800 3500 
L 1894 563 
L 2988 3500 
L 3597 3500 
L 2284 0 
L 1503 0 
L 191 3500 
z
" transform="scale(0.015625)"/>
      <path id="DejaVuSans-41" d="M 2188 4044 
L 1331 1722 
L 3047 1722 
L 2188 4044 
z
M 1831 4666 
L 2547 4666 
L 4325 0 
L 3669 0 
L 3244 1197 
L 1141 1197 
L 716 0 
L 50 0 
L 1831 4666 
z
" transform="scale(0.015625)"/>
      <path id="DejaVuSans-64" d="M 2906 2969 
L 2906 4863 
L 3481 4863 
L 3481 0 
L 2906 0 
L 2906 525 
Q 2725 213 2448 61 
Q 2172 -91 1784 -91 
Q 1150 -91 751 415 
Q 353 922 353 1747 
Q 353 2572 751 3078 
Q 1150 3584 1784 3584 
Q 2172 3584 2448 3432 
Q 2725 3281 2906 2969 
z
M 947 1747 
Q 947 1113 1208 752 
Q 1469 391 1925 391 
Q 2381 391 2643 752 
Q 2906 1113 2906 1747 
Q 2906 2381 2643 2742 
Q 2381 3103 1925 3103 
Q 1469 3103 1208 2742 
Q 947 2381 947 1747 
z
" transform="scale(0.015625)"/>
      <path id="DejaVuSans-73" d="M 2834 3397 
L 2834 2853 
Q 2591 2978 2328 3040 
Q 2066 3103 1784 3103 
Q 1356 3103 1142 2972 
Q 928 2841 928 2578 
Q 928 2378 1081 2264 
Q 1234 2150 1697 2047 
L 1894 2003 
Q 2506 1872 2764 1633 
Q 3022 1394 3022 966 
Q 3022 478 2636 193 
Q 2250 -91 1575 -91 
Q 1294 -91 989 -36 
Q 684 19 347 128 
L 347 722 
Q 666 556 975 473 
Q 1284 391 1588 391 
Q 1994 391 2212 530 
Q 2431 669 2431 922 
Q 2431 1156 2273 1281 
Q 2116 1406 1581 1522 
L 1381 1569 
Q 847 1681 609 1914 
Q 372 2147 372 2553 
Q 372 3047 722 3315 
Q 1072 3584 1716 3584 
Q 2034 3584 2315 3537 
Q 2597 3491 2834 3397 
z
" transform="scale(0.015625)"/>
     </defs>
     <use xlink:href="#DejaVuSans-53"/>
     <use xlink:href="#DejaVuSans-6c" x="63.476562"/>
     <use xlink:href="#DejaVuSans-61" x="91.259766"/>
     <use xlink:href="#DejaVuSans-76" x="152.539062"/>
     <use xlink:href="#DejaVuSans-65" x="211.71875"/>
     <use xlink:href="#DejaVuSans-20" x="273.242188"/>
     <use xlink:href="#DejaVuSans-41" x="305.029297"/>
     <use xlink:href="#DejaVuSans-64" x="371.6875"/>
     <use xlink:href="#DejaVuSans-72" x="435.164062"/>
     <use xlink:href="#DejaVuSans-65" x="474.027344"/>
     <use xlink:href="#DejaVuSans-73" x="535.550781"/>
     <use xlink:href="#DejaVuSans-73" x="587.650391"/>
     <use xlink:href="#DejaVuSans-65" x="639.75"/>
    </g>
   </g>
   <g id="text_4">
    <!-- $R/\overline{W}$ -->
    <g transform="translate(367.226875 24.304297) scale(0.095 -0.095)">
     <defs>
      <path id="DejaVuSans-Oblique-52" d="M 1613 4147 
L 1294 2491 
L 2106 2491 
Q 2584 2491 2879 2755 
Q 3175 3019 3175 3444 
Q 3175 3784 2976 3965 
Q 2778 4147 2406 4147 
L 1613 4147 
z
M 2772 2241 
Q 2972 2194 3105 2009 
Q 3238 1825 3413 1275 
L 3809 0 
L 3144 0 
L 2778 1197 
Q 2638 1659 2453 1815 
Q 2269 1972 1888 1972 
L 1191 1972 
L 806 0 
L 172 0 
L 1081 4666 
L 2503 4666 
Q 3150 4666 3495 4373 
Q 3841 4081 3841 3531 
Q 3841 3044 3547 2687 
Q 3253 2331 2772 2241 
z
" transform="scale(0.015625)"/>
      <path id="DejaVuSans-2f" d="M 1625 4666 
L 2156 4666 
L 531 -594 
L 0 -594 
L 1625 4666 
z
" transform="scale(0.015625)"/>
      <path id="DejaVuSans-Oblique-57" d="M 616 4666 
L 1228 4666 
L 1453 697 
L 3213 4666 
L 3916 4666 
L 4147 697 
L 5888 4666 
L 6528 4666 
L 4453 0 
L 3659 0 
L 3444 3891 
L 1697 0 
L 903 0 
L 616 4666 
z
" transform="scale(0.015625)"/>
     </defs>
     <use xlink:href="#DejaVuSans-Oblique-52" transform="translate(0 0.34375)"/>
     <use xlink:href="#DejaVuSans-2f" transform="translate(69.482422 0.34375)"/>
     <use xlink:href="#DejaVuSans-Oblique-57" transform="translate(103.173828 0.84375)"/>
     <path d="M 103.173828 85.5 
L 103.173828 91.75 
L 202.050781 91.75 
L 202.050781 85.5 
L 103.173828 85.5 
z
"/>
    </g>
   </g>
   <g id="text_5">
    <!-- A -->
    <g transform="translate(409.620078 23.771406) scale(0.095 -0.095)">
     <use xlink:href="#DejaVuSans-41"/>
    </g>
   </g>
   <g id="text_6">
    <!-- Daten -->
    <g transform="translate(488.50582 23.771406) scale(0.095 -0.095)">
     <defs>
      <path id="DejaVuSans-44" d="M 1259 4147 
L 1259 519 
L 2022 519 
Q 2988 519 3436 956 
Q 3884 1394 3884 2338 
Q 3884 3275 3436 3711 
Q 2988 4147 2022 4147 
L 1259 4147 
z
M 628 4666 
L 1925 4666 
Q 3281 4666 3915 4102 
Q 4550 3538 4550 2338 
Q 4550 1131 3912 565 
Q 3275 0 1925 0 
L 628 0 
L 628 4666 
z
" transform="scale(0.015625)"/>
      <path id="DejaVuSans-6e" d="M 3513 2113 
L 3513 0 
L 2938 0 
L 2938 2094 
Q 2938 2591 2744 2837 
Q 2550 3084 2163 3084 
Q 1697 3084 1428 2787 
Q 1159 2491 1159 1978 
L 1159 0 
L 581 0 
L 581 3500 
L 1159 3500 
L 1159 2956 
Q 1366 3272 1645 3428 
Q 1925 3584 2291 3584 
Q 2894 3584 3203 3211 
Q 3513 2838 3513 2113 
z
" transform="scale(0.015625)"/>
     </defs>
     <use xlink:href="#DejaVuSans-44"/>
     <use xlink:href="#DejaVuSans-61" x="77.001953"/>
     <use xlink:href="#DejaVuSans-74" x="138.28125"/>
     <use xlink:href="#DejaVuSans-65" x="177.490234"/>
     <use xlink:href="#DejaVuSans-6e" x="239.013672"/>
    </g>
   </g>
   <g id="text_7">
    <!-- A -->
    <g transform="translate(589.620078 23.771406) scale(0.095 -0.095)">
     <use xlink:href="#DejaVuSans-41"/>
    </g>
   </g>
   <g id="text_8">
    <!--  Daten -->
    <g transform="translate(666.996211 23.771406) scale(0.095 -0.095)">
     <use xlink:href="#DejaVuSans-20"/>
     <use xlink:href="#DejaVuSans-44" x="31.787109"/>
     <use xlink:href="#DejaVuSans-61" x="108.789062"/>
     <use xlink:href="#DejaVuSans-74" x="170.068359"/>
     <use xlink:href="#DejaVuSans-65" x="209.277344"/>
     <use xlink:href="#DejaVuSans-6e" x="270.800781"/>
    </g>
   </g>
   <g id="text_9">
    <!-- $A/\overline{A}$ -->
    <g transform="translate(764.746875 24.304297) scale(0.095 -0.095)">
     <defs>
      <path id="DejaVuSans-Oblique-41" d="M 2356 4666 
L 3072 4666 
L 3938 0 
L 3278 0 
L 3084 1197 
L 984 1197 
L 325 0 
L -341 0 
L 2356 4666 
z
M 2584 4044 
L 1275 1722 
L 2988 1722 
L 2584 4044 
z
" transform="scale(0.015625)"/>
     </defs>
     <use xlink:href="#DejaVuSans-Oblique-41" transform="translate(0 0.34375)"/>
     <use xlink:href="#DejaVuSans-2f" transform="translate(68.408203 0.34375)"/>
     <use xlink:href="#DejaVuSans-Oblique-41" transform="translate(102.099609 0.84375)"/>
     <path d="M 102.099609 85.5 
L 102.099609 91.75 
L 170.507812 91.75 
L 170.507812 85.5 
L 102.099609 85.5 
z
"/>
    </g>
   </g>
   <g id="text_10">
    <!-- P -->
    <g transform="translate(806.005273 23.771406) scale(0.095 -0.095)">
     <defs>
      <path id="DejaVuSans-50" d="M 1259 4147 
L 1259 2394 
L 2053 2394 
Q 2494 2394 2734 2622 
Q 2975 2850 2975 3272 
Q 2975 3691 2734 3919 
Q 2494 4147 2053 4147 
L 1259 4147 
z
M 628 4666 
L 2053 4666 
Q 2838 4666 3239 4311 
Q 3641 3956 3641 3272 
Q 3641 2581 3239 2228 
Q 2838 1875 2053 1875 
L 1259 1875 
L 1259 0 
L 628 0 
L 628 4666 
z
" transform="scale(0.015625)"/>
     </defs>
     <use xlink:href="#DejaVuSans-50"/>
    </g>
   </g>
   <g id="text_11">
    <!-- Read: R=1 -->
    <g style="fill: #0000ff" transform="translate(4.935469 56.766328) scale(0.105 -0.105)">
     <defs>
      <path id="DejaVuSans-31" d="M 794 531 
L 1825 531 
L 1825 4091 
L 703 3866 
L 703 4441 
L 1819 4666 
L 2450 4666 
L 2450 531 
L 3481 531 
L 3481 0 
L 794 0 
L 794 531 
z
" transform="scale(0.015625)"/>
     </defs>
     <use xlink:href="#DejaVuSans-52"/>
     <use xlink:href="#DejaVuSans-65" x="64.982422"/>
     <use xlink:href="#DejaVuSans-61" x="126.505859"/>
     <use xlink:href="#DejaVuSans-64" x="187.785156"/>
     <use xlink:href="#DejaVuSans-3a" x="251.261719"/>
     <use xlink:href="#DejaVuSans-20" x="284.953125"/>
     <use xlink:href="#DejaVuSans-52" x="316.740234"/>
     <use xlink:href="#DejaVuSans-3d" x="386.222656"/>
     <use xlink:href="#DejaVuSans-31" x="470.011719"/>
    </g>
   </g>
   <g id="text_12">
    <!-- S -->
    <g transform="translate(85.853867 52.571406) scale(0.095 -0.095)">
     <use xlink:href="#DejaVuSans-53"/>
    </g>
   </g>
   <g id="text_13">
    <!-- Slave Adresse -->
    <g transform="translate(199.557773 52.571406) scale(0.095 -0.095)">
     <use xlink:href="#DejaVuSans-53"/>
     <use xlink:href="#DejaVuSans-6c" x="63.476562"/>
     <use xlink:href="#DejaVuSans-61" x="91.259766"/>
     <use xlink:href="#DejaVuSans-76" x="152.539062"/>
     <use xlink:href="#DejaVuSans-65" x="211.71875"/>
     <use xlink:href="#DejaVuSans-20" x="273.242188"/>
     <use xlink:href="#DejaVuSans-41" x="305.029297"/>
     <use xlink:href="#DejaVuSans-64" x="371.6875"/>
     <use xlink:href="#DejaVuSans-72" x="435.164062"/>
     <use xlink:href="#DejaVuSans-65" x="474.027344"/>
     <use xlink:href="#DejaVuSans-73" x="535.550781"/>
     <use xlink:href="#DejaVuSans-73" x="587.650391"/>
     <use xlink:href="#DejaVuSans-65" x="639.75"/>
    </g>
   </g>
   <g id="text_14">
    <!-- $R/\overline{W}$ -->
    <g transform="translate(367.226875 53.104297) scale(0.095 -0.095)">
     <use xlink:href="#DejaVuSans-Oblique-52" transform="translate(0 0.34375)"/>
     <use xlink:href="#DejaVuSans-2f" transform="translate(69.482422 0.34375)"/>
     <use xlink:href="#DejaVuSans-Oblique-57" transform="translate(103.173828 0.84375)"/>
     <path d="M 103.173828 85.5 
L 103.173828 91.75 
L 202.050781 91.75 
L 202.050781 85.5 
L 103.173828 85.5 
z
"/>
    </g>
   </g>
   <g id="text_15">
    <!-- A -->
    <g transform="translate(409.620078 52.571406) scale(0.095 -0.095)">
     <use xlink:href="#DejaVuSans-41"/>
    </g>
   </g>
   <g id="text_16">
    <!-- Daten -->
    <g transform="translate(488.50582 52.571406) scale(0.095 -0.095)">
     <use xlink:href="#DejaVuSans-44"/>
     <use xlink:href="#DejaVuSans-61" x="77.001953"/>
     <use xlink:href="#DejaVuSans-74" x="138.28125"/>
     <use xlink:href="#DejaVuSans-65" x="177.490234"/>
     <use xlink:href="#DejaVuSans-6e" x="239.013672"/>
    </g>
   </g>
   <g id="text_17">
    <!-- A -->
    <g transform="translate(589.620078 52.571406) scale(0.095 -0.095)">
     <use xlink:href="#DejaVuSans-41"/>
    </g>
   </g>
   <g id="text_18">
    <!--  Daten -->
    <g transform="translate(666.996211 52.571406) scale(0.095 -0.095)">
     <use xlink:href="#DejaVuSans-20"/>
     <use xlink:href="#DejaVuSans-44" x="31.787109"/>
     <use xlink:href="#DejaVuSans-61" x="108.789062"/>
     <use xlink:href="#DejaVuSans-74" x="170.068359"/>
     <use xlink:href="#DejaVuSans-65" x="209.277344"/>
     <use xlink:href="#DejaVuSans-6e" x="270.800781"/>
    </g>
   </g>
   <g id="text_19">
    <!-- $\overline{A}$ -->
    <g transform="translate(769.591875 52.629297) scale(0.095 -0.095)">
     <use xlink:href="#DejaVuSans-Oblique-41" transform="translate(0 0.84375)"/>
     <path d="M 0 85.5 
L 0 91.75 
L 68.408203 91.75 
L 68.408203 85.5 
L 0 85.5 
z
"/>
    </g>
   </g>
   <g id="text_20">
    <!-- P -->
    <g transform="translate(806.005273 52.571406) scale(0.095 -0.095)">
     <use xlink:href="#DejaVuSans-50"/>
    </g>
   </g>
  </g>
 </g>
 <defs>
  <clipPath id="p0fe23a994c">
   <rect x="30.369375" y="3.6" width="831.6" height="69.3"/>
  </clipPath>
  <clipPath id="p0db1af0dfc">
   <rect x="68.169375" y="10.35" width="756" height="77.4"/>
  </clipPath>
 </defs>
</svg>