<?xml version="1.0" encoding="utf-8" standalone="no"?>
<!DOCTYPE svg PUBLIC "-//W3C//DTD SVG 1.1//EN"
  "http://www.w3.org/Graphics/SVG/1.1/DTD/svg11.dtd">
<svg xmlns:xlink="http://www.w3.org/1999/xlink" width="296.876515pt" height="319.644pt" viewBox="0 0 296.876515 319.644" xmlns="http://www.w3.org/2000/svg" version="1.1">
 <metadata>
  <rdf:RDF xmlns:dc="http://purl.org/dc/elements/1.1/" xmlns:cc="http://creativecommons.org/ns#" xmlns:rdf="http://www.w3.org/1999/02/22-rdf-syntax-ns#">
   <cc:Work>
    <dc:type rdf:resource="http://purl.org/dc/dcmitype/StillImage"/>
    <dc:date>2023-06-04T22:58:24.242495</dc:date>
    <dc:format>image/svg+xml</dc:format>
    <dc:creator>
     <cc:Agent>
      <dc:title>Matplotlib v3.7.1, https://matplotlib.org/</dc:title>
     </cc:Agent>
    </dc:creator>
   </cc:Work>
  </rdf:RDF>
 </metadata>
 <defs>
  <style type="text/css">*{stroke-linejoin: round; stroke-linecap: butt}</style>
 </defs>
 <g id="figure_1">
  <g id="patch_1">
   <path d="M 0 319.644 
L 296.876515 319.644 
L 296.876515 0 
L 0 0 
z
" style="fill: #ffffff"/>
  </g>
  <g id="axes_1">
   <g id="line2d_1">
    <path d="M 19.467114 40.302 
L 73.467114 40.302 
L 127.467114 40.302 
" clip-path="url(#pe3fe87d2d9)" style="fill: none; stroke: #000000; stroke-width: 2; stroke-linecap: round"/>
   </g>
   <g id="line2d_2">
    <path d="M 127.467114 62.802 
L 127.467114 107.802 
L 205.409401 62.802 
L 127.467114 17.802 
L 127.467114 62.802 
M 205.409401 62.802 
" clip-path="url(#pe3fe87d2d9)" style="fill: none; stroke: #000000; stroke-width: 2; stroke-linecap: round"/>
   </g>
   <g id="line2d_3">
    <path d="M 133.6099 85.302 
L 140.8099 85.302 
" clip-path="url(#pe3fe87d2d9)" style="fill: none; stroke: #000000; stroke-width: 2; stroke-linecap: round"/>
   </g>
   <g id="line2d_4">
    <path d="M 133.6099 40.302 
L 140.8099 40.302 
" clip-path="url(#pe3fe87d2d9)" style="fill: none; stroke: #000000; stroke-width: 2; stroke-linecap: round"/>
   </g>
   <g id="line2d_5">
    <path d="M 137.2099 36.702 
L 137.2099 43.902 
" clip-path="url(#pe3fe87d2d9)" style="fill: none; stroke: #000000; stroke-width: 2; stroke-linecap: round"/>
   </g>
   <g id="line2d_6">
    <path d="M 205.409401 62.802 
L 223.409401 62.802 
L 241.409401 62.802 
" clip-path="url(#pe3fe87d2d9)" style="fill: none; stroke: #000000; stroke-width: 2; stroke-linecap: round"/>
   </g>
   <g id="line2d_7">
    <path d="M 241.409401 62.802 
L 259.409401 62.802 
L 277.409401 62.802 
" clip-path="url(#pe3fe87d2d9)" style="fill: none; stroke: #000000; stroke-width: 2; stroke-linecap: round"/>
   </g>
   <g id="line2d_8">
    <path d="M 241.409401 62.802 
L 241.409401 98.802 
L 250.409401 98.802 
L 250.409401 134.802 
L 232.409401 134.802 
L 232.409401 98.802 
L 241.409401 98.802 
M 241.409401 134.802 
L 241.409401 170.802 
" clip-path="url(#pe3fe87d2d9)" style="fill: none; stroke: #000000; stroke-width: 2; stroke-linecap: round"/>
   </g>
   <g id="line2d_9">
    <path d="M 241.409401 170.802 
L 151.409401 170.802 
L 61.409401 170.802 
" clip-path="url(#pe3fe87d2d9)" style="fill: none; stroke: #000000; stroke-width: 2; stroke-linecap: round"/>
   </g>
   <g id="line2d_10">
    <path d="M 61.409401 170.802 
L 61.409401 85.302 
L 127.467114 85.302 
" clip-path="url(#pe3fe87d2d9)" style="fill: none; stroke: #000000; stroke-width: 2; stroke-linecap: round"/>
   </g>
   <g id="line2d_11">
    <path d="M 241.409401 170.802 
L 241.409401 206.802 
L 250.409401 206.802 
L 250.409401 242.802 
L 232.409401 242.802 
L 232.409401 206.802 
L 241.409401 206.802 
M 241.409401 242.802 
L 241.409401 278.802 
" clip-path="url(#pe3fe87d2d9)" style="fill: none; stroke: #000000; stroke-width: 2; stroke-linecap: round"/>
   </g>
   <g id="line2d_12">
    <path d="M 241.409401 278.802 
L 241.409401 293.202 
L 232.409401 293.202 
L 250.409401 293.202 
M 235.109401 297.522 
L 247.709401 297.522 
M 239.609401 301.842 
L 243.209401 301.842 
" clip-path="url(#pe3fe87d2d9)" style="fill: none; stroke: #000000; stroke-width: 2; stroke-linecap: round"/>
   </g>
   <g id="patch_2">
    <path d="M 19.467114 43.002 
C 20.183163 43.002 20.86998 42.717511 21.376303 42.211188 
C 21.882625 41.704866 22.167114 41.018048 22.167114 40.302 
C 22.167114 39.585952 21.882625 38.899134 21.376303 38.392812 
C 20.86998 37.886489 20.183163 37.602 19.467114 37.602 
C 18.751066 37.602 18.064249 37.886489 17.557926 38.392812 
C 17.051603 38.899134 16.767114 39.585952 16.767114 40.302 
C 16.767114 41.018048 17.051603 41.704866 17.557926 42.211188 
C 18.064249 42.717511 18.751066 43.002 19.467114 43.002 
z
" clip-path="url(#pe3fe87d2d9)" style="fill: #ffffff; stroke: #000000; stroke-width: 2; stroke-linejoin: miter"/>
   </g>
   <g id="patch_3">
    <path d="M 241.409401 65.502 
C 242.125449 65.502 242.812266 65.217511 243.318589 64.711188 
C 243.824912 64.204866 244.109401 63.518048 244.109401 62.802 
C 244.109401 62.085952 243.824912 61.399134 243.318589 60.892812 
C 242.812266 60.386489 242.125449 60.102 241.409401 60.102 
C 240.693352 60.102 240.006535 60.386489 239.500212 60.892812 
C 238.99389 61.399134 238.709401 62.085952 238.709401 62.802 
C 238.709401 63.518048 238.99389 64.204866 239.500212 64.711188 
C 240.006535 65.217511 240.693352 65.502 241.409401 65.502 
z
" clip-path="url(#pe3fe87d2d9)" style="stroke: #000000; stroke-width: 2; stroke-linejoin: miter"/>
   </g>
   <g id="patch_4">
    <path d="M 277.409401 65.502 
C 278.125449 65.502 278.812266 65.217511 279.318589 64.711188 
C 279.824912 64.204866 280.109401 63.518048 280.109401 62.802 
C 280.109401 62.085952 279.824912 61.399134 279.318589 60.892812 
C 278.812266 60.386489 278.125449 60.102 277.409401 60.102 
C 276.693352 60.102 276.006535 60.386489 275.500212 60.892812 
C 274.99389 61.399134 274.709401 62.085952 274.709401 62.802 
C 274.709401 63.518048 274.99389 64.204866 275.500212 64.711188 
C 276.006535 65.217511 276.693352 65.502 277.409401 65.502 
z
" clip-path="url(#pe3fe87d2d9)" style="fill: #ffffff; stroke: #000000; stroke-width: 2; stroke-linejoin: miter"/>
   </g>
   <g id="patch_5">
    <path d="M 241.409401 173.502 
C 242.125449 173.502 242.812266 173.217511 243.318589 172.711188 
C 243.824912 172.204866 244.109401 171.518048 244.109401 170.802 
C 244.109401 170.085952 243.824912 169.399134 243.318589 168.892812 
C 242.812266 168.386489 242.125449 168.102 241.409401 168.102 
C 240.693352 168.102 240.006535 168.386489 239.500212 168.892812 
C 238.99389 169.399134 238.709401 170.085952 238.709401 170.802 
C 238.709401 171.518048 238.99389 172.204866 239.500212 172.711188 
C 240.006535 173.217511 240.693352 173.502 241.409401 173.502 
z
" clip-path="url(#pe3fe87d2d9)" style="stroke: #000000; stroke-width: 2; stroke-linejoin: miter"/>
   </g>
   <g id="text_1">
    <!-- $R_1$ -->
    <g transform="translate(214.184401 121.601219) scale(0.125 -0.125)">
     <defs>
      <path id="DejaVuSans-Oblique-52" d="M 1613 4147 
L 1294 2491 
L 2106 2491 
Q 2584 2491 2879 2755 
Q 3175 3019 3175 3444 
Q 3175 3784 2976 3965 
Q 2778 4147 2406 4147 
L 1613 4147 
z
M 2772 2241 
Q 2972 2194 3105 2009 
Q 3238 1825 3413 1275 
L 3809 0 
L 3144 0 
L 2778 1197 
Q 2638 1659 2453 1815 
Q 2269 1972 1888 1972 
L 1191 1972 
L 806 0 
L 172 0 
L 1081 4666 
L 2503 4666 
Q 3150 4666 3495 4373 
Q 3841 4081 3841 3531 
Q 3841 3044 3547 2687 
Q 3253 2331 2772 2241 
z
" transform="scale(0.015625)"/>
      <path id="DejaVuSans-31" d="M 794 531 
L 1825 531 
L 1825 4091 
L 703 3866 
L 703 4441 
L 1819 4666 
L 2450 4666 
L 2450 531 
L 3481 531 
L 3481 0 
L 794 0 
L 794 531 
z
" transform="scale(0.015625)"/>
     </defs>
     <use xlink:href="#DejaVuSans-Oblique-52" transform="translate(0 0.09375)"/>
     <use xlink:href="#DejaVuSans-31" transform="translate(69.482422 -16.3125) scale(0.7)"/>
    </g>
   </g>
   <g id="text_2">
    <!-- $R_2$ -->
    <g transform="translate(214.184401 228.251219) scale(0.125 -0.125)">
     <defs>
      <path id="DejaVuSans-32" d="M 1228 531 
L 3431 531 
L 3431 0 
L 469 0 
L 469 531 
Q 828 903 1448 1529 
Q 2069 2156 2228 2338 
Q 2531 2678 2651 2914 
Q 2772 3150 2772 3378 
Q 2772 3750 2511 3984 
Q 2250 4219 1831 4219 
Q 1534 4219 1204 4116 
Q 875 4013 500 3803 
L 500 4441 
Q 881 4594 1212 4672 
Q 1544 4750 1819 4750 
Q 2544 4750 2975 4387 
Q 3406 4025 3406 3419 
Q 3406 3131 3298 2873 
Q 3191 2616 2906 2266 
Q 2828 2175 2409 1742 
Q 1991 1309 1228 531 
z
" transform="scale(0.015625)"/>
     </defs>
     <use xlink:href="#DejaVuSans-Oblique-52" transform="translate(0 0.09375)"/>
     <use xlink:href="#DejaVuSans-32" transform="translate(69.482422 -16.3125) scale(0.7)"/>
    </g>
   </g>
  </g>
 </g>
 <defs>
  <clipPath id="pe3fe87d2d9">
   <rect x="3.6" y="3.6" width="289.676515" height="312.444"/>
  </clipPath>
 </defs>
</svg>