<?xml version="1.0" encoding="utf-8" standalone="no"?>
<!DOCTYPE svg PUBLIC "-//W3C//DTD SVG 1.1//EN"
  "http://www.w3.org/Graphics/SVG/1.1/DTD/svg11.dtd">
<svg xmlns:xlink="http://www.w3.org/1999/xlink" width="208.71pt" height="115.074pt" viewBox="0 0 208.71 115.074" xmlns="http://www.w3.org/2000/svg" version="1.1">
 <metadata>
  <rdf:RDF xmlns:dc="http://purl.org/dc/elements/1.1/" xmlns:cc="http://creativecommons.org/ns#" xmlns:rdf="http://www.w3.org/1999/02/22-rdf-syntax-ns#">
   <cc:Work>
    <dc:type rdf:resource="http://purl.org/dc/dcmitype/StillImage"/>
    <dc:date>2023-05-01T23:08:00.088380</dc:date>
    <dc:format>image/svg+xml</dc:format>
    <dc:creator>
     <cc:Agent>
      <dc:title>Matplotlib v3.7.1, https://matplotlib.org/</dc:title>
     </cc:Agent>
    </dc:creator>
   </cc:Work>
  </rdf:RDF>
 </metadata>
 <defs>
  <style type="text/css">*{stroke-linejoin: round; stroke-linecap: butt}</style>
 </defs>
 <g id="figure_1">
  <g id="patch_1">
   <path d="M 0 115.074 
L 208.71 115.074 
L 208.71 0 
L 0 0 
z
" style="fill: #ffffff"/>
  </g>
  <g id="axes_1">
   <g id="line2d_1">
    <path d="M 12.555 24.03 
L 43.155 24.03 
M 50.499 20.97 
L 67.635 10.26 
M 73.755 24.03 
L 104.355 24.03 
" clip-path="url(#pb2bcf86675)" style="fill: none; stroke: #000000; stroke-width: 2; stroke-linecap: round"/>
   </g>
   <g id="line2d_2">
    <path d="M 104.355 24.03 
L 119.655 24.03 
L 119.655 16.38 
L 150.255 16.38 
L 150.255 31.68 
L 119.655 31.68 
L 119.655 24.03 
M 150.255 24.03 
L 165.555 24.03 
" clip-path="url(#pb2bcf86675)" style="fill: none; stroke: #000000; stroke-width: 2; stroke-linecap: round"/>
   </g>
   <g id="line2d_3">
    <path d="M 165.555 24.03 
L 165.555 51.876 
M 173.205 51.876 
L 157.905 51.876 
M 173.205 57.384 
L 157.905 57.384 
M 165.555 57.384 
L 165.555 85.23 
" clip-path="url(#pb2bcf86675)" style="fill: none; stroke: #000000; stroke-width: 2; stroke-linecap: round"/>
   </g>
   <g id="line2d_4">
    <path d="M 165.555 85.23 
L 165.555 97.47 
L 157.905 97.47 
L 173.205 97.47 
M 160.2 101.142 
L 170.91 101.142 
M 164.025 104.814 
L 167.085 104.814 
" clip-path="url(#pb2bcf86675)" style="fill: none; stroke: #000000; stroke-width: 2; stroke-linecap: round"/>
   </g>
   <g id="line2d_5">
    <path d="M 165.555 24.03 
L 180.855 24.03 
L 196.155 24.03 
" clip-path="url(#pb2bcf86675)" style="fill: none; stroke: #000000; stroke-width: 2; stroke-linecap: round"/>
   </g>
   <g id="patch_2">
    <path d="M 46.827 27.702 
C 47.800826 27.702 48.734897 27.315095 49.423496 26.626496 
C 50.112095 25.937897 50.499 25.003826 50.499 24.03 
C 50.499 23.056174 50.112095 22.122103 49.423496 21.433504 
C 48.734897 20.744905 47.800826 20.358 46.827 20.358 
C 45.853174 20.358 44.919103 20.744905 44.230504 21.433504 
C 43.541905 22.122103 43.155 23.056174 43.155 24.03 
C 43.155 25.003826 43.541905 25.937897 44.230504 26.626496 
C 44.919103 27.315095 45.853174 27.702 46.827 27.702 
z
" clip-path="url(#pb2bcf86675)" style="fill: #ffffff; stroke: #000000; stroke-width: 2; stroke-linejoin: miter"/>
   </g>
   <g id="patch_3">
    <path d="M 70.083 27.702 
C 71.056826 27.702 71.990897 27.315095 72.679496 26.626496 
C 73.368095 25.937897 73.755 25.003826 73.755 24.03 
C 73.755 23.056174 73.368095 22.122103 72.679496 21.433504 
C 71.990897 20.744905 71.056826 20.358 70.083 20.358 
C 69.109174 20.358 68.175103 20.744905 67.486504 21.433504 
C 66.797905 22.122103 66.411 23.056174 66.411 24.03 
C 66.411 25.003826 66.797905 25.937897 67.486504 26.626496 
C 68.175103 27.315095 69.109174 27.702 70.083 27.702 
z
" clip-path="url(#pb2bcf86675)" style="fill: #ffffff; stroke: #000000; stroke-width: 2; stroke-linejoin: miter"/>
   </g>
   <g id="patch_4">
    <path d="M 12.555 26.325 
C 13.163641 26.325 13.747436 26.083184 14.17781 25.65281 
C 14.608184 25.222436 14.85 24.638641 14.85 24.03 
C 14.85 23.421359 14.608184 22.837564 14.17781 22.40719 
C 13.747436 21.976816 13.163641 21.735 12.555 21.735 
C 11.946359 21.735 11.362564 21.976816 10.93219 22.40719 
C 10.501816 22.837564 10.26 23.421359 10.26 24.03 
C 10.26 24.638641 10.501816 25.222436 10.93219 25.65281 
C 11.362564 26.083184 11.946359 26.325 12.555 26.325 
z
" clip-path="url(#pb2bcf86675)" style="fill: #ffffff; stroke: #000000; stroke-width: 2; stroke-linejoin: miter"/>
   </g>
   <g id="patch_5">
    <path d="M 165.555 26.325 
C 166.163641 26.325 166.747436 26.083184 167.17781 25.65281 
C 167.608184 25.222436 167.85 24.638641 167.85 24.03 
C 167.85 23.421359 167.608184 22.837564 167.17781 22.40719 
C 166.747436 21.976816 166.163641 21.735 165.555 21.735 
C 164.946359 21.735 164.362564 21.976816 163.93219 22.40719 
C 163.501816 22.837564 163.26 23.421359 163.26 24.03 
C 163.26 24.638641 163.501816 25.222436 163.93219 25.65281 
C 164.362564 26.083184 164.946359 26.325 165.555 26.325 
z
" clip-path="url(#pb2bcf86675)" style="stroke: #000000; stroke-width: 2; stroke-linejoin: miter"/>
   </g>
   <g id="patch_6">
    <path d="M 196.155 26.325 
C 196.763641 26.325 197.347436 26.083184 197.77781 25.65281 
C 198.208184 25.222436 198.45 24.638641 198.45 24.03 
C 198.45 23.421359 198.208184 22.837564 197.77781 22.40719 
C 197.347436 21.976816 196.763641 21.735 196.155 21.735 
C 195.546359 21.735 194.962564 21.976816 194.53219 22.40719 
C 194.101816 22.837564 193.86 23.421359 193.86 24.03 
C 193.86 24.638641 194.101816 25.222436 194.53219 25.65281 
C 194.962564 26.083184 195.546359 26.325 196.155 26.325 
z
" clip-path="url(#pb2bcf86675)" style="fill: #ffffff; stroke: #000000; stroke-width: 2; stroke-linejoin: miter"/>
   </g>
  </g>
 </g>
 <defs>
  <clipPath id="pb2bcf86675">
   <rect x="7.2" y="7.2" width="194.31" height="100.674"/>
  </clipPath>
 </defs>
</svg>