<?xml version="1.0" encoding="utf-8" standalone="no"?>
<!DOCTYPE svg PUBLIC "-//W3C//DTD SVG 1.1//EN"
  "http://www.w3.org/Graphics/SVG/1.1/DTD/svg11.dtd">
<svg xmlns:xlink="http://www.w3.org/1999/xlink" width="739.01303pt" height="231.364656pt" viewBox="0 0 739.01303 231.364656" xmlns="http://www.w3.org/2000/svg" version="1.1">
 <metadata>
  <rdf:RDF xmlns:dc="http://purl.org/dc/elements/1.1/" xmlns:cc="http://creativecommons.org/ns#" xmlns:rdf="http://www.w3.org/1999/02/22-rdf-syntax-ns#">
   <cc:Work>
    <dc:type rdf:resource="http://purl.org/dc/dcmitype/StillImage"/>
    <dc:date>2023-06-04T22:58:27.270499</dc:date>
    <dc:format>image/svg+xml</dc:format>
    <dc:creator>
     <cc:Agent>
      <dc:title>Matplotlib v3.7.1, https://matplotlib.org/</dc:title>
     </cc:Agent>
    </dc:creator>
   </cc:Work>
  </rdf:RDF>
 </metadata>
 <defs>
  <style type="text/css">*{stroke-linejoin: round; stroke-linecap: butt}</style>
 </defs>
 <g id="figure_1">
  <g id="patch_1">
   <path d="M 0 231.364656 
L 739.01303 231.364656 
L 739.01303 0 
L 0 0 
z
" style="fill: #ffffff"/>
  </g>
  <g id="axes_1">
   <g id="line2d_1">
    <path d="M 39.564229 127.297656 
L 75.564229 127.297656 
L 75.564229 118.297656 
L 111.564229 118.297656 
L 111.564229 136.297656 
L 75.564229 136.297656 
L 75.564229 127.297656 
M 111.564229 127.297656 
L 147.564229 127.297656 
" clip-path="url(#p7a1b87e8dd)" style="fill: none; stroke: #000000; stroke-width: 2; stroke-linecap: round"/>
   </g>
   <g id="line2d_2">
    <path d="M 147.564229 127.297656 
L 165.564229 127.297656 
L 183.564229 127.297656 
" clip-path="url(#p7a1b87e8dd)" style="fill: none; stroke: #000000; stroke-width: 2; stroke-linecap: round"/>
   </g>
   <g id="line2d_3">
    <path d="M 183.564229 149.797656 
L 183.564229 104.797656 
L 261.506515 149.797656 
L 183.564229 194.797656 
L 183.564229 149.797656 
M 261.506515 149.797656 
" clip-path="url(#p7a1b87e8dd)" style="fill: none; stroke: #000000; stroke-width: 2; stroke-linecap: round"/>
   </g>
   <g id="line2d_4">
    <path d="M 189.707014 127.297656 
L 196.907014 127.297656 
" clip-path="url(#p7a1b87e8dd)" style="fill: none; stroke: #000000; stroke-width: 2; stroke-linecap: round"/>
   </g>
   <g id="line2d_5">
    <path d="M 189.707014 172.297656 
L 196.907014 172.297656 
" clip-path="url(#p7a1b87e8dd)" style="fill: none; stroke: #000000; stroke-width: 2; stroke-linecap: round"/>
   </g>
   <g id="line2d_6">
    <path d="M 193.307014 175.897656 
L 193.307014 168.697656 
" clip-path="url(#p7a1b87e8dd)" style="fill: none; stroke: #000000; stroke-width: 2; stroke-linecap: round"/>
   </g>
   <g id="line2d_7">
    <path d="M 261.506515 149.797656 
L 279.506515 149.797656 
L 297.506515 149.797656 
" clip-path="url(#p7a1b87e8dd)" style="fill: none; stroke: #000000; stroke-width: 2; stroke-linecap: round"/>
   </g>
   <g id="line2d_8">
    <path d="M 297.506515 149.797656 
L 297.506515 113.797656 
L 297.506515 77.797656 
" clip-path="url(#p7a1b87e8dd)" style="fill: none; stroke: #000000; stroke-width: 2; stroke-linecap: round"/>
   </g>
   <g id="line2d_9">
    <path d="M 297.506515 77.797656 
L 246.746515 77.797656 
M 246.746515 86.797656 
L 246.746515 68.797656 
M 240.266515 86.797656 
L 240.266515 68.797656 
M 240.266515 77.797656 
L 189.506515 77.797656 
" clip-path="url(#p7a1b87e8dd)" style="fill: none; stroke: #000000; stroke-width: 2; stroke-linecap: round"/>
   </g>
   <g id="line2d_10">
    <path d="M 189.506515 77.797656 
L 147.564229 77.797656 
L 147.564229 127.297656 
" clip-path="url(#p7a1b87e8dd)" style="fill: none; stroke: #000000; stroke-width: 2; stroke-linecap: round"/>
   </g>
   <g id="line2d_11">
    <path d="M 297.506515 149.797656 
L 333.506515 149.797656 
L 369.506515 149.797656 
" clip-path="url(#p7a1b87e8dd)" style="fill: none; stroke: #000000; stroke-width: 2; stroke-linecap: round"/>
   </g>
   <g id="line2d_12">
    <path d="M 183.564229 172.297656 
L 165.564229 172.297656 
L 147.564229 172.297656 
" clip-path="url(#p7a1b87e8dd)" style="fill: none; stroke: #000000; stroke-width: 2; stroke-linecap: round"/>
   </g>
   <g id="line2d_13">
    <path d="M 147.564229 172.297656 
L 147.564229 186.697656 
L 138.564229 186.697656 
L 156.564229 186.697656 
M 141.264229 191.017656 
L 153.864229 191.017656 
M 145.764229 195.337656 
L 149.364229 195.337656 
" clip-path="url(#p7a1b87e8dd)" style="fill: none; stroke: #000000; stroke-width: 2; stroke-linecap: round"/>
   </g>
   <g id="line2d_14">
    <path d="M 369.506515 149.797656 
L 405.506515 149.797656 
L 405.506515 140.797656 
L 441.506515 140.797656 
L 441.506515 158.797656 
L 405.506515 158.797656 
L 405.506515 149.797656 
M 441.506515 149.797656 
L 477.506515 149.797656 
" clip-path="url(#p7a1b87e8dd)" style="fill: none; stroke: #000000; stroke-width: 2; stroke-linecap: round"/>
   </g>
   <g id="line2d_15">
    <path d="M 477.506515 149.797656 
L 495.506515 149.797656 
L 513.506515 149.797656 
" clip-path="url(#p7a1b87e8dd)" style="fill: none; stroke: #000000; stroke-width: 2; stroke-linecap: round"/>
   </g>
   <g id="line2d_16">
    <path d="M 513.506515 172.297656 
L 513.506515 127.297656 
L 591.448801 172.297656 
L 513.506515 217.297656 
L 513.506515 172.297656 
M 591.448801 172.297656 
" clip-path="url(#p7a1b87e8dd)" style="fill: none; stroke: #000000; stroke-width: 2; stroke-linecap: round"/>
   </g>
   <g id="line2d_17">
    <path d="M 519.649301 149.797656 
L 526.849301 149.797656 
" clip-path="url(#p7a1b87e8dd)" style="fill: none; stroke: #000000; stroke-width: 2; stroke-linecap: round"/>
   </g>
   <g id="line2d_18">
    <path d="M 519.649301 194.797656 
L 526.849301 194.797656 
" clip-path="url(#p7a1b87e8dd)" style="fill: none; stroke: #000000; stroke-width: 2; stroke-linecap: round"/>
   </g>
   <g id="line2d_19">
    <path d="M 523.249301 198.397656 
L 523.249301 191.197656 
" clip-path="url(#p7a1b87e8dd)" style="fill: none; stroke: #000000; stroke-width: 2; stroke-linecap: round"/>
   </g>
   <g id="line2d_20">
    <path d="M 591.448801 172.297656 
L 609.448801 172.297656 
L 627.448801 172.297656 
" clip-path="url(#p7a1b87e8dd)" style="fill: none; stroke: #000000; stroke-width: 2; stroke-linecap: round"/>
   </g>
   <g id="line2d_21">
    <path d="M 627.448801 172.297656 
L 627.448801 136.297656 
L 627.448801 100.297656 
" clip-path="url(#p7a1b87e8dd)" style="fill: none; stroke: #000000; stroke-width: 2; stroke-linecap: round"/>
   </g>
   <g id="line2d_22">
    <path d="M 627.448801 100.297656 
L 576.688801 100.297656 
M 576.688801 109.297656 
L 576.688801 91.297656 
M 570.208801 109.297656 
L 570.208801 91.297656 
M 570.208801 100.297656 
L 519.448801 100.297656 
" clip-path="url(#p7a1b87e8dd)" style="fill: none; stroke: #000000; stroke-width: 2; stroke-linecap: round"/>
   </g>
   <g id="line2d_23">
    <path d="M 519.448801 100.297656 
L 477.506515 100.297656 
L 477.506515 149.797656 
" clip-path="url(#p7a1b87e8dd)" style="fill: none; stroke: #000000; stroke-width: 2; stroke-linecap: round"/>
   </g>
   <g id="line2d_24">
    <path d="M 627.448801 100.297656 
L 627.448801 64.297656 
L 627.448801 28.297656 
" clip-path="url(#p7a1b87e8dd)" style="fill: none; stroke: #000000; stroke-width: 2; stroke-linecap: round"/>
   </g>
   <g id="line2d_25">
    <path d="M 627.448801 28.297656 
L 591.448801 28.297656 
L 591.448801 37.297656 
L 555.448801 37.297656 
L 555.448801 19.297656 
L 591.448801 19.297656 
L 591.448801 28.297656 
M 555.448801 28.297656 
L 519.448801 28.297656 
" clip-path="url(#p7a1b87e8dd)" style="fill: none; stroke: #000000; stroke-width: 2; stroke-linecap: round"/>
   </g>
   <g id="line2d_26">
    <path d="M 519.448801 28.297656 
L 477.506515 28.297656 
L 477.506515 149.797656 
" clip-path="url(#p7a1b87e8dd)" style="fill: none; stroke: #000000; stroke-width: 2; stroke-linecap: round"/>
   </g>
   <g id="line2d_27">
    <path d="M 627.448801 172.297656 
L 663.448801 172.297656 
L 699.448801 172.297656 
" clip-path="url(#p7a1b87e8dd)" style="fill: none; stroke: #000000; stroke-width: 2; stroke-linecap: round"/>
   </g>
   <g id="line2d_28">
    <path d="M 513.506515 194.797656 
L 495.506515 194.797656 
L 477.506515 194.797656 
" clip-path="url(#p7a1b87e8dd)" style="fill: none; stroke: #000000; stroke-width: 2; stroke-linecap: round"/>
   </g>
   <g id="line2d_29">
    <path d="M 477.506515 194.797656 
L 477.506515 209.197656 
L 468.506515 209.197656 
L 486.506515 209.197656 
M 471.206515 213.517656 
L 483.806515 213.517656 
M 475.706515 217.837656 
L 479.306515 217.837656 
" clip-path="url(#p7a1b87e8dd)" style="fill: none; stroke: #000000; stroke-width: 2; stroke-linecap: round"/>
   </g>
   <g id="patch_2">
    <path d="M 147.564229 129.997656 
C 148.280277 129.997656 148.967094 129.713167 149.473417 129.206845 
C 149.97974 128.700522 150.264229 128.013705 150.264229 127.297656 
C 150.264229 126.581608 149.97974 125.894791 149.473417 125.388468 
C 148.967094 124.882145 148.280277 124.597656 147.564229 124.597656 
C 146.84818 124.597656 146.161363 124.882145 145.65504 125.388468 
C 145.148718 125.894791 144.864229 126.581608 144.864229 127.297656 
C 144.864229 128.013705 145.148718 128.700522 145.65504 129.206845 
C 146.161363 129.713167 146.84818 129.997656 147.564229 129.997656 
z
" clip-path="url(#p7a1b87e8dd)" style="stroke: #000000; stroke-width: 2; stroke-linejoin: miter"/>
   </g>
   <g id="patch_3">
    <path d="M 39.564229 129.997656 
C 40.280277 129.997656 40.967094 129.713167 41.473417 129.206845 
C 41.97974 128.700522 42.264229 128.013705 42.264229 127.297656 
C 42.264229 126.581608 41.97974 125.894791 41.473417 125.388468 
C 40.967094 124.882145 40.280277 124.597656 39.564229 124.597656 
C 38.84818 124.597656 38.161363 124.882145 37.65504 125.388468 
C 37.148718 125.894791 36.864229 126.581608 36.864229 127.297656 
C 36.864229 128.013705 37.148718 128.700522 37.65504 129.206845 
C 38.161363 129.713167 38.84818 129.997656 39.564229 129.997656 
z
" clip-path="url(#p7a1b87e8dd)" style="fill: #ffffff; stroke: #000000; stroke-width: 2; stroke-linejoin: miter"/>
   </g>
   <g id="text_1">
    <!-- $R_1$ -->
    <g transform="translate(86.251729 112.098047) scale(0.125 -0.125)">
     <defs>
      <path id="DejaVuSans-Oblique-52" d="M 1613 4147 
L 1294 2491 
L 2106 2491 
Q 2584 2491 2879 2755 
Q 3175 3019 3175 3444 
Q 3175 3784 2976 3965 
Q 2778 4147 2406 4147 
L 1613 4147 
z
M 2772 2241 
Q 2972 2194 3105 2009 
Q 3238 1825 3413 1275 
L 3809 0 
L 3144 0 
L 2778 1197 
Q 2638 1659 2453 1815 
Q 2269 1972 1888 1972 
L 1191 1972 
L 806 0 
L 172 0 
L 1081 4666 
L 2503 4666 
Q 3150 4666 3495 4373 
Q 3841 4081 3841 3531 
Q 3841 3044 3547 2687 
Q 3253 2331 2772 2241 
z
" transform="scale(0.015625)"/>
      <path id="DejaVuSans-31" d="M 794 531 
L 1825 531 
L 1825 4091 
L 703 3866 
L 703 4441 
L 1819 4666 
L 2450 4666 
L 2450 531 
L 3481 531 
L 3481 0 
L 794 0 
L 794 531 
z
" transform="scale(0.015625)"/>
     </defs>
     <use xlink:href="#DejaVuSans-Oblique-52" transform="translate(0 0.09375)"/>
     <use xlink:href="#DejaVuSans-31" transform="translate(69.482422 -16.3125) scale(0.7)"/>
    </g>
   </g>
   <g id="text_2">
    <!-- $U_e$ -->
    <g transform="translate(18.389229 130.746875) scale(0.125 -0.125)">
     <defs>
      <path id="DejaVuSans-Oblique-55" d="M 991 4666 
L 1625 4666 
L 1075 1831 
Q 1041 1641 1027 1517 
Q 1013 1394 1013 1300 
Q 1013 869 1253 645 
Q 1494 422 1959 422 
Q 2563 422 2898 753 
Q 3234 1084 3378 1831 
L 3928 4666 
L 4563 4666 
L 4000 1753 
Q 3816 809 3300 359 
Q 2784 -91 1888 -91 
Q 1188 -91 780 261 
Q 372 613 372 1216 
Q 372 1325 387 1461 
Q 403 1597 434 1753 
L 991 4666 
z
" transform="scale(0.015625)"/>
      <path id="DejaVuSans-Oblique-65" d="M 3078 2063 
Q 3088 2113 3092 2166 
Q 3097 2219 3097 2272 
Q 3097 2653 2873 2875 
Q 2650 3097 2266 3097 
Q 1838 3097 1509 2826 
Q 1181 2556 1013 2059 
L 3078 2063 
z
M 3578 1613 
L 903 1613 
Q 884 1494 878 1425 
Q 872 1356 872 1306 
Q 872 872 1139 634 
Q 1406 397 1894 397 
Q 2269 397 2603 481 
Q 2938 566 3225 728 
L 3116 159 
Q 2806 34 2476 -28 
Q 2147 -91 1806 -91 
Q 1078 -91 686 257 
Q 294 606 294 1247 
Q 294 1794 489 2264 
Q 684 2734 1063 3103 
Q 1306 3334 1642 3459 
Q 1978 3584 2356 3584 
Q 2950 3584 3301 3228 
Q 3653 2872 3653 2272 
Q 3653 2128 3634 1964 
Q 3616 1800 3578 1613 
z
" transform="scale(0.015625)"/>
     </defs>
     <use xlink:href="#DejaVuSans-Oblique-55" transform="translate(0 0.09375)"/>
     <use xlink:href="#DejaVuSans-Oblique-65" transform="translate(73.193359 -16.3125) scale(0.7)"/>
    </g>
   </g>
   <g id="patch_4">
    <path d="M 297.506515 152.497656 
C 298.222563 152.497656 298.909381 152.213167 299.415703 151.706845 
C 299.922026 151.200522 300.206515 150.513705 300.206515 149.797656 
C 300.206515 149.081608 299.922026 148.394791 299.415703 147.888468 
C 298.909381 147.382145 298.222563 147.097656 297.506515 147.097656 
C 296.790467 147.097656 296.103649 147.382145 295.597327 147.888468 
C 295.091004 148.394791 294.806515 149.081608 294.806515 149.797656 
C 294.806515 150.513705 295.091004 151.200522 295.597327 151.706845 
C 296.103649 152.213167 296.790467 152.497656 297.506515 152.497656 
z
" clip-path="url(#p7a1b87e8dd)" style="stroke: #000000; stroke-width: 2; stroke-linejoin: miter"/>
   </g>
   <g id="text_3">
    <!-- $C$ -->
    <g transform="translate(239.131515 62.598047) scale(0.125 -0.125)">
     <defs>
      <path id="DejaVuSans-Oblique-43" d="M 4447 4306 
L 4319 3641 
Q 4019 3944 3683 4091 
Q 3347 4238 2956 4238 
Q 2422 4238 2017 3981 
Q 1613 3725 1319 3200 
Q 1131 2863 1032 2486 
Q 934 2109 934 1728 
Q 934 1091 1264 756 
Q 1594 422 2222 422 
Q 2656 422 3056 561 
Q 3456 700 3834 978 
L 3688 231 
Q 3316 72 2936 -9 
Q 2556 -91 2175 -91 
Q 1278 -91 773 396 
Q 269 884 269 1753 
Q 269 2309 461 2846 
Q 653 3384 1013 3828 
Q 1394 4300 1883 4525 
Q 2372 4750 3022 4750 
Q 3422 4750 3780 4639 
Q 4138 4528 4447 4306 
z
" transform="scale(0.015625)"/>
     </defs>
     <use xlink:href="#DejaVuSans-Oblique-43" transform="translate(0 0.78125)"/>
    </g>
   </g>
   <g id="patch_5">
    <path d="M 369.506515 152.497656 
C 370.222563 152.497656 370.909381 152.213167 371.415703 151.706845 
C 371.922026 151.200522 372.206515 150.513705 372.206515 149.797656 
C 372.206515 149.081608 371.922026 148.394791 371.415703 147.888468 
C 370.909381 147.382145 370.222563 147.097656 369.506515 147.097656 
C 368.790467 147.097656 368.103649 147.382145 367.597327 147.888468 
C 367.091004 148.394791 366.806515 149.081608 366.806515 149.797656 
C 366.806515 150.513705 367.091004 151.200522 367.597327 151.706845 
C 368.103649 152.213167 368.790467 152.497656 369.506515 152.497656 
z
" clip-path="url(#p7a1b87e8dd)" style="fill: #ffffff; stroke: #000000; stroke-width: 2; stroke-linejoin: miter"/>
   </g>
   <g id="patch_6">
    <path d="M 477.506515 152.497656 
C 478.222563 152.497656 478.909381 152.213167 479.415703 151.706845 
C 479.922026 151.200522 480.206515 150.513705 480.206515 149.797656 
C 480.206515 149.081608 479.922026 148.394791 479.415703 147.888468 
C 478.909381 147.382145 478.222563 147.097656 477.506515 147.097656 
C 476.790467 147.097656 476.103649 147.382145 475.597327 147.888468 
C 475.091004 148.394791 474.806515 149.081608 474.806515 149.797656 
C 474.806515 150.513705 475.091004 151.200522 475.597327 151.706845 
C 476.103649 152.213167 476.790467 152.497656 477.506515 152.497656 
z
" clip-path="url(#p7a1b87e8dd)" style="stroke: #000000; stroke-width: 2; stroke-linejoin: miter"/>
   </g>
   <g id="patch_7">
    <path d="M 369.506515 152.497656 
C 370.222563 152.497656 370.909381 152.213167 371.415703 151.706845 
C 371.922026 151.200522 372.206515 150.513705 372.206515 149.797656 
C 372.206515 149.081608 371.922026 148.394791 371.415703 147.888468 
C 370.909381 147.382145 370.222563 147.097656 369.506515 147.097656 
C 368.790467 147.097656 368.103649 147.382145 367.597327 147.888468 
C 367.091004 148.394791 366.806515 149.081608 366.806515 149.797656 
C 366.806515 150.513705 367.091004 151.200522 367.597327 151.706845 
C 368.103649 152.213167 368.790467 152.497656 369.506515 152.497656 
z
" clip-path="url(#p7a1b87e8dd)" style="fill: #ffffff; stroke: #000000; stroke-width: 2; stroke-linejoin: miter"/>
   </g>
   <g id="text_4">
    <!-- $R_2$ -->
    <g transform="translate(416.194015 134.598047) scale(0.125 -0.125)">
     <defs>
      <path id="DejaVuSans-32" d="M 1228 531 
L 3431 531 
L 3431 0 
L 469 0 
L 469 531 
Q 828 903 1448 1529 
Q 2069 2156 2228 2338 
Q 2531 2678 2651 2914 
Q 2772 3150 2772 3378 
Q 2772 3750 2511 3984 
Q 2250 4219 1831 4219 
Q 1534 4219 1204 4116 
Q 875 4013 500 3803 
L 500 4441 
Q 881 4594 1212 4672 
Q 1544 4750 1819 4750 
Q 2544 4750 2975 4387 
Q 3406 4025 3406 3419 
Q 3406 3131 3298 2873 
Q 3191 2616 2906 2266 
Q 2828 2175 2409 1742 
Q 1991 1309 1228 531 
z
" transform="scale(0.015625)"/>
     </defs>
     <use xlink:href="#DejaVuSans-Oblique-52" transform="translate(0 0.09375)"/>
     <use xlink:href="#DejaVuSans-32" transform="translate(69.482422 -16.3125) scale(0.7)"/>
    </g>
   </g>
   <g id="patch_8">
    <path d="M 627.448801 174.997656 
C 628.16485 174.997656 628.851667 174.713167 629.35799 174.206845 
C 629.864312 173.700522 630.148801 173.013705 630.148801 172.297656 
C 630.148801 171.581608 629.864312 170.894791 629.35799 170.388468 
C 628.851667 169.882145 628.16485 169.597656 627.448801 169.597656 
C 626.732753 169.597656 626.045936 169.882145 625.539613 170.388468 
C 625.03329 170.894791 624.748801 171.581608 624.748801 172.297656 
C 624.748801 173.013705 625.03329 173.700522 625.539613 174.206845 
C 626.045936 174.713167 626.732753 174.997656 627.448801 174.997656 
z
" clip-path="url(#p7a1b87e8dd)" style="stroke: #000000; stroke-width: 2; stroke-linejoin: miter"/>
   </g>
   <g id="text_5">
    <!-- $C$ -->
    <g transform="translate(569.073801 85.098047) scale(0.125 -0.125)">
     <use xlink:href="#DejaVuSans-Oblique-43" transform="translate(0 0.78125)"/>
    </g>
   </g>
   <g id="text_6">
    <!-- $R_3$ -->
    <g transform="translate(566.136301 13.098047) scale(0.125 -0.125)">
     <defs>
      <path id="DejaVuSans-33" d="M 2597 2516 
Q 3050 2419 3304 2112 
Q 3559 1806 3559 1356 
Q 3559 666 3084 287 
Q 2609 -91 1734 -91 
Q 1441 -91 1130 -33 
Q 819 25 488 141 
L 488 750 
Q 750 597 1062 519 
Q 1375 441 1716 441 
Q 2309 441 2620 675 
Q 2931 909 2931 1356 
Q 2931 1769 2642 2001 
Q 2353 2234 1838 2234 
L 1294 2234 
L 1294 2753 
L 1863 2753 
Q 2328 2753 2575 2939 
Q 2822 3125 2822 3475 
Q 2822 3834 2567 4026 
Q 2313 4219 1838 4219 
Q 1578 4219 1281 4162 
Q 984 4106 628 3988 
L 628 4550 
Q 988 4650 1302 4700 
Q 1616 4750 1894 4750 
Q 2613 4750 3031 4423 
Q 3450 4097 3450 3541 
Q 3450 3153 3228 2886 
Q 3006 2619 2597 2516 
z
" transform="scale(0.015625)"/>
     </defs>
     <use xlink:href="#DejaVuSans-Oblique-52" transform="translate(0 0.09375)"/>
     <use xlink:href="#DejaVuSans-33" transform="translate(69.482422 -16.3125) scale(0.7)"/>
    </g>
   </g>
   <g id="patch_9">
    <path d="M 699.448801 174.997656 
C 700.16485 174.997656 700.851667 174.713167 701.35799 174.206845 
C 701.864312 173.700522 702.148801 173.013705 702.148801 172.297656 
C 702.148801 171.581608 701.864312 170.894791 701.35799 170.388468 
C 700.851667 169.882145 700.16485 169.597656 699.448801 169.597656 
C 698.732753 169.597656 698.045936 169.882145 697.539613 170.388468 
C 697.03329 170.894791 696.748801 171.581608 696.748801 172.297656 
C 696.748801 173.013705 697.03329 173.700522 697.539613 174.206845 
C 698.045936 174.713167 698.732753 174.997656 699.448801 174.997656 
z
" clip-path="url(#p7a1b87e8dd)" style="fill: #ffffff; stroke: #000000; stroke-width: 2; stroke-linejoin: miter"/>
   </g>
   <g id="text_7">
    <!-- $U_a$ -->
    <g transform="translate(705.748801 175.746875) scale(0.125 -0.125)">
     <defs>
      <path id="DejaVuSans-Oblique-61" d="M 3438 1997 
L 3047 0 
L 2472 0 
L 2578 531 
Q 2325 219 2001 64 
Q 1678 -91 1281 -91 
Q 834 -91 548 182 
Q 263 456 263 884 
Q 263 1497 752 1853 
Q 1241 2209 2100 2209 
L 2900 2209 
L 2931 2363 
Q 2938 2388 2941 2417 
Q 2944 2447 2944 2509 
Q 2944 2788 2717 2942 
Q 2491 3097 2081 3097 
Q 1800 3097 1504 3025 
Q 1209 2953 897 2809 
L 997 3341 
Q 1322 3463 1633 3523 
Q 1944 3584 2234 3584 
Q 2853 3584 3176 3315 
Q 3500 3047 3500 2534 
Q 3500 2431 3484 2292 
Q 3469 2153 3438 1997 
z
M 2816 1759 
L 2241 1759 
Q 1534 1759 1195 1570 
Q 856 1381 856 984 
Q 856 709 1029 553 
Q 1203 397 1509 397 
Q 1978 397 2328 733 
Q 2678 1069 2791 1631 
L 2816 1759 
z
" transform="scale(0.015625)"/>
     </defs>
     <use xlink:href="#DejaVuSans-Oblique-55" transform="translate(0 0.09375)"/>
     <use xlink:href="#DejaVuSans-Oblique-61" transform="translate(73.193359 -16.3125) scale(0.7)"/>
    </g>
   </g>
  </g>
 </g>
 <defs>
  <clipPath id="p7a1b87e8dd">
   <rect x="3.6" y="9.370656" width="731.81303" height="218.394"/>
  </clipPath>
 </defs>
</svg>