<?xml version="1.0" encoding="utf-8" standalone="no"?>
<!DOCTYPE svg PUBLIC "-//W3C//DTD SVG 1.1//EN"
  "http://www.w3.org/Graphics/SVG/1.1/DTD/svg11.dtd">
<svg xmlns:xlink="http://www.w3.org/1999/xlink" width="494.077343pt" height="302.652pt" viewBox="0 0 494.077343 302.652" xmlns="http://www.w3.org/2000/svg" version="1.1">
 <metadata>
  <rdf:RDF xmlns:dc="http://purl.org/dc/elements/1.1/" xmlns:cc="http://creativecommons.org/ns#" xmlns:rdf="http://www.w3.org/1999/02/22-rdf-syntax-ns#">
   <cc:Work>
    <dc:type rdf:resource="http://purl.org/dc/dcmitype/StillImage"/>
    <dc:date>2023-04-24T15:14:29.255965</dc:date>
    <dc:format>image/svg+xml</dc:format>
    <dc:creator>
     <cc:Agent>
      <dc:title>Matplotlib v3.7.1, https://matplotlib.org/</dc:title>
     </cc:Agent>
    </dc:creator>
   </cc:Work>
  </rdf:RDF>
 </metadata>
 <defs>
  <style type="text/css">*{stroke-linejoin: round; stroke-linecap: butt}</style>
 </defs>
 <g id="figure_1">
  <g id="patch_1">
   <path d="M 0 302.652 
L 494.077343 302.652 
L 494.077343 0 
L 0 0 
z
" style="fill: #ffffff"/>
  </g>
  <g id="axes_1">
   <g id="line2d_1">
    <path d="M 56.9556 12.555 
L 56.9556 43.155 
L 72.2556 58.455 
L 56.9556 73.755 
L 41.6556 58.455 
L 56.9556 43.155 
M 56.9556 73.755 
L 56.9556 104.355 
" clip-path="url(#pf7ac9d54d1)" style="fill: none; stroke: #000000; stroke-width: 2; stroke-linecap: round"/>
   </g>
   <g id="line2d_2">
    <path d="M 53.8956 50.805 
L 60.0156 50.805 
" clip-path="url(#pf7ac9d54d1)" style="fill: none; stroke: #000000; stroke-width: 2; stroke-linecap: round"/>
   </g>
   <g id="line2d_3">
    <path d="M 56.9556 63.045 
L 56.9556 69.165 
" clip-path="url(#pf7ac9d54d1)" style="fill: none; stroke: #000000; stroke-width: 2; stroke-linecap: round"/>
   </g>
   <g id="line2d_4">
    <path d="M 53.8956 66.105 
L 60.0156 66.105 
" clip-path="url(#pf7ac9d54d1)" style="fill: none; stroke: #000000; stroke-width: 2; stroke-linecap: round"/>
   </g>
   <g id="line2d_5">
    <path d="M 44.7156 79.875 
L 44.7156 27.855 
" clip-path="url(#pf7ac9d54d1)" style="fill: none; stroke: #000000; stroke-width: 2; stroke-linecap: round"/>
   </g>
   <g id="patch_2">
    <path d="M 47.7756 79.875 
L 44.7156 89.055 
L 41.6556 79.875 
z
" clip-path="url(#pf7ac9d54d1)"/>
   </g>
   <g id="line2d_6">
    <path d="M 56.9556 104.355 
L 56.9556 116.595 
L 49.3056 116.595 
L 64.6056 116.595 
M 51.6006 120.267 
L 62.3106 120.267 
M 55.4256 123.939 
L 58.4856 123.939 
" clip-path="url(#pf7ac9d54d1)" style="fill: none; stroke: #000000; stroke-width: 2; stroke-linecap: round"/>
   </g>
   <g id="line2d_7">
    <path d="M 56.9556 12.555 
L 87.5556 12.555 
L 118.1556 12.555 
" clip-path="url(#pf7ac9d54d1)" style="fill: none; stroke: #000000; stroke-width: 2; stroke-linecap: round"/>
   </g>
   <g id="line2d_8">
    <path d="M 118.1556 12.555 
L 118.1556 43.155 
L 125.8056 43.155 
L 125.8056 73.755 
L 110.5056 73.755 
L 110.5056 43.155 
L 118.1556 43.155 
M 118.1556 73.755 
L 118.1556 104.355 
" clip-path="url(#pf7ac9d54d1)" style="fill: none; stroke: #000000; stroke-width: 2; stroke-linecap: round"/>
   </g>
   <g id="line2d_9">
    <path d="M 118.1556 104.355 
M 121.2156 111.699 
L 125.8056 125.775 
M 130.3956 134.955 
" clip-path="url(#pf7ac9d54d1)" style="fill: none; stroke: #000000; stroke-width: 2; stroke-linecap: round"/>
   </g>
   <g id="line2d_10">
    <path d="M 118.1556 12.555 
L 148.7556 12.555 
L 179.3556 12.555 
" clip-path="url(#pf7ac9d54d1)" style="fill: none; stroke: #000000; stroke-width: 2; stroke-linecap: round"/>
   </g>
   <g id="line2d_11">
    <path d="M 179.3556 12.555 
L 179.3556 43.155 
L 187.0056 43.155 
L 187.0056 73.755 
L 171.7056 73.755 
L 171.7056 43.155 
L 179.3556 43.155 
M 179.3556 73.755 
L 179.3556 104.355 
" clip-path="url(#pf7ac9d54d1)" style="fill: none; stroke: #000000; stroke-width: 2; stroke-linecap: round"/>
   </g>
   <g id="line2d_12">
    <path d="M 179.3556 104.355 
M 182.4156 111.699 
L 187.0056 125.775 
M 191.5956 134.955 
" clip-path="url(#pf7ac9d54d1)" style="fill: none; stroke: #000000; stroke-width: 2; stroke-linecap: round"/>
   </g>
   <g id="line2d_13">
    <path d="M 179.3556 12.555 
L 209.9556 12.555 
L 240.5556 12.555 
" clip-path="url(#pf7ac9d54d1)" style="fill: none; stroke: #000000; stroke-width: 2; stroke-linecap: round"/>
   </g>
   <g id="line2d_14">
    <path d="M 240.5556 12.555 
L 240.5556 43.155 
L 248.2056 43.155 
L 248.2056 73.755 
L 232.9056 73.755 
L 232.9056 43.155 
L 240.5556 43.155 
M 240.5556 73.755 
L 240.5556 104.355 
" clip-path="url(#pf7ac9d54d1)" style="fill: none; stroke: #000000; stroke-width: 2; stroke-linecap: round"/>
   </g>
   <g id="line2d_15">
    <path d="M 240.5556 104.355 
M 243.6156 111.699 
L 248.2056 125.775 
M 252.7956 134.955 
" clip-path="url(#pf7ac9d54d1)" style="fill: none; stroke: #000000; stroke-width: 2; stroke-linecap: round"/>
   </g>
   <g id="line2d_16">
    <path d="M 240.5556 12.555 
L 271.1556 12.555 
L 301.7556 12.555 
" clip-path="url(#pf7ac9d54d1)" style="fill: none; stroke: #000000; stroke-width: 2; stroke-linecap: round"/>
   </g>
   <g id="line2d_17">
    <path d="M 301.7556 12.555 
L 301.7556 43.155 
L 309.4056 43.155 
L 309.4056 73.755 
L 294.1056 73.755 
L 294.1056 43.155 
L 301.7556 43.155 
M 301.7556 73.755 
L 301.7556 104.355 
" clip-path="url(#pf7ac9d54d1)" style="fill: none; stroke: #000000; stroke-width: 2; stroke-linecap: round"/>
   </g>
   <g id="line2d_18">
    <path d="M 301.7556 104.355 
M 304.8156 111.699 
L 309.4056 125.775 
M 313.9956 134.955 
" clip-path="url(#pf7ac9d54d1)" style="fill: none; stroke: #000000; stroke-width: 2; stroke-linecap: round"/>
   </g>
   <g id="line2d_19">
    <path d="M 130.3956 131.283 
L 130.3956 146.583 
L 130.3956 161.883 
" clip-path="url(#pf7ac9d54d1)" style="fill: none; stroke: #000000; stroke-width: 2; stroke-linecap: round"/>
   </g>
   <g id="line2d_20">
    <path d="M 191.5956 131.283 
L 191.5956 146.583 
L 191.5956 161.883 
" clip-path="url(#pf7ac9d54d1)" style="fill: none; stroke: #000000; stroke-width: 2; stroke-linecap: round"/>
   </g>
   <g id="line2d_21">
    <path d="M 191.5956 161.883 
L 160.9956 161.883 
L 130.3956 161.883 
" clip-path="url(#pf7ac9d54d1)" style="fill: none; stroke: #000000; stroke-width: 2; stroke-linecap: round"/>
   </g>
   <g id="line2d_22">
    <path d="M 252.7956 131.283 
L 252.7956 146.583 
L 252.7956 161.883 
" clip-path="url(#pf7ac9d54d1)" style="fill: none; stroke: #000000; stroke-width: 2; stroke-linecap: round"/>
   </g>
   <g id="line2d_23">
    <path d="M 252.7956 161.883 
L 191.5956 161.883 
L 130.3956 161.883 
" clip-path="url(#pf7ac9d54d1)" style="fill: none; stroke: #000000; stroke-width: 2; stroke-linecap: round"/>
   </g>
   <g id="line2d_24">
    <path d="M 313.9956 131.283 
L 313.9956 146.583 
L 313.9956 161.883 
" clip-path="url(#pf7ac9d54d1)" style="fill: none; stroke: #000000; stroke-width: 2; stroke-linecap: round"/>
   </g>
   <g id="line2d_25">
    <path d="M 313.9956 161.883 
L 222.1956 161.883 
L 130.3956 161.883 
" clip-path="url(#pf7ac9d54d1)" style="fill: none; stroke: #000000; stroke-width: 2; stroke-linecap: round"/>
   </g>
   <g id="line2d_26">
    <path d="M 130.3956 161.883 
L 99.7956 161.883 
L 69.1956 161.883 
" clip-path="url(#pf7ac9d54d1)" style="fill: none; stroke: #000000; stroke-width: 2; stroke-linecap: round"/>
   </g>
   <g id="line2d_27">
    <path d="M 69.1956 161.883 
L 69.1956 169.533 
L 69.1956 177.183 
" clip-path="url(#pf7ac9d54d1)" style="fill: none; stroke: #000000; stroke-width: 2; stroke-linecap: round"/>
   </g>
   <g id="line2d_28">
    <path d="M 69.1956 177.183 
L 69.1956 189.423 
L 61.5456 189.423 
L 76.8456 189.423 
M 63.8406 193.095 
L 74.5506 193.095 
M 67.6656 196.767 
L 70.7256 196.767 
" clip-path="url(#pf7ac9d54d1)" style="fill: none; stroke: #000000; stroke-width: 2; stroke-linecap: round"/>
   </g>
   <g id="line2d_29">
    <path d="M 289.5156 131.283 
L 289.5156 161.883 
L 289.5156 192.483 
" clip-path="url(#pf7ac9d54d1)" style="fill: none; stroke: #000000; stroke-width: 2; stroke-linecap: round"/>
   </g>
   <g id="line2d_30">
    <path d="M 228.3156 131.283 
L 228.3156 161.883 
L 228.3156 192.483 
" clip-path="url(#pf7ac9d54d1)" style="fill: none; stroke: #000000; stroke-width: 2; stroke-linecap: round"/>
   </g>
   <g id="line2d_31">
    <path d="M 228.3156 192.483 
L 258.9156 192.483 
L 289.5156 192.483 
" clip-path="url(#pf7ac9d54d1)" style="fill: none; stroke: #000000; stroke-width: 2; stroke-linecap: round"/>
   </g>
   <g id="line2d_32">
    <path d="M 167.1156 131.283 
L 167.1156 161.883 
L 167.1156 192.483 
" clip-path="url(#pf7ac9d54d1)" style="fill: none; stroke: #000000; stroke-width: 2; stroke-linecap: round"/>
   </g>
   <g id="line2d_33">
    <path d="M 167.1156 192.483 
L 228.3156 192.483 
L 289.5156 192.483 
" clip-path="url(#pf7ac9d54d1)" style="fill: none; stroke: #000000; stroke-width: 2; stroke-linecap: round"/>
   </g>
   <g id="line2d_34">
    <path d="M 105.9156 131.283 
L 105.9156 161.883 
L 105.9156 192.483 
" clip-path="url(#pf7ac9d54d1)" style="fill: none; stroke: #000000; stroke-width: 2; stroke-linecap: round"/>
   </g>
   <g id="line2d_35">
    <path d="M 105.9156 192.483 
L 197.7156 192.483 
L 289.5156 192.483 
" clip-path="url(#pf7ac9d54d1)" style="fill: none; stroke: #000000; stroke-width: 2; stroke-linecap: round"/>
   </g>
   <g id="line2d_36">
    <path d="M 289.5156 192.483 
L 312.4656 192.483 
L 335.4156 192.483 
" clip-path="url(#pf7ac9d54d1)" style="fill: none; stroke: #000000; stroke-width: 2; stroke-linecap: round"/>
   </g>
   <g id="line2d_37">
    <path d="M 335.4156 192.483 
L 343.0656 192.483 
L 350.7156 192.483 
" clip-path="url(#pf7ac9d54d1)" style="fill: none; stroke: #000000; stroke-width: 2; stroke-linecap: round"/>
   </g>
   <g id="line2d_38">
    <path d="M 350.7156 211.608 
L 350.7156 173.358 
L 416.966543 211.608 
L 350.7156 249.858 
L 350.7156 211.608 
M 416.966543 211.608 
" clip-path="url(#pf7ac9d54d1)" style="fill: none; stroke: #000000; stroke-width: 2; stroke-linecap: round"/>
   </g>
   <g id="line2d_39">
    <path d="M 355.936968 192.483 
L 362.056968 192.483 
" clip-path="url(#pf7ac9d54d1)" style="fill: none; stroke: #000000; stroke-width: 2; stroke-linecap: round"/>
   </g>
   <g id="line2d_40">
    <path d="M 355.936968 230.733 
L 362.056968 230.733 
" clip-path="url(#pf7ac9d54d1)" style="fill: none; stroke: #000000; stroke-width: 2; stroke-linecap: round"/>
   </g>
   <g id="line2d_41">
    <path d="M 358.996968 233.793 
L 358.996968 227.673 
" clip-path="url(#pf7ac9d54d1)" style="fill: none; stroke: #000000; stroke-width: 2; stroke-linecap: round"/>
   </g>
   <g id="line2d_42">
    <path d="M 416.966543 211.608 
L 424.616543 211.608 
L 432.266543 211.608 
" clip-path="url(#pf7ac9d54d1)" style="fill: none; stroke: #000000; stroke-width: 2; stroke-linecap: round"/>
   </g>
   <g id="line2d_43">
    <path d="M 432.266543 211.608 
L 432.266543 181.008 
L 432.266543 150.408 
" clip-path="url(#pf7ac9d54d1)" style="fill: none; stroke: #000000; stroke-width: 2; stroke-linecap: round"/>
   </g>
   <g id="line2d_44">
    <path d="M 432.266543 150.408 
L 401.666543 150.408 
L 401.666543 158.058 
L 371.066543 158.058 
L 371.066543 142.758 
L 401.666543 142.758 
L 401.666543 150.408 
M 371.066543 150.408 
L 340.466543 150.408 
" clip-path="url(#pf7ac9d54d1)" style="fill: none; stroke: #000000; stroke-width: 2; stroke-linecap: round"/>
   </g>
   <g id="line2d_45">
    <path d="M 340.466543 150.408 
L 335.4156 150.408 
L 335.4156 192.483 
" clip-path="url(#pf7ac9d54d1)" style="fill: none; stroke: #000000; stroke-width: 2; stroke-linecap: round"/>
   </g>
   <g id="line2d_46">
    <path d="M 432.266543 211.608 
L 447.566543 211.608 
L 462.866543 211.608 
" clip-path="url(#pf7ac9d54d1)" style="fill: none; stroke: #000000; stroke-width: 2; stroke-linecap: round"/>
   </g>
   <g id="line2d_47">
    <path d="M 462.866543 272.808 
L 462.866543 285.048 
L 455.216543 285.048 
L 470.516543 285.048 
M 457.511543 288.72 
L 468.221543 288.72 
M 461.336543 292.392 
L 464.396543 292.392 
" clip-path="url(#pf7ac9d54d1)" style="fill: none; stroke: #000000; stroke-width: 2; stroke-linecap: round"/>
   </g>
   <g id="text_1">
    <g clip-path="url(#pf7ac9d54d1)">
     <!-- $R_{ref}$ -->
     <g transform="translate(20.5306 61.904219) scale(0.125 -0.125)">
      <defs>
       <path id="DejaVuSans-Oblique-52" d="M 1613 4147 
L 1294 2491 
L 2106 2491 
Q 2584 2491 2879 2755 
Q 3175 3019 3175 3444 
Q 3175 3784 2976 3965 
Q 2778 4147 2406 4147 
L 1613 4147 
z
M 2772 2241 
Q 2972 2194 3105 2009 
Q 3238 1825 3413 1275 
L 3809 0 
L 3144 0 
L 2778 1197 
Q 2638 1659 2453 1815 
Q 2269 1972 1888 1972 
L 1191 1972 
L 806 0 
L 172 0 
L 1081 4666 
L 2503 4666 
Q 3150 4666 3495 4373 
Q 3841 4081 3841 3531 
Q 3841 3044 3547 2687 
Q 3253 2331 2772 2241 
z
" transform="scale(0.015625)"/>
       <path id="DejaVuSans-Oblique-72" d="M 2853 2969 
Q 2766 3016 2653 3041 
Q 2541 3066 2413 3066 
Q 1953 3066 1609 2717 
Q 1266 2369 1153 1784 
L 800 0 
L 225 0 
L 909 3500 
L 1484 3500 
L 1375 2956 
Q 1603 3259 1920 3421 
Q 2238 3584 2597 3584 
Q 2691 3584 2781 3573 
Q 2872 3563 2963 3538 
L 2853 2969 
z
" transform="scale(0.015625)"/>
       <path id="DejaVuSans-Oblique-65" d="M 3078 2063 
Q 3088 2113 3092 2166 
Q 3097 2219 3097 2272 
Q 3097 2653 2873 2875 
Q 2650 3097 2266 3097 
Q 1838 3097 1509 2826 
Q 1181 2556 1013 2059 
L 3078 2063 
z
M 3578 1613 
L 903 1613 
Q 884 1494 878 1425 
Q 872 1356 872 1306 
Q 872 872 1139 634 
Q 1406 397 1894 397 
Q 2269 397 2603 481 
Q 2938 566 3225 728 
L 3116 159 
Q 2806 34 2476 -28 
Q 2147 -91 1806 -91 
Q 1078 -91 686 257 
Q 294 606 294 1247 
Q 294 1794 489 2264 
Q 684 2734 1063 3103 
Q 1306 3334 1642 3459 
Q 1978 3584 2356 3584 
Q 2950 3584 3301 3228 
Q 3653 2872 3653 2272 
Q 3653 2128 3634 1964 
Q 3616 1800 3578 1613 
z
" transform="scale(0.015625)"/>
       <path id="DejaVuSans-Oblique-66" d="M 3059 4863 
L 2969 4384 
L 2419 4384 
Q 2106 4384 1964 4261 
Q 1822 4138 1753 3809 
L 1691 3500 
L 2638 3500 
L 2553 3053 
L 1606 3053 
L 1013 0 
L 434 0 
L 1031 3053 
L 481 3053 
L 563 3500 
L 1113 3500 
L 1159 3744 
Q 1278 4363 1576 4613 
Q 1875 4863 2516 4863 
L 3059 4863 
z
" transform="scale(0.015625)"/>
      </defs>
      <use xlink:href="#DejaVuSans-Oblique-52" transform="translate(0 0.09375)"/>
      <use xlink:href="#DejaVuSans-Oblique-72" transform="translate(69.482422 -16.3125) scale(0.7)"/>
      <use xlink:href="#DejaVuSans-Oblique-65" transform="translate(98.261719 -16.3125) scale(0.7)"/>
      <use xlink:href="#DejaVuSans-Oblique-66" transform="translate(141.328125 -16.3125) scale(0.7)"/>
     </g>
    </g>
   </g>
   <g id="patch_3">
    <path d="M 118.1556 14.85 
C 118.764241 14.85 119.348036 14.608184 119.77841 14.17781 
C 120.208784 13.747436 120.4506 13.163641 120.4506 12.555 
C 120.4506 11.946359 120.208784 11.362564 119.77841 10.93219 
C 119.348036 10.501816 118.764241 10.26 118.1556 10.26 
C 117.546959 10.26 116.963164 10.501816 116.53279 10.93219 
C 116.102416 11.362564 115.8606 11.946359 115.8606 12.555 
C 115.8606 13.163641 116.102416 13.747436 116.53279 14.17781 
C 116.963164 14.608184 117.546959 14.85 118.1556 14.85 
z
" clip-path="url(#pf7ac9d54d1)" style="stroke: #000000; stroke-width: 2; stroke-linejoin: miter"/>
   </g>
   <g id="text_2">
    <g clip-path="url(#pf7ac9d54d1)">
     <!-- $2R$ -->
     <g transform="translate(90.6956 61.904219) scale(0.125 -0.125)">
      <defs>
       <path id="DejaVuSans-32" d="M 1228 531 
L 3431 531 
L 3431 0 
L 469 0 
L 469 531 
Q 828 903 1448 1529 
Q 2069 2156 2228 2338 
Q 2531 2678 2651 2914 
Q 2772 3150 2772 3378 
Q 2772 3750 2511 3984 
Q 2250 4219 1831 4219 
Q 1534 4219 1204 4116 
Q 875 4013 500 3803 
L 500 4441 
Q 881 4594 1212 4672 
Q 1544 4750 1819 4750 
Q 2544 4750 2975 4387 
Q 3406 4025 3406 3419 
Q 3406 3131 3298 2873 
Q 3191 2616 2906 2266 
Q 2828 2175 2409 1742 
Q 1991 1309 1228 531 
z
" transform="scale(0.015625)"/>
      </defs>
      <use xlink:href="#DejaVuSans-32" transform="translate(0 0.78125)"/>
      <use xlink:href="#DejaVuSans-Oblique-52" transform="translate(63.623047 0.78125)"/>
     </g>
    </g>
   </g>
   <g id="patch_4">
    <path d="M 118.1556 111.699 
C 119.129426 111.699 120.063497 111.312095 120.752096 110.623496 
C 121.440695 109.934897 121.8276 109.000826 121.8276 108.027 
C 121.8276 107.053174 121.440695 106.119103 120.752096 105.430504 
C 120.063497 104.741905 119.129426 104.355 118.1556 104.355 
C 117.181774 104.355 116.247703 104.741905 115.559104 105.430504 
C 114.870505 106.119103 114.4836 107.053174 114.4836 108.027 
C 114.4836 109.000826 114.870505 109.934897 115.559104 110.623496 
C 116.247703 111.312095 117.181774 111.699 118.1556 111.699 
z
" clip-path="url(#pf7ac9d54d1)" style="fill: #ffffff; stroke: #000000; stroke-width: 2; stroke-linejoin: miter"/>
   </g>
   <g id="patch_5">
    <path d="M 105.9156 134.955 
C 106.889426 134.955 107.823497 134.568095 108.512096 133.879496 
C 109.200695 133.190897 109.5876 132.256826 109.5876 131.283 
C 109.5876 130.309174 109.200695 129.375103 108.512096 128.686504 
C 107.823497 127.997905 106.889426 127.611 105.9156 127.611 
C 104.941774 127.611 104.007703 127.997905 103.319104 128.686504 
C 102.630505 129.375103 102.2436 130.309174 102.2436 131.283 
C 102.2436 132.256826 102.630505 133.190897 103.319104 133.879496 
C 104.007703 134.568095 104.941774 134.955 105.9156 134.955 
z
" clip-path="url(#pf7ac9d54d1)" style="fill: #ffffff; stroke: #000000; stroke-width: 2; stroke-linejoin: miter"/>
   </g>
   <g id="patch_6">
    <path d="M 130.3956 134.955 
C 131.369426 134.955 132.303497 134.568095 132.992096 133.879496 
C 133.680695 133.190897 134.0676 132.256826 134.0676 131.283 
C 134.0676 130.309174 133.680695 129.375103 132.992096 128.686504 
C 132.303497 127.997905 131.369426 127.611 130.3956 127.611 
C 129.421774 127.611 128.487703 127.997905 127.799104 128.686504 
C 127.110505 129.375103 126.7236 130.309174 126.7236 131.283 
C 126.7236 132.256826 127.110505 133.190897 127.799104 133.879496 
C 128.487703 134.568095 129.421774 134.955 130.3956 134.955 
z
" clip-path="url(#pf7ac9d54d1)" style="fill: #ffffff; stroke: #000000; stroke-width: 2; stroke-linejoin: miter"/>
   </g>
   <g id="text_3">
    <g clip-path="url(#pf7ac9d54d1)">
     <!-- $Z_3$ -->
     <g transform="translate(84.6836 123.104219) scale(0.125 -0.125)">
      <defs>
       <path id="DejaVuSans-Oblique-5a" d="M 838 4666 
L 4500 4666 
L 4409 4184 
L 794 531 
L 3769 531 
L 3669 0 
L -141 0 
L -50 481 
L 3566 4134 
L 738 4134 
L 838 4666 
z
" transform="scale(0.015625)"/>
       <path id="DejaVuSans-33" d="M 2597 2516 
Q 3050 2419 3304 2112 
Q 3559 1806 3559 1356 
Q 3559 666 3084 287 
Q 2609 -91 1734 -91 
Q 1441 -91 1130 -33 
Q 819 25 488 141 
L 488 750 
Q 750 597 1062 519 
Q 1375 441 1716 441 
Q 2309 441 2620 675 
Q 2931 909 2931 1356 
Q 2931 1769 2642 2001 
Q 2353 2234 1838 2234 
L 1294 2234 
L 1294 2753 
L 1863 2753 
Q 2328 2753 2575 2939 
Q 2822 3125 2822 3475 
Q 2822 3834 2567 4026 
Q 2313 4219 1838 4219 
Q 1578 4219 1281 4162 
Q 984 4106 628 3988 
L 628 4550 
Q 988 4650 1302 4700 
Q 1616 4750 1894 4750 
Q 2613 4750 3031 4423 
Q 3450 4097 3450 3541 
Q 3450 3153 3228 2886 
Q 3006 2619 2597 2516 
z
" transform="scale(0.015625)"/>
      </defs>
      <use xlink:href="#DejaVuSans-Oblique-5a" transform="translate(0 0.09375)"/>
      <use xlink:href="#DejaVuSans-33" transform="translate(68.505859 -16.3125) scale(0.7)"/>
     </g>
    </g>
   </g>
   <g id="patch_7">
    <path d="M 179.3556 14.85 
C 179.964241 14.85 180.548036 14.608184 180.97841 14.17781 
C 181.408784 13.747436 181.6506 13.163641 181.6506 12.555 
C 181.6506 11.946359 181.408784 11.362564 180.97841 10.93219 
C 180.548036 10.501816 179.964241 10.26 179.3556 10.26 
C 178.746959 10.26 178.163164 10.501816 177.73279 10.93219 
C 177.302416 11.362564 177.0606 11.946359 177.0606 12.555 
C 177.0606 13.163641 177.302416 13.747436 177.73279 14.17781 
C 178.163164 14.608184 178.746959 14.85 179.3556 14.85 
z
" clip-path="url(#pf7ac9d54d1)" style="stroke: #000000; stroke-width: 2; stroke-linejoin: miter"/>
   </g>
   <g id="text_4">
    <g clip-path="url(#pf7ac9d54d1)">
     <!-- $4R$ -->
     <g transform="translate(151.8956 61.904219) scale(0.125 -0.125)">
      <defs>
       <path id="DejaVuSans-34" d="M 2419 4116 
L 825 1625 
L 2419 1625 
L 2419 4116 
z
M 2253 4666 
L 3047 4666 
L 3047 1625 
L 3713 1625 
L 3713 1100 
L 3047 1100 
L 3047 0 
L 2419 0 
L 2419 1100 
L 313 1100 
L 313 1709 
L 2253 4666 
z
" transform="scale(0.015625)"/>
      </defs>
      <use xlink:href="#DejaVuSans-34" transform="translate(0 0.09375)"/>
      <use xlink:href="#DejaVuSans-Oblique-52" transform="translate(63.623047 0.09375)"/>
     </g>
    </g>
   </g>
   <g id="patch_8">
    <path d="M 179.3556 111.699 
C 180.329426 111.699 181.263497 111.312095 181.952096 110.623496 
C 182.640695 109.934897 183.0276 109.000826 183.0276 108.027 
C 183.0276 107.053174 182.640695 106.119103 181.952096 105.430504 
C 181.263497 104.741905 180.329426 104.355 179.3556 104.355 
C 178.381774 104.355 177.447703 104.741905 176.759104 105.430504 
C 176.070505 106.119103 175.6836 107.053174 175.6836 108.027 
C 175.6836 109.000826 176.070505 109.934897 176.759104 110.623496 
C 177.447703 111.312095 178.381774 111.699 179.3556 111.699 
z
" clip-path="url(#pf7ac9d54d1)" style="fill: #ffffff; stroke: #000000; stroke-width: 2; stroke-linejoin: miter"/>
   </g>
   <g id="patch_9">
    <path d="M 167.1156 134.955 
C 168.089426 134.955 169.023497 134.568095 169.712096 133.879496 
C 170.400695 133.190897 170.7876 132.256826 170.7876 131.283 
C 170.7876 130.309174 170.400695 129.375103 169.712096 128.686504 
C 169.023497 127.997905 168.089426 127.611 167.1156 127.611 
C 166.141774 127.611 165.207703 127.997905 164.519104 128.686504 
C 163.830505 129.375103 163.4436 130.309174 163.4436 131.283 
C 163.4436 132.256826 163.830505 133.190897 164.519104 133.879496 
C 165.207703 134.568095 166.141774 134.955 167.1156 134.955 
z
" clip-path="url(#pf7ac9d54d1)" style="fill: #ffffff; stroke: #000000; stroke-width: 2; stroke-linejoin: miter"/>
   </g>
   <g id="patch_10">
    <path d="M 191.5956 134.955 
C 192.569426 134.955 193.503497 134.568095 194.192096 133.879496 
C 194.880695 133.190897 195.2676 132.256826 195.2676 131.283 
C 195.2676 130.309174 194.880695 129.375103 194.192096 128.686504 
C 193.503497 127.997905 192.569426 127.611 191.5956 127.611 
C 190.621774 127.611 189.687703 127.997905 188.999104 128.686504 
C 188.310505 129.375103 187.9236 130.309174 187.9236 131.283 
C 187.9236 132.256826 188.310505 133.190897 188.999104 133.879496 
C 189.687703 134.568095 190.621774 134.955 191.5956 134.955 
z
" clip-path="url(#pf7ac9d54d1)" style="fill: #ffffff; stroke: #000000; stroke-width: 2; stroke-linejoin: miter"/>
   </g>
   <g id="text_5">
    <g clip-path="url(#pf7ac9d54d1)">
     <!-- $Z_2$ -->
     <g transform="translate(145.8836 123.104219) scale(0.125 -0.125)">
      <use xlink:href="#DejaVuSans-Oblique-5a" transform="translate(0 0.09375)"/>
      <use xlink:href="#DejaVuSans-32" transform="translate(68.505859 -16.3125) scale(0.7)"/>
     </g>
    </g>
   </g>
   <g id="patch_11">
    <path d="M 240.5556 14.85 
C 241.164241 14.85 241.748036 14.608184 242.17841 14.17781 
C 242.608784 13.747436 242.8506 13.163641 242.8506 12.555 
C 242.8506 11.946359 242.608784 11.362564 242.17841 10.93219 
C 241.748036 10.501816 241.164241 10.26 240.5556 10.26 
C 239.946959 10.26 239.363164 10.501816 238.93279 10.93219 
C 238.502416 11.362564 238.2606 11.946359 238.2606 12.555 
C 238.2606 13.163641 238.502416 13.747436 238.93279 14.17781 
C 239.363164 14.608184 239.946959 14.85 240.5556 14.85 
z
" clip-path="url(#pf7ac9d54d1)" style="stroke: #000000; stroke-width: 2; stroke-linejoin: miter"/>
   </g>
   <g id="text_6">
    <g clip-path="url(#pf7ac9d54d1)">
     <!-- $8R$ -->
     <g transform="translate(213.0956 61.904219) scale(0.125 -0.125)">
      <defs>
       <path id="DejaVuSans-38" d="M 2034 2216 
Q 1584 2216 1326 1975 
Q 1069 1734 1069 1313 
Q 1069 891 1326 650 
Q 1584 409 2034 409 
Q 2484 409 2743 651 
Q 3003 894 3003 1313 
Q 3003 1734 2745 1975 
Q 2488 2216 2034 2216 
z
M 1403 2484 
Q 997 2584 770 2862 
Q 544 3141 544 3541 
Q 544 4100 942 4425 
Q 1341 4750 2034 4750 
Q 2731 4750 3128 4425 
Q 3525 4100 3525 3541 
Q 3525 3141 3298 2862 
Q 3072 2584 2669 2484 
Q 3125 2378 3379 2068 
Q 3634 1759 3634 1313 
Q 3634 634 3220 271 
Q 2806 -91 2034 -91 
Q 1263 -91 848 271 
Q 434 634 434 1313 
Q 434 1759 690 2068 
Q 947 2378 1403 2484 
z
M 1172 3481 
Q 1172 3119 1398 2916 
Q 1625 2713 2034 2713 
Q 2441 2713 2670 2916 
Q 2900 3119 2900 3481 
Q 2900 3844 2670 4047 
Q 2441 4250 2034 4250 
Q 1625 4250 1398 4047 
Q 1172 3844 1172 3481 
z
" transform="scale(0.015625)"/>
      </defs>
      <use xlink:href="#DejaVuSans-38" transform="translate(0 0.78125)"/>
      <use xlink:href="#DejaVuSans-Oblique-52" transform="translate(63.623047 0.78125)"/>
     </g>
    </g>
   </g>
   <g id="patch_12">
    <path d="M 240.5556 111.699 
C 241.529426 111.699 242.463497 111.312095 243.152096 110.623496 
C 243.840695 109.934897 244.2276 109.000826 244.2276 108.027 
C 244.2276 107.053174 243.840695 106.119103 243.152096 105.430504 
C 242.463497 104.741905 241.529426 104.355 240.5556 104.355 
C 239.581774 104.355 238.647703 104.741905 237.959104 105.430504 
C 237.270505 106.119103 236.8836 107.053174 236.8836 108.027 
C 236.8836 109.000826 237.270505 109.934897 237.959104 110.623496 
C 238.647703 111.312095 239.581774 111.699 240.5556 111.699 
z
" clip-path="url(#pf7ac9d54d1)" style="fill: #ffffff; stroke: #000000; stroke-width: 2; stroke-linejoin: miter"/>
   </g>
   <g id="patch_13">
    <path d="M 228.3156 134.955 
C 229.289426 134.955 230.223497 134.568095 230.912096 133.879496 
C 231.600695 133.190897 231.9876 132.256826 231.9876 131.283 
C 231.9876 130.309174 231.600695 129.375103 230.912096 128.686504 
C 230.223497 127.997905 229.289426 127.611 228.3156 127.611 
C 227.341774 127.611 226.407703 127.997905 225.719104 128.686504 
C 225.030505 129.375103 224.6436 130.309174 224.6436 131.283 
C 224.6436 132.256826 225.030505 133.190897 225.719104 133.879496 
C 226.407703 134.568095 227.341774 134.955 228.3156 134.955 
z
" clip-path="url(#pf7ac9d54d1)" style="fill: #ffffff; stroke: #000000; stroke-width: 2; stroke-linejoin: miter"/>
   </g>
   <g id="patch_14">
    <path d="M 252.7956 134.955 
C 253.769426 134.955 254.703497 134.568095 255.392096 133.879496 
C 256.080695 133.190897 256.4676 132.256826 256.4676 131.283 
C 256.4676 130.309174 256.080695 129.375103 255.392096 128.686504 
C 254.703497 127.997905 253.769426 127.611 252.7956 127.611 
C 251.821774 127.611 250.887703 127.997905 250.199104 128.686504 
C 249.510505 129.375103 249.1236 130.309174 249.1236 131.283 
C 249.1236 132.256826 249.510505 133.190897 250.199104 133.879496 
C 250.887703 134.568095 251.821774 134.955 252.7956 134.955 
z
" clip-path="url(#pf7ac9d54d1)" style="fill: #ffffff; stroke: #000000; stroke-width: 2; stroke-linejoin: miter"/>
   </g>
   <g id="text_7">
    <g clip-path="url(#pf7ac9d54d1)">
     <!-- $Z_1$ -->
     <g transform="translate(207.0836 123.104219) scale(0.125 -0.125)">
      <defs>
       <path id="DejaVuSans-31" d="M 794 531 
L 1825 531 
L 1825 4091 
L 703 3866 
L 703 4441 
L 1819 4666 
L 2450 4666 
L 2450 531 
L 3481 531 
L 3481 0 
L 794 0 
L 794 531 
z
" transform="scale(0.015625)"/>
      </defs>
      <use xlink:href="#DejaVuSans-Oblique-5a" transform="translate(0 0.09375)"/>
      <use xlink:href="#DejaVuSans-31" transform="translate(68.505859 -16.3125) scale(0.7)"/>
     </g>
    </g>
   </g>
   <g id="patch_15">
    <path d="M 301.7556 14.85 
C 302.364241 14.85 302.948036 14.608184 303.37841 14.17781 
C 303.808784 13.747436 304.0506 13.163641 304.0506 12.555 
C 304.0506 11.946359 303.808784 11.362564 303.37841 10.93219 
C 302.948036 10.501816 302.364241 10.26 301.7556 10.26 
C 301.146959 10.26 300.563164 10.501816 300.13279 10.93219 
C 299.702416 11.362564 299.4606 11.946359 299.4606 12.555 
C 299.4606 13.163641 299.702416 13.747436 300.13279 14.17781 
C 300.563164 14.608184 301.146959 14.85 301.7556 14.85 
z
" clip-path="url(#pf7ac9d54d1)" style="stroke: #000000; stroke-width: 2; stroke-linejoin: miter"/>
   </g>
   <g id="text_8">
    <g clip-path="url(#pf7ac9d54d1)">
     <!-- $16R$ -->
     <g transform="translate(266.4206 61.904219) scale(0.125 -0.125)">
      <defs>
       <path id="DejaVuSans-36" d="M 2113 2584 
Q 1688 2584 1439 2293 
Q 1191 2003 1191 1497 
Q 1191 994 1439 701 
Q 1688 409 2113 409 
Q 2538 409 2786 701 
Q 3034 994 3034 1497 
Q 3034 2003 2786 2293 
Q 2538 2584 2113 2584 
z
M 3366 4563 
L 3366 3988 
Q 3128 4100 2886 4159 
Q 2644 4219 2406 4219 
Q 1781 4219 1451 3797 
Q 1122 3375 1075 2522 
Q 1259 2794 1537 2939 
Q 1816 3084 2150 3084 
Q 2853 3084 3261 2657 
Q 3669 2231 3669 1497 
Q 3669 778 3244 343 
Q 2819 -91 2113 -91 
Q 1303 -91 875 529 
Q 447 1150 447 2328 
Q 447 3434 972 4092 
Q 1497 4750 2381 4750 
Q 2619 4750 2861 4703 
Q 3103 4656 3366 4563 
z
" transform="scale(0.015625)"/>
      </defs>
      <use xlink:href="#DejaVuSans-31" transform="translate(0 0.78125)"/>
      <use xlink:href="#DejaVuSans-36" transform="translate(63.623047 0.78125)"/>
      <use xlink:href="#DejaVuSans-Oblique-52" transform="translate(127.246094 0.78125)"/>
     </g>
    </g>
   </g>
   <g id="patch_16">
    <path d="M 301.7556 111.699 
C 302.729426 111.699 303.663497 111.312095 304.352096 110.623496 
C 305.040695 109.934897 305.4276 109.000826 305.4276 108.027 
C 305.4276 107.053174 305.040695 106.119103 304.352096 105.430504 
C 303.663497 104.741905 302.729426 104.355 301.7556 104.355 
C 300.781774 104.355 299.847703 104.741905 299.159104 105.430504 
C 298.470505 106.119103 298.0836 107.053174 298.0836 108.027 
C 298.0836 109.000826 298.470505 109.934897 299.159104 110.623496 
C 299.847703 111.312095 300.781774 111.699 301.7556 111.699 
z
" clip-path="url(#pf7ac9d54d1)" style="fill: #ffffff; stroke: #000000; stroke-width: 2; stroke-linejoin: miter"/>
   </g>
   <g id="patch_17">
    <path d="M 289.5156 134.955 
C 290.489426 134.955 291.423497 134.568095 292.112096 133.879496 
C 292.800695 133.190897 293.1876 132.256826 293.1876 131.283 
C 293.1876 130.309174 292.800695 129.375103 292.112096 128.686504 
C 291.423497 127.997905 290.489426 127.611 289.5156 127.611 
C 288.541774 127.611 287.607703 127.997905 286.919104 128.686504 
C 286.230505 129.375103 285.8436 130.309174 285.8436 131.283 
C 285.8436 132.256826 286.230505 133.190897 286.919104 133.879496 
C 287.607703 134.568095 288.541774 134.955 289.5156 134.955 
z
" clip-path="url(#pf7ac9d54d1)" style="fill: #ffffff; stroke: #000000; stroke-width: 2; stroke-linejoin: miter"/>
   </g>
   <g id="patch_18">
    <path d="M 313.9956 134.955 
C 314.969426 134.955 315.903497 134.568095 316.592096 133.879496 
C 317.280695 133.190897 317.6676 132.256826 317.6676 131.283 
C 317.6676 130.309174 317.280695 129.375103 316.592096 128.686504 
C 315.903497 127.997905 314.969426 127.611 313.9956 127.611 
C 313.021774 127.611 312.087703 127.997905 311.399104 128.686504 
C 310.710505 129.375103 310.3236 130.309174 310.3236 131.283 
C 310.3236 132.256826 310.710505 133.190897 311.399104 133.879496 
C 312.087703 134.568095 313.021774 134.955 313.9956 134.955 
z
" clip-path="url(#pf7ac9d54d1)" style="fill: #ffffff; stroke: #000000; stroke-width: 2; stroke-linejoin: miter"/>
   </g>
   <g id="text_9">
    <g clip-path="url(#pf7ac9d54d1)">
     <!-- $Z_0$ -->
     <g transform="translate(268.2836 123.104219) scale(0.125 -0.125)">
      <defs>
       <path id="DejaVuSans-30" d="M 2034 4250 
Q 1547 4250 1301 3770 
Q 1056 3291 1056 2328 
Q 1056 1369 1301 889 
Q 1547 409 2034 409 
Q 2525 409 2770 889 
Q 3016 1369 3016 2328 
Q 3016 3291 2770 3770 
Q 2525 4250 2034 4250 
z
M 2034 4750 
Q 2819 4750 3233 4129 
Q 3647 3509 3647 2328 
Q 3647 1150 3233 529 
Q 2819 -91 2034 -91 
Q 1250 -91 836 529 
Q 422 1150 422 2328 
Q 422 3509 836 4129 
Q 1250 4750 2034 4750 
z
" transform="scale(0.015625)"/>
      </defs>
      <use xlink:href="#DejaVuSans-Oblique-5a" transform="translate(0 0.09375)"/>
      <use xlink:href="#DejaVuSans-30" transform="translate(68.505859 -16.3125) scale(0.7)"/>
     </g>
    </g>
   </g>
   <g id="patch_19">
    <path d="M 130.3956 164.178 
C 131.004241 164.178 131.588036 163.936184 132.01841 163.50581 
C 132.448784 163.075436 132.6906 162.491641 132.6906 161.883 
C 132.6906 161.274359 132.448784 160.690564 132.01841 160.26019 
C 131.588036 159.829816 131.004241 159.588 130.3956 159.588 
C 129.786959 159.588 129.203164 159.829816 128.77279 160.26019 
C 128.342416 160.690564 128.1006 161.274359 128.1006 161.883 
C 128.1006 162.491641 128.342416 163.075436 128.77279 163.50581 
C 129.203164 163.936184 129.786959 164.178 130.3956 164.178 
z
" clip-path="url(#pf7ac9d54d1)" style="stroke: #000000; stroke-width: 2; stroke-linejoin: miter"/>
   </g>
   <g id="patch_20">
    <path d="M 191.5956 164.178 
C 192.204241 164.178 192.788036 163.936184 193.21841 163.50581 
C 193.648784 163.075436 193.8906 162.491641 193.8906 161.883 
C 193.8906 161.274359 193.648784 160.690564 193.21841 160.26019 
C 192.788036 159.829816 192.204241 159.588 191.5956 159.588 
C 190.986959 159.588 190.403164 159.829816 189.97279 160.26019 
C 189.542416 160.690564 189.3006 161.274359 189.3006 161.883 
C 189.3006 162.491641 189.542416 163.075436 189.97279 163.50581 
C 190.403164 163.936184 190.986959 164.178 191.5956 164.178 
z
" clip-path="url(#pf7ac9d54d1)" style="stroke: #000000; stroke-width: 2; stroke-linejoin: miter"/>
   </g>
   <g id="patch_21">
    <path d="M 252.7956 164.178 
C 253.404241 164.178 253.988036 163.936184 254.41841 163.50581 
C 254.848784 163.075436 255.0906 162.491641 255.0906 161.883 
C 255.0906 161.274359 254.848784 160.690564 254.41841 160.26019 
C 253.988036 159.829816 253.404241 159.588 252.7956 159.588 
C 252.186959 159.588 251.603164 159.829816 251.17279 160.26019 
C 250.742416 160.690564 250.5006 161.274359 250.5006 161.883 
C 250.5006 162.491641 250.742416 163.075436 251.17279 163.50581 
C 251.603164 163.936184 252.186959 164.178 252.7956 164.178 
z
" clip-path="url(#pf7ac9d54d1)" style="stroke: #000000; stroke-width: 2; stroke-linejoin: miter"/>
   </g>
   <g id="patch_22">
    <path d="M 313.9956 164.178 
C 314.604241 164.178 315.188036 163.936184 315.61841 163.50581 
C 316.048784 163.075436 316.2906 162.491641 316.2906 161.883 
C 316.2906 161.274359 316.048784 160.690564 315.61841 160.26019 
C 315.188036 159.829816 314.604241 159.588 313.9956 159.588 
C 313.386959 159.588 312.803164 159.829816 312.37279 160.26019 
C 311.942416 160.690564 311.7006 161.274359 311.7006 161.883 
C 311.7006 162.491641 311.942416 163.075436 312.37279 163.50581 
C 312.803164 163.936184 313.386959 164.178 313.9956 164.178 
z
" clip-path="url(#pf7ac9d54d1)" style="stroke: #000000; stroke-width: 2; stroke-linejoin: miter"/>
   </g>
   <g id="patch_23">
    <path d="M 289.5156 194.778 
C 290.124241 194.778 290.708036 194.536184 291.13841 194.10581 
C 291.568784 193.675436 291.8106 193.091641 291.8106 192.483 
C 291.8106 191.874359 291.568784 191.290564 291.13841 190.86019 
C 290.708036 190.429816 290.124241 190.188 289.5156 190.188 
C 288.906959 190.188 288.323164 190.429816 287.89279 190.86019 
C 287.462416 191.290564 287.2206 191.874359 287.2206 192.483 
C 287.2206 193.091641 287.462416 193.675436 287.89279 194.10581 
C 288.323164 194.536184 288.906959 194.778 289.5156 194.778 
z
" clip-path="url(#pf7ac9d54d1)" style="stroke: #000000; stroke-width: 2; stroke-linejoin: miter"/>
   </g>
   <g id="patch_24">
    <path d="M 228.3156 194.778 
C 228.924241 194.778 229.508036 194.536184 229.93841 194.10581 
C 230.368784 193.675436 230.6106 193.091641 230.6106 192.483 
C 230.6106 191.874359 230.368784 191.290564 229.93841 190.86019 
C 229.508036 190.429816 228.924241 190.188 228.3156 190.188 
C 227.706959 190.188 227.123164 190.429816 226.69279 190.86019 
C 226.262416 191.290564 226.0206 191.874359 226.0206 192.483 
C 226.0206 193.091641 226.262416 193.675436 226.69279 194.10581 
C 227.123164 194.536184 227.706959 194.778 228.3156 194.778 
z
" clip-path="url(#pf7ac9d54d1)" style="stroke: #000000; stroke-width: 2; stroke-linejoin: miter"/>
   </g>
   <g id="patch_25">
    <path d="M 167.1156 194.778 
C 167.724241 194.778 168.308036 194.536184 168.73841 194.10581 
C 169.168784 193.675436 169.4106 193.091641 169.4106 192.483 
C 169.4106 191.874359 169.168784 191.290564 168.73841 190.86019 
C 168.308036 190.429816 167.724241 190.188 167.1156 190.188 
C 166.506959 190.188 165.923164 190.429816 165.49279 190.86019 
C 165.062416 191.290564 164.8206 191.874359 164.8206 192.483 
C 164.8206 193.091641 165.062416 193.675436 165.49279 194.10581 
C 165.923164 194.536184 166.506959 194.778 167.1156 194.778 
z
" clip-path="url(#pf7ac9d54d1)" style="stroke: #000000; stroke-width: 2; stroke-linejoin: miter"/>
   </g>
   <g id="patch_26">
    <path d="M 105.9156 194.778 
C 106.524241 194.778 107.108036 194.536184 107.53841 194.10581 
C 107.968784 193.675436 108.2106 193.091641 108.2106 192.483 
C 108.2106 191.874359 107.968784 191.290564 107.53841 190.86019 
C 107.108036 190.429816 106.524241 190.188 105.9156 190.188 
C 105.306959 190.188 104.723164 190.429816 104.29279 190.86019 
C 103.862416 191.290564 103.6206 191.874359 103.6206 192.483 
C 103.6206 193.091641 103.862416 193.675436 104.29279 194.10581 
C 104.723164 194.536184 105.306959 194.778 105.9156 194.778 
z
" clip-path="url(#pf7ac9d54d1)" style="stroke: #000000; stroke-width: 2; stroke-linejoin: miter"/>
   </g>
   <g id="patch_27">
    <path d="M 335.4156 194.778 
C 336.024241 194.778 336.608036 194.536184 337.03841 194.10581 
C 337.468784 193.675436 337.7106 193.091641 337.7106 192.483 
C 337.7106 191.874359 337.468784 191.290564 337.03841 190.86019 
C 336.608036 190.429816 336.024241 190.188 335.4156 190.188 
C 334.806959 190.188 334.223164 190.429816 333.79279 190.86019 
C 333.362416 191.290564 333.1206 191.874359 333.1206 192.483 
C 333.1206 193.091641 333.362416 193.675436 333.79279 194.10581 
C 334.223164 194.536184 334.806959 194.778 335.4156 194.778 
z
" clip-path="url(#pf7ac9d54d1)" style="stroke: #000000; stroke-width: 2; stroke-linejoin: miter"/>
   </g>
   <g id="patch_28">
    <path d="M 432.266543 213.903 
C 432.875185 213.903 433.458979 213.661184 433.889353 213.23081 
C 434.319728 212.800436 434.561543 212.216641 434.561543 211.608 
C 434.561543 210.999359 434.319728 210.415564 433.889353 209.98519 
C 433.458979 209.554816 432.875185 209.313 432.266543 209.313 
C 431.657902 209.313 431.074108 209.554816 430.643733 209.98519 
C 430.213359 210.415564 429.971543 210.999359 429.971543 211.608 
C 429.971543 212.216641 430.213359 212.800436 430.643733 213.23081 
C 431.074108 213.661184 431.657902 213.903 432.266543 213.903 
z
" clip-path="url(#pf7ac9d54d1)" style="stroke: #000000; stroke-width: 2; stroke-linejoin: miter"/>
   </g>
   <g id="text_10">
    <g clip-path="url(#pf7ac9d54d1)">
     <!-- $R_F$ -->
     <g transform="translate(379.304043 137.098391) scale(0.125 -0.125)">
      <defs>
       <path id="DejaVuSans-Oblique-46" d="M 1081 4666 
L 3756 4666 
L 3653 4134 
L 1606 4134 
L 1338 2759 
L 3188 2759 
L 3084 2228 
L 1234 2228 
L 800 0 
L 172 0 
L 1081 4666 
z
" transform="scale(0.015625)"/>
      </defs>
      <use xlink:href="#DejaVuSans-Oblique-52" transform="translate(0 0.09375)"/>
      <use xlink:href="#DejaVuSans-Oblique-46" transform="translate(69.482422 -16.3125) scale(0.7)"/>
     </g>
    </g>
   </g>
   <g id="text_11">
    <g clip-path="url(#pf7ac9d54d1)">
     <!-- + -->
     <g transform="translate(457.629239 230.357219) scale(0.125 -0.125)">
      <defs>
       <path id="DejaVuSans-2b" d="M 2944 4013 
L 2944 2272 
L 4684 2272 
L 4684 1741 
L 2944 1741 
L 2944 0 
L 2419 0 
L 2419 1741 
L 678 1741 
L 678 2272 
L 2419 2272 
L 2419 4013 
L 2944 4013 
z
" transform="scale(0.015625)"/>
      </defs>
      <use xlink:href="#DejaVuSans-2b"/>
     </g>
    </g>
   </g>
   <g id="text_12">
    <g clip-path="url(#pf7ac9d54d1)">
     <!-- $U_a$ -->
     <g transform="translate(455.429043 245.657219) scale(0.125 -0.125)">
      <defs>
       <path id="DejaVuSans-Oblique-55" d="M 991 4666 
L 1625 4666 
L 1075 1831 
Q 1041 1641 1027 1517 
Q 1013 1394 1013 1300 
Q 1013 869 1253 645 
Q 1494 422 1959 422 
Q 2563 422 2898 753 
Q 3234 1084 3378 1831 
L 3928 4666 
L 4563 4666 
L 4000 1753 
Q 3816 809 3300 359 
Q 2784 -91 1888 -91 
Q 1188 -91 780 261 
Q 372 613 372 1216 
Q 372 1325 387 1461 
Q 403 1597 434 1753 
L 991 4666 
z
" transform="scale(0.015625)"/>
       <path id="DejaVuSans-Oblique-61" d="M 3438 1997 
L 3047 0 
L 2472 0 
L 2578 531 
Q 2325 219 2001 64 
Q 1678 -91 1281 -91 
Q 834 -91 548 182 
Q 263 456 263 884 
Q 263 1497 752 1853 
Q 1241 2209 2100 2209 
L 2900 2209 
L 2931 2363 
Q 2938 2388 2941 2417 
Q 2944 2447 2944 2509 
Q 2944 2788 2717 2942 
Q 2491 3097 2081 3097 
Q 1800 3097 1504 3025 
Q 1209 2953 897 2809 
L 997 3341 
Q 1322 3463 1633 3523 
Q 1944 3584 2234 3584 
Q 2853 3584 3176 3315 
Q 3500 3047 3500 2534 
Q 3500 2431 3484 2292 
Q 3469 2153 3438 1997 
z
M 2816 1759 
L 2241 1759 
Q 1534 1759 1195 1570 
Q 856 1381 856 984 
Q 856 709 1029 553 
Q 1203 397 1509 397 
Q 1978 397 2328 733 
Q 2678 1069 2791 1631 
L 2816 1759 
z
" transform="scale(0.015625)"/>
      </defs>
      <use xlink:href="#DejaVuSans-Oblique-55" transform="translate(0 0.09375)"/>
      <use xlink:href="#DejaVuSans-Oblique-61" transform="translate(73.193359 -16.3125) scale(0.7)"/>
     </g>
    </g>
   </g>
   <g id="text_13">
    <g clip-path="url(#pf7ac9d54d1)">
     <!-- - -->
     <g transform="translate(460.611661 260.957219) scale(0.125 -0.125)">
      <defs>
       <path id="DejaVuSans-2d" d="M 313 2009 
L 1997 2009 
L 1997 1497 
L 313 1497 
L 313 2009 
z
" transform="scale(0.015625)"/>
      </defs>
      <use xlink:href="#DejaVuSans-2d"/>
     </g>
    </g>
   </g>
   <g id="patch_29">
    <path d="M 462.866543 213.903 
C 463.475185 213.903 464.058979 213.661184 464.489353 213.23081 
C 464.919728 212.800436 465.161543 212.216641 465.161543 211.608 
C 465.161543 210.999359 464.919728 210.415564 464.489353 209.98519 
C 464.058979 209.554816 463.475185 209.313 462.866543 209.313 
C 462.257902 209.313 461.674108 209.554816 461.243733 209.98519 
C 460.813359 210.415564 460.571543 210.999359 460.571543 211.608 
C 460.571543 212.216641 460.813359 212.800436 461.243733 213.23081 
C 461.674108 213.661184 462.257902 213.903 462.866543 213.903 
z
" clip-path="url(#pf7ac9d54d1)" style="fill: #ffffff; stroke: #000000; stroke-width: 2; stroke-linejoin: miter"/>
   </g>
   <g id="patch_30">
    <path d="M 462.866543 275.103 
C 463.475185 275.103 464.058979 274.861184 464.489353 274.43081 
C 464.919728 274.000436 465.161543 273.416641 465.161543 272.808 
C 465.161543 272.199359 464.919728 271.615564 464.489353 271.18519 
C 464.058979 270.754816 463.475185 270.513 462.866543 270.513 
C 462.257902 270.513 461.674108 270.754816 461.243733 271.18519 
C 460.813359 271.615564 460.571543 272.199359 460.571543 272.808 
C 460.571543 273.416641 460.813359 274.000436 461.243733 274.43081 
C 461.674108 274.861184 462.257902 275.103 462.866543 275.103 
z
" clip-path="url(#pf7ac9d54d1)" style="fill: #ffffff; stroke: #000000; stroke-width: 2; stroke-linejoin: miter"/>
   </g>
  </g>
 </g>
 <defs>
  <clipPath id="pf7ac9d54d1">
   <rect x="7.2" y="7.2" width="479.677343" height="288.252"/>
  </clipPath>
 </defs>
</svg>