<?xml version="1.0" encoding="utf-8" standalone="no"?>
<!DOCTYPE svg PUBLIC "-//W3C//DTD SVG 1.1//EN"
  "http://www.w3.org/Graphics/SVG/1.1/DTD/svg11.dtd">
<svg xmlns:xlink="http://www.w3.org/1999/xlink" width="285.21pt" height="112.32pt" viewBox="0 0 285.21 112.32" xmlns="http://www.w3.org/2000/svg" version="1.1">
 <metadata>
  <rdf:RDF xmlns:dc="http://purl.org/dc/elements/1.1/" xmlns:cc="http://creativecommons.org/ns#" xmlns:rdf="http://www.w3.org/1999/02/22-rdf-syntax-ns#">
   <cc:Work>
    <dc:type rdf:resource="http://purl.org/dc/dcmitype/StillImage"/>
    <dc:date>2023-04-23T18:40:04.170222</dc:date>
    <dc:format>image/svg+xml</dc:format>
    <dc:creator>
     <cc:Agent>
      <dc:title>Matplotlib v3.7.1, https://matplotlib.org/</dc:title>
     </cc:Agent>
    </dc:creator>
   </cc:Work>
  </rdf:RDF>
 </metadata>
 <defs>
  <style type="text/css">*{stroke-linejoin: round; stroke-linecap: butt}</style>
 </defs>
 <g id="figure_1">
  <g id="patch_1">
   <path d="M 0 112.32 
L 285.21 112.32 
L 285.21 0 
L 0 0 
z
" style="fill: #ffffff"/>
  </g>
  <g id="axes_1">
   <g id="patch_2">
    <path d="M 73.755 56.16 
C 77.812607 56.16 81.704572 54.547895 84.573734 51.678734 
C 87.442895 48.809572 89.055 44.917607 89.055 40.86 
C 89.055 36.802393 87.442895 32.910428 84.573734 30.041266 
C 81.704572 27.172105 77.812607 25.56 73.755 25.56 
C 69.697393 25.56 65.805428 27.172105 62.936266 30.041266 
C 60.067105 32.910428 58.455 36.802393 58.455 40.86 
C 58.455 44.917607 60.067105 48.809572 62.936266 51.678734 
C 65.805428 54.547895 69.697393 56.16 73.755 56.16 
L 73.755 56.16 
z
" clip-path="url(#pcf0847f426)" style="fill: none; stroke: #000000; stroke-width: 2; stroke-linejoin: miter"/>
   </g>
   <g id="line2d_1">
    <path d="M 12.555 40.86 
L 35.505 40.86 
L 58.455 40.86 
" clip-path="url(#pcf0847f426)" style="fill: none; stroke: #000000; stroke-width: 2; stroke-linecap: round"/>
   </g>
   <g id="line2d_2">
    <path d="M 104.355 71.46 
L 211.455 71.46 
L 211.455 10.26 
L 104.355 10.26 
L 104.355 71.46 
" clip-path="url(#pcf0847f426)" style="fill: none; stroke: #000000; stroke-width: 2; stroke-linecap: round"/>
   </g>
   <g id="line2d_3">
    <path d="M 104.355 40.86 
L 89.055 40.86 
" clip-path="url(#pcf0847f426)" style="fill: none; stroke: #000000; stroke-width: 2; stroke-linecap: round"/>
   </g>
   <g id="line2d_4">
    <path d="M 211.455 40.86 
L 226.755 40.86 
" clip-path="url(#pcf0847f426)" style="fill: none; stroke: #000000; stroke-width: 2; stroke-linecap: round"/>
   </g>
   <g id="line2d_5">
    <path d="M 226.755 40.86 
L 249.705 40.86 
L 272.655 40.86 
" clip-path="url(#pcf0847f426)" style="fill: none; stroke: #000000; stroke-width: 2; stroke-linecap: round"/>
   </g>
   <g id="line2d_6">
    <path d="M 226.755 40.86 
L 226.755 71.46 
L 226.755 102.06 
" clip-path="url(#pcf0847f426)" style="fill: none; stroke: #000000; stroke-width: 2; stroke-linecap: round"/>
   </g>
   <g id="line2d_7">
    <path d="M 226.755 102.06 
L 73.755 102.06 
L 73.755 56.16 
" clip-path="url(#pcf0847f426)" style="fill: none; stroke: #000000; stroke-width: 2; stroke-linecap: round"/>
   </g>
   <g id="patch_3">
    <path d="M 12.555 43.155 
C 13.163641 43.155 13.747436 42.913184 14.17781 42.48281 
C 14.608184 42.052436 14.85 41.468641 14.85 40.86 
C 14.85 40.251359 14.608184 39.667564 14.17781 39.23719 
C 13.747436 38.806816 13.163641 38.565 12.555 38.565 
C 11.946359 38.565 11.362564 38.806816 10.93219 39.23719 
C 10.501816 39.667564 10.26 40.251359 10.26 40.86 
C 10.26 41.468641 10.501816 42.052436 10.93219 42.48281 
C 11.362564 42.913184 11.946359 43.155 12.555 43.155 
z
" clip-path="url(#pcf0847f426)" style="fill: #ffffff; stroke: #000000; stroke-width: 2; stroke-linejoin: miter"/>
   </g>
   <g id="text_1">
    <g clip-path="url(#pcf0847f426)">
     <!-- + -->
     <g transform="translate(47.980391 35.129219) scale(0.125 -0.125)">
      <defs>
       <path id="DejaVuSans-2b" d="M 2944 4013 
L 2944 2272 
L 4684 2272 
L 4684 1741 
L 2944 1741 
L 2944 0 
L 2419 0 
L 2419 1741 
L 678 1741 
L 678 2272 
L 2419 2272 
L 2419 4013 
L 2944 4013 
z
" transform="scale(0.015625)"/>
      </defs>
      <use xlink:href="#DejaVuSans-2b"/>
     </g>
    </g>
   </g>
   <g id="text_2">
    <g clip-path="url(#pcf0847f426)">
     <!-- - -->
     <g transform="translate(80.680117 65.658047) scale(0.125 -0.125)">
      <defs>
       <path id="DejaVuSans-2d" d="M 313 2009 
L 1997 2009 
L 1997 1497 
L 313 1497 
L 313 2009 
z
" transform="scale(0.015625)"/>
      </defs>
      <use xlink:href="#DejaVuSans-2d"/>
     </g>
    </g>
   </g>
   <g id="text_3">
    <g clip-path="url(#pcf0847f426)">
     <!-- $F_O(s)$ -->
     <g transform="translate(142.53 41.249219) scale(0.125 -0.125)">
      <defs>
       <path id="DejaVuSans-Oblique-46" d="M 1081 4666 
L 3756 4666 
L 3653 4134 
L 1606 4134 
L 1338 2759 
L 3188 2759 
L 3084 2228 
L 1234 2228 
L 800 0 
L 172 0 
L 1081 4666 
z
" transform="scale(0.015625)"/>
       <path id="DejaVuSans-Oblique-4f" d="M 2919 4238 
Q 2400 4238 2003 3986 
Q 1606 3734 1313 3219 
Q 1125 2891 1026 2522 
Q 928 2153 928 1778 
Q 928 1128 1239 775 
Q 1550 422 2119 422 
Q 2631 422 3032 676 
Q 3434 931 3719 1434 
Q 3909 1772 4009 2142 
Q 4109 2513 4109 2881 
Q 4109 3528 3796 3883 
Q 3484 4238 2919 4238 
z
M 2100 -91 
Q 1241 -91 748 418 
Q 256 928 256 1813 
Q 256 2319 448 2847 
Q 641 3375 978 3788 
Q 1375 4272 1862 4511 
Q 2350 4750 2938 4750 
Q 3794 4750 4287 4245 
Q 4781 3741 4781 2869 
Q 4781 2331 4593 1812 
Q 4406 1294 4056 872 
Q 3656 384 3173 146 
Q 2691 -91 2100 -91 
z
" transform="scale(0.015625)"/>
       <path id="DejaVuSans-28" d="M 1984 4856 
Q 1566 4138 1362 3434 
Q 1159 2731 1159 2009 
Q 1159 1288 1364 580 
Q 1569 -128 1984 -844 
L 1484 -844 
Q 1016 -109 783 600 
Q 550 1309 550 2009 
Q 550 2706 781 3412 
Q 1013 4119 1484 4856 
L 1984 4856 
z
" transform="scale(0.015625)"/>
       <path id="DejaVuSans-Oblique-73" d="M 3200 3397 
L 3091 2853 
Q 2863 2978 2609 3040 
Q 2356 3103 2088 3103 
Q 1634 3103 1373 2948 
Q 1113 2794 1113 2528 
Q 1113 2219 1719 2053 
Q 1766 2041 1788 2034 
L 1972 1978 
Q 2547 1819 2739 1644 
Q 2931 1469 2931 1166 
Q 2931 609 2489 259 
Q 2047 -91 1331 -91 
Q 1053 -91 747 -37 
Q 441 16 72 128 
L 184 722 
Q 500 559 806 475 
Q 1113 391 1394 391 
Q 1816 391 2080 572 
Q 2344 753 2344 1031 
Q 2344 1331 1650 1516 
L 1591 1531 
L 1394 1581 
Q 956 1697 753 1886 
Q 550 2075 550 2369 
Q 550 2928 970 3256 
Q 1391 3584 2113 3584 
Q 2397 3584 2667 3537 
Q 2938 3491 3200 3397 
z
" transform="scale(0.015625)"/>
       <path id="DejaVuSans-29" d="M 513 4856 
L 1013 4856 
Q 1481 4119 1714 3412 
Q 1947 2706 1947 2009 
Q 1947 1309 1714 600 
Q 1481 -109 1013 -844 
L 513 -844 
Q 928 -128 1133 580 
Q 1338 1288 1338 2009 
Q 1338 2731 1133 3434 
Q 928 4138 513 4856 
z
" transform="scale(0.015625)"/>
      </defs>
      <use xlink:href="#DejaVuSans-Oblique-46" transform="translate(0 0.125)"/>
      <use xlink:href="#DejaVuSans-Oblique-4f" transform="translate(57.519531 -16.28125) scale(0.7)"/>
      <use xlink:href="#DejaVuSans-28" transform="translate(115.351562 0.125)"/>
      <use xlink:href="#DejaVuSans-Oblique-73" transform="translate(154.365234 0.125)"/>
      <use xlink:href="#DejaVuSans-29" transform="translate(206.464844 0.125)"/>
     </g>
    </g>
   </g>
   <g id="patch_4">
    <path d="M 272.655 43.155 
C 273.263641 43.155 273.847436 42.913184 274.27781 42.48281 
C 274.708184 42.052436 274.95 41.468641 274.95 40.86 
C 274.95 40.251359 274.708184 39.667564 274.27781 39.23719 
C 273.847436 38.806816 273.263641 38.565 272.655 38.565 
C 272.046359 38.565 271.462564 38.806816 271.03219 39.23719 
C 270.601816 39.667564 270.36 40.251359 270.36 40.86 
C 270.36 41.468641 270.601816 42.052436 271.03219 42.48281 
C 271.462564 42.913184 272.046359 43.155 272.655 43.155 
z
" clip-path="url(#pcf0847f426)" style="fill: #ffffff; stroke: #000000; stroke-width: 2; stroke-linejoin: miter"/>
   </g>
   <g id="patch_5">
    <path d="M 226.755 43.155 
C 227.363641 43.155 227.947436 42.913184 228.37781 42.48281 
C 228.808184 42.052436 229.05 41.468641 229.05 40.86 
C 229.05 40.251359 228.808184 39.667564 228.37781 39.23719 
C 227.947436 38.806816 227.363641 38.565 226.755 38.565 
C 226.146359 38.565 225.562564 38.806816 225.13219 39.23719 
C 224.701816 39.667564 224.46 40.251359 224.46 40.86 
C 224.46 41.468641 224.701816 42.052436 225.13219 42.48281 
C 225.562564 42.913184 226.146359 43.155 226.755 43.155 
z
" clip-path="url(#pcf0847f426)" style="stroke: #000000; stroke-width: 2; stroke-linejoin: miter"/>
   </g>
  </g>
 </g>
 <defs>
  <clipPath id="pcf0847f426">
   <rect x="7.2" y="7.2" width="270.81" height="97.92"/>
  </clipPath>
 </defs>
</svg>