<?xml version="1.0" encoding="utf-8" standalone="no"?>
<!DOCTYPE svg PUBLIC "-//W3C//DTD SVG 1.1//EN"
  "http://www.w3.org/Graphics/SVG/1.1/DTD/svg11.dtd">
<svg xmlns:xlink="http://www.w3.org/1999/xlink" width="562.196515pt" height="372.312pt" viewBox="0 0 562.196515 372.312" xmlns="http://www.w3.org/2000/svg" version="1.1">
 <metadata>
  <rdf:RDF xmlns:dc="http://purl.org/dc/elements/1.1/" xmlns:cc="http://creativecommons.org/ns#" xmlns:rdf="http://www.w3.org/1999/02/22-rdf-syntax-ns#">
   <cc:Work>
    <dc:type rdf:resource="http://purl.org/dc/dcmitype/StillImage"/>
    <dc:date>2023-06-14T16:51:34.696786</dc:date>
    <dc:format>image/svg+xml</dc:format>
    <dc:creator>
     <cc:Agent>
      <dc:title>Matplotlib v3.7.1, https://matplotlib.org/</dc:title>
     </cc:Agent>
    </dc:creator>
   </cc:Work>
  </rdf:RDF>
 </metadata>
 <defs>
  <style type="text/css">*{stroke-linejoin: round; stroke-linecap: butt}</style>
 </defs>
 <g id="figure_1">
  <g id="patch_1">
   <path d="M 0 372.312 
L 562.196515 372.312 
L 562.196515 0 
L 0 0 
z
" style="fill: #ffffff"/>
  </g>
  <g id="axes_1">
   <g id="line2d_1">
    <path d="M 46.827114 22.896 
L 46.827114 58.896 
L 64.827114 76.896 
L 46.827114 94.896 
L 28.827114 76.896 
L 46.827114 58.896 
M 46.827114 94.896 
L 46.827114 130.896 
" clip-path="url(#pff3e613508)" style="fill: none; stroke: #000000; stroke-width: 2; stroke-linecap: round"/>
   </g>
   <g id="line2d_2">
    <path d="M 43.227114 67.896 
L 50.427114 67.896 
" clip-path="url(#pff3e613508)" style="fill: none; stroke: #000000; stroke-width: 2; stroke-linecap: round"/>
   </g>
   <g id="line2d_3">
    <path d="M 46.827114 82.296 
L 46.827114 89.496 
" clip-path="url(#pff3e613508)" style="fill: none; stroke: #000000; stroke-width: 2; stroke-linecap: round"/>
   </g>
   <g id="line2d_4">
    <path d="M 43.227114 85.896 
L 50.427114 85.896 
" clip-path="url(#pff3e613508)" style="fill: none; stroke: #000000; stroke-width: 2; stroke-linecap: round"/>
   </g>
   <g id="line2d_5">
    <path d="M 61.227114 51.696 
L 61.227114 112.896 
" clip-path="url(#pff3e613508)" style="fill: none; stroke: #000000; stroke-width: 2; stroke-linecap: round"/>
   </g>
   <g id="patch_2">
    <path d="M 57.627114 51.696 
L 61.227114 40.896 
L 64.827114 51.696 
z
" clip-path="url(#pff3e613508)"/>
   </g>
   <g id="line2d_6">
    <path d="M 46.827114 130.896 
L 46.827114 145.296 
L 37.827114 145.296 
L 55.827114 145.296 
M 40.527114 149.616 
L 53.127114 149.616 
M 45.027114 153.936 
L 48.627114 153.936 
" clip-path="url(#pff3e613508)" style="fill: none; stroke: #000000; stroke-width: 2; stroke-linecap: round"/>
   </g>
   <g id="line2d_7">
    <path d="M 46.827114 22.896 
L 82.827114 22.896 
L 118.827114 22.896 
" clip-path="url(#pff3e613508)" style="fill: none; stroke: #000000; stroke-width: 2; stroke-linecap: round"/>
   </g>
   <g id="line2d_8">
    <path d="M 118.827114 22.896 
L 118.827114 58.896 
L 127.827114 58.896 
L 127.827114 94.896 
L 109.827114 94.896 
L 109.827114 58.896 
L 118.827114 58.896 
M 118.827114 94.896 
L 118.827114 130.896 
" clip-path="url(#pff3e613508)" style="fill: none; stroke: #000000; stroke-width: 2; stroke-linecap: round"/>
   </g>
   <g id="line2d_9">
    <path d="M 118.827114 130.896 
M 122.427114 139.536 
L 127.827114 156.096 
M 133.227114 166.896 
" clip-path="url(#pff3e613508)" style="fill: none; stroke: #000000; stroke-width: 2; stroke-linecap: round"/>
   </g>
   <g id="line2d_10">
    <path d="M 118.827114 22.896 
L 154.827114 22.896 
L 190.827114 22.896 
" clip-path="url(#pff3e613508)" style="fill: none; stroke: #000000; stroke-width: 2; stroke-linecap: round"/>
   </g>
   <g id="line2d_11">
    <path d="M 190.827114 22.896 
L 190.827114 58.896 
L 199.827114 58.896 
L 199.827114 94.896 
L 181.827114 94.896 
L 181.827114 58.896 
L 190.827114 58.896 
M 190.827114 94.896 
L 190.827114 130.896 
" clip-path="url(#pff3e613508)" style="fill: none; stroke: #000000; stroke-width: 2; stroke-linecap: round"/>
   </g>
   <g id="line2d_12">
    <path d="M 190.827114 130.896 
M 194.427114 139.536 
L 199.827114 156.096 
M 205.227114 166.896 
" clip-path="url(#pff3e613508)" style="fill: none; stroke: #000000; stroke-width: 2; stroke-linecap: round"/>
   </g>
   <g id="line2d_13">
    <path d="M 190.827114 22.896 
L 226.827114 22.896 
L 262.827114 22.896 
" clip-path="url(#pff3e613508)" style="fill: none; stroke: #000000; stroke-width: 2; stroke-linecap: round"/>
   </g>
   <g id="line2d_14">
    <path d="M 262.827114 22.896 
L 262.827114 58.896 
L 271.827114 58.896 
L 271.827114 94.896 
L 253.827114 94.896 
L 253.827114 58.896 
L 262.827114 58.896 
M 262.827114 94.896 
L 262.827114 130.896 
" clip-path="url(#pff3e613508)" style="fill: none; stroke: #000000; stroke-width: 2; stroke-linecap: round"/>
   </g>
   <g id="line2d_15">
    <path d="M 262.827114 130.896 
M 266.427114 139.536 
L 271.827114 156.096 
M 277.227114 166.896 
" clip-path="url(#pff3e613508)" style="fill: none; stroke: #000000; stroke-width: 2; stroke-linecap: round"/>
   </g>
   <g id="line2d_16">
    <path d="M 262.827114 22.896 
L 298.827114 22.896 
L 334.827114 22.896 
" clip-path="url(#pff3e613508)" style="fill: none; stroke: #000000; stroke-width: 2; stroke-linecap: round"/>
   </g>
   <g id="line2d_17">
    <path d="M 334.827114 22.896 
L 334.827114 58.896 
L 343.827114 58.896 
L 343.827114 94.896 
L 325.827114 94.896 
L 325.827114 58.896 
L 334.827114 58.896 
M 334.827114 94.896 
L 334.827114 130.896 
" clip-path="url(#pff3e613508)" style="fill: none; stroke: #000000; stroke-width: 2; stroke-linecap: round"/>
   </g>
   <g id="line2d_18">
    <path d="M 334.827114 130.896 
M 338.427114 139.536 
L 343.827114 156.096 
M 349.227114 166.896 
" clip-path="url(#pff3e613508)" style="fill: none; stroke: #000000; stroke-width: 2; stroke-linecap: round"/>
   </g>
   <g id="line2d_19">
    <path d="M 133.227114 162.576 
L 133.227114 180.576 
L 133.227114 198.576 
" clip-path="url(#pff3e613508)" style="fill: none; stroke: #000000; stroke-width: 2; stroke-linecap: round"/>
   </g>
   <g id="line2d_20">
    <path d="M 205.227114 162.576 
L 205.227114 180.576 
L 205.227114 198.576 
" clip-path="url(#pff3e613508)" style="fill: none; stroke: #000000; stroke-width: 2; stroke-linecap: round"/>
   </g>
   <g id="line2d_21">
    <path d="M 205.227114 198.576 
L 169.227114 198.576 
L 133.227114 198.576 
" clip-path="url(#pff3e613508)" style="fill: none; stroke: #000000; stroke-width: 2; stroke-linecap: round"/>
   </g>
   <g id="line2d_22">
    <path d="M 277.227114 162.576 
L 277.227114 180.576 
L 277.227114 198.576 
" clip-path="url(#pff3e613508)" style="fill: none; stroke: #000000; stroke-width: 2; stroke-linecap: round"/>
   </g>
   <g id="line2d_23">
    <path d="M 277.227114 198.576 
L 205.227114 198.576 
L 133.227114 198.576 
" clip-path="url(#pff3e613508)" style="fill: none; stroke: #000000; stroke-width: 2; stroke-linecap: round"/>
   </g>
   <g id="line2d_24">
    <path d="M 349.227114 162.576 
L 349.227114 180.576 
L 349.227114 198.576 
" clip-path="url(#pff3e613508)" style="fill: none; stroke: #000000; stroke-width: 2; stroke-linecap: round"/>
   </g>
   <g id="line2d_25">
    <path d="M 349.227114 198.576 
L 241.227114 198.576 
L 133.227114 198.576 
" clip-path="url(#pff3e613508)" style="fill: none; stroke: #000000; stroke-width: 2; stroke-linecap: round"/>
   </g>
   <g id="line2d_26">
    <path d="M 133.227114 198.576 
L 97.227114 198.576 
L 61.227114 198.576 
" clip-path="url(#pff3e613508)" style="fill: none; stroke: #000000; stroke-width: 2; stroke-linecap: round"/>
   </g>
   <g id="line2d_27">
    <path d="M 61.227114 198.576 
L 61.227114 207.576 
L 61.227114 216.576 
" clip-path="url(#pff3e613508)" style="fill: none; stroke: #000000; stroke-width: 2; stroke-linecap: round"/>
   </g>
   <g id="line2d_28">
    <path d="M 61.227114 216.576 
L 61.227114 230.976 
L 52.227114 230.976 
L 70.227114 230.976 
M 54.927114 235.296 
L 67.527114 235.296 
M 59.427114 239.616 
L 63.027114 239.616 
" clip-path="url(#pff3e613508)" style="fill: none; stroke: #000000; stroke-width: 2; stroke-linecap: round"/>
   </g>
   <g id="line2d_29">
    <path d="M 320.427114 162.576 
L 320.427114 198.576 
L 320.427114 234.576 
" clip-path="url(#pff3e613508)" style="fill: none; stroke: #000000; stroke-width: 2; stroke-linecap: round"/>
   </g>
   <g id="line2d_30">
    <path d="M 248.427114 162.576 
L 248.427114 198.576 
L 248.427114 234.576 
" clip-path="url(#pff3e613508)" style="fill: none; stroke: #000000; stroke-width: 2; stroke-linecap: round"/>
   </g>
   <g id="line2d_31">
    <path d="M 248.427114 234.576 
L 284.427114 234.576 
L 320.427114 234.576 
" clip-path="url(#pff3e613508)" style="fill: none; stroke: #000000; stroke-width: 2; stroke-linecap: round"/>
   </g>
   <g id="line2d_32">
    <path d="M 176.427114 162.576 
L 176.427114 198.576 
L 176.427114 234.576 
" clip-path="url(#pff3e613508)" style="fill: none; stroke: #000000; stroke-width: 2; stroke-linecap: round"/>
   </g>
   <g id="line2d_33">
    <path d="M 176.427114 234.576 
L 248.427114 234.576 
L 320.427114 234.576 
" clip-path="url(#pff3e613508)" style="fill: none; stroke: #000000; stroke-width: 2; stroke-linecap: round"/>
   </g>
   <g id="line2d_34">
    <path d="M 104.427114 162.576 
L 104.427114 198.576 
L 104.427114 234.576 
" clip-path="url(#pff3e613508)" style="fill: none; stroke: #000000; stroke-width: 2; stroke-linecap: round"/>
   </g>
   <g id="line2d_35">
    <path d="M 104.427114 234.576 
L 212.427114 234.576 
L 320.427114 234.576 
" clip-path="url(#pff3e613508)" style="fill: none; stroke: #000000; stroke-width: 2; stroke-linecap: round"/>
   </g>
   <g id="line2d_36">
    <path d="M 320.427114 234.576 
L 347.427114 234.576 
L 374.427114 234.576 
" clip-path="url(#pff3e613508)" style="fill: none; stroke: #000000; stroke-width: 2; stroke-linecap: round"/>
   </g>
   <g id="line2d_37">
    <path d="M 374.427114 234.576 
L 383.427114 234.576 
L 392.427114 234.576 
" clip-path="url(#pff3e613508)" style="fill: none; stroke: #000000; stroke-width: 2; stroke-linecap: round"/>
   </g>
   <g id="line2d_38">
    <path d="M 392.427114 257.076 
L 392.427114 212.076 
L 470.369401 257.076 
L 392.427114 302.076 
L 392.427114 257.076 
M 470.369401 257.076 
" clip-path="url(#pff3e613508)" style="fill: none; stroke: #000000; stroke-width: 2; stroke-linecap: round"/>
   </g>
   <g id="line2d_39">
    <path d="M 398.5699 234.576 
L 405.7699 234.576 
" clip-path="url(#pff3e613508)" style="fill: none; stroke: #000000; stroke-width: 2; stroke-linecap: round"/>
   </g>
   <g id="line2d_40">
    <path d="M 398.5699 279.576 
L 405.7699 279.576 
" clip-path="url(#pff3e613508)" style="fill: none; stroke: #000000; stroke-width: 2; stroke-linecap: round"/>
   </g>
   <g id="line2d_41">
    <path d="M 402.1699 283.176 
L 402.1699 275.976 
" clip-path="url(#pff3e613508)" style="fill: none; stroke: #000000; stroke-width: 2; stroke-linecap: round"/>
   </g>
   <g id="line2d_42">
    <path d="M 470.369401 257.076 
L 479.369401 257.076 
L 488.369401 257.076 
" clip-path="url(#pff3e613508)" style="fill: none; stroke: #000000; stroke-width: 2; stroke-linecap: round"/>
   </g>
   <g id="line2d_43">
    <path d="M 488.369401 257.076 
L 488.369401 221.076 
L 488.369401 185.076 
" clip-path="url(#pff3e613508)" style="fill: none; stroke: #000000; stroke-width: 2; stroke-linecap: round"/>
   </g>
   <g id="line2d_44">
    <path d="M 488.369401 185.076 
L 452.369401 185.076 
L 452.369401 194.076 
L 416.369401 194.076 
L 416.369401 176.076 
L 452.369401 176.076 
L 452.369401 185.076 
M 416.369401 185.076 
L 380.369401 185.076 
" clip-path="url(#pff3e613508)" style="fill: none; stroke: #000000; stroke-width: 2; stroke-linecap: round"/>
   </g>
   <g id="line2d_45">
    <path d="M 380.369401 185.076 
L 374.427114 185.076 
L 374.427114 234.576 
" clip-path="url(#pff3e613508)" style="fill: none; stroke: #000000; stroke-width: 2; stroke-linecap: round"/>
   </g>
   <g id="line2d_46">
    <path d="M 488.369401 257.076 
L 506.369401 257.076 
L 524.369401 257.076 
" clip-path="url(#pff3e613508)" style="fill: none; stroke: #000000; stroke-width: 2; stroke-linecap: round"/>
   </g>
   <g id="line2d_47">
    <path d="M 524.369401 329.076 
L 524.369401 343.476 
L 515.369401 343.476 
L 533.369401 343.476 
M 518.069401 347.796 
L 530.669401 347.796 
M 522.569401 352.116 
L 526.169401 352.116 
" clip-path="url(#pff3e613508)" style="fill: none; stroke: #000000; stroke-width: 2; stroke-linecap: round"/>
   </g>
   <g id="line2d_48">
    <path d="M 392.427114 279.576 
L 378.027114 279.576 
L 378.027114 270.576 
L 378.027114 288.576 
M 373.707114 273.276 
L 373.707114 285.876 
M 369.387114 277.776 
L 369.387114 281.376 
" clip-path="url(#pff3e613508)" style="fill: none; stroke: #000000; stroke-width: 2; stroke-linecap: round"/>
   </g>
   <g id="text_1">
    <!-- $R_{ref}$ -->
    <g transform="translate(64.827114 80.345219) scale(0.125 -0.125)">
     <defs>
      <path id="DejaVuSans-Oblique-52" d="M 1613 4147 
L 1294 2491 
L 2106 2491 
Q 2584 2491 2879 2755 
Q 3175 3019 3175 3444 
Q 3175 3784 2976 3965 
Q 2778 4147 2406 4147 
L 1613 4147 
z
M 2772 2241 
Q 2972 2194 3105 2009 
Q 3238 1825 3413 1275 
L 3809 0 
L 3144 0 
L 2778 1197 
Q 2638 1659 2453 1815 
Q 2269 1972 1888 1972 
L 1191 1972 
L 806 0 
L 172 0 
L 1081 4666 
L 2503 4666 
Q 3150 4666 3495 4373 
Q 3841 4081 3841 3531 
Q 3841 3044 3547 2687 
Q 3253 2331 2772 2241 
z
" transform="scale(0.015625)"/>
      <path id="DejaVuSans-Oblique-72" d="M 2853 2969 
Q 2766 3016 2653 3041 
Q 2541 3066 2413 3066 
Q 1953 3066 1609 2717 
Q 1266 2369 1153 1784 
L 800 0 
L 225 0 
L 909 3500 
L 1484 3500 
L 1375 2956 
Q 1603 3259 1920 3421 
Q 2238 3584 2597 3584 
Q 2691 3584 2781 3573 
Q 2872 3563 2963 3538 
L 2853 2969 
z
" transform="scale(0.015625)"/>
      <path id="DejaVuSans-Oblique-65" d="M 3078 2063 
Q 3088 2113 3092 2166 
Q 3097 2219 3097 2272 
Q 3097 2653 2873 2875 
Q 2650 3097 2266 3097 
Q 1838 3097 1509 2826 
Q 1181 2556 1013 2059 
L 3078 2063 
z
M 3578 1613 
L 903 1613 
Q 884 1494 878 1425 
Q 872 1356 872 1306 
Q 872 872 1139 634 
Q 1406 397 1894 397 
Q 2269 397 2603 481 
Q 2938 566 3225 728 
L 3116 159 
Q 2806 34 2476 -28 
Q 2147 -91 1806 -91 
Q 1078 -91 686 257 
Q 294 606 294 1247 
Q 294 1794 489 2264 
Q 684 2734 1063 3103 
Q 1306 3334 1642 3459 
Q 1978 3584 2356 3584 
Q 2950 3584 3301 3228 
Q 3653 2872 3653 2272 
Q 3653 2128 3634 1964 
Q 3616 1800 3578 1613 
z
" transform="scale(0.015625)"/>
      <path id="DejaVuSans-Oblique-66" d="M 3059 4863 
L 2969 4384 
L 2419 4384 
Q 2106 4384 1964 4261 
Q 1822 4138 1753 3809 
L 1691 3500 
L 2638 3500 
L 2553 3053 
L 1606 3053 
L 1013 0 
L 434 0 
L 1031 3053 
L 481 3053 
L 563 3500 
L 1113 3500 
L 1159 3744 
Q 1278 4363 1576 4613 
Q 1875 4863 2516 4863 
L 3059 4863 
z
" transform="scale(0.015625)"/>
     </defs>
     <use xlink:href="#DejaVuSans-Oblique-52" transform="translate(0 0.09375)"/>
     <use xlink:href="#DejaVuSans-Oblique-72" transform="translate(69.482422 -16.3125) scale(0.7)"/>
     <use xlink:href="#DejaVuSans-Oblique-65" transform="translate(98.261719 -16.3125) scale(0.7)"/>
     <use xlink:href="#DejaVuSans-Oblique-66" transform="translate(141.328125 -16.3125) scale(0.7)"/>
    </g>
   </g>
   <g id="patch_3">
    <path d="M 118.827114 25.596 
C 119.543163 25.596 120.22998 25.311511 120.736303 24.805188 
C 121.242625 24.298866 121.527114 23.612048 121.527114 22.896 
C 121.527114 22.179952 121.242625 21.493134 120.736303 20.986812 
C 120.22998 20.480489 119.543163 20.196 118.827114 20.196 
C 118.111066 20.196 117.424249 20.480489 116.917926 20.986812 
C 116.411603 21.493134 116.127114 22.179952 116.127114 22.896 
C 116.127114 23.612048 116.411603 24.298866 116.917926 24.805188 
C 117.424249 25.311511 118.111066 25.596 118.827114 25.596 
z
" clip-path="url(#pff3e613508)" style="stroke: #000000; stroke-width: 2; stroke-linejoin: miter"/>
   </g>
   <g id="text_2">
    <!-- $1R$ -->
    <g transform="translate(89.477114 80.345219) scale(0.125 -0.125)">
     <defs>
      <path id="DejaVuSans-31" d="M 794 531 
L 1825 531 
L 1825 4091 
L 703 3866 
L 703 4441 
L 1819 4666 
L 2450 4666 
L 2450 531 
L 3481 531 
L 3481 0 
L 794 0 
L 794 531 
z
" transform="scale(0.015625)"/>
     </defs>
     <use xlink:href="#DejaVuSans-31" transform="translate(0 0.09375)"/>
     <use xlink:href="#DejaVuSans-Oblique-52" transform="translate(63.623047 0.09375)"/>
    </g>
   </g>
   <g id="patch_4">
    <path d="M 118.827114 139.536 
C 119.972792 139.536 121.071699 139.080818 121.881816 138.270701 
C 122.691932 137.460585 123.147114 136.361677 123.147114 135.216 
C 123.147114 134.070323 122.691932 132.971415 121.881816 132.161299 
C 121.071699 131.351182 119.972792 130.896 118.827114 130.896 
C 117.681437 130.896 116.582529 131.351182 115.772413 132.161299 
C 114.962297 132.971415 114.507114 134.070323 114.507114 135.216 
C 114.507114 136.361677 114.962297 137.460585 115.772413 138.270701 
C 116.582529 139.080818 117.681437 139.536 118.827114 139.536 
z
" clip-path="url(#pff3e613508)" style="fill: #ffffff; stroke: #000000; stroke-width: 2; stroke-linejoin: miter"/>
   </g>
   <g id="patch_5">
    <path d="M 104.427114 166.896 
C 105.572792 166.896 106.671699 166.440818 107.481816 165.630701 
C 108.291932 164.820585 108.747114 163.721677 108.747114 162.576 
C 108.747114 161.430323 108.291932 160.331415 107.481816 159.521299 
C 106.671699 158.711182 105.572792 158.256 104.427114 158.256 
C 103.281437 158.256 102.182529 158.711182 101.372413 159.521299 
C 100.562297 160.331415 100.107114 161.430323 100.107114 162.576 
C 100.107114 163.721677 100.562297 164.820585 101.372413 165.630701 
C 102.182529 166.440818 103.281437 166.896 104.427114 166.896 
z
" clip-path="url(#pff3e613508)" style="fill: #ffffff; stroke: #000000; stroke-width: 2; stroke-linejoin: miter"/>
   </g>
   <g id="patch_6">
    <path d="M 133.227114 166.896 
C 134.372792 166.896 135.471699 166.440818 136.281816 165.630701 
C 137.091932 164.820585 137.547114 163.721677 137.547114 162.576 
C 137.547114 161.430323 137.091932 160.331415 136.281816 159.521299 
C 135.471699 158.711182 134.372792 158.256 133.227114 158.256 
C 132.081437 158.256 130.982529 158.711182 130.172413 159.521299 
C 129.362297 160.331415 128.907114 161.430323 128.907114 162.576 
C 128.907114 163.721677 129.362297 164.820585 130.172413 165.630701 
C 130.982529 166.440818 132.081437 166.896 133.227114 166.896 
z
" clip-path="url(#pff3e613508)" style="fill: #ffffff; stroke: #000000; stroke-width: 2; stroke-linejoin: miter"/>
   </g>
   <g id="text_3">
    <!-- $Z_3$ -->
    <g transform="translate(82.007114 152.345219) scale(0.125 -0.125)">
     <defs>
      <path id="DejaVuSans-Oblique-5a" d="M 838 4666 
L 4500 4666 
L 4409 4184 
L 794 531 
L 3769 531 
L 3669 0 
L -141 0 
L -50 481 
L 3566 4134 
L 738 4134 
L 838 4666 
z
" transform="scale(0.015625)"/>
      <path id="DejaVuSans-33" d="M 2597 2516 
Q 3050 2419 3304 2112 
Q 3559 1806 3559 1356 
Q 3559 666 3084 287 
Q 2609 -91 1734 -91 
Q 1441 -91 1130 -33 
Q 819 25 488 141 
L 488 750 
Q 750 597 1062 519 
Q 1375 441 1716 441 
Q 2309 441 2620 675 
Q 2931 909 2931 1356 
Q 2931 1769 2642 2001 
Q 2353 2234 1838 2234 
L 1294 2234 
L 1294 2753 
L 1863 2753 
Q 2328 2753 2575 2939 
Q 2822 3125 2822 3475 
Q 2822 3834 2567 4026 
Q 2313 4219 1838 4219 
Q 1578 4219 1281 4162 
Q 984 4106 628 3988 
L 628 4550 
Q 988 4650 1302 4700 
Q 1616 4750 1894 4750 
Q 2613 4750 3031 4423 
Q 3450 4097 3450 3541 
Q 3450 3153 3228 2886 
Q 3006 2619 2597 2516 
z
" transform="scale(0.015625)"/>
     </defs>
     <use xlink:href="#DejaVuSans-Oblique-5a" transform="translate(0 0.09375)"/>
     <use xlink:href="#DejaVuSans-33" transform="translate(68.505859 -16.3125) scale(0.7)"/>
    </g>
   </g>
   <g id="patch_7">
    <path d="M 190.827114 25.596 
C 191.543163 25.596 192.22998 25.311511 192.736303 24.805188 
C 193.242625 24.298866 193.527114 23.612048 193.527114 22.896 
C 193.527114 22.179952 193.242625 21.493134 192.736303 20.986812 
C 192.22998 20.480489 191.543163 20.196 190.827114 20.196 
C 190.111066 20.196 189.424249 20.480489 188.917926 20.986812 
C 188.411603 21.493134 188.127114 22.179952 188.127114 22.896 
C 188.127114 23.612048 188.411603 24.298866 188.917926 24.805188 
C 189.424249 25.311511 190.111066 25.596 190.827114 25.596 
z
" clip-path="url(#pff3e613508)" style="stroke: #000000; stroke-width: 2; stroke-linejoin: miter"/>
   </g>
   <g id="text_4">
    <!-- $2R$ -->
    <g transform="translate(161.477114 80.345219) scale(0.125 -0.125)">
     <defs>
      <path id="DejaVuSans-32" d="M 1228 531 
L 3431 531 
L 3431 0 
L 469 0 
L 469 531 
Q 828 903 1448 1529 
Q 2069 2156 2228 2338 
Q 2531 2678 2651 2914 
Q 2772 3150 2772 3378 
Q 2772 3750 2511 3984 
Q 2250 4219 1831 4219 
Q 1534 4219 1204 4116 
Q 875 4013 500 3803 
L 500 4441 
Q 881 4594 1212 4672 
Q 1544 4750 1819 4750 
Q 2544 4750 2975 4387 
Q 3406 4025 3406 3419 
Q 3406 3131 3298 2873 
Q 3191 2616 2906 2266 
Q 2828 2175 2409 1742 
Q 1991 1309 1228 531 
z
" transform="scale(0.015625)"/>
     </defs>
     <use xlink:href="#DejaVuSans-32" transform="translate(0 0.78125)"/>
     <use xlink:href="#DejaVuSans-Oblique-52" transform="translate(63.623047 0.78125)"/>
    </g>
   </g>
   <g id="patch_8">
    <path d="M 190.827114 139.536 
C 191.972792 139.536 193.071699 139.080818 193.881816 138.270701 
C 194.691932 137.460585 195.147114 136.361677 195.147114 135.216 
C 195.147114 134.070323 194.691932 132.971415 193.881816 132.161299 
C 193.071699 131.351182 191.972792 130.896 190.827114 130.896 
C 189.681437 130.896 188.582529 131.351182 187.772413 132.161299 
C 186.962297 132.971415 186.507114 134.070323 186.507114 135.216 
C 186.507114 136.361677 186.962297 137.460585 187.772413 138.270701 
C 188.582529 139.080818 189.681437 139.536 190.827114 139.536 
z
" clip-path="url(#pff3e613508)" style="fill: #ffffff; stroke: #000000; stroke-width: 2; stroke-linejoin: miter"/>
   </g>
   <g id="patch_9">
    <path d="M 176.427114 166.896 
C 177.572792 166.896 178.671699 166.440818 179.481816 165.630701 
C 180.291932 164.820585 180.747114 163.721677 180.747114 162.576 
C 180.747114 161.430323 180.291932 160.331415 179.481816 159.521299 
C 178.671699 158.711182 177.572792 158.256 176.427114 158.256 
C 175.281437 158.256 174.182529 158.711182 173.372413 159.521299 
C 172.562297 160.331415 172.107114 161.430323 172.107114 162.576 
C 172.107114 163.721677 172.562297 164.820585 173.372413 165.630701 
C 174.182529 166.440818 175.281437 166.896 176.427114 166.896 
z
" clip-path="url(#pff3e613508)" style="fill: #ffffff; stroke: #000000; stroke-width: 2; stroke-linejoin: miter"/>
   </g>
   <g id="patch_10">
    <path d="M 205.227114 166.896 
C 206.372792 166.896 207.471699 166.440818 208.281816 165.630701 
C 209.091932 164.820585 209.547114 163.721677 209.547114 162.576 
C 209.547114 161.430323 209.091932 160.331415 208.281816 159.521299 
C 207.471699 158.711182 206.372792 158.256 205.227114 158.256 
C 204.081437 158.256 202.982529 158.711182 202.172413 159.521299 
C 201.362297 160.331415 200.907114 161.430323 200.907114 162.576 
C 200.907114 163.721677 201.362297 164.820585 202.172413 165.630701 
C 202.982529 166.440818 204.081437 166.896 205.227114 166.896 
z
" clip-path="url(#pff3e613508)" style="fill: #ffffff; stroke: #000000; stroke-width: 2; stroke-linejoin: miter"/>
   </g>
   <g id="text_5">
    <!-- $Z_2$ -->
    <g transform="translate(154.007114 152.345219) scale(0.125 -0.125)">
     <use xlink:href="#DejaVuSans-Oblique-5a" transform="translate(0 0.09375)"/>
     <use xlink:href="#DejaVuSans-32" transform="translate(68.505859 -16.3125) scale(0.7)"/>
    </g>
   </g>
   <g id="patch_11">
    <path d="M 262.827114 25.596 
C 263.543163 25.596 264.22998 25.311511 264.736303 24.805188 
C 265.242625 24.298866 265.527114 23.612048 265.527114 22.896 
C 265.527114 22.179952 265.242625 21.493134 264.736303 20.986812 
C 264.22998 20.480489 263.543163 20.196 262.827114 20.196 
C 262.111066 20.196 261.424249 20.480489 260.917926 20.986812 
C 260.411603 21.493134 260.127114 22.179952 260.127114 22.896 
C 260.127114 23.612048 260.411603 24.298866 260.917926 24.805188 
C 261.424249 25.311511 262.111066 25.596 262.827114 25.596 
z
" clip-path="url(#pff3e613508)" style="stroke: #000000; stroke-width: 2; stroke-linejoin: miter"/>
   </g>
   <g id="text_6">
    <!-- $4R$ -->
    <g transform="translate(233.477114 80.345219) scale(0.125 -0.125)">
     <defs>
      <path id="DejaVuSans-34" d="M 2419 4116 
L 825 1625 
L 2419 1625 
L 2419 4116 
z
M 2253 4666 
L 3047 4666 
L 3047 1625 
L 3713 1625 
L 3713 1100 
L 3047 1100 
L 3047 0 
L 2419 0 
L 2419 1100 
L 313 1100 
L 313 1709 
L 2253 4666 
z
" transform="scale(0.015625)"/>
     </defs>
     <use xlink:href="#DejaVuSans-34" transform="translate(0 0.09375)"/>
     <use xlink:href="#DejaVuSans-Oblique-52" transform="translate(63.623047 0.09375)"/>
    </g>
   </g>
   <g id="patch_12">
    <path d="M 262.827114 139.536 
C 263.972792 139.536 265.071699 139.080818 265.881816 138.270701 
C 266.691932 137.460585 267.147114 136.361677 267.147114 135.216 
C 267.147114 134.070323 266.691932 132.971415 265.881816 132.161299 
C 265.071699 131.351182 263.972792 130.896 262.827114 130.896 
C 261.681437 130.896 260.582529 131.351182 259.772413 132.161299 
C 258.962297 132.971415 258.507114 134.070323 258.507114 135.216 
C 258.507114 136.361677 258.962297 137.460585 259.772413 138.270701 
C 260.582529 139.080818 261.681437 139.536 262.827114 139.536 
z
" clip-path="url(#pff3e613508)" style="fill: #ffffff; stroke: #000000; stroke-width: 2; stroke-linejoin: miter"/>
   </g>
   <g id="patch_13">
    <path d="M 248.427114 166.896 
C 249.572792 166.896 250.671699 166.440818 251.481816 165.630701 
C 252.291932 164.820585 252.747114 163.721677 252.747114 162.576 
C 252.747114 161.430323 252.291932 160.331415 251.481816 159.521299 
C 250.671699 158.711182 249.572792 158.256 248.427114 158.256 
C 247.281437 158.256 246.182529 158.711182 245.372413 159.521299 
C 244.562297 160.331415 244.107114 161.430323 244.107114 162.576 
C 244.107114 163.721677 244.562297 164.820585 245.372413 165.630701 
C 246.182529 166.440818 247.281437 166.896 248.427114 166.896 
z
" clip-path="url(#pff3e613508)" style="fill: #ffffff; stroke: #000000; stroke-width: 2; stroke-linejoin: miter"/>
   </g>
   <g id="patch_14">
    <path d="M 277.227114 166.896 
C 278.372792 166.896 279.471699 166.440818 280.281816 165.630701 
C 281.091932 164.820585 281.547114 163.721677 281.547114 162.576 
C 281.547114 161.430323 281.091932 160.331415 280.281816 159.521299 
C 279.471699 158.711182 278.372792 158.256 277.227114 158.256 
C 276.081437 158.256 274.982529 158.711182 274.172413 159.521299 
C 273.362297 160.331415 272.907114 161.430323 272.907114 162.576 
C 272.907114 163.721677 273.362297 164.820585 274.172413 165.630701 
C 274.982529 166.440818 276.081437 166.896 277.227114 166.896 
z
" clip-path="url(#pff3e613508)" style="fill: #ffffff; stroke: #000000; stroke-width: 2; stroke-linejoin: miter"/>
   </g>
   <g id="text_7">
    <!-- $Z_1$ -->
    <g transform="translate(226.007114 152.345219) scale(0.125 -0.125)">
     <use xlink:href="#DejaVuSans-Oblique-5a" transform="translate(0 0.09375)"/>
     <use xlink:href="#DejaVuSans-31" transform="translate(68.505859 -16.3125) scale(0.7)"/>
    </g>
   </g>
   <g id="patch_15">
    <path d="M 334.827114 25.596 
C 335.543163 25.596 336.22998 25.311511 336.736303 24.805188 
C 337.242625 24.298866 337.527114 23.612048 337.527114 22.896 
C 337.527114 22.179952 337.242625 21.493134 336.736303 20.986812 
C 336.22998 20.480489 335.543163 20.196 334.827114 20.196 
C 334.111066 20.196 333.424249 20.480489 332.917926 20.986812 
C 332.411603 21.493134 332.127114 22.179952 332.127114 22.896 
C 332.127114 23.612048 332.411603 24.298866 332.917926 24.805188 
C 333.424249 25.311511 334.111066 25.596 334.827114 25.596 
z
" clip-path="url(#pff3e613508)" style="stroke: #000000; stroke-width: 2; stroke-linejoin: miter"/>
   </g>
   <g id="text_8">
    <!-- $8R$ -->
    <g transform="translate(305.477114 80.345219) scale(0.125 -0.125)">
     <defs>
      <path id="DejaVuSans-38" d="M 2034 2216 
Q 1584 2216 1326 1975 
Q 1069 1734 1069 1313 
Q 1069 891 1326 650 
Q 1584 409 2034 409 
Q 2484 409 2743 651 
Q 3003 894 3003 1313 
Q 3003 1734 2745 1975 
Q 2488 2216 2034 2216 
z
M 1403 2484 
Q 997 2584 770 2862 
Q 544 3141 544 3541 
Q 544 4100 942 4425 
Q 1341 4750 2034 4750 
Q 2731 4750 3128 4425 
Q 3525 4100 3525 3541 
Q 3525 3141 3298 2862 
Q 3072 2584 2669 2484 
Q 3125 2378 3379 2068 
Q 3634 1759 3634 1313 
Q 3634 634 3220 271 
Q 2806 -91 2034 -91 
Q 1263 -91 848 271 
Q 434 634 434 1313 
Q 434 1759 690 2068 
Q 947 2378 1403 2484 
z
M 1172 3481 
Q 1172 3119 1398 2916 
Q 1625 2713 2034 2713 
Q 2441 2713 2670 2916 
Q 2900 3119 2900 3481 
Q 2900 3844 2670 4047 
Q 2441 4250 2034 4250 
Q 1625 4250 1398 4047 
Q 1172 3844 1172 3481 
z
" transform="scale(0.015625)"/>
     </defs>
     <use xlink:href="#DejaVuSans-38" transform="translate(0 0.78125)"/>
     <use xlink:href="#DejaVuSans-Oblique-52" transform="translate(63.623047 0.78125)"/>
    </g>
   </g>
   <g id="patch_16">
    <path d="M 334.827114 139.536 
C 335.972792 139.536 337.071699 139.080818 337.881816 138.270701 
C 338.691932 137.460585 339.147114 136.361677 339.147114 135.216 
C 339.147114 134.070323 338.691932 132.971415 337.881816 132.161299 
C 337.071699 131.351182 335.972792 130.896 334.827114 130.896 
C 333.681437 130.896 332.582529 131.351182 331.772413 132.161299 
C 330.962297 132.971415 330.507114 134.070323 330.507114 135.216 
C 330.507114 136.361677 330.962297 137.460585 331.772413 138.270701 
C 332.582529 139.080818 333.681437 139.536 334.827114 139.536 
z
" clip-path="url(#pff3e613508)" style="fill: #ffffff; stroke: #000000; stroke-width: 2; stroke-linejoin: miter"/>
   </g>
   <g id="patch_17">
    <path d="M 320.427114 166.896 
C 321.572792 166.896 322.671699 166.440818 323.481816 165.630701 
C 324.291932 164.820585 324.747114 163.721677 324.747114 162.576 
C 324.747114 161.430323 324.291932 160.331415 323.481816 159.521299 
C 322.671699 158.711182 321.572792 158.256 320.427114 158.256 
C 319.281437 158.256 318.182529 158.711182 317.372413 159.521299 
C 316.562297 160.331415 316.107114 161.430323 316.107114 162.576 
C 316.107114 163.721677 316.562297 164.820585 317.372413 165.630701 
C 318.182529 166.440818 319.281437 166.896 320.427114 166.896 
z
" clip-path="url(#pff3e613508)" style="fill: #ffffff; stroke: #000000; stroke-width: 2; stroke-linejoin: miter"/>
   </g>
   <g id="patch_18">
    <path d="M 349.227114 166.896 
C 350.372792 166.896 351.471699 166.440818 352.281816 165.630701 
C 353.091932 164.820585 353.547114 163.721677 353.547114 162.576 
C 353.547114 161.430323 353.091932 160.331415 352.281816 159.521299 
C 351.471699 158.711182 350.372792 158.256 349.227114 158.256 
C 348.081437 158.256 346.982529 158.711182 346.172413 159.521299 
C 345.362297 160.331415 344.907114 161.430323 344.907114 162.576 
C 344.907114 163.721677 345.362297 164.820585 346.172413 165.630701 
C 346.982529 166.440818 348.081437 166.896 349.227114 166.896 
z
" clip-path="url(#pff3e613508)" style="fill: #ffffff; stroke: #000000; stroke-width: 2; stroke-linejoin: miter"/>
   </g>
   <g id="text_9">
    <!-- $Z_0$ -->
    <g transform="translate(298.007114 152.345219) scale(0.125 -0.125)">
     <defs>
      <path id="DejaVuSans-30" d="M 2034 4250 
Q 1547 4250 1301 3770 
Q 1056 3291 1056 2328 
Q 1056 1369 1301 889 
Q 1547 409 2034 409 
Q 2525 409 2770 889 
Q 3016 1369 3016 2328 
Q 3016 3291 2770 3770 
Q 2525 4250 2034 4250 
z
M 2034 4750 
Q 2819 4750 3233 4129 
Q 3647 3509 3647 2328 
Q 3647 1150 3233 529 
Q 2819 -91 2034 -91 
Q 1250 -91 836 529 
Q 422 1150 422 2328 
Q 422 3509 836 4129 
Q 1250 4750 2034 4750 
z
" transform="scale(0.015625)"/>
     </defs>
     <use xlink:href="#DejaVuSans-Oblique-5a" transform="translate(0 0.09375)"/>
     <use xlink:href="#DejaVuSans-30" transform="translate(68.505859 -16.3125) scale(0.7)"/>
    </g>
   </g>
   <g id="patch_19">
    <path d="M 133.227114 201.276 
C 133.943163 201.276 134.62998 200.991511 135.136303 200.485188 
C 135.642625 199.978866 135.927114 199.292048 135.927114 198.576 
C 135.927114 197.859952 135.642625 197.173134 135.136303 196.666812 
C 134.62998 196.160489 133.943163 195.876 133.227114 195.876 
C 132.511066 195.876 131.824249 196.160489 131.317926 196.666812 
C 130.811603 197.173134 130.527114 197.859952 130.527114 198.576 
C 130.527114 199.292048 130.811603 199.978866 131.317926 200.485188 
C 131.824249 200.991511 132.511066 201.276 133.227114 201.276 
z
" clip-path="url(#pff3e613508)" style="stroke: #000000; stroke-width: 2; stroke-linejoin: miter"/>
   </g>
   <g id="patch_20">
    <path d="M 205.227114 201.276 
C 205.943163 201.276 206.62998 200.991511 207.136303 200.485188 
C 207.642625 199.978866 207.927114 199.292048 207.927114 198.576 
C 207.927114 197.859952 207.642625 197.173134 207.136303 196.666812 
C 206.62998 196.160489 205.943163 195.876 205.227114 195.876 
C 204.511066 195.876 203.824249 196.160489 203.317926 196.666812 
C 202.811603 197.173134 202.527114 197.859952 202.527114 198.576 
C 202.527114 199.292048 202.811603 199.978866 203.317926 200.485188 
C 203.824249 200.991511 204.511066 201.276 205.227114 201.276 
z
" clip-path="url(#pff3e613508)" style="stroke: #000000; stroke-width: 2; stroke-linejoin: miter"/>
   </g>
   <g id="patch_21">
    <path d="M 277.227114 201.276 
C 277.943163 201.276 278.62998 200.991511 279.136303 200.485188 
C 279.642625 199.978866 279.927114 199.292048 279.927114 198.576 
C 279.927114 197.859952 279.642625 197.173134 279.136303 196.666812 
C 278.62998 196.160489 277.943163 195.876 277.227114 195.876 
C 276.511066 195.876 275.824249 196.160489 275.317926 196.666812 
C 274.811603 197.173134 274.527114 197.859952 274.527114 198.576 
C 274.527114 199.292048 274.811603 199.978866 275.317926 200.485188 
C 275.824249 200.991511 276.511066 201.276 277.227114 201.276 
z
" clip-path="url(#pff3e613508)" style="stroke: #000000; stroke-width: 2; stroke-linejoin: miter"/>
   </g>
   <g id="patch_22">
    <path d="M 349.227114 201.276 
C 349.943163 201.276 350.62998 200.991511 351.136303 200.485188 
C 351.642625 199.978866 351.927114 199.292048 351.927114 198.576 
C 351.927114 197.859952 351.642625 197.173134 351.136303 196.666812 
C 350.62998 196.160489 349.943163 195.876 349.227114 195.876 
C 348.511066 195.876 347.824249 196.160489 347.317926 196.666812 
C 346.811603 197.173134 346.527114 197.859952 346.527114 198.576 
C 346.527114 199.292048 346.811603 199.978866 347.317926 200.485188 
C 347.824249 200.991511 348.511066 201.276 349.227114 201.276 
z
" clip-path="url(#pff3e613508)" style="stroke: #000000; stroke-width: 2; stroke-linejoin: miter"/>
   </g>
   <g id="patch_23">
    <path d="M 320.427114 237.276 
C 321.143163 237.276 321.82998 236.991511 322.336303 236.485188 
C 322.842625 235.978866 323.127114 235.292048 323.127114 234.576 
C 323.127114 233.859952 322.842625 233.173134 322.336303 232.666812 
C 321.82998 232.160489 321.143163 231.876 320.427114 231.876 
C 319.711066 231.876 319.024249 232.160489 318.517926 232.666812 
C 318.011603 233.173134 317.727114 233.859952 317.727114 234.576 
C 317.727114 235.292048 318.011603 235.978866 318.517926 236.485188 
C 319.024249 236.991511 319.711066 237.276 320.427114 237.276 
z
" clip-path="url(#pff3e613508)" style="stroke: #000000; stroke-width: 2; stroke-linejoin: miter"/>
   </g>
   <g id="patch_24">
    <path d="M 248.427114 237.276 
C 249.143163 237.276 249.82998 236.991511 250.336303 236.485188 
C 250.842625 235.978866 251.127114 235.292048 251.127114 234.576 
C 251.127114 233.859952 250.842625 233.173134 250.336303 232.666812 
C 249.82998 232.160489 249.143163 231.876 248.427114 231.876 
C 247.711066 231.876 247.024249 232.160489 246.517926 232.666812 
C 246.011603 233.173134 245.727114 233.859952 245.727114 234.576 
C 245.727114 235.292048 246.011603 235.978866 246.517926 236.485188 
C 247.024249 236.991511 247.711066 237.276 248.427114 237.276 
z
" clip-path="url(#pff3e613508)" style="stroke: #000000; stroke-width: 2; stroke-linejoin: miter"/>
   </g>
   <g id="patch_25">
    <path d="M 176.427114 237.276 
C 177.143163 237.276 177.82998 236.991511 178.336303 236.485188 
C 178.842625 235.978866 179.127114 235.292048 179.127114 234.576 
C 179.127114 233.859952 178.842625 233.173134 178.336303 232.666812 
C 177.82998 232.160489 177.143163 231.876 176.427114 231.876 
C 175.711066 231.876 175.024249 232.160489 174.517926 232.666812 
C 174.011603 233.173134 173.727114 233.859952 173.727114 234.576 
C 173.727114 235.292048 174.011603 235.978866 174.517926 236.485188 
C 175.024249 236.991511 175.711066 237.276 176.427114 237.276 
z
" clip-path="url(#pff3e613508)" style="stroke: #000000; stroke-width: 2; stroke-linejoin: miter"/>
   </g>
   <g id="patch_26">
    <path d="M 104.427114 237.276 
C 105.143163 237.276 105.82998 236.991511 106.336303 236.485188 
C 106.842625 235.978866 107.127114 235.292048 107.127114 234.576 
C 107.127114 233.859952 106.842625 233.173134 106.336303 232.666812 
C 105.82998 232.160489 105.143163 231.876 104.427114 231.876 
C 103.711066 231.876 103.024249 232.160489 102.517926 232.666812 
C 102.011603 233.173134 101.727114 233.859952 101.727114 234.576 
C 101.727114 235.292048 102.011603 235.978866 102.517926 236.485188 
C 103.024249 236.991511 103.711066 237.276 104.427114 237.276 
z
" clip-path="url(#pff3e613508)" style="stroke: #000000; stroke-width: 2; stroke-linejoin: miter"/>
   </g>
   <g id="patch_27">
    <path d="M 374.427114 237.276 
C 375.143163 237.276 375.82998 236.991511 376.336303 236.485188 
C 376.842625 235.978866 377.127114 235.292048 377.127114 234.576 
C 377.127114 233.859952 376.842625 233.173134 376.336303 232.666812 
C 375.82998 232.160489 375.143163 231.876 374.427114 231.876 
C 373.711066 231.876 373.024249 232.160489 372.517926 232.666812 
C 372.011603 233.173134 371.727114 233.859952 371.727114 234.576 
C 371.727114 235.292048 372.011603 235.978866 372.517926 236.485188 
C 373.024249 236.991511 373.711066 237.276 374.427114 237.276 
z
" clip-path="url(#pff3e613508)" style="stroke: #000000; stroke-width: 2; stroke-linejoin: miter"/>
   </g>
   <g id="patch_28">
    <path d="M 488.369401 259.776 
C 489.085449 259.776 489.772266 259.491511 490.278589 258.985188 
C 490.784912 258.478866 491.069401 257.792048 491.069401 257.076 
C 491.069401 256.359952 490.784912 255.673134 490.278589 255.166812 
C 489.772266 254.660489 489.085449 254.376 488.369401 254.376 
C 487.653352 254.376 486.966535 254.660489 486.460212 255.166812 
C 485.95389 255.673134 485.669401 256.359952 485.669401 257.076 
C 485.669401 257.792048 485.95389 258.478866 486.460212 258.985188 
C 486.966535 259.491511 487.653352 259.776 488.369401 259.776 
z
" clip-path="url(#pff3e613508)" style="stroke: #000000; stroke-width: 2; stroke-linejoin: miter"/>
   </g>
   <g id="text_10">
    <!-- $R_F$ -->
    <g transform="translate(427.306901 169.876391) scale(0.125 -0.125)">
     <defs>
      <path id="DejaVuSans-Oblique-46" d="M 1081 4666 
L 3756 4666 
L 3653 4134 
L 1606 4134 
L 1338 2759 
L 3188 2759 
L 3084 2228 
L 1234 2228 
L 800 0 
L 172 0 
L 1081 4666 
z
" transform="scale(0.015625)"/>
     </defs>
     <use xlink:href="#DejaVuSans-Oblique-52" transform="translate(0 0.09375)"/>
     <use xlink:href="#DejaVuSans-Oblique-46" transform="translate(69.482422 -16.3125) scale(0.7)"/>
    </g>
   </g>
   <g id="text_11">
    <!-- + -->
    <g transform="translate(519.132096 278.525219) scale(0.125 -0.125)">
     <defs>
      <path id="DejaVuSans-2b" d="M 2944 4013 
L 2944 2272 
L 4684 2272 
L 4684 1741 
L 2944 1741 
L 2944 0 
L 2419 0 
L 2419 1741 
L 678 1741 
L 678 2272 
L 2419 2272 
L 2419 4013 
L 2944 4013 
z
" transform="scale(0.015625)"/>
     </defs>
     <use xlink:href="#DejaVuSans-2b"/>
    </g>
   </g>
   <g id="text_12">
    <!-- $U_a$ -->
    <g transform="translate(516.931901 296.525219) scale(0.125 -0.125)">
     <defs>
      <path id="DejaVuSans-Oblique-55" d="M 991 4666 
L 1625 4666 
L 1075 1831 
Q 1041 1641 1027 1517 
Q 1013 1394 1013 1300 
Q 1013 869 1253 645 
Q 1494 422 1959 422 
Q 2563 422 2898 753 
Q 3234 1084 3378 1831 
L 3928 4666 
L 4563 4666 
L 4000 1753 
Q 3816 809 3300 359 
Q 2784 -91 1888 -91 
Q 1188 -91 780 261 
Q 372 613 372 1216 
Q 372 1325 387 1461 
Q 403 1597 434 1753 
L 991 4666 
z
" transform="scale(0.015625)"/>
      <path id="DejaVuSans-Oblique-61" d="M 3438 1997 
L 3047 0 
L 2472 0 
L 2578 531 
Q 2325 219 2001 64 
Q 1678 -91 1281 -91 
Q 834 -91 548 182 
Q 263 456 263 884 
Q 263 1497 752 1853 
Q 1241 2209 2100 2209 
L 2900 2209 
L 2931 2363 
Q 2938 2388 2941 2417 
Q 2944 2447 2944 2509 
Q 2944 2788 2717 2942 
Q 2491 3097 2081 3097 
Q 1800 3097 1504 3025 
Q 1209 2953 897 2809 
L 997 3341 
Q 1322 3463 1633 3523 
Q 1944 3584 2234 3584 
Q 2853 3584 3176 3315 
Q 3500 3047 3500 2534 
Q 3500 2431 3484 2292 
Q 3469 2153 3438 1997 
z
M 2816 1759 
L 2241 1759 
Q 1534 1759 1195 1570 
Q 856 1381 856 984 
Q 856 709 1029 553 
Q 1203 397 1509 397 
Q 1978 397 2328 733 
Q 2678 1069 2791 1631 
L 2816 1759 
z
" transform="scale(0.015625)"/>
     </defs>
     <use xlink:href="#DejaVuSans-Oblique-55" transform="translate(0 0.09375)"/>
     <use xlink:href="#DejaVuSans-Oblique-61" transform="translate(73.193359 -16.3125) scale(0.7)"/>
    </g>
   </g>
   <g id="text_13">
    <!-- - -->
    <g transform="translate(522.114518 314.525219) scale(0.125 -0.125)">
     <defs>
      <path id="DejaVuSans-2d" d="M 313 2009 
L 1997 2009 
L 1997 1497 
L 313 1497 
L 313 2009 
z
" transform="scale(0.015625)"/>
     </defs>
     <use xlink:href="#DejaVuSans-2d"/>
    </g>
   </g>
   <g id="patch_29">
    <path d="M 524.369401 259.776 
C 525.085449 259.776 525.772266 259.491511 526.278589 258.985188 
C 526.784912 258.478866 527.069401 257.792048 527.069401 257.076 
C 527.069401 256.359952 526.784912 255.673134 526.278589 255.166812 
C 525.772266 254.660489 525.085449 254.376 524.369401 254.376 
C 523.653352 254.376 522.966535 254.660489 522.460212 255.166812 
C 521.95389 255.673134 521.669401 256.359952 521.669401 257.076 
C 521.669401 257.792048 521.95389 258.478866 522.460212 258.985188 
C 522.966535 259.491511 523.653352 259.776 524.369401 259.776 
z
" clip-path="url(#pff3e613508)" style="fill: #ffffff; stroke: #000000; stroke-width: 2; stroke-linejoin: miter"/>
   </g>
   <g id="patch_30">
    <path d="M 524.369401 331.776 
C 525.085449 331.776 525.772266 331.491511 526.278589 330.985188 
C 526.784912 330.478866 527.069401 329.792048 527.069401 329.076 
C 527.069401 328.359952 526.784912 327.673134 526.278589 327.166812 
C 525.772266 326.660489 525.085449 326.376 524.369401 326.376 
C 523.653352 326.376 522.966535 326.660489 522.460212 327.166812 
C 521.95389 327.673134 521.669401 328.359952 521.669401 329.076 
C 521.669401 329.792048 521.95389 330.478866 522.460212 330.985188 
C 522.966535 331.491511 523.653352 331.776 524.369401 331.776 
z
" clip-path="url(#pff3e613508)" style="fill: #ffffff; stroke: #000000; stroke-width: 2; stroke-linejoin: miter"/>
   </g>
  </g>
 </g>
 <defs>
  <clipPath id="pff3e613508">
   <rect x="3.6" y="3.6" width="554.996515" height="365.112"/>
  </clipPath>
 </defs>
</svg>