<?xml version="1.0" encoding="utf-8" standalone="no"?>
<!DOCTYPE svg PUBLIC "-//W3C//DTD SVG 1.1//EN"
  "http://www.w3.org/Graphics/SVG/1.1/DTD/svg11.dtd">
<svg xmlns:xlink="http://www.w3.org/1999/xlink" width="214.065pt" height="145.555pt" viewBox="0 0 214.065 145.555" xmlns="http://www.w3.org/2000/svg" version="1.1">
 <metadata>
  <rdf:RDF xmlns:dc="http://purl.org/dc/elements/1.1/" xmlns:cc="http://creativecommons.org/ns#" xmlns:rdf="http://www.w3.org/1999/02/22-rdf-syntax-ns#">
   <cc:Work>
    <dc:type rdf:resource="http://purl.org/dc/dcmitype/StillImage"/>
    <dc:date>2023-05-01T23:10:59.608909</dc:date>
    <dc:format>image/svg+xml</dc:format>
    <dc:creator>
     <cc:Agent>
      <dc:title>Matplotlib v3.7.1, https://matplotlib.org/</dc:title>
     </cc:Agent>
    </dc:creator>
   </cc:Work>
  </rdf:RDF>
 </metadata>
 <defs>
  <style type="text/css">*{stroke-linejoin: round; stroke-linecap: butt}</style>
 </defs>
 <g id="figure_1">
  <g id="patch_1">
   <path d="M 0 145.555 
L 214.065 145.555 
L 214.065 0 
L 0 0 
z
" style="fill: #ffffff"/>
  </g>
  <g id="axes_1">
   <g id="patch_2">
    <path d="M 58.455 56.5 
C 62.512607 56.5 66.404572 54.887895 69.273734 52.018734 
C 72.142895 49.149572 73.755 45.257607 73.755 41.2 
C 73.755 37.142393 72.142895 33.250428 69.273734 30.381266 
C 66.404572 27.512105 62.512607 25.9 58.455 25.9 
C 54.397393 25.9 50.505428 27.512105 47.636266 30.381266 
C 44.767105 33.250428 43.155 37.142393 43.155 41.2 
C 43.155 45.257607 44.767105 49.149572 47.636266 52.018734 
C 50.505428 54.887895 54.397393 56.5 58.455 56.5 
L 58.455 56.5 
z
" clip-path="url(#pe48ab7b0f9)" style="fill: none; stroke: #000000; stroke-width: 2; stroke-linejoin: miter"/>
   </g>
   <g id="patch_3">
    <path d="M 104.355 102.4 
C 108.412607 102.4 112.304572 100.787895 115.173734 97.918734 
C 118.042895 95.049572 119.655 91.157607 119.655 87.1 
C 119.655 83.042393 118.042895 79.150428 115.173734 76.281266 
C 112.304572 73.412105 108.412607 71.8 104.355 71.8 
C 100.297393 71.8 96.405428 73.412105 93.536266 76.281266 
C 90.667105 79.150428 89.055 83.042393 89.055 87.1 
C 89.055 91.157607 90.667105 95.049572 93.536266 97.918734 
C 96.405428 100.787895 100.297393 102.4 104.355 102.4 
L 104.355 102.4 
z
" clip-path="url(#pe48ab7b0f9)" style="fill: none; stroke: #000000; stroke-width: 2; stroke-linejoin: miter"/>
   </g>
   <g id="line2d_1">
    <path d="M 12.555 41.2 
L 43.155 41.2 
L 43.155 41.2 
M 73.755 41.2 
L 73.755 41.2 
L 104.355 41.2 
" clip-path="url(#pe48ab7b0f9)" style="fill: none; stroke: #000000; stroke-width: 2; stroke-linecap: round"/>
   </g>
   <g id="line2d_2">
    <path d="M 104.355 41.2 
L 150.255 41.2 
L 196.155 41.2 
" clip-path="url(#pe48ab7b0f9)" style="fill: none; stroke: #000000; stroke-width: 2; stroke-linecap: round"/>
   </g>
   <g id="line2d_3">
    <path d="M 196.155 41.2 
L 196.155 71.8 
L 203.805 71.8 
L 203.805 102.4 
L 188.505 102.4 
L 188.505 71.8 
L 196.155 71.8 
M 196.155 102.4 
L 196.155 133 
" clip-path="url(#pe48ab7b0f9)" style="fill: none; stroke: #000000; stroke-width: 2; stroke-linecap: round"/>
   </g>
   <g id="line2d_4">
    <path d="M 196.155 133 
L 150.255 133 
L 104.355 133 
" clip-path="url(#pe48ab7b0f9)" style="fill: none; stroke: #000000; stroke-width: 2; stroke-linecap: round"/>
   </g>
   <g id="line2d_5">
    <path d="M 104.355 133 
L 104.355 102.4 
L 104.355 102.4 
M 104.355 71.8 
L 104.355 71.8 
L 104.355 41.2 
" clip-path="url(#pe48ab7b0f9)" style="fill: none; stroke: #000000; stroke-width: 2; stroke-linecap: round"/>
   </g>
   <g id="line2d_6">
    <path d="M 104.355 133 
L 58.455 133 
L 12.555 133 
" clip-path="url(#pe48ab7b0f9)" style="fill: none; stroke: #000000; stroke-width: 2; stroke-linecap: round"/>
   </g>
   <g id="text_1">
    <g clip-path="url(#pe48ab7b0f9)">
     <!-- A -->
     <g transform="translate(54.179609 44.649219) scale(0.125 -0.125)">
      <defs>
       <path id="DejaVuSans-41" d="M 2188 4044 
L 1331 1722 
L 3047 1722 
L 2188 4044 
z
M 1831 4666 
L 2547 4666 
L 4325 0 
L 3669 0 
L 3244 1197 
L 1141 1197 
L 716 0 
L 50 0 
L 1831 4666 
z
" transform="scale(0.015625)"/>
      </defs>
      <use xlink:href="#DejaVuSans-41"/>
     </g>
    </g>
   </g>
   <g id="patch_4">
    <path d="M 104.355 43.495 
C 104.963641 43.495 105.547436 43.253184 105.97781 42.82281 
C 106.408184 42.392436 106.65 41.808641 106.65 41.2 
C 106.65 40.591359 106.408184 40.007564 105.97781 39.57719 
C 105.547436 39.146816 104.963641 38.905 104.355 38.905 
C 103.746359 38.905 103.162564 39.146816 102.73219 39.57719 
C 102.301816 40.007564 102.06 40.591359 102.06 41.2 
C 102.06 41.808641 102.301816 42.392436 102.73219 42.82281 
C 103.162564 43.253184 103.746359 43.495 104.355 43.495 
z
" clip-path="url(#pe48ab7b0f9)" style="stroke: #000000; stroke-width: 2; stroke-linejoin: miter"/>
   </g>
   <g id="patch_5">
    <path d="M 12.555 43.495 
C 13.163641 43.495 13.747436 43.253184 14.17781 42.82281 
C 14.608184 42.392436 14.85 41.808641 14.85 41.2 
C 14.85 40.591359 14.608184 40.007564 14.17781 39.57719 
C 13.747436 39.146816 13.163641 38.905 12.555 38.905 
C 11.946359 38.905 11.362564 39.146816 10.93219 39.57719 
C 10.501816 40.007564 10.26 40.591359 10.26 41.2 
C 10.26 41.808641 10.501816 42.392436 10.93219 42.82281 
C 11.362564 43.253184 11.946359 43.495 12.555 43.495 
z
" clip-path="url(#pe48ab7b0f9)" style="fill: #ffffff; stroke: #000000; stroke-width: 2; stroke-linejoin: miter"/>
   </g>
   <g id="text_2">
    <g clip-path="url(#pe48ab7b0f9)">
     <!-- $R$ -->
     <g transform="translate(176.695 90.549219) scale(0.125 -0.125)">
      <defs>
       <path id="DejaVuSans-Oblique-52" d="M 1613 4147 
L 1294 2491 
L 2106 2491 
Q 2584 2491 2879 2755 
Q 3175 3019 3175 3444 
Q 3175 3784 2976 3965 
Q 2778 4147 2406 4147 
L 1613 4147 
z
M 2772 2241 
Q 2972 2194 3105 2009 
Q 3238 1825 3413 1275 
L 3809 0 
L 3144 0 
L 2778 1197 
Q 2638 1659 2453 1815 
Q 2269 1972 1888 1972 
L 1191 1972 
L 806 0 
L 172 0 
L 1081 4666 
L 2503 4666 
Q 3150 4666 3495 4373 
Q 3841 4081 3841 3531 
Q 3841 3044 3547 2687 
Q 3253 2331 2772 2241 
z
" transform="scale(0.015625)"/>
      </defs>
      <use xlink:href="#DejaVuSans-Oblique-52" transform="translate(0 0.09375)"/>
     </g>
    </g>
   </g>
   <g id="patch_6">
    <path d="M 104.355 135.295 
C 104.963641 135.295 105.547436 135.053184 105.97781 134.62281 
C 106.408184 134.192436 106.65 133.608641 106.65 133 
C 106.65 132.391359 106.408184 131.807564 105.97781 131.37719 
C 105.547436 130.946816 104.963641 130.705 104.355 130.705 
C 103.746359 130.705 103.162564 130.946816 102.73219 131.37719 
C 102.301816 131.807564 102.06 132.391359 102.06 133 
C 102.06 133.608641 102.301816 134.192436 102.73219 134.62281 
C 103.162564 135.053184 103.746359 135.295 104.355 135.295 
z
" clip-path="url(#pe48ab7b0f9)" style="stroke: #000000; stroke-width: 2; stroke-linejoin: miter"/>
   </g>
   <g id="text_3">
    <g clip-path="url(#pe48ab7b0f9)">
     <!-- V -->
     <g transform="translate(100.079609 90.549219) scale(0.125 -0.125)">
      <defs>
       <path id="DejaVuSans-56" d="M 1831 0 
L 50 4666 
L 709 4666 
L 2188 738 
L 3669 4666 
L 4325 4666 
L 2547 0 
L 1831 0 
z
" transform="scale(0.015625)"/>
      </defs>
      <use xlink:href="#DejaVuSans-56"/>
     </g>
    </g>
   </g>
   <g id="text_4">
    <g clip-path="url(#pe48ab7b0f9)">
     <!-- $U$ -->
     <g transform="translate(76.745 90.549219) scale(0.125 -0.125)">
      <defs>
       <path id="DejaVuSans-Oblique-55" d="M 991 4666 
L 1625 4666 
L 1075 1831 
Q 1041 1641 1027 1517 
Q 1013 1394 1013 1300 
Q 1013 869 1253 645 
Q 1494 422 1959 422 
Q 2563 422 2898 753 
Q 3234 1084 3378 1831 
L 3928 4666 
L 4563 4666 
L 4000 1753 
Q 3816 809 3300 359 
Q 2784 -91 1888 -91 
Q 1188 -91 780 261 
Q 372 613 372 1216 
Q 372 1325 387 1461 
Q 403 1597 434 1753 
L 991 4666 
z
" transform="scale(0.015625)"/>
      </defs>
      <use xlink:href="#DejaVuSans-Oblique-55" transform="translate(0 0.09375)"/>
     </g>
    </g>
   </g>
   <g id="patch_7">
    <path d="M 12.555 135.295 
C 13.163641 135.295 13.747436 135.053184 14.17781 134.62281 
C 14.608184 134.192436 14.85 133.608641 14.85 133 
C 14.85 132.391359 14.608184 131.807564 14.17781 131.37719 
C 13.747436 130.946816 13.163641 130.705 12.555 130.705 
C 11.946359 130.705 11.362564 130.946816 10.93219 131.37719 
C 10.501816 131.807564 10.26 132.391359 10.26 133 
C 10.26 133.608641 10.501816 134.192436 10.93219 134.62281 
C 11.362564 135.053184 11.946359 135.295 12.555 135.295 
z
" clip-path="url(#pe48ab7b0f9)" style="fill: #ffffff; stroke: #000000; stroke-width: 2; stroke-linejoin: miter"/>
   </g>
   <g id="line2d_7">
    <path d="M 70.695 41.2 
L 70.695 41.2 
" clip-path="url(#pe48ab7b0f9)" style="fill: none; stroke: #000000; stroke-width: 2; stroke-linecap: round"/>
   </g>
   <g id="patch_8">
    <path d="M 70.695 36.61 
L 79.875 41.2 
L 70.695 45.79 
z
" clip-path="url(#pe48ab7b0f9)"/>
   </g>
   <g id="text_5">
    <g clip-path="url(#pe48ab7b0f9)">
     <!-- $I$ -->
     <g transform="translate(73.41 29.420391) scale(0.125 -0.125)">
      <defs>
       <path id="DejaVuSans-Oblique-49" d="M 1081 4666 
L 1716 4666 
L 806 0 
L 172 0 
L 1081 4666 
z
" transform="scale(0.015625)"/>
      </defs>
      <use xlink:href="#DejaVuSans-Oblique-49" transform="translate(0 0.09375)"/>
     </g>
    </g>
   </g>
  </g>
 </g>
 <defs>
  <clipPath id="pe48ab7b0f9">
   <rect x="7.2" y="7.2" width="199.665" height="131.155"/>
  </clipPath>
 </defs>
</svg>