<?xml version="1.0" encoding="utf-8" standalone="no"?>
<!DOCTYPE svg PUBLIC "-//W3C//DTD SVG 1.1//EN"
  "http://www.w3.org/Graphics/SVG/1.1/DTD/svg11.dtd">
<svg xmlns:xlink="http://www.w3.org/1999/xlink" width="385.117286pt" height="269.164656pt" viewBox="0 0 385.117286 269.164656" xmlns="http://www.w3.org/2000/svg" version="1.1">
 <metadata>
  <rdf:RDF xmlns:dc="http://purl.org/dc/elements/1.1/" xmlns:cc="http://creativecommons.org/ns#" xmlns:rdf="http://www.w3.org/1999/02/22-rdf-syntax-ns#">
   <cc:Work>
    <dc:type rdf:resource="http://purl.org/dc/dcmitype/StillImage"/>
    <dc:date>2023-06-04T22:58:28.309623</dc:date>
    <dc:format>image/svg+xml</dc:format>
    <dc:creator>
     <cc:Agent>
      <dc:title>Matplotlib v3.7.1, https://matplotlib.org/</dc:title>
     </cc:Agent>
    </dc:creator>
   </cc:Work>
  </rdf:RDF>
 </metadata>
 <defs>
  <style type="text/css">*{stroke-linejoin: round; stroke-linecap: butt}</style>
 </defs>
 <g id="figure_1">
  <g id="patch_1">
   <path d="M 0 269.164656 
L 385.117286 269.164656 
L 385.117286 0 
L 0 0 
z
" style="fill: #ffffff"/>
  </g>
  <g id="axes_1">
   <g id="line2d_1">
    <path d="M 30.4 77.797656 
L 66.4 77.797656 
L 66.4 68.797656 
L 102.4 68.797656 
L 102.4 86.797656 
L 66.4 86.797656 
L 66.4 77.797656 
M 102.4 77.797656 
L 138.4 77.797656 
" clip-path="url(#pdcb8288170)" style="fill: none; stroke: #000000; stroke-width: 2; stroke-linecap: round"/>
   </g>
   <g id="line2d_2">
    <path d="M 138.4 77.797656 
L 156.4 77.797656 
L 174.4 77.797656 
" clip-path="url(#pdcb8288170)" style="fill: none; stroke: #000000; stroke-width: 2; stroke-linecap: round"/>
   </g>
   <g id="line2d_3">
    <path d="M 174.4 100.297656 
L 174.4 55.297656 
L 252.342286 100.297656 
L 174.4 145.297656 
L 174.4 100.297656 
M 252.342286 100.297656 
" clip-path="url(#pdcb8288170)" style="fill: none; stroke: #000000; stroke-width: 2; stroke-linecap: round"/>
   </g>
   <g id="line2d_4">
    <path d="M 180.542786 77.797656 
L 187.742786 77.797656 
" clip-path="url(#pdcb8288170)" style="fill: none; stroke: #000000; stroke-width: 2; stroke-linecap: round"/>
   </g>
   <g id="line2d_5">
    <path d="M 180.542786 122.797656 
L 187.742786 122.797656 
" clip-path="url(#pdcb8288170)" style="fill: none; stroke: #000000; stroke-width: 2; stroke-linecap: round"/>
   </g>
   <g id="line2d_6">
    <path d="M 184.142786 126.397656 
L 184.142786 119.197656 
" clip-path="url(#pdcb8288170)" style="fill: none; stroke: #000000; stroke-width: 2; stroke-linecap: round"/>
   </g>
   <g id="line2d_7">
    <path d="M 252.342286 100.297656 
L 270.342286 100.297656 
L 288.342286 100.297656 
" clip-path="url(#pdcb8288170)" style="fill: none; stroke: #000000; stroke-width: 2; stroke-linecap: round"/>
   </g>
   <g id="line2d_8">
    <path d="M 288.342286 100.297656 
L 288.342286 64.297656 
L 288.342286 28.297656 
" clip-path="url(#pdcb8288170)" style="fill: none; stroke: #000000; stroke-width: 2; stroke-linecap: round"/>
   </g>
   <g id="line2d_9">
    <path d="M 288.342286 28.297656 
L 252.342286 28.297656 
L 252.342286 37.297656 
L 216.342286 37.297656 
L 216.342286 19.297656 
L 252.342286 19.297656 
L 252.342286 28.297656 
M 216.342286 28.297656 
L 180.342286 28.297656 
" clip-path="url(#pdcb8288170)" style="fill: none; stroke: #000000; stroke-width: 2; stroke-linecap: round"/>
   </g>
   <g id="line2d_10">
    <path d="M 180.342286 28.297656 
L 138.4 28.297656 
L 138.4 77.797656 
" clip-path="url(#pdcb8288170)" style="fill: none; stroke: #000000; stroke-width: 2; stroke-linecap: round"/>
   </g>
   <g id="line2d_11">
    <path d="M 288.342286 100.297656 
L 324.342286 100.297656 
L 360.342286 100.297656 
" clip-path="url(#pdcb8288170)" style="fill: none; stroke: #000000; stroke-width: 2; stroke-linecap: round"/>
   </g>
   <g id="line2d_12">
    <path d="M 174.4 122.797656 
L 156.4 122.797656 
L 138.4 122.797656 
" clip-path="url(#pdcb8288170)" style="fill: none; stroke: #000000; stroke-width: 2; stroke-linecap: round"/>
   </g>
   <g id="line2d_13">
    <path d="M 138.4 122.797656 
L 138.4 158.797656 
L 147.4 158.797656 
L 147.4 194.797656 
L 129.4 194.797656 
L 129.4 158.797656 
L 138.4 158.797656 
M 138.4 194.797656 
L 138.4 230.797656 
" clip-path="url(#pdcb8288170)" style="fill: none; stroke: #000000; stroke-width: 2; stroke-linecap: round"/>
   </g>
   <g id="line2d_14">
    <path d="M 138.4 230.797656 
L 138.4 245.197656 
L 129.4 245.197656 
L 147.4 245.197656 
M 132.1 249.517656 
L 144.7 249.517656 
M 136.6 253.837656 
L 140.2 253.837656 
" clip-path="url(#pdcb8288170)" style="fill: none; stroke: #000000; stroke-width: 2; stroke-linecap: round"/>
   </g>
   <g id="line2d_15">
    <path d="M 138.4 122.797656 
L 102.4 122.797656 
L 102.4 131.797656 
L 66.4 131.797656 
L 66.4 113.797656 
L 102.4 113.797656 
L 102.4 122.797656 
M 66.4 122.797656 
L 30.4 122.797656 
" clip-path="url(#pdcb8288170)" style="fill: none; stroke: #000000; stroke-width: 2; stroke-linecap: round"/>
   </g>
   <g id="patch_2">
    <path d="M 138.4 80.497656 
C 139.116048 80.497656 139.802866 80.213167 140.309188 79.706845 
C 140.815511 79.200522 141.1 78.513705 141.1 77.797656 
C 141.1 77.081608 140.815511 76.394791 140.309188 75.888468 
C 139.802866 75.382145 139.116048 75.097656 138.4 75.097656 
C 137.683952 75.097656 136.997134 75.382145 136.490812 75.888468 
C 135.984489 76.394791 135.7 77.081608 135.7 77.797656 
C 135.7 78.513705 135.984489 79.200522 136.490812 79.706845 
C 136.997134 80.213167 137.683952 80.497656 138.4 80.497656 
z
" clip-path="url(#pdcb8288170)" style="stroke: #000000; stroke-width: 2; stroke-linejoin: miter"/>
   </g>
   <g id="patch_3">
    <path d="M 30.4 80.497656 
C 31.116048 80.497656 31.802866 80.213167 32.309188 79.706845 
C 32.815511 79.200522 33.1 78.513705 33.1 77.797656 
C 33.1 77.081608 32.815511 76.394791 32.309188 75.888468 
C 31.802866 75.382145 31.116048 75.097656 30.4 75.097656 
C 29.683952 75.097656 28.997134 75.382145 28.490812 75.888468 
C 27.984489 76.394791 27.7 77.081608 27.7 77.797656 
C 27.7 78.513705 27.984489 79.200522 28.490812 79.706845 
C 28.997134 80.213167 29.683952 80.497656 30.4 80.497656 
z
" clip-path="url(#pdcb8288170)" style="fill: #ffffff; stroke: #000000; stroke-width: 2; stroke-linejoin: miter"/>
   </g>
   <g id="text_1">
    <!-- $R$ -->
    <g transform="translate(80.025 62.598047) scale(0.125 -0.125)">
     <defs>
      <path id="DejaVuSans-Oblique-52" d="M 1613 4147 
L 1294 2491 
L 2106 2491 
Q 2584 2491 2879 2755 
Q 3175 3019 3175 3444 
Q 3175 3784 2976 3965 
Q 2778 4147 2406 4147 
L 1613 4147 
z
M 2772 2241 
Q 2972 2194 3105 2009 
Q 3238 1825 3413 1275 
L 3809 0 
L 3144 0 
L 2778 1197 
Q 2638 1659 2453 1815 
Q 2269 1972 1888 1972 
L 1191 1972 
L 806 0 
L 172 0 
L 1081 4666 
L 2503 4666 
Q 3150 4666 3495 4373 
Q 3841 4081 3841 3531 
Q 3841 3044 3547 2687 
Q 3253 2331 2772 2241 
z
" transform="scale(0.015625)"/>
     </defs>
     <use xlink:href="#DejaVuSans-Oblique-52" transform="translate(0 0.09375)"/>
    </g>
   </g>
   <g id="text_2">
    <!-- $U_{e1}$ -->
    <g transform="translate(3.6 81.246875) scale(0.125 -0.125)">
     <defs>
      <path id="DejaVuSans-Oblique-55" d="M 991 4666 
L 1625 4666 
L 1075 1831 
Q 1041 1641 1027 1517 
Q 1013 1394 1013 1300 
Q 1013 869 1253 645 
Q 1494 422 1959 422 
Q 2563 422 2898 753 
Q 3234 1084 3378 1831 
L 3928 4666 
L 4563 4666 
L 4000 1753 
Q 3816 809 3300 359 
Q 2784 -91 1888 -91 
Q 1188 -91 780 261 
Q 372 613 372 1216 
Q 372 1325 387 1461 
Q 403 1597 434 1753 
L 991 4666 
z
" transform="scale(0.015625)"/>
      <path id="DejaVuSans-Oblique-65" d="M 3078 2063 
Q 3088 2113 3092 2166 
Q 3097 2219 3097 2272 
Q 3097 2653 2873 2875 
Q 2650 3097 2266 3097 
Q 1838 3097 1509 2826 
Q 1181 2556 1013 2059 
L 3078 2063 
z
M 3578 1613 
L 903 1613 
Q 884 1494 878 1425 
Q 872 1356 872 1306 
Q 872 872 1139 634 
Q 1406 397 1894 397 
Q 2269 397 2603 481 
Q 2938 566 3225 728 
L 3116 159 
Q 2806 34 2476 -28 
Q 2147 -91 1806 -91 
Q 1078 -91 686 257 
Q 294 606 294 1247 
Q 294 1794 489 2264 
Q 684 2734 1063 3103 
Q 1306 3334 1642 3459 
Q 1978 3584 2356 3584 
Q 2950 3584 3301 3228 
Q 3653 2872 3653 2272 
Q 3653 2128 3634 1964 
Q 3616 1800 3578 1613 
z
" transform="scale(0.015625)"/>
      <path id="DejaVuSans-31" d="M 794 531 
L 1825 531 
L 1825 4091 
L 703 3866 
L 703 4441 
L 1819 4666 
L 2450 4666 
L 2450 531 
L 3481 531 
L 3481 0 
L 794 0 
L 794 531 
z
" transform="scale(0.015625)"/>
     </defs>
     <use xlink:href="#DejaVuSans-Oblique-55" transform="translate(0 0.09375)"/>
     <use xlink:href="#DejaVuSans-Oblique-65" transform="translate(73.193359 -16.3125) scale(0.7)"/>
     <use xlink:href="#DejaVuSans-31" transform="translate(116.259766 -16.3125) scale(0.7)"/>
    </g>
   </g>
   <g id="patch_4">
    <path d="M 288.342286 102.997656 
C 289.058335 102.997656 289.745152 102.713167 290.251475 102.206845 
C 290.757797 101.700522 291.042286 101.013705 291.042286 100.297656 
C 291.042286 99.581608 290.757797 98.894791 290.251475 98.388468 
C 289.745152 97.882145 289.058335 97.597656 288.342286 97.597656 
C 287.626238 97.597656 286.939421 97.882145 286.433098 98.388468 
C 285.926775 98.894791 285.642286 99.581608 285.642286 100.297656 
C 285.642286 101.013705 285.926775 101.700522 286.433098 102.206845 
C 286.939421 102.713167 287.626238 102.997656 288.342286 102.997656 
z
" clip-path="url(#pdcb8288170)" style="stroke: #000000; stroke-width: 2; stroke-linejoin: miter"/>
   </g>
   <g id="text_3">
    <!-- $R$ -->
    <g transform="translate(229.967286 13.098047) scale(0.125 -0.125)">
     <use xlink:href="#DejaVuSans-Oblique-52" transform="translate(0 0.09375)"/>
    </g>
   </g>
   <g id="patch_5">
    <path d="M 360.342286 102.997656 
C 361.058335 102.997656 361.745152 102.713167 362.251475 102.206845 
C 362.757797 101.700522 363.042286 101.013705 363.042286 100.297656 
C 363.042286 99.581608 362.757797 98.894791 362.251475 98.388468 
C 361.745152 97.882145 361.058335 97.597656 360.342286 97.597656 
C 359.626238 97.597656 358.939421 97.882145 358.433098 98.388468 
C 357.926775 98.894791 357.642286 99.581608 357.642286 100.297656 
C 357.642286 101.013705 357.926775 101.700522 358.433098 102.206845 
C 358.939421 102.713167 359.626238 102.997656 360.342286 102.997656 
z
" clip-path="url(#pdcb8288170)" style="fill: #ffffff; stroke: #000000; stroke-width: 2; stroke-linejoin: miter"/>
   </g>
   <g id="text_4">
    <!-- $U_a$ -->
    <g transform="translate(366.642286 103.746875) scale(0.125 -0.125)">
     <defs>
      <path id="DejaVuSans-Oblique-61" d="M 3438 1997 
L 3047 0 
L 2472 0 
L 2578 531 
Q 2325 219 2001 64 
Q 1678 -91 1281 -91 
Q 834 -91 548 182 
Q 263 456 263 884 
Q 263 1497 752 1853 
Q 1241 2209 2100 2209 
L 2900 2209 
L 2931 2363 
Q 2938 2388 2941 2417 
Q 2944 2447 2944 2509 
Q 2944 2788 2717 2942 
Q 2491 3097 2081 3097 
Q 1800 3097 1504 3025 
Q 1209 2953 897 2809 
L 997 3341 
Q 1322 3463 1633 3523 
Q 1944 3584 2234 3584 
Q 2853 3584 3176 3315 
Q 3500 3047 3500 2534 
Q 3500 2431 3484 2292 
Q 3469 2153 3438 1997 
z
M 2816 1759 
L 2241 1759 
Q 1534 1759 1195 1570 
Q 856 1381 856 984 
Q 856 709 1029 553 
Q 1203 397 1509 397 
Q 1978 397 2328 733 
Q 2678 1069 2791 1631 
L 2816 1759 
z
" transform="scale(0.015625)"/>
     </defs>
     <use xlink:href="#DejaVuSans-Oblique-55" transform="translate(0 0.09375)"/>
     <use xlink:href="#DejaVuSans-Oblique-61" transform="translate(73.193359 -16.3125) scale(0.7)"/>
    </g>
   </g>
   <g id="patch_6">
    <path d="M 138.4 125.497656 
C 139.116048 125.497656 139.802866 125.213167 140.309188 124.706845 
C 140.815511 124.200522 141.1 123.513705 141.1 122.797656 
C 141.1 122.081608 140.815511 121.394791 140.309188 120.888468 
C 139.802866 120.382145 139.116048 120.097656 138.4 120.097656 
C 137.683952 120.097656 136.997134 120.382145 136.490812 120.888468 
C 135.984489 121.394791 135.7 122.081608 135.7 122.797656 
C 135.7 123.513705 135.984489 124.200522 136.490812 124.706845 
C 136.997134 125.213167 137.683952 125.497656 138.4 125.497656 
z
" clip-path="url(#pdcb8288170)" style="stroke: #000000; stroke-width: 2; stroke-linejoin: miter"/>
   </g>
   <g id="text_5">
    <!-- $R$ -->
    <g transform="translate(117.05 180.246875) scale(0.125 -0.125)">
     <use xlink:href="#DejaVuSans-Oblique-52" transform="translate(0 0.09375)"/>
    </g>
   </g>
   <g id="patch_7">
    <path d="M 30.4 125.497656 
C 31.116048 125.497656 31.802866 125.213167 32.309188 124.706845 
C 32.815511 124.200522 33.1 123.513705 33.1 122.797656 
C 33.1 122.081608 32.815511 121.394791 32.309188 120.888468 
C 31.802866 120.382145 31.116048 120.097656 30.4 120.097656 
C 29.683952 120.097656 28.997134 120.382145 28.490812 120.888468 
C 27.984489 121.394791 27.7 122.081608 27.7 122.797656 
C 27.7 123.513705 27.984489 124.200522 28.490812 124.706845 
C 28.997134 125.213167 29.683952 125.497656 30.4 125.497656 
z
" clip-path="url(#pdcb8288170)" style="fill: #ffffff; stroke: #000000; stroke-width: 2; stroke-linejoin: miter"/>
   </g>
   <g id="text_6">
    <!-- $R$ -->
    <g transform="translate(78.675 107.598047) scale(0.125 -0.125)">
     <use xlink:href="#DejaVuSans-Oblique-52" transform="translate(0 0.09375)"/>
    </g>
   </g>
   <g id="text_7">
    <!-- $U_{e2}$ -->
    <g transform="translate(3.6 126.246875) scale(0.125 -0.125)">
     <defs>
      <path id="DejaVuSans-32" d="M 1228 531 
L 3431 531 
L 3431 0 
L 469 0 
L 469 531 
Q 828 903 1448 1529 
Q 2069 2156 2228 2338 
Q 2531 2678 2651 2914 
Q 2772 3150 2772 3378 
Q 2772 3750 2511 3984 
Q 2250 4219 1831 4219 
Q 1534 4219 1204 4116 
Q 875 4013 500 3803 
L 500 4441 
Q 881 4594 1212 4672 
Q 1544 4750 1819 4750 
Q 2544 4750 2975 4387 
Q 3406 4025 3406 3419 
Q 3406 3131 3298 2873 
Q 3191 2616 2906 2266 
Q 2828 2175 2409 1742 
Q 1991 1309 1228 531 
z
" transform="scale(0.015625)"/>
     </defs>
     <use xlink:href="#DejaVuSans-Oblique-55" transform="translate(0 0.09375)"/>
     <use xlink:href="#DejaVuSans-Oblique-65" transform="translate(73.193359 -16.3125) scale(0.7)"/>
     <use xlink:href="#DejaVuSans-32" transform="translate(116.259766 -16.3125) scale(0.7)"/>
    </g>
   </g>
  </g>
 </g>
 <defs>
  <clipPath id="pdcb8288170">
   <rect x="10.932886" y="7.570656" width="368.876515" height="257.994"/>
  </clipPath>
 </defs>
</svg>