<?xml version="1.0" encoding="utf-8" standalone="no"?>
<!DOCTYPE svg PUBLIC "-//W3C//DTD SVG 1.1//EN"
  "http://www.w3.org/Graphics/SVG/1.1/DTD/svg11.dtd">
<svg xmlns:xlink="http://www.w3.org/1999/xlink" width="298.328203pt" height="139.86pt" viewBox="0 0 298.328203 139.86" xmlns="http://www.w3.org/2000/svg" version="1.1">
 <metadata>
  <rdf:RDF xmlns:dc="http://purl.org/dc/elements/1.1/" xmlns:cc="http://creativecommons.org/ns#" xmlns:rdf="http://www.w3.org/1999/02/22-rdf-syntax-ns#">
   <cc:Work>
    <dc:type rdf:resource="http://purl.org/dc/dcmitype/StillImage"/>
    <dc:date>2023-06-14T16:51:39.102589</dc:date>
    <dc:format>image/svg+xml</dc:format>
    <dc:creator>
     <cc:Agent>
      <dc:title>Matplotlib v3.7.1, https://matplotlib.org/</dc:title>
     </cc:Agent>
    </dc:creator>
   </cc:Work>
  </rdf:RDF>
 </metadata>
 <defs>
  <style type="text/css">*{stroke-linejoin: round; stroke-linecap: butt}</style>
 </defs>
 <g id="figure_1">
  <g id="patch_1">
   <path d="M 0 139.86 
L 298.328203 139.86 
L 298.328203 0 
L 0 0 
z
" style="fill: #ffffff"/>
  </g>
  <g id="axes_1">
   <g id="line2d_1">
    <path d="M 30.128203 9.63 
L 30.128203 130.23 
" clip-path="url(#p8a009c2309)" style="fill: none; stroke-dasharray: 1,1.65; stroke-dashoffset: 0; stroke: #dddddd"/>
   </g>
   <g id="line2d_2">
    <path d="M 66.128203 9.63 
L 66.128203 130.23 
" clip-path="url(#p8a009c2309)" style="fill: none; stroke-dasharray: 1,1.65; stroke-dashoffset: 0; stroke: #dddddd"/>
   </g>
   <g id="line2d_3">
    <path d="M 102.128203 9.63 
L 102.128203 130.23 
" clip-path="url(#p8a009c2309)" style="fill: none; stroke-dasharray: 1,1.65; stroke-dashoffset: 0; stroke: #dddddd"/>
   </g>
   <g id="line2d_4">
    <path d="M 138.128203 9.63 
L 138.128203 130.23 
" clip-path="url(#p8a009c2309)" style="fill: none; stroke-dasharray: 1,1.65; stroke-dashoffset: 0; stroke: #dddddd"/>
   </g>
   <g id="line2d_5">
    <path d="M 174.128203 9.63 
L 174.128203 130.23 
" clip-path="url(#p8a009c2309)" style="fill: none; stroke-dasharray: 1,1.65; stroke-dashoffset: 0; stroke: #dddddd"/>
   </g>
   <g id="line2d_6">
    <path d="M 210.128203 9.63 
L 210.128203 130.23 
" clip-path="url(#p8a009c2309)" style="fill: none; stroke-dasharray: 1,1.65; stroke-dashoffset: 0; stroke: #dddddd"/>
   </g>
   <g id="line2d_7">
    <path d="M 246.128203 9.63 
L 246.128203 130.23 
" clip-path="url(#p8a009c2309)" style="fill: none; stroke-dasharray: 1,1.65; stroke-dashoffset: 0; stroke: #dddddd"/>
   </g>
   <g id="line2d_8">
    <path d="M 282.128203 9.63 
L 282.128203 130.23 
" clip-path="url(#p8a009c2309)" style="fill: none; stroke-dasharray: 1,1.65; stroke-dashoffset: 0; stroke: #dddddd"/>
   </g>
   <g id="line2d_9">
    <path d="M 30.128203 15.03 
L 66.128203 15.03 
" clip-path="url(#pb7007e66ec)" style="fill: none; stroke: #000000; stroke-linecap: round"/>
   </g>
   <g id="line2d_10">
    <path d="M 66.128203 15.03 
L 68.828203 24.03 
L 71.528203 15.03 
L 102.128203 15.03 
" clip-path="url(#pb7007e66ec)" style="fill: none; stroke: #000000; stroke-linecap: round"/>
   </g>
   <g id="line2d_11">
    <path d="M 102.128203 15.03 
L 107.528203 33.03 
L 138.128203 33.03 
" clip-path="url(#pb7007e66ec)" style="fill: none; stroke: #000000; stroke-linecap: round"/>
   </g>
   <g id="line2d_12">
    <path d="M 138.128203 33.03 
L 140.828203 24.03 
L 143.528203 33.03 
L 174.128203 33.03 
" clip-path="url(#pb7007e66ec)" style="fill: none; stroke: #000000; stroke-linecap: round"/>
   </g>
   <g id="line2d_13">
    <path d="M 174.128203 33.03 
L 179.528203 15.03 
L 210.128203 15.03 
" clip-path="url(#pb7007e66ec)" style="fill: none; stroke: #000000; stroke-linecap: round"/>
   </g>
   <g id="line2d_14">
    <path d="M 210.128203 15.03 
L 215.528203 33.03 
L 246.128203 33.03 
" clip-path="url(#pb7007e66ec)" style="fill: none; stroke: #000000; stroke-linecap: round"/>
   </g>
   <g id="line2d_15">
    <path d="M 246.128203 33.03 
L 251.528203 15.03 
L 282.128203 15.03 
" clip-path="url(#pb7007e66ec)" style="fill: none; stroke: #000000; stroke-linecap: round"/>
   </g>
   <g id="line2d_16">
    <path d="M 30.128203 43.83 
L 66.128203 43.83 
" clip-path="url(#pb7007e66ec)" style="fill: none; stroke: #000000; stroke-linecap: round"/>
   </g>
   <g id="line2d_17">
    <path d="M 66.128203 43.83 
L 68.828203 52.83 
L 71.528203 43.83 
L 102.128203 43.83 
" clip-path="url(#pb7007e66ec)" style="fill: none; stroke: #000000; stroke-linecap: round"/>
   </g>
   <g id="line2d_18">
    <path d="M 102.128203 43.83 
L 104.828203 52.83 
L 107.528203 43.83 
L 138.128203 43.83 
" clip-path="url(#pb7007e66ec)" style="fill: none; stroke: #000000; stroke-linecap: round"/>
   </g>
   <g id="line2d_19">
    <path d="M 138.128203 43.83 
L 143.528203 61.83 
L 174.128203 61.83 
" clip-path="url(#pb7007e66ec)" style="fill: none; stroke: #000000; stroke-linecap: round"/>
   </g>
   <g id="line2d_20">
    <path d="M 174.128203 61.83 
L 179.528203 43.83 
L 210.128203 43.83 
" clip-path="url(#pb7007e66ec)" style="fill: none; stroke: #000000; stroke-linecap: round"/>
   </g>
   <g id="line2d_21">
    <path d="M 210.128203 43.83 
L 215.528203 61.83 
L 246.128203 61.83 
" clip-path="url(#pb7007e66ec)" style="fill: none; stroke: #000000; stroke-linecap: round"/>
   </g>
   <g id="line2d_22">
    <path d="M 246.128203 61.83 
L 248.828203 52.83 
L 251.528203 61.83 
L 282.128203 61.83 
" clip-path="url(#pb7007e66ec)" style="fill: none; stroke: #000000; stroke-linecap: round"/>
   </g>
   <g id="line2d_23">
    <path d="M 30.128203 72.63 
L 66.128203 72.63 
" clip-path="url(#pb7007e66ec)" style="fill: none; stroke: #000000; stroke-linecap: round"/>
   </g>
   <g id="line2d_24">
    <path d="M 66.128203 72.63 
L 68.828203 81.63 
L 71.528203 72.63 
L 102.128203 72.63 
" clip-path="url(#pb7007e66ec)" style="fill: none; stroke: #000000; stroke-linecap: round"/>
   </g>
   <g id="line2d_25">
    <path d="M 102.128203 72.63 
L 107.528203 90.63 
L 138.128203 90.63 
" clip-path="url(#pb7007e66ec)" style="fill: none; stroke: #000000; stroke-linecap: round"/>
   </g>
   <g id="line2d_26">
    <path d="M 138.128203 90.63 
L 143.528203 72.63 
L 174.128203 72.63 
" clip-path="url(#pb7007e66ec)" style="fill: none; stroke: #000000; stroke-linecap: round"/>
   </g>
   <g id="line2d_27">
    <path d="M 174.128203 72.63 
L 179.528203 90.63 
L 210.128203 90.63 
" clip-path="url(#pb7007e66ec)" style="fill: none; stroke: #000000; stroke-linecap: round"/>
   </g>
   <g id="line2d_28">
    <path d="M 210.128203 90.63 
L 212.828203 81.63 
L 215.528203 90.63 
L 246.128203 90.63 
" clip-path="url(#pb7007e66ec)" style="fill: none; stroke: #000000; stroke-linecap: round"/>
   </g>
   <g id="line2d_29">
    <path d="M 246.128203 90.63 
L 248.828203 81.63 
L 251.528203 90.63 
L 282.128203 90.63 
" clip-path="url(#pb7007e66ec)" style="fill: none; stroke: #000000; stroke-linecap: round"/>
   </g>
   <g id="line2d_30">
    <path d="M 30.128203 101.43 
L 66.128203 101.43 
" clip-path="url(#pb7007e66ec)" style="fill: none; stroke: #000000; stroke-linecap: round"/>
   </g>
   <g id="line2d_31">
    <path d="M 66.128203 101.43 
L 68.828203 110.43 
L 71.528203 101.43 
L 102.128203 101.43 
" clip-path="url(#pb7007e66ec)" style="fill: none; stroke: #000000; stroke-linecap: round"/>
   </g>
   <g id="line2d_32">
    <path d="M 102.128203 101.43 
L 107.528203 119.43 
L 138.128203 119.43 
" clip-path="url(#pb7007e66ec)" style="fill: none; stroke: #000000; stroke-linecap: round"/>
   </g>
   <g id="line2d_33">
    <path d="M 138.128203 119.43 
L 140.828203 110.43 
L 143.528203 119.43 
L 174.128203 119.43 
" clip-path="url(#pb7007e66ec)" style="fill: none; stroke: #000000; stroke-linecap: round"/>
   </g>
   <g id="line2d_34">
    <path d="M 174.128203 119.43 
L 179.528203 101.43 
L 210.128203 101.43 
" clip-path="url(#pb7007e66ec)" style="fill: none; stroke: #000000; stroke-linecap: round"/>
   </g>
   <g id="line2d_35">
    <path d="M 210.128203 101.43 
L 215.528203 119.43 
L 246.128203 119.43 
" clip-path="url(#pb7007e66ec)" style="fill: none; stroke: #000000; stroke-linecap: round"/>
   </g>
   <g id="line2d_36">
    <path d="M 246.128203 119.43 
L 251.528203 101.43 
L 282.128203 101.43 
" clip-path="url(#pb7007e66ec)" style="fill: none; stroke: #000000; stroke-linecap: round"/>
   </g>
   <g id="text_1">
    <!-- T1 -->
    <g style="fill: #0000ff" transform="translate(9.834375 30.846328) scale(0.105 -0.105)">
     <defs>
      <path id="DejaVuSans-54" d="M -19 4666 
L 3928 4666 
L 3928 4134 
L 2272 4134 
L 2272 0 
L 1638 0 
L 1638 4134 
L -19 4134 
L -19 4666 
z
" transform="scale(0.015625)"/>
      <path id="DejaVuSans-31" d="M 794 531 
L 1825 531 
L 1825 4091 
L 703 3866 
L 703 4441 
L 1819 4666 
L 2450 4666 
L 2450 531 
L 3481 531 
L 3481 0 
L 794 0 
L 794 531 
z
" transform="scale(0.015625)"/>
     </defs>
     <use xlink:href="#DejaVuSans-54"/>
     <use xlink:href="#DejaVuSans-31" x="61.083984"/>
    </g>
   </g>
   <g id="text_2">
    <!-- T2 -->
    <g style="fill: #0000ff" transform="translate(9.834375 59.646328) scale(0.105 -0.105)">
     <defs>
      <path id="DejaVuSans-32" d="M 1228 531 
L 3431 531 
L 3431 0 
L 469 0 
L 469 531 
Q 828 903 1448 1529 
Q 2069 2156 2228 2338 
Q 2531 2678 2651 2914 
Q 2772 3150 2772 3378 
Q 2772 3750 2511 3984 
Q 2250 4219 1831 4219 
Q 1534 4219 1204 4116 
Q 875 4013 500 3803 
L 500 4441 
Q 881 4594 1212 4672 
Q 1544 4750 1819 4750 
Q 2544 4750 2975 4387 
Q 3406 4025 3406 3419 
Q 3406 3131 3298 2873 
Q 3191 2616 2906 2266 
Q 2828 2175 2409 1742 
Q 1991 1309 1228 531 
z
" transform="scale(0.015625)"/>
     </defs>
     <use xlink:href="#DejaVuSans-54"/>
     <use xlink:href="#DejaVuSans-32" x="61.083984"/>
    </g>
   </g>
   <g id="text_3">
    <!-- T3 -->
    <g style="fill: #0000ff" transform="translate(9.834375 88.446328) scale(0.105 -0.105)">
     <defs>
      <path id="DejaVuSans-33" d="M 2597 2516 
Q 3050 2419 3304 2112 
Q 3559 1806 3559 1356 
Q 3559 666 3084 287 
Q 2609 -91 1734 -91 
Q 1441 -91 1130 -33 
Q 819 25 488 141 
L 488 750 
Q 750 597 1062 519 
Q 1375 441 1716 441 
Q 2309 441 2620 675 
Q 2931 909 2931 1356 
Q 2931 1769 2642 2001 
Q 2353 2234 1838 2234 
L 1294 2234 
L 1294 2753 
L 1863 2753 
Q 2328 2753 2575 2939 
Q 2822 3125 2822 3475 
Q 2822 3834 2567 4026 
Q 2313 4219 1838 4219 
Q 1578 4219 1281 4162 
Q 984 4106 628 3988 
L 628 4550 
Q 988 4650 1302 4700 
Q 1616 4750 1894 4750 
Q 2613 4750 3031 4423 
Q 3450 4097 3450 3541 
Q 3450 3153 3228 2886 
Q 3006 2619 2597 2516 
z
" transform="scale(0.015625)"/>
     </defs>
     <use xlink:href="#DejaVuSans-54"/>
     <use xlink:href="#DejaVuSans-33" x="61.083984"/>
    </g>
   </g>
   <g id="text_4">
    <!-- Bus -->
    <g style="fill: #0000ff" transform="translate(3.6 117.246328) scale(0.105 -0.105)">
     <defs>
      <path id="DejaVuSans-42" d="M 1259 2228 
L 1259 519 
L 2272 519 
Q 2781 519 3026 730 
Q 3272 941 3272 1375 
Q 3272 1813 3026 2020 
Q 2781 2228 2272 2228 
L 1259 2228 
z
M 1259 4147 
L 1259 2741 
L 2194 2741 
Q 2656 2741 2882 2914 
Q 3109 3088 3109 3444 
Q 3109 3797 2882 3972 
Q 2656 4147 2194 4147 
L 1259 4147 
z
M 628 4666 
L 2241 4666 
Q 2963 4666 3353 4366 
Q 3744 4066 3744 3513 
Q 3744 3084 3544 2831 
Q 3344 2578 2956 2516 
Q 3422 2416 3680 2098 
Q 3938 1781 3938 1306 
Q 3938 681 3513 340 
Q 3088 0 2303 0 
L 628 0 
L 628 4666 
z
" transform="scale(0.015625)"/>
      <path id="DejaVuSans-75" d="M 544 1381 
L 544 3500 
L 1119 3500 
L 1119 1403 
Q 1119 906 1312 657 
Q 1506 409 1894 409 
Q 2359 409 2629 706 
Q 2900 1003 2900 1516 
L 2900 3500 
L 3475 3500 
L 3475 0 
L 2900 0 
L 2900 538 
Q 2691 219 2414 64 
Q 2138 -91 1772 -91 
Q 1169 -91 856 284 
Q 544 659 544 1381 
z
M 1991 3584 
L 1991 3584 
z
" transform="scale(0.015625)"/>
      <path id="DejaVuSans-73" d="M 2834 3397 
L 2834 2853 
Q 2591 2978 2328 3040 
Q 2066 3103 1784 3103 
Q 1356 3103 1142 2972 
Q 928 2841 928 2578 
Q 928 2378 1081 2264 
Q 1234 2150 1697 2047 
L 1894 2003 
Q 2506 1872 2764 1633 
Q 3022 1394 3022 966 
Q 3022 478 2636 193 
Q 2250 -91 1575 -91 
Q 1294 -91 989 -36 
Q 684 19 347 128 
L 347 722 
Q 666 556 975 473 
Q 1284 391 1588 391 
Q 1994 391 2212 530 
Q 2431 669 2431 922 
Q 2431 1156 2273 1281 
Q 2116 1406 1581 1522 
L 1381 1569 
Q 847 1681 609 1914 
Q 372 2147 372 2553 
Q 372 3047 722 3315 
Q 1072 3584 1716 3584 
Q 2034 3584 2315 3537 
Q 2597 3491 2834 3397 
z
" transform="scale(0.015625)"/>
     </defs>
     <use xlink:href="#DejaVuSans-42"/>
     <use xlink:href="#DejaVuSans-75" x="68.603516"/>
     <use xlink:href="#DejaVuSans-73" x="131.982422"/>
    </g>
   </g>
  </g>
 </g>
 <defs>
  <clipPath id="p8a009c2309">
   <rect x="17.528203" y="3.6" width="277.2" height="132.66"/>
  </clipPath>
  <clipPath id="pb7007e66ec">
   <rect x="30.128203" y="13.23" width="252" height="135"/>
  </clipPath>
 </defs>
</svg>