<?xml version="1.0" encoding="utf-8" standalone="no"?>
<!DOCTYPE svg PUBLIC "-//W3C//DTD SVG 1.1//EN"
  "http://www.w3.org/Graphics/SVG/1.1/DTD/svg11.dtd">
<svg xmlns:xlink="http://www.w3.org/1999/xlink" width="349.74pt" height="126pt" viewBox="0 0 349.74 126" xmlns="http://www.w3.org/2000/svg" version="1.1">
 <metadata>
  <rdf:RDF xmlns:dc="http://purl.org/dc/elements/1.1/" xmlns:cc="http://creativecommons.org/ns#" xmlns:rdf="http://www.w3.org/1999/02/22-rdf-syntax-ns#">
   <cc:Work>
    <dc:type rdf:resource="http://purl.org/dc/dcmitype/StillImage"/>
    <dc:date>2023-06-14T16:51:47.659859</dc:date>
    <dc:format>image/svg+xml</dc:format>
    <dc:creator>
     <cc:Agent>
      <dc:title>Matplotlib v3.7.1, https://matplotlib.org/</dc:title>
     </cc:Agent>
    </dc:creator>
   </cc:Work>
  </rdf:RDF>
 </metadata>
 <defs>
  <style type="text/css">*{stroke-linejoin: round; stroke-linecap: butt}</style>
 </defs>
 <g id="figure_1">
  <g id="patch_1">
   <path d="M 0 126 
L 349.74 126 
L 349.74 0 
L 0 0 
z
" style="fill: #ffffff"/>
  </g>
  <g id="axes_1">
   <g id="patch_2">
    <path d="M 93.87 63 
C 98.643656 63 103.222438 61.103406 106.597922 57.727922 
C 109.973406 54.352438 111.87 49.773656 111.87 45 
C 111.87 40.226344 109.973406 35.647562 106.597922 32.272078 
C 103.222438 28.896594 98.643656 27 93.87 27 
C 89.096344 27 84.517562 28.896594 81.142078 32.272078 
C 77.766594 35.647562 75.87 40.226344 75.87 45 
C 75.87 49.773656 77.766594 54.352438 81.142078 57.727922 
C 84.517562 61.103406 89.096344 63 93.87 63 
L 93.87 63 
z
" clip-path="url(#p32022a5dcb)" style="fill: none; stroke: #000000; stroke-width: 2; stroke-linejoin: miter"/>
   </g>
   <g id="line2d_1">
    <path d="M 21.87 45 
L 48.87 45 
L 75.87 45 
" clip-path="url(#p32022a5dcb)" style="fill: none; stroke: #000000; stroke-width: 2; stroke-linecap: round"/>
   </g>
   <g id="line2d_2">
    <path d="M 129.87 81 
L 255.87 81 
L 255.87 9 
L 129.87 9 
L 129.87 81 
" clip-path="url(#p32022a5dcb)" style="fill: none; stroke: #000000; stroke-width: 2; stroke-linecap: round"/>
   </g>
   <g id="line2d_3">
    <path d="M 129.87 45 
L 111.87 45 
" clip-path="url(#p32022a5dcb)" style="fill: none; stroke: #000000; stroke-width: 2; stroke-linecap: round"/>
   </g>
   <g id="line2d_4">
    <path d="M 255.87 45 
L 273.87 45 
" clip-path="url(#p32022a5dcb)" style="fill: none; stroke: #000000; stroke-width: 2; stroke-linecap: round"/>
   </g>
   <g id="line2d_5">
    <path d="M 273.87 45 
L 300.87 45 
L 327.87 45 
" clip-path="url(#p32022a5dcb)" style="fill: none; stroke: #000000; stroke-width: 2; stroke-linecap: round"/>
   </g>
   <g id="line2d_6">
    <path d="M 273.87 45 
L 273.87 81 
L 273.87 117 
" clip-path="url(#p32022a5dcb)" style="fill: none; stroke: #000000; stroke-width: 2; stroke-linecap: round"/>
   </g>
   <g id="line2d_7">
    <path d="M 273.87 117 
L 93.87 117 
L 93.87 63 
" clip-path="url(#p32022a5dcb)" style="fill: none; stroke: #000000; stroke-width: 2; stroke-linecap: round"/>
   </g>
   <g id="patch_3">
    <path d="M 21.87 47.7 
C 22.586048 47.7 23.272866 47.415511 23.779188 46.909188 
C 24.285511 46.402866 24.57 45.716048 24.57 45 
C 24.57 44.283952 24.285511 43.597134 23.779188 43.090812 
C 23.272866 42.584489 22.586048 42.3 21.87 42.3 
C 21.153952 42.3 20.467134 42.584489 19.960812 43.090812 
C 19.454489 43.597134 19.17 44.283952 19.17 45 
C 19.17 45.716048 19.454489 46.402866 19.960812 46.909188 
C 20.467134 47.415511 21.153952 47.7 21.87 47.7 
z
" clip-path="url(#p32022a5dcb)" style="fill: #ffffff; stroke: #000000; stroke-width: 2; stroke-linejoin: miter"/>
   </g>
   <g id="text_1">
    <!-- + -->
    <g transform="translate(65.395391 37.649219) scale(0.125 -0.125)">
     <defs>
      <path id="DejaVuSans-2b" d="M 2944 4013 
L 2944 2272 
L 4684 2272 
L 4684 1741 
L 2944 1741 
L 2944 0 
L 2419 0 
L 2419 1741 
L 678 1741 
L 678 2272 
L 2419 2272 
L 2419 4013 
L 2944 4013 
z
" transform="scale(0.015625)"/>
     </defs>
     <use xlink:href="#DejaVuSans-2b"/>
    </g>
   </g>
   <g id="text_2">
    <!-- - -->
    <g transform="translate(102.415117 72.498047) scale(0.125 -0.125)">
     <defs>
      <path id="DejaVuSans-2d" d="M 313 2009 
L 1997 2009 
L 1997 1497 
L 313 1497 
L 313 2009 
z
" transform="scale(0.015625)"/>
     </defs>
     <use xlink:href="#DejaVuSans-2d"/>
    </g>
   </g>
   <g id="text_3">
    <!-- $F_O(s)$ -->
    <g transform="translate(177.495 44.849219) scale(0.125 -0.125)">
     <defs>
      <path id="DejaVuSans-Oblique-46" d="M 1081 4666 
L 3756 4666 
L 3653 4134 
L 1606 4134 
L 1338 2759 
L 3188 2759 
L 3084 2228 
L 1234 2228 
L 800 0 
L 172 0 
L 1081 4666 
z
" transform="scale(0.015625)"/>
      <path id="DejaVuSans-Oblique-4f" d="M 2919 4238 
Q 2400 4238 2003 3986 
Q 1606 3734 1313 3219 
Q 1125 2891 1026 2522 
Q 928 2153 928 1778 
Q 928 1128 1239 775 
Q 1550 422 2119 422 
Q 2631 422 3032 676 
Q 3434 931 3719 1434 
Q 3909 1772 4009 2142 
Q 4109 2513 4109 2881 
Q 4109 3528 3796 3883 
Q 3484 4238 2919 4238 
z
M 2100 -91 
Q 1241 -91 748 418 
Q 256 928 256 1813 
Q 256 2319 448 2847 
Q 641 3375 978 3788 
Q 1375 4272 1862 4511 
Q 2350 4750 2938 4750 
Q 3794 4750 4287 4245 
Q 4781 3741 4781 2869 
Q 4781 2331 4593 1812 
Q 4406 1294 4056 872 
Q 3656 384 3173 146 
Q 2691 -91 2100 -91 
z
" transform="scale(0.015625)"/>
      <path id="DejaVuSans-28" d="M 1984 4856 
Q 1566 4138 1362 3434 
Q 1159 2731 1159 2009 
Q 1159 1288 1364 580 
Q 1569 -128 1984 -844 
L 1484 -844 
Q 1016 -109 783 600 
Q 550 1309 550 2009 
Q 550 2706 781 3412 
Q 1013 4119 1484 4856 
L 1984 4856 
z
" transform="scale(0.015625)"/>
      <path id="DejaVuSans-Oblique-73" d="M 3200 3397 
L 3091 2853 
Q 2863 2978 2609 3040 
Q 2356 3103 2088 3103 
Q 1634 3103 1373 2948 
Q 1113 2794 1113 2528 
Q 1113 2219 1719 2053 
Q 1766 2041 1788 2034 
L 1972 1978 
Q 2547 1819 2739 1644 
Q 2931 1469 2931 1166 
Q 2931 609 2489 259 
Q 2047 -91 1331 -91 
Q 1053 -91 747 -37 
Q 441 16 72 128 
L 184 722 
Q 500 559 806 475 
Q 1113 391 1394 391 
Q 1816 391 2080 572 
Q 2344 753 2344 1031 
Q 2344 1331 1650 1516 
L 1591 1531 
L 1394 1581 
Q 956 1697 753 1886 
Q 550 2075 550 2369 
Q 550 2928 970 3256 
Q 1391 3584 2113 3584 
Q 2397 3584 2667 3537 
Q 2938 3491 3200 3397 
z
" transform="scale(0.015625)"/>
      <path id="DejaVuSans-29" d="M 513 4856 
L 1013 4856 
Q 1481 4119 1714 3412 
Q 1947 2706 1947 2009 
Q 1947 1309 1714 600 
Q 1481 -109 1013 -844 
L 513 -844 
Q 928 -128 1133 580 
Q 1338 1288 1338 2009 
Q 1338 2731 1133 3434 
Q 928 4138 513 4856 
z
" transform="scale(0.015625)"/>
     </defs>
     <use xlink:href="#DejaVuSans-Oblique-46" transform="translate(0 0.125)"/>
     <use xlink:href="#DejaVuSans-Oblique-4f" transform="translate(57.519531 -16.28125) scale(0.7)"/>
     <use xlink:href="#DejaVuSans-28" transform="translate(115.351562 0.125)"/>
     <use xlink:href="#DejaVuSans-Oblique-73" transform="translate(154.365234 0.125)"/>
     <use xlink:href="#DejaVuSans-29" transform="translate(206.464844 0.125)"/>
    </g>
   </g>
   <g id="patch_4">
    <path d="M 327.87 47.7 
C 328.586048 47.7 329.272866 47.415511 329.779188 46.909188 
C 330.285511 46.402866 330.57 45.716048 330.57 45 
C 330.57 44.283952 330.285511 43.597134 329.779188 43.090812 
C 329.272866 42.584489 328.586048 42.3 327.87 42.3 
C 327.153952 42.3 326.467134 42.584489 325.960812 43.090812 
C 325.454489 43.597134 325.17 44.283952 325.17 45 
C 325.17 45.716048 325.454489 46.402866 325.960812 46.909188 
C 326.467134 47.415511 327.153952 47.7 327.87 47.7 
z
" clip-path="url(#p32022a5dcb)" style="fill: #ffffff; stroke: #000000; stroke-width: 2; stroke-linejoin: miter"/>
   </g>
   <g id="patch_5">
    <path d="M 273.87 47.7 
C 274.586048 47.7 275.272866 47.415511 275.779188 46.909188 
C 276.285511 46.402866 276.57 45.716048 276.57 45 
C 276.57 44.283952 276.285511 43.597134 275.779188 43.090812 
C 275.272866 42.584489 274.586048 42.3 273.87 42.3 
C 273.153952 42.3 272.467134 42.584489 271.960812 43.090812 
C 271.454489 43.597134 271.17 44.283952 271.17 45 
C 271.17 45.716048 271.454489 46.402866 271.960812 46.909188 
C 272.467134 47.415511 273.153952 47.7 273.87 47.7 
z
" clip-path="url(#p32022a5dcb)" style="stroke: #000000; stroke-width: 2; stroke-linejoin: miter"/>
   </g>
  </g>
 </g>
 <defs>
  <clipPath id="p32022a5dcb">
   <rect x="3.6" y="3.6" width="342.54" height="118.8"/>
  </clipPath>
 </defs>
</svg>