<?xml version="1.0" encoding="utf-8" standalone="no"?>
<!DOCTYPE svg PUBLIC "-//W3C//DTD SVG 1.1//EN"
  "http://www.w3.org/Graphics/SVG/1.1/DTD/svg11.dtd">
<svg xmlns:xlink="http://www.w3.org/1999/xlink" width="684.8154pt" height="173.52pt" viewBox="0 0 684.8154 173.52" xmlns="http://www.w3.org/2000/svg" version="1.1">
 <metadata>
  <rdf:RDF xmlns:dc="http://purl.org/dc/elements/1.1/" xmlns:cc="http://creativecommons.org/ns#" xmlns:rdf="http://www.w3.org/1999/02/22-rdf-syntax-ns#">
   <cc:Work>
    <dc:type rdf:resource="http://purl.org/dc/dcmitype/StillImage"/>
    <dc:date>2023-06-02T19:33:11.422035</dc:date>
    <dc:format>image/svg+xml</dc:format>
    <dc:creator>
     <cc:Agent>
      <dc:title>Matplotlib v3.7.1, https://matplotlib.org/</dc:title>
     </cc:Agent>
    </dc:creator>
   </cc:Work>
  </rdf:RDF>
 </metadata>
 <defs>
  <style type="text/css">*{stroke-linejoin: round; stroke-linecap: butt}</style>
 </defs>
 <g id="figure_1">
  <g id="patch_1">
   <path d="M -0 173.52 
L 684.8154 173.52 
L 684.8154 0 
L -0 0 
z
" style="fill: #ffffff"/>
  </g>
  <g id="axes_1">
   <g id="patch_2">
    <path d="M 119.655 56.16 
C 123.712607 56.16 127.604572 54.547895 130.473734 51.678734 
C 133.342895 48.809572 134.955 44.917607 134.955 40.86 
C 134.955 36.802393 133.342895 32.910428 130.473734 30.041266 
C 127.604572 27.172105 123.712607 25.56 119.655 25.56 
C 115.597393 25.56 111.705428 27.172105 108.836266 30.041266 
C 105.967105 32.910428 104.355 36.802393 104.355 40.86 
C 104.355 44.917607 105.967105 48.809572 108.836266 51.678734 
C 111.705428 54.547895 115.597393 56.16 119.655 56.16 
L 119.655 56.16 
z
" clip-path="url(#p70b008b984)" style="fill: none; stroke: #000000; stroke-width: 2; stroke-linejoin: miter"/>
   </g>
   <g id="line2d_1">
    <path d="M 12.555 40.86 
L 58.455 40.86 
L 96.705 40.86 
" clip-path="url(#p70b008b984)" style="fill: none; stroke: #000000; stroke-width: 2; stroke-linecap: round"/>
   </g>
   <g id="patch_3">
    <path d="M 96.705 38.565 
L 104.355 40.86 
L 96.705 43.155 
z
" clip-path="url(#p70b008b984)"/>
   </g>
   <g id="line2d_2">
    <path d="M 134.955 40.86 
L 150.255 40.86 
L 157.905 40.86 
" clip-path="url(#p70b008b984)" style="fill: none; stroke: #000000; stroke-width: 2; stroke-linecap: round"/>
   </g>
   <g id="patch_4">
    <path d="M 157.905 38.565 
L 165.555 40.86 
L 157.905 43.155 
z
" clip-path="url(#p70b008b984)"/>
   </g>
   <g id="line2d_3">
    <path d="M 165.555 40.86 
L 165.555 10.26 
L 257.355 10.26 
L 257.355 71.46 
L 165.555 71.46 
L 165.555 40.86 
" clip-path="url(#p70b008b984)" style="fill: none; stroke: #000000; stroke-width: 2; stroke-linecap: round"/>
   </g>
   <g id="line2d_4">
    <path d="M 257.355 40.86 
L 272.655 40.86 
L 280.305 40.86 
" clip-path="url(#p70b008b984)" style="fill: none; stroke: #000000; stroke-width: 2; stroke-linecap: round"/>
   </g>
   <g id="patch_5">
    <path d="M 280.305 38.565 
L 287.955 40.86 
L 280.305 43.155 
z
" clip-path="url(#p70b008b984)"/>
   </g>
   <g id="line2d_5">
    <path d="M 287.955 40.86 
L 287.955 10.26 
L 379.755 10.26 
L 379.755 71.46 
L 287.955 71.46 
L 287.955 40.86 
" clip-path="url(#p70b008b984)" style="fill: none; stroke: #000000; stroke-width: 2; stroke-linecap: round"/>
   </g>
   <g id="line2d_6">
    <path d="M 379.755 40.86 
L 395.055 40.86 
L 402.705 40.86 
" clip-path="url(#p70b008b984)" style="fill: none; stroke: #000000; stroke-width: 2; stroke-linecap: round"/>
   </g>
   <g id="patch_6">
    <path d="M 402.705 38.565 
L 410.355 40.86 
L 402.705 43.155 
z
" clip-path="url(#p70b008b984)"/>
   </g>
   <g id="line2d_7">
    <path d="M 410.355 40.86 
L 410.355 10.26 
L 502.155 10.26 
L 502.155 71.46 
L 410.355 71.46 
L 410.355 40.86 
" clip-path="url(#p70b008b984)" style="fill: none; stroke: #000000; stroke-width: 2; stroke-linecap: round"/>
   </g>
   <g id="line2d_8">
    <path d="M 502.155 40.86 
L 517.455 40.86 
L 532.755 40.86 
" clip-path="url(#p70b008b984)" style="fill: none; stroke: #000000; stroke-width: 2; stroke-linecap: round"/>
   </g>
   <g id="line2d_9">
    <path d="M 532.755 40.86 
L 578.655 40.86 
L 616.905 40.86 
" clip-path="url(#p70b008b984)" style="fill: none; stroke: #000000; stroke-width: 2; stroke-linecap: round"/>
   </g>
   <g id="patch_7">
    <path d="M 616.905 38.565 
L 624.555 40.86 
L 616.905 43.155 
z
" clip-path="url(#p70b008b984)"/>
   </g>
   <g id="line2d_10">
    <path d="M 532.755 40.86 
L 532.755 86.76 
L 532.755 132.66 
" clip-path="url(#p70b008b984)" style="fill: none; stroke: #000000; stroke-width: 2; stroke-linecap: round"/>
   </g>
   <g id="line2d_11">
    <path d="M 532.755 132.66 
L 517.455 132.66 
L 509.805 132.66 
" clip-path="url(#p70b008b984)" style="fill: none; stroke: #000000; stroke-width: 2; stroke-linecap: round"/>
   </g>
   <g id="patch_8">
    <path d="M 509.805 134.955 
L 502.155 132.66 
L 509.805 130.365 
z
" clip-path="url(#p70b008b984)"/>
   </g>
   <g id="line2d_12">
    <path d="M 410.355 132.66 
L 410.355 102.06 
L 502.155 102.06 
L 502.155 163.26 
L 410.355 163.26 
L 410.355 132.66 
" clip-path="url(#p70b008b984)" style="fill: none; stroke: #000000; stroke-width: 2; stroke-linecap: round"/>
   </g>
   <g id="line2d_13">
    <path d="M 410.355 132.66 
L 119.655 132.66 
L 119.655 63.81 
" clip-path="url(#p70b008b984)" style="fill: none; stroke: #000000; stroke-width: 2; stroke-linecap: round"/>
   </g>
   <g id="patch_9">
    <path d="M 117.36 63.81 
L 119.655 56.16 
L 121.95 63.81 
z
" clip-path="url(#p70b008b984)"/>
   </g>
   <g id="patch_10">
    <path d="M 12.555 43.155 
C 13.163641 43.155 13.747436 42.913184 14.17781 42.48281 
C 14.608184 42.052436 14.85 41.468641 14.85 40.86 
C 14.85 40.251359 14.608184 39.667564 14.17781 39.23719 
C 13.747436 38.806816 13.163641 38.565 12.555 38.565 
C 11.946359 38.565 11.362564 38.806816 10.93219 39.23719 
C 10.501816 39.667564 10.26 40.251359 10.26 40.86 
C 10.26 41.468641 10.501816 42.052436 10.93219 42.48281 
C 11.362564 42.913184 11.946359 43.155 12.555 43.155 
z
" clip-path="url(#p70b008b984)" style="fill: #ffffff; stroke: #000000; stroke-width: 2; stroke-linejoin: miter"/>
   </g>
   <g id="text_1">
    <g clip-path="url(#p70b008b984)">
     <!-- + -->
     <g transform="translate(93.880391 35.129219) scale(0.125 -0.125)">
      <defs>
       <path id="DejaVuSans-2b" d="M 2944 4013 
L 2944 2272 
L 4684 2272 
L 4684 1741 
L 2944 1741 
L 2944 0 
L 2419 0 
L 2419 1741 
L 678 1741 
L 678 2272 
L 2419 2272 
L 2419 4013 
L 2944 4013 
z
" transform="scale(0.015625)"/>
      </defs>
      <use xlink:href="#DejaVuSans-2b"/>
     </g>
    </g>
   </g>
   <g id="text_2">
    <g clip-path="url(#p70b008b984)">
     <!-- - -->
     <g transform="translate(126.580117 65.658047) scale(0.125 -0.125)">
      <defs>
       <path id="DejaVuSans-2d" d="M 313 2009 
L 1997 2009 
L 1997 1497 
L 313 1497 
L 313 2009 
z
" transform="scale(0.015625)"/>
      </defs>
      <use xlink:href="#DejaVuSans-2d"/>
     </g>
    </g>
   </g>
   <g id="text_3">
    <g clip-path="url(#p70b008b984)">
     <!-- Regler -->
     <g transform="translate(191.428633 44.309219) scale(0.125 -0.125)">
      <defs>
       <path id="DejaVuSans-52" d="M 2841 2188 
Q 3044 2119 3236 1894 
Q 3428 1669 3622 1275 
L 4263 0 
L 3584 0 
L 2988 1197 
Q 2756 1666 2539 1819 
Q 2322 1972 1947 1972 
L 1259 1972 
L 1259 0 
L 628 0 
L 628 4666 
L 2053 4666 
Q 2853 4666 3247 4331 
Q 3641 3997 3641 3322 
Q 3641 2881 3436 2590 
Q 3231 2300 2841 2188 
z
M 1259 4147 
L 1259 2491 
L 2053 2491 
Q 2509 2491 2742 2702 
Q 2975 2913 2975 3322 
Q 2975 3731 2742 3939 
Q 2509 4147 2053 4147 
L 1259 4147 
z
" transform="scale(0.015625)"/>
       <path id="DejaVuSans-65" d="M 3597 1894 
L 3597 1613 
L 953 1613 
Q 991 1019 1311 708 
Q 1631 397 2203 397 
Q 2534 397 2845 478 
Q 3156 559 3463 722 
L 3463 178 
Q 3153 47 2828 -22 
Q 2503 -91 2169 -91 
Q 1331 -91 842 396 
Q 353 884 353 1716 
Q 353 2575 817 3079 
Q 1281 3584 2069 3584 
Q 2775 3584 3186 3129 
Q 3597 2675 3597 1894 
z
M 3022 2063 
Q 3016 2534 2758 2815 
Q 2500 3097 2075 3097 
Q 1594 3097 1305 2825 
Q 1016 2553 972 2059 
L 3022 2063 
z
" transform="scale(0.015625)"/>
       <path id="DejaVuSans-67" d="M 2906 1791 
Q 2906 2416 2648 2759 
Q 2391 3103 1925 3103 
Q 1463 3103 1205 2759 
Q 947 2416 947 1791 
Q 947 1169 1205 825 
Q 1463 481 1925 481 
Q 2391 481 2648 825 
Q 2906 1169 2906 1791 
z
M 3481 434 
Q 3481 -459 3084 -895 
Q 2688 -1331 1869 -1331 
Q 1566 -1331 1297 -1286 
Q 1028 -1241 775 -1147 
L 775 -588 
Q 1028 -725 1275 -790 
Q 1522 -856 1778 -856 
Q 2344 -856 2625 -561 
Q 2906 -266 2906 331 
L 2906 616 
Q 2728 306 2450 153 
Q 2172 0 1784 0 
Q 1141 0 747 490 
Q 353 981 353 1791 
Q 353 2603 747 3093 
Q 1141 3584 1784 3584 
Q 2172 3584 2450 3431 
Q 2728 3278 2906 2969 
L 2906 3500 
L 3481 3500 
L 3481 434 
z
" transform="scale(0.015625)"/>
       <path id="DejaVuSans-6c" d="M 603 4863 
L 1178 4863 
L 1178 0 
L 603 0 
L 603 4863 
z
" transform="scale(0.015625)"/>
       <path id="DejaVuSans-72" d="M 2631 2963 
Q 2534 3019 2420 3045 
Q 2306 3072 2169 3072 
Q 1681 3072 1420 2755 
Q 1159 2438 1159 1844 
L 1159 0 
L 581 0 
L 581 3500 
L 1159 3500 
L 1159 2956 
Q 1341 3275 1631 3429 
Q 1922 3584 2338 3584 
Q 2397 3584 2469 3576 
Q 2541 3569 2628 3553 
L 2631 2963 
z
" transform="scale(0.015625)"/>
      </defs>
      <use xlink:href="#DejaVuSans-52"/>
      <use xlink:href="#DejaVuSans-65" x="64.982422"/>
      <use xlink:href="#DejaVuSans-67" x="126.505859"/>
      <use xlink:href="#DejaVuSans-6c" x="189.982422"/>
      <use xlink:href="#DejaVuSans-65" x="217.765625"/>
      <use xlink:href="#DejaVuSans-72" x="279.289062"/>
     </g>
    </g>
   </g>
   <g id="text_4">
    <g clip-path="url(#p70b008b984)">
     <!-- Stellglied -->
     <g transform="translate(304.864766 44.309219) scale(0.125 -0.125)">
      <defs>
       <path id="DejaVuSans-53" d="M 3425 4513 
L 3425 3897 
Q 3066 4069 2747 4153 
Q 2428 4238 2131 4238 
Q 1616 4238 1336 4038 
Q 1056 3838 1056 3469 
Q 1056 3159 1242 3001 
Q 1428 2844 1947 2747 
L 2328 2669 
Q 3034 2534 3370 2195 
Q 3706 1856 3706 1288 
Q 3706 609 3251 259 
Q 2797 -91 1919 -91 
Q 1588 -91 1214 -16 
Q 841 59 441 206 
L 441 856 
Q 825 641 1194 531 
Q 1563 422 1919 422 
Q 2459 422 2753 634 
Q 3047 847 3047 1241 
Q 3047 1584 2836 1778 
Q 2625 1972 2144 2069 
L 1759 2144 
Q 1053 2284 737 2584 
Q 422 2884 422 3419 
Q 422 4038 858 4394 
Q 1294 4750 2059 4750 
Q 2388 4750 2728 4690 
Q 3069 4631 3425 4513 
z
" transform="scale(0.015625)"/>
       <path id="DejaVuSans-74" d="M 1172 4494 
L 1172 3500 
L 2356 3500 
L 2356 3053 
L 1172 3053 
L 1172 1153 
Q 1172 725 1289 603 
Q 1406 481 1766 481 
L 2356 481 
L 2356 0 
L 1766 0 
Q 1100 0 847 248 
Q 594 497 594 1153 
L 594 3053 
L 172 3053 
L 172 3500 
L 594 3500 
L 594 4494 
L 1172 4494 
z
" transform="scale(0.015625)"/>
       <path id="DejaVuSans-69" d="M 603 3500 
L 1178 3500 
L 1178 0 
L 603 0 
L 603 3500 
z
M 603 4863 
L 1178 4863 
L 1178 4134 
L 603 4134 
L 603 4863 
z
" transform="scale(0.015625)"/>
       <path id="DejaVuSans-64" d="M 2906 2969 
L 2906 4863 
L 3481 4863 
L 3481 0 
L 2906 0 
L 2906 525 
Q 2725 213 2448 61 
Q 2172 -91 1784 -91 
Q 1150 -91 751 415 
Q 353 922 353 1747 
Q 353 2572 751 3078 
Q 1150 3584 1784 3584 
Q 2172 3584 2448 3432 
Q 2725 3281 2906 2969 
z
M 947 1747 
Q 947 1113 1208 752 
Q 1469 391 1925 391 
Q 2381 391 2643 752 
Q 2906 1113 2906 1747 
Q 2906 2381 2643 2742 
Q 2381 3103 1925 3103 
Q 1469 3103 1208 2742 
Q 947 2381 947 1747 
z
" transform="scale(0.015625)"/>
      </defs>
      <use xlink:href="#DejaVuSans-53"/>
      <use xlink:href="#DejaVuSans-74" x="63.476562"/>
      <use xlink:href="#DejaVuSans-65" x="102.685547"/>
      <use xlink:href="#DejaVuSans-6c" x="164.208984"/>
      <use xlink:href="#DejaVuSans-6c" x="191.992188"/>
      <use xlink:href="#DejaVuSans-67" x="219.775391"/>
      <use xlink:href="#DejaVuSans-6c" x="283.251953"/>
      <use xlink:href="#DejaVuSans-69" x="311.035156"/>
      <use xlink:href="#DejaVuSans-65" x="338.818359"/>
      <use xlink:href="#DejaVuSans-64" x="400.341797"/>
     </g>
    </g>
   </g>
   <g id="text_5">
    <g clip-path="url(#p70b008b984)">
     <!-- Regelstrecke -->
     <g transform="translate(416.142695 44.309219) scale(0.125 -0.125)">
      <defs>
       <path id="DejaVuSans-73" d="M 2834 3397 
L 2834 2853 
Q 2591 2978 2328 3040 
Q 2066 3103 1784 3103 
Q 1356 3103 1142 2972 
Q 928 2841 928 2578 
Q 928 2378 1081 2264 
Q 1234 2150 1697 2047 
L 1894 2003 
Q 2506 1872 2764 1633 
Q 3022 1394 3022 966 
Q 3022 478 2636 193 
Q 2250 -91 1575 -91 
Q 1294 -91 989 -36 
Q 684 19 347 128 
L 347 722 
Q 666 556 975 473 
Q 1284 391 1588 391 
Q 1994 391 2212 530 
Q 2431 669 2431 922 
Q 2431 1156 2273 1281 
Q 2116 1406 1581 1522 
L 1381 1569 
Q 847 1681 609 1914 
Q 372 2147 372 2553 
Q 372 3047 722 3315 
Q 1072 3584 1716 3584 
Q 2034 3584 2315 3537 
Q 2597 3491 2834 3397 
z
" transform="scale(0.015625)"/>
       <path id="DejaVuSans-63" d="M 3122 3366 
L 3122 2828 
Q 2878 2963 2633 3030 
Q 2388 3097 2138 3097 
Q 1578 3097 1268 2742 
Q 959 2388 959 1747 
Q 959 1106 1268 751 
Q 1578 397 2138 397 
Q 2388 397 2633 464 
Q 2878 531 3122 666 
L 3122 134 
Q 2881 22 2623 -34 
Q 2366 -91 2075 -91 
Q 1284 -91 818 406 
Q 353 903 353 1747 
Q 353 2603 823 3093 
Q 1294 3584 2113 3584 
Q 2378 3584 2631 3529 
Q 2884 3475 3122 3366 
z
" transform="scale(0.015625)"/>
       <path id="DejaVuSans-6b" d="M 581 4863 
L 1159 4863 
L 1159 1991 
L 2875 3500 
L 3609 3500 
L 1753 1863 
L 3688 0 
L 2938 0 
L 1159 1709 
L 1159 0 
L 581 0 
L 581 4863 
z
" transform="scale(0.015625)"/>
      </defs>
      <use xlink:href="#DejaVuSans-52"/>
      <use xlink:href="#DejaVuSans-65" x="64.982422"/>
      <use xlink:href="#DejaVuSans-67" x="126.505859"/>
      <use xlink:href="#DejaVuSans-65" x="189.982422"/>
      <use xlink:href="#DejaVuSans-6c" x="251.505859"/>
      <use xlink:href="#DejaVuSans-73" x="279.289062"/>
      <use xlink:href="#DejaVuSans-74" x="331.388672"/>
      <use xlink:href="#DejaVuSans-72" x="370.597656"/>
      <use xlink:href="#DejaVuSans-65" x="409.460938"/>
      <use xlink:href="#DejaVuSans-63" x="470.984375"/>
      <use xlink:href="#DejaVuSans-6b" x="525.964844"/>
      <use xlink:href="#DejaVuSans-65" x="580.25"/>
     </g>
    </g>
   </g>
   <g id="patch_11">
    <path d="M 532.755 43.155 
C 533.363641 43.155 533.947436 42.913184 534.37781 42.48281 
C 534.808184 42.052436 535.05 41.468641 535.05 40.86 
C 535.05 40.251359 534.808184 39.667564 534.37781 39.23719 
C 533.947436 38.806816 533.363641 38.565 532.755 38.565 
C 532.146359 38.565 531.562564 38.806816 531.13219 39.23719 
C 530.701816 39.667564 530.46 40.251359 530.46 40.86 
C 530.46 41.468641 530.701816 42.052436 531.13219 42.48281 
C 531.562564 42.913184 532.146359 43.155 532.755 43.155 
z
" clip-path="url(#p70b008b984)" style="stroke: #000000; stroke-width: 2; stroke-linejoin: miter"/>
   </g>
   <g id="text_6">
    <g clip-path="url(#p70b008b984)">
     <!-- $X_a(s)$ -->
     <g transform="translate(627.615 44.309219) scale(0.125 -0.125)">
      <defs>
       <path id="DejaVuSans-Oblique-58" d="M 878 4666 
L 1516 4666 
L 2316 2981 
L 3763 4666 
L 4500 4666 
L 2578 2438 
L 3738 0 
L 3103 0 
L 2163 1966 
L 459 0 
L -275 0 
L 1906 2509 
L 878 4666 
z
" transform="scale(0.015625)"/>
       <path id="DejaVuSans-Oblique-61" d="M 3438 1997 
L 3047 0 
L 2472 0 
L 2578 531 
Q 2325 219 2001 64 
Q 1678 -91 1281 -91 
Q 834 -91 548 182 
Q 263 456 263 884 
Q 263 1497 752 1853 
Q 1241 2209 2100 2209 
L 2900 2209 
L 2931 2363 
Q 2938 2388 2941 2417 
Q 2944 2447 2944 2509 
Q 2944 2788 2717 2942 
Q 2491 3097 2081 3097 
Q 1800 3097 1504 3025 
Q 1209 2953 897 2809 
L 997 3341 
Q 1322 3463 1633 3523 
Q 1944 3584 2234 3584 
Q 2853 3584 3176 3315 
Q 3500 3047 3500 2534 
Q 3500 2431 3484 2292 
Q 3469 2153 3438 1997 
z
M 2816 1759 
L 2241 1759 
Q 1534 1759 1195 1570 
Q 856 1381 856 984 
Q 856 709 1029 553 
Q 1203 397 1509 397 
Q 1978 397 2328 733 
Q 2678 1069 2791 1631 
L 2816 1759 
z
" transform="scale(0.015625)"/>
       <path id="DejaVuSans-28" d="M 1984 4856 
Q 1566 4138 1362 3434 
Q 1159 2731 1159 2009 
Q 1159 1288 1364 580 
Q 1569 -128 1984 -844 
L 1484 -844 
Q 1016 -109 783 600 
Q 550 1309 550 2009 
Q 550 2706 781 3412 
Q 1013 4119 1484 4856 
L 1984 4856 
z
" transform="scale(0.015625)"/>
       <path id="DejaVuSans-Oblique-73" d="M 3200 3397 
L 3091 2853 
Q 2863 2978 2609 3040 
Q 2356 3103 2088 3103 
Q 1634 3103 1373 2948 
Q 1113 2794 1113 2528 
Q 1113 2219 1719 2053 
Q 1766 2041 1788 2034 
L 1972 1978 
Q 2547 1819 2739 1644 
Q 2931 1469 2931 1166 
Q 2931 609 2489 259 
Q 2047 -91 1331 -91 
Q 1053 -91 747 -37 
Q 441 16 72 128 
L 184 722 
Q 500 559 806 475 
Q 1113 391 1394 391 
Q 1816 391 2080 572 
Q 2344 753 2344 1031 
Q 2344 1331 1650 1516 
L 1591 1531 
L 1394 1581 
Q 956 1697 753 1886 
Q 550 2075 550 2369 
Q 550 2928 970 3256 
Q 1391 3584 2113 3584 
Q 2397 3584 2667 3537 
Q 2938 3491 3200 3397 
z
" transform="scale(0.015625)"/>
       <path id="DejaVuSans-29" d="M 513 4856 
L 1013 4856 
Q 1481 4119 1714 3412 
Q 1947 2706 1947 2009 
Q 1947 1309 1714 600 
Q 1481 -109 1013 -844 
L 513 -844 
Q 928 -128 1133 580 
Q 1338 1288 1338 2009 
Q 1338 2731 1133 3434 
Q 928 4138 513 4856 
z
" transform="scale(0.015625)"/>
      </defs>
      <use xlink:href="#DejaVuSans-Oblique-58" transform="translate(0 0.125)"/>
      <use xlink:href="#DejaVuSans-Oblique-61" transform="translate(68.505859 -16.28125) scale(0.7)"/>
      <use xlink:href="#DejaVuSans-28" transform="translate(114.135742 0.125)"/>
      <use xlink:href="#DejaVuSans-Oblique-73" transform="translate(153.149414 0.125)"/>
      <use xlink:href="#DejaVuSans-29" transform="translate(205.249023 0.125)"/>
     </g>
    </g>
   </g>
   <g id="text_7">
    <g clip-path="url(#p70b008b984)">
     <!-- Messglied -->
     <g transform="translate(425.251094 136.109219) scale(0.125 -0.125)">
      <defs>
       <path id="DejaVuSans-4d" d="M 628 4666 
L 1569 4666 
L 2759 1491 
L 3956 4666 
L 4897 4666 
L 4897 0 
L 4281 0 
L 4281 4097 
L 3078 897 
L 2444 897 
L 1241 4097 
L 1241 0 
L 628 0 
L 628 4666 
z
" transform="scale(0.015625)"/>
      </defs>
      <use xlink:href="#DejaVuSans-4d"/>
      <use xlink:href="#DejaVuSans-65" x="86.279297"/>
      <use xlink:href="#DejaVuSans-73" x="147.802734"/>
      <use xlink:href="#DejaVuSans-73" x="199.902344"/>
      <use xlink:href="#DejaVuSans-67" x="252.001953"/>
      <use xlink:href="#DejaVuSans-6c" x="315.478516"/>
      <use xlink:href="#DejaVuSans-69" x="343.261719"/>
      <use xlink:href="#DejaVuSans-65" x="371.044922"/>
      <use xlink:href="#DejaVuSans-64" x="432.568359"/>
     </g>
    </g>
   </g>
  </g>
 </g>
 <defs>
  <clipPath id="p70b008b984">
   <rect x="7.2" y="7.2" width="670.4154" height="159.12"/>
  </clipPath>
 </defs>
</svg>